M48
; DRILL file {KiCad (6.0.2)} date Tue Apr  9 06:49:30 2024
; FORMAT={-:-/ absolute / inch / decimal}
; #@! TF.CreationDate,2024-04-09T06:49:30+01:00
; #@! TF.GenerationSoftware,Kicad,Pcbnew,(6.0.2)
; #@! TF.FileFunction,Plated,1,2,PTH
FMAT,2
INCH
; #@! TA.AperFunction,Plated,PTH,ViaDrill
T1C0.0118
; #@! TA.AperFunction,Plated,PTH,ViaDrill
T2C0.0157
; #@! TA.AperFunction,Plated,PTH,ComponentDrill
T3C0.0300
; #@! TA.AperFunction,Plated,PTH,ComponentDrill
T4C0.0354
; #@! TA.AperFunction,Plated,PTH,ComponentDrill
T5C0.0394
; #@! TA.AperFunction,Plated,PTH,ComponentDrill
T6C0.0400
; #@! TA.AperFunction,Plated,PTH,ComponentDrill
T7C0.0433
; #@! TA.AperFunction,Plated,PTH,ComponentDrill
T8C0.0700
; #@! TA.AperFunction,Plated,PTH,ComponentDrill
T9C0.0807
; #@! TA.AperFunction,Plated,PTH,ComponentDrill
T10C0.0906
; #@! TA.AperFunction,Plated,PTH,ComponentDrill
T11C0.1260
%
G90
G05
T1
X6.5976Y-2.8579
T2
X5.515Y-2.605
X5.59Y-2.605
X5.6346Y-3.7228
X5.645Y-2.32
X5.67Y-4.005
X5.67Y-4.105
X5.6764Y-3.8185
X5.68Y-4.205
X5.6929Y-2.9134
X5.7Y-3.635
X5.7461Y-3.5276
X5.7461Y-3.6909
X5.805Y-3.885
X5.8106Y-4.0039
X5.8406Y-2.9469
X5.8406Y-3.1398
X5.8575Y-4.6212
X5.8575Y-3.9256
X5.865Y-4.535
X5.87Y-4.105
X5.874Y-3.7087
X5.878Y-3.5669
X5.895Y-2.315
X5.8995Y-4.2047
X5.905Y-4.645
X5.9173Y-4.248
X5.9232Y-2.9469
X5.925Y-4.145
X5.985Y-3.91
X5.99Y-4.145
X6.025Y-4.645
X6.2Y-3.4
X6.2535Y-4.0063
X6.2606Y-3.2488
X6.2661Y-3.5752
X6.2799Y-4.1492
X6.3154Y-2.9701
X6.3417Y-3.8917
X6.3615Y-3.6965
X6.365Y-3.76
X6.3772Y-3.6214
X6.385Y-3.83
X6.4012Y-4.3213
X6.4031Y-4.3575
X6.415Y-3.53
X6.4246Y-4.0587
X6.435Y-3.16
X6.4803Y-3.1
X6.4835Y-4.0909
X6.5512Y-4.1323
X6.5512Y-4.1941
X6.5524Y-3.3079
X6.5823Y-3.363
X6.6118Y-4.2894
X6.628Y-4.1346
X6.6752Y-2.8665
X6.7083Y-4.1236
X6.7514Y-4.344
X6.752Y-4.1413
X6.7543Y-4.4088
X6.7949Y-3.5756
X6.8528Y-3.0476
X6.8531Y-2.9449
X6.8535Y-4.1417
X6.8543Y-2.8689
X6.8567Y-4.2874
X6.87Y-2.685
T3
X5.6523Y-2.39
X5.6523Y-2.4884
X5.735Y-2.39
X5.8373Y-2.39
X5.92Y-2.39
X5.92Y-2.4884
T4
X5.7665Y-4.4492
X6.1665Y-4.4492
T5
X5.5788Y-4.58
X5.6333Y-4.6918
X5.6878Y-4.58
X5.7424Y-4.6918
X5.7969Y-4.58
X5.8514Y-4.6918
X5.9059Y-4.58
X5.924Y-2.804
X5.9605Y-4.6918
X6.015Y-4.58
X6.396Y-2.726
X6.396Y-2.826
X6.5112Y-3.3641
X6.5112Y-3.4732
X6.5112Y-3.5823
X6.5112Y-3.6913
X6.5112Y-3.8004
X6.5112Y-3.9094
X6.5112Y-4.0185
X6.5118Y-4.377
X6.5394Y-2.731
X6.6118Y-4.377
X6.623Y-3.3096
X6.623Y-3.4187
X6.623Y-3.5277
X6.623Y-3.6368
X6.623Y-3.7458
X6.623Y-3.8549
X6.623Y-3.9639
X6.623Y-4.073
X6.6394Y-2.731
X6.7118Y-4.377
X6.7394Y-2.731
X6.8118Y-4.377
T6
X5.49Y-2.805
X5.49Y-2.905
X5.49Y-3.005
X5.49Y-3.105
X5.49Y-3.205
X5.49Y-3.305
X5.49Y-3.405
X5.49Y-3.505
X5.49Y-3.605
X5.49Y-3.705
X5.49Y-3.805
X5.49Y-3.905
X5.49Y-4.005
X5.49Y-4.105
X5.49Y-4.205
X6.09Y-2.805
X6.09Y-2.905
X6.09Y-3.005
X6.09Y-3.105
X6.09Y-3.205
X6.09Y-3.305
X6.09Y-3.405
X6.09Y-3.505
X6.09Y-3.605
X6.09Y-3.705
X6.09Y-3.805
X6.09Y-3.905
X6.09Y-4.005
X6.09Y-4.105
X6.09Y-4.205
X6.25Y-2.85
X6.25Y-3.05
X6.25Y-3.15
X6.25Y-3.45
X6.25Y-3.65
X6.25Y-3.75
X6.25Y-3.85
X6.7193Y-3.1634
X6.728Y-3.0063
X6.7465Y-3.5134
X6.7484Y-3.6425
X6.7488Y-3.9004
X6.7512Y-3.7713
T7
X6.3128Y-2.19
X6.3128Y-2.4459
X6.49Y-2.19
X6.49Y-2.4459
T8
X5.49Y-2.705
X6.09Y-2.705
T9
X5.49Y-4.305
X6.09Y-4.305
T10
X5.5204Y-2.2719
X5.7861Y-2.2404
X6.0519Y-2.2719
T11
X5.3048Y-4.5918
X6.289Y-4.5918
T0
M30
