%TF.GenerationSoftware,KiCad,Pcbnew,(6.0.2)*%
%TF.CreationDate,2024-03-24T18:16:07+01:00*%
%TF.ProjectId,amigaps2 revision1.105,616d6967-6170-4733-9220-726576697369,rev?*%
%TF.SameCoordinates,Original*%
%TF.FileFunction,Legend,Bot*%
%TF.FilePolarity,Positive*%
%FSLAX46Y46*%
G04 Gerber Fmt 4.6, Leading zero omitted, Abs format (unit mm)*
G04 Created by KiCad (PCBNEW (6.0.2)) date 2024-03-24 18:16:07*
%MOMM*%
%LPD*%
G01*
G04 APERTURE LIST*
%ADD10C,0.150000*%
%ADD11C,0.100000*%
%ADD12C,0.050000*%
%ADD13C,0.250000*%
%ADD14O,2.032000X1.727200*%
%ADD15C,2.540000*%
%ADD16R,1.700000X1.700000*%
%ADD17O,1.700000X1.700000*%
%ADD18C,1.600000*%
%ADD19C,4.000000*%
%ADD20R,1.600000X1.600000*%
%ADD21R,1.800000X1.800000*%
%ADD22O,1.800000X1.800000*%
%ADD23C,1.524000*%
%ADD24C,3.300000*%
%ADD25C,2.000000*%
G04 APERTURE END LIST*
D10*
X142811500Y-63030100D02*
X143344900Y-63182500D01*
X168135300Y-71285100D02*
X168008300Y-70904100D01*
X166408100Y-65062100D02*
X166204900Y-65341500D01*
X148196300Y-67500500D02*
X148729700Y-67449700D01*
X149542500Y-54343300D02*
X150736300Y-55130700D01*
X165176200Y-68541900D02*
X164617400Y-67144900D01*
X169862500Y-64858900D02*
X169633900Y-65493900D01*
X164706300Y-63436500D02*
X164579300Y-64096900D01*
X164579300Y-64096900D02*
X164884100Y-64655700D01*
X170827700Y-60744100D02*
X170421300Y-62953900D01*
X148348700Y-72021700D02*
X147891500Y-72478900D01*
X147637500Y-56248300D02*
X148805900Y-56680100D01*
X146951700Y-72072500D02*
X146850100Y-71513700D01*
X163487100Y-61302900D02*
X162648900Y-63969900D01*
X173037500Y-57975500D02*
X172224700Y-59347100D01*
X144208500Y-53378100D02*
X145478500Y-53860700D01*
X167017700Y-67144900D02*
X166839900Y-66814700D01*
X149898100Y-70116700D02*
X149593300Y-70980300D01*
X141185900Y-58915300D02*
X140576300Y-59829700D01*
X137325100Y-63411100D02*
X137426700Y-64884300D01*
X149390100Y-57365900D02*
X149186900Y-58331100D01*
X164172900Y-60845700D02*
X164122100Y-60794900D01*
X145834100Y-67500500D02*
X146138900Y-66611500D01*
X148958300Y-72986900D02*
X148780500Y-73215500D01*
X169202100Y-56045100D02*
X170294300Y-55765700D01*
X150482300Y-69303900D02*
X149618700Y-69227700D01*
X167398700Y-63461900D02*
X166382700Y-64985900D01*
X143751300Y-67068700D02*
X144284700Y-66941700D01*
X168871900Y-71335900D02*
X169176700Y-70675500D01*
X172224700Y-69710300D02*
X171538900Y-70040500D01*
X167906700Y-67652900D02*
X167576500Y-67144900D01*
X169278300Y-66128900D02*
X168821100Y-67094100D01*
X170649900Y-71818500D02*
X170167300Y-72148700D01*
X172173900Y-73418700D02*
X172605700Y-73088500D01*
X145554700Y-67373500D02*
X145046700Y-67652900D01*
X164960300Y-58458100D02*
X163868100Y-59016900D01*
X169176700Y-74256900D02*
X169024300Y-73698100D01*
X170421300Y-73647300D02*
X169964100Y-74104500D01*
X164680900Y-70091300D02*
X165290500Y-69811900D01*
X144614900Y-66636900D02*
X144995900Y-66255900D01*
X162648900Y-63969900D02*
X162267900Y-65392300D01*
X171970700Y-71742300D02*
X171665900Y-72605900D01*
X141008100Y-60667900D02*
X140957300Y-61175900D01*
X148221700Y-54140100D02*
X149542500Y-54343300D01*
X144767300Y-65189100D02*
X144132300Y-64833500D01*
X168389300Y-73469500D02*
X168084500Y-73647300D01*
X145046700Y-66027300D02*
X145072100Y-65874900D01*
X143878300Y-65239900D02*
X143522700Y-66052700D01*
X142049500Y-59169300D02*
X141566900Y-58915300D01*
X171919900Y-72326500D02*
X170573700Y-71742300D01*
X141566900Y-58915300D02*
X141185900Y-58915300D01*
X165290500Y-62725300D02*
X165265100Y-61734700D01*
X166077900Y-65316100D02*
X166077900Y-65366900D01*
X144284700Y-66941700D02*
X144614900Y-66636900D01*
X143954500Y-53378100D02*
X143040100Y-53987700D01*
X143090900Y-65595500D02*
X143370300Y-66687700D01*
X170802300Y-69075300D02*
X171462700Y-69176900D01*
X166077900Y-65366900D02*
X166128700Y-65366900D01*
X142989300Y-60972700D02*
X142481300Y-62090300D01*
X141363700Y-61810900D02*
X141922500Y-61988700D01*
X173875700Y-56070500D02*
X173037500Y-57721500D01*
X163055300Y-63080900D02*
X162775900Y-63004700D01*
X140373100Y-59626500D02*
X139915900Y-59220100D01*
X147294600Y-66357500D02*
X146024600Y-65951100D01*
X170573700Y-70853300D02*
X171462700Y-71081900D01*
X142481300Y-62090300D02*
X142151100Y-63157100D01*
X139966700Y-61404500D02*
X140296900Y-60667900D01*
X168960800Y-67094100D02*
X169697400Y-66941700D01*
X144005300Y-63741300D02*
X144056100Y-63741300D01*
X147967700Y-70523100D02*
X148577300Y-70192900D01*
X146088100Y-67094100D02*
X145884900Y-67881500D01*
X164706300Y-58229500D02*
X165646100Y-57975500D01*
X150787100Y-69862700D02*
X150482300Y-69303900D01*
X169367200Y-67983100D02*
X168097200Y-67576700D01*
X168084500Y-73647300D02*
X168084500Y-73444100D01*
X171462700Y-58991500D02*
X171259500Y-59956700D01*
X170573700Y-72326500D02*
X171157900Y-72428100D01*
X147281900Y-67246500D02*
X146545300Y-66509900D01*
X150101300Y-71793100D02*
X150533100Y-71462900D01*
X145783300Y-68237100D02*
X145834100Y-67500500D01*
X163995100Y-63614300D02*
X164807900Y-63004700D01*
X146392900Y-59448700D02*
X145910300Y-60058300D01*
X169456100Y-74358500D02*
X169405300Y-74307700D01*
X143217900Y-61099700D02*
X143192500Y-60109100D01*
X142608300Y-68465700D02*
X143217900Y-68186300D01*
X142074900Y-64427100D02*
X142455900Y-65570100D01*
X163271200Y-69684900D02*
X163982400Y-69862700D01*
X164045900Y-50761900D02*
X163461700Y-52793900D01*
X145046700Y-67652900D02*
X144284700Y-67830700D01*
X167347900Y-67170300D02*
X167525700Y-66611500D01*
X149199600Y-66154300D02*
X148971000Y-66281300D01*
X142151100Y-63157100D02*
X142074900Y-64427100D01*
X170878500Y-58305700D02*
X171462700Y-58991500D01*
X170751500Y-73012300D02*
X170040300Y-72148700D01*
X161353500Y-63969900D02*
X162039300Y-63030100D01*
X149618700Y-69227700D02*
X148247100Y-69380100D01*
X148501100Y-70700900D02*
X149085300Y-70802500D01*
X146748500Y-65468500D02*
X146088100Y-66332100D01*
X145453100Y-64985900D02*
X145910300Y-64325500D01*
X145376900Y-61023500D02*
X145326100Y-61836300D01*
X140703300Y-61379100D02*
X140373100Y-61023500D01*
X145783300Y-68237100D02*
X146037300Y-67043300D01*
X137706100Y-62293500D02*
X137325100Y-63411100D01*
X165417500Y-64808100D02*
X165976300Y-64630300D01*
X167144700Y-67500500D02*
X167017700Y-67144900D01*
X167982900Y-61683900D02*
X167449500Y-62649100D01*
X147789900Y-63233300D02*
X147561300Y-63868300D01*
X167855900Y-69862700D02*
X168109900Y-68668900D01*
X165061900Y-62598300D02*
X164553900Y-63715900D01*
X149593300Y-70980300D02*
X150329900Y-71869300D01*
X149466300Y-68414900D02*
X148831300Y-68414900D01*
X174078900Y-49517300D02*
X174332900Y-50838100D01*
X170167300Y-72148700D02*
X169760900Y-71234300D01*
X171005500Y-73596500D02*
X170751500Y-73012300D01*
X148120100Y-68694300D02*
X147739100Y-67957700D01*
X172554900Y-70929500D02*
X171691300Y-70853300D01*
X169760900Y-71234300D02*
X170573700Y-70853300D01*
X146799300Y-69710300D02*
X147104100Y-69049900D01*
X166204900Y-65341500D02*
X165722300Y-65925700D01*
X167119300Y-67652900D02*
X167144700Y-67500500D01*
X143370300Y-56553100D02*
X142887700Y-56832500D01*
X149644100Y-71793100D02*
X149237700Y-72377300D01*
X172224700Y-59347100D02*
X171056300Y-60032900D01*
X166814500Y-63919100D02*
X166941500Y-63004700D01*
X168922700Y-71615300D02*
X168719500Y-72351900D01*
X149390100Y-69456300D02*
X149847300Y-70700900D01*
X166357300Y-68567300D02*
X166687500Y-68262500D01*
X172758100Y-72478900D02*
X172859700Y-71488300D01*
X171310300Y-74002900D02*
X171030900Y-74612500D01*
X139509500Y-61023500D02*
X140347700Y-60032900D01*
X171272200Y-67779900D02*
X171043600Y-67906900D01*
X146011900Y-72021700D02*
X146011900Y-71818500D01*
X144360900Y-60617100D02*
X143446500Y-60566300D01*
X152260300Y-49212500D02*
X152311100Y-51371500D01*
X146951700Y-71894700D02*
X147688300Y-71869300D01*
X150964900Y-56349900D02*
X150152100Y-57721500D01*
X147205700Y-64503300D02*
X146748500Y-65468500D01*
X170192700Y-70319900D02*
X169811700Y-69583300D01*
X147561300Y-63868300D02*
X147205700Y-64503300D01*
X144335500Y-63436500D02*
X144132300Y-63715900D01*
X172808900Y-56756300D02*
X173037500Y-57975500D01*
X170116500Y-64198500D02*
X169862500Y-64858900D01*
X148780500Y-73215500D02*
X148704300Y-73215500D01*
X165290500Y-69811900D02*
X165976300Y-69557900D01*
X165442900Y-58178700D02*
X164960300Y-58458100D01*
X149110700Y-57746900D02*
X148755100Y-59118500D01*
X146189700Y-69888100D02*
X146316700Y-70269100D01*
X150533100Y-72097900D02*
X150075900Y-73063100D01*
X147688300Y-69608700D02*
X146850100Y-69989700D01*
X147027900Y-67500500D02*
X146900900Y-66840100D01*
X172059600Y-56781700D02*
X171323000Y-58712100D01*
X169100500Y-69126100D02*
X168973500Y-68465700D01*
X166027100Y-55003700D02*
X165112700Y-55613300D01*
X169379900Y-71462900D02*
X170116500Y-71081900D01*
X169633900Y-65493900D02*
X169278300Y-66128900D01*
X146202400Y-65849500D02*
X146888200Y-65468500D01*
X171716700Y-73418700D02*
X171310300Y-74002900D01*
X146062700Y-71310500D02*
X146519900Y-70523100D01*
X168846500Y-73291700D02*
X168389300Y-73469500D01*
X164147500Y-66052700D02*
X164528500Y-67195700D01*
X147154900Y-68364100D02*
X147027900Y-67500500D01*
X168592500Y-72148700D02*
X169379900Y-71462900D01*
X169659300Y-69583300D02*
X170268900Y-69126100D01*
X141795500Y-57391300D02*
X140855700Y-58229500D01*
X168719500Y-72351900D02*
X168744900Y-73266300D01*
X169760900Y-73494900D02*
X170802300Y-74358500D01*
X148043900Y-69456300D02*
X148653500Y-69430900D01*
X170776900Y-74841100D02*
X170649900Y-74434700D01*
X146062700Y-69659500D02*
X145935700Y-69278500D01*
X167068500Y-67881500D02*
X167347900Y-67170300D01*
X163461700Y-52793900D02*
X163436300Y-55156100D01*
X146850100Y-71513700D02*
X146773900Y-71666100D01*
X147891500Y-72478900D02*
X147383500Y-72732900D01*
X164223700Y-64782700D02*
X164147500Y-66052700D01*
X159778700Y-63919100D02*
X159397700Y-65036700D01*
X170116500Y-71081900D02*
X170726100Y-71056500D01*
X145326100Y-61836300D02*
X144310100Y-63360300D01*
X142303500Y-57289700D02*
X142633700Y-56603900D01*
X143370300Y-66687700D02*
X143751300Y-67068700D01*
X169964100Y-74104500D02*
X169456100Y-74358500D01*
X169735500Y-69507100D02*
X169887900Y-69634100D01*
X146545300Y-56527700D02*
X147637500Y-56248300D01*
X163436300Y-55156100D02*
X164020500Y-56756300D01*
X163296600Y-69684900D02*
X162915600Y-69380100D01*
X165646100Y-57975500D02*
X166865300Y-57721500D01*
X148971000Y-66281300D02*
X148158200Y-66459100D01*
X168262300Y-71513700D02*
X168389300Y-71894700D01*
X163639500Y-60540900D02*
X163258500Y-60540900D01*
X168287700Y-71691500D02*
X168236900Y-71462900D01*
X150075900Y-73063100D02*
X149644100Y-71793100D01*
X147586700Y-67957700D02*
X148196300Y-67500500D01*
X145935700Y-69278500D02*
X145808700Y-68821300D01*
X168617900Y-68135500D02*
X167906700Y-67652900D01*
X142201900Y-55029100D02*
X142151100Y-56730900D01*
X167449500Y-62649100D02*
X167398700Y-63461900D01*
X145478500Y-53860700D02*
X147129500Y-54419500D01*
X148043900Y-62572900D02*
X147789900Y-63233300D01*
X166865300Y-57721500D02*
X168617900Y-58153300D01*
X163436300Y-63436500D02*
X163995100Y-63614300D01*
X140296900Y-60820300D02*
X140474700Y-59956700D01*
X164274500Y-56654700D02*
X164223700Y-58356500D01*
X149085300Y-70802500D02*
X150101300Y-71793100D01*
X138722100Y-60642500D02*
X138899900Y-61252100D01*
X140982700Y-61455300D02*
X140703300Y-61379100D01*
X168097200Y-67576700D02*
X168275000Y-67475100D01*
X139331700Y-67703700D02*
X140246100Y-67856100D01*
X138341100Y-60693300D02*
X137706100Y-62293500D01*
X148501100Y-70116700D02*
X148501100Y-70700900D01*
X174332900Y-50838100D02*
X174383700Y-52997100D01*
X166128700Y-65366900D02*
X166408100Y-65062100D01*
X164604700Y-59118500D02*
X164376100Y-58915300D01*
X146164300Y-69837300D02*
X146062700Y-69659500D01*
X148653500Y-69430900D02*
X149390100Y-69405500D01*
X150685500Y-70853300D02*
X150787100Y-69862700D01*
X143103600Y-66916300D02*
X142544800Y-65519300D01*
X149390100Y-69405500D02*
X149898100Y-70116700D01*
X144945100Y-65519300D02*
X144767300Y-65189100D01*
X147688300Y-69608700D02*
X148501100Y-69227700D01*
X168008300Y-70904100D02*
X167881300Y-70446900D01*
X166636700Y-54140100D02*
X166027100Y-55003700D01*
X142887700Y-56832500D02*
X141795500Y-57391300D01*
X160413700Y-62318900D02*
X159778700Y-63919100D01*
X168744900Y-73266300D02*
X169024300Y-73520300D01*
X166281100Y-55003700D02*
X167551100Y-55486300D01*
X145986500Y-69202300D02*
X146189700Y-69888100D01*
X144183100Y-63157100D02*
X144741900Y-62293500D01*
X170319700Y-71005700D02*
X170192700Y-70319900D01*
X170040300Y-72148700D02*
X170649900Y-71818500D01*
X140195300Y-63766700D02*
X140601700Y-66230500D01*
X148729700Y-72732900D02*
X148932900Y-71970900D01*
X159880300Y-68059300D02*
X161048700Y-68389500D01*
X147688300Y-71869300D02*
X148729700Y-72732900D01*
X165112700Y-55613300D02*
X164274500Y-56654700D01*
X138976100Y-59905900D02*
X138722100Y-60642500D01*
X164960300Y-48196500D02*
X164045900Y-50761900D01*
X165519100Y-62191900D02*
X165061900Y-62598300D01*
X167119300Y-69278500D02*
X166357300Y-69456300D01*
X168465500Y-61074300D02*
X167982900Y-61683900D01*
X148932900Y-71970900D02*
X148678900Y-71386700D01*
X166204900Y-66459100D02*
X165976300Y-66763900D01*
X148755100Y-59118500D02*
X148348700Y-61328300D01*
X145072100Y-65874900D02*
X144945100Y-65519300D01*
X161048700Y-61531500D02*
X160794700Y-62268100D01*
X170726100Y-71056500D02*
X171462700Y-71031100D01*
X170903900Y-70040500D02*
X170040300Y-69710300D01*
X148247100Y-61480700D02*
X148043900Y-62572900D01*
X167627300Y-68999100D02*
X167119300Y-69278500D01*
X169710100Y-57873900D02*
X170878500Y-58305700D01*
X159397700Y-65036700D02*
X159499300Y-66509900D01*
X169405300Y-74307700D02*
X169176700Y-74256900D01*
X169176700Y-70675500D02*
X169227500Y-69989700D01*
X147332700Y-72682100D02*
X147104100Y-72631300D01*
X141389100Y-51168300D02*
X141363700Y-53530500D01*
X146138900Y-66611500D02*
X145783300Y-68237100D01*
X168389300Y-71894700D02*
X168871900Y-71335900D01*
X148577300Y-72809100D02*
X148653500Y-72301100D01*
X168922700Y-73139300D02*
X168846500Y-73291700D01*
X171462700Y-69176900D02*
X172224700Y-69710300D01*
X166941500Y-63004700D02*
X166433500Y-62242700D01*
X174383700Y-52997100D02*
X173875700Y-56070500D01*
X144005300Y-63690500D02*
X144005300Y-63741300D01*
X164553900Y-63715900D02*
X164223700Y-64782700D01*
X163029900Y-62801500D02*
X163436300Y-63436500D01*
X138976100Y-66763900D02*
X139331700Y-67703700D01*
X168617900Y-58153300D02*
X169710100Y-57873900D01*
X142532100Y-57492900D02*
X142303500Y-57289700D01*
X167957500Y-69507100D02*
X167881300Y-69888100D01*
X143040100Y-53987700D02*
X142201900Y-55029100D01*
X147104100Y-72631300D02*
X146951700Y-72072500D01*
X162928300Y-59855100D02*
X162344100Y-60490100D01*
X145884900Y-67881500D02*
X145808700Y-68262500D01*
X141414500Y-59677300D02*
X140576300Y-62344300D01*
X165836600Y-55410100D02*
X164515800Y-57924700D01*
X170726100Y-73926700D02*
X170421300Y-73647300D01*
X162560000Y-114300000D02*
X157000000Y-110000000D01*
X163868100Y-59016900D02*
X162928300Y-59855100D01*
X166839900Y-66814700D02*
X166204900Y-66459100D01*
X172605700Y-73723500D02*
X172148500Y-74688700D01*
X166738300Y-63030100D02*
X166484300Y-63639700D01*
X162445700Y-61252100D02*
X161988500Y-60845700D01*
X165646100Y-47155100D02*
X164960300Y-48196500D01*
X148158200Y-66459100D02*
X147294600Y-66357500D01*
X144995900Y-66255900D02*
X145275300Y-65544700D01*
X170802300Y-74358500D02*
X171005500Y-73596500D01*
X150736300Y-55130700D02*
X150964900Y-56349900D01*
X144132300Y-63715900D02*
X143649700Y-64300100D01*
X171462700Y-71081900D02*
X171919900Y-72326500D01*
X142024100Y-68237100D02*
X142608300Y-68465700D01*
X148501100Y-69227700D02*
X149390100Y-69456300D01*
X146773900Y-71666100D02*
X146316700Y-71843900D01*
X144868900Y-61379100D02*
X144360900Y-60617100D01*
X169227500Y-69989700D02*
X169100500Y-69126100D01*
X172605700Y-73088500D02*
X172605700Y-73723500D01*
X166433500Y-62242700D02*
X165519100Y-62191900D01*
X150152100Y-57721500D02*
X148983700Y-58407300D01*
X144665700Y-61404500D02*
X144411700Y-62014100D01*
X157000000Y-110000000D02*
X157000000Y-55000000D01*
X169024300Y-73698100D02*
X168922700Y-73139300D01*
X145275300Y-65544700D02*
X145453100Y-64985900D01*
X146037300Y-67043300D02*
X146088100Y-67094100D01*
X148831300Y-68414900D02*
X147967700Y-68084700D01*
X171030900Y-74612500D02*
X170853100Y-74841100D01*
X161404300Y-69329300D02*
X162318700Y-69481700D01*
X168973500Y-68465700D02*
X169405300Y-68795900D01*
X138938000Y-63207900D02*
X139217400Y-62395100D01*
X148805900Y-56680100D02*
X149390100Y-57365900D01*
X162369500Y-62293500D02*
X162445700Y-61252100D01*
X143192500Y-60109100D02*
X143014700Y-59448700D01*
X163080700Y-62293500D02*
X163029900Y-62801500D01*
X146215100Y-70065900D02*
X146164300Y-69837300D01*
X170319700Y-63106300D02*
X170116500Y-64198500D01*
X160972500Y-62877700D02*
X161582100Y-62649100D01*
X163258500Y-60540900D02*
X162648900Y-61455300D01*
X168059100Y-70827900D02*
X168262300Y-71513700D01*
X147383500Y-72732900D02*
X147332700Y-72682100D01*
X146265900Y-70269100D02*
X146215100Y-70065900D01*
X161010600Y-64833500D02*
X161290000Y-64020700D01*
X145910300Y-60058300D02*
X145376900Y-61023500D01*
X146900900Y-66840100D02*
X147332700Y-67170300D01*
X146024600Y-65951100D02*
X146202400Y-65849500D01*
X146850100Y-69989700D02*
X146646900Y-70726300D01*
X142633700Y-61810900D02*
X142506700Y-62471300D01*
X145808700Y-68262500D02*
X145986500Y-69202300D01*
X159499300Y-66509900D02*
X159880300Y-68059300D01*
X142633700Y-56603900D02*
X143573500Y-56349900D01*
X146011900Y-71818500D02*
X146062700Y-71310500D01*
X142151100Y-59169300D02*
X141414500Y-59677300D01*
X149987000Y-55156100D02*
X149250400Y-57086500D01*
X169887900Y-69634100D02*
X169659300Y-69583300D01*
X143903700Y-63004700D02*
X144284700Y-62191900D01*
X169760900Y-71234300D02*
X168922700Y-71615300D01*
X170649900Y-74434700D02*
X170726100Y-73926700D01*
X148577300Y-70192900D02*
X148094700Y-70523100D01*
X146646900Y-70726300D02*
X146672300Y-71640700D01*
X167881300Y-69888100D02*
X168059100Y-70827900D01*
X144741900Y-62293500D02*
X144868900Y-61379100D01*
X143217900Y-68186300D02*
X143903700Y-67932300D01*
X142887700Y-46570900D02*
X141973300Y-49136300D01*
X168236900Y-71462900D02*
X168135300Y-71285100D01*
X171691300Y-70853300D02*
X170319700Y-71005700D01*
X171538900Y-70040500D02*
X170903900Y-70040500D01*
X137807700Y-66433700D02*
X138976100Y-66763900D01*
X143624300Y-53479700D02*
X144208500Y-53378100D01*
X168275000Y-67475100D02*
X168960800Y-67094100D01*
X148247100Y-69380100D02*
X148120100Y-68694300D01*
X148653500Y-72301100D02*
X148348700Y-72021700D01*
X167855900Y-69862700D02*
X167906700Y-69126100D01*
X142506700Y-62471300D02*
X142811500Y-63030100D01*
X140296900Y-60667900D02*
X140373100Y-59626500D01*
X145834100Y-66027300D02*
X145503900Y-65519300D01*
X161328100Y-60845700D02*
X160413700Y-62318900D01*
X165442900Y-68313300D02*
X165823900Y-68694300D01*
X141922500Y-61988700D02*
X142735300Y-61379100D01*
X164884100Y-64655700D02*
X165417500Y-64808100D01*
X143014700Y-59448700D02*
X142151100Y-59169300D01*
X146316700Y-71843900D02*
X146011900Y-72021700D01*
X165087300Y-61074300D02*
X164223700Y-60794900D01*
X148539200Y-65595500D02*
X149199600Y-66154300D01*
X171157900Y-72428100D02*
X172173900Y-73418700D01*
X161988500Y-60845700D02*
X161328100Y-60845700D01*
X150152100Y-68084700D02*
X149466300Y-68414900D01*
X166255700Y-64782700D02*
X166814500Y-63919100D01*
X149390100Y-67551300D02*
X150152100Y-68084700D01*
X139915900Y-59220100D02*
X139255500Y-59220100D01*
X152006300Y-47891700D02*
X152260300Y-49212500D01*
X169354500Y-68872100D02*
X168617900Y-68135500D01*
X162267900Y-65392300D02*
X162674300Y-67856100D01*
X170294300Y-55765700D02*
X171615100Y-55968900D01*
X140246100Y-67856100D02*
X140830300Y-67779900D01*
X143573500Y-56349900D02*
X144792700Y-56095900D01*
X165823900Y-68694300D02*
X166357300Y-68567300D01*
X162775900Y-63004700D02*
X162445700Y-62649100D01*
X143344900Y-63182500D02*
X143903700Y-63004700D01*
X147104100Y-69049900D02*
X147154900Y-68364100D01*
X152311100Y-51371500D02*
X151803100Y-54444900D01*
X162318700Y-69481700D02*
X162902900Y-69405500D01*
X167551100Y-55486300D02*
X169202100Y-56045100D01*
X172859700Y-71488300D02*
X172554900Y-70929500D01*
X141198600Y-68059300D02*
X141909800Y-68237100D01*
X162039300Y-63030100D02*
X162369500Y-62293500D01*
X146519900Y-70523100D02*
X147307300Y-69837300D01*
X143573500Y-45529500D02*
X142887700Y-46570900D01*
X172148500Y-74688700D02*
X171716700Y-73418700D01*
X143319500Y-64909700D02*
X143090900Y-65595500D01*
X149237700Y-72377300D02*
X148958300Y-72986900D01*
X146672300Y-71640700D02*
X146951700Y-71894700D01*
X147307300Y-69837300D02*
X148043900Y-69456300D01*
X162445700Y-62649100D02*
X162369500Y-62445900D01*
X165696900Y-55105300D02*
X166281100Y-55003700D01*
X168160700Y-68719700D02*
X167957500Y-69507100D01*
X140855700Y-58229500D02*
X140271500Y-58864500D01*
X169405300Y-68795900D02*
X169735500Y-69507100D01*
X138899900Y-61252100D02*
X139509500Y-61023500D01*
X147332700Y-67170300D02*
X147662900Y-67881500D01*
X171183300Y-59372500D02*
X170827700Y-60744100D01*
X168338500Y-71894700D02*
X168287700Y-71691500D01*
X170230800Y-68084700D02*
X169367200Y-67983100D01*
X146888200Y-65468500D02*
X147624800Y-65316100D01*
X169024300Y-73520300D02*
X169760900Y-73494900D01*
X169697400Y-66941700D02*
X170611800Y-67221100D01*
X171665900Y-72605900D02*
X172402500Y-73494900D01*
X144564100Y-52514500D02*
X143954500Y-53378100D01*
X144132300Y-64833500D02*
X143903700Y-65138300D01*
X139255500Y-59220100D02*
X138341100Y-60693300D01*
X172402500Y-73494900D02*
X172758100Y-72478900D01*
X171043600Y-67906900D02*
X170230800Y-68084700D01*
X147624800Y-65316100D02*
X148539200Y-65595500D01*
X170268900Y-69126100D02*
X170802300Y-69075300D01*
X147662900Y-67881500D02*
X147815300Y-68008500D01*
X148678900Y-71386700D02*
X147967700Y-70523100D01*
X140576300Y-62344300D02*
X140195300Y-63766700D01*
X165722300Y-65925700D02*
X165392100Y-66535300D01*
X171462700Y-71031100D02*
X171970700Y-71742300D01*
X137426700Y-64884300D02*
X137807700Y-66433700D01*
X168084500Y-73444100D02*
X168135300Y-72936100D01*
X164122100Y-60794900D02*
X163639500Y-60540900D01*
X143649700Y-64300100D02*
X143319500Y-64909700D01*
X146545300Y-66509900D02*
X145834100Y-66027300D01*
X140957300Y-61175900D02*
X141363700Y-61810900D01*
X161048700Y-68389500D02*
X161404300Y-69329300D01*
X146088100Y-66332100D02*
X145554700Y-67373500D01*
X144056100Y-63741300D02*
X144335500Y-63436500D01*
X142100300Y-59220100D02*
X142049500Y-59169300D01*
X165392100Y-66535300D02*
X165163500Y-67221100D01*
X149847300Y-70700900D02*
X148501100Y-70116700D01*
X161582100Y-62649100D02*
X162420300Y-61658500D01*
X141973300Y-49136300D02*
X141389100Y-51168300D01*
X141363700Y-53530500D02*
X141947900Y-55130700D01*
X139280900Y-62344300D02*
X139966700Y-61404500D01*
X164376100Y-58915300D02*
X164706300Y-58229500D01*
X148704300Y-73215500D02*
X148577300Y-72809100D01*
X164223700Y-60794900D02*
X163487100Y-61302900D01*
X170611800Y-67221100D02*
X171272200Y-67779900D01*
X165976300Y-64630300D02*
X166357300Y-63817500D01*
X138988800Y-66586100D02*
X138938000Y-63207900D01*
X151803100Y-54444900D02*
X150964900Y-56095900D01*
X167906700Y-69126100D02*
X168211500Y-68237100D01*
X168160700Y-67957700D02*
X167627300Y-68999100D01*
X170853100Y-74841100D02*
X170776900Y-74841100D01*
X168109900Y-68668900D02*
X168160700Y-68719700D01*
X144792700Y-56095900D02*
X146545300Y-56527700D01*
X166687500Y-68262500D02*
X167068500Y-67881500D01*
X147739100Y-67957700D02*
X147281900Y-67246500D01*
X167525700Y-66611500D02*
X167982900Y-65951100D01*
X168821100Y-67094100D02*
X168160700Y-67957700D01*
X162369500Y-62445900D02*
X162547300Y-61582300D01*
X171615100Y-55968900D02*
X172808900Y-56756300D01*
X150533100Y-71462900D02*
X150533100Y-72097900D01*
X150329900Y-71869300D02*
X150685500Y-70853300D01*
X165265100Y-61734700D02*
X165087300Y-61074300D01*
X170573700Y-71742300D02*
X170573700Y-72326500D01*
X168135300Y-72936100D02*
X168592500Y-72148700D01*
X148094700Y-70523100D02*
X147688300Y-69608700D01*
X164096700Y-69862700D02*
X164680900Y-70091300D01*
X165950900Y-66865500D02*
X165595300Y-67678300D01*
X160794700Y-62268100D02*
X160972500Y-62877700D01*
X148729700Y-67449700D02*
X149390100Y-67551300D01*
X147815300Y-68008500D02*
X147586700Y-67957700D01*
X147129500Y-54419500D02*
X148221700Y-54140100D01*
X169811700Y-69583300D02*
X169354500Y-68872100D01*
X161061400Y-68211700D02*
X161010600Y-64833500D01*
X165163500Y-67221100D02*
X165442900Y-68313300D01*
X141224000Y-68059300D02*
X140843000Y-67754500D01*
X140373100Y-61023500D02*
X140296900Y-60820300D01*
X143764000Y-53784500D02*
X142443200Y-56299100D01*
X143446500Y-60566300D02*
X142989300Y-60972700D01*
X146316700Y-70269100D02*
X146799300Y-69710300D01*
X168211500Y-68237100D02*
X167855900Y-69862700D01*
X136110719Y-67817238D02*
X136158338Y-67912476D01*
X136205957Y-67960095D01*
X136301195Y-68007714D01*
X136586909Y-68007714D01*
X136682147Y-67960095D01*
X136729766Y-67912476D01*
X136777385Y-67817238D01*
X136777385Y-67674380D01*
X136729766Y-67579142D01*
X136682147Y-67531523D01*
X136586909Y-67483904D01*
X136301195Y-67483904D01*
X136205957Y-67531523D01*
X136158338Y-67579142D01*
X136110719Y-67674380D01*
X136110719Y-67817238D01*
X136777385Y-67055333D02*
X135777385Y-67055333D01*
X136729766Y-67055333D02*
X136777385Y-66960095D01*
X136777385Y-66769619D01*
X136729766Y-66674380D01*
X136682147Y-66626761D01*
X136586909Y-66579142D01*
X136301195Y-66579142D01*
X136205957Y-66626761D01*
X136158338Y-66674380D01*
X136110719Y-66769619D01*
X136110719Y-66960095D01*
X136158338Y-67055333D01*
X136158338Y-65769619D02*
X136110719Y-65864857D01*
X136110719Y-66055333D01*
X136158338Y-66150571D01*
X136253576Y-66198190D01*
X136634528Y-66198190D01*
X136729766Y-66150571D01*
X136777385Y-66055333D01*
X136777385Y-65864857D01*
X136729766Y-65769619D01*
X136634528Y-65722000D01*
X136539290Y-65722000D01*
X136444052Y-66198190D01*
X136777385Y-65293428D02*
X136110719Y-65293428D01*
X136682147Y-65293428D02*
X136729766Y-65245809D01*
X136777385Y-65150571D01*
X136777385Y-65007714D01*
X136729766Y-64912476D01*
X136634528Y-64864857D01*
X136110719Y-64864857D01*
X136777385Y-63960095D02*
X135967861Y-63960095D01*
X135872623Y-64007714D01*
X135825004Y-64055333D01*
X135777385Y-64150571D01*
X135777385Y-64293428D01*
X135825004Y-64388666D01*
X136158338Y-63960095D02*
X136110719Y-64055333D01*
X136110719Y-64245809D01*
X136158338Y-64341047D01*
X136205957Y-64388666D01*
X136301195Y-64436285D01*
X136586909Y-64436285D01*
X136682147Y-64388666D01*
X136729766Y-64341047D01*
X136777385Y-64245809D01*
X136777385Y-64055333D01*
X136729766Y-63960095D01*
X136110719Y-63483904D02*
X136777385Y-63483904D01*
X137110719Y-63483904D02*
X137063100Y-63531523D01*
X137015480Y-63483904D01*
X137063100Y-63436285D01*
X137110719Y-63483904D01*
X137015480Y-63483904D01*
X136777385Y-63102952D02*
X136110719Y-62864857D01*
X136777385Y-62626761D01*
X136158338Y-61864857D02*
X136110719Y-61960095D01*
X136110719Y-62150571D01*
X136158338Y-62245809D01*
X136253576Y-62293428D01*
X136634528Y-62293428D01*
X136729766Y-62245809D01*
X136777385Y-62150571D01*
X136777385Y-61960095D01*
X136729766Y-61864857D01*
X136634528Y-61817238D01*
X136539290Y-61817238D01*
X136444052Y-62293428D01*
X136110719Y-61388666D02*
X137110719Y-61388666D01*
X136729766Y-61388666D02*
X136777385Y-61293428D01*
X136777385Y-61102952D01*
X136729766Y-61007714D01*
X136682147Y-60960095D01*
X136586909Y-60912476D01*
X136301195Y-60912476D01*
X136205957Y-60960095D01*
X136158338Y-61007714D01*
X136110719Y-61102952D01*
X136110719Y-61293428D01*
X136158338Y-61388666D01*
X136110719Y-60055333D02*
X136634528Y-60055333D01*
X136729766Y-60102952D01*
X136777385Y-60198190D01*
X136777385Y-60388666D01*
X136729766Y-60483904D01*
X136158338Y-60055333D02*
X136110719Y-60150571D01*
X136110719Y-60388666D01*
X136158338Y-60483904D01*
X136253576Y-60531523D01*
X136348814Y-60531523D01*
X136444052Y-60483904D01*
X136491671Y-60388666D01*
X136491671Y-60150571D01*
X136539290Y-60055333D01*
X136158338Y-59150571D02*
X136110719Y-59245809D01*
X136110719Y-59436285D01*
X136158338Y-59531523D01*
X136205957Y-59579142D01*
X136301195Y-59626761D01*
X136586909Y-59626761D01*
X136682147Y-59579142D01*
X136729766Y-59531523D01*
X136777385Y-59436285D01*
X136777385Y-59245809D01*
X136729766Y-59150571D01*
X136110719Y-58722000D02*
X137110719Y-58722000D01*
X136491671Y-58626761D02*
X136110719Y-58341047D01*
X136777385Y-58341047D02*
X136396433Y-58722000D01*
X136205957Y-57912476D02*
X136158338Y-57864857D01*
X136110719Y-57912476D01*
X136158338Y-57960095D01*
X136205957Y-57912476D01*
X136110719Y-57912476D01*
X136110719Y-57293428D02*
X136158338Y-57388666D01*
X136205957Y-57436285D01*
X136301195Y-57483904D01*
X136586909Y-57483904D01*
X136682147Y-57436285D01*
X136729766Y-57388666D01*
X136777385Y-57293428D01*
X136777385Y-57150571D01*
X136729766Y-57055333D01*
X136682147Y-57007714D01*
X136586909Y-56960095D01*
X136301195Y-56960095D01*
X136205957Y-57007714D01*
X136158338Y-57055333D01*
X136110719Y-57150571D01*
X136110719Y-57293428D01*
X136110719Y-56531523D02*
X136777385Y-56531523D01*
X136586909Y-56531523D02*
X136682147Y-56483904D01*
X136729766Y-56436285D01*
X136777385Y-56341047D01*
X136777385Y-56245809D01*
X136777385Y-55483904D02*
X135967861Y-55483904D01*
X135872623Y-55531523D01*
X135825004Y-55579142D01*
X135777385Y-55674380D01*
X135777385Y-55817238D01*
X135825004Y-55912476D01*
X136158338Y-55483904D02*
X136110719Y-55579142D01*
X136110719Y-55769619D01*
X136158338Y-55864857D01*
X136205957Y-55912476D01*
X136301195Y-55960095D01*
X136586909Y-55960095D01*
X136682147Y-55912476D01*
X136729766Y-55864857D01*
X136777385Y-55769619D01*
X136777385Y-55579142D01*
X136729766Y-55483904D01*
D11*
X170140342Y-109680285D02*
X170111771Y-109594571D01*
X170111771Y-109451714D01*
X170140342Y-109394571D01*
X170168914Y-109366000D01*
X170226057Y-109337428D01*
X170283200Y-109337428D01*
X170340342Y-109366000D01*
X170368914Y-109394571D01*
X170397485Y-109451714D01*
X170426057Y-109566000D01*
X170454628Y-109623142D01*
X170483200Y-109651714D01*
X170540342Y-109680285D01*
X170597485Y-109680285D01*
X170654628Y-109651714D01*
X170683200Y-109623142D01*
X170711771Y-109566000D01*
X170711771Y-109423142D01*
X170683200Y-109337428D01*
X170168914Y-108737428D02*
X170140342Y-108766000D01*
X170111771Y-108851714D01*
X170111771Y-108908857D01*
X170140342Y-108994571D01*
X170197485Y-109051714D01*
X170254628Y-109080285D01*
X170368914Y-109108857D01*
X170454628Y-109108857D01*
X170568914Y-109080285D01*
X170626057Y-109051714D01*
X170683200Y-108994571D01*
X170711771Y-108908857D01*
X170711771Y-108851714D01*
X170683200Y-108766000D01*
X170654628Y-108737428D01*
X170111771Y-108194571D02*
X170111771Y-108480285D01*
X170711771Y-108480285D01*
X165755600Y-109423142D02*
X165784171Y-109480285D01*
X165784171Y-109566000D01*
X165755600Y-109651714D01*
X165698457Y-109708857D01*
X165641314Y-109737428D01*
X165527028Y-109766000D01*
X165441314Y-109766000D01*
X165327028Y-109737428D01*
X165269885Y-109708857D01*
X165212742Y-109651714D01*
X165184171Y-109566000D01*
X165184171Y-109508857D01*
X165212742Y-109423142D01*
X165241314Y-109394571D01*
X165441314Y-109394571D01*
X165441314Y-109508857D01*
X165184171Y-109137428D02*
X165784171Y-109137428D01*
X165184171Y-108794571D01*
X165784171Y-108794571D01*
X165184171Y-108508857D02*
X165784171Y-108508857D01*
X165784171Y-108366000D01*
X165755600Y-108280285D01*
X165698457Y-108223142D01*
X165641314Y-108194571D01*
X165527028Y-108166000D01*
X165441314Y-108166000D01*
X165327028Y-108194571D01*
X165269885Y-108223142D01*
X165212742Y-108280285D01*
X165184171Y-108366000D01*
X165184171Y-108508857D01*
D10*
X143036742Y-70543190D02*
X143084361Y-70495571D01*
X143131980Y-70352714D01*
X143131980Y-70257476D01*
X143084361Y-70114619D01*
X142989123Y-70019380D01*
X142893885Y-69971761D01*
X142703409Y-69924142D01*
X142560552Y-69924142D01*
X142370076Y-69971761D01*
X142274838Y-70019380D01*
X142179600Y-70114619D01*
X142131980Y-70257476D01*
X142131980Y-70352714D01*
X142179600Y-70495571D01*
X142227219Y-70543190D01*
X142846266Y-70924142D02*
X142846266Y-71400333D01*
X143131980Y-70828904D02*
X142131980Y-71162238D01*
X143131980Y-71495571D01*
X142131980Y-71828904D02*
X142941504Y-71828904D01*
X143036742Y-71876523D01*
X143084361Y-71924142D01*
X143131980Y-72019380D01*
X143131980Y-72209857D01*
X143084361Y-72305095D01*
X143036742Y-72352714D01*
X142941504Y-72400333D01*
X142131980Y-72400333D01*
X142131980Y-72733666D02*
X142131980Y-73305095D01*
X143131980Y-73019380D02*
X142131980Y-73019380D01*
X143131980Y-73638428D02*
X142131980Y-73638428D01*
X142131980Y-74305095D02*
X142131980Y-74495571D01*
X142179600Y-74590809D01*
X142274838Y-74686047D01*
X142465314Y-74733666D01*
X142798647Y-74733666D01*
X142989123Y-74686047D01*
X143084361Y-74590809D01*
X143131980Y-74495571D01*
X143131980Y-74305095D01*
X143084361Y-74209857D01*
X142989123Y-74114619D01*
X142798647Y-74067000D01*
X142465314Y-74067000D01*
X142274838Y-74114619D01*
X142179600Y-74209857D01*
X142131980Y-74305095D01*
X143131980Y-75162238D02*
X142131980Y-75162238D01*
X143131980Y-75733666D01*
X142131980Y-75733666D01*
X143084361Y-76257476D02*
X143131980Y-76257476D01*
X143227219Y-76209857D01*
X143274838Y-76162238D01*
X143131980Y-77447952D02*
X142131980Y-77447952D01*
X142131980Y-77828904D01*
X142179600Y-77924142D01*
X142227219Y-77971761D01*
X142322457Y-78019380D01*
X142465314Y-78019380D01*
X142560552Y-77971761D01*
X142608171Y-77924142D01*
X142655790Y-77828904D01*
X142655790Y-77447952D01*
X143131980Y-78924142D02*
X143131980Y-78447952D01*
X142131980Y-78447952D01*
X142608171Y-79257476D02*
X142608171Y-79590809D01*
X143131980Y-79733666D02*
X143131980Y-79257476D01*
X142131980Y-79257476D01*
X142131980Y-79733666D01*
X142846266Y-80114619D02*
X142846266Y-80590809D01*
X143131980Y-80019380D02*
X142131980Y-80352714D01*
X143131980Y-80686047D01*
X143084361Y-80971761D02*
X143131980Y-81114619D01*
X143131980Y-81352714D01*
X143084361Y-81447952D01*
X143036742Y-81495571D01*
X142941504Y-81543190D01*
X142846266Y-81543190D01*
X142751028Y-81495571D01*
X142703409Y-81447952D01*
X142655790Y-81352714D01*
X142608171Y-81162238D01*
X142560552Y-81067000D01*
X142512933Y-81019380D01*
X142417695Y-80971761D01*
X142322457Y-80971761D01*
X142227219Y-81019380D01*
X142179600Y-81067000D01*
X142131980Y-81162238D01*
X142131980Y-81400333D01*
X142179600Y-81543190D01*
X142608171Y-81971761D02*
X142608171Y-82305095D01*
X143131980Y-82447952D02*
X143131980Y-81971761D01*
X142131980Y-81971761D01*
X142131980Y-82447952D01*
X143131980Y-83638428D02*
X142131980Y-83638428D01*
X142131980Y-83876523D01*
X142179600Y-84019380D01*
X142274838Y-84114619D01*
X142370076Y-84162238D01*
X142560552Y-84209857D01*
X142703409Y-84209857D01*
X142893885Y-84162238D01*
X142989123Y-84114619D01*
X143084361Y-84019380D01*
X143131980Y-83876523D01*
X143131980Y-83638428D01*
X142131980Y-84828904D02*
X142131980Y-85019380D01*
X142179600Y-85114619D01*
X142274838Y-85209857D01*
X142465314Y-85257476D01*
X142798647Y-85257476D01*
X142989123Y-85209857D01*
X143084361Y-85114619D01*
X143131980Y-85019380D01*
X143131980Y-84828904D01*
X143084361Y-84733666D01*
X142989123Y-84638428D01*
X142798647Y-84590809D01*
X142465314Y-84590809D01*
X142274838Y-84638428D01*
X142179600Y-84733666D01*
X142131980Y-84828904D01*
X143131980Y-86447952D02*
X142131980Y-86447952D01*
X143131980Y-87019380D01*
X142131980Y-87019380D01*
X142131980Y-87686047D02*
X142131980Y-87876523D01*
X142179600Y-87971761D01*
X142274838Y-88067000D01*
X142465314Y-88114619D01*
X142798647Y-88114619D01*
X142989123Y-88067000D01*
X143084361Y-87971761D01*
X143131980Y-87876523D01*
X143131980Y-87686047D01*
X143084361Y-87590809D01*
X142989123Y-87495571D01*
X142798647Y-87447952D01*
X142465314Y-87447952D01*
X142274838Y-87495571D01*
X142179600Y-87590809D01*
X142131980Y-87686047D01*
X142131980Y-88400333D02*
X142131980Y-88971761D01*
X143131980Y-88686047D02*
X142131980Y-88686047D01*
X143036742Y-90638428D02*
X143084361Y-90590809D01*
X143131980Y-90447952D01*
X143131980Y-90352714D01*
X143084361Y-90209857D01*
X142989123Y-90114619D01*
X142893885Y-90067000D01*
X142703409Y-90019380D01*
X142560552Y-90019380D01*
X142370076Y-90067000D01*
X142274838Y-90114619D01*
X142179600Y-90209857D01*
X142131980Y-90352714D01*
X142131980Y-90447952D01*
X142179600Y-90590809D01*
X142227219Y-90638428D01*
X142131980Y-91257476D02*
X142131980Y-91447952D01*
X142179600Y-91543190D01*
X142274838Y-91638428D01*
X142465314Y-91686047D01*
X142798647Y-91686047D01*
X142989123Y-91638428D01*
X143084361Y-91543190D01*
X143131980Y-91447952D01*
X143131980Y-91257476D01*
X143084361Y-91162238D01*
X142989123Y-91067000D01*
X142798647Y-91019380D01*
X142465314Y-91019380D01*
X142274838Y-91067000D01*
X142179600Y-91162238D01*
X142131980Y-91257476D01*
X143131980Y-92114619D02*
X142131980Y-92114619D01*
X143131980Y-92686047D01*
X142131980Y-92686047D01*
X143131980Y-93162238D02*
X142131980Y-93162238D01*
X143131980Y-93733666D01*
X142131980Y-93733666D01*
X142608171Y-94209857D02*
X142608171Y-94543190D01*
X143131980Y-94686047D02*
X143131980Y-94209857D01*
X142131980Y-94209857D01*
X142131980Y-94686047D01*
X143036742Y-95686047D02*
X143084361Y-95638428D01*
X143131980Y-95495571D01*
X143131980Y-95400333D01*
X143084361Y-95257476D01*
X142989123Y-95162238D01*
X142893885Y-95114619D01*
X142703409Y-95067000D01*
X142560552Y-95067000D01*
X142370076Y-95114619D01*
X142274838Y-95162238D01*
X142179600Y-95257476D01*
X142131980Y-95400333D01*
X142131980Y-95495571D01*
X142179600Y-95638428D01*
X142227219Y-95686047D01*
X142131980Y-95971761D02*
X142131980Y-96543190D01*
X143131980Y-96257476D02*
X142131980Y-96257476D01*
X142131980Y-97638428D02*
X142941504Y-97638428D01*
X143036742Y-97686047D01*
X143084361Y-97733666D01*
X143131980Y-97828904D01*
X143131980Y-98019380D01*
X143084361Y-98114619D01*
X143036742Y-98162238D01*
X142941504Y-98209857D01*
X142131980Y-98209857D01*
X143084361Y-98638428D02*
X143131980Y-98781285D01*
X143131980Y-99019380D01*
X143084361Y-99114619D01*
X143036742Y-99162238D01*
X142941504Y-99209857D01*
X142846266Y-99209857D01*
X142751028Y-99162238D01*
X142703409Y-99114619D01*
X142655790Y-99019380D01*
X142608171Y-98828904D01*
X142560552Y-98733666D01*
X142512933Y-98686047D01*
X142417695Y-98638428D01*
X142322457Y-98638428D01*
X142227219Y-98686047D01*
X142179600Y-98733666D01*
X142131980Y-98828904D01*
X142131980Y-99067000D01*
X142179600Y-99209857D01*
X142608171Y-99971761D02*
X142655790Y-100114619D01*
X142703409Y-100162238D01*
X142798647Y-100209857D01*
X142941504Y-100209857D01*
X143036742Y-100162238D01*
X143084361Y-100114619D01*
X143131980Y-100019380D01*
X143131980Y-99638428D01*
X142131980Y-99638428D01*
X142131980Y-99971761D01*
X142179600Y-100067000D01*
X142227219Y-100114619D01*
X142322457Y-100162238D01*
X142417695Y-100162238D01*
X142512933Y-100114619D01*
X142560552Y-100067000D01*
X142608171Y-99971761D01*
X142608171Y-99638428D01*
X142131980Y-101305095D02*
X143131980Y-101543190D01*
X142417695Y-101733666D01*
X143131980Y-101924142D01*
X142131980Y-102162238D01*
X143131980Y-102543190D02*
X142131980Y-102543190D01*
X142608171Y-102543190D02*
X142608171Y-103114619D01*
X143131980Y-103114619D02*
X142131980Y-103114619D01*
X143131980Y-103590809D02*
X142131980Y-103590809D01*
X143131980Y-104543190D02*
X143131980Y-104067000D01*
X142131980Y-104067000D01*
X142608171Y-104876523D02*
X142608171Y-105209857D01*
X143131980Y-105352714D02*
X143131980Y-104876523D01*
X142131980Y-104876523D01*
X142131980Y-105352714D01*
X143131980Y-106543190D02*
X142131980Y-106543190D01*
X143131980Y-107019380D02*
X142131980Y-107019380D01*
X143131980Y-107590809D01*
X142131980Y-107590809D01*
X142846266Y-108781285D02*
X142846266Y-109257476D01*
X143131980Y-108686047D02*
X142131980Y-109019380D01*
X143131980Y-109352714D01*
X143131980Y-109686047D02*
X142131980Y-109686047D01*
X142846266Y-110019380D01*
X142131980Y-110352714D01*
X143131980Y-110352714D01*
X143131980Y-110828904D02*
X142131980Y-110828904D01*
X142179600Y-111828904D02*
X142131980Y-111733666D01*
X142131980Y-111590809D01*
X142179600Y-111447952D01*
X142274838Y-111352714D01*
X142370076Y-111305095D01*
X142560552Y-111257476D01*
X142703409Y-111257476D01*
X142893885Y-111305095D01*
X142989123Y-111352714D01*
X143084361Y-111447952D01*
X143131980Y-111590809D01*
X143131980Y-111686047D01*
X143084361Y-111828904D01*
X143036742Y-111876523D01*
X142703409Y-111876523D01*
X142703409Y-111686047D01*
X142846266Y-112257476D02*
X142846266Y-112733666D01*
X143131980Y-112162238D02*
X142131980Y-112495571D01*
X143131980Y-112828904D01*
X143036742Y-113162238D02*
X143084361Y-113209857D01*
X143131980Y-113162238D01*
X143084361Y-113114619D01*
X143036742Y-113162238D01*
X143131980Y-113162238D01*
X142751028Y-113162238D02*
X142179600Y-113114619D01*
X142131980Y-113162238D01*
X142179600Y-113209857D01*
X142751028Y-113162238D01*
X142131980Y-113162238D01*
X143741980Y-67828904D02*
X143741980Y-68400333D01*
X144741980Y-68114619D02*
X143741980Y-68114619D01*
X144741980Y-68733666D02*
X143741980Y-68733666D01*
X144741980Y-69162238D02*
X144218171Y-69162238D01*
X144122933Y-69114619D01*
X144075314Y-69019380D01*
X144075314Y-68876523D01*
X144122933Y-68781285D01*
X144170552Y-68733666D01*
X144694361Y-70019380D02*
X144741980Y-69924142D01*
X144741980Y-69733666D01*
X144694361Y-69638428D01*
X144599123Y-69590809D01*
X144218171Y-69590809D01*
X144122933Y-69638428D01*
X144075314Y-69733666D01*
X144075314Y-69924142D01*
X144122933Y-70019380D01*
X144218171Y-70067000D01*
X144313409Y-70067000D01*
X144408647Y-69590809D01*
X144741980Y-71257476D02*
X143741980Y-71257476D01*
X144122933Y-71257476D02*
X144075314Y-71352714D01*
X144075314Y-71543190D01*
X144122933Y-71638428D01*
X144170552Y-71686047D01*
X144265790Y-71733666D01*
X144551504Y-71733666D01*
X144646742Y-71686047D01*
X144694361Y-71638428D01*
X144741980Y-71543190D01*
X144741980Y-71352714D01*
X144694361Y-71257476D01*
X144694361Y-72543190D02*
X144741980Y-72447952D01*
X144741980Y-72257476D01*
X144694361Y-72162238D01*
X144599123Y-72114619D01*
X144218171Y-72114619D01*
X144122933Y-72162238D01*
X144075314Y-72257476D01*
X144075314Y-72447952D01*
X144122933Y-72543190D01*
X144218171Y-72590809D01*
X144313409Y-72590809D01*
X144408647Y-72114619D01*
X144741980Y-73019380D02*
X143741980Y-73019380D01*
X144741980Y-73447952D02*
X144218171Y-73447952D01*
X144122933Y-73400333D01*
X144075314Y-73305095D01*
X144075314Y-73162238D01*
X144122933Y-73067000D01*
X144170552Y-73019380D01*
X144741980Y-74352714D02*
X144218171Y-74352714D01*
X144122933Y-74305095D01*
X144075314Y-74209857D01*
X144075314Y-74019380D01*
X144122933Y-73924142D01*
X144694361Y-74352714D02*
X144741980Y-74257476D01*
X144741980Y-74019380D01*
X144694361Y-73924142D01*
X144599123Y-73876523D01*
X144503885Y-73876523D01*
X144408647Y-73924142D01*
X144361028Y-74019380D01*
X144361028Y-74257476D01*
X144313409Y-74352714D01*
X144075314Y-74733666D02*
X144741980Y-74971761D01*
X144075314Y-75209857D01*
X144741980Y-75590809D02*
X144075314Y-75590809D01*
X143741980Y-75590809D02*
X143789600Y-75543190D01*
X143837219Y-75590809D01*
X143789600Y-75638428D01*
X143741980Y-75590809D01*
X143837219Y-75590809D01*
X144741980Y-76209857D02*
X144694361Y-76114619D01*
X144646742Y-76067000D01*
X144551504Y-76019380D01*
X144265790Y-76019380D01*
X144170552Y-76067000D01*
X144122933Y-76114619D01*
X144075314Y-76209857D01*
X144075314Y-76352714D01*
X144122933Y-76447952D01*
X144170552Y-76495571D01*
X144265790Y-76543190D01*
X144551504Y-76543190D01*
X144646742Y-76495571D01*
X144694361Y-76447952D01*
X144741980Y-76352714D01*
X144741980Y-76209857D01*
X144075314Y-77400333D02*
X144741980Y-77400333D01*
X144075314Y-76971761D02*
X144599123Y-76971761D01*
X144694361Y-77019380D01*
X144741980Y-77114619D01*
X144741980Y-77257476D01*
X144694361Y-77352714D01*
X144646742Y-77400333D01*
X144741980Y-77876523D02*
X144075314Y-77876523D01*
X144265790Y-77876523D02*
X144170552Y-77924142D01*
X144122933Y-77971761D01*
X144075314Y-78067000D01*
X144075314Y-78162238D01*
X144741980Y-79257476D02*
X144075314Y-79257476D01*
X143741980Y-79257476D02*
X143789600Y-79209857D01*
X143837219Y-79257476D01*
X143789600Y-79305095D01*
X143741980Y-79257476D01*
X143837219Y-79257476D01*
X144694361Y-79686047D02*
X144741980Y-79781285D01*
X144741980Y-79971761D01*
X144694361Y-80067000D01*
X144599123Y-80114619D01*
X144551504Y-80114619D01*
X144456266Y-80067000D01*
X144408647Y-79971761D01*
X144408647Y-79828904D01*
X144361028Y-79733666D01*
X144265790Y-79686047D01*
X144218171Y-79686047D01*
X144122933Y-79733666D01*
X144075314Y-79828904D01*
X144075314Y-79971761D01*
X144122933Y-80067000D01*
X144075314Y-81733666D02*
X144741980Y-81733666D01*
X144075314Y-81305095D02*
X144599123Y-81305095D01*
X144694361Y-81352714D01*
X144741980Y-81447952D01*
X144741980Y-81590809D01*
X144694361Y-81686047D01*
X144646742Y-81733666D01*
X144075314Y-82209857D02*
X144741980Y-82209857D01*
X144170552Y-82209857D02*
X144122933Y-82257476D01*
X144075314Y-82352714D01*
X144075314Y-82495571D01*
X144122933Y-82590809D01*
X144218171Y-82638428D01*
X144741980Y-82638428D01*
X144075314Y-82971761D02*
X144075314Y-83352714D01*
X143741980Y-83114619D02*
X144599123Y-83114619D01*
X144694361Y-83162238D01*
X144741980Y-83257476D01*
X144741980Y-83352714D01*
X144694361Y-84067000D02*
X144741980Y-83971761D01*
X144741980Y-83781285D01*
X144694361Y-83686047D01*
X144599123Y-83638428D01*
X144218171Y-83638428D01*
X144122933Y-83686047D01*
X144075314Y-83781285D01*
X144075314Y-83971761D01*
X144122933Y-84067000D01*
X144218171Y-84114619D01*
X144313409Y-84114619D01*
X144408647Y-83638428D01*
X144694361Y-84495571D02*
X144741980Y-84590809D01*
X144741980Y-84781285D01*
X144694361Y-84876523D01*
X144599123Y-84924142D01*
X144551504Y-84924142D01*
X144456266Y-84876523D01*
X144408647Y-84781285D01*
X144408647Y-84638428D01*
X144361028Y-84543190D01*
X144265790Y-84495571D01*
X144218171Y-84495571D01*
X144122933Y-84543190D01*
X144075314Y-84638428D01*
X144075314Y-84781285D01*
X144122933Y-84876523D01*
X144075314Y-85209857D02*
X144075314Y-85590809D01*
X143741980Y-85352714D02*
X144599123Y-85352714D01*
X144694361Y-85400333D01*
X144741980Y-85495571D01*
X144741980Y-85590809D01*
X144694361Y-86305095D02*
X144741980Y-86209857D01*
X144741980Y-86019380D01*
X144694361Y-85924142D01*
X144599123Y-85876523D01*
X144218171Y-85876523D01*
X144122933Y-85924142D01*
X144075314Y-86019380D01*
X144075314Y-86209857D01*
X144122933Y-86305095D01*
X144218171Y-86352714D01*
X144313409Y-86352714D01*
X144408647Y-85876523D01*
X144741980Y-87209857D02*
X143741980Y-87209857D01*
X144694361Y-87209857D02*
X144741980Y-87114619D01*
X144741980Y-86924142D01*
X144694361Y-86828904D01*
X144646742Y-86781285D01*
X144551504Y-86733666D01*
X144265790Y-86733666D01*
X144170552Y-86781285D01*
X144122933Y-86828904D01*
X144075314Y-86924142D01*
X144075314Y-87114619D01*
X144122933Y-87209857D01*
X144694361Y-87733666D02*
X144741980Y-87733666D01*
X144837219Y-87686047D01*
X144884838Y-87638428D01*
X144075314Y-88781285D02*
X144075314Y-89162238D01*
X143741980Y-88924142D02*
X144599123Y-88924142D01*
X144694361Y-88971761D01*
X144741980Y-89067000D01*
X144741980Y-89162238D01*
X144741980Y-89495571D02*
X143741980Y-89495571D01*
X144741980Y-89924142D02*
X144218171Y-89924142D01*
X144122933Y-89876523D01*
X144075314Y-89781285D01*
X144075314Y-89638428D01*
X144122933Y-89543190D01*
X144170552Y-89495571D01*
X144694361Y-90781285D02*
X144741980Y-90686047D01*
X144741980Y-90495571D01*
X144694361Y-90400333D01*
X144599123Y-90352714D01*
X144218171Y-90352714D01*
X144122933Y-90400333D01*
X144075314Y-90495571D01*
X144075314Y-90686047D01*
X144122933Y-90781285D01*
X144218171Y-90828904D01*
X144313409Y-90828904D01*
X144408647Y-90352714D01*
X144741980Y-92447952D02*
X143741980Y-92447952D01*
X144694361Y-92447952D02*
X144741980Y-92352714D01*
X144741980Y-92162238D01*
X144694361Y-92067000D01*
X144646742Y-92019380D01*
X144551504Y-91971761D01*
X144265790Y-91971761D01*
X144170552Y-92019380D01*
X144122933Y-92067000D01*
X144075314Y-92162238D01*
X144075314Y-92352714D01*
X144122933Y-92447952D01*
X144741980Y-92924142D02*
X144075314Y-92924142D01*
X143741980Y-92924142D02*
X143789600Y-92876523D01*
X143837219Y-92924142D01*
X143789600Y-92971761D01*
X143741980Y-92924142D01*
X143837219Y-92924142D01*
X144741980Y-93543190D02*
X144694361Y-93447952D01*
X144646742Y-93400333D01*
X144551504Y-93352714D01*
X144265790Y-93352714D01*
X144170552Y-93400333D01*
X144122933Y-93447952D01*
X144075314Y-93543190D01*
X144075314Y-93686047D01*
X144122933Y-93781285D01*
X144170552Y-93828904D01*
X144265790Y-93876523D01*
X144551504Y-93876523D01*
X144646742Y-93828904D01*
X144694361Y-93781285D01*
X144741980Y-93686047D01*
X144741980Y-93543190D01*
X144741980Y-94733666D02*
X143741980Y-94733666D01*
X144694361Y-94733666D02*
X144741980Y-94638428D01*
X144741980Y-94447952D01*
X144694361Y-94352714D01*
X144646742Y-94305095D01*
X144551504Y-94257476D01*
X144265790Y-94257476D01*
X144170552Y-94305095D01*
X144122933Y-94352714D01*
X144075314Y-94447952D01*
X144075314Y-94638428D01*
X144122933Y-94733666D01*
X144694361Y-95590809D02*
X144741980Y-95495571D01*
X144741980Y-95305095D01*
X144694361Y-95209857D01*
X144599123Y-95162238D01*
X144218171Y-95162238D01*
X144122933Y-95209857D01*
X144075314Y-95305095D01*
X144075314Y-95495571D01*
X144122933Y-95590809D01*
X144218171Y-95638428D01*
X144313409Y-95638428D01*
X144408647Y-95162238D01*
X144075314Y-96828904D02*
X145075314Y-96828904D01*
X144122933Y-96828904D02*
X144075314Y-96924142D01*
X144075314Y-97114619D01*
X144122933Y-97209857D01*
X144170552Y-97257476D01*
X144265790Y-97305095D01*
X144551504Y-97305095D01*
X144646742Y-97257476D01*
X144694361Y-97209857D01*
X144741980Y-97114619D01*
X144741980Y-96924142D01*
X144694361Y-96828904D01*
X144741980Y-97733666D02*
X144075314Y-97733666D01*
X144265790Y-97733666D02*
X144170552Y-97781285D01*
X144122933Y-97828904D01*
X144075314Y-97924142D01*
X144075314Y-98019380D01*
X144694361Y-98733666D02*
X144741980Y-98638428D01*
X144741980Y-98447952D01*
X144694361Y-98352714D01*
X144599123Y-98305095D01*
X144218171Y-98305095D01*
X144122933Y-98352714D01*
X144075314Y-98447952D01*
X144075314Y-98638428D01*
X144122933Y-98733666D01*
X144218171Y-98781285D01*
X144313409Y-98781285D01*
X144408647Y-98305095D01*
X144075314Y-99114619D02*
X144741980Y-99352714D01*
X144075314Y-99590809D01*
X144694361Y-100352714D02*
X144741980Y-100257476D01*
X144741980Y-100067000D01*
X144694361Y-99971761D01*
X144599123Y-99924142D01*
X144218171Y-99924142D01*
X144122933Y-99971761D01*
X144075314Y-100067000D01*
X144075314Y-100257476D01*
X144122933Y-100352714D01*
X144218171Y-100400333D01*
X144313409Y-100400333D01*
X144408647Y-99924142D01*
X144075314Y-100828904D02*
X144741980Y-100828904D01*
X144170552Y-100828904D02*
X144122933Y-100876523D01*
X144075314Y-100971761D01*
X144075314Y-101114619D01*
X144122933Y-101209857D01*
X144218171Y-101257476D01*
X144741980Y-101257476D01*
X144075314Y-101590809D02*
X144075314Y-101971761D01*
X143741980Y-101733666D02*
X144599123Y-101733666D01*
X144694361Y-101781285D01*
X144741980Y-101876523D01*
X144741980Y-101971761D01*
X144694361Y-102257476D02*
X144741980Y-102352714D01*
X144741980Y-102543190D01*
X144694361Y-102638428D01*
X144599123Y-102686047D01*
X144551504Y-102686047D01*
X144456266Y-102638428D01*
X144408647Y-102543190D01*
X144408647Y-102400333D01*
X144361028Y-102305095D01*
X144265790Y-102257476D01*
X144218171Y-102257476D01*
X144122933Y-102305095D01*
X144075314Y-102400333D01*
X144075314Y-102543190D01*
X144122933Y-102638428D01*
X144075314Y-103876523D02*
X145075314Y-103876523D01*
X144122933Y-103876523D02*
X144075314Y-103971761D01*
X144075314Y-104162238D01*
X144122933Y-104257476D01*
X144170552Y-104305095D01*
X144265790Y-104352714D01*
X144551504Y-104352714D01*
X144646742Y-104305095D01*
X144694361Y-104257476D01*
X144741980Y-104162238D01*
X144741980Y-103971761D01*
X144694361Y-103876523D01*
X144741980Y-104924142D02*
X144694361Y-104828904D01*
X144646742Y-104781285D01*
X144551504Y-104733666D01*
X144265790Y-104733666D01*
X144170552Y-104781285D01*
X144122933Y-104828904D01*
X144075314Y-104924142D01*
X144075314Y-105066999D01*
X144122933Y-105162238D01*
X144170552Y-105209857D01*
X144265790Y-105257476D01*
X144551504Y-105257476D01*
X144646742Y-105209857D01*
X144694361Y-105162238D01*
X144741980Y-105066999D01*
X144741980Y-104924142D01*
X144075314Y-105590809D02*
X144741980Y-105781285D01*
X144265790Y-105971761D01*
X144741980Y-106162238D01*
X144075314Y-106352714D01*
X144694361Y-107114619D02*
X144741980Y-107019380D01*
X144741980Y-106828904D01*
X144694361Y-106733666D01*
X144599123Y-106686047D01*
X144218171Y-106686047D01*
X144122933Y-106733666D01*
X144075314Y-106828904D01*
X144075314Y-107019380D01*
X144122933Y-107114619D01*
X144218171Y-107162238D01*
X144313409Y-107162238D01*
X144408647Y-106686047D01*
X144741980Y-107590809D02*
X144075314Y-107590809D01*
X144265790Y-107590809D02*
X144170552Y-107638428D01*
X144122933Y-107686047D01*
X144075314Y-107781285D01*
X144075314Y-107876523D01*
X144075314Y-108828904D02*
X144075314Y-109209857D01*
X144741980Y-108971761D02*
X143884838Y-108971761D01*
X143789600Y-109019380D01*
X143741980Y-109114619D01*
X143741980Y-109209857D01*
X144694361Y-109924142D02*
X144741980Y-109828904D01*
X144741980Y-109638428D01*
X144694361Y-109543190D01*
X144599123Y-109495571D01*
X144218171Y-109495571D01*
X144122933Y-109543190D01*
X144075314Y-109638428D01*
X144075314Y-109828904D01*
X144122933Y-109924142D01*
X144218171Y-109971761D01*
X144313409Y-109971761D01*
X144408647Y-109495571D01*
X144694361Y-110781285D02*
X144741980Y-110686047D01*
X144741980Y-110495571D01*
X144694361Y-110400333D01*
X144599123Y-110352714D01*
X144218171Y-110352714D01*
X144122933Y-110400333D01*
X144075314Y-110495571D01*
X144075314Y-110686047D01*
X144122933Y-110781285D01*
X144218171Y-110828904D01*
X144313409Y-110828904D01*
X144408647Y-110352714D01*
X144741980Y-111686047D02*
X143741980Y-111686047D01*
X144694361Y-111686047D02*
X144741980Y-111590809D01*
X144741980Y-111400333D01*
X144694361Y-111305095D01*
X144646742Y-111257476D01*
X144551504Y-111209857D01*
X144265790Y-111209857D01*
X144170552Y-111257476D01*
X144122933Y-111305095D01*
X144075314Y-111400333D01*
X144075314Y-111590809D01*
X144122933Y-111686047D01*
X144741980Y-112162238D02*
X143741980Y-112162238D01*
X144122933Y-112162238D02*
X144075314Y-112257476D01*
X144075314Y-112447952D01*
X144122933Y-112543190D01*
X144170552Y-112590809D01*
X144265790Y-112638428D01*
X144551504Y-112638428D01*
X144646742Y-112590809D01*
X144694361Y-112543190D01*
X144741980Y-112447952D01*
X144741980Y-112257476D01*
X144694361Y-112162238D01*
X144741980Y-113495571D02*
X144218171Y-113495571D01*
X144122933Y-113447952D01*
X144075314Y-113352714D01*
X144075314Y-113162238D01*
X144122933Y-113066999D01*
X144694361Y-113495571D02*
X144741980Y-113400333D01*
X144741980Y-113162238D01*
X144694361Y-113066999D01*
X144599123Y-113019380D01*
X144503885Y-113019380D01*
X144408647Y-113066999D01*
X144361028Y-113162238D01*
X144361028Y-113400333D01*
X144313409Y-113495571D01*
X144694361Y-114400333D02*
X144741980Y-114305095D01*
X144741980Y-114114619D01*
X144694361Y-114019380D01*
X144646742Y-113971761D01*
X144551504Y-113924142D01*
X144265790Y-113924142D01*
X144170552Y-113971761D01*
X144122933Y-114019380D01*
X144075314Y-114114619D01*
X144075314Y-114305095D01*
X144122933Y-114400333D01*
X144741980Y-114828904D02*
X143741980Y-114828904D01*
X144361028Y-114924142D02*
X144741980Y-115209857D01*
X144075314Y-115209857D02*
X144456266Y-114828904D01*
D11*
X160298571Y-69768571D02*
X160298571Y-69654285D01*
X160270000Y-69597142D01*
X160212857Y-69540000D01*
X160098571Y-69511428D01*
X159898571Y-69511428D01*
X159784285Y-69540000D01*
X159727142Y-69597142D01*
X159698571Y-69654285D01*
X159698571Y-69768571D01*
X159727142Y-69825714D01*
X159784285Y-69882857D01*
X159898571Y-69911428D01*
X160098571Y-69911428D01*
X160212857Y-69882857D01*
X160270000Y-69825714D01*
X160298571Y-69768571D01*
X160098571Y-69254285D02*
X159498571Y-69254285D01*
X160070000Y-69254285D02*
X160098571Y-69197142D01*
X160098571Y-69082857D01*
X160070000Y-69025714D01*
X160041428Y-68997142D01*
X159984285Y-68968571D01*
X159812857Y-68968571D01*
X159755714Y-68997142D01*
X159727142Y-69025714D01*
X159698571Y-69082857D01*
X159698571Y-69197142D01*
X159727142Y-69254285D01*
X159727142Y-68482857D02*
X159698571Y-68540000D01*
X159698571Y-68654285D01*
X159727142Y-68711428D01*
X159784285Y-68740000D01*
X160012857Y-68740000D01*
X160070000Y-68711428D01*
X160098571Y-68654285D01*
X160098571Y-68540000D01*
X160070000Y-68482857D01*
X160012857Y-68454285D01*
X159955714Y-68454285D01*
X159898571Y-68740000D01*
X160098571Y-68197142D02*
X159698571Y-68197142D01*
X160041428Y-68197142D02*
X160070000Y-68168571D01*
X160098571Y-68111428D01*
X160098571Y-68025714D01*
X160070000Y-67968571D01*
X160012857Y-67940000D01*
X159698571Y-67940000D01*
X160270000Y-67340000D02*
X160298571Y-67397142D01*
X160298571Y-67482857D01*
X160270000Y-67568571D01*
X160212857Y-67625714D01*
X160155714Y-67654285D01*
X160041428Y-67682857D01*
X159955714Y-67682857D01*
X159841428Y-67654285D01*
X159784285Y-67625714D01*
X159727142Y-67568571D01*
X159698571Y-67482857D01*
X159698571Y-67425714D01*
X159727142Y-67340000D01*
X159755714Y-67311428D01*
X159955714Y-67311428D01*
X159955714Y-67425714D01*
X159698571Y-67054285D02*
X160098571Y-67054285D01*
X160298571Y-67054285D02*
X160270000Y-67082857D01*
X160241428Y-67054285D01*
X160270000Y-67025714D01*
X160298571Y-67054285D01*
X160241428Y-67054285D01*
X160098571Y-66825714D02*
X159698571Y-66682857D01*
X160098571Y-66540000D01*
X159727142Y-66082857D02*
X159698571Y-66140000D01*
X159698571Y-66254285D01*
X159727142Y-66311428D01*
X159784285Y-66340000D01*
X160012857Y-66340000D01*
X160070000Y-66311428D01*
X160098571Y-66254285D01*
X160098571Y-66140000D01*
X160070000Y-66082857D01*
X160012857Y-66054285D01*
X159955714Y-66054285D01*
X159898571Y-66340000D01*
X160012857Y-65597142D02*
X159984285Y-65511428D01*
X159955714Y-65482857D01*
X159898571Y-65454285D01*
X159812857Y-65454285D01*
X159755714Y-65482857D01*
X159727142Y-65511428D01*
X159698571Y-65568571D01*
X159698571Y-65797142D01*
X160298571Y-65797142D01*
X160298571Y-65597142D01*
X160270000Y-65540000D01*
X160241428Y-65511428D01*
X160184285Y-65482857D01*
X160127142Y-65482857D01*
X160070000Y-65511428D01*
X160041428Y-65540000D01*
X160012857Y-65597142D01*
X160012857Y-65797142D01*
X159698571Y-64940000D02*
X160012857Y-64940000D01*
X160070000Y-64968571D01*
X160098571Y-65025714D01*
X160098571Y-65140000D01*
X160070000Y-65197142D01*
X159727142Y-64940000D02*
X159698571Y-64997142D01*
X159698571Y-65140000D01*
X159727142Y-65197142D01*
X159784285Y-65225714D01*
X159841428Y-65225714D01*
X159898571Y-65197142D01*
X159927142Y-65140000D01*
X159927142Y-64997142D01*
X159955714Y-64940000D01*
X159727142Y-64397142D02*
X159698571Y-64454285D01*
X159698571Y-64568571D01*
X159727142Y-64625714D01*
X159755714Y-64654285D01*
X159812857Y-64682857D01*
X159984285Y-64682857D01*
X160041428Y-64654285D01*
X160070000Y-64625714D01*
X160098571Y-64568571D01*
X160098571Y-64454285D01*
X160070000Y-64397142D01*
X159698571Y-64140000D02*
X160298571Y-64140000D01*
X159927142Y-64082857D02*
X159698571Y-63911428D01*
X160098571Y-63911428D02*
X159870000Y-64140000D01*
X159755714Y-63654285D02*
X159727142Y-63625714D01*
X159698571Y-63654285D01*
X159727142Y-63682857D01*
X159755714Y-63654285D01*
X159698571Y-63654285D01*
X159698571Y-63282857D02*
X159727142Y-63340000D01*
X159755714Y-63368571D01*
X159812857Y-63397142D01*
X159984285Y-63397142D01*
X160041428Y-63368571D01*
X160070000Y-63340000D01*
X160098571Y-63282857D01*
X160098571Y-63197142D01*
X160070000Y-63140000D01*
X160041428Y-63111428D01*
X159984285Y-63082857D01*
X159812857Y-63082857D01*
X159755714Y-63111428D01*
X159727142Y-63140000D01*
X159698571Y-63197142D01*
X159698571Y-63282857D01*
X159698571Y-62825714D02*
X160098571Y-62825714D01*
X159984285Y-62825714D02*
X160041428Y-62797142D01*
X160070000Y-62768571D01*
X160098571Y-62711428D01*
X160098571Y-62654285D01*
X160098571Y-62197142D02*
X159612857Y-62197142D01*
X159555714Y-62225714D01*
X159527142Y-62254285D01*
X159498571Y-62311428D01*
X159498571Y-62397142D01*
X159527142Y-62454285D01*
X159727142Y-62197142D02*
X159698571Y-62254285D01*
X159698571Y-62368571D01*
X159727142Y-62425714D01*
X159755714Y-62454285D01*
X159812857Y-62482857D01*
X159984285Y-62482857D01*
X160041428Y-62454285D01*
X160070000Y-62425714D01*
X160098571Y-62368571D01*
X160098571Y-62254285D01*
X160070000Y-62197142D01*
X158761142Y-75168571D02*
X158732571Y-75111428D01*
X158732571Y-74997142D01*
X158761142Y-74940000D01*
X158818285Y-74911428D01*
X158846857Y-74911428D01*
X158904000Y-74940000D01*
X158932571Y-74997142D01*
X158932571Y-75082857D01*
X158961142Y-75140000D01*
X159018285Y-75168571D01*
X159046857Y-75168571D01*
X159104000Y-75140000D01*
X159132571Y-75082857D01*
X159132571Y-74997142D01*
X159104000Y-74940000D01*
X158732571Y-74568571D02*
X158761142Y-74625714D01*
X158789714Y-74654285D01*
X158846857Y-74682857D01*
X159018285Y-74682857D01*
X159075428Y-74654285D01*
X159104000Y-74625714D01*
X159132571Y-74568571D01*
X159132571Y-74482857D01*
X159104000Y-74425714D01*
X159075428Y-74397142D01*
X159018285Y-74368571D01*
X158846857Y-74368571D01*
X158789714Y-74397142D01*
X158761142Y-74425714D01*
X158732571Y-74482857D01*
X158732571Y-74568571D01*
X159132571Y-74197142D02*
X159132571Y-73968571D01*
X158732571Y-74111428D02*
X159246857Y-74111428D01*
X159304000Y-74082857D01*
X159332571Y-74025714D01*
X159332571Y-73968571D01*
X159132571Y-73854285D02*
X159132571Y-73625714D01*
X159332571Y-73768571D02*
X158818285Y-73768571D01*
X158761142Y-73740000D01*
X158732571Y-73682857D01*
X158732571Y-73625714D01*
X158761142Y-73197142D02*
X158732571Y-73254285D01*
X158732571Y-73368571D01*
X158761142Y-73425714D01*
X158818285Y-73454285D01*
X159046857Y-73454285D01*
X159104000Y-73425714D01*
X159132571Y-73368571D01*
X159132571Y-73254285D01*
X159104000Y-73197142D01*
X159046857Y-73168571D01*
X158989714Y-73168571D01*
X158932571Y-73454285D01*
X158732571Y-72654285D02*
X159046857Y-72654285D01*
X159104000Y-72682857D01*
X159132571Y-72740000D01*
X159132571Y-72854285D01*
X159104000Y-72911428D01*
X158761142Y-72654285D02*
X158732571Y-72711428D01*
X158732571Y-72854285D01*
X158761142Y-72911428D01*
X158818285Y-72940000D01*
X158875428Y-72940000D01*
X158932571Y-72911428D01*
X158961142Y-72854285D01*
X158961142Y-72711428D01*
X158989714Y-72654285D01*
X158732571Y-72368571D02*
X159132571Y-72368571D01*
X159018285Y-72368571D02*
X159075428Y-72340000D01*
X159104000Y-72311428D01*
X159132571Y-72254285D01*
X159132571Y-72197142D01*
X158761142Y-71768571D02*
X158732571Y-71825714D01*
X158732571Y-71940000D01*
X158761142Y-71997142D01*
X158818285Y-72025714D01*
X159046857Y-72025714D01*
X159104000Y-71997142D01*
X159132571Y-71940000D01*
X159132571Y-71825714D01*
X159104000Y-71768571D01*
X159046857Y-71740000D01*
X158989714Y-71740000D01*
X158932571Y-72025714D01*
X158732571Y-70768571D02*
X159046857Y-70768571D01*
X159104000Y-70797142D01*
X159132571Y-70854285D01*
X159132571Y-70968571D01*
X159104000Y-71025714D01*
X158761142Y-70768571D02*
X158732571Y-70825714D01*
X158732571Y-70968571D01*
X158761142Y-71025714D01*
X158818285Y-71054285D01*
X158875428Y-71054285D01*
X158932571Y-71025714D01*
X158961142Y-70968571D01*
X158961142Y-70825714D01*
X158989714Y-70768571D01*
X159132571Y-70225714D02*
X158732571Y-70225714D01*
X159132571Y-70482857D02*
X158818285Y-70482857D01*
X158761142Y-70454285D01*
X158732571Y-70397142D01*
X158732571Y-70311428D01*
X158761142Y-70254285D01*
X158789714Y-70225714D01*
X159132571Y-70025714D02*
X159132571Y-69797142D01*
X159332571Y-69940000D02*
X158818285Y-69940000D01*
X158761142Y-69911428D01*
X158732571Y-69854285D01*
X158732571Y-69797142D01*
X158732571Y-69597142D02*
X159332571Y-69597142D01*
X158732571Y-69340000D02*
X159046857Y-69340000D01*
X159104000Y-69368571D01*
X159132571Y-69425714D01*
X159132571Y-69511428D01*
X159104000Y-69568571D01*
X159075428Y-69597142D01*
X158732571Y-68968571D02*
X158761142Y-69025714D01*
X158789714Y-69054285D01*
X158846857Y-69082857D01*
X159018285Y-69082857D01*
X159075428Y-69054285D01*
X159104000Y-69025714D01*
X159132571Y-68968571D01*
X159132571Y-68882857D01*
X159104000Y-68825714D01*
X159075428Y-68797142D01*
X159018285Y-68768571D01*
X158846857Y-68768571D01*
X158789714Y-68797142D01*
X158761142Y-68825714D01*
X158732571Y-68882857D01*
X158732571Y-68968571D01*
X158732571Y-68511428D02*
X159132571Y-68511428D01*
X159018285Y-68511428D02*
X159075428Y-68482857D01*
X159104000Y-68454285D01*
X159132571Y-68397142D01*
X159132571Y-68340000D01*
X159132571Y-67425714D02*
X158646857Y-67425714D01*
X158589714Y-67454285D01*
X158561142Y-67482857D01*
X158532571Y-67540000D01*
X158532571Y-67625714D01*
X158561142Y-67682857D01*
X158761142Y-67425714D02*
X158732571Y-67482857D01*
X158732571Y-67597142D01*
X158761142Y-67654285D01*
X158789714Y-67682857D01*
X158846857Y-67711428D01*
X159018285Y-67711428D01*
X159075428Y-67682857D01*
X159104000Y-67654285D01*
X159132571Y-67597142D01*
X159132571Y-67482857D01*
X159104000Y-67425714D01*
X158761142Y-66911428D02*
X158732571Y-66968571D01*
X158732571Y-67082857D01*
X158761142Y-67140000D01*
X158818285Y-67168571D01*
X159046857Y-67168571D01*
X159104000Y-67140000D01*
X159132571Y-67082857D01*
X159132571Y-66968571D01*
X159104000Y-66911428D01*
X159046857Y-66882857D01*
X158989714Y-66882857D01*
X158932571Y-67168571D01*
X159132571Y-66711428D02*
X159132571Y-66482857D01*
X159332571Y-66625714D02*
X158818285Y-66625714D01*
X158761142Y-66597142D01*
X158732571Y-66540000D01*
X158732571Y-66482857D01*
X158761142Y-66311428D02*
X158732571Y-66254285D01*
X158732571Y-66140000D01*
X158761142Y-66082857D01*
X158818285Y-66054285D01*
X158846857Y-66054285D01*
X158904000Y-66082857D01*
X158932571Y-66140000D01*
X158932571Y-66225714D01*
X158961142Y-66282857D01*
X159018285Y-66311428D01*
X159046857Y-66311428D01*
X159104000Y-66282857D01*
X159132571Y-66225714D01*
X159132571Y-66140000D01*
X159104000Y-66082857D01*
X159132571Y-65425714D02*
X159132571Y-65197142D01*
X158732571Y-65340000D02*
X159246857Y-65340000D01*
X159304000Y-65311428D01*
X159332571Y-65254285D01*
X159332571Y-65197142D01*
X158732571Y-64740000D02*
X159046857Y-64740000D01*
X159104000Y-64768571D01*
X159132571Y-64825714D01*
X159132571Y-64940000D01*
X159104000Y-64997142D01*
X158761142Y-64740000D02*
X158732571Y-64797142D01*
X158732571Y-64940000D01*
X158761142Y-64997142D01*
X158818285Y-65025714D01*
X158875428Y-65025714D01*
X158932571Y-64997142D01*
X158961142Y-64940000D01*
X158961142Y-64797142D01*
X158989714Y-64740000D01*
X158732571Y-64454285D02*
X159132571Y-64454285D01*
X159332571Y-64454285D02*
X159304000Y-64482857D01*
X159275428Y-64454285D01*
X159304000Y-64425714D01*
X159332571Y-64454285D01*
X159275428Y-64454285D01*
X158732571Y-64168571D02*
X159132571Y-64168571D01*
X159018285Y-64168571D02*
X159075428Y-64140000D01*
X159104000Y-64111428D01*
X159132571Y-64054285D01*
X159132571Y-63997142D01*
X158761142Y-63368571D02*
X158732571Y-63311428D01*
X158732571Y-63197142D01*
X158761142Y-63140000D01*
X158818285Y-63111428D01*
X158846857Y-63111428D01*
X158904000Y-63140000D01*
X158932571Y-63197142D01*
X158932571Y-63282857D01*
X158961142Y-63340000D01*
X159018285Y-63368571D01*
X159046857Y-63368571D01*
X159104000Y-63340000D01*
X159132571Y-63282857D01*
X159132571Y-63197142D01*
X159104000Y-63140000D01*
X158732571Y-62854285D02*
X159332571Y-62854285D01*
X158732571Y-62597142D02*
X159046857Y-62597142D01*
X159104000Y-62625714D01*
X159132571Y-62682857D01*
X159132571Y-62768571D01*
X159104000Y-62825714D01*
X159075428Y-62854285D01*
X158732571Y-62054285D02*
X159046857Y-62054285D01*
X159104000Y-62082857D01*
X159132571Y-62140000D01*
X159132571Y-62254285D01*
X159104000Y-62311428D01*
X158761142Y-62054285D02*
X158732571Y-62111428D01*
X158732571Y-62254285D01*
X158761142Y-62311428D01*
X158818285Y-62340000D01*
X158875428Y-62340000D01*
X158932571Y-62311428D01*
X158961142Y-62254285D01*
X158961142Y-62111428D01*
X158989714Y-62054285D01*
X158732571Y-61768571D02*
X159132571Y-61768571D01*
X159018285Y-61768571D02*
X159075428Y-61740000D01*
X159104000Y-61711428D01*
X159132571Y-61654285D01*
X159132571Y-61597142D01*
X158761142Y-61168571D02*
X158732571Y-61225714D01*
X158732571Y-61340000D01*
X158761142Y-61397142D01*
X158818285Y-61425714D01*
X159046857Y-61425714D01*
X159104000Y-61397142D01*
X159132571Y-61340000D01*
X159132571Y-61225714D01*
X159104000Y-61168571D01*
X159046857Y-61140000D01*
X158989714Y-61140000D01*
X158932571Y-61425714D01*
X158732571Y-60340000D02*
X158761142Y-60397142D01*
X158789714Y-60425714D01*
X158846857Y-60454285D01*
X159018285Y-60454285D01*
X159075428Y-60425714D01*
X159104000Y-60397142D01*
X159132571Y-60340000D01*
X159132571Y-60254285D01*
X159104000Y-60197142D01*
X159075428Y-60168571D01*
X159018285Y-60140000D01*
X158846857Y-60140000D01*
X158789714Y-60168571D01*
X158761142Y-60197142D01*
X158732571Y-60254285D01*
X158732571Y-60340000D01*
X159132571Y-59968571D02*
X159132571Y-59740000D01*
X158732571Y-59882857D02*
X159246857Y-59882857D01*
X159304000Y-59854285D01*
X159332571Y-59797142D01*
X159332571Y-59740000D01*
X159132571Y-59082857D02*
X158532571Y-59082857D01*
X159104000Y-59082857D02*
X159132571Y-59025714D01*
X159132571Y-58911428D01*
X159104000Y-58854285D01*
X159075428Y-58825714D01*
X159018285Y-58797142D01*
X158846857Y-58797142D01*
X158789714Y-58825714D01*
X158761142Y-58854285D01*
X158732571Y-58911428D01*
X158732571Y-59025714D01*
X158761142Y-59082857D01*
X158732571Y-58540000D02*
X159132571Y-58540000D01*
X159018285Y-58540000D02*
X159075428Y-58511428D01*
X159104000Y-58482857D01*
X159132571Y-58425714D01*
X159132571Y-58368571D01*
X158732571Y-58082857D02*
X158761142Y-58140000D01*
X158789714Y-58168571D01*
X158846857Y-58197142D01*
X159018285Y-58197142D01*
X159075428Y-58168571D01*
X159104000Y-58140000D01*
X159132571Y-58082857D01*
X159132571Y-57997142D01*
X159104000Y-57940000D01*
X159075428Y-57911428D01*
X159018285Y-57882857D01*
X158846857Y-57882857D01*
X158789714Y-57911428D01*
X158761142Y-57940000D01*
X158732571Y-57997142D01*
X158732571Y-58082857D01*
X159132571Y-57711428D02*
X159132571Y-57482857D01*
X158732571Y-57625714D02*
X159246857Y-57625714D01*
X159304000Y-57597142D01*
X159332571Y-57540000D01*
X159332571Y-57482857D01*
X158732571Y-57282857D02*
X159132571Y-57282857D01*
X159332571Y-57282857D02*
X159304000Y-57311428D01*
X159275428Y-57282857D01*
X159304000Y-57254285D01*
X159332571Y-57282857D01*
X159275428Y-57282857D01*
X159132571Y-57082857D02*
X159132571Y-56854285D01*
X159332571Y-56997142D02*
X158818285Y-56997142D01*
X158761142Y-56968571D01*
X158732571Y-56911428D01*
X158732571Y-56854285D01*
X158166571Y-74368571D02*
X158166571Y-74140000D01*
X158366571Y-74282857D02*
X157852285Y-74282857D01*
X157795142Y-74254285D01*
X157766571Y-74197142D01*
X157766571Y-74140000D01*
X157766571Y-73940000D02*
X158366571Y-73940000D01*
X157766571Y-73682857D02*
X158080857Y-73682857D01*
X158138000Y-73711428D01*
X158166571Y-73768571D01*
X158166571Y-73854285D01*
X158138000Y-73911428D01*
X158109428Y-73940000D01*
X157766571Y-73397142D02*
X158166571Y-73397142D01*
X158366571Y-73397142D02*
X158338000Y-73425714D01*
X158309428Y-73397142D01*
X158338000Y-73368571D01*
X158366571Y-73397142D01*
X158309428Y-73397142D01*
X157795142Y-73140000D02*
X157766571Y-73082857D01*
X157766571Y-72968571D01*
X157795142Y-72911428D01*
X157852285Y-72882857D01*
X157880857Y-72882857D01*
X157938000Y-72911428D01*
X157966571Y-72968571D01*
X157966571Y-73054285D01*
X157995142Y-73111428D01*
X158052285Y-73140000D01*
X158080857Y-73140000D01*
X158138000Y-73111428D01*
X158166571Y-73054285D01*
X158166571Y-72968571D01*
X158138000Y-72911428D01*
X157766571Y-72168571D02*
X158366571Y-72168571D01*
X158366571Y-71940000D01*
X158338000Y-71882857D01*
X158309428Y-71854285D01*
X158252285Y-71825714D01*
X158166571Y-71825714D01*
X158109428Y-71854285D01*
X158080857Y-71882857D01*
X158052285Y-71940000D01*
X158052285Y-72168571D01*
X157823714Y-71225714D02*
X157795142Y-71254285D01*
X157766571Y-71340000D01*
X157766571Y-71397142D01*
X157795142Y-71482857D01*
X157852285Y-71540000D01*
X157909428Y-71568571D01*
X158023714Y-71597142D01*
X158109428Y-71597142D01*
X158223714Y-71568571D01*
X158280857Y-71540000D01*
X158338000Y-71482857D01*
X158366571Y-71397142D01*
X158366571Y-71340000D01*
X158338000Y-71254285D01*
X158309428Y-71225714D01*
X158080857Y-70768571D02*
X158052285Y-70682857D01*
X158023714Y-70654285D01*
X157966571Y-70625714D01*
X157880857Y-70625714D01*
X157823714Y-70654285D01*
X157795142Y-70682857D01*
X157766571Y-70740000D01*
X157766571Y-70968571D01*
X158366571Y-70968571D01*
X158366571Y-70768571D01*
X158338000Y-70711428D01*
X158309428Y-70682857D01*
X158252285Y-70654285D01*
X158195142Y-70654285D01*
X158138000Y-70682857D01*
X158109428Y-70711428D01*
X158080857Y-70768571D01*
X158080857Y-70968571D01*
X157766571Y-69654285D02*
X158080857Y-69654285D01*
X158138000Y-69682857D01*
X158166571Y-69740000D01*
X158166571Y-69854285D01*
X158138000Y-69911428D01*
X157795142Y-69654285D02*
X157766571Y-69711428D01*
X157766571Y-69854285D01*
X157795142Y-69911428D01*
X157852285Y-69940000D01*
X157909428Y-69940000D01*
X157966571Y-69911428D01*
X157995142Y-69854285D01*
X157995142Y-69711428D01*
X158023714Y-69654285D01*
X157795142Y-69397142D02*
X157766571Y-69340000D01*
X157766571Y-69225714D01*
X157795142Y-69168571D01*
X157852285Y-69140000D01*
X157880857Y-69140000D01*
X157938000Y-69168571D01*
X157966571Y-69225714D01*
X157966571Y-69311428D01*
X157995142Y-69368571D01*
X158052285Y-69397142D01*
X158080857Y-69397142D01*
X158138000Y-69368571D01*
X158166571Y-69311428D01*
X158166571Y-69225714D01*
X158138000Y-69168571D01*
X157795142Y-68911428D02*
X157766571Y-68854285D01*
X157766571Y-68740000D01*
X157795142Y-68682857D01*
X157852285Y-68654285D01*
X157880857Y-68654285D01*
X157938000Y-68682857D01*
X157966571Y-68740000D01*
X157966571Y-68825714D01*
X157995142Y-68882857D01*
X158052285Y-68911428D01*
X158080857Y-68911428D01*
X158138000Y-68882857D01*
X158166571Y-68825714D01*
X158166571Y-68740000D01*
X158138000Y-68682857D01*
X157795142Y-68168571D02*
X157766571Y-68225714D01*
X157766571Y-68340000D01*
X157795142Y-68397142D01*
X157852285Y-68425714D01*
X158080857Y-68425714D01*
X158138000Y-68397142D01*
X158166571Y-68340000D01*
X158166571Y-68225714D01*
X158138000Y-68168571D01*
X158080857Y-68140000D01*
X158023714Y-68140000D01*
X157966571Y-68425714D01*
X157766571Y-67882857D02*
X158166571Y-67882857D01*
X158109428Y-67882857D02*
X158138000Y-67854285D01*
X158166571Y-67797142D01*
X158166571Y-67711428D01*
X158138000Y-67654285D01*
X158080857Y-67625714D01*
X157766571Y-67625714D01*
X158080857Y-67625714D02*
X158138000Y-67597142D01*
X158166571Y-67540000D01*
X158166571Y-67454285D01*
X158138000Y-67397142D01*
X158080857Y-67368571D01*
X157766571Y-67368571D01*
X157766571Y-67082857D02*
X158366571Y-67082857D01*
X158138000Y-67082857D02*
X158166571Y-67025714D01*
X158166571Y-66911428D01*
X158138000Y-66854285D01*
X158109428Y-66825714D01*
X158052285Y-66797142D01*
X157880857Y-66797142D01*
X157823714Y-66825714D01*
X157795142Y-66854285D01*
X157766571Y-66911428D01*
X157766571Y-67025714D01*
X157795142Y-67082857D01*
X157766571Y-66454285D02*
X157795142Y-66511428D01*
X157852285Y-66540000D01*
X158366571Y-66540000D01*
X157795142Y-65997142D02*
X157766571Y-66054285D01*
X157766571Y-66168571D01*
X157795142Y-66225714D01*
X157852285Y-66254285D01*
X158080857Y-66254285D01*
X158138000Y-66225714D01*
X158166571Y-66168571D01*
X158166571Y-66054285D01*
X158138000Y-65997142D01*
X158080857Y-65968571D01*
X158023714Y-65968571D01*
X157966571Y-66254285D01*
X157766571Y-65454285D02*
X158366571Y-65454285D01*
X157795142Y-65454285D02*
X157766571Y-65511428D01*
X157766571Y-65625714D01*
X157795142Y-65682857D01*
X157823714Y-65711428D01*
X157880857Y-65740000D01*
X158052285Y-65740000D01*
X158109428Y-65711428D01*
X158138000Y-65682857D01*
X158166571Y-65625714D01*
X158166571Y-65511428D01*
X158138000Y-65454285D01*
X157766571Y-64711428D02*
X158366571Y-64711428D01*
X158138000Y-64711428D02*
X158166571Y-64654285D01*
X158166571Y-64540000D01*
X158138000Y-64482857D01*
X158109428Y-64454285D01*
X158052285Y-64425714D01*
X157880857Y-64425714D01*
X157823714Y-64454285D01*
X157795142Y-64482857D01*
X157766571Y-64540000D01*
X157766571Y-64654285D01*
X157795142Y-64711428D01*
X158166571Y-64225714D02*
X157766571Y-64082857D01*
X158166571Y-63940000D02*
X157766571Y-64082857D01*
X157623714Y-64140000D01*
X157595142Y-64168571D01*
X157566571Y-64225714D01*
X157766571Y-63254285D02*
X158366571Y-63254285D01*
X158366571Y-63025714D01*
X158338000Y-62968571D01*
X158309428Y-62940000D01*
X158252285Y-62911428D01*
X158166571Y-62911428D01*
X158109428Y-62940000D01*
X158080857Y-62968571D01*
X158052285Y-63025714D01*
X158052285Y-63254285D01*
X157766571Y-62654285D02*
X158366571Y-62654285D01*
X158366571Y-62425714D01*
X158338000Y-62368571D01*
X158309428Y-62340000D01*
X158252285Y-62311428D01*
X158166571Y-62311428D01*
X158109428Y-62340000D01*
X158080857Y-62368571D01*
X158052285Y-62425714D01*
X158052285Y-62654285D01*
X157823714Y-61711428D02*
X157795142Y-61740000D01*
X157766571Y-61825714D01*
X157766571Y-61882857D01*
X157795142Y-61968571D01*
X157852285Y-62025714D01*
X157909428Y-62054285D01*
X158023714Y-62082857D01*
X158109428Y-62082857D01*
X158223714Y-62054285D01*
X158280857Y-62025714D01*
X158338000Y-61968571D01*
X158366571Y-61882857D01*
X158366571Y-61825714D01*
X158338000Y-61740000D01*
X158309428Y-61711428D01*
X158080857Y-61254285D02*
X158052285Y-61168571D01*
X158023714Y-61140000D01*
X157966571Y-61111428D01*
X157880857Y-61111428D01*
X157823714Y-61140000D01*
X157795142Y-61168571D01*
X157766571Y-61225714D01*
X157766571Y-61454285D01*
X158366571Y-61454285D01*
X158366571Y-61254285D01*
X158338000Y-61197142D01*
X158309428Y-61168571D01*
X158252285Y-61140000D01*
X158195142Y-61140000D01*
X158138000Y-61168571D01*
X158109428Y-61197142D01*
X158080857Y-61254285D01*
X158080857Y-61454285D01*
X157766571Y-60140000D02*
X158080857Y-60140000D01*
X158138000Y-60168571D01*
X158166571Y-60225714D01*
X158166571Y-60340000D01*
X158138000Y-60397142D01*
X157795142Y-60140000D02*
X157766571Y-60197142D01*
X157766571Y-60340000D01*
X157795142Y-60397142D01*
X157852285Y-60425714D01*
X157909428Y-60425714D01*
X157966571Y-60397142D01*
X157995142Y-60340000D01*
X157995142Y-60197142D01*
X158023714Y-60140000D01*
X158166571Y-59597142D02*
X157766571Y-59597142D01*
X158166571Y-59854285D02*
X157852285Y-59854285D01*
X157795142Y-59825714D01*
X157766571Y-59768571D01*
X157766571Y-59682857D01*
X157795142Y-59625714D01*
X157823714Y-59597142D01*
X158166571Y-59397142D02*
X158166571Y-59168571D01*
X158366571Y-59311428D02*
X157852285Y-59311428D01*
X157795142Y-59282857D01*
X157766571Y-59225714D01*
X157766571Y-59168571D01*
X157766571Y-58968571D02*
X158366571Y-58968571D01*
X157766571Y-58711428D02*
X158080857Y-58711428D01*
X158138000Y-58740000D01*
X158166571Y-58797142D01*
X158166571Y-58882857D01*
X158138000Y-58940000D01*
X158109428Y-58968571D01*
X157766571Y-58340000D02*
X157795142Y-58397142D01*
X157823714Y-58425714D01*
X157880857Y-58454285D01*
X158052285Y-58454285D01*
X158109428Y-58425714D01*
X158138000Y-58397142D01*
X158166571Y-58340000D01*
X158166571Y-58254285D01*
X158138000Y-58197142D01*
X158109428Y-58168571D01*
X158052285Y-58140000D01*
X157880857Y-58140000D01*
X157823714Y-58168571D01*
X157795142Y-58197142D01*
X157766571Y-58254285D01*
X157766571Y-58340000D01*
X157766571Y-57882857D02*
X158166571Y-57882857D01*
X158052285Y-57882857D02*
X158109428Y-57854285D01*
X158138000Y-57825714D01*
X158166571Y-57768571D01*
X158166571Y-57711428D01*
X168222571Y-109766000D02*
X167622571Y-109566000D01*
X168222571Y-109366000D01*
X167679714Y-108823142D02*
X167651142Y-108851714D01*
X167622571Y-108937428D01*
X167622571Y-108994571D01*
X167651142Y-109080285D01*
X167708285Y-109137428D01*
X167765428Y-109166000D01*
X167879714Y-109194571D01*
X167965428Y-109194571D01*
X168079714Y-109166000D01*
X168136857Y-109137428D01*
X168194000Y-109080285D01*
X168222571Y-108994571D01*
X168222571Y-108937428D01*
X168194000Y-108851714D01*
X168165428Y-108823142D01*
X167679714Y-108223142D02*
X167651142Y-108251714D01*
X167622571Y-108337428D01*
X167622571Y-108394571D01*
X167651142Y-108480285D01*
X167708285Y-108537428D01*
X167765428Y-108566000D01*
X167879714Y-108594571D01*
X167965428Y-108594571D01*
X168079714Y-108566000D01*
X168136857Y-108537428D01*
X168194000Y-108480285D01*
X168222571Y-108394571D01*
X168222571Y-108337428D01*
X168194000Y-108251714D01*
X168165428Y-108223142D01*
D12*
X133377809Y-69118904D02*
X133877809Y-69118904D01*
X133639714Y-69118904D02*
X133639714Y-68833190D01*
X133377809Y-68833190D02*
X133877809Y-68833190D01*
X133877809Y-68642714D02*
X133377809Y-68523666D01*
X133734952Y-68428428D01*
X133377809Y-68333190D01*
X133877809Y-68214142D01*
X133377809Y-67428428D02*
X133639714Y-67428428D01*
X133687333Y-67452238D01*
X133711142Y-67499857D01*
X133711142Y-67595095D01*
X133687333Y-67642714D01*
X133401619Y-67428428D02*
X133377809Y-67476047D01*
X133377809Y-67595095D01*
X133401619Y-67642714D01*
X133449238Y-67666523D01*
X133496857Y-67666523D01*
X133544476Y-67642714D01*
X133568285Y-67595095D01*
X133568285Y-67476047D01*
X133592095Y-67428428D01*
X133401619Y-67214142D02*
X133377809Y-67166523D01*
X133377809Y-67071285D01*
X133401619Y-67023666D01*
X133449238Y-66999857D01*
X133473047Y-66999857D01*
X133520666Y-67023666D01*
X133544476Y-67071285D01*
X133544476Y-67142714D01*
X133568285Y-67190333D01*
X133615904Y-67214142D01*
X133639714Y-67214142D01*
X133687333Y-67190333D01*
X133711142Y-67142714D01*
X133711142Y-67071285D01*
X133687333Y-67023666D01*
X133401619Y-66809380D02*
X133377809Y-66761761D01*
X133377809Y-66666523D01*
X133401619Y-66618904D01*
X133449238Y-66595095D01*
X133473047Y-66595095D01*
X133520666Y-66618904D01*
X133544476Y-66666523D01*
X133544476Y-66737952D01*
X133568285Y-66785571D01*
X133615904Y-66809380D01*
X133639714Y-66809380D01*
X133687333Y-66785571D01*
X133711142Y-66737952D01*
X133711142Y-66666523D01*
X133687333Y-66618904D01*
X133401619Y-66190333D02*
X133377809Y-66237952D01*
X133377809Y-66333190D01*
X133401619Y-66380809D01*
X133449238Y-66404619D01*
X133639714Y-66404619D01*
X133687333Y-66380809D01*
X133711142Y-66333190D01*
X133711142Y-66237952D01*
X133687333Y-66190333D01*
X133639714Y-66166523D01*
X133592095Y-66166523D01*
X133544476Y-66404619D01*
X133377809Y-65952238D02*
X133711142Y-65952238D01*
X133663523Y-65952238D02*
X133687333Y-65928428D01*
X133711142Y-65880809D01*
X133711142Y-65809380D01*
X133687333Y-65761761D01*
X133639714Y-65737952D01*
X133377809Y-65737952D01*
X133639714Y-65737952D02*
X133687333Y-65714142D01*
X133711142Y-65666523D01*
X133711142Y-65595095D01*
X133687333Y-65547476D01*
X133639714Y-65523666D01*
X133377809Y-65523666D01*
X133377809Y-65285571D02*
X133877809Y-65285571D01*
X133687333Y-65285571D02*
X133711142Y-65237952D01*
X133711142Y-65142714D01*
X133687333Y-65095095D01*
X133663523Y-65071285D01*
X133615904Y-65047476D01*
X133473047Y-65047476D01*
X133425428Y-65071285D01*
X133401619Y-65095095D01*
X133377809Y-65142714D01*
X133377809Y-65237952D01*
X133401619Y-65285571D01*
X133377809Y-64761761D02*
X133401619Y-64809380D01*
X133449238Y-64833190D01*
X133877809Y-64833190D01*
X133401619Y-64380809D02*
X133377809Y-64428428D01*
X133377809Y-64523666D01*
X133401619Y-64571285D01*
X133449238Y-64595095D01*
X133639714Y-64595095D01*
X133687333Y-64571285D01*
X133711142Y-64523666D01*
X133711142Y-64428428D01*
X133687333Y-64380809D01*
X133639714Y-64357000D01*
X133592095Y-64357000D01*
X133544476Y-64595095D01*
X133377809Y-63928428D02*
X133877809Y-63928428D01*
X133401619Y-63928428D02*
X133377809Y-63976047D01*
X133377809Y-64071285D01*
X133401619Y-64118904D01*
X133425428Y-64142714D01*
X133473047Y-64166523D01*
X133615904Y-64166523D01*
X133663523Y-64142714D01*
X133687333Y-64118904D01*
X133711142Y-64071285D01*
X133711142Y-63976047D01*
X133687333Y-63928428D01*
X133377809Y-63309380D02*
X133877809Y-63309380D01*
X133687333Y-63309380D02*
X133711142Y-63261761D01*
X133711142Y-63166523D01*
X133687333Y-63118904D01*
X133663523Y-63095095D01*
X133615904Y-63071285D01*
X133473047Y-63071285D01*
X133425428Y-63095095D01*
X133401619Y-63118904D01*
X133377809Y-63166523D01*
X133377809Y-63261761D01*
X133401619Y-63309380D01*
X133711142Y-62904619D02*
X133377809Y-62785571D01*
X133711142Y-62666523D02*
X133377809Y-62785571D01*
X133258761Y-62833190D01*
X133234952Y-62857000D01*
X133211142Y-62904619D01*
X133377809Y-62095095D02*
X133877809Y-62095095D01*
X133639714Y-62095095D02*
X133639714Y-61809380D01*
X133377809Y-61809380D02*
X133877809Y-61809380D01*
X133877809Y-61618904D02*
X133377809Y-61499857D01*
X133734952Y-61404619D01*
X133377809Y-61309380D01*
X133877809Y-61190333D01*
X133401619Y-60642714D02*
X133377809Y-60595095D01*
X133377809Y-60499857D01*
X133401619Y-60452238D01*
X133449238Y-60428428D01*
X133473047Y-60428428D01*
X133520666Y-60452238D01*
X133544476Y-60499857D01*
X133544476Y-60571285D01*
X133568285Y-60618904D01*
X133615904Y-60642714D01*
X133639714Y-60642714D01*
X133687333Y-60618904D01*
X133711142Y-60571285D01*
X133711142Y-60499857D01*
X133687333Y-60452238D01*
X133377809Y-60142714D02*
X133401619Y-60190333D01*
X133425428Y-60214142D01*
X133473047Y-60237952D01*
X133615904Y-60237952D01*
X133663523Y-60214142D01*
X133687333Y-60190333D01*
X133711142Y-60142714D01*
X133711142Y-60071285D01*
X133687333Y-60023666D01*
X133663523Y-59999857D01*
X133615904Y-59976047D01*
X133473047Y-59976047D01*
X133425428Y-59999857D01*
X133401619Y-60023666D01*
X133377809Y-60071285D01*
X133377809Y-60142714D01*
X133711142Y-59547476D02*
X133377809Y-59547476D01*
X133711142Y-59761761D02*
X133449238Y-59761761D01*
X133401619Y-59737952D01*
X133377809Y-59690333D01*
X133377809Y-59618904D01*
X133401619Y-59571285D01*
X133425428Y-59547476D01*
X133377809Y-59309380D02*
X133711142Y-59309380D01*
X133615904Y-59309380D02*
X133663523Y-59285571D01*
X133687333Y-59261761D01*
X133711142Y-59214142D01*
X133711142Y-59166523D01*
X133401619Y-58785571D02*
X133377809Y-58833190D01*
X133377809Y-58928428D01*
X133401619Y-58976047D01*
X133425428Y-58999857D01*
X133473047Y-59023666D01*
X133615904Y-59023666D01*
X133663523Y-58999857D01*
X133687333Y-58976047D01*
X133711142Y-58928428D01*
X133711142Y-58833190D01*
X133687333Y-58785571D01*
X133401619Y-58380809D02*
X133377809Y-58428428D01*
X133377809Y-58523666D01*
X133401619Y-58571285D01*
X133449238Y-58595095D01*
X133639714Y-58595095D01*
X133687333Y-58571285D01*
X133711142Y-58523666D01*
X133711142Y-58428428D01*
X133687333Y-58380809D01*
X133639714Y-58357000D01*
X133592095Y-58357000D01*
X133544476Y-58595095D01*
X133377809Y-57547476D02*
X133639714Y-57547476D01*
X133687333Y-57571285D01*
X133711142Y-57618904D01*
X133711142Y-57714142D01*
X133687333Y-57761761D01*
X133401619Y-57547476D02*
X133377809Y-57595095D01*
X133377809Y-57714142D01*
X133401619Y-57761761D01*
X133449238Y-57785571D01*
X133496857Y-57785571D01*
X133544476Y-57761761D01*
X133568285Y-57714142D01*
X133568285Y-57595095D01*
X133592095Y-57547476D01*
X133711142Y-57095095D02*
X133377809Y-57095095D01*
X133711142Y-57309380D02*
X133449238Y-57309380D01*
X133401619Y-57285571D01*
X133377809Y-57237952D01*
X133377809Y-57166523D01*
X133401619Y-57118904D01*
X133425428Y-57095095D01*
X133711142Y-56928428D02*
X133711142Y-56737952D01*
X133877809Y-56857000D02*
X133449238Y-56857000D01*
X133401619Y-56833190D01*
X133377809Y-56785571D01*
X133377809Y-56737952D01*
X133377809Y-56571285D02*
X133877809Y-56571285D01*
X133377809Y-56357000D02*
X133639714Y-56357000D01*
X133687333Y-56380809D01*
X133711142Y-56428428D01*
X133711142Y-56499857D01*
X133687333Y-56547476D01*
X133663523Y-56571285D01*
X133377809Y-56047476D02*
X133401619Y-56095095D01*
X133425428Y-56118904D01*
X133473047Y-56142714D01*
X133615904Y-56142714D01*
X133663523Y-56118904D01*
X133687333Y-56095095D01*
X133711142Y-56047476D01*
X133711142Y-55976047D01*
X133687333Y-55928428D01*
X133663523Y-55904619D01*
X133615904Y-55880809D01*
X133473047Y-55880809D01*
X133425428Y-55904619D01*
X133401619Y-55928428D01*
X133377809Y-55976047D01*
X133377809Y-56047476D01*
X133377809Y-55666523D02*
X133711142Y-55666523D01*
X133615904Y-55666523D02*
X133663523Y-55642714D01*
X133687333Y-55618904D01*
X133711142Y-55571285D01*
X133711142Y-55523666D01*
X134417619Y-73035809D02*
X134393809Y-72964380D01*
X134393809Y-72845333D01*
X134417619Y-72797714D01*
X134441428Y-72773904D01*
X134489047Y-72750095D01*
X134536666Y-72750095D01*
X134584285Y-72773904D01*
X134608095Y-72797714D01*
X134631904Y-72845333D01*
X134655714Y-72940571D01*
X134679523Y-72988190D01*
X134703333Y-73012000D01*
X134750952Y-73035809D01*
X134798571Y-73035809D01*
X134846190Y-73012000D01*
X134870000Y-72988190D01*
X134893809Y-72940571D01*
X134893809Y-72821523D01*
X134870000Y-72750095D01*
X134893809Y-72583428D02*
X134393809Y-72464380D01*
X134750952Y-72369142D01*
X134393809Y-72273904D01*
X134893809Y-72154857D01*
X134417619Y-71607238D02*
X134393809Y-71559619D01*
X134393809Y-71464380D01*
X134417619Y-71416761D01*
X134465238Y-71392952D01*
X134489047Y-71392952D01*
X134536666Y-71416761D01*
X134560476Y-71464380D01*
X134560476Y-71535809D01*
X134584285Y-71583428D01*
X134631904Y-71607238D01*
X134655714Y-71607238D01*
X134703333Y-71583428D01*
X134727142Y-71535809D01*
X134727142Y-71464380D01*
X134703333Y-71416761D01*
X134393809Y-71107238D02*
X134417619Y-71154857D01*
X134441428Y-71178666D01*
X134489047Y-71202476D01*
X134631904Y-71202476D01*
X134679523Y-71178666D01*
X134703333Y-71154857D01*
X134727142Y-71107238D01*
X134727142Y-71035809D01*
X134703333Y-70988190D01*
X134679523Y-70964380D01*
X134631904Y-70940571D01*
X134489047Y-70940571D01*
X134441428Y-70964380D01*
X134417619Y-70988190D01*
X134393809Y-71035809D01*
X134393809Y-71107238D01*
X134727142Y-70512000D02*
X134393809Y-70512000D01*
X134727142Y-70726285D02*
X134465238Y-70726285D01*
X134417619Y-70702476D01*
X134393809Y-70654857D01*
X134393809Y-70583428D01*
X134417619Y-70535809D01*
X134441428Y-70512000D01*
X134393809Y-70273904D02*
X134727142Y-70273904D01*
X134631904Y-70273904D02*
X134679523Y-70250095D01*
X134703333Y-70226285D01*
X134727142Y-70178666D01*
X134727142Y-70131047D01*
X134417619Y-69750095D02*
X134393809Y-69797714D01*
X134393809Y-69892952D01*
X134417619Y-69940571D01*
X134441428Y-69964380D01*
X134489047Y-69988190D01*
X134631904Y-69988190D01*
X134679523Y-69964380D01*
X134703333Y-69940571D01*
X134727142Y-69892952D01*
X134727142Y-69797714D01*
X134703333Y-69750095D01*
X134417619Y-69345333D02*
X134393809Y-69392952D01*
X134393809Y-69488190D01*
X134417619Y-69535809D01*
X134465238Y-69559619D01*
X134655714Y-69559619D01*
X134703333Y-69535809D01*
X134727142Y-69488190D01*
X134727142Y-69392952D01*
X134703333Y-69345333D01*
X134655714Y-69321523D01*
X134608095Y-69321523D01*
X134560476Y-69559619D01*
X134393809Y-68512000D02*
X134655714Y-68512000D01*
X134703333Y-68535809D01*
X134727142Y-68583428D01*
X134727142Y-68678666D01*
X134703333Y-68726285D01*
X134417619Y-68512000D02*
X134393809Y-68559619D01*
X134393809Y-68678666D01*
X134417619Y-68726285D01*
X134465238Y-68750095D01*
X134512857Y-68750095D01*
X134560476Y-68726285D01*
X134584285Y-68678666D01*
X134584285Y-68559619D01*
X134608095Y-68512000D01*
X134727142Y-68059619D02*
X134393809Y-68059619D01*
X134727142Y-68273904D02*
X134465238Y-68273904D01*
X134417619Y-68250095D01*
X134393809Y-68202476D01*
X134393809Y-68131047D01*
X134417619Y-68083428D01*
X134441428Y-68059619D01*
X134727142Y-67892952D02*
X134727142Y-67702476D01*
X134893809Y-67821523D02*
X134465238Y-67821523D01*
X134417619Y-67797714D01*
X134393809Y-67750095D01*
X134393809Y-67702476D01*
X134393809Y-67535809D02*
X134893809Y-67535809D01*
X134393809Y-67321523D02*
X134655714Y-67321523D01*
X134703333Y-67345333D01*
X134727142Y-67392952D01*
X134727142Y-67464380D01*
X134703333Y-67512000D01*
X134679523Y-67535809D01*
X134393809Y-67012000D02*
X134417619Y-67059619D01*
X134441428Y-67083428D01*
X134489047Y-67107238D01*
X134631904Y-67107238D01*
X134679523Y-67083428D01*
X134703333Y-67059619D01*
X134727142Y-67012000D01*
X134727142Y-66940571D01*
X134703333Y-66892952D01*
X134679523Y-66869142D01*
X134631904Y-66845333D01*
X134489047Y-66845333D01*
X134441428Y-66869142D01*
X134417619Y-66892952D01*
X134393809Y-66940571D01*
X134393809Y-67012000D01*
X134393809Y-66631047D02*
X134727142Y-66631047D01*
X134631904Y-66631047D02*
X134679523Y-66607238D01*
X134703333Y-66583428D01*
X134727142Y-66535809D01*
X134727142Y-66488190D01*
X134393809Y-65940571D02*
X134727142Y-65940571D01*
X134631904Y-65940571D02*
X134679523Y-65916761D01*
X134703333Y-65892952D01*
X134727142Y-65845333D01*
X134727142Y-65797714D01*
X134417619Y-65440571D02*
X134393809Y-65488190D01*
X134393809Y-65583428D01*
X134417619Y-65631047D01*
X134465238Y-65654857D01*
X134655714Y-65654857D01*
X134703333Y-65631047D01*
X134727142Y-65583428D01*
X134727142Y-65488190D01*
X134703333Y-65440571D01*
X134655714Y-65416761D01*
X134608095Y-65416761D01*
X134560476Y-65654857D01*
X134417619Y-64988190D02*
X134393809Y-65035809D01*
X134393809Y-65131047D01*
X134417619Y-65178666D01*
X134441428Y-65202476D01*
X134489047Y-65226285D01*
X134631904Y-65226285D01*
X134679523Y-65202476D01*
X134703333Y-65178666D01*
X134727142Y-65131047D01*
X134727142Y-65035809D01*
X134703333Y-64988190D01*
X134417619Y-64583428D02*
X134393809Y-64631047D01*
X134393809Y-64726285D01*
X134417619Y-64773904D01*
X134465238Y-64797714D01*
X134655714Y-64797714D01*
X134703333Y-64773904D01*
X134727142Y-64726285D01*
X134727142Y-64631047D01*
X134703333Y-64583428D01*
X134655714Y-64559619D01*
X134608095Y-64559619D01*
X134560476Y-64797714D01*
X134393809Y-64345333D02*
X134727142Y-64345333D01*
X134893809Y-64345333D02*
X134870000Y-64369142D01*
X134846190Y-64345333D01*
X134870000Y-64321523D01*
X134893809Y-64345333D01*
X134846190Y-64345333D01*
X134727142Y-64154857D02*
X134393809Y-64035809D01*
X134727142Y-63916761D01*
X134417619Y-63535809D02*
X134393809Y-63583428D01*
X134393809Y-63678666D01*
X134417619Y-63726285D01*
X134465238Y-63750095D01*
X134655714Y-63750095D01*
X134703333Y-63726285D01*
X134727142Y-63678666D01*
X134727142Y-63583428D01*
X134703333Y-63535809D01*
X134655714Y-63512000D01*
X134608095Y-63512000D01*
X134560476Y-63750095D01*
X134417619Y-63321523D02*
X134393809Y-63273904D01*
X134393809Y-63178666D01*
X134417619Y-63131047D01*
X134465238Y-63107238D01*
X134489047Y-63107238D01*
X134536666Y-63131047D01*
X134560476Y-63178666D01*
X134560476Y-63250095D01*
X134584285Y-63297714D01*
X134631904Y-63321523D01*
X134655714Y-63321523D01*
X134703333Y-63297714D01*
X134727142Y-63250095D01*
X134727142Y-63178666D01*
X134703333Y-63131047D01*
X134727142Y-62583428D02*
X134727142Y-62392952D01*
X134393809Y-62512000D02*
X134822380Y-62512000D01*
X134870000Y-62488190D01*
X134893809Y-62440571D01*
X134893809Y-62392952D01*
X134393809Y-62012000D02*
X134655714Y-62012000D01*
X134703333Y-62035809D01*
X134727142Y-62083428D01*
X134727142Y-62178666D01*
X134703333Y-62226285D01*
X134417619Y-62012000D02*
X134393809Y-62059619D01*
X134393809Y-62178666D01*
X134417619Y-62226285D01*
X134465238Y-62250095D01*
X134512857Y-62250095D01*
X134560476Y-62226285D01*
X134584285Y-62178666D01*
X134584285Y-62059619D01*
X134608095Y-62012000D01*
X134393809Y-61773904D02*
X134727142Y-61773904D01*
X134893809Y-61773904D02*
X134870000Y-61797714D01*
X134846190Y-61773904D01*
X134870000Y-61750095D01*
X134893809Y-61773904D01*
X134846190Y-61773904D01*
X134393809Y-61535809D02*
X134727142Y-61535809D01*
X134631904Y-61535809D02*
X134679523Y-61512000D01*
X134703333Y-61488190D01*
X134727142Y-61440571D01*
X134727142Y-61392952D01*
X134417619Y-60869142D02*
X134393809Y-60821523D01*
X134393809Y-60726285D01*
X134417619Y-60678666D01*
X134465238Y-60654857D01*
X134489047Y-60654857D01*
X134536666Y-60678666D01*
X134560476Y-60726285D01*
X134560476Y-60797714D01*
X134584285Y-60845333D01*
X134631904Y-60869142D01*
X134655714Y-60869142D01*
X134703333Y-60845333D01*
X134727142Y-60797714D01*
X134727142Y-60726285D01*
X134703333Y-60678666D01*
X134393809Y-60440571D02*
X134893809Y-60440571D01*
X134393809Y-60226285D02*
X134655714Y-60226285D01*
X134703333Y-60250095D01*
X134727142Y-60297714D01*
X134727142Y-60369142D01*
X134703333Y-60416761D01*
X134679523Y-60440571D01*
X134393809Y-59773904D02*
X134655714Y-59773904D01*
X134703333Y-59797714D01*
X134727142Y-59845333D01*
X134727142Y-59940571D01*
X134703333Y-59988190D01*
X134417619Y-59773904D02*
X134393809Y-59821523D01*
X134393809Y-59940571D01*
X134417619Y-59988190D01*
X134465238Y-60012000D01*
X134512857Y-60012000D01*
X134560476Y-59988190D01*
X134584285Y-59940571D01*
X134584285Y-59821523D01*
X134608095Y-59773904D01*
X134393809Y-59535809D02*
X134727142Y-59535809D01*
X134631904Y-59535809D02*
X134679523Y-59512000D01*
X134703333Y-59488190D01*
X134727142Y-59440571D01*
X134727142Y-59392952D01*
X134417619Y-59035809D02*
X134393809Y-59083428D01*
X134393809Y-59178666D01*
X134417619Y-59226285D01*
X134465238Y-59250095D01*
X134655714Y-59250095D01*
X134703333Y-59226285D01*
X134727142Y-59178666D01*
X134727142Y-59083428D01*
X134703333Y-59035809D01*
X134655714Y-59012000D01*
X134608095Y-59012000D01*
X134560476Y-59250095D01*
X134393809Y-58345333D02*
X134417619Y-58392952D01*
X134441428Y-58416761D01*
X134489047Y-58440571D01*
X134631904Y-58440571D01*
X134679523Y-58416761D01*
X134703333Y-58392952D01*
X134727142Y-58345333D01*
X134727142Y-58273904D01*
X134703333Y-58226285D01*
X134679523Y-58202476D01*
X134631904Y-58178666D01*
X134489047Y-58178666D01*
X134441428Y-58202476D01*
X134417619Y-58226285D01*
X134393809Y-58273904D01*
X134393809Y-58345333D01*
X134727142Y-58035809D02*
X134727142Y-57845333D01*
X134393809Y-57964380D02*
X134822380Y-57964380D01*
X134870000Y-57940571D01*
X134893809Y-57892952D01*
X134893809Y-57845333D01*
X134727142Y-57297714D02*
X134227142Y-57297714D01*
X134703333Y-57297714D02*
X134727142Y-57250095D01*
X134727142Y-57154857D01*
X134703333Y-57107238D01*
X134679523Y-57083428D01*
X134631904Y-57059619D01*
X134489047Y-57059619D01*
X134441428Y-57083428D01*
X134417619Y-57107238D01*
X134393809Y-57154857D01*
X134393809Y-57250095D01*
X134417619Y-57297714D01*
X134393809Y-56845333D02*
X134727142Y-56845333D01*
X134631904Y-56845333D02*
X134679523Y-56821523D01*
X134703333Y-56797714D01*
X134727142Y-56750095D01*
X134727142Y-56702476D01*
X134393809Y-56464380D02*
X134417619Y-56512000D01*
X134441428Y-56535809D01*
X134489047Y-56559619D01*
X134631904Y-56559619D01*
X134679523Y-56535809D01*
X134703333Y-56512000D01*
X134727142Y-56464380D01*
X134727142Y-56392952D01*
X134703333Y-56345333D01*
X134679523Y-56321523D01*
X134631904Y-56297714D01*
X134489047Y-56297714D01*
X134441428Y-56321523D01*
X134417619Y-56345333D01*
X134393809Y-56392952D01*
X134393809Y-56464380D01*
X134727142Y-56154857D02*
X134727142Y-55964380D01*
X134393809Y-56083428D02*
X134822380Y-56083428D01*
X134870000Y-56059619D01*
X134893809Y-56012000D01*
X134893809Y-55964380D01*
X134393809Y-55797714D02*
X134727142Y-55797714D01*
X134893809Y-55797714D02*
X134870000Y-55821523D01*
X134846190Y-55797714D01*
X134870000Y-55773904D01*
X134893809Y-55797714D01*
X134846190Y-55797714D01*
X134727142Y-55631047D02*
X134727142Y-55440571D01*
X134893809Y-55559619D02*
X134465238Y-55559619D01*
X134417619Y-55535809D01*
X134393809Y-55488190D01*
X134393809Y-55440571D01*
D10*
X162690333Y-107135247D02*
X162690333Y-106659057D01*
X162404619Y-107230485D02*
X163404619Y-106897152D01*
X162404619Y-106563819D01*
X162404619Y-106230485D02*
X163071285Y-106230485D01*
X162976047Y-106230485D02*
X163023666Y-106182866D01*
X163071285Y-106087628D01*
X163071285Y-105944771D01*
X163023666Y-105849533D01*
X162928428Y-105801914D01*
X162404619Y-105801914D01*
X162928428Y-105801914D02*
X163023666Y-105754295D01*
X163071285Y-105659057D01*
X163071285Y-105516200D01*
X163023666Y-105420961D01*
X162928428Y-105373342D01*
X162404619Y-105373342D01*
X162404619Y-104897152D02*
X163071285Y-104897152D01*
X163404619Y-104897152D02*
X163357000Y-104944771D01*
X163309380Y-104897152D01*
X163357000Y-104849533D01*
X163404619Y-104897152D01*
X163309380Y-104897152D01*
X163071285Y-103992390D02*
X162261761Y-103992390D01*
X162166523Y-104040009D01*
X162118904Y-104087628D01*
X162071285Y-104182866D01*
X162071285Y-104325723D01*
X162118904Y-104420961D01*
X162452238Y-103992390D02*
X162404619Y-104087628D01*
X162404619Y-104278104D01*
X162452238Y-104373342D01*
X162499857Y-104420961D01*
X162595095Y-104468580D01*
X162880809Y-104468580D01*
X162976047Y-104420961D01*
X163023666Y-104373342D01*
X163071285Y-104278104D01*
X163071285Y-104087628D01*
X163023666Y-103992390D01*
X162928428Y-103516200D02*
X162928428Y-103182866D01*
X162404619Y-103040009D02*
X162404619Y-103516200D01*
X163404619Y-103516200D01*
X163404619Y-103040009D01*
X162404619Y-102182866D02*
X162928428Y-102182866D01*
X163023666Y-102230485D01*
X163071285Y-102325723D01*
X163071285Y-102516200D01*
X163023666Y-102611438D01*
X162452238Y-102182866D02*
X162404619Y-102278104D01*
X162404619Y-102516200D01*
X162452238Y-102611438D01*
X162547476Y-102659057D01*
X162642714Y-102659057D01*
X162737952Y-102611438D01*
X162785571Y-102516200D01*
X162785571Y-102278104D01*
X162833190Y-102182866D01*
X162452238Y-101754295D02*
X162404619Y-101659057D01*
X162404619Y-101468580D01*
X162452238Y-101373342D01*
X162547476Y-101325723D01*
X162595095Y-101325723D01*
X162690333Y-101373342D01*
X162737952Y-101468580D01*
X162737952Y-101611438D01*
X162785571Y-101706676D01*
X162880809Y-101754295D01*
X162928428Y-101754295D01*
X163023666Y-101706676D01*
X163071285Y-101611438D01*
X163071285Y-101468580D01*
X163023666Y-101373342D01*
X163071285Y-101040009D02*
X163071285Y-100659057D01*
X163404619Y-100897152D02*
X162547476Y-100897152D01*
X162452238Y-100849533D01*
X162404619Y-100754295D01*
X162404619Y-100659057D01*
X162452238Y-99182866D02*
X162404619Y-99278104D01*
X162404619Y-99468580D01*
X162452238Y-99563819D01*
X162547476Y-99611438D01*
X162928428Y-99611438D01*
X163023666Y-99563819D01*
X163071285Y-99468580D01*
X163071285Y-99278104D01*
X163023666Y-99182866D01*
X162928428Y-99135247D01*
X162833190Y-99135247D01*
X162737952Y-99611438D01*
X163071285Y-98278104D02*
X162071285Y-98278104D01*
X162452238Y-98278104D02*
X162404619Y-98373342D01*
X162404619Y-98563819D01*
X162452238Y-98659057D01*
X162499857Y-98706676D01*
X162595095Y-98754295D01*
X162880809Y-98754295D01*
X162976047Y-98706676D01*
X163023666Y-98659057D01*
X163071285Y-98563819D01*
X163071285Y-98373342D01*
X163023666Y-98278104D01*
X163404619Y-97801914D02*
X162595095Y-97801914D01*
X162499857Y-97754295D01*
X162452238Y-97706676D01*
X162404619Y-97611438D01*
X162404619Y-97420961D01*
X162452238Y-97325723D01*
X162499857Y-97278104D01*
X162595095Y-97230485D01*
X163404619Y-97230485D01*
X162404619Y-96754295D02*
X163404619Y-96754295D01*
X163071285Y-96278104D02*
X162404619Y-96278104D01*
X162976047Y-96278104D02*
X163023666Y-96230485D01*
X163071285Y-96135247D01*
X163071285Y-95992390D01*
X163023666Y-95897152D01*
X162928428Y-95849533D01*
X162404619Y-95849533D01*
X163071285Y-95373342D02*
X162071285Y-95373342D01*
X163023666Y-95373342D02*
X163071285Y-95278104D01*
X163071285Y-95087628D01*
X163023666Y-94992390D01*
X162976047Y-94944771D01*
X162880809Y-94897152D01*
X162595095Y-94897152D01*
X162499857Y-94944771D01*
X162452238Y-94992390D01*
X162404619Y-95087628D01*
X162404619Y-95278104D01*
X162452238Y-95373342D01*
X163071285Y-94040009D02*
X162404619Y-94040009D01*
X163071285Y-94468580D02*
X162547476Y-94468580D01*
X162452238Y-94420961D01*
X162404619Y-94325723D01*
X162404619Y-94182866D01*
X162452238Y-94087628D01*
X162499857Y-94040009D01*
X163071285Y-93706676D02*
X163071285Y-93325723D01*
X163404619Y-93563819D02*
X162547476Y-93563819D01*
X162452238Y-93516200D01*
X162404619Y-93420961D01*
X162404619Y-93325723D01*
X162404619Y-92230485D02*
X163404619Y-92230485D01*
X163404619Y-91849533D01*
X163357000Y-91754295D01*
X163309380Y-91706676D01*
X163214142Y-91659057D01*
X163071285Y-91659057D01*
X162976047Y-91706676D01*
X162928428Y-91754295D01*
X162880809Y-91849533D01*
X162880809Y-92230485D01*
X162499857Y-90659057D02*
X162452238Y-90706676D01*
X162404619Y-90849533D01*
X162404619Y-90944771D01*
X162452238Y-91087628D01*
X162547476Y-91182866D01*
X162642714Y-91230485D01*
X162833190Y-91278104D01*
X162976047Y-91278104D01*
X163166523Y-91230485D01*
X163261761Y-91182866D01*
X163357000Y-91087628D01*
X163404619Y-90944771D01*
X163404619Y-90849533D01*
X163357000Y-90706676D01*
X163309380Y-90659057D01*
X163404619Y-89182866D02*
X162690333Y-89182866D01*
X162547476Y-89230485D01*
X162452238Y-89325723D01*
X162404619Y-89468580D01*
X162404619Y-89563819D01*
X163404619Y-88516200D02*
X163404619Y-88325723D01*
X163357000Y-88230485D01*
X163261761Y-88135247D01*
X163071285Y-88087628D01*
X162737952Y-88087628D01*
X162547476Y-88135247D01*
X162452238Y-88230485D01*
X162404619Y-88325723D01*
X162404619Y-88516200D01*
X162452238Y-88611438D01*
X162547476Y-88706676D01*
X162737952Y-88754295D01*
X163071285Y-88754295D01*
X163261761Y-88706676D01*
X163357000Y-88611438D01*
X163404619Y-88516200D01*
X162880809Y-87468580D02*
X162404619Y-87468580D01*
X163404619Y-87801914D02*
X162880809Y-87468580D01*
X163404619Y-87135247D01*
X162452238Y-86849533D02*
X162404619Y-86706676D01*
X162404619Y-86468580D01*
X162452238Y-86373342D01*
X162499857Y-86325723D01*
X162595095Y-86278104D01*
X162690333Y-86278104D01*
X162785571Y-86325723D01*
X162833190Y-86373342D01*
X162880809Y-86468580D01*
X162928428Y-86659057D01*
X162976047Y-86754295D01*
X163023666Y-86801914D01*
X163118904Y-86849533D01*
X163214142Y-86849533D01*
X163309380Y-86801914D01*
X163357000Y-86754295D01*
X163404619Y-86659057D01*
X163404619Y-86420961D01*
X163357000Y-86278104D01*
X163404619Y-85992390D02*
X163404619Y-85420961D01*
X162404619Y-85706676D02*
X163404619Y-85706676D01*
X162404619Y-85087628D02*
X163404619Y-85087628D01*
X162499857Y-84040009D02*
X162452238Y-84087628D01*
X162404619Y-84230485D01*
X162404619Y-84325723D01*
X162452238Y-84468580D01*
X162547476Y-84563819D01*
X162642714Y-84611438D01*
X162833190Y-84659057D01*
X162976047Y-84659057D01*
X163166523Y-84611438D01*
X163261761Y-84563819D01*
X163357000Y-84468580D01*
X163404619Y-84325723D01*
X163404619Y-84230485D01*
X163357000Y-84087628D01*
X163309380Y-84040009D01*
X162404619Y-83611438D02*
X163404619Y-83611438D01*
X162404619Y-83040009D02*
X162976047Y-83468580D01*
X163404619Y-83040009D02*
X162833190Y-83611438D01*
X162690333Y-81897152D02*
X162690333Y-81420961D01*
X162404619Y-81992390D02*
X163404619Y-81659057D01*
X162404619Y-81325723D01*
X162404619Y-80992390D02*
X163404619Y-80992390D01*
X163404619Y-80754295D01*
X163357000Y-80611438D01*
X163261761Y-80516200D01*
X163166523Y-80468580D01*
X162976047Y-80420961D01*
X162833190Y-80420961D01*
X162642714Y-80468580D01*
X162547476Y-80516200D01*
X162452238Y-80611438D01*
X162404619Y-80754295D01*
X162404619Y-80992390D01*
X162690333Y-80040009D02*
X162690333Y-79563819D01*
X162404619Y-80135247D02*
X163404619Y-79801914D01*
X162404619Y-79468580D01*
X162404619Y-79135247D02*
X163404619Y-79135247D01*
X163404619Y-78754295D01*
X163357000Y-78659057D01*
X163309380Y-78611438D01*
X163214142Y-78563819D01*
X163071285Y-78563819D01*
X162976047Y-78611438D01*
X162928428Y-78659057D01*
X162880809Y-78754295D01*
X162880809Y-79135247D01*
X163404619Y-78278104D02*
X163404619Y-77706676D01*
X162404619Y-77992390D02*
X163404619Y-77992390D01*
X162928428Y-77373342D02*
X162928428Y-77040009D01*
X162404619Y-76897152D02*
X162404619Y-77373342D01*
X163404619Y-77373342D01*
X163404619Y-76897152D01*
X162404619Y-75897152D02*
X162880809Y-76230485D01*
X162404619Y-76468580D02*
X163404619Y-76468580D01*
X163404619Y-76087628D01*
X163357000Y-75992390D01*
X163309380Y-75944771D01*
X163214142Y-75897152D01*
X163071285Y-75897152D01*
X162976047Y-75944771D01*
X162928428Y-75992390D01*
X162880809Y-76087628D01*
X162880809Y-76468580D01*
X160794619Y-104825723D02*
X161794619Y-104825723D01*
X160842238Y-104825723D02*
X160794619Y-104920961D01*
X160794619Y-105111438D01*
X160842238Y-105206676D01*
X160889857Y-105254295D01*
X160985095Y-105301914D01*
X161270809Y-105301914D01*
X161366047Y-105254295D01*
X161413666Y-105206676D01*
X161461285Y-105111438D01*
X161461285Y-104920961D01*
X161413666Y-104825723D01*
X160842238Y-103968580D02*
X160794619Y-104063819D01*
X160794619Y-104254295D01*
X160842238Y-104349533D01*
X160937476Y-104397152D01*
X161318428Y-104397152D01*
X161413666Y-104349533D01*
X161461285Y-104254295D01*
X161461285Y-104063819D01*
X161413666Y-103968580D01*
X161318428Y-103920961D01*
X161223190Y-103920961D01*
X161127952Y-104397152D01*
X160842238Y-103540009D02*
X160794619Y-103444771D01*
X160794619Y-103254295D01*
X160842238Y-103159057D01*
X160937476Y-103111438D01*
X160985095Y-103111438D01*
X161080333Y-103159057D01*
X161127952Y-103254295D01*
X161127952Y-103397152D01*
X161175571Y-103492390D01*
X161270809Y-103540009D01*
X161318428Y-103540009D01*
X161413666Y-103492390D01*
X161461285Y-103397152D01*
X161461285Y-103254295D01*
X161413666Y-103159057D01*
X160794619Y-102682866D02*
X161461285Y-102682866D01*
X161794619Y-102682866D02*
X161747000Y-102730485D01*
X161699380Y-102682866D01*
X161747000Y-102635247D01*
X161794619Y-102682866D01*
X161699380Y-102682866D01*
X161461285Y-101778104D02*
X160651761Y-101778104D01*
X160556523Y-101825723D01*
X160508904Y-101873342D01*
X160461285Y-101968580D01*
X160461285Y-102111438D01*
X160508904Y-102206676D01*
X160842238Y-101778104D02*
X160794619Y-101873342D01*
X160794619Y-102063819D01*
X160842238Y-102159057D01*
X160889857Y-102206676D01*
X160985095Y-102254295D01*
X161270809Y-102254295D01*
X161366047Y-102206676D01*
X161413666Y-102159057D01*
X161461285Y-102063819D01*
X161461285Y-101873342D01*
X161413666Y-101778104D01*
X161461285Y-101301914D02*
X160794619Y-101301914D01*
X161366047Y-101301914D02*
X161413666Y-101254295D01*
X161461285Y-101159057D01*
X161461285Y-101016200D01*
X161413666Y-100920961D01*
X161318428Y-100873342D01*
X160794619Y-100873342D01*
X160842238Y-100016200D02*
X160794619Y-100111438D01*
X160794619Y-100301914D01*
X160842238Y-100397152D01*
X160937476Y-100444771D01*
X161318428Y-100444771D01*
X161413666Y-100397152D01*
X161461285Y-100301914D01*
X161461285Y-100111438D01*
X161413666Y-100016200D01*
X161318428Y-99968580D01*
X161223190Y-99968580D01*
X161127952Y-100444771D01*
X160794619Y-99111438D02*
X161794619Y-99111438D01*
X160842238Y-99111438D02*
X160794619Y-99206676D01*
X160794619Y-99397152D01*
X160842238Y-99492390D01*
X160889857Y-99540009D01*
X160985095Y-99587628D01*
X161270809Y-99587628D01*
X161366047Y-99540009D01*
X161413666Y-99492390D01*
X161461285Y-99397152D01*
X161461285Y-99206676D01*
X161413666Y-99111438D01*
X160794619Y-97873342D02*
X161461285Y-97873342D01*
X161794619Y-97873342D02*
X161747000Y-97920961D01*
X161699380Y-97873342D01*
X161747000Y-97825723D01*
X161794619Y-97873342D01*
X161699380Y-97873342D01*
X161461285Y-97397152D02*
X160794619Y-97397152D01*
X161366047Y-97397152D02*
X161413666Y-97349533D01*
X161461285Y-97254295D01*
X161461285Y-97111438D01*
X161413666Y-97016200D01*
X161318428Y-96968580D01*
X160794619Y-96968580D01*
X160842238Y-95778104D02*
X160794619Y-95635247D01*
X160794619Y-95397152D01*
X160842238Y-95301914D01*
X160889857Y-95254295D01*
X160985095Y-95206676D01*
X161080333Y-95206676D01*
X161175571Y-95254295D01*
X161223190Y-95301914D01*
X161270809Y-95397152D01*
X161318428Y-95587628D01*
X161366047Y-95682866D01*
X161413666Y-95730485D01*
X161508904Y-95778104D01*
X161604142Y-95778104D01*
X161699380Y-95730485D01*
X161747000Y-95682866D01*
X161794619Y-95587628D01*
X161794619Y-95349533D01*
X161747000Y-95206676D01*
X160842238Y-94397152D02*
X160794619Y-94492390D01*
X160794619Y-94682866D01*
X160842238Y-94778104D01*
X160937476Y-94825723D01*
X161318428Y-94825723D01*
X161413666Y-94778104D01*
X161461285Y-94682866D01*
X161461285Y-94492390D01*
X161413666Y-94397152D01*
X161318428Y-94349533D01*
X161223190Y-94349533D01*
X161127952Y-94825723D01*
X160794619Y-93920961D02*
X161461285Y-93920961D01*
X161270809Y-93920961D02*
X161366047Y-93873342D01*
X161413666Y-93825723D01*
X161461285Y-93730485D01*
X161461285Y-93635247D01*
X160794619Y-93301914D02*
X161794619Y-93301914D01*
X161413666Y-93301914D02*
X161461285Y-93206676D01*
X161461285Y-93016200D01*
X161413666Y-92920961D01*
X161366047Y-92873342D01*
X161270809Y-92825723D01*
X160985095Y-92825723D01*
X160889857Y-92873342D01*
X160842238Y-92920961D01*
X160794619Y-93016200D01*
X160794619Y-93206676D01*
X160842238Y-93301914D01*
X160794619Y-92397152D02*
X161461285Y-92397152D01*
X161794619Y-92397152D02*
X161747000Y-92444771D01*
X161699380Y-92397152D01*
X161747000Y-92349533D01*
X161794619Y-92397152D01*
X161699380Y-92397152D01*
X160794619Y-91492390D02*
X161318428Y-91492390D01*
X161413666Y-91540009D01*
X161461285Y-91635247D01*
X161461285Y-91825723D01*
X161413666Y-91920961D01*
X160842238Y-91492390D02*
X160794619Y-91587628D01*
X160794619Y-91825723D01*
X160842238Y-91920961D01*
X160937476Y-91968580D01*
X161032714Y-91968580D01*
X161127952Y-91920961D01*
X161175571Y-91825723D01*
X161175571Y-91587628D01*
X161223190Y-91492390D01*
X161461285Y-90397152D02*
X161461285Y-90016200D01*
X160794619Y-90254295D02*
X161651761Y-90254295D01*
X161747000Y-90206676D01*
X161794619Y-90111438D01*
X161794619Y-90016200D01*
X160794619Y-89540009D02*
X160842238Y-89635247D01*
X160889857Y-89682866D01*
X160985095Y-89730485D01*
X161270809Y-89730485D01*
X161366047Y-89682866D01*
X161413666Y-89635247D01*
X161461285Y-89540009D01*
X161461285Y-89397152D01*
X161413666Y-89301914D01*
X161366047Y-89254295D01*
X161270809Y-89206676D01*
X160985095Y-89206676D01*
X160889857Y-89254295D01*
X160842238Y-89301914D01*
X160794619Y-89397152D01*
X160794619Y-89540009D01*
X160794619Y-88778104D02*
X161461285Y-88778104D01*
X161270809Y-88778104D02*
X161366047Y-88730485D01*
X161413666Y-88682866D01*
X161461285Y-88587628D01*
X161461285Y-88492390D01*
X161080333Y-87444771D02*
X161080333Y-86968580D01*
X160794619Y-87540009D02*
X161794619Y-87206676D01*
X160794619Y-86873342D01*
X160794619Y-86540009D02*
X161461285Y-86540009D01*
X161270809Y-86540009D02*
X161366047Y-86492390D01*
X161413666Y-86444771D01*
X161461285Y-86349533D01*
X161461285Y-86254295D01*
X160794619Y-85492390D02*
X161794619Y-85492390D01*
X160842238Y-85492390D02*
X160794619Y-85587628D01*
X160794619Y-85778104D01*
X160842238Y-85873342D01*
X160889857Y-85920961D01*
X160985095Y-85968580D01*
X161270809Y-85968580D01*
X161366047Y-85920961D01*
X161413666Y-85873342D01*
X161461285Y-85778104D01*
X161461285Y-85587628D01*
X161413666Y-85492390D01*
X161461285Y-84587628D02*
X160794619Y-84587628D01*
X161461285Y-85016200D02*
X160937476Y-85016200D01*
X160842238Y-84968580D01*
X160794619Y-84873342D01*
X160794619Y-84730485D01*
X160842238Y-84635247D01*
X160889857Y-84587628D01*
X160794619Y-84111438D02*
X161461285Y-84111438D01*
X161794619Y-84111438D02*
X161747000Y-84159057D01*
X161699380Y-84111438D01*
X161747000Y-84063819D01*
X161794619Y-84111438D01*
X161699380Y-84111438D01*
X161461285Y-83635247D02*
X160794619Y-83635247D01*
X161366047Y-83635247D02*
X161413666Y-83587628D01*
X161461285Y-83492390D01*
X161461285Y-83349533D01*
X161413666Y-83254295D01*
X161318428Y-83206676D01*
X160794619Y-83206676D01*
X160794619Y-82587628D02*
X160842238Y-82682866D01*
X160889857Y-82730485D01*
X160985095Y-82778104D01*
X161270809Y-82778104D01*
X161366047Y-82730485D01*
X161413666Y-82682866D01*
X161461285Y-82587628D01*
X161461285Y-82444771D01*
X161413666Y-82349533D01*
X161366047Y-82301914D01*
X161270809Y-82254295D01*
X160985095Y-82254295D01*
X160889857Y-82301914D01*
X160842238Y-82349533D01*
X160794619Y-82444771D01*
X160794619Y-82587628D01*
X160794619Y-81063819D02*
X161794619Y-81063819D01*
X160794619Y-80492390D01*
X161794619Y-80492390D01*
X160794619Y-79587628D02*
X161318428Y-79587628D01*
X161413666Y-79635247D01*
X161461285Y-79730485D01*
X161461285Y-79920961D01*
X161413666Y-80016200D01*
X160842238Y-79587628D02*
X160794619Y-79682866D01*
X160794619Y-79920961D01*
X160842238Y-80016200D01*
X160937476Y-80063819D01*
X161032714Y-80063819D01*
X161127952Y-80016200D01*
X161175571Y-79920961D01*
X161175571Y-79682866D01*
X161223190Y-79587628D01*
X161461285Y-79111438D02*
X160794619Y-79111438D01*
X161366047Y-79111438D02*
X161413666Y-79063819D01*
X161461285Y-78968580D01*
X161461285Y-78825723D01*
X161413666Y-78730485D01*
X161318428Y-78682866D01*
X160794619Y-78682866D01*
X160794619Y-78063819D02*
X160842238Y-78159057D01*
X160889857Y-78206676D01*
X160985095Y-78254295D01*
X161270809Y-78254295D01*
X161366047Y-78206676D01*
X161413666Y-78159057D01*
X161461285Y-78063819D01*
X161461285Y-77920961D01*
X161413666Y-77825723D01*
X161366047Y-77778104D01*
X161270809Y-77730485D01*
X160985095Y-77730485D01*
X160889857Y-77778104D01*
X160842238Y-77825723D01*
X160794619Y-77920961D01*
X160794619Y-78063819D01*
D11*
X150497980Y-75203209D02*
X149497980Y-75203209D01*
X149497980Y-75584161D01*
X149545600Y-75679400D01*
X149593219Y-75727019D01*
X149688457Y-75774638D01*
X149831314Y-75774638D01*
X149926552Y-75727019D01*
X149974171Y-75679400D01*
X150021790Y-75584161D01*
X150021790Y-75203209D01*
X150402742Y-76774638D02*
X150450361Y-76727019D01*
X150497980Y-76584161D01*
X150497980Y-76488923D01*
X150450361Y-76346066D01*
X150355123Y-76250828D01*
X150259885Y-76203209D01*
X150069409Y-76155590D01*
X149926552Y-76155590D01*
X149736076Y-76203209D01*
X149640838Y-76250828D01*
X149545600Y-76346066D01*
X149497980Y-76488923D01*
X149497980Y-76584161D01*
X149545600Y-76727019D01*
X149593219Y-76774638D01*
X149974171Y-77536542D02*
X150021790Y-77679400D01*
X150069409Y-77727019D01*
X150164647Y-77774638D01*
X150307504Y-77774638D01*
X150402742Y-77727019D01*
X150450361Y-77679400D01*
X150497980Y-77584161D01*
X150497980Y-77203209D01*
X149497980Y-77203209D01*
X149497980Y-77536542D01*
X149545600Y-77631780D01*
X149593219Y-77679400D01*
X149688457Y-77727019D01*
X149783695Y-77727019D01*
X149878933Y-77679400D01*
X149926552Y-77631780D01*
X149974171Y-77536542D01*
X149974171Y-77203209D01*
X150497980Y-78965114D02*
X149497980Y-78965114D01*
X149878933Y-78965114D02*
X149831314Y-79060352D01*
X149831314Y-79250828D01*
X149878933Y-79346066D01*
X149926552Y-79393685D01*
X150021790Y-79441304D01*
X150307504Y-79441304D01*
X150402742Y-79393685D01*
X150450361Y-79346066D01*
X150497980Y-79250828D01*
X150497980Y-79060352D01*
X150450361Y-78965114D01*
X149831314Y-79774638D02*
X150497980Y-80012733D01*
X149831314Y-80250828D02*
X150497980Y-80012733D01*
X150736076Y-79917495D01*
X150783695Y-79869876D01*
X150831314Y-79774638D01*
X150212266Y-81346066D02*
X150212266Y-81822257D01*
X150497980Y-81250828D02*
X149497980Y-81584161D01*
X150497980Y-81917495D01*
X150497980Y-82250828D02*
X149831314Y-82250828D01*
X149926552Y-82250828D02*
X149878933Y-82298447D01*
X149831314Y-82393685D01*
X149831314Y-82536542D01*
X149878933Y-82631780D01*
X149974171Y-82679400D01*
X150497980Y-82679400D01*
X149974171Y-82679400D02*
X149878933Y-82727019D01*
X149831314Y-82822257D01*
X149831314Y-82965114D01*
X149878933Y-83060352D01*
X149974171Y-83107971D01*
X150497980Y-83107971D01*
X150497980Y-83584161D02*
X149831314Y-83584161D01*
X149497980Y-83584161D02*
X149545600Y-83536542D01*
X149593219Y-83584161D01*
X149545600Y-83631780D01*
X149497980Y-83584161D01*
X149593219Y-83584161D01*
X149831314Y-84488923D02*
X150640838Y-84488923D01*
X150736076Y-84441304D01*
X150783695Y-84393685D01*
X150831314Y-84298447D01*
X150831314Y-84155590D01*
X150783695Y-84060352D01*
X150450361Y-84488923D02*
X150497980Y-84393685D01*
X150497980Y-84203209D01*
X150450361Y-84107971D01*
X150402742Y-84060352D01*
X150307504Y-84012733D01*
X150021790Y-84012733D01*
X149926552Y-84060352D01*
X149878933Y-84107971D01*
X149831314Y-84203209D01*
X149831314Y-84393685D01*
X149878933Y-84488923D01*
X149974171Y-84965114D02*
X149974171Y-85298447D01*
X150497980Y-85441304D02*
X150497980Y-84965114D01*
X149497980Y-84965114D01*
X149497980Y-85441304D01*
X150497980Y-86298447D02*
X149974171Y-86298447D01*
X149878933Y-86250828D01*
X149831314Y-86155590D01*
X149831314Y-85965114D01*
X149878933Y-85869876D01*
X150450361Y-86298447D02*
X150497980Y-86203209D01*
X150497980Y-85965114D01*
X150450361Y-85869876D01*
X150355123Y-85822257D01*
X150259885Y-85822257D01*
X150164647Y-85869876D01*
X150117028Y-85965114D01*
X150117028Y-86203209D01*
X150069409Y-86298447D01*
X150450361Y-86727019D02*
X150497980Y-86822257D01*
X150497980Y-87012733D01*
X150450361Y-87107971D01*
X150355123Y-87155590D01*
X150307504Y-87155590D01*
X150212266Y-87107971D01*
X150164647Y-87012733D01*
X150164647Y-86869876D01*
X150117028Y-86774638D01*
X150021790Y-86727019D01*
X149974171Y-86727019D01*
X149878933Y-86774638D01*
X149831314Y-86869876D01*
X149831314Y-87012733D01*
X149878933Y-87107971D01*
X149831314Y-87441304D02*
X149831314Y-87822257D01*
X149497980Y-87584161D02*
X150355123Y-87584161D01*
X150450361Y-87631780D01*
X150497980Y-87727019D01*
X150497980Y-87822257D01*
X150450361Y-88203209D02*
X150497980Y-88203209D01*
X150593219Y-88155590D01*
X150640838Y-88107971D01*
X150497980Y-89822257D02*
X149497980Y-89822257D01*
X150450361Y-89822257D02*
X150497980Y-89727019D01*
X150497980Y-89536542D01*
X150450361Y-89441304D01*
X150402742Y-89393685D01*
X150307504Y-89346066D01*
X150021790Y-89346066D01*
X149926552Y-89393685D01*
X149878933Y-89441304D01*
X149831314Y-89536542D01*
X149831314Y-89727019D01*
X149878933Y-89822257D01*
X150450361Y-90679399D02*
X150497980Y-90584161D01*
X150497980Y-90393685D01*
X150450361Y-90298447D01*
X150355123Y-90250828D01*
X149974171Y-90250828D01*
X149878933Y-90298447D01*
X149831314Y-90393685D01*
X149831314Y-90584161D01*
X149878933Y-90679399D01*
X149974171Y-90727019D01*
X150069409Y-90727019D01*
X150164647Y-90250828D01*
X150450361Y-91107971D02*
X150497980Y-91203209D01*
X150497980Y-91393685D01*
X150450361Y-91488923D01*
X150355123Y-91536542D01*
X150307504Y-91536542D01*
X150212266Y-91488923D01*
X150164647Y-91393685D01*
X150164647Y-91250828D01*
X150117028Y-91155590D01*
X150021790Y-91107971D01*
X149974171Y-91107971D01*
X149878933Y-91155590D01*
X149831314Y-91250828D01*
X149831314Y-91393685D01*
X149878933Y-91488923D01*
X150497980Y-91965114D02*
X149831314Y-91965114D01*
X149497980Y-91965114D02*
X149545600Y-91917495D01*
X149593219Y-91965114D01*
X149545600Y-92012733D01*
X149497980Y-91965114D01*
X149593219Y-91965114D01*
X149831314Y-92869876D02*
X150640838Y-92869876D01*
X150736076Y-92822257D01*
X150783695Y-92774638D01*
X150831314Y-92679399D01*
X150831314Y-92536542D01*
X150783695Y-92441304D01*
X150450361Y-92869876D02*
X150497980Y-92774638D01*
X150497980Y-92584161D01*
X150450361Y-92488923D01*
X150402742Y-92441304D01*
X150307504Y-92393685D01*
X150021790Y-92393685D01*
X149926552Y-92441304D01*
X149878933Y-92488923D01*
X149831314Y-92584161D01*
X149831314Y-92774638D01*
X149878933Y-92869876D01*
X149831314Y-93346066D02*
X150497980Y-93346066D01*
X149926552Y-93346066D02*
X149878933Y-93393685D01*
X149831314Y-93488923D01*
X149831314Y-93631780D01*
X149878933Y-93727019D01*
X149974171Y-93774638D01*
X150497980Y-93774638D01*
X150450361Y-94631780D02*
X150497980Y-94536542D01*
X150497980Y-94346066D01*
X150450361Y-94250828D01*
X150355123Y-94203209D01*
X149974171Y-94203209D01*
X149878933Y-94250828D01*
X149831314Y-94346066D01*
X149831314Y-94536542D01*
X149878933Y-94631780D01*
X149974171Y-94679399D01*
X150069409Y-94679399D01*
X150164647Y-94203209D01*
X150497980Y-95536542D02*
X149497980Y-95536542D01*
X150450361Y-95536542D02*
X150497980Y-95441304D01*
X150497980Y-95250828D01*
X150450361Y-95155590D01*
X150402742Y-95107971D01*
X150307504Y-95060352D01*
X150021790Y-95060352D01*
X149926552Y-95107971D01*
X149878933Y-95155590D01*
X149831314Y-95250828D01*
X149831314Y-95441304D01*
X149878933Y-95536542D01*
X150497980Y-96774638D02*
X149831314Y-96774638D01*
X149497980Y-96774638D02*
X149545600Y-96727019D01*
X149593219Y-96774638D01*
X149545600Y-96822257D01*
X149497980Y-96774638D01*
X149593219Y-96774638D01*
X149831314Y-97250828D02*
X150497980Y-97250828D01*
X149926552Y-97250828D02*
X149878933Y-97298447D01*
X149831314Y-97393685D01*
X149831314Y-97536542D01*
X149878933Y-97631780D01*
X149974171Y-97679399D01*
X150497980Y-97679399D01*
X150450361Y-98869876D02*
X150497980Y-99012733D01*
X150497980Y-99250828D01*
X150450361Y-99346066D01*
X150402742Y-99393685D01*
X150307504Y-99441304D01*
X150212266Y-99441304D01*
X150117028Y-99393685D01*
X150069409Y-99346066D01*
X150021790Y-99250828D01*
X149974171Y-99060352D01*
X149926552Y-98965114D01*
X149878933Y-98917495D01*
X149783695Y-98869876D01*
X149688457Y-98869876D01*
X149593219Y-98917495D01*
X149545600Y-98965114D01*
X149497980Y-99060352D01*
X149497980Y-99298447D01*
X149545600Y-99441304D01*
X150450361Y-100250828D02*
X150497980Y-100155590D01*
X150497980Y-99965114D01*
X150450361Y-99869876D01*
X150355123Y-99822257D01*
X149974171Y-99822257D01*
X149878933Y-99869876D01*
X149831314Y-99965114D01*
X149831314Y-100155590D01*
X149878933Y-100250828D01*
X149974171Y-100298447D01*
X150069409Y-100298447D01*
X150164647Y-99822257D01*
X150497980Y-100727019D02*
X149831314Y-100727019D01*
X150021790Y-100727019D02*
X149926552Y-100774638D01*
X149878933Y-100822257D01*
X149831314Y-100917495D01*
X149831314Y-101012733D01*
X150497980Y-101346066D02*
X149497980Y-101346066D01*
X149878933Y-101346066D02*
X149831314Y-101441304D01*
X149831314Y-101631780D01*
X149878933Y-101727019D01*
X149926552Y-101774638D01*
X150021790Y-101822257D01*
X150307504Y-101822257D01*
X150402742Y-101774638D01*
X150450361Y-101727019D01*
X150497980Y-101631780D01*
X150497980Y-101441304D01*
X150450361Y-101346066D01*
X150497980Y-102250828D02*
X149831314Y-102250828D01*
X149497980Y-102250828D02*
X149545600Y-102203209D01*
X149593219Y-102250828D01*
X149545600Y-102298447D01*
X149497980Y-102250828D01*
X149593219Y-102250828D01*
X150497980Y-103155590D02*
X149974171Y-103155590D01*
X149878933Y-103107971D01*
X149831314Y-103012733D01*
X149831314Y-102822257D01*
X149878933Y-102727019D01*
X150450361Y-103155590D02*
X150497980Y-103060352D01*
X150497980Y-102822257D01*
X150450361Y-102727019D01*
X150355123Y-102679399D01*
X150259885Y-102679399D01*
X150164647Y-102727019D01*
X150117028Y-102822257D01*
X150117028Y-103060352D01*
X150069409Y-103155590D01*
X151107980Y-64941304D02*
X152107980Y-65179400D01*
X151393695Y-65369876D01*
X152107980Y-65560352D01*
X151107980Y-65798447D01*
X152107980Y-66179400D02*
X151441314Y-66179400D01*
X151107980Y-66179400D02*
X151155600Y-66131780D01*
X151203219Y-66179400D01*
X151155600Y-66227019D01*
X151107980Y-66179400D01*
X151203219Y-66179400D01*
X152107980Y-66655590D02*
X151441314Y-66655590D01*
X151631790Y-66655590D02*
X151536552Y-66703209D01*
X151488933Y-66750828D01*
X151441314Y-66846066D01*
X151441314Y-66941304D01*
X152060361Y-67655590D02*
X152107980Y-67560352D01*
X152107980Y-67369876D01*
X152060361Y-67274638D01*
X151965123Y-67227019D01*
X151584171Y-67227019D01*
X151488933Y-67274638D01*
X151441314Y-67369876D01*
X151441314Y-67560352D01*
X151488933Y-67655590D01*
X151584171Y-67703209D01*
X151679409Y-67703209D01*
X151774647Y-67227019D01*
X152107980Y-68560352D02*
X151107980Y-68560352D01*
X152060361Y-68560352D02*
X152107980Y-68465114D01*
X152107980Y-68274638D01*
X152060361Y-68179400D01*
X152012742Y-68131780D01*
X151917504Y-68084161D01*
X151631790Y-68084161D01*
X151536552Y-68131780D01*
X151488933Y-68179400D01*
X151441314Y-68274638D01*
X151441314Y-68465114D01*
X151488933Y-68560352D01*
X151441314Y-69655590D02*
X151441314Y-70036542D01*
X152107980Y-69798447D02*
X151250838Y-69798447D01*
X151155600Y-69846066D01*
X151107980Y-69941304D01*
X151107980Y-70036542D01*
X152107980Y-70512733D02*
X152060361Y-70417495D01*
X152012742Y-70369876D01*
X151917504Y-70322257D01*
X151631790Y-70322257D01*
X151536552Y-70369876D01*
X151488933Y-70417495D01*
X151441314Y-70512733D01*
X151441314Y-70655590D01*
X151488933Y-70750828D01*
X151536552Y-70798447D01*
X151631790Y-70846066D01*
X151917504Y-70846066D01*
X152012742Y-70798447D01*
X152060361Y-70750828D01*
X152107980Y-70655590D01*
X152107980Y-70512733D01*
X152107980Y-71274638D02*
X151441314Y-71274638D01*
X151631790Y-71274638D02*
X151536552Y-71322257D01*
X151488933Y-71369876D01*
X151441314Y-71465114D01*
X151441314Y-71560352D01*
X152107980Y-72655590D02*
X151107980Y-72655590D01*
X152107980Y-73084161D02*
X151584171Y-73084161D01*
X151488933Y-73036542D01*
X151441314Y-72941304D01*
X151441314Y-72798447D01*
X151488933Y-72703209D01*
X151536552Y-72655590D01*
X151441314Y-73417495D02*
X151441314Y-73798447D01*
X151107980Y-73560352D02*
X151965123Y-73560352D01*
X152060361Y-73607971D01*
X152107980Y-73703209D01*
X152107980Y-73798447D01*
X151441314Y-73988923D02*
X151441314Y-74369876D01*
X151107980Y-74131780D02*
X151965123Y-74131780D01*
X152060361Y-74179400D01*
X152107980Y-74274638D01*
X152107980Y-74369876D01*
X151441314Y-74703209D02*
X152441314Y-74703209D01*
X151488933Y-74703209D02*
X151441314Y-74798447D01*
X151441314Y-74988923D01*
X151488933Y-75084161D01*
X151536552Y-75131780D01*
X151631790Y-75179400D01*
X151917504Y-75179400D01*
X152012742Y-75131780D01*
X152060361Y-75084161D01*
X152107980Y-74988923D01*
X152107980Y-74798447D01*
X152060361Y-74703209D01*
X152060361Y-75560352D02*
X152107980Y-75655590D01*
X152107980Y-75846066D01*
X152060361Y-75941304D01*
X151965123Y-75988923D01*
X151917504Y-75988923D01*
X151822266Y-75941304D01*
X151774647Y-75846066D01*
X151774647Y-75703209D01*
X151727028Y-75607971D01*
X151631790Y-75560352D01*
X151584171Y-75560352D01*
X151488933Y-75607971D01*
X151441314Y-75703209D01*
X151441314Y-75846066D01*
X151488933Y-75941304D01*
X152012742Y-76417495D02*
X152060361Y-76465114D01*
X152107980Y-76417495D01*
X152060361Y-76369876D01*
X152012742Y-76417495D01*
X152107980Y-76417495D01*
X151488933Y-76417495D02*
X151536552Y-76465114D01*
X151584171Y-76417495D01*
X151536552Y-76369876D01*
X151488933Y-76417495D01*
X151584171Y-76417495D01*
X151060361Y-77607971D02*
X152346076Y-76750828D01*
X151060361Y-78655590D02*
X152346076Y-77798447D01*
X151441314Y-79417495D02*
X152250838Y-79417495D01*
X152346076Y-79369876D01*
X152393695Y-79322257D01*
X152441314Y-79227019D01*
X152441314Y-79084161D01*
X152393695Y-78988923D01*
X152060361Y-79417495D02*
X152107980Y-79322257D01*
X152107980Y-79131780D01*
X152060361Y-79036542D01*
X152012742Y-78988923D01*
X151917504Y-78941304D01*
X151631790Y-78941304D01*
X151536552Y-78988923D01*
X151488933Y-79036542D01*
X151441314Y-79131780D01*
X151441314Y-79322257D01*
X151488933Y-79417495D01*
X152107980Y-79893685D02*
X151441314Y-79893685D01*
X151107980Y-79893685D02*
X151155600Y-79846066D01*
X151203219Y-79893685D01*
X151155600Y-79941304D01*
X151107980Y-79893685D01*
X151203219Y-79893685D01*
X151441314Y-80227019D02*
X151441314Y-80607971D01*
X151107980Y-80369876D02*
X151965123Y-80369876D01*
X152060361Y-80417495D01*
X152107980Y-80512733D01*
X152107980Y-80607971D01*
X152107980Y-80941304D02*
X151107980Y-80941304D01*
X152107980Y-81369876D02*
X151584171Y-81369876D01*
X151488933Y-81322257D01*
X151441314Y-81227019D01*
X151441314Y-81084161D01*
X151488933Y-80988923D01*
X151536552Y-80941304D01*
X151441314Y-82274638D02*
X152107980Y-82274638D01*
X151441314Y-81846066D02*
X151965123Y-81846066D01*
X152060361Y-81893685D01*
X152107980Y-81988923D01*
X152107980Y-82131780D01*
X152060361Y-82227019D01*
X152012742Y-82274638D01*
X152107980Y-82750828D02*
X151107980Y-82750828D01*
X151488933Y-82750828D02*
X151441314Y-82846066D01*
X151441314Y-83036542D01*
X151488933Y-83131780D01*
X151536552Y-83179400D01*
X151631790Y-83227019D01*
X151917504Y-83227019D01*
X152012742Y-83179400D01*
X152060361Y-83131780D01*
X152107980Y-83036542D01*
X152107980Y-82846066D01*
X152060361Y-82750828D01*
X152012742Y-83655590D02*
X152060361Y-83703209D01*
X152107980Y-83655590D01*
X152060361Y-83607971D01*
X152012742Y-83655590D01*
X152107980Y-83655590D01*
X152060361Y-84560352D02*
X152107980Y-84465114D01*
X152107980Y-84274638D01*
X152060361Y-84179400D01*
X152012742Y-84131780D01*
X151917504Y-84084161D01*
X151631790Y-84084161D01*
X151536552Y-84131780D01*
X151488933Y-84179400D01*
X151441314Y-84274638D01*
X151441314Y-84465114D01*
X151488933Y-84560352D01*
X152107980Y-85131780D02*
X152060361Y-85036542D01*
X152012742Y-84988923D01*
X151917504Y-84941304D01*
X151631790Y-84941304D01*
X151536552Y-84988923D01*
X151488933Y-85036542D01*
X151441314Y-85131780D01*
X151441314Y-85274638D01*
X151488933Y-85369876D01*
X151536552Y-85417495D01*
X151631790Y-85465114D01*
X151917504Y-85465114D01*
X152012742Y-85417495D01*
X152060361Y-85369876D01*
X152107980Y-85274638D01*
X152107980Y-85131780D01*
X152107980Y-85893685D02*
X151441314Y-85893685D01*
X151536552Y-85893685D02*
X151488933Y-85941304D01*
X151441314Y-86036542D01*
X151441314Y-86179400D01*
X151488933Y-86274638D01*
X151584171Y-86322257D01*
X152107980Y-86322257D01*
X151584171Y-86322257D02*
X151488933Y-86369876D01*
X151441314Y-86465114D01*
X151441314Y-86607971D01*
X151488933Y-86703209D01*
X151584171Y-86750828D01*
X152107980Y-86750828D01*
X151060361Y-87941304D02*
X152346076Y-87084161D01*
X152107980Y-88703209D02*
X151584171Y-88703209D01*
X151488933Y-88655590D01*
X151441314Y-88560352D01*
X151441314Y-88369876D01*
X151488933Y-88274638D01*
X152060361Y-88703209D02*
X152107980Y-88607971D01*
X152107980Y-88369876D01*
X152060361Y-88274638D01*
X151965123Y-88227019D01*
X151869885Y-88227019D01*
X151774647Y-88274638D01*
X151727028Y-88369876D01*
X151727028Y-88607971D01*
X151679409Y-88703209D01*
X152060361Y-89131780D02*
X152107980Y-89227019D01*
X152107980Y-89417495D01*
X152060361Y-89512733D01*
X151965123Y-89560352D01*
X151917504Y-89560352D01*
X151822266Y-89512733D01*
X151774647Y-89417495D01*
X151774647Y-89274638D01*
X151727028Y-89179400D01*
X151631790Y-89131780D01*
X151584171Y-89131780D01*
X151488933Y-89179400D01*
X151441314Y-89274638D01*
X151441314Y-89417495D01*
X151488933Y-89512733D01*
X152107980Y-89988923D02*
X151441314Y-89988923D01*
X151107980Y-89988923D02*
X151155600Y-89941304D01*
X151203219Y-89988923D01*
X151155600Y-90036542D01*
X151107980Y-89988923D01*
X151203219Y-89988923D01*
X151441314Y-90893685D02*
X152250838Y-90893685D01*
X152346076Y-90846066D01*
X152393695Y-90798447D01*
X152441314Y-90703209D01*
X152441314Y-90560352D01*
X152393695Y-90465114D01*
X152060361Y-90893685D02*
X152107980Y-90798447D01*
X152107980Y-90607971D01*
X152060361Y-90512733D01*
X152012742Y-90465114D01*
X151917504Y-90417495D01*
X151631790Y-90417495D01*
X151536552Y-90465114D01*
X151488933Y-90512733D01*
X151441314Y-90607971D01*
X151441314Y-90798447D01*
X151488933Y-90893685D01*
X151060361Y-92084161D02*
X152346076Y-91227019D01*
X152107980Y-92846066D02*
X151584171Y-92846066D01*
X151488933Y-92798447D01*
X151441314Y-92703209D01*
X151441314Y-92512733D01*
X151488933Y-92417495D01*
X152060361Y-92846066D02*
X152107980Y-92750828D01*
X152107980Y-92512733D01*
X152060361Y-92417495D01*
X151965123Y-92369876D01*
X151869885Y-92369876D01*
X151774647Y-92417495D01*
X151727028Y-92512733D01*
X151727028Y-92750828D01*
X151679409Y-92846066D01*
X152107980Y-93322257D02*
X151441314Y-93322257D01*
X151536552Y-93322257D02*
X151488933Y-93369876D01*
X151441314Y-93465114D01*
X151441314Y-93607971D01*
X151488933Y-93703209D01*
X151584171Y-93750828D01*
X152107980Y-93750828D01*
X151584171Y-93750828D02*
X151488933Y-93798447D01*
X151441314Y-93893685D01*
X151441314Y-94036542D01*
X151488933Y-94131780D01*
X151584171Y-94179400D01*
X152107980Y-94179400D01*
X152107980Y-94655590D02*
X151441314Y-94655590D01*
X151107980Y-94655590D02*
X151155600Y-94607971D01*
X151203219Y-94655590D01*
X151155600Y-94703209D01*
X151107980Y-94655590D01*
X151203219Y-94655590D01*
X151441314Y-95560352D02*
X152250838Y-95560352D01*
X152346076Y-95512733D01*
X152393695Y-95465114D01*
X152441314Y-95369876D01*
X152441314Y-95227019D01*
X152393695Y-95131780D01*
X152060361Y-95560352D02*
X152107980Y-95465114D01*
X152107980Y-95274638D01*
X152060361Y-95179400D01*
X152012742Y-95131780D01*
X151917504Y-95084161D01*
X151631790Y-95084161D01*
X151536552Y-95131780D01*
X151488933Y-95179400D01*
X151441314Y-95274638D01*
X151441314Y-95465114D01*
X151488933Y-95560352D01*
X152107980Y-96465114D02*
X151584171Y-96465114D01*
X151488933Y-96417495D01*
X151441314Y-96322257D01*
X151441314Y-96131780D01*
X151488933Y-96036542D01*
X152060361Y-96465114D02*
X152107980Y-96369876D01*
X152107980Y-96131780D01*
X152060361Y-96036542D01*
X151965123Y-95988923D01*
X151869885Y-95988923D01*
X151774647Y-96036542D01*
X151727028Y-96131780D01*
X151727028Y-96369876D01*
X151679409Y-96465114D01*
X151727028Y-96941304D02*
X151727028Y-97703209D01*
X151441314Y-98179400D02*
X152441314Y-98179400D01*
X151488933Y-98179400D02*
X151441314Y-98274638D01*
X151441314Y-98465114D01*
X151488933Y-98560352D01*
X151536552Y-98607971D01*
X151631790Y-98655590D01*
X151917504Y-98655590D01*
X152012742Y-98607971D01*
X152060361Y-98560352D01*
X152107980Y-98465114D01*
X152107980Y-98274638D01*
X152060361Y-98179400D01*
X152060361Y-99036542D02*
X152107980Y-99131780D01*
X152107980Y-99322257D01*
X152060361Y-99417495D01*
X151965123Y-99465114D01*
X151917504Y-99465114D01*
X151822266Y-99417495D01*
X151774647Y-99322257D01*
X151774647Y-99179400D01*
X151727028Y-99084161D01*
X151631790Y-99036542D01*
X151584171Y-99036542D01*
X151488933Y-99084161D01*
X151441314Y-99179400D01*
X151441314Y-99322257D01*
X151488933Y-99417495D01*
X151203219Y-99846066D02*
X151155600Y-99893685D01*
X151107980Y-99988923D01*
X151107980Y-100227019D01*
X151155600Y-100322257D01*
X151203219Y-100369876D01*
X151298457Y-100417495D01*
X151393695Y-100417495D01*
X151536552Y-100369876D01*
X152107980Y-99798447D01*
X152107980Y-100417495D01*
X151727028Y-100846066D02*
X151727028Y-101607971D01*
X152107980Y-102084161D02*
X151441314Y-102084161D01*
X151536552Y-102084161D02*
X151488933Y-102131780D01*
X151441314Y-102227019D01*
X151441314Y-102369876D01*
X151488933Y-102465114D01*
X151584171Y-102512733D01*
X152107980Y-102512733D01*
X151584171Y-102512733D02*
X151488933Y-102560352D01*
X151441314Y-102655590D01*
X151441314Y-102798447D01*
X151488933Y-102893685D01*
X151584171Y-102941304D01*
X152107980Y-102941304D01*
X152107980Y-103560352D02*
X152060361Y-103465114D01*
X152012742Y-103417495D01*
X151917504Y-103369876D01*
X151631790Y-103369876D01*
X151536552Y-103417495D01*
X151488933Y-103465114D01*
X151441314Y-103560352D01*
X151441314Y-103703209D01*
X151488933Y-103798447D01*
X151536552Y-103846066D01*
X151631790Y-103893685D01*
X151917504Y-103893685D01*
X152012742Y-103846066D01*
X152060361Y-103798447D01*
X152107980Y-103703209D01*
X152107980Y-103560352D01*
X151441314Y-104750828D02*
X152107980Y-104750828D01*
X151441314Y-104322257D02*
X151965123Y-104322257D01*
X152060361Y-104369876D01*
X152107980Y-104465114D01*
X152107980Y-104607971D01*
X152060361Y-104703209D01*
X152012742Y-104750828D01*
X152060361Y-105179400D02*
X152107980Y-105274638D01*
X152107980Y-105465114D01*
X152060361Y-105560352D01*
X151965123Y-105607971D01*
X151917504Y-105607971D01*
X151822266Y-105560352D01*
X151774647Y-105465114D01*
X151774647Y-105322257D01*
X151727028Y-105227019D01*
X151631790Y-105179400D01*
X151584171Y-105179400D01*
X151488933Y-105227019D01*
X151441314Y-105322257D01*
X151441314Y-105465114D01*
X151488933Y-105560352D01*
X152060361Y-106417495D02*
X152107980Y-106322257D01*
X152107980Y-106131780D01*
X152060361Y-106036542D01*
X151965123Y-105988923D01*
X151584171Y-105988923D01*
X151488933Y-106036542D01*
X151441314Y-106131780D01*
X151441314Y-106322257D01*
X151488933Y-106417495D01*
X151584171Y-106465114D01*
X151679409Y-106465114D01*
X151774647Y-105988923D01*
X151727028Y-106893685D02*
X151727028Y-107655590D01*
X152107980Y-108560352D02*
X151584171Y-108560352D01*
X151488933Y-108512733D01*
X151441314Y-108417495D01*
X151441314Y-108227019D01*
X151488933Y-108131780D01*
X152060361Y-108560352D02*
X152107980Y-108465114D01*
X152107980Y-108227019D01*
X152060361Y-108131780D01*
X151965123Y-108084161D01*
X151869885Y-108084161D01*
X151774647Y-108131780D01*
X151727028Y-108227019D01*
X151727028Y-108465114D01*
X151679409Y-108560352D01*
X152107980Y-109465114D02*
X151107980Y-109465114D01*
X152060361Y-109465114D02*
X152107980Y-109369876D01*
X152107980Y-109179400D01*
X152060361Y-109084161D01*
X152012742Y-109036542D01*
X151917504Y-108988923D01*
X151631790Y-108988923D01*
X151536552Y-109036542D01*
X151488933Y-109084161D01*
X151441314Y-109179400D01*
X151441314Y-109369876D01*
X151488933Y-109465114D01*
X152107980Y-110369876D02*
X151584171Y-110369876D01*
X151488933Y-110322257D01*
X151441314Y-110227019D01*
X151441314Y-110036542D01*
X151488933Y-109941304D01*
X152060361Y-110369876D02*
X152107980Y-110274638D01*
X152107980Y-110036542D01*
X152060361Y-109941304D01*
X151965123Y-109893685D01*
X151869885Y-109893685D01*
X151774647Y-109941304D01*
X151727028Y-110036542D01*
X151727028Y-110274638D01*
X151679409Y-110369876D01*
X151441314Y-110846066D02*
X152441314Y-110846066D01*
X151488933Y-110846066D02*
X151441314Y-110941304D01*
X151441314Y-111131780D01*
X151488933Y-111227019D01*
X151536552Y-111274638D01*
X151631790Y-111322257D01*
X151917504Y-111322257D01*
X152012742Y-111274638D01*
X152060361Y-111227019D01*
X152107980Y-111131780D01*
X152107980Y-110941304D01*
X152060361Y-110846066D01*
X151441314Y-111607971D02*
X151441314Y-111988923D01*
X151107980Y-111750828D02*
X151965123Y-111750828D01*
X152060361Y-111798447D01*
X152107980Y-111893685D01*
X152107980Y-111988923D01*
X152060361Y-112703209D02*
X152107980Y-112607971D01*
X152107980Y-112417495D01*
X152060361Y-112322257D01*
X151965123Y-112274638D01*
X151584171Y-112274638D01*
X151488933Y-112322257D01*
X151441314Y-112417495D01*
X151441314Y-112607971D01*
X151488933Y-112703209D01*
X151584171Y-112750828D01*
X151679409Y-112750828D01*
X151774647Y-112274638D01*
X152107980Y-113179400D02*
X151441314Y-113179400D01*
X151631790Y-113179400D02*
X151536552Y-113227019D01*
X151488933Y-113274638D01*
X151441314Y-113369876D01*
X151441314Y-113465114D01*
X174051942Y-112132971D02*
X174023371Y-112047257D01*
X174023371Y-111904400D01*
X174051942Y-111847257D01*
X174080514Y-111818685D01*
X174137657Y-111790114D01*
X174194800Y-111790114D01*
X174251942Y-111818685D01*
X174280514Y-111847257D01*
X174309085Y-111904400D01*
X174337657Y-112018685D01*
X174366228Y-112075828D01*
X174394800Y-112104400D01*
X174451942Y-112132971D01*
X174509085Y-112132971D01*
X174566228Y-112104400D01*
X174594800Y-112075828D01*
X174623371Y-112018685D01*
X174623371Y-111875828D01*
X174594800Y-111790114D01*
X174023371Y-111532971D02*
X174623371Y-111532971D01*
X174623371Y-111390114D01*
X174594800Y-111304400D01*
X174537657Y-111247257D01*
X174480514Y-111218685D01*
X174366228Y-111190114D01*
X174280514Y-111190114D01*
X174166228Y-111218685D01*
X174109085Y-111247257D01*
X174051942Y-111304400D01*
X174023371Y-111390114D01*
X174023371Y-111532971D01*
X174194800Y-110961542D02*
X174194800Y-110675828D01*
X174023371Y-111018685D02*
X174623371Y-110818685D01*
X174023371Y-110618685D01*
%TO.C,CONFIG*%
X175003580Y-69469371D02*
X175027390Y-69493180D01*
X175098819Y-69516990D01*
X175146438Y-69516990D01*
X175217866Y-69493180D01*
X175265485Y-69445561D01*
X175289295Y-69397942D01*
X175313104Y-69302704D01*
X175313104Y-69231276D01*
X175289295Y-69136038D01*
X175265485Y-69088419D01*
X175217866Y-69040800D01*
X175146438Y-69016990D01*
X175098819Y-69016990D01*
X175027390Y-69040800D01*
X175003580Y-69064609D01*
X174694057Y-69016990D02*
X174598819Y-69016990D01*
X174551200Y-69040800D01*
X174503580Y-69088419D01*
X174479771Y-69183657D01*
X174479771Y-69350323D01*
X174503580Y-69445561D01*
X174551200Y-69493180D01*
X174598819Y-69516990D01*
X174694057Y-69516990D01*
X174741676Y-69493180D01*
X174789295Y-69445561D01*
X174813104Y-69350323D01*
X174813104Y-69183657D01*
X174789295Y-69088419D01*
X174741676Y-69040800D01*
X174694057Y-69016990D01*
X174265485Y-69516990D02*
X174265485Y-69016990D01*
X173979771Y-69516990D01*
X173979771Y-69016990D01*
X173575009Y-69255085D02*
X173741676Y-69255085D01*
X173741676Y-69516990D02*
X173741676Y-69016990D01*
X173503580Y-69016990D01*
X173313104Y-69516990D02*
X173313104Y-69016990D01*
X172813104Y-69040800D02*
X172860723Y-69016990D01*
X172932152Y-69016990D01*
X173003580Y-69040800D01*
X173051200Y-69088419D01*
X173075009Y-69136038D01*
X173098819Y-69231276D01*
X173098819Y-69302704D01*
X173075009Y-69397942D01*
X173051200Y-69445561D01*
X173003580Y-69493180D01*
X172932152Y-69516990D01*
X172884533Y-69516990D01*
X172813104Y-69493180D01*
X172789295Y-69469371D01*
X172789295Y-69302704D01*
X172884533Y-69302704D01*
%TD*%
%LPC*%
D13*
X133851666Y-75386190D02*
X133851666Y-75862380D01*
X134137380Y-75290952D02*
X133137380Y-75624285D01*
X134137380Y-75957619D01*
X134137380Y-76290952D02*
X133470714Y-76290952D01*
X133565952Y-76290952D02*
X133518333Y-76338571D01*
X133470714Y-76433809D01*
X133470714Y-76576666D01*
X133518333Y-76671904D01*
X133613571Y-76719523D01*
X134137380Y-76719523D01*
X133613571Y-76719523D02*
X133518333Y-76767142D01*
X133470714Y-76862380D01*
X133470714Y-77005238D01*
X133518333Y-77100476D01*
X133613571Y-77148095D01*
X134137380Y-77148095D01*
X134137380Y-77624285D02*
X133470714Y-77624285D01*
X133137380Y-77624285D02*
X133185000Y-77576666D01*
X133232619Y-77624285D01*
X133185000Y-77671904D01*
X133137380Y-77624285D01*
X133232619Y-77624285D01*
X133470714Y-78529047D02*
X134280238Y-78529047D01*
X134375476Y-78481428D01*
X134423095Y-78433809D01*
X134470714Y-78338571D01*
X134470714Y-78195714D01*
X134423095Y-78100476D01*
X134089761Y-78529047D02*
X134137380Y-78433809D01*
X134137380Y-78243333D01*
X134089761Y-78148095D01*
X134042142Y-78100476D01*
X133946904Y-78052857D01*
X133661190Y-78052857D01*
X133565952Y-78100476D01*
X133518333Y-78148095D01*
X133470714Y-78243333D01*
X133470714Y-78433809D01*
X133518333Y-78529047D01*
X134137380Y-79433809D02*
X133613571Y-79433809D01*
X133518333Y-79386190D01*
X133470714Y-79290952D01*
X133470714Y-79100476D01*
X133518333Y-79005238D01*
X134089761Y-79433809D02*
X134137380Y-79338571D01*
X134137380Y-79100476D01*
X134089761Y-79005238D01*
X133994523Y-78957619D01*
X133899285Y-78957619D01*
X133804047Y-79005238D01*
X133756428Y-79100476D01*
X133756428Y-79338571D01*
X133708809Y-79433809D01*
X134137380Y-80671904D02*
X133137380Y-80671904D01*
X133137380Y-81052857D01*
X133185000Y-81148095D01*
X133232619Y-81195714D01*
X133327857Y-81243333D01*
X133470714Y-81243333D01*
X133565952Y-81195714D01*
X133613571Y-81148095D01*
X133661190Y-81052857D01*
X133661190Y-80671904D01*
X134089761Y-81624285D02*
X134137380Y-81767142D01*
X134137380Y-82005238D01*
X134089761Y-82100476D01*
X134042142Y-82148095D01*
X133946904Y-82195714D01*
X133851666Y-82195714D01*
X133756428Y-82148095D01*
X133708809Y-82100476D01*
X133661190Y-82005238D01*
X133613571Y-81814761D01*
X133565952Y-81719523D01*
X133518333Y-81671904D01*
X133423095Y-81624285D01*
X133327857Y-81624285D01*
X133232619Y-81671904D01*
X133185000Y-81719523D01*
X133137380Y-81814761D01*
X133137380Y-82052857D01*
X133185000Y-82195714D01*
X133089761Y-83338571D02*
X134375476Y-82481428D01*
X133232619Y-83624285D02*
X133185000Y-83671904D01*
X133137380Y-83767142D01*
X133137380Y-84005238D01*
X133185000Y-84100476D01*
X133232619Y-84148095D01*
X133327857Y-84195714D01*
X133423095Y-84195714D01*
X133565952Y-84148095D01*
X134137380Y-83576666D01*
X134137380Y-84195714D01*
X134137380Y-85814761D02*
X133613571Y-85814761D01*
X133518333Y-85767142D01*
X133470714Y-85671904D01*
X133470714Y-85481428D01*
X133518333Y-85386190D01*
X134089761Y-85814761D02*
X134137380Y-85719523D01*
X134137380Y-85481428D01*
X134089761Y-85386190D01*
X133994523Y-85338571D01*
X133899285Y-85338571D01*
X133804047Y-85386190D01*
X133756428Y-85481428D01*
X133756428Y-85719523D01*
X133708809Y-85814761D01*
X134137380Y-86719523D02*
X133137380Y-86719523D01*
X134089761Y-86719523D02*
X134137380Y-86624285D01*
X134137380Y-86433809D01*
X134089761Y-86338571D01*
X134042142Y-86290952D01*
X133946904Y-86243333D01*
X133661190Y-86243333D01*
X133565952Y-86290952D01*
X133518333Y-86338571D01*
X133470714Y-86433809D01*
X133470714Y-86624285D01*
X133518333Y-86719523D01*
X134137380Y-87624285D02*
X133613571Y-87624285D01*
X133518333Y-87576666D01*
X133470714Y-87481428D01*
X133470714Y-87290952D01*
X133518333Y-87195714D01*
X134089761Y-87624285D02*
X134137380Y-87529047D01*
X134137380Y-87290952D01*
X134089761Y-87195714D01*
X133994523Y-87148095D01*
X133899285Y-87148095D01*
X133804047Y-87195714D01*
X133756428Y-87290952D01*
X133756428Y-87529047D01*
X133708809Y-87624285D01*
X133470714Y-88100476D02*
X134470714Y-88100476D01*
X133518333Y-88100476D02*
X133470714Y-88195714D01*
X133470714Y-88386190D01*
X133518333Y-88481428D01*
X133565952Y-88529047D01*
X133661190Y-88576666D01*
X133946904Y-88576666D01*
X134042142Y-88529047D01*
X134089761Y-88481428D01*
X134137380Y-88386190D01*
X134137380Y-88195714D01*
X134089761Y-88100476D01*
X133470714Y-88862380D02*
X133470714Y-89243333D01*
X133137380Y-89005238D02*
X133994523Y-89005238D01*
X134089761Y-89052857D01*
X134137380Y-89148095D01*
X134137380Y-89243333D01*
X134089761Y-89957619D02*
X134137380Y-89862380D01*
X134137380Y-89671904D01*
X134089761Y-89576666D01*
X133994523Y-89529047D01*
X133613571Y-89529047D01*
X133518333Y-89576666D01*
X133470714Y-89671904D01*
X133470714Y-89862380D01*
X133518333Y-89957619D01*
X133613571Y-90005238D01*
X133708809Y-90005238D01*
X133804047Y-89529047D01*
X134137380Y-90433809D02*
X133470714Y-90433809D01*
X133661190Y-90433809D02*
X133565952Y-90481428D01*
X133518333Y-90529047D01*
X133470714Y-90624285D01*
X133470714Y-90719523D01*
X133851666Y-91767142D02*
X133851666Y-92243333D01*
X134137380Y-91671904D02*
X133137380Y-92005238D01*
X134137380Y-92338571D01*
X134137380Y-92671904D02*
X133470714Y-92671904D01*
X133661190Y-92671904D02*
X133565952Y-92719523D01*
X133518333Y-92767142D01*
X133470714Y-92862380D01*
X133470714Y-92957619D01*
X134137380Y-93719523D02*
X133137380Y-93719523D01*
X134089761Y-93719523D02*
X134137380Y-93624285D01*
X134137380Y-93433809D01*
X134089761Y-93338571D01*
X134042142Y-93290952D01*
X133946904Y-93243333D01*
X133661190Y-93243333D01*
X133565952Y-93290952D01*
X133518333Y-93338571D01*
X133470714Y-93433809D01*
X133470714Y-93624285D01*
X133518333Y-93719523D01*
X133470714Y-94624285D02*
X134137380Y-94624285D01*
X133470714Y-94195714D02*
X133994523Y-94195714D01*
X134089761Y-94243333D01*
X134137380Y-94338571D01*
X134137380Y-94481428D01*
X134089761Y-94576666D01*
X134042142Y-94624285D01*
X134137380Y-95100476D02*
X133470714Y-95100476D01*
X133137380Y-95100476D02*
X133185000Y-95052857D01*
X133232619Y-95100476D01*
X133185000Y-95148095D01*
X133137380Y-95100476D01*
X133232619Y-95100476D01*
X133470714Y-95576666D02*
X134137380Y-95576666D01*
X133565952Y-95576666D02*
X133518333Y-95624285D01*
X133470714Y-95719523D01*
X133470714Y-95862380D01*
X133518333Y-95957619D01*
X133613571Y-96005238D01*
X134137380Y-96005238D01*
X134137380Y-96624285D02*
X134089761Y-96529047D01*
X134042142Y-96481428D01*
X133946904Y-96433809D01*
X133661190Y-96433809D01*
X133565952Y-96481428D01*
X133518333Y-96529047D01*
X133470714Y-96624285D01*
X133470714Y-96767142D01*
X133518333Y-96862380D01*
X133565952Y-96909999D01*
X133661190Y-96957619D01*
X133946904Y-96957619D01*
X134042142Y-96909999D01*
X134089761Y-96862380D01*
X134137380Y-96767142D01*
X134137380Y-96624285D01*
X133470714Y-98148095D02*
X134470714Y-98148095D01*
X133518333Y-98148095D02*
X133470714Y-98243333D01*
X133470714Y-98433809D01*
X133518333Y-98529047D01*
X133565952Y-98576666D01*
X133661190Y-98624285D01*
X133946904Y-98624285D01*
X134042142Y-98576666D01*
X134089761Y-98529047D01*
X134137380Y-98433809D01*
X134137380Y-98243333D01*
X134089761Y-98148095D01*
X134137380Y-99052857D02*
X133470714Y-99052857D01*
X133661190Y-99052857D02*
X133565952Y-99100476D01*
X133518333Y-99148095D01*
X133470714Y-99243333D01*
X133470714Y-99338571D01*
X134137380Y-99814761D02*
X134089761Y-99719523D01*
X134042142Y-99671904D01*
X133946904Y-99624285D01*
X133661190Y-99624285D01*
X133565952Y-99671904D01*
X133518333Y-99719523D01*
X133470714Y-99814761D01*
X133470714Y-99957619D01*
X133518333Y-100052857D01*
X133565952Y-100100476D01*
X133661190Y-100148095D01*
X133946904Y-100148095D01*
X134042142Y-100100476D01*
X134089761Y-100052857D01*
X134137380Y-99957619D01*
X134137380Y-99814761D01*
X133470714Y-101005238D02*
X134280238Y-101005238D01*
X134375476Y-100957619D01*
X134423095Y-100909999D01*
X134470714Y-100814761D01*
X134470714Y-100671904D01*
X134423095Y-100576666D01*
X134089761Y-101005238D02*
X134137380Y-100909999D01*
X134137380Y-100719523D01*
X134089761Y-100624285D01*
X134042142Y-100576666D01*
X133946904Y-100529047D01*
X133661190Y-100529047D01*
X133565952Y-100576666D01*
X133518333Y-100624285D01*
X133470714Y-100719523D01*
X133470714Y-100909999D01*
X133518333Y-101005238D01*
X134137380Y-101481428D02*
X133470714Y-101481428D01*
X133661190Y-101481428D02*
X133565952Y-101529047D01*
X133518333Y-101576666D01*
X133470714Y-101671904D01*
X133470714Y-101767142D01*
X134137380Y-102529047D02*
X133613571Y-102529047D01*
X133518333Y-102481428D01*
X133470714Y-102386190D01*
X133470714Y-102195714D01*
X133518333Y-102100476D01*
X134089761Y-102529047D02*
X134137380Y-102433809D01*
X134137380Y-102195714D01*
X134089761Y-102100476D01*
X133994523Y-102052857D01*
X133899285Y-102052857D01*
X133804047Y-102100476D01*
X133756428Y-102195714D01*
X133756428Y-102433809D01*
X133708809Y-102529047D01*
X134137380Y-103005238D02*
X133470714Y-103005238D01*
X133565952Y-103005238D02*
X133518333Y-103052857D01*
X133470714Y-103148095D01*
X133470714Y-103290952D01*
X133518333Y-103386190D01*
X133613571Y-103433809D01*
X134137380Y-103433809D01*
X133613571Y-103433809D02*
X133518333Y-103481428D01*
X133470714Y-103576666D01*
X133470714Y-103719523D01*
X133518333Y-103814761D01*
X133613571Y-103862380D01*
X134137380Y-103862380D01*
X134137380Y-104338571D02*
X133470714Y-104338571D01*
X133565952Y-104338571D02*
X133518333Y-104386190D01*
X133470714Y-104481428D01*
X133470714Y-104624285D01*
X133518333Y-104719523D01*
X133613571Y-104767142D01*
X134137380Y-104767142D01*
X133613571Y-104767142D02*
X133518333Y-104814761D01*
X133470714Y-104909999D01*
X133470714Y-105052857D01*
X133518333Y-105148095D01*
X133613571Y-105195714D01*
X134137380Y-105195714D01*
X134137380Y-106100476D02*
X133613571Y-106100476D01*
X133518333Y-106052857D01*
X133470714Y-105957619D01*
X133470714Y-105767142D01*
X133518333Y-105671904D01*
X134089761Y-106100476D02*
X134137380Y-106005238D01*
X134137380Y-105767142D01*
X134089761Y-105671904D01*
X133994523Y-105624285D01*
X133899285Y-105624285D01*
X133804047Y-105671904D01*
X133756428Y-105767142D01*
X133756428Y-106005238D01*
X133708809Y-106100476D01*
X134137380Y-106576666D02*
X133137380Y-106576666D01*
X133518333Y-106576666D02*
X133470714Y-106671904D01*
X133470714Y-106862380D01*
X133518333Y-106957619D01*
X133565952Y-107005238D01*
X133661190Y-107052857D01*
X133946904Y-107052857D01*
X134042142Y-107005238D01*
X134089761Y-106957619D01*
X134137380Y-106862380D01*
X134137380Y-106671904D01*
X134089761Y-106576666D01*
X134137380Y-107624285D02*
X134089761Y-107529047D01*
X133994523Y-107481428D01*
X133137380Y-107481428D01*
X134089761Y-108386190D02*
X134137380Y-108290952D01*
X134137380Y-108100476D01*
X134089761Y-108005238D01*
X133994523Y-107957619D01*
X133613571Y-107957619D01*
X133518333Y-108005238D01*
X133470714Y-108100476D01*
X133470714Y-108290952D01*
X133518333Y-108386190D01*
X133613571Y-108433809D01*
X133708809Y-108433809D01*
X133804047Y-107957619D01*
X135747380Y-76219523D02*
X134747380Y-76219523D01*
X135223571Y-76219523D02*
X135223571Y-76790952D01*
X135747380Y-76790952D02*
X134747380Y-76790952D01*
X135747380Y-77695714D02*
X135223571Y-77695714D01*
X135128333Y-77648095D01*
X135080714Y-77552857D01*
X135080714Y-77362380D01*
X135128333Y-77267142D01*
X135699761Y-77695714D02*
X135747380Y-77600476D01*
X135747380Y-77362380D01*
X135699761Y-77267142D01*
X135604523Y-77219523D01*
X135509285Y-77219523D01*
X135414047Y-77267142D01*
X135366428Y-77362380D01*
X135366428Y-77600476D01*
X135318809Y-77695714D01*
X135747380Y-78171904D02*
X135080714Y-78171904D01*
X135271190Y-78171904D02*
X135175952Y-78219523D01*
X135128333Y-78267142D01*
X135080714Y-78362380D01*
X135080714Y-78457619D01*
X135747380Y-79219523D02*
X134747380Y-79219523D01*
X135699761Y-79219523D02*
X135747380Y-79124285D01*
X135747380Y-78933809D01*
X135699761Y-78838571D01*
X135652142Y-78790952D01*
X135556904Y-78743333D01*
X135271190Y-78743333D01*
X135175952Y-78790952D01*
X135128333Y-78838571D01*
X135080714Y-78933809D01*
X135080714Y-79124285D01*
X135128333Y-79219523D01*
X135080714Y-79600476D02*
X135747380Y-79790952D01*
X135271190Y-79981428D01*
X135747380Y-80171904D01*
X135080714Y-80362380D01*
X135747380Y-81171904D02*
X135223571Y-81171904D01*
X135128333Y-81124285D01*
X135080714Y-81029047D01*
X135080714Y-80838571D01*
X135128333Y-80743333D01*
X135699761Y-81171904D02*
X135747380Y-81076666D01*
X135747380Y-80838571D01*
X135699761Y-80743333D01*
X135604523Y-80695714D01*
X135509285Y-80695714D01*
X135414047Y-80743333D01*
X135366428Y-80838571D01*
X135366428Y-81076666D01*
X135318809Y-81171904D01*
X135747380Y-81648095D02*
X135080714Y-81648095D01*
X135271190Y-81648095D02*
X135175952Y-81695714D01*
X135128333Y-81743333D01*
X135080714Y-81838571D01*
X135080714Y-81933809D01*
X135699761Y-82648095D02*
X135747380Y-82552857D01*
X135747380Y-82362380D01*
X135699761Y-82267142D01*
X135604523Y-82219523D01*
X135223571Y-82219523D01*
X135128333Y-82267142D01*
X135080714Y-82362380D01*
X135080714Y-82552857D01*
X135128333Y-82648095D01*
X135223571Y-82695714D01*
X135318809Y-82695714D01*
X135414047Y-82219523D01*
X135747380Y-84314761D02*
X134747380Y-84314761D01*
X135699761Y-84314761D02*
X135747380Y-84219523D01*
X135747380Y-84029047D01*
X135699761Y-83933809D01*
X135652142Y-83886190D01*
X135556904Y-83838571D01*
X135271190Y-83838571D01*
X135175952Y-83886190D01*
X135128333Y-83933809D01*
X135080714Y-84029047D01*
X135080714Y-84219523D01*
X135128333Y-84314761D01*
X135699761Y-85171904D02*
X135747380Y-85076666D01*
X135747380Y-84886190D01*
X135699761Y-84790952D01*
X135604523Y-84743333D01*
X135223571Y-84743333D01*
X135128333Y-84790952D01*
X135080714Y-84886190D01*
X135080714Y-85076666D01*
X135128333Y-85171904D01*
X135223571Y-85219523D01*
X135318809Y-85219523D01*
X135414047Y-84743333D01*
X135699761Y-85600476D02*
X135747380Y-85695714D01*
X135747380Y-85886190D01*
X135699761Y-85981428D01*
X135604523Y-86029047D01*
X135556904Y-86029047D01*
X135461666Y-85981428D01*
X135414047Y-85886190D01*
X135414047Y-85743333D01*
X135366428Y-85648095D01*
X135271190Y-85600476D01*
X135223571Y-85600476D01*
X135128333Y-85648095D01*
X135080714Y-85743333D01*
X135080714Y-85886190D01*
X135128333Y-85981428D01*
X135747380Y-86457619D02*
X135080714Y-86457619D01*
X134747380Y-86457619D02*
X134795000Y-86410000D01*
X134842619Y-86457619D01*
X134795000Y-86505238D01*
X134747380Y-86457619D01*
X134842619Y-86457619D01*
X135080714Y-87362380D02*
X135890238Y-87362380D01*
X135985476Y-87314761D01*
X136033095Y-87267142D01*
X136080714Y-87171904D01*
X136080714Y-87029047D01*
X136033095Y-86933809D01*
X135699761Y-87362380D02*
X135747380Y-87267142D01*
X135747380Y-87076666D01*
X135699761Y-86981428D01*
X135652142Y-86933809D01*
X135556904Y-86886190D01*
X135271190Y-86886190D01*
X135175952Y-86933809D01*
X135128333Y-86981428D01*
X135080714Y-87076666D01*
X135080714Y-87267142D01*
X135128333Y-87362380D01*
X135080714Y-87838571D02*
X135747380Y-87838571D01*
X135175952Y-87838571D02*
X135128333Y-87886190D01*
X135080714Y-87981428D01*
X135080714Y-88124285D01*
X135128333Y-88219523D01*
X135223571Y-88267142D01*
X135747380Y-88267142D01*
X135699761Y-89124285D02*
X135747380Y-89029047D01*
X135747380Y-88838571D01*
X135699761Y-88743333D01*
X135604523Y-88695714D01*
X135223571Y-88695714D01*
X135128333Y-88743333D01*
X135080714Y-88838571D01*
X135080714Y-89029047D01*
X135128333Y-89124285D01*
X135223571Y-89171904D01*
X135318809Y-89171904D01*
X135414047Y-88695714D01*
X135747380Y-90029047D02*
X134747380Y-90029047D01*
X135699761Y-90029047D02*
X135747380Y-89933809D01*
X135747380Y-89743333D01*
X135699761Y-89648095D01*
X135652142Y-89600476D01*
X135556904Y-89552857D01*
X135271190Y-89552857D01*
X135175952Y-89600476D01*
X135128333Y-89648095D01*
X135080714Y-89743333D01*
X135080714Y-89933809D01*
X135128333Y-90029047D01*
X135747380Y-91267142D02*
X134747380Y-91267142D01*
X135128333Y-91267142D02*
X135080714Y-91362380D01*
X135080714Y-91552857D01*
X135128333Y-91648095D01*
X135175952Y-91695714D01*
X135271190Y-91743333D01*
X135556904Y-91743333D01*
X135652142Y-91695714D01*
X135699761Y-91648095D01*
X135747380Y-91552857D01*
X135747380Y-91362380D01*
X135699761Y-91267142D01*
X135080714Y-92076666D02*
X135747380Y-92314761D01*
X135080714Y-92552857D02*
X135747380Y-92314761D01*
X135985476Y-92219523D01*
X136033095Y-92171904D01*
X136080714Y-92076666D01*
X135461666Y-93648095D02*
X135461666Y-94124285D01*
X135747380Y-93552857D02*
X134747380Y-93886190D01*
X135747380Y-94219523D01*
X135747380Y-94552857D02*
X135080714Y-94552857D01*
X135175952Y-94552857D02*
X135128333Y-94600476D01*
X135080714Y-94695714D01*
X135080714Y-94838571D01*
X135128333Y-94933809D01*
X135223571Y-94981428D01*
X135747380Y-94981428D01*
X135223571Y-94981428D02*
X135128333Y-95029047D01*
X135080714Y-95124285D01*
X135080714Y-95267142D01*
X135128333Y-95362380D01*
X135223571Y-95409999D01*
X135747380Y-95409999D01*
X135747380Y-95886190D02*
X135080714Y-95886190D01*
X134747380Y-95886190D02*
X134795000Y-95838571D01*
X134842619Y-95886190D01*
X134795000Y-95933809D01*
X134747380Y-95886190D01*
X134842619Y-95886190D01*
X135080714Y-96790952D02*
X135890238Y-96790952D01*
X135985476Y-96743333D01*
X136033095Y-96695714D01*
X136080714Y-96600476D01*
X136080714Y-96457619D01*
X136033095Y-96362380D01*
X135699761Y-96790952D02*
X135747380Y-96695714D01*
X135747380Y-96505238D01*
X135699761Y-96409999D01*
X135652142Y-96362380D01*
X135556904Y-96314761D01*
X135271190Y-96314761D01*
X135175952Y-96362380D01*
X135128333Y-96409999D01*
X135080714Y-96505238D01*
X135080714Y-96695714D01*
X135128333Y-96790952D01*
X135223571Y-97267142D02*
X135223571Y-97600476D01*
X135747380Y-97743333D02*
X135747380Y-97267142D01*
X134747380Y-97267142D01*
X134747380Y-97743333D01*
X135747380Y-98600476D02*
X135223571Y-98600476D01*
X135128333Y-98552857D01*
X135080714Y-98457619D01*
X135080714Y-98267142D01*
X135128333Y-98171904D01*
X135699761Y-98600476D02*
X135747380Y-98505238D01*
X135747380Y-98267142D01*
X135699761Y-98171904D01*
X135604523Y-98124285D01*
X135509285Y-98124285D01*
X135414047Y-98171904D01*
X135366428Y-98267142D01*
X135366428Y-98505238D01*
X135318809Y-98600476D01*
X135699761Y-99029047D02*
X135747380Y-99124285D01*
X135747380Y-99314761D01*
X135699761Y-99409999D01*
X135604523Y-99457619D01*
X135556904Y-99457619D01*
X135461666Y-99409999D01*
X135414047Y-99314761D01*
X135414047Y-99171904D01*
X135366428Y-99076666D01*
X135271190Y-99029047D01*
X135223571Y-99029047D01*
X135128333Y-99076666D01*
X135080714Y-99171904D01*
X135080714Y-99314761D01*
X135128333Y-99409999D01*
X135080714Y-99743333D02*
X135080714Y-100124285D01*
X134747380Y-99886190D02*
X135604523Y-99886190D01*
X135699761Y-99933809D01*
X135747380Y-100029047D01*
X135747380Y-100124285D01*
X135747380Y-101219523D02*
X135080714Y-101219523D01*
X134747380Y-101219523D02*
X134795000Y-101171904D01*
X134842619Y-101219523D01*
X134795000Y-101267142D01*
X134747380Y-101219523D01*
X134842619Y-101219523D01*
X135080714Y-101695714D02*
X135747380Y-101695714D01*
X135175952Y-101695714D02*
X135128333Y-101743333D01*
X135080714Y-101838571D01*
X135080714Y-101981428D01*
X135128333Y-102076666D01*
X135223571Y-102124285D01*
X135747380Y-102124285D01*
X135699761Y-103314761D02*
X135747380Y-103457619D01*
X135747380Y-103695714D01*
X135699761Y-103790952D01*
X135652142Y-103838571D01*
X135556904Y-103886190D01*
X135461666Y-103886190D01*
X135366428Y-103838571D01*
X135318809Y-103790952D01*
X135271190Y-103695714D01*
X135223571Y-103505238D01*
X135175952Y-103409999D01*
X135128333Y-103362380D01*
X135033095Y-103314761D01*
X134937857Y-103314761D01*
X134842619Y-103362380D01*
X134795000Y-103409999D01*
X134747380Y-103505238D01*
X134747380Y-103743333D01*
X134795000Y-103886190D01*
X135699761Y-104695714D02*
X135747380Y-104600476D01*
X135747380Y-104409999D01*
X135699761Y-104314761D01*
X135604523Y-104267142D01*
X135223571Y-104267142D01*
X135128333Y-104314761D01*
X135080714Y-104409999D01*
X135080714Y-104600476D01*
X135128333Y-104695714D01*
X135223571Y-104743333D01*
X135318809Y-104743333D01*
X135414047Y-104267142D01*
X135747380Y-105171904D02*
X135080714Y-105171904D01*
X135271190Y-105171904D02*
X135175952Y-105219523D01*
X135128333Y-105267142D01*
X135080714Y-105362380D01*
X135080714Y-105457619D01*
X135747380Y-105790952D02*
X134747380Y-105790952D01*
X135128333Y-105790952D02*
X135080714Y-105886190D01*
X135080714Y-106076666D01*
X135128333Y-106171904D01*
X135175952Y-106219523D01*
X135271190Y-106267142D01*
X135556904Y-106267142D01*
X135652142Y-106219523D01*
X135699761Y-106171904D01*
X135747380Y-106076666D01*
X135747380Y-105886190D01*
X135699761Y-105790952D01*
X135747380Y-106695714D02*
X135080714Y-106695714D01*
X134747380Y-106695714D02*
X134795000Y-106648095D01*
X134842619Y-106695714D01*
X134795000Y-106743333D01*
X134747380Y-106695714D01*
X134842619Y-106695714D01*
X135747380Y-107600476D02*
X135223571Y-107600476D01*
X135128333Y-107552857D01*
X135080714Y-107457619D01*
X135080714Y-107267142D01*
X135128333Y-107171904D01*
X135699761Y-107600476D02*
X135747380Y-107505238D01*
X135747380Y-107267142D01*
X135699761Y-107171904D01*
X135604523Y-107124285D01*
X135509285Y-107124285D01*
X135414047Y-107171904D01*
X135366428Y-107267142D01*
X135366428Y-107505238D01*
X135318809Y-107600476D01*
D14*
%TO.C,P1*%
X139446000Y-71247000D03*
X139446000Y-73787000D03*
X139446000Y-76327000D03*
X139446000Y-78867000D03*
X139446000Y-81407000D03*
X139446000Y-83947000D03*
X139446000Y-86487000D03*
X139446000Y-91567000D03*
X139446000Y-94107000D03*
X139446000Y-96647000D03*
X139446000Y-99187000D03*
X139446000Y-101727000D03*
X139446000Y-104267000D03*
X139446000Y-106807000D03*
X139446000Y-89027000D03*
%TD*%
%TO.C,P2*%
X154686000Y-71247000D03*
X154686000Y-73787000D03*
X154686000Y-76327000D03*
X154686000Y-78867000D03*
X154686000Y-81407000D03*
X154686000Y-83947000D03*
X154686000Y-86487000D03*
X154686000Y-89027000D03*
X154686000Y-91567000D03*
X154686000Y-94107000D03*
X154686000Y-96647000D03*
X154686000Y-99187000D03*
X154686000Y-101727000D03*
X154686000Y-104267000D03*
X154686000Y-106807000D03*
%TD*%
D15*
%TO.C,P3*%
X139446000Y-68707000D03*
%TD*%
%TO.C,P4*%
X139446000Y-109347000D03*
%TD*%
%TO.C,P5*%
X154686000Y-109347000D03*
%TD*%
%TO.C,P6*%
X154686000Y-68707000D03*
%TD*%
D14*
%TO.C,*%
X173959507Y-97770000D03*
%TD*%
%TO.C,*%
X173959507Y-85070000D03*
%TD*%
D16*
%TO.C,REF\u002A\u002A*%
X162458400Y-71780400D03*
D17*
X162458400Y-69240400D03*
%TD*%
D18*
%TO.C,*%
X165384200Y-93759200D03*
%TD*%
D14*
%TO.C,*%
X173959507Y-95230000D03*
%TD*%
%TO.C,*%
X158750000Y-80010000D03*
%TD*%
D18*
%TO.C,*%
X165384200Y-96529200D03*
%TD*%
D14*
%TO.C,*%
X173959507Y-100310000D03*
%TD*%
%TO.C,*%
X173959507Y-90150000D03*
%TD*%
%TO.C,*%
X173959507Y-87610000D03*
%TD*%
D18*
%TO.C,*%
X165384200Y-102069200D03*
%TD*%
D16*
%TO.C,CONFIG*%
X171181000Y-69367000D03*
D17*
X168641000Y-69367000D03*
X166101000Y-69367000D03*
%TD*%
D18*
%TO.C,*%
X168224200Y-89604200D03*
%TD*%
D14*
%TO.C,*%
X158750000Y-87630000D03*
%TD*%
D19*
%TO.C,Female DSUB9 connector*%
X134741000Y-116632000D03*
X159741000Y-116632000D03*
D18*
X148626000Y-119172000D03*
X145856000Y-119172000D03*
X150011000Y-116332000D03*
X144471000Y-116332000D03*
X151396000Y-119172000D03*
X141701000Y-116332000D03*
X143086000Y-119172000D03*
D20*
X152781000Y-116332000D03*
D18*
X147241000Y-116332000D03*
%TD*%
D21*
%TO.C,DIODE*%
X146431000Y-113157000D03*
D22*
X156591000Y-113157000D03*
%TD*%
D14*
%TO.C,*%
X158750000Y-95250000D03*
%TD*%
D18*
%TO.C,*%
X168224200Y-95144200D03*
%TD*%
%TO.C,*%
X168224200Y-84064200D03*
%TD*%
D23*
%TO.C,J1*%
X143568000Y-60706000D03*
X150368000Y-60706000D03*
D24*
X146968000Y-56906000D03*
X140218000Y-57706000D03*
X153718000Y-57706000D03*
D23*
X143568000Y-63206000D03*
X150368000Y-63206000D03*
X145668000Y-60706000D03*
X148268000Y-60706000D03*
%TD*%
D20*
%TO.C,*%
X168224200Y-103454200D03*
%TD*%
D16*
%TO.C,REF\u002A\u002A*%
X173024800Y-111252000D03*
D17*
X170484800Y-111252000D03*
X167944800Y-111252000D03*
X165404800Y-111252000D03*
%TD*%
D14*
%TO.C,*%
X158750000Y-77470000D03*
%TD*%
D18*
%TO.C,*%
X165384200Y-90989200D03*
%TD*%
D14*
%TO.C,*%
X173959507Y-82530000D03*
%TD*%
D18*
%TO.C,*%
X168224200Y-100684200D03*
%TD*%
D14*
%TO.C,*%
X173959507Y-92690000D03*
%TD*%
%TO.C,*%
X158750000Y-97790000D03*
%TD*%
D18*
%TO.C,*%
X168224200Y-97914200D03*
%TD*%
D25*
%TO.C,MouseDPI*%
X164846000Y-62126000D03*
X164846000Y-55626000D03*
X160346000Y-62126000D03*
X160346000Y-55626000D03*
%TD*%
D16*
%TO.C,REF\u002A\u002A*%
X150469600Y-71221600D03*
%TD*%
D18*
%TO.C,*%
X165384200Y-99299200D03*
%TD*%
%TO.C,*%
X165384200Y-85449200D03*
%TD*%
D14*
%TO.C,*%
X158750000Y-72390000D03*
%TD*%
%TO.C,*%
X158750000Y-92710000D03*
%TD*%
D18*
%TO.C,*%
X168224200Y-86834200D03*
%TD*%
%TO.C,*%
X165384200Y-88219200D03*
%TD*%
%TO.C,*%
X168224200Y-92374200D03*
%TD*%
M02*
