%TF.GenerationSoftware,KiCad,Pcbnew,(6.0.2)*%
%TF.CreationDate,2024-03-24T20:04:16+01:00*%
%TF.ProjectId,amigaps2 revision1.5,616d6967-6170-4733-9220-726576697369,rev?*%
%TF.SameCoordinates,Original*%
%TF.FileFunction,Soldermask,Top*%
%TF.FilePolarity,Negative*%
%FSLAX46Y46*%
G04 Gerber Fmt 4.6, Leading zero omitted, Abs format (unit mm)*
G04 Created by KiCad (PCBNEW (6.0.2)) date 2024-03-24 20:04:16*
%MOMM*%
%LPD*%
G01*
G04 APERTURE LIST*
%ADD10O,2.032000X1.727200*%
%ADD11C,2.540000*%
%ADD12R,1.700000X1.700000*%
%ADD13O,1.700000X1.700000*%
%ADD14C,1.600000*%
%ADD15C,4.000000*%
%ADD16R,1.600000X1.600000*%
%ADD17R,1.800000X1.800000*%
%ADD18O,1.800000X1.800000*%
%ADD19C,1.524000*%
%ADD20C,3.300000*%
%ADD21C,2.000000*%
G04 APERTURE END LIST*
D10*
%TO.C,P1*%
X139446000Y-71247000D03*
X139446000Y-73787000D03*
X139446000Y-76327000D03*
X139446000Y-78867000D03*
X139446000Y-81407000D03*
X139446000Y-83947000D03*
X139446000Y-86487000D03*
X139446000Y-91567000D03*
X139446000Y-94107000D03*
X139446000Y-96647000D03*
X139446000Y-99187000D03*
X139446000Y-101727000D03*
X139446000Y-104267000D03*
X139446000Y-106807000D03*
X139446000Y-89027000D03*
%TD*%
%TO.C,P2*%
X154686000Y-71247000D03*
X154686000Y-73787000D03*
X154686000Y-76327000D03*
X154686000Y-78867000D03*
X154686000Y-81407000D03*
X154686000Y-83947000D03*
X154686000Y-86487000D03*
X154686000Y-89027000D03*
X154686000Y-91567000D03*
X154686000Y-94107000D03*
X154686000Y-96647000D03*
X154686000Y-99187000D03*
X154686000Y-101727000D03*
X154686000Y-104267000D03*
X154686000Y-106807000D03*
%TD*%
D11*
%TO.C,P3*%
X139446000Y-68707000D03*
%TD*%
%TO.C,P4*%
X139446000Y-109347000D03*
%TD*%
%TO.C,P5*%
X154686000Y-109347000D03*
%TD*%
%TO.C,P6*%
X154686000Y-68707000D03*
%TD*%
D10*
%TO.C,*%
X173959507Y-97770000D03*
%TD*%
%TO.C,*%
X173959507Y-85070000D03*
%TD*%
D12*
%TO.C,REF\u002A\u002A*%
X162458400Y-71780400D03*
D13*
X162458400Y-69240400D03*
%TD*%
D14*
%TO.C,*%
X165384200Y-93759200D03*
%TD*%
D10*
%TO.C,*%
X173959507Y-95230000D03*
%TD*%
%TO.C,*%
X158750000Y-80010000D03*
%TD*%
D14*
%TO.C,*%
X165384200Y-96529200D03*
%TD*%
D10*
%TO.C,*%
X173959507Y-100310000D03*
%TD*%
%TO.C,*%
X173959507Y-90150000D03*
%TD*%
%TO.C,*%
X173959507Y-87610000D03*
%TD*%
D14*
%TO.C,*%
X165384200Y-102069200D03*
%TD*%
D12*
%TO.C,CONFIG*%
X171181000Y-69367000D03*
D13*
X168641000Y-69367000D03*
X166101000Y-69367000D03*
%TD*%
D14*
%TO.C,*%
X168224200Y-89604200D03*
%TD*%
D10*
%TO.C,*%
X158750000Y-87630000D03*
%TD*%
D15*
%TO.C,Female DSUB9 connector*%
X134741000Y-116632000D03*
X159741000Y-116632000D03*
D14*
X148626000Y-119172000D03*
X145856000Y-119172000D03*
X150011000Y-116332000D03*
X144471000Y-116332000D03*
X151396000Y-119172000D03*
X141701000Y-116332000D03*
X143086000Y-119172000D03*
D16*
X152781000Y-116332000D03*
D14*
X147241000Y-116332000D03*
%TD*%
D17*
%TO.C,DIODE*%
X146470000Y-113010000D03*
D18*
X156630000Y-113010000D03*
%TD*%
D10*
%TO.C,*%
X158750000Y-95250000D03*
%TD*%
D14*
%TO.C,*%
X168224200Y-95144200D03*
%TD*%
%TO.C,*%
X168224200Y-84064200D03*
%TD*%
D19*
%TO.C,J1*%
X143568000Y-60706000D03*
X150368000Y-60706000D03*
D20*
X146968000Y-56906000D03*
X140218000Y-57706000D03*
X153718000Y-57706000D03*
D19*
X143568000Y-63206000D03*
X150368000Y-63206000D03*
X145668000Y-60706000D03*
X148268000Y-60706000D03*
%TD*%
D16*
%TO.C,*%
X168224200Y-103454200D03*
%TD*%
D12*
%TO.C,REF\u002A\u002A*%
X173024800Y-111252000D03*
D13*
X170484800Y-111252000D03*
X167944800Y-111252000D03*
X165404800Y-111252000D03*
%TD*%
D10*
%TO.C,*%
X158750000Y-77470000D03*
%TD*%
D14*
%TO.C,*%
X165384200Y-90989200D03*
%TD*%
D10*
%TO.C,*%
X173959507Y-82530000D03*
%TD*%
D14*
%TO.C,*%
X168224200Y-100684200D03*
%TD*%
D10*
%TO.C,*%
X173959507Y-92690000D03*
%TD*%
%TO.C,*%
X158750000Y-97790000D03*
%TD*%
D14*
%TO.C,*%
X168224200Y-97914200D03*
%TD*%
D21*
%TO.C,MouseDPI*%
X164846000Y-62126000D03*
X164846000Y-55626000D03*
X160346000Y-62126000D03*
X160346000Y-55626000D03*
%TD*%
D12*
%TO.C,REF\u002A\u002A*%
X150469600Y-71221600D03*
%TD*%
D14*
%TO.C,*%
X165384200Y-99299200D03*
%TD*%
%TO.C,*%
X165384200Y-85449200D03*
%TD*%
D10*
%TO.C,*%
X158750000Y-72390000D03*
%TD*%
%TO.C,*%
X158750000Y-92710000D03*
%TD*%
D14*
%TO.C,*%
X168224200Y-86834200D03*
%TD*%
%TO.C,*%
X165384200Y-88219200D03*
%TD*%
%TO.C,*%
X168224200Y-92374200D03*
%TD*%
M02*
