%TF.GenerationSoftware,KiCad,Pcbnew,(6.0.2)*%
%TF.CreationDate,2024-04-06T20:18:03+01:00*%
%TF.ProjectId,amigaps2 revision1.6,616d6967-6170-4733-9220-726576697369,rev?*%
%TF.SameCoordinates,Original*%
%TF.FileFunction,Legend,Bot*%
%TF.FilePolarity,Positive*%
%FSLAX46Y46*%
G04 Gerber Fmt 4.6, Leading zero omitted, Abs format (unit mm)*
G04 Created by KiCad (PCBNEW (6.0.2)) date 2024-04-06 20:18:03*
%MOMM*%
%LPD*%
G01*
G04 APERTURE LIST*
%ADD10C,0.150000*%
%ADD11C,0.100000*%
%ADD12C,0.050000*%
%ADD13C,0.250000*%
%ADD14O,2.032000X1.727200*%
%ADD15C,2.540000*%
%ADD16R,1.700000X1.700000*%
%ADD17O,1.700000X1.700000*%
%ADD18C,1.600000*%
%ADD19C,4.000000*%
%ADD20R,1.600000X1.600000*%
%ADD21R,1.800000X1.800000*%
%ADD22O,1.800000X1.800000*%
%ADD23C,1.524000*%
%ADD24C,3.300000*%
%ADD25C,2.000000*%
G04 APERTURE END LIST*
D10*
X142811500Y-63030100D02*
X143344900Y-63182500D01*
X168135300Y-71285100D02*
X168008300Y-70904100D01*
X166408100Y-65062100D02*
X166204900Y-65341500D01*
X148196300Y-67500500D02*
X148729700Y-67449700D01*
X149542500Y-54343300D02*
X150736300Y-55130700D01*
X165176200Y-68541900D02*
X164617400Y-67144900D01*
X169862500Y-64858900D02*
X169633900Y-65493900D01*
X164706300Y-63436500D02*
X164579300Y-64096900D01*
X164579300Y-64096900D02*
X164884100Y-64655700D01*
X170827700Y-60744100D02*
X170421300Y-62953900D01*
X148348700Y-72021700D02*
X147891500Y-72478900D01*
X147637500Y-56248300D02*
X148805900Y-56680100D01*
X146951700Y-72072500D02*
X146850100Y-71513700D01*
X163487100Y-61302900D02*
X162648900Y-63969900D01*
X173037500Y-57975500D02*
X172224700Y-59347100D01*
X144208500Y-53378100D02*
X145478500Y-53860700D01*
X167017700Y-67144900D02*
X166839900Y-66814700D01*
X149898100Y-70116700D02*
X149593300Y-70980300D01*
X141185900Y-58915300D02*
X140576300Y-59829700D01*
X137325100Y-63411100D02*
X137426700Y-64884300D01*
X149390100Y-57365900D02*
X149186900Y-58331100D01*
X164172900Y-60845700D02*
X164122100Y-60794900D01*
X145834100Y-67500500D02*
X146138900Y-66611500D01*
X148958300Y-72986900D02*
X148780500Y-73215500D01*
X169202100Y-56045100D02*
X170294300Y-55765700D01*
X150482300Y-69303900D02*
X149618700Y-69227700D01*
X167398700Y-63461900D02*
X166382700Y-64985900D01*
X143751300Y-67068700D02*
X144284700Y-66941700D01*
X168871900Y-71335900D02*
X169176700Y-70675500D01*
X172224700Y-69710300D02*
X171538900Y-70040500D01*
X167906700Y-67652900D02*
X167576500Y-67144900D01*
X169278300Y-66128900D02*
X168821100Y-67094100D01*
X170649900Y-71818500D02*
X170167300Y-72148700D01*
X172173900Y-73418700D02*
X172605700Y-73088500D01*
X145554700Y-67373500D02*
X145046700Y-67652900D01*
X164960300Y-58458100D02*
X163868100Y-59016900D01*
X169176700Y-74256900D02*
X169024300Y-73698100D01*
X170421300Y-73647300D02*
X169964100Y-74104500D01*
X164680900Y-70091300D02*
X165290500Y-69811900D01*
X144614900Y-66636900D02*
X144995900Y-66255900D01*
X162648900Y-63969900D02*
X162267900Y-65392300D01*
X171970700Y-71742300D02*
X171665900Y-72605900D01*
X141008100Y-60667900D02*
X140957300Y-61175900D01*
X148221700Y-54140100D02*
X149542500Y-54343300D01*
X144767300Y-65189100D02*
X144132300Y-64833500D01*
X168389300Y-73469500D02*
X168084500Y-73647300D01*
X145046700Y-66027300D02*
X145072100Y-65874900D01*
X143878300Y-65239900D02*
X143522700Y-66052700D01*
X142049500Y-59169300D02*
X141566900Y-58915300D01*
X171919900Y-72326500D02*
X170573700Y-71742300D01*
X141566900Y-58915300D02*
X141185900Y-58915300D01*
X165290500Y-62725300D02*
X165265100Y-61734700D01*
X166077900Y-65316100D02*
X166077900Y-65366900D01*
X144284700Y-66941700D02*
X144614900Y-66636900D01*
X143954500Y-53378100D02*
X143040100Y-53987700D01*
X143090900Y-65595500D02*
X143370300Y-66687700D01*
X170802300Y-69075300D02*
X171462700Y-69176900D01*
X166077900Y-65366900D02*
X166128700Y-65366900D01*
X142989300Y-60972700D02*
X142481300Y-62090300D01*
X141363700Y-61810900D02*
X141922500Y-61988700D01*
X173875700Y-56070500D02*
X173037500Y-57721500D01*
X163055300Y-63080900D02*
X162775900Y-63004700D01*
X140373100Y-59626500D02*
X139915900Y-59220100D01*
X147294600Y-66357500D02*
X146024600Y-65951100D01*
X170573700Y-70853300D02*
X171462700Y-71081900D01*
X142481300Y-62090300D02*
X142151100Y-63157100D01*
X139966700Y-61404500D02*
X140296900Y-60667900D01*
X168960800Y-67094100D02*
X169697400Y-66941700D01*
X144005300Y-63741300D02*
X144056100Y-63741300D01*
X147967700Y-70523100D02*
X148577300Y-70192900D01*
X146088100Y-67094100D02*
X145884900Y-67881500D01*
X164706300Y-58229500D02*
X165646100Y-57975500D01*
X150787100Y-69862700D02*
X150482300Y-69303900D01*
X169367200Y-67983100D02*
X168097200Y-67576700D01*
X168084500Y-73647300D02*
X168084500Y-73444100D01*
X171462700Y-58991500D02*
X171259500Y-59956700D01*
X170573700Y-72326500D02*
X171157900Y-72428100D01*
X147281900Y-67246500D02*
X146545300Y-66509900D01*
X150101300Y-71793100D02*
X150533100Y-71462900D01*
X145783300Y-68237100D02*
X145834100Y-67500500D01*
X163995100Y-63614300D02*
X164807900Y-63004700D01*
X146392900Y-59448700D02*
X145910300Y-60058300D01*
X169456100Y-74358500D02*
X169405300Y-74307700D01*
X143217900Y-61099700D02*
X143192500Y-60109100D01*
X142608300Y-68465700D02*
X143217900Y-68186300D01*
X142074900Y-64427100D02*
X142455900Y-65570100D01*
X163271200Y-69684900D02*
X163982400Y-69862700D01*
X164045900Y-50761900D02*
X163461700Y-52793900D01*
X145046700Y-67652900D02*
X144284700Y-67830700D01*
X167347900Y-67170300D02*
X167525700Y-66611500D01*
X149199600Y-66154300D02*
X148971000Y-66281300D01*
X142151100Y-63157100D02*
X142074900Y-64427100D01*
X170878500Y-58305700D02*
X171462700Y-58991500D01*
X170751500Y-73012300D02*
X170040300Y-72148700D01*
X161353500Y-63969900D02*
X162039300Y-63030100D01*
X149618700Y-69227700D02*
X148247100Y-69380100D01*
X148501100Y-70700900D02*
X149085300Y-70802500D01*
X146748500Y-65468500D02*
X146088100Y-66332100D01*
X145453100Y-64985900D02*
X145910300Y-64325500D01*
X145376900Y-61023500D02*
X145326100Y-61836300D01*
X140703300Y-61379100D02*
X140373100Y-61023500D01*
X145783300Y-68237100D02*
X146037300Y-67043300D01*
X137706100Y-62293500D02*
X137325100Y-63411100D01*
X165417500Y-64808100D02*
X165976300Y-64630300D01*
X167144700Y-67500500D02*
X167017700Y-67144900D01*
X167982900Y-61683900D02*
X167449500Y-62649100D01*
X147789900Y-63233300D02*
X147561300Y-63868300D01*
X167855900Y-69862700D02*
X168109900Y-68668900D01*
X165061900Y-62598300D02*
X164553900Y-63715900D01*
X149593300Y-70980300D02*
X150329900Y-71869300D01*
X149466300Y-68414900D02*
X148831300Y-68414900D01*
X174078900Y-49517300D02*
X174332900Y-50838100D01*
X170167300Y-72148700D02*
X169760900Y-71234300D01*
X171005500Y-73596500D02*
X170751500Y-73012300D01*
X148120100Y-68694300D02*
X147739100Y-67957700D01*
X172554900Y-70929500D02*
X171691300Y-70853300D01*
X169760900Y-71234300D02*
X170573700Y-70853300D01*
X146799300Y-69710300D02*
X147104100Y-69049900D01*
X166204900Y-65341500D02*
X165722300Y-65925700D01*
X167119300Y-67652900D02*
X167144700Y-67500500D01*
X143370300Y-56553100D02*
X142887700Y-56832500D01*
X149644100Y-71793100D02*
X149237700Y-72377300D01*
X172224700Y-59347100D02*
X171056300Y-60032900D01*
X166814500Y-63919100D02*
X166941500Y-63004700D01*
X168922700Y-71615300D02*
X168719500Y-72351900D01*
X149390100Y-69456300D02*
X149847300Y-70700900D01*
X166357300Y-68567300D02*
X166687500Y-68262500D01*
X172758100Y-72478900D02*
X172859700Y-71488300D01*
X171310300Y-74002900D02*
X171030900Y-74612500D01*
X139509500Y-61023500D02*
X140347700Y-60032900D01*
X171272200Y-67779900D02*
X171043600Y-67906900D01*
X146011900Y-72021700D02*
X146011900Y-71818500D01*
X144360900Y-60617100D02*
X143446500Y-60566300D01*
X152260300Y-49212500D02*
X152311100Y-51371500D01*
X146951700Y-71894700D02*
X147688300Y-71869300D01*
X150964900Y-56349900D02*
X150152100Y-57721500D01*
X147205700Y-64503300D02*
X146748500Y-65468500D01*
X170192700Y-70319900D02*
X169811700Y-69583300D01*
X147561300Y-63868300D02*
X147205700Y-64503300D01*
X144335500Y-63436500D02*
X144132300Y-63715900D01*
X172808900Y-56756300D02*
X173037500Y-57975500D01*
X170116500Y-64198500D02*
X169862500Y-64858900D01*
X148780500Y-73215500D02*
X148704300Y-73215500D01*
X165290500Y-69811900D02*
X165976300Y-69557900D01*
X165442900Y-58178700D02*
X164960300Y-58458100D01*
X149110700Y-57746900D02*
X148755100Y-59118500D01*
X146189700Y-69888100D02*
X146316700Y-70269100D01*
X150533100Y-72097900D02*
X150075900Y-73063100D01*
X147688300Y-69608700D02*
X146850100Y-69989700D01*
X147027900Y-67500500D02*
X146900900Y-66840100D01*
X172059600Y-56781700D02*
X171323000Y-58712100D01*
X169100500Y-69126100D02*
X168973500Y-68465700D01*
X166027100Y-55003700D02*
X165112700Y-55613300D01*
X169379900Y-71462900D02*
X170116500Y-71081900D01*
X169633900Y-65493900D02*
X169278300Y-66128900D01*
X146202400Y-65849500D02*
X146888200Y-65468500D01*
X171716700Y-73418700D02*
X171310300Y-74002900D01*
X146062700Y-71310500D02*
X146519900Y-70523100D01*
X168846500Y-73291700D02*
X168389300Y-73469500D01*
X164147500Y-66052700D02*
X164528500Y-67195700D01*
X147154900Y-68364100D02*
X147027900Y-67500500D01*
X168592500Y-72148700D02*
X169379900Y-71462900D01*
X169659300Y-69583300D02*
X170268900Y-69126100D01*
X141795500Y-57391300D02*
X140855700Y-58229500D01*
X168719500Y-72351900D02*
X168744900Y-73266300D01*
X169760900Y-73494900D02*
X170802300Y-74358500D01*
X148043900Y-69456300D02*
X148653500Y-69430900D01*
X170776900Y-74841100D02*
X170649900Y-74434700D01*
X146062700Y-69659500D02*
X145935700Y-69278500D01*
X167068500Y-67881500D02*
X167347900Y-67170300D01*
X163461700Y-52793900D02*
X163436300Y-55156100D01*
X146850100Y-71513700D02*
X146773900Y-71666100D01*
X147891500Y-72478900D02*
X147383500Y-72732900D01*
X164223700Y-64782700D02*
X164147500Y-66052700D01*
X159778700Y-63919100D02*
X159397700Y-65036700D01*
X170116500Y-71081900D02*
X170726100Y-71056500D01*
X145326100Y-61836300D02*
X144310100Y-63360300D01*
X142303500Y-57289700D02*
X142633700Y-56603900D01*
X143370300Y-66687700D02*
X143751300Y-67068700D01*
X169964100Y-74104500D02*
X169456100Y-74358500D01*
X169735500Y-69507100D02*
X169887900Y-69634100D01*
X146545300Y-56527700D02*
X147637500Y-56248300D01*
X163436300Y-55156100D02*
X164020500Y-56756300D01*
X163296600Y-69684900D02*
X162915600Y-69380100D01*
X165646100Y-57975500D02*
X166865300Y-57721500D01*
X148971000Y-66281300D02*
X148158200Y-66459100D01*
X168262300Y-71513700D02*
X168389300Y-71894700D01*
X163639500Y-60540900D02*
X163258500Y-60540900D01*
X168287700Y-71691500D02*
X168236900Y-71462900D01*
X150075900Y-73063100D02*
X149644100Y-71793100D01*
X147586700Y-67957700D02*
X148196300Y-67500500D01*
X145935700Y-69278500D02*
X145808700Y-68821300D01*
X168617900Y-68135500D02*
X167906700Y-67652900D01*
X142201900Y-55029100D02*
X142151100Y-56730900D01*
X167449500Y-62649100D02*
X167398700Y-63461900D01*
X145478500Y-53860700D02*
X147129500Y-54419500D01*
X148043900Y-62572900D02*
X147789900Y-63233300D01*
X166865300Y-57721500D02*
X168617900Y-58153300D01*
X163436300Y-63436500D02*
X163995100Y-63614300D01*
X140296900Y-60820300D02*
X140474700Y-59956700D01*
X164274500Y-56654700D02*
X164223700Y-58356500D01*
X149085300Y-70802500D02*
X150101300Y-71793100D01*
X138722100Y-60642500D02*
X138899900Y-61252100D01*
X140982700Y-61455300D02*
X140703300Y-61379100D01*
X168097200Y-67576700D02*
X168275000Y-67475100D01*
X139331700Y-67703700D02*
X140246100Y-67856100D01*
X138341100Y-60693300D02*
X137706100Y-62293500D01*
X148501100Y-70116700D02*
X148501100Y-70700900D01*
X174332900Y-50838100D02*
X174383700Y-52997100D01*
X166128700Y-65366900D02*
X166408100Y-65062100D01*
X164604700Y-59118500D02*
X164376100Y-58915300D01*
X146164300Y-69837300D02*
X146062700Y-69659500D01*
X148653500Y-69430900D02*
X149390100Y-69405500D01*
X150685500Y-70853300D02*
X150787100Y-69862700D01*
X143103600Y-66916300D02*
X142544800Y-65519300D01*
X149390100Y-69405500D02*
X149898100Y-70116700D01*
X144945100Y-65519300D02*
X144767300Y-65189100D01*
X147688300Y-69608700D02*
X148501100Y-69227700D01*
X168008300Y-70904100D02*
X167881300Y-70446900D01*
X166636700Y-54140100D02*
X166027100Y-55003700D01*
X142887700Y-56832500D02*
X141795500Y-57391300D01*
X160413700Y-62318900D02*
X159778700Y-63919100D01*
X168744900Y-73266300D02*
X169024300Y-73520300D01*
X166281100Y-55003700D02*
X167551100Y-55486300D01*
X145986500Y-69202300D02*
X146189700Y-69888100D01*
X144183100Y-63157100D02*
X144741900Y-62293500D01*
X170319700Y-71005700D02*
X170192700Y-70319900D01*
X170040300Y-72148700D02*
X170649900Y-71818500D01*
X140195300Y-63766700D02*
X140601700Y-66230500D01*
X148729700Y-72732900D02*
X148932900Y-71970900D01*
X159880300Y-68059300D02*
X161048700Y-68389500D01*
X147688300Y-71869300D02*
X148729700Y-72732900D01*
X165112700Y-55613300D02*
X164274500Y-56654700D01*
X138976100Y-59905900D02*
X138722100Y-60642500D01*
X164960300Y-48196500D02*
X164045900Y-50761900D01*
X165519100Y-62191900D02*
X165061900Y-62598300D01*
X167119300Y-69278500D02*
X166357300Y-69456300D01*
X168465500Y-61074300D02*
X167982900Y-61683900D01*
X148932900Y-71970900D02*
X148678900Y-71386700D01*
X166204900Y-66459100D02*
X165976300Y-66763900D01*
X148755100Y-59118500D02*
X148348700Y-61328300D01*
X145072100Y-65874900D02*
X144945100Y-65519300D01*
X161048700Y-61531500D02*
X160794700Y-62268100D01*
X170726100Y-71056500D02*
X171462700Y-71031100D01*
X170903900Y-70040500D02*
X170040300Y-69710300D01*
X148247100Y-61480700D02*
X148043900Y-62572900D01*
X167627300Y-68999100D02*
X167119300Y-69278500D01*
X169710100Y-57873900D02*
X170878500Y-58305700D01*
X159397700Y-65036700D02*
X159499300Y-66509900D01*
X169405300Y-74307700D02*
X169176700Y-74256900D01*
X169176700Y-70675500D02*
X169227500Y-69989700D01*
X147332700Y-72682100D02*
X147104100Y-72631300D01*
X141389100Y-51168300D02*
X141363700Y-53530500D01*
X146138900Y-66611500D02*
X145783300Y-68237100D01*
X168389300Y-71894700D02*
X168871900Y-71335900D01*
X148577300Y-72809100D02*
X148653500Y-72301100D01*
X168922700Y-73139300D02*
X168846500Y-73291700D01*
X171462700Y-69176900D02*
X172224700Y-69710300D01*
X166941500Y-63004700D02*
X166433500Y-62242700D01*
X174383700Y-52997100D02*
X173875700Y-56070500D01*
X144005300Y-63690500D02*
X144005300Y-63741300D01*
X164553900Y-63715900D02*
X164223700Y-64782700D01*
X163029900Y-62801500D02*
X163436300Y-63436500D01*
X138976100Y-66763900D02*
X139331700Y-67703700D01*
X168617900Y-58153300D02*
X169710100Y-57873900D01*
X142532100Y-57492900D02*
X142303500Y-57289700D01*
X167957500Y-69507100D02*
X167881300Y-69888100D01*
X143040100Y-53987700D02*
X142201900Y-55029100D01*
X147104100Y-72631300D02*
X146951700Y-72072500D01*
X162928300Y-59855100D02*
X162344100Y-60490100D01*
X145884900Y-67881500D02*
X145808700Y-68262500D01*
X141414500Y-59677300D02*
X140576300Y-62344300D01*
X165836600Y-55410100D02*
X164515800Y-57924700D01*
X170726100Y-73926700D02*
X170421300Y-73647300D01*
X162560000Y-114300000D02*
X157000000Y-110000000D01*
X163868100Y-59016900D02*
X162928300Y-59855100D01*
X166839900Y-66814700D02*
X166204900Y-66459100D01*
X172605700Y-73723500D02*
X172148500Y-74688700D01*
X166738300Y-63030100D02*
X166484300Y-63639700D01*
X162445700Y-61252100D02*
X161988500Y-60845700D01*
X165646100Y-47155100D02*
X164960300Y-48196500D01*
X148158200Y-66459100D02*
X147294600Y-66357500D01*
X144995900Y-66255900D02*
X145275300Y-65544700D01*
X170802300Y-74358500D02*
X171005500Y-73596500D01*
X150736300Y-55130700D02*
X150964900Y-56349900D01*
X144132300Y-63715900D02*
X143649700Y-64300100D01*
X171462700Y-71081900D02*
X171919900Y-72326500D01*
X142024100Y-68237100D02*
X142608300Y-68465700D01*
X148501100Y-69227700D02*
X149390100Y-69456300D01*
X146773900Y-71666100D02*
X146316700Y-71843900D01*
X144868900Y-61379100D02*
X144360900Y-60617100D01*
X169227500Y-69989700D02*
X169100500Y-69126100D01*
X172605700Y-73088500D02*
X172605700Y-73723500D01*
X166433500Y-62242700D02*
X165519100Y-62191900D01*
X150152100Y-57721500D02*
X148983700Y-58407300D01*
X144665700Y-61404500D02*
X144411700Y-62014100D01*
X157000000Y-110000000D02*
X157000000Y-55000000D01*
X169024300Y-73698100D02*
X168922700Y-73139300D01*
X145275300Y-65544700D02*
X145453100Y-64985900D01*
X146037300Y-67043300D02*
X146088100Y-67094100D01*
X148831300Y-68414900D02*
X147967700Y-68084700D01*
X171030900Y-74612500D02*
X170853100Y-74841100D01*
X161404300Y-69329300D02*
X162318700Y-69481700D01*
X168973500Y-68465700D02*
X169405300Y-68795900D01*
X138938000Y-63207900D02*
X139217400Y-62395100D01*
X148805900Y-56680100D02*
X149390100Y-57365900D01*
X162369500Y-62293500D02*
X162445700Y-61252100D01*
X143192500Y-60109100D02*
X143014700Y-59448700D01*
X163080700Y-62293500D02*
X163029900Y-62801500D01*
X146215100Y-70065900D02*
X146164300Y-69837300D01*
X170319700Y-63106300D02*
X170116500Y-64198500D01*
X160972500Y-62877700D02*
X161582100Y-62649100D01*
X163258500Y-60540900D02*
X162648900Y-61455300D01*
X168059100Y-70827900D02*
X168262300Y-71513700D01*
X147383500Y-72732900D02*
X147332700Y-72682100D01*
X146265900Y-70269100D02*
X146215100Y-70065900D01*
X161010600Y-64833500D02*
X161290000Y-64020700D01*
X145910300Y-60058300D02*
X145376900Y-61023500D01*
X146900900Y-66840100D02*
X147332700Y-67170300D01*
X146024600Y-65951100D02*
X146202400Y-65849500D01*
X146850100Y-69989700D02*
X146646900Y-70726300D01*
X142633700Y-61810900D02*
X142506700Y-62471300D01*
X145808700Y-68262500D02*
X145986500Y-69202300D01*
X159499300Y-66509900D02*
X159880300Y-68059300D01*
X142633700Y-56603900D02*
X143573500Y-56349900D01*
X146011900Y-71818500D02*
X146062700Y-71310500D01*
X142151100Y-59169300D02*
X141414500Y-59677300D01*
X149987000Y-55156100D02*
X149250400Y-57086500D01*
X169887900Y-69634100D02*
X169659300Y-69583300D01*
X143903700Y-63004700D02*
X144284700Y-62191900D01*
X169760900Y-71234300D02*
X168922700Y-71615300D01*
X170649900Y-74434700D02*
X170726100Y-73926700D01*
X148577300Y-70192900D02*
X148094700Y-70523100D01*
X146646900Y-70726300D02*
X146672300Y-71640700D01*
X167881300Y-69888100D02*
X168059100Y-70827900D01*
X144741900Y-62293500D02*
X144868900Y-61379100D01*
X143217900Y-68186300D02*
X143903700Y-67932300D01*
X142887700Y-46570900D02*
X141973300Y-49136300D01*
X168236900Y-71462900D02*
X168135300Y-71285100D01*
X171691300Y-70853300D02*
X170319700Y-71005700D01*
X171538900Y-70040500D02*
X170903900Y-70040500D01*
X137807700Y-66433700D02*
X138976100Y-66763900D01*
X143624300Y-53479700D02*
X144208500Y-53378100D01*
X168275000Y-67475100D02*
X168960800Y-67094100D01*
X148247100Y-69380100D02*
X148120100Y-68694300D01*
X148653500Y-72301100D02*
X148348700Y-72021700D01*
X167855900Y-69862700D02*
X167906700Y-69126100D01*
X142506700Y-62471300D02*
X142811500Y-63030100D01*
X140296900Y-60667900D02*
X140373100Y-59626500D01*
X145834100Y-66027300D02*
X145503900Y-65519300D01*
X161328100Y-60845700D02*
X160413700Y-62318900D01*
X165442900Y-68313300D02*
X165823900Y-68694300D01*
X141922500Y-61988700D02*
X142735300Y-61379100D01*
X164884100Y-64655700D02*
X165417500Y-64808100D01*
X143014700Y-59448700D02*
X142151100Y-59169300D01*
X146316700Y-71843900D02*
X146011900Y-72021700D01*
X165087300Y-61074300D02*
X164223700Y-60794900D01*
X148539200Y-65595500D02*
X149199600Y-66154300D01*
X171157900Y-72428100D02*
X172173900Y-73418700D01*
X161988500Y-60845700D02*
X161328100Y-60845700D01*
X150152100Y-68084700D02*
X149466300Y-68414900D01*
X166255700Y-64782700D02*
X166814500Y-63919100D01*
X149390100Y-67551300D02*
X150152100Y-68084700D01*
X139915900Y-59220100D02*
X139255500Y-59220100D01*
X152006300Y-47891700D02*
X152260300Y-49212500D01*
X169354500Y-68872100D02*
X168617900Y-68135500D01*
X162267900Y-65392300D02*
X162674300Y-67856100D01*
X170294300Y-55765700D02*
X171615100Y-55968900D01*
X140246100Y-67856100D02*
X140830300Y-67779900D01*
X143573500Y-56349900D02*
X144792700Y-56095900D01*
X165823900Y-68694300D02*
X166357300Y-68567300D01*
X162775900Y-63004700D02*
X162445700Y-62649100D01*
X143344900Y-63182500D02*
X143903700Y-63004700D01*
X147104100Y-69049900D02*
X147154900Y-68364100D01*
X152311100Y-51371500D02*
X151803100Y-54444900D01*
X162318700Y-69481700D02*
X162902900Y-69405500D01*
X167551100Y-55486300D02*
X169202100Y-56045100D01*
X172859700Y-71488300D02*
X172554900Y-70929500D01*
X141198600Y-68059300D02*
X141909800Y-68237100D01*
X162039300Y-63030100D02*
X162369500Y-62293500D01*
X146519900Y-70523100D02*
X147307300Y-69837300D01*
X143573500Y-45529500D02*
X142887700Y-46570900D01*
X172148500Y-74688700D02*
X171716700Y-73418700D01*
X143319500Y-64909700D02*
X143090900Y-65595500D01*
X149237700Y-72377300D02*
X148958300Y-72986900D01*
X146672300Y-71640700D02*
X146951700Y-71894700D01*
X147307300Y-69837300D02*
X148043900Y-69456300D01*
X162445700Y-62649100D02*
X162369500Y-62445900D01*
X165696900Y-55105300D02*
X166281100Y-55003700D01*
X168160700Y-68719700D02*
X167957500Y-69507100D01*
X140855700Y-58229500D02*
X140271500Y-58864500D01*
X169405300Y-68795900D02*
X169735500Y-69507100D01*
X138899900Y-61252100D02*
X139509500Y-61023500D01*
X147332700Y-67170300D02*
X147662900Y-67881500D01*
X171183300Y-59372500D02*
X170827700Y-60744100D01*
X168338500Y-71894700D02*
X168287700Y-71691500D01*
X170230800Y-68084700D02*
X169367200Y-67983100D01*
X146888200Y-65468500D02*
X147624800Y-65316100D01*
X169024300Y-73520300D02*
X169760900Y-73494900D01*
X169697400Y-66941700D02*
X170611800Y-67221100D01*
X171665900Y-72605900D02*
X172402500Y-73494900D01*
X144564100Y-52514500D02*
X143954500Y-53378100D01*
X144132300Y-64833500D02*
X143903700Y-65138300D01*
X139255500Y-59220100D02*
X138341100Y-60693300D01*
X172402500Y-73494900D02*
X172758100Y-72478900D01*
X171043600Y-67906900D02*
X170230800Y-68084700D01*
X147624800Y-65316100D02*
X148539200Y-65595500D01*
X170268900Y-69126100D02*
X170802300Y-69075300D01*
X147662900Y-67881500D02*
X147815300Y-68008500D01*
X148678900Y-71386700D02*
X147967700Y-70523100D01*
X140576300Y-62344300D02*
X140195300Y-63766700D01*
X165722300Y-65925700D02*
X165392100Y-66535300D01*
X171462700Y-71031100D02*
X171970700Y-71742300D01*
X137426700Y-64884300D02*
X137807700Y-66433700D01*
X168084500Y-73444100D02*
X168135300Y-72936100D01*
X164122100Y-60794900D02*
X163639500Y-60540900D01*
X143649700Y-64300100D02*
X143319500Y-64909700D01*
X146545300Y-66509900D02*
X145834100Y-66027300D01*
X140957300Y-61175900D02*
X141363700Y-61810900D01*
X161048700Y-68389500D02*
X161404300Y-69329300D01*
X146088100Y-66332100D02*
X145554700Y-67373500D01*
X144056100Y-63741300D02*
X144335500Y-63436500D01*
X142100300Y-59220100D02*
X142049500Y-59169300D01*
X165392100Y-66535300D02*
X165163500Y-67221100D01*
X149847300Y-70700900D02*
X148501100Y-70116700D01*
X161582100Y-62649100D02*
X162420300Y-61658500D01*
X141973300Y-49136300D02*
X141389100Y-51168300D01*
X141363700Y-53530500D02*
X141947900Y-55130700D01*
X139280900Y-62344300D02*
X139966700Y-61404500D01*
X164376100Y-58915300D02*
X164706300Y-58229500D01*
X148704300Y-73215500D02*
X148577300Y-72809100D01*
X164223700Y-60794900D02*
X163487100Y-61302900D01*
X170611800Y-67221100D02*
X171272200Y-67779900D01*
X165976300Y-64630300D02*
X166357300Y-63817500D01*
X138988800Y-66586100D02*
X138938000Y-63207900D01*
X151803100Y-54444900D02*
X150964900Y-56095900D01*
X167906700Y-69126100D02*
X168211500Y-68237100D01*
X168160700Y-67957700D02*
X167627300Y-68999100D01*
X170853100Y-74841100D02*
X170776900Y-74841100D01*
X168109900Y-68668900D02*
X168160700Y-68719700D01*
X144792700Y-56095900D02*
X146545300Y-56527700D01*
X166687500Y-68262500D02*
X167068500Y-67881500D01*
X147739100Y-67957700D02*
X147281900Y-67246500D01*
X167525700Y-66611500D02*
X167982900Y-65951100D01*
X168821100Y-67094100D02*
X168160700Y-67957700D01*
X162369500Y-62445900D02*
X162547300Y-61582300D01*
X171615100Y-55968900D02*
X172808900Y-56756300D01*
X150533100Y-71462900D02*
X150533100Y-72097900D01*
X150329900Y-71869300D02*
X150685500Y-70853300D01*
X165265100Y-61734700D02*
X165087300Y-61074300D01*
X170573700Y-71742300D02*
X170573700Y-72326500D01*
X168135300Y-72936100D02*
X168592500Y-72148700D01*
X148094700Y-70523100D02*
X147688300Y-69608700D01*
X164096700Y-69862700D02*
X164680900Y-70091300D01*
X165950900Y-66865500D02*
X165595300Y-67678300D01*
X160794700Y-62268100D02*
X160972500Y-62877700D01*
X148729700Y-67449700D02*
X149390100Y-67551300D01*
X147815300Y-68008500D02*
X147586700Y-67957700D01*
X147129500Y-54419500D02*
X148221700Y-54140100D01*
X169811700Y-69583300D02*
X169354500Y-68872100D01*
X161061400Y-68211700D02*
X161010600Y-64833500D01*
X165163500Y-67221100D02*
X165442900Y-68313300D01*
X141224000Y-68059300D02*
X140843000Y-67754500D01*
X140373100Y-61023500D02*
X140296900Y-60820300D01*
X143764000Y-53784500D02*
X142443200Y-56299100D01*
X143446500Y-60566300D02*
X142989300Y-60972700D01*
X146316700Y-70269100D02*
X146799300Y-69710300D01*
X168211500Y-68237100D02*
X167855900Y-69862700D01*
X136110719Y-67817238D02*
X136158338Y-67912476D01*
X136205957Y-67960095D01*
X136301195Y-68007714D01*
X136586909Y-68007714D01*
X136682147Y-67960095D01*
X136729766Y-67912476D01*
X136777385Y-67817238D01*
X136777385Y-67674380D01*
X136729766Y-67579142D01*
X136682147Y-67531523D01*
X136586909Y-67483904D01*
X136301195Y-67483904D01*
X136205957Y-67531523D01*
X136158338Y-67579142D01*
X136110719Y-67674380D01*
X136110719Y-67817238D01*
X136777385Y-67055333D02*
X135777385Y-67055333D01*
X136729766Y-67055333D02*
X136777385Y-66960095D01*
X136777385Y-66769619D01*
X136729766Y-66674380D01*
X136682147Y-66626761D01*
X136586909Y-66579142D01*
X136301195Y-66579142D01*
X136205957Y-66626761D01*
X136158338Y-66674380D01*
X136110719Y-66769619D01*
X136110719Y-66960095D01*
X136158338Y-67055333D01*
X136158338Y-65769619D02*
X136110719Y-65864857D01*
X136110719Y-66055333D01*
X136158338Y-66150571D01*
X136253576Y-66198190D01*
X136634528Y-66198190D01*
X136729766Y-66150571D01*
X136777385Y-66055333D01*
X136777385Y-65864857D01*
X136729766Y-65769619D01*
X136634528Y-65722000D01*
X136539290Y-65722000D01*
X136444052Y-66198190D01*
X136777385Y-65293428D02*
X136110719Y-65293428D01*
X136682147Y-65293428D02*
X136729766Y-65245809D01*
X136777385Y-65150571D01*
X136777385Y-65007714D01*
X136729766Y-64912476D01*
X136634528Y-64864857D01*
X136110719Y-64864857D01*
X136777385Y-63960095D02*
X135967861Y-63960095D01*
X135872623Y-64007714D01*
X135825004Y-64055333D01*
X135777385Y-64150571D01*
X135777385Y-64293428D01*
X135825004Y-64388666D01*
X136158338Y-63960095D02*
X136110719Y-64055333D01*
X136110719Y-64245809D01*
X136158338Y-64341047D01*
X136205957Y-64388666D01*
X136301195Y-64436285D01*
X136586909Y-64436285D01*
X136682147Y-64388666D01*
X136729766Y-64341047D01*
X136777385Y-64245809D01*
X136777385Y-64055333D01*
X136729766Y-63960095D01*
X136110719Y-63483904D02*
X136777385Y-63483904D01*
X137110719Y-63483904D02*
X137063100Y-63531523D01*
X137015480Y-63483904D01*
X137063100Y-63436285D01*
X137110719Y-63483904D01*
X137015480Y-63483904D01*
X136777385Y-63102952D02*
X136110719Y-62864857D01*
X136777385Y-62626761D01*
X136158338Y-61864857D02*
X136110719Y-61960095D01*
X136110719Y-62150571D01*
X136158338Y-62245809D01*
X136253576Y-62293428D01*
X136634528Y-62293428D01*
X136729766Y-62245809D01*
X136777385Y-62150571D01*
X136777385Y-61960095D01*
X136729766Y-61864857D01*
X136634528Y-61817238D01*
X136539290Y-61817238D01*
X136444052Y-62293428D01*
X136110719Y-61388666D02*
X137110719Y-61388666D01*
X136729766Y-61388666D02*
X136777385Y-61293428D01*
X136777385Y-61102952D01*
X136729766Y-61007714D01*
X136682147Y-60960095D01*
X136586909Y-60912476D01*
X136301195Y-60912476D01*
X136205957Y-60960095D01*
X136158338Y-61007714D01*
X136110719Y-61102952D01*
X136110719Y-61293428D01*
X136158338Y-61388666D01*
X136110719Y-60055333D02*
X136634528Y-60055333D01*
X136729766Y-60102952D01*
X136777385Y-60198190D01*
X136777385Y-60388666D01*
X136729766Y-60483904D01*
X136158338Y-60055333D02*
X136110719Y-60150571D01*
X136110719Y-60388666D01*
X136158338Y-60483904D01*
X136253576Y-60531523D01*
X136348814Y-60531523D01*
X136444052Y-60483904D01*
X136491671Y-60388666D01*
X136491671Y-60150571D01*
X136539290Y-60055333D01*
X136158338Y-59150571D02*
X136110719Y-59245809D01*
X136110719Y-59436285D01*
X136158338Y-59531523D01*
X136205957Y-59579142D01*
X136301195Y-59626761D01*
X136586909Y-59626761D01*
X136682147Y-59579142D01*
X136729766Y-59531523D01*
X136777385Y-59436285D01*
X136777385Y-59245809D01*
X136729766Y-59150571D01*
X136110719Y-58722000D02*
X137110719Y-58722000D01*
X136491671Y-58626761D02*
X136110719Y-58341047D01*
X136777385Y-58341047D02*
X136396433Y-58722000D01*
X136205957Y-57912476D02*
X136158338Y-57864857D01*
X136110719Y-57912476D01*
X136158338Y-57960095D01*
X136205957Y-57912476D01*
X136110719Y-57912476D01*
X136110719Y-57293428D02*
X136158338Y-57388666D01*
X136205957Y-57436285D01*
X136301195Y-57483904D01*
X136586909Y-57483904D01*
X136682147Y-57436285D01*
X136729766Y-57388666D01*
X136777385Y-57293428D01*
X136777385Y-57150571D01*
X136729766Y-57055333D01*
X136682147Y-57007714D01*
X136586909Y-56960095D01*
X136301195Y-56960095D01*
X136205957Y-57007714D01*
X136158338Y-57055333D01*
X136110719Y-57150571D01*
X136110719Y-57293428D01*
X136110719Y-56531523D02*
X136777385Y-56531523D01*
X136586909Y-56531523D02*
X136682147Y-56483904D01*
X136729766Y-56436285D01*
X136777385Y-56341047D01*
X136777385Y-56245809D01*
X136777385Y-55483904D02*
X135967861Y-55483904D01*
X135872623Y-55531523D01*
X135825004Y-55579142D01*
X135777385Y-55674380D01*
X135777385Y-55817238D01*
X135825004Y-55912476D01*
X136158338Y-55483904D02*
X136110719Y-55579142D01*
X136110719Y-55769619D01*
X136158338Y-55864857D01*
X136205957Y-55912476D01*
X136301195Y-55960095D01*
X136586909Y-55960095D01*
X136682147Y-55912476D01*
X136729766Y-55864857D01*
X136777385Y-55769619D01*
X136777385Y-55579142D01*
X136729766Y-55483904D01*
D11*
X170140342Y-109680285D02*
X170111771Y-109594571D01*
X170111771Y-109451714D01*
X170140342Y-109394571D01*
X170168914Y-109366000D01*
X170226057Y-109337428D01*
X170283200Y-109337428D01*
X170340342Y-109366000D01*
X170368914Y-109394571D01*
X170397485Y-109451714D01*
X170426057Y-109566000D01*
X170454628Y-109623142D01*
X170483200Y-109651714D01*
X170540342Y-109680285D01*
X170597485Y-109680285D01*
X170654628Y-109651714D01*
X170683200Y-109623142D01*
X170711771Y-109566000D01*
X170711771Y-109423142D01*
X170683200Y-109337428D01*
X170168914Y-108737428D02*
X170140342Y-108766000D01*
X170111771Y-108851714D01*
X170111771Y-108908857D01*
X170140342Y-108994571D01*
X170197485Y-109051714D01*
X170254628Y-109080285D01*
X170368914Y-109108857D01*
X170454628Y-109108857D01*
X170568914Y-109080285D01*
X170626057Y-109051714D01*
X170683200Y-108994571D01*
X170711771Y-108908857D01*
X170711771Y-108851714D01*
X170683200Y-108766000D01*
X170654628Y-108737428D01*
X170111771Y-108194571D02*
X170111771Y-108480285D01*
X170711771Y-108480285D01*
X165755600Y-109423142D02*
X165784171Y-109480285D01*
X165784171Y-109566000D01*
X165755600Y-109651714D01*
X165698457Y-109708857D01*
X165641314Y-109737428D01*
X165527028Y-109766000D01*
X165441314Y-109766000D01*
X165327028Y-109737428D01*
X165269885Y-109708857D01*
X165212742Y-109651714D01*
X165184171Y-109566000D01*
X165184171Y-109508857D01*
X165212742Y-109423142D01*
X165241314Y-109394571D01*
X165441314Y-109394571D01*
X165441314Y-109508857D01*
X165184171Y-109137428D02*
X165784171Y-109137428D01*
X165184171Y-108794571D01*
X165784171Y-108794571D01*
X165184171Y-108508857D02*
X165784171Y-108508857D01*
X165784171Y-108366000D01*
X165755600Y-108280285D01*
X165698457Y-108223142D01*
X165641314Y-108194571D01*
X165527028Y-108166000D01*
X165441314Y-108166000D01*
X165327028Y-108194571D01*
X165269885Y-108223142D01*
X165212742Y-108280285D01*
X165184171Y-108366000D01*
X165184171Y-108508857D01*
D10*
X143022142Y-68106428D02*
X143069761Y-68059285D01*
X143117380Y-67917857D01*
X143117380Y-67823571D01*
X143069761Y-67682142D01*
X142974523Y-67587857D01*
X142879285Y-67540714D01*
X142688809Y-67493571D01*
X142545952Y-67493571D01*
X142355476Y-67540714D01*
X142260238Y-67587857D01*
X142165000Y-67682142D01*
X142117380Y-67823571D01*
X142117380Y-67917857D01*
X142165000Y-68059285D01*
X142212619Y-68106428D01*
X142831666Y-68483571D02*
X142831666Y-68955000D01*
X143117380Y-68389285D02*
X142117380Y-68719285D01*
X143117380Y-69049285D01*
X142117380Y-69379285D02*
X142926904Y-69379285D01*
X143022142Y-69426428D01*
X143069761Y-69473571D01*
X143117380Y-69567857D01*
X143117380Y-69756428D01*
X143069761Y-69850714D01*
X143022142Y-69897857D01*
X142926904Y-69945000D01*
X142117380Y-69945000D01*
X142117380Y-70275000D02*
X142117380Y-70840714D01*
X143117380Y-70557857D02*
X142117380Y-70557857D01*
X143117380Y-71170714D02*
X142117380Y-71170714D01*
X142117380Y-71830714D02*
X142117380Y-72019285D01*
X142165000Y-72113571D01*
X142260238Y-72207857D01*
X142450714Y-72255000D01*
X142784047Y-72255000D01*
X142974523Y-72207857D01*
X143069761Y-72113571D01*
X143117380Y-72019285D01*
X143117380Y-71830714D01*
X143069761Y-71736428D01*
X142974523Y-71642142D01*
X142784047Y-71595000D01*
X142450714Y-71595000D01*
X142260238Y-71642142D01*
X142165000Y-71736428D01*
X142117380Y-71830714D01*
X143117380Y-72679285D02*
X142117380Y-72679285D01*
X143117380Y-73245000D01*
X142117380Y-73245000D01*
X143069761Y-73763571D02*
X143117380Y-73763571D01*
X143212619Y-73716428D01*
X143260238Y-73669285D01*
X143117380Y-74942142D02*
X142117380Y-74942142D01*
X142117380Y-75319285D01*
X142165000Y-75413571D01*
X142212619Y-75460714D01*
X142307857Y-75507857D01*
X142450714Y-75507857D01*
X142545952Y-75460714D01*
X142593571Y-75413571D01*
X142641190Y-75319285D01*
X142641190Y-74942142D01*
X143117380Y-76403571D02*
X143117380Y-75932142D01*
X142117380Y-75932142D01*
X142593571Y-76733571D02*
X142593571Y-77063571D01*
X143117380Y-77205000D02*
X143117380Y-76733571D01*
X142117380Y-76733571D01*
X142117380Y-77205000D01*
X142831666Y-77582142D02*
X142831666Y-78053571D01*
X143117380Y-77487857D02*
X142117380Y-77817857D01*
X143117380Y-78147857D01*
X143069761Y-78430714D02*
X143117380Y-78572142D01*
X143117380Y-78807857D01*
X143069761Y-78902142D01*
X143022142Y-78949285D01*
X142926904Y-78996428D01*
X142831666Y-78996428D01*
X142736428Y-78949285D01*
X142688809Y-78902142D01*
X142641190Y-78807857D01*
X142593571Y-78619285D01*
X142545952Y-78525000D01*
X142498333Y-78477857D01*
X142403095Y-78430714D01*
X142307857Y-78430714D01*
X142212619Y-78477857D01*
X142165000Y-78525000D01*
X142117380Y-78619285D01*
X142117380Y-78855000D01*
X142165000Y-78996428D01*
X142593571Y-79420714D02*
X142593571Y-79750714D01*
X143117380Y-79892142D02*
X143117380Y-79420714D01*
X142117380Y-79420714D01*
X142117380Y-79892142D01*
X143117380Y-81070714D02*
X142117380Y-81070714D01*
X142117380Y-81306428D01*
X142165000Y-81447857D01*
X142260238Y-81542142D01*
X142355476Y-81589285D01*
X142545952Y-81636428D01*
X142688809Y-81636428D01*
X142879285Y-81589285D01*
X142974523Y-81542142D01*
X143069761Y-81447857D01*
X143117380Y-81306428D01*
X143117380Y-81070714D01*
X142117380Y-82249285D02*
X142117380Y-82437857D01*
X142165000Y-82532142D01*
X142260238Y-82626428D01*
X142450714Y-82673571D01*
X142784047Y-82673571D01*
X142974523Y-82626428D01*
X143069761Y-82532142D01*
X143117380Y-82437857D01*
X143117380Y-82249285D01*
X143069761Y-82155000D01*
X142974523Y-82060714D01*
X142784047Y-82013571D01*
X142450714Y-82013571D01*
X142260238Y-82060714D01*
X142165000Y-82155000D01*
X142117380Y-82249285D01*
X143117380Y-83852142D02*
X142117380Y-83852142D01*
X143117380Y-84417857D01*
X142117380Y-84417857D01*
X142117380Y-85077857D02*
X142117380Y-85266428D01*
X142165000Y-85360714D01*
X142260238Y-85455000D01*
X142450714Y-85502142D01*
X142784047Y-85502142D01*
X142974523Y-85455000D01*
X143069761Y-85360714D01*
X143117380Y-85266428D01*
X143117380Y-85077857D01*
X143069761Y-84983571D01*
X142974523Y-84889285D01*
X142784047Y-84842142D01*
X142450714Y-84842142D01*
X142260238Y-84889285D01*
X142165000Y-84983571D01*
X142117380Y-85077857D01*
X142117380Y-85785000D02*
X142117380Y-86350714D01*
X143117380Y-86067857D02*
X142117380Y-86067857D01*
X143022142Y-88000714D02*
X143069761Y-87953571D01*
X143117380Y-87812142D01*
X143117380Y-87717857D01*
X143069761Y-87576428D01*
X142974523Y-87482142D01*
X142879285Y-87435000D01*
X142688809Y-87387857D01*
X142545952Y-87387857D01*
X142355476Y-87435000D01*
X142260238Y-87482142D01*
X142165000Y-87576428D01*
X142117380Y-87717857D01*
X142117380Y-87812142D01*
X142165000Y-87953571D01*
X142212619Y-88000714D01*
X142117380Y-88613571D02*
X142117380Y-88802142D01*
X142165000Y-88896428D01*
X142260238Y-88990714D01*
X142450714Y-89037857D01*
X142784047Y-89037857D01*
X142974523Y-88990714D01*
X143069761Y-88896428D01*
X143117380Y-88802142D01*
X143117380Y-88613571D01*
X143069761Y-88519285D01*
X142974523Y-88425000D01*
X142784047Y-88377857D01*
X142450714Y-88377857D01*
X142260238Y-88425000D01*
X142165000Y-88519285D01*
X142117380Y-88613571D01*
X143117380Y-89462142D02*
X142117380Y-89462142D01*
X143117380Y-90027857D01*
X142117380Y-90027857D01*
X143117380Y-90499285D02*
X142117380Y-90499285D01*
X143117380Y-91065000D01*
X142117380Y-91065000D01*
X142593571Y-91536428D02*
X142593571Y-91866428D01*
X143117380Y-92007857D02*
X143117380Y-91536428D01*
X142117380Y-91536428D01*
X142117380Y-92007857D01*
X143022142Y-92997857D02*
X143069761Y-92950714D01*
X143117380Y-92809285D01*
X143117380Y-92715000D01*
X143069761Y-92573571D01*
X142974523Y-92479285D01*
X142879285Y-92432142D01*
X142688809Y-92385000D01*
X142545952Y-92385000D01*
X142355476Y-92432142D01*
X142260238Y-92479285D01*
X142165000Y-92573571D01*
X142117380Y-92715000D01*
X142117380Y-92809285D01*
X142165000Y-92950714D01*
X142212619Y-92997857D01*
X142117380Y-93280714D02*
X142117380Y-93846428D01*
X143117380Y-93563571D02*
X142117380Y-93563571D01*
X142117380Y-94930714D02*
X142926904Y-94930714D01*
X143022142Y-94977857D01*
X143069761Y-95025000D01*
X143117380Y-95119285D01*
X143117380Y-95307857D01*
X143069761Y-95402142D01*
X143022142Y-95449285D01*
X142926904Y-95496428D01*
X142117380Y-95496428D01*
X143069761Y-95920714D02*
X143117380Y-96062142D01*
X143117380Y-96297857D01*
X143069761Y-96392142D01*
X143022142Y-96439285D01*
X142926904Y-96486428D01*
X142831666Y-96486428D01*
X142736428Y-96439285D01*
X142688809Y-96392142D01*
X142641190Y-96297857D01*
X142593571Y-96109285D01*
X142545952Y-96015000D01*
X142498333Y-95967857D01*
X142403095Y-95920714D01*
X142307857Y-95920714D01*
X142212619Y-95967857D01*
X142165000Y-96015000D01*
X142117380Y-96109285D01*
X142117380Y-96345000D01*
X142165000Y-96486428D01*
X142593571Y-97240714D02*
X142641190Y-97382142D01*
X142688809Y-97429285D01*
X142784047Y-97476428D01*
X142926904Y-97476428D01*
X143022142Y-97429285D01*
X143069761Y-97382142D01*
X143117380Y-97287857D01*
X143117380Y-96910714D01*
X142117380Y-96910714D01*
X142117380Y-97240714D01*
X142165000Y-97335000D01*
X142212619Y-97382142D01*
X142307857Y-97429285D01*
X142403095Y-97429285D01*
X142498333Y-97382142D01*
X142545952Y-97335000D01*
X142593571Y-97240714D01*
X142593571Y-96910714D01*
X142117380Y-98560714D02*
X143117380Y-98796428D01*
X142403095Y-98985000D01*
X143117380Y-99173571D01*
X142117380Y-99409285D01*
X143117380Y-99786428D02*
X142117380Y-99786428D01*
X142593571Y-99786428D02*
X142593571Y-100352142D01*
X143117380Y-100352142D02*
X142117380Y-100352142D01*
X143117380Y-100823571D02*
X142117380Y-100823571D01*
X143117380Y-101766428D02*
X143117380Y-101295000D01*
X142117380Y-101295000D01*
X142593571Y-102096428D02*
X142593571Y-102426428D01*
X143117380Y-102567857D02*
X143117380Y-102096428D01*
X142117380Y-102096428D01*
X142117380Y-102567857D01*
X143117380Y-103746428D02*
X142117380Y-103746428D01*
X143117380Y-104217857D02*
X142117380Y-104217857D01*
X143117380Y-104783571D01*
X142117380Y-104783571D01*
X142831666Y-105962142D02*
X142831666Y-106433571D01*
X143117380Y-105867857D02*
X142117380Y-106197857D01*
X143117380Y-106527857D01*
X143117380Y-106857857D02*
X142117380Y-106857857D01*
X142831666Y-107187857D01*
X142117380Y-107517857D01*
X143117380Y-107517857D01*
X143117380Y-107989285D02*
X142117380Y-107989285D01*
X142165000Y-108979285D02*
X142117380Y-108885000D01*
X142117380Y-108743571D01*
X142165000Y-108602142D01*
X142260238Y-108507857D01*
X142355476Y-108460714D01*
X142545952Y-108413571D01*
X142688809Y-108413571D01*
X142879285Y-108460714D01*
X142974523Y-108507857D01*
X143069761Y-108602142D01*
X143117380Y-108743571D01*
X143117380Y-108837857D01*
X143069761Y-108979285D01*
X143022142Y-109026428D01*
X142688809Y-109026428D01*
X142688809Y-108837857D01*
X142831666Y-109403571D02*
X142831666Y-109875000D01*
X143117380Y-109309285D02*
X142117380Y-109639285D01*
X143117380Y-109969285D01*
X143022142Y-110299285D02*
X143069761Y-110346428D01*
X143117380Y-110299285D01*
X143069761Y-110252142D01*
X143022142Y-110299285D01*
X143117380Y-110299285D01*
X142736428Y-110299285D02*
X142165000Y-110252142D01*
X142117380Y-110299285D01*
X142165000Y-110346428D01*
X142736428Y-110299285D01*
X142117380Y-110299285D01*
X143727380Y-65419285D02*
X143727380Y-65985000D01*
X144727380Y-65702142D02*
X143727380Y-65702142D01*
X144727380Y-66315000D02*
X143727380Y-66315000D01*
X144727380Y-66739285D02*
X144203571Y-66739285D01*
X144108333Y-66692142D01*
X144060714Y-66597857D01*
X144060714Y-66456428D01*
X144108333Y-66362142D01*
X144155952Y-66315000D01*
X144679761Y-67587857D02*
X144727380Y-67493571D01*
X144727380Y-67305000D01*
X144679761Y-67210714D01*
X144584523Y-67163571D01*
X144203571Y-67163571D01*
X144108333Y-67210714D01*
X144060714Y-67305000D01*
X144060714Y-67493571D01*
X144108333Y-67587857D01*
X144203571Y-67635000D01*
X144298809Y-67635000D01*
X144394047Y-67163571D01*
X144727380Y-68813571D02*
X143727380Y-68813571D01*
X144108333Y-68813571D02*
X144060714Y-68907857D01*
X144060714Y-69096428D01*
X144108333Y-69190714D01*
X144155952Y-69237857D01*
X144251190Y-69285000D01*
X144536904Y-69285000D01*
X144632142Y-69237857D01*
X144679761Y-69190714D01*
X144727380Y-69096428D01*
X144727380Y-68907857D01*
X144679761Y-68813571D01*
X144679761Y-70086428D02*
X144727380Y-69992142D01*
X144727380Y-69803571D01*
X144679761Y-69709285D01*
X144584523Y-69662142D01*
X144203571Y-69662142D01*
X144108333Y-69709285D01*
X144060714Y-69803571D01*
X144060714Y-69992142D01*
X144108333Y-70086428D01*
X144203571Y-70133571D01*
X144298809Y-70133571D01*
X144394047Y-69662142D01*
X144727380Y-70557857D02*
X143727380Y-70557857D01*
X144727380Y-70982142D02*
X144203571Y-70982142D01*
X144108333Y-70935000D01*
X144060714Y-70840714D01*
X144060714Y-70699285D01*
X144108333Y-70605000D01*
X144155952Y-70557857D01*
X144727380Y-71877857D02*
X144203571Y-71877857D01*
X144108333Y-71830714D01*
X144060714Y-71736428D01*
X144060714Y-71547857D01*
X144108333Y-71453571D01*
X144679761Y-71877857D02*
X144727380Y-71783571D01*
X144727380Y-71547857D01*
X144679761Y-71453571D01*
X144584523Y-71406428D01*
X144489285Y-71406428D01*
X144394047Y-71453571D01*
X144346428Y-71547857D01*
X144346428Y-71783571D01*
X144298809Y-71877857D01*
X144060714Y-72255000D02*
X144727380Y-72490714D01*
X144060714Y-72726428D01*
X144727380Y-73103571D02*
X144060714Y-73103571D01*
X143727380Y-73103571D02*
X143775000Y-73056428D01*
X143822619Y-73103571D01*
X143775000Y-73150714D01*
X143727380Y-73103571D01*
X143822619Y-73103571D01*
X144727380Y-73716428D02*
X144679761Y-73622142D01*
X144632142Y-73575000D01*
X144536904Y-73527857D01*
X144251190Y-73527857D01*
X144155952Y-73575000D01*
X144108333Y-73622142D01*
X144060714Y-73716428D01*
X144060714Y-73857857D01*
X144108333Y-73952142D01*
X144155952Y-73999285D01*
X144251190Y-74046428D01*
X144536904Y-74046428D01*
X144632142Y-73999285D01*
X144679761Y-73952142D01*
X144727380Y-73857857D01*
X144727380Y-73716428D01*
X144060714Y-74895000D02*
X144727380Y-74895000D01*
X144060714Y-74470714D02*
X144584523Y-74470714D01*
X144679761Y-74517857D01*
X144727380Y-74612142D01*
X144727380Y-74753571D01*
X144679761Y-74847857D01*
X144632142Y-74895000D01*
X144727380Y-75366428D02*
X144060714Y-75366428D01*
X144251190Y-75366428D02*
X144155952Y-75413571D01*
X144108333Y-75460714D01*
X144060714Y-75555000D01*
X144060714Y-75649285D01*
X144727380Y-76733571D02*
X144060714Y-76733571D01*
X143727380Y-76733571D02*
X143775000Y-76686428D01*
X143822619Y-76733571D01*
X143775000Y-76780714D01*
X143727380Y-76733571D01*
X143822619Y-76733571D01*
X144679761Y-77157857D02*
X144727380Y-77252142D01*
X144727380Y-77440714D01*
X144679761Y-77535000D01*
X144584523Y-77582142D01*
X144536904Y-77582142D01*
X144441666Y-77535000D01*
X144394047Y-77440714D01*
X144394047Y-77299285D01*
X144346428Y-77205000D01*
X144251190Y-77157857D01*
X144203571Y-77157857D01*
X144108333Y-77205000D01*
X144060714Y-77299285D01*
X144060714Y-77440714D01*
X144108333Y-77535000D01*
X144060714Y-79185000D02*
X144727380Y-79185000D01*
X144060714Y-78760714D02*
X144584523Y-78760714D01*
X144679761Y-78807857D01*
X144727380Y-78902142D01*
X144727380Y-79043571D01*
X144679761Y-79137857D01*
X144632142Y-79185000D01*
X144060714Y-79656428D02*
X144727380Y-79656428D01*
X144155952Y-79656428D02*
X144108333Y-79703571D01*
X144060714Y-79797857D01*
X144060714Y-79939285D01*
X144108333Y-80033571D01*
X144203571Y-80080714D01*
X144727380Y-80080714D01*
X144060714Y-80410714D02*
X144060714Y-80787857D01*
X143727380Y-80552142D02*
X144584523Y-80552142D01*
X144679761Y-80599285D01*
X144727380Y-80693571D01*
X144727380Y-80787857D01*
X144679761Y-81495000D02*
X144727380Y-81400714D01*
X144727380Y-81212142D01*
X144679761Y-81117857D01*
X144584523Y-81070714D01*
X144203571Y-81070714D01*
X144108333Y-81117857D01*
X144060714Y-81212142D01*
X144060714Y-81400714D01*
X144108333Y-81495000D01*
X144203571Y-81542142D01*
X144298809Y-81542142D01*
X144394047Y-81070714D01*
X144679761Y-81919285D02*
X144727380Y-82013571D01*
X144727380Y-82202142D01*
X144679761Y-82296428D01*
X144584523Y-82343571D01*
X144536904Y-82343571D01*
X144441666Y-82296428D01*
X144394047Y-82202142D01*
X144394047Y-82060714D01*
X144346428Y-81966428D01*
X144251190Y-81919285D01*
X144203571Y-81919285D01*
X144108333Y-81966428D01*
X144060714Y-82060714D01*
X144060714Y-82202142D01*
X144108333Y-82296428D01*
X144060714Y-82626428D02*
X144060714Y-83003571D01*
X143727380Y-82767857D02*
X144584523Y-82767857D01*
X144679761Y-82815000D01*
X144727380Y-82909285D01*
X144727380Y-83003571D01*
X144679761Y-83710714D02*
X144727380Y-83616428D01*
X144727380Y-83427857D01*
X144679761Y-83333571D01*
X144584523Y-83286428D01*
X144203571Y-83286428D01*
X144108333Y-83333571D01*
X144060714Y-83427857D01*
X144060714Y-83616428D01*
X144108333Y-83710714D01*
X144203571Y-83757857D01*
X144298809Y-83757857D01*
X144394047Y-83286428D01*
X144727380Y-84606428D02*
X143727380Y-84606428D01*
X144679761Y-84606428D02*
X144727380Y-84512142D01*
X144727380Y-84323571D01*
X144679761Y-84229285D01*
X144632142Y-84182142D01*
X144536904Y-84135000D01*
X144251190Y-84135000D01*
X144155952Y-84182142D01*
X144108333Y-84229285D01*
X144060714Y-84323571D01*
X144060714Y-84512142D01*
X144108333Y-84606428D01*
X144679761Y-85125000D02*
X144727380Y-85125000D01*
X144822619Y-85077857D01*
X144870238Y-85030714D01*
X144060714Y-86162142D02*
X144060714Y-86539285D01*
X143727380Y-86303571D02*
X144584523Y-86303571D01*
X144679761Y-86350714D01*
X144727380Y-86445000D01*
X144727380Y-86539285D01*
X144727380Y-86869285D02*
X143727380Y-86869285D01*
X144727380Y-87293571D02*
X144203571Y-87293571D01*
X144108333Y-87246428D01*
X144060714Y-87152142D01*
X144060714Y-87010714D01*
X144108333Y-86916428D01*
X144155952Y-86869285D01*
X144679761Y-88142142D02*
X144727380Y-88047857D01*
X144727380Y-87859285D01*
X144679761Y-87765000D01*
X144584523Y-87717857D01*
X144203571Y-87717857D01*
X144108333Y-87765000D01*
X144060714Y-87859285D01*
X144060714Y-88047857D01*
X144108333Y-88142142D01*
X144203571Y-88189285D01*
X144298809Y-88189285D01*
X144394047Y-87717857D01*
X144727380Y-89792142D02*
X143727380Y-89792142D01*
X144679761Y-89792142D02*
X144727380Y-89697857D01*
X144727380Y-89509285D01*
X144679761Y-89415000D01*
X144632142Y-89367857D01*
X144536904Y-89320714D01*
X144251190Y-89320714D01*
X144155952Y-89367857D01*
X144108333Y-89415000D01*
X144060714Y-89509285D01*
X144060714Y-89697857D01*
X144108333Y-89792142D01*
X144727380Y-90263571D02*
X144060714Y-90263571D01*
X143727380Y-90263571D02*
X143775000Y-90216428D01*
X143822619Y-90263571D01*
X143775000Y-90310714D01*
X143727380Y-90263571D01*
X143822619Y-90263571D01*
X144727380Y-90876428D02*
X144679761Y-90782142D01*
X144632142Y-90735000D01*
X144536904Y-90687857D01*
X144251190Y-90687857D01*
X144155952Y-90735000D01*
X144108333Y-90782142D01*
X144060714Y-90876428D01*
X144060714Y-91017857D01*
X144108333Y-91112142D01*
X144155952Y-91159285D01*
X144251190Y-91206428D01*
X144536904Y-91206428D01*
X144632142Y-91159285D01*
X144679761Y-91112142D01*
X144727380Y-91017857D01*
X144727380Y-90876428D01*
X144727380Y-92055000D02*
X143727380Y-92055000D01*
X144679761Y-92055000D02*
X144727380Y-91960714D01*
X144727380Y-91772142D01*
X144679761Y-91677857D01*
X144632142Y-91630714D01*
X144536904Y-91583571D01*
X144251190Y-91583571D01*
X144155952Y-91630714D01*
X144108333Y-91677857D01*
X144060714Y-91772142D01*
X144060714Y-91960714D01*
X144108333Y-92055000D01*
X144679761Y-92903571D02*
X144727380Y-92809285D01*
X144727380Y-92620714D01*
X144679761Y-92526428D01*
X144584523Y-92479285D01*
X144203571Y-92479285D01*
X144108333Y-92526428D01*
X144060714Y-92620714D01*
X144060714Y-92809285D01*
X144108333Y-92903571D01*
X144203571Y-92950714D01*
X144298809Y-92950714D01*
X144394047Y-92479285D01*
X144060714Y-94129285D02*
X145060714Y-94129285D01*
X144108333Y-94129285D02*
X144060714Y-94223571D01*
X144060714Y-94412142D01*
X144108333Y-94506428D01*
X144155952Y-94553571D01*
X144251190Y-94600714D01*
X144536904Y-94600714D01*
X144632142Y-94553571D01*
X144679761Y-94506428D01*
X144727380Y-94412142D01*
X144727380Y-94223571D01*
X144679761Y-94129285D01*
X144727380Y-95025000D02*
X144060714Y-95025000D01*
X144251190Y-95025000D02*
X144155952Y-95072142D01*
X144108333Y-95119285D01*
X144060714Y-95213571D01*
X144060714Y-95307857D01*
X144679761Y-96015000D02*
X144727380Y-95920714D01*
X144727380Y-95732142D01*
X144679761Y-95637857D01*
X144584523Y-95590714D01*
X144203571Y-95590714D01*
X144108333Y-95637857D01*
X144060714Y-95732142D01*
X144060714Y-95920714D01*
X144108333Y-96015000D01*
X144203571Y-96062142D01*
X144298809Y-96062142D01*
X144394047Y-95590714D01*
X144060714Y-96392142D02*
X144727380Y-96627857D01*
X144060714Y-96863571D01*
X144679761Y-97617857D02*
X144727380Y-97523571D01*
X144727380Y-97335000D01*
X144679761Y-97240714D01*
X144584523Y-97193571D01*
X144203571Y-97193571D01*
X144108333Y-97240714D01*
X144060714Y-97335000D01*
X144060714Y-97523571D01*
X144108333Y-97617857D01*
X144203571Y-97665000D01*
X144298809Y-97665000D01*
X144394047Y-97193571D01*
X144060714Y-98089285D02*
X144727380Y-98089285D01*
X144155952Y-98089285D02*
X144108333Y-98136428D01*
X144060714Y-98230714D01*
X144060714Y-98372142D01*
X144108333Y-98466428D01*
X144203571Y-98513571D01*
X144727380Y-98513571D01*
X144060714Y-98843571D02*
X144060714Y-99220714D01*
X143727380Y-98985000D02*
X144584523Y-98985000D01*
X144679761Y-99032142D01*
X144727380Y-99126428D01*
X144727380Y-99220714D01*
X144679761Y-99503571D02*
X144727380Y-99597857D01*
X144727380Y-99786428D01*
X144679761Y-99880714D01*
X144584523Y-99927857D01*
X144536904Y-99927857D01*
X144441666Y-99880714D01*
X144394047Y-99786428D01*
X144394047Y-99645000D01*
X144346428Y-99550714D01*
X144251190Y-99503571D01*
X144203571Y-99503571D01*
X144108333Y-99550714D01*
X144060714Y-99645000D01*
X144060714Y-99786428D01*
X144108333Y-99880714D01*
X144060714Y-101106428D02*
X145060714Y-101106428D01*
X144108333Y-101106428D02*
X144060714Y-101200714D01*
X144060714Y-101389285D01*
X144108333Y-101483571D01*
X144155952Y-101530714D01*
X144251190Y-101577857D01*
X144536904Y-101577857D01*
X144632142Y-101530714D01*
X144679761Y-101483571D01*
X144727380Y-101389285D01*
X144727380Y-101200714D01*
X144679761Y-101106428D01*
X144727380Y-102143571D02*
X144679761Y-102049285D01*
X144632142Y-102002142D01*
X144536904Y-101955000D01*
X144251190Y-101955000D01*
X144155952Y-102002142D01*
X144108333Y-102049285D01*
X144060714Y-102143571D01*
X144060714Y-102285000D01*
X144108333Y-102379285D01*
X144155952Y-102426428D01*
X144251190Y-102473571D01*
X144536904Y-102473571D01*
X144632142Y-102426428D01*
X144679761Y-102379285D01*
X144727380Y-102285000D01*
X144727380Y-102143571D01*
X144060714Y-102803571D02*
X144727380Y-102992142D01*
X144251190Y-103180714D01*
X144727380Y-103369285D01*
X144060714Y-103557857D01*
X144679761Y-104312142D02*
X144727380Y-104217857D01*
X144727380Y-104029285D01*
X144679761Y-103935000D01*
X144584523Y-103887857D01*
X144203571Y-103887857D01*
X144108333Y-103935000D01*
X144060714Y-104029285D01*
X144060714Y-104217857D01*
X144108333Y-104312142D01*
X144203571Y-104359285D01*
X144298809Y-104359285D01*
X144394047Y-103887857D01*
X144727380Y-104783571D02*
X144060714Y-104783571D01*
X144251190Y-104783571D02*
X144155952Y-104830714D01*
X144108333Y-104877857D01*
X144060714Y-104972142D01*
X144060714Y-105066428D01*
X144060714Y-106009285D02*
X144060714Y-106386428D01*
X144727380Y-106150714D02*
X143870238Y-106150714D01*
X143775000Y-106197857D01*
X143727380Y-106292142D01*
X143727380Y-106386428D01*
X144679761Y-107093571D02*
X144727380Y-106999285D01*
X144727380Y-106810714D01*
X144679761Y-106716428D01*
X144584523Y-106669285D01*
X144203571Y-106669285D01*
X144108333Y-106716428D01*
X144060714Y-106810714D01*
X144060714Y-106999285D01*
X144108333Y-107093571D01*
X144203571Y-107140714D01*
X144298809Y-107140714D01*
X144394047Y-106669285D01*
X144679761Y-107942142D02*
X144727380Y-107847857D01*
X144727380Y-107659285D01*
X144679761Y-107565000D01*
X144584523Y-107517857D01*
X144203571Y-107517857D01*
X144108333Y-107565000D01*
X144060714Y-107659285D01*
X144060714Y-107847857D01*
X144108333Y-107942142D01*
X144203571Y-107989285D01*
X144298809Y-107989285D01*
X144394047Y-107517857D01*
X144727380Y-108837857D02*
X143727380Y-108837857D01*
X144679761Y-108837857D02*
X144727380Y-108743571D01*
X144727380Y-108555000D01*
X144679761Y-108460714D01*
X144632142Y-108413571D01*
X144536904Y-108366428D01*
X144251190Y-108366428D01*
X144155952Y-108413571D01*
X144108333Y-108460714D01*
X144060714Y-108555000D01*
X144060714Y-108743571D01*
X144108333Y-108837857D01*
X144727380Y-109309285D02*
X143727380Y-109309285D01*
X144108333Y-109309285D02*
X144060714Y-109403571D01*
X144060714Y-109592142D01*
X144108333Y-109686428D01*
X144155952Y-109733571D01*
X144251190Y-109780714D01*
X144536904Y-109780714D01*
X144632142Y-109733571D01*
X144679761Y-109686428D01*
X144727380Y-109592142D01*
X144727380Y-109403571D01*
X144679761Y-109309285D01*
X144727380Y-110629285D02*
X144203571Y-110629285D01*
X144108333Y-110582142D01*
X144060714Y-110487857D01*
X144060714Y-110299285D01*
X144108333Y-110205000D01*
X144679761Y-110629285D02*
X144727380Y-110535000D01*
X144727380Y-110299285D01*
X144679761Y-110205000D01*
X144584523Y-110157857D01*
X144489285Y-110157857D01*
X144394047Y-110205000D01*
X144346428Y-110299285D01*
X144346428Y-110535000D01*
X144298809Y-110629285D01*
X144679761Y-111525000D02*
X144727380Y-111430714D01*
X144727380Y-111242142D01*
X144679761Y-111147857D01*
X144632142Y-111100714D01*
X144536904Y-111053571D01*
X144251190Y-111053571D01*
X144155952Y-111100714D01*
X144108333Y-111147857D01*
X144060714Y-111242142D01*
X144060714Y-111430714D01*
X144108333Y-111525000D01*
X144727380Y-111949285D02*
X143727380Y-111949285D01*
X144346428Y-112043571D02*
X144727380Y-112326428D01*
X144060714Y-112326428D02*
X144441666Y-111949285D01*
D11*
X160298571Y-69768571D02*
X160298571Y-69654285D01*
X160270000Y-69597142D01*
X160212857Y-69540000D01*
X160098571Y-69511428D01*
X159898571Y-69511428D01*
X159784285Y-69540000D01*
X159727142Y-69597142D01*
X159698571Y-69654285D01*
X159698571Y-69768571D01*
X159727142Y-69825714D01*
X159784285Y-69882857D01*
X159898571Y-69911428D01*
X160098571Y-69911428D01*
X160212857Y-69882857D01*
X160270000Y-69825714D01*
X160298571Y-69768571D01*
X160098571Y-69254285D02*
X159498571Y-69254285D01*
X160070000Y-69254285D02*
X160098571Y-69197142D01*
X160098571Y-69082857D01*
X160070000Y-69025714D01*
X160041428Y-68997142D01*
X159984285Y-68968571D01*
X159812857Y-68968571D01*
X159755714Y-68997142D01*
X159727142Y-69025714D01*
X159698571Y-69082857D01*
X159698571Y-69197142D01*
X159727142Y-69254285D01*
X159727142Y-68482857D02*
X159698571Y-68540000D01*
X159698571Y-68654285D01*
X159727142Y-68711428D01*
X159784285Y-68740000D01*
X160012857Y-68740000D01*
X160070000Y-68711428D01*
X160098571Y-68654285D01*
X160098571Y-68540000D01*
X160070000Y-68482857D01*
X160012857Y-68454285D01*
X159955714Y-68454285D01*
X159898571Y-68740000D01*
X160098571Y-68197142D02*
X159698571Y-68197142D01*
X160041428Y-68197142D02*
X160070000Y-68168571D01*
X160098571Y-68111428D01*
X160098571Y-68025714D01*
X160070000Y-67968571D01*
X160012857Y-67940000D01*
X159698571Y-67940000D01*
X160270000Y-67340000D02*
X160298571Y-67397142D01*
X160298571Y-67482857D01*
X160270000Y-67568571D01*
X160212857Y-67625714D01*
X160155714Y-67654285D01*
X160041428Y-67682857D01*
X159955714Y-67682857D01*
X159841428Y-67654285D01*
X159784285Y-67625714D01*
X159727142Y-67568571D01*
X159698571Y-67482857D01*
X159698571Y-67425714D01*
X159727142Y-67340000D01*
X159755714Y-67311428D01*
X159955714Y-67311428D01*
X159955714Y-67425714D01*
X159698571Y-67054285D02*
X160098571Y-67054285D01*
X160298571Y-67054285D02*
X160270000Y-67082857D01*
X160241428Y-67054285D01*
X160270000Y-67025714D01*
X160298571Y-67054285D01*
X160241428Y-67054285D01*
X160098571Y-66825714D02*
X159698571Y-66682857D01*
X160098571Y-66540000D01*
X159727142Y-66082857D02*
X159698571Y-66140000D01*
X159698571Y-66254285D01*
X159727142Y-66311428D01*
X159784285Y-66340000D01*
X160012857Y-66340000D01*
X160070000Y-66311428D01*
X160098571Y-66254285D01*
X160098571Y-66140000D01*
X160070000Y-66082857D01*
X160012857Y-66054285D01*
X159955714Y-66054285D01*
X159898571Y-66340000D01*
X160012857Y-65597142D02*
X159984285Y-65511428D01*
X159955714Y-65482857D01*
X159898571Y-65454285D01*
X159812857Y-65454285D01*
X159755714Y-65482857D01*
X159727142Y-65511428D01*
X159698571Y-65568571D01*
X159698571Y-65797142D01*
X160298571Y-65797142D01*
X160298571Y-65597142D01*
X160270000Y-65540000D01*
X160241428Y-65511428D01*
X160184285Y-65482857D01*
X160127142Y-65482857D01*
X160070000Y-65511428D01*
X160041428Y-65540000D01*
X160012857Y-65597142D01*
X160012857Y-65797142D01*
X159698571Y-64940000D02*
X160012857Y-64940000D01*
X160070000Y-64968571D01*
X160098571Y-65025714D01*
X160098571Y-65140000D01*
X160070000Y-65197142D01*
X159727142Y-64940000D02*
X159698571Y-64997142D01*
X159698571Y-65140000D01*
X159727142Y-65197142D01*
X159784285Y-65225714D01*
X159841428Y-65225714D01*
X159898571Y-65197142D01*
X159927142Y-65140000D01*
X159927142Y-64997142D01*
X159955714Y-64940000D01*
X159727142Y-64397142D02*
X159698571Y-64454285D01*
X159698571Y-64568571D01*
X159727142Y-64625714D01*
X159755714Y-64654285D01*
X159812857Y-64682857D01*
X159984285Y-64682857D01*
X160041428Y-64654285D01*
X160070000Y-64625714D01*
X160098571Y-64568571D01*
X160098571Y-64454285D01*
X160070000Y-64397142D01*
X159698571Y-64140000D02*
X160298571Y-64140000D01*
X159927142Y-64082857D02*
X159698571Y-63911428D01*
X160098571Y-63911428D02*
X159870000Y-64140000D01*
X159755714Y-63654285D02*
X159727142Y-63625714D01*
X159698571Y-63654285D01*
X159727142Y-63682857D01*
X159755714Y-63654285D01*
X159698571Y-63654285D01*
X159698571Y-63282857D02*
X159727142Y-63340000D01*
X159755714Y-63368571D01*
X159812857Y-63397142D01*
X159984285Y-63397142D01*
X160041428Y-63368571D01*
X160070000Y-63340000D01*
X160098571Y-63282857D01*
X160098571Y-63197142D01*
X160070000Y-63140000D01*
X160041428Y-63111428D01*
X159984285Y-63082857D01*
X159812857Y-63082857D01*
X159755714Y-63111428D01*
X159727142Y-63140000D01*
X159698571Y-63197142D01*
X159698571Y-63282857D01*
X159698571Y-62825714D02*
X160098571Y-62825714D01*
X159984285Y-62825714D02*
X160041428Y-62797142D01*
X160070000Y-62768571D01*
X160098571Y-62711428D01*
X160098571Y-62654285D01*
X160098571Y-62197142D02*
X159612857Y-62197142D01*
X159555714Y-62225714D01*
X159527142Y-62254285D01*
X159498571Y-62311428D01*
X159498571Y-62397142D01*
X159527142Y-62454285D01*
X159727142Y-62197142D02*
X159698571Y-62254285D01*
X159698571Y-62368571D01*
X159727142Y-62425714D01*
X159755714Y-62454285D01*
X159812857Y-62482857D01*
X159984285Y-62482857D01*
X160041428Y-62454285D01*
X160070000Y-62425714D01*
X160098571Y-62368571D01*
X160098571Y-62254285D01*
X160070000Y-62197142D01*
X158761142Y-75168571D02*
X158732571Y-75111428D01*
X158732571Y-74997142D01*
X158761142Y-74940000D01*
X158818285Y-74911428D01*
X158846857Y-74911428D01*
X158904000Y-74940000D01*
X158932571Y-74997142D01*
X158932571Y-75082857D01*
X158961142Y-75140000D01*
X159018285Y-75168571D01*
X159046857Y-75168571D01*
X159104000Y-75140000D01*
X159132571Y-75082857D01*
X159132571Y-74997142D01*
X159104000Y-74940000D01*
X158732571Y-74568571D02*
X158761142Y-74625714D01*
X158789714Y-74654285D01*
X158846857Y-74682857D01*
X159018285Y-74682857D01*
X159075428Y-74654285D01*
X159104000Y-74625714D01*
X159132571Y-74568571D01*
X159132571Y-74482857D01*
X159104000Y-74425714D01*
X159075428Y-74397142D01*
X159018285Y-74368571D01*
X158846857Y-74368571D01*
X158789714Y-74397142D01*
X158761142Y-74425714D01*
X158732571Y-74482857D01*
X158732571Y-74568571D01*
X159132571Y-74197142D02*
X159132571Y-73968571D01*
X158732571Y-74111428D02*
X159246857Y-74111428D01*
X159304000Y-74082857D01*
X159332571Y-74025714D01*
X159332571Y-73968571D01*
X159132571Y-73854285D02*
X159132571Y-73625714D01*
X159332571Y-73768571D02*
X158818285Y-73768571D01*
X158761142Y-73740000D01*
X158732571Y-73682857D01*
X158732571Y-73625714D01*
X158761142Y-73197142D02*
X158732571Y-73254285D01*
X158732571Y-73368571D01*
X158761142Y-73425714D01*
X158818285Y-73454285D01*
X159046857Y-73454285D01*
X159104000Y-73425714D01*
X159132571Y-73368571D01*
X159132571Y-73254285D01*
X159104000Y-73197142D01*
X159046857Y-73168571D01*
X158989714Y-73168571D01*
X158932571Y-73454285D01*
X158732571Y-72654285D02*
X159046857Y-72654285D01*
X159104000Y-72682857D01*
X159132571Y-72740000D01*
X159132571Y-72854285D01*
X159104000Y-72911428D01*
X158761142Y-72654285D02*
X158732571Y-72711428D01*
X158732571Y-72854285D01*
X158761142Y-72911428D01*
X158818285Y-72940000D01*
X158875428Y-72940000D01*
X158932571Y-72911428D01*
X158961142Y-72854285D01*
X158961142Y-72711428D01*
X158989714Y-72654285D01*
X158732571Y-72368571D02*
X159132571Y-72368571D01*
X159018285Y-72368571D02*
X159075428Y-72340000D01*
X159104000Y-72311428D01*
X159132571Y-72254285D01*
X159132571Y-72197142D01*
X158761142Y-71768571D02*
X158732571Y-71825714D01*
X158732571Y-71940000D01*
X158761142Y-71997142D01*
X158818285Y-72025714D01*
X159046857Y-72025714D01*
X159104000Y-71997142D01*
X159132571Y-71940000D01*
X159132571Y-71825714D01*
X159104000Y-71768571D01*
X159046857Y-71740000D01*
X158989714Y-71740000D01*
X158932571Y-72025714D01*
X158732571Y-70768571D02*
X159046857Y-70768571D01*
X159104000Y-70797142D01*
X159132571Y-70854285D01*
X159132571Y-70968571D01*
X159104000Y-71025714D01*
X158761142Y-70768571D02*
X158732571Y-70825714D01*
X158732571Y-70968571D01*
X158761142Y-71025714D01*
X158818285Y-71054285D01*
X158875428Y-71054285D01*
X158932571Y-71025714D01*
X158961142Y-70968571D01*
X158961142Y-70825714D01*
X158989714Y-70768571D01*
X159132571Y-70225714D02*
X158732571Y-70225714D01*
X159132571Y-70482857D02*
X158818285Y-70482857D01*
X158761142Y-70454285D01*
X158732571Y-70397142D01*
X158732571Y-70311428D01*
X158761142Y-70254285D01*
X158789714Y-70225714D01*
X159132571Y-70025714D02*
X159132571Y-69797142D01*
X159332571Y-69940000D02*
X158818285Y-69940000D01*
X158761142Y-69911428D01*
X158732571Y-69854285D01*
X158732571Y-69797142D01*
X158732571Y-69597142D02*
X159332571Y-69597142D01*
X158732571Y-69340000D02*
X159046857Y-69340000D01*
X159104000Y-69368571D01*
X159132571Y-69425714D01*
X159132571Y-69511428D01*
X159104000Y-69568571D01*
X159075428Y-69597142D01*
X158732571Y-68968571D02*
X158761142Y-69025714D01*
X158789714Y-69054285D01*
X158846857Y-69082857D01*
X159018285Y-69082857D01*
X159075428Y-69054285D01*
X159104000Y-69025714D01*
X159132571Y-68968571D01*
X159132571Y-68882857D01*
X159104000Y-68825714D01*
X159075428Y-68797142D01*
X159018285Y-68768571D01*
X158846857Y-68768571D01*
X158789714Y-68797142D01*
X158761142Y-68825714D01*
X158732571Y-68882857D01*
X158732571Y-68968571D01*
X158732571Y-68511428D02*
X159132571Y-68511428D01*
X159018285Y-68511428D02*
X159075428Y-68482857D01*
X159104000Y-68454285D01*
X159132571Y-68397142D01*
X159132571Y-68340000D01*
X159132571Y-67425714D02*
X158646857Y-67425714D01*
X158589714Y-67454285D01*
X158561142Y-67482857D01*
X158532571Y-67540000D01*
X158532571Y-67625714D01*
X158561142Y-67682857D01*
X158761142Y-67425714D02*
X158732571Y-67482857D01*
X158732571Y-67597142D01*
X158761142Y-67654285D01*
X158789714Y-67682857D01*
X158846857Y-67711428D01*
X159018285Y-67711428D01*
X159075428Y-67682857D01*
X159104000Y-67654285D01*
X159132571Y-67597142D01*
X159132571Y-67482857D01*
X159104000Y-67425714D01*
X158761142Y-66911428D02*
X158732571Y-66968571D01*
X158732571Y-67082857D01*
X158761142Y-67140000D01*
X158818285Y-67168571D01*
X159046857Y-67168571D01*
X159104000Y-67140000D01*
X159132571Y-67082857D01*
X159132571Y-66968571D01*
X159104000Y-66911428D01*
X159046857Y-66882857D01*
X158989714Y-66882857D01*
X158932571Y-67168571D01*
X159132571Y-66711428D02*
X159132571Y-66482857D01*
X159332571Y-66625714D02*
X158818285Y-66625714D01*
X158761142Y-66597142D01*
X158732571Y-66540000D01*
X158732571Y-66482857D01*
X158761142Y-66311428D02*
X158732571Y-66254285D01*
X158732571Y-66140000D01*
X158761142Y-66082857D01*
X158818285Y-66054285D01*
X158846857Y-66054285D01*
X158904000Y-66082857D01*
X158932571Y-66140000D01*
X158932571Y-66225714D01*
X158961142Y-66282857D01*
X159018285Y-66311428D01*
X159046857Y-66311428D01*
X159104000Y-66282857D01*
X159132571Y-66225714D01*
X159132571Y-66140000D01*
X159104000Y-66082857D01*
X159132571Y-65425714D02*
X159132571Y-65197142D01*
X158732571Y-65340000D02*
X159246857Y-65340000D01*
X159304000Y-65311428D01*
X159332571Y-65254285D01*
X159332571Y-65197142D01*
X158732571Y-64740000D02*
X159046857Y-64740000D01*
X159104000Y-64768571D01*
X159132571Y-64825714D01*
X159132571Y-64940000D01*
X159104000Y-64997142D01*
X158761142Y-64740000D02*
X158732571Y-64797142D01*
X158732571Y-64940000D01*
X158761142Y-64997142D01*
X158818285Y-65025714D01*
X158875428Y-65025714D01*
X158932571Y-64997142D01*
X158961142Y-64940000D01*
X158961142Y-64797142D01*
X158989714Y-64740000D01*
X158732571Y-64454285D02*
X159132571Y-64454285D01*
X159332571Y-64454285D02*
X159304000Y-64482857D01*
X159275428Y-64454285D01*
X159304000Y-64425714D01*
X159332571Y-64454285D01*
X159275428Y-64454285D01*
X158732571Y-64168571D02*
X159132571Y-64168571D01*
X159018285Y-64168571D02*
X159075428Y-64140000D01*
X159104000Y-64111428D01*
X159132571Y-64054285D01*
X159132571Y-63997142D01*
X158761142Y-63368571D02*
X158732571Y-63311428D01*
X158732571Y-63197142D01*
X158761142Y-63140000D01*
X158818285Y-63111428D01*
X158846857Y-63111428D01*
X158904000Y-63140000D01*
X158932571Y-63197142D01*
X158932571Y-63282857D01*
X158961142Y-63340000D01*
X159018285Y-63368571D01*
X159046857Y-63368571D01*
X159104000Y-63340000D01*
X159132571Y-63282857D01*
X159132571Y-63197142D01*
X159104000Y-63140000D01*
X158732571Y-62854285D02*
X159332571Y-62854285D01*
X158732571Y-62597142D02*
X159046857Y-62597142D01*
X159104000Y-62625714D01*
X159132571Y-62682857D01*
X159132571Y-62768571D01*
X159104000Y-62825714D01*
X159075428Y-62854285D01*
X158732571Y-62054285D02*
X159046857Y-62054285D01*
X159104000Y-62082857D01*
X159132571Y-62140000D01*
X159132571Y-62254285D01*
X159104000Y-62311428D01*
X158761142Y-62054285D02*
X158732571Y-62111428D01*
X158732571Y-62254285D01*
X158761142Y-62311428D01*
X158818285Y-62340000D01*
X158875428Y-62340000D01*
X158932571Y-62311428D01*
X158961142Y-62254285D01*
X158961142Y-62111428D01*
X158989714Y-62054285D01*
X158732571Y-61768571D02*
X159132571Y-61768571D01*
X159018285Y-61768571D02*
X159075428Y-61740000D01*
X159104000Y-61711428D01*
X159132571Y-61654285D01*
X159132571Y-61597142D01*
X158761142Y-61168571D02*
X158732571Y-61225714D01*
X158732571Y-61340000D01*
X158761142Y-61397142D01*
X158818285Y-61425714D01*
X159046857Y-61425714D01*
X159104000Y-61397142D01*
X159132571Y-61340000D01*
X159132571Y-61225714D01*
X159104000Y-61168571D01*
X159046857Y-61140000D01*
X158989714Y-61140000D01*
X158932571Y-61425714D01*
X158732571Y-60340000D02*
X158761142Y-60397142D01*
X158789714Y-60425714D01*
X158846857Y-60454285D01*
X159018285Y-60454285D01*
X159075428Y-60425714D01*
X159104000Y-60397142D01*
X159132571Y-60340000D01*
X159132571Y-60254285D01*
X159104000Y-60197142D01*
X159075428Y-60168571D01*
X159018285Y-60140000D01*
X158846857Y-60140000D01*
X158789714Y-60168571D01*
X158761142Y-60197142D01*
X158732571Y-60254285D01*
X158732571Y-60340000D01*
X159132571Y-59968571D02*
X159132571Y-59740000D01*
X158732571Y-59882857D02*
X159246857Y-59882857D01*
X159304000Y-59854285D01*
X159332571Y-59797142D01*
X159332571Y-59740000D01*
X159132571Y-59082857D02*
X158532571Y-59082857D01*
X159104000Y-59082857D02*
X159132571Y-59025714D01*
X159132571Y-58911428D01*
X159104000Y-58854285D01*
X159075428Y-58825714D01*
X159018285Y-58797142D01*
X158846857Y-58797142D01*
X158789714Y-58825714D01*
X158761142Y-58854285D01*
X158732571Y-58911428D01*
X158732571Y-59025714D01*
X158761142Y-59082857D01*
X158732571Y-58540000D02*
X159132571Y-58540000D01*
X159018285Y-58540000D02*
X159075428Y-58511428D01*
X159104000Y-58482857D01*
X159132571Y-58425714D01*
X159132571Y-58368571D01*
X158732571Y-58082857D02*
X158761142Y-58140000D01*
X158789714Y-58168571D01*
X158846857Y-58197142D01*
X159018285Y-58197142D01*
X159075428Y-58168571D01*
X159104000Y-58140000D01*
X159132571Y-58082857D01*
X159132571Y-57997142D01*
X159104000Y-57940000D01*
X159075428Y-57911428D01*
X159018285Y-57882857D01*
X158846857Y-57882857D01*
X158789714Y-57911428D01*
X158761142Y-57940000D01*
X158732571Y-57997142D01*
X158732571Y-58082857D01*
X159132571Y-57711428D02*
X159132571Y-57482857D01*
X158732571Y-57625714D02*
X159246857Y-57625714D01*
X159304000Y-57597142D01*
X159332571Y-57540000D01*
X159332571Y-57482857D01*
X158732571Y-57282857D02*
X159132571Y-57282857D01*
X159332571Y-57282857D02*
X159304000Y-57311428D01*
X159275428Y-57282857D01*
X159304000Y-57254285D01*
X159332571Y-57282857D01*
X159275428Y-57282857D01*
X159132571Y-57082857D02*
X159132571Y-56854285D01*
X159332571Y-56997142D02*
X158818285Y-56997142D01*
X158761142Y-56968571D01*
X158732571Y-56911428D01*
X158732571Y-56854285D01*
X158166571Y-74368571D02*
X158166571Y-74140000D01*
X158366571Y-74282857D02*
X157852285Y-74282857D01*
X157795142Y-74254285D01*
X157766571Y-74197142D01*
X157766571Y-74140000D01*
X157766571Y-73940000D02*
X158366571Y-73940000D01*
X157766571Y-73682857D02*
X158080857Y-73682857D01*
X158138000Y-73711428D01*
X158166571Y-73768571D01*
X158166571Y-73854285D01*
X158138000Y-73911428D01*
X158109428Y-73940000D01*
X157766571Y-73397142D02*
X158166571Y-73397142D01*
X158366571Y-73397142D02*
X158338000Y-73425714D01*
X158309428Y-73397142D01*
X158338000Y-73368571D01*
X158366571Y-73397142D01*
X158309428Y-73397142D01*
X157795142Y-73140000D02*
X157766571Y-73082857D01*
X157766571Y-72968571D01*
X157795142Y-72911428D01*
X157852285Y-72882857D01*
X157880857Y-72882857D01*
X157938000Y-72911428D01*
X157966571Y-72968571D01*
X157966571Y-73054285D01*
X157995142Y-73111428D01*
X158052285Y-73140000D01*
X158080857Y-73140000D01*
X158138000Y-73111428D01*
X158166571Y-73054285D01*
X158166571Y-72968571D01*
X158138000Y-72911428D01*
X157766571Y-72168571D02*
X158366571Y-72168571D01*
X158366571Y-71940000D01*
X158338000Y-71882857D01*
X158309428Y-71854285D01*
X158252285Y-71825714D01*
X158166571Y-71825714D01*
X158109428Y-71854285D01*
X158080857Y-71882857D01*
X158052285Y-71940000D01*
X158052285Y-72168571D01*
X157823714Y-71225714D02*
X157795142Y-71254285D01*
X157766571Y-71340000D01*
X157766571Y-71397142D01*
X157795142Y-71482857D01*
X157852285Y-71540000D01*
X157909428Y-71568571D01*
X158023714Y-71597142D01*
X158109428Y-71597142D01*
X158223714Y-71568571D01*
X158280857Y-71540000D01*
X158338000Y-71482857D01*
X158366571Y-71397142D01*
X158366571Y-71340000D01*
X158338000Y-71254285D01*
X158309428Y-71225714D01*
X158080857Y-70768571D02*
X158052285Y-70682857D01*
X158023714Y-70654285D01*
X157966571Y-70625714D01*
X157880857Y-70625714D01*
X157823714Y-70654285D01*
X157795142Y-70682857D01*
X157766571Y-70740000D01*
X157766571Y-70968571D01*
X158366571Y-70968571D01*
X158366571Y-70768571D01*
X158338000Y-70711428D01*
X158309428Y-70682857D01*
X158252285Y-70654285D01*
X158195142Y-70654285D01*
X158138000Y-70682857D01*
X158109428Y-70711428D01*
X158080857Y-70768571D01*
X158080857Y-70968571D01*
X157766571Y-69654285D02*
X158080857Y-69654285D01*
X158138000Y-69682857D01*
X158166571Y-69740000D01*
X158166571Y-69854285D01*
X158138000Y-69911428D01*
X157795142Y-69654285D02*
X157766571Y-69711428D01*
X157766571Y-69854285D01*
X157795142Y-69911428D01*
X157852285Y-69940000D01*
X157909428Y-69940000D01*
X157966571Y-69911428D01*
X157995142Y-69854285D01*
X157995142Y-69711428D01*
X158023714Y-69654285D01*
X157795142Y-69397142D02*
X157766571Y-69340000D01*
X157766571Y-69225714D01*
X157795142Y-69168571D01*
X157852285Y-69140000D01*
X157880857Y-69140000D01*
X157938000Y-69168571D01*
X157966571Y-69225714D01*
X157966571Y-69311428D01*
X157995142Y-69368571D01*
X158052285Y-69397142D01*
X158080857Y-69397142D01*
X158138000Y-69368571D01*
X158166571Y-69311428D01*
X158166571Y-69225714D01*
X158138000Y-69168571D01*
X157795142Y-68911428D02*
X157766571Y-68854285D01*
X157766571Y-68740000D01*
X157795142Y-68682857D01*
X157852285Y-68654285D01*
X157880857Y-68654285D01*
X157938000Y-68682857D01*
X157966571Y-68740000D01*
X157966571Y-68825714D01*
X157995142Y-68882857D01*
X158052285Y-68911428D01*
X158080857Y-68911428D01*
X158138000Y-68882857D01*
X158166571Y-68825714D01*
X158166571Y-68740000D01*
X158138000Y-68682857D01*
X157795142Y-68168571D02*
X157766571Y-68225714D01*
X157766571Y-68340000D01*
X157795142Y-68397142D01*
X157852285Y-68425714D01*
X158080857Y-68425714D01*
X158138000Y-68397142D01*
X158166571Y-68340000D01*
X158166571Y-68225714D01*
X158138000Y-68168571D01*
X158080857Y-68140000D01*
X158023714Y-68140000D01*
X157966571Y-68425714D01*
X157766571Y-67882857D02*
X158166571Y-67882857D01*
X158109428Y-67882857D02*
X158138000Y-67854285D01*
X158166571Y-67797142D01*
X158166571Y-67711428D01*
X158138000Y-67654285D01*
X158080857Y-67625714D01*
X157766571Y-67625714D01*
X158080857Y-67625714D02*
X158138000Y-67597142D01*
X158166571Y-67540000D01*
X158166571Y-67454285D01*
X158138000Y-67397142D01*
X158080857Y-67368571D01*
X157766571Y-67368571D01*
X157766571Y-67082857D02*
X158366571Y-67082857D01*
X158138000Y-67082857D02*
X158166571Y-67025714D01*
X158166571Y-66911428D01*
X158138000Y-66854285D01*
X158109428Y-66825714D01*
X158052285Y-66797142D01*
X157880857Y-66797142D01*
X157823714Y-66825714D01*
X157795142Y-66854285D01*
X157766571Y-66911428D01*
X157766571Y-67025714D01*
X157795142Y-67082857D01*
X157766571Y-66454285D02*
X157795142Y-66511428D01*
X157852285Y-66540000D01*
X158366571Y-66540000D01*
X157795142Y-65997142D02*
X157766571Y-66054285D01*
X157766571Y-66168571D01*
X157795142Y-66225714D01*
X157852285Y-66254285D01*
X158080857Y-66254285D01*
X158138000Y-66225714D01*
X158166571Y-66168571D01*
X158166571Y-66054285D01*
X158138000Y-65997142D01*
X158080857Y-65968571D01*
X158023714Y-65968571D01*
X157966571Y-66254285D01*
X157766571Y-65454285D02*
X158366571Y-65454285D01*
X157795142Y-65454285D02*
X157766571Y-65511428D01*
X157766571Y-65625714D01*
X157795142Y-65682857D01*
X157823714Y-65711428D01*
X157880857Y-65740000D01*
X158052285Y-65740000D01*
X158109428Y-65711428D01*
X158138000Y-65682857D01*
X158166571Y-65625714D01*
X158166571Y-65511428D01*
X158138000Y-65454285D01*
X157766571Y-64711428D02*
X158366571Y-64711428D01*
X158138000Y-64711428D02*
X158166571Y-64654285D01*
X158166571Y-64540000D01*
X158138000Y-64482857D01*
X158109428Y-64454285D01*
X158052285Y-64425714D01*
X157880857Y-64425714D01*
X157823714Y-64454285D01*
X157795142Y-64482857D01*
X157766571Y-64540000D01*
X157766571Y-64654285D01*
X157795142Y-64711428D01*
X158166571Y-64225714D02*
X157766571Y-64082857D01*
X158166571Y-63940000D02*
X157766571Y-64082857D01*
X157623714Y-64140000D01*
X157595142Y-64168571D01*
X157566571Y-64225714D01*
X157766571Y-63254285D02*
X158366571Y-63254285D01*
X158366571Y-63025714D01*
X158338000Y-62968571D01*
X158309428Y-62940000D01*
X158252285Y-62911428D01*
X158166571Y-62911428D01*
X158109428Y-62940000D01*
X158080857Y-62968571D01*
X158052285Y-63025714D01*
X158052285Y-63254285D01*
X157766571Y-62654285D02*
X158366571Y-62654285D01*
X158366571Y-62425714D01*
X158338000Y-62368571D01*
X158309428Y-62340000D01*
X158252285Y-62311428D01*
X158166571Y-62311428D01*
X158109428Y-62340000D01*
X158080857Y-62368571D01*
X158052285Y-62425714D01*
X158052285Y-62654285D01*
X157823714Y-61711428D02*
X157795142Y-61740000D01*
X157766571Y-61825714D01*
X157766571Y-61882857D01*
X157795142Y-61968571D01*
X157852285Y-62025714D01*
X157909428Y-62054285D01*
X158023714Y-62082857D01*
X158109428Y-62082857D01*
X158223714Y-62054285D01*
X158280857Y-62025714D01*
X158338000Y-61968571D01*
X158366571Y-61882857D01*
X158366571Y-61825714D01*
X158338000Y-61740000D01*
X158309428Y-61711428D01*
X158080857Y-61254285D02*
X158052285Y-61168571D01*
X158023714Y-61140000D01*
X157966571Y-61111428D01*
X157880857Y-61111428D01*
X157823714Y-61140000D01*
X157795142Y-61168571D01*
X157766571Y-61225714D01*
X157766571Y-61454285D01*
X158366571Y-61454285D01*
X158366571Y-61254285D01*
X158338000Y-61197142D01*
X158309428Y-61168571D01*
X158252285Y-61140000D01*
X158195142Y-61140000D01*
X158138000Y-61168571D01*
X158109428Y-61197142D01*
X158080857Y-61254285D01*
X158080857Y-61454285D01*
X157766571Y-60140000D02*
X158080857Y-60140000D01*
X158138000Y-60168571D01*
X158166571Y-60225714D01*
X158166571Y-60340000D01*
X158138000Y-60397142D01*
X157795142Y-60140000D02*
X157766571Y-60197142D01*
X157766571Y-60340000D01*
X157795142Y-60397142D01*
X157852285Y-60425714D01*
X157909428Y-60425714D01*
X157966571Y-60397142D01*
X157995142Y-60340000D01*
X157995142Y-60197142D01*
X158023714Y-60140000D01*
X158166571Y-59597142D02*
X157766571Y-59597142D01*
X158166571Y-59854285D02*
X157852285Y-59854285D01*
X157795142Y-59825714D01*
X157766571Y-59768571D01*
X157766571Y-59682857D01*
X157795142Y-59625714D01*
X157823714Y-59597142D01*
X158166571Y-59397142D02*
X158166571Y-59168571D01*
X158366571Y-59311428D02*
X157852285Y-59311428D01*
X157795142Y-59282857D01*
X157766571Y-59225714D01*
X157766571Y-59168571D01*
X157766571Y-58968571D02*
X158366571Y-58968571D01*
X157766571Y-58711428D02*
X158080857Y-58711428D01*
X158138000Y-58740000D01*
X158166571Y-58797142D01*
X158166571Y-58882857D01*
X158138000Y-58940000D01*
X158109428Y-58968571D01*
X157766571Y-58340000D02*
X157795142Y-58397142D01*
X157823714Y-58425714D01*
X157880857Y-58454285D01*
X158052285Y-58454285D01*
X158109428Y-58425714D01*
X158138000Y-58397142D01*
X158166571Y-58340000D01*
X158166571Y-58254285D01*
X158138000Y-58197142D01*
X158109428Y-58168571D01*
X158052285Y-58140000D01*
X157880857Y-58140000D01*
X157823714Y-58168571D01*
X157795142Y-58197142D01*
X157766571Y-58254285D01*
X157766571Y-58340000D01*
X157766571Y-57882857D02*
X158166571Y-57882857D01*
X158052285Y-57882857D02*
X158109428Y-57854285D01*
X158138000Y-57825714D01*
X158166571Y-57768571D01*
X158166571Y-57711428D01*
X168222571Y-109766000D02*
X167622571Y-109566000D01*
X168222571Y-109366000D01*
X167679714Y-108823142D02*
X167651142Y-108851714D01*
X167622571Y-108937428D01*
X167622571Y-108994571D01*
X167651142Y-109080285D01*
X167708285Y-109137428D01*
X167765428Y-109166000D01*
X167879714Y-109194571D01*
X167965428Y-109194571D01*
X168079714Y-109166000D01*
X168136857Y-109137428D01*
X168194000Y-109080285D01*
X168222571Y-108994571D01*
X168222571Y-108937428D01*
X168194000Y-108851714D01*
X168165428Y-108823142D01*
X167679714Y-108223142D02*
X167651142Y-108251714D01*
X167622571Y-108337428D01*
X167622571Y-108394571D01*
X167651142Y-108480285D01*
X167708285Y-108537428D01*
X167765428Y-108566000D01*
X167879714Y-108594571D01*
X167965428Y-108594571D01*
X168079714Y-108566000D01*
X168136857Y-108537428D01*
X168194000Y-108480285D01*
X168222571Y-108394571D01*
X168222571Y-108337428D01*
X168194000Y-108251714D01*
X168165428Y-108223142D01*
D12*
X133377809Y-69118904D02*
X133877809Y-69118904D01*
X133639714Y-69118904D02*
X133639714Y-68833190D01*
X133377809Y-68833190D02*
X133877809Y-68833190D01*
X133877809Y-68642714D02*
X133377809Y-68523666D01*
X133734952Y-68428428D01*
X133377809Y-68333190D01*
X133877809Y-68214142D01*
X133377809Y-67428428D02*
X133639714Y-67428428D01*
X133687333Y-67452238D01*
X133711142Y-67499857D01*
X133711142Y-67595095D01*
X133687333Y-67642714D01*
X133401619Y-67428428D02*
X133377809Y-67476047D01*
X133377809Y-67595095D01*
X133401619Y-67642714D01*
X133449238Y-67666523D01*
X133496857Y-67666523D01*
X133544476Y-67642714D01*
X133568285Y-67595095D01*
X133568285Y-67476047D01*
X133592095Y-67428428D01*
X133401619Y-67214142D02*
X133377809Y-67166523D01*
X133377809Y-67071285D01*
X133401619Y-67023666D01*
X133449238Y-66999857D01*
X133473047Y-66999857D01*
X133520666Y-67023666D01*
X133544476Y-67071285D01*
X133544476Y-67142714D01*
X133568285Y-67190333D01*
X133615904Y-67214142D01*
X133639714Y-67214142D01*
X133687333Y-67190333D01*
X133711142Y-67142714D01*
X133711142Y-67071285D01*
X133687333Y-67023666D01*
X133401619Y-66809380D02*
X133377809Y-66761761D01*
X133377809Y-66666523D01*
X133401619Y-66618904D01*
X133449238Y-66595095D01*
X133473047Y-66595095D01*
X133520666Y-66618904D01*
X133544476Y-66666523D01*
X133544476Y-66737952D01*
X133568285Y-66785571D01*
X133615904Y-66809380D01*
X133639714Y-66809380D01*
X133687333Y-66785571D01*
X133711142Y-66737952D01*
X133711142Y-66666523D01*
X133687333Y-66618904D01*
X133401619Y-66190333D02*
X133377809Y-66237952D01*
X133377809Y-66333190D01*
X133401619Y-66380809D01*
X133449238Y-66404619D01*
X133639714Y-66404619D01*
X133687333Y-66380809D01*
X133711142Y-66333190D01*
X133711142Y-66237952D01*
X133687333Y-66190333D01*
X133639714Y-66166523D01*
X133592095Y-66166523D01*
X133544476Y-66404619D01*
X133377809Y-65952238D02*
X133711142Y-65952238D01*
X133663523Y-65952238D02*
X133687333Y-65928428D01*
X133711142Y-65880809D01*
X133711142Y-65809380D01*
X133687333Y-65761761D01*
X133639714Y-65737952D01*
X133377809Y-65737952D01*
X133639714Y-65737952D02*
X133687333Y-65714142D01*
X133711142Y-65666523D01*
X133711142Y-65595095D01*
X133687333Y-65547476D01*
X133639714Y-65523666D01*
X133377809Y-65523666D01*
X133377809Y-65285571D02*
X133877809Y-65285571D01*
X133687333Y-65285571D02*
X133711142Y-65237952D01*
X133711142Y-65142714D01*
X133687333Y-65095095D01*
X133663523Y-65071285D01*
X133615904Y-65047476D01*
X133473047Y-65047476D01*
X133425428Y-65071285D01*
X133401619Y-65095095D01*
X133377809Y-65142714D01*
X133377809Y-65237952D01*
X133401619Y-65285571D01*
X133377809Y-64761761D02*
X133401619Y-64809380D01*
X133449238Y-64833190D01*
X133877809Y-64833190D01*
X133401619Y-64380809D02*
X133377809Y-64428428D01*
X133377809Y-64523666D01*
X133401619Y-64571285D01*
X133449238Y-64595095D01*
X133639714Y-64595095D01*
X133687333Y-64571285D01*
X133711142Y-64523666D01*
X133711142Y-64428428D01*
X133687333Y-64380809D01*
X133639714Y-64357000D01*
X133592095Y-64357000D01*
X133544476Y-64595095D01*
X133377809Y-63928428D02*
X133877809Y-63928428D01*
X133401619Y-63928428D02*
X133377809Y-63976047D01*
X133377809Y-64071285D01*
X133401619Y-64118904D01*
X133425428Y-64142714D01*
X133473047Y-64166523D01*
X133615904Y-64166523D01*
X133663523Y-64142714D01*
X133687333Y-64118904D01*
X133711142Y-64071285D01*
X133711142Y-63976047D01*
X133687333Y-63928428D01*
X133377809Y-63309380D02*
X133877809Y-63309380D01*
X133687333Y-63309380D02*
X133711142Y-63261761D01*
X133711142Y-63166523D01*
X133687333Y-63118904D01*
X133663523Y-63095095D01*
X133615904Y-63071285D01*
X133473047Y-63071285D01*
X133425428Y-63095095D01*
X133401619Y-63118904D01*
X133377809Y-63166523D01*
X133377809Y-63261761D01*
X133401619Y-63309380D01*
X133711142Y-62904619D02*
X133377809Y-62785571D01*
X133711142Y-62666523D02*
X133377809Y-62785571D01*
X133258761Y-62833190D01*
X133234952Y-62857000D01*
X133211142Y-62904619D01*
X133377809Y-62095095D02*
X133877809Y-62095095D01*
X133639714Y-62095095D02*
X133639714Y-61809380D01*
X133377809Y-61809380D02*
X133877809Y-61809380D01*
X133877809Y-61618904D02*
X133377809Y-61499857D01*
X133734952Y-61404619D01*
X133377809Y-61309380D01*
X133877809Y-61190333D01*
X133401619Y-60642714D02*
X133377809Y-60595095D01*
X133377809Y-60499857D01*
X133401619Y-60452238D01*
X133449238Y-60428428D01*
X133473047Y-60428428D01*
X133520666Y-60452238D01*
X133544476Y-60499857D01*
X133544476Y-60571285D01*
X133568285Y-60618904D01*
X133615904Y-60642714D01*
X133639714Y-60642714D01*
X133687333Y-60618904D01*
X133711142Y-60571285D01*
X133711142Y-60499857D01*
X133687333Y-60452238D01*
X133377809Y-60142714D02*
X133401619Y-60190333D01*
X133425428Y-60214142D01*
X133473047Y-60237952D01*
X133615904Y-60237952D01*
X133663523Y-60214142D01*
X133687333Y-60190333D01*
X133711142Y-60142714D01*
X133711142Y-60071285D01*
X133687333Y-60023666D01*
X133663523Y-59999857D01*
X133615904Y-59976047D01*
X133473047Y-59976047D01*
X133425428Y-59999857D01*
X133401619Y-60023666D01*
X133377809Y-60071285D01*
X133377809Y-60142714D01*
X133711142Y-59547476D02*
X133377809Y-59547476D01*
X133711142Y-59761761D02*
X133449238Y-59761761D01*
X133401619Y-59737952D01*
X133377809Y-59690333D01*
X133377809Y-59618904D01*
X133401619Y-59571285D01*
X133425428Y-59547476D01*
X133377809Y-59309380D02*
X133711142Y-59309380D01*
X133615904Y-59309380D02*
X133663523Y-59285571D01*
X133687333Y-59261761D01*
X133711142Y-59214142D01*
X133711142Y-59166523D01*
X133401619Y-58785571D02*
X133377809Y-58833190D01*
X133377809Y-58928428D01*
X133401619Y-58976047D01*
X133425428Y-58999857D01*
X133473047Y-59023666D01*
X133615904Y-59023666D01*
X133663523Y-58999857D01*
X133687333Y-58976047D01*
X133711142Y-58928428D01*
X133711142Y-58833190D01*
X133687333Y-58785571D01*
X133401619Y-58380809D02*
X133377809Y-58428428D01*
X133377809Y-58523666D01*
X133401619Y-58571285D01*
X133449238Y-58595095D01*
X133639714Y-58595095D01*
X133687333Y-58571285D01*
X133711142Y-58523666D01*
X133711142Y-58428428D01*
X133687333Y-58380809D01*
X133639714Y-58357000D01*
X133592095Y-58357000D01*
X133544476Y-58595095D01*
X133377809Y-57547476D02*
X133639714Y-57547476D01*
X133687333Y-57571285D01*
X133711142Y-57618904D01*
X133711142Y-57714142D01*
X133687333Y-57761761D01*
X133401619Y-57547476D02*
X133377809Y-57595095D01*
X133377809Y-57714142D01*
X133401619Y-57761761D01*
X133449238Y-57785571D01*
X133496857Y-57785571D01*
X133544476Y-57761761D01*
X133568285Y-57714142D01*
X133568285Y-57595095D01*
X133592095Y-57547476D01*
X133711142Y-57095095D02*
X133377809Y-57095095D01*
X133711142Y-57309380D02*
X133449238Y-57309380D01*
X133401619Y-57285571D01*
X133377809Y-57237952D01*
X133377809Y-57166523D01*
X133401619Y-57118904D01*
X133425428Y-57095095D01*
X133711142Y-56928428D02*
X133711142Y-56737952D01*
X133877809Y-56857000D02*
X133449238Y-56857000D01*
X133401619Y-56833190D01*
X133377809Y-56785571D01*
X133377809Y-56737952D01*
X133377809Y-56571285D02*
X133877809Y-56571285D01*
X133377809Y-56357000D02*
X133639714Y-56357000D01*
X133687333Y-56380809D01*
X133711142Y-56428428D01*
X133711142Y-56499857D01*
X133687333Y-56547476D01*
X133663523Y-56571285D01*
X133377809Y-56047476D02*
X133401619Y-56095095D01*
X133425428Y-56118904D01*
X133473047Y-56142714D01*
X133615904Y-56142714D01*
X133663523Y-56118904D01*
X133687333Y-56095095D01*
X133711142Y-56047476D01*
X133711142Y-55976047D01*
X133687333Y-55928428D01*
X133663523Y-55904619D01*
X133615904Y-55880809D01*
X133473047Y-55880809D01*
X133425428Y-55904619D01*
X133401619Y-55928428D01*
X133377809Y-55976047D01*
X133377809Y-56047476D01*
X133377809Y-55666523D02*
X133711142Y-55666523D01*
X133615904Y-55666523D02*
X133663523Y-55642714D01*
X133687333Y-55618904D01*
X133711142Y-55571285D01*
X133711142Y-55523666D01*
X134417619Y-73035809D02*
X134393809Y-72964380D01*
X134393809Y-72845333D01*
X134417619Y-72797714D01*
X134441428Y-72773904D01*
X134489047Y-72750095D01*
X134536666Y-72750095D01*
X134584285Y-72773904D01*
X134608095Y-72797714D01*
X134631904Y-72845333D01*
X134655714Y-72940571D01*
X134679523Y-72988190D01*
X134703333Y-73012000D01*
X134750952Y-73035809D01*
X134798571Y-73035809D01*
X134846190Y-73012000D01*
X134870000Y-72988190D01*
X134893809Y-72940571D01*
X134893809Y-72821523D01*
X134870000Y-72750095D01*
X134893809Y-72583428D02*
X134393809Y-72464380D01*
X134750952Y-72369142D01*
X134393809Y-72273904D01*
X134893809Y-72154857D01*
X134417619Y-71607238D02*
X134393809Y-71559619D01*
X134393809Y-71464380D01*
X134417619Y-71416761D01*
X134465238Y-71392952D01*
X134489047Y-71392952D01*
X134536666Y-71416761D01*
X134560476Y-71464380D01*
X134560476Y-71535809D01*
X134584285Y-71583428D01*
X134631904Y-71607238D01*
X134655714Y-71607238D01*
X134703333Y-71583428D01*
X134727142Y-71535809D01*
X134727142Y-71464380D01*
X134703333Y-71416761D01*
X134393809Y-71107238D02*
X134417619Y-71154857D01*
X134441428Y-71178666D01*
X134489047Y-71202476D01*
X134631904Y-71202476D01*
X134679523Y-71178666D01*
X134703333Y-71154857D01*
X134727142Y-71107238D01*
X134727142Y-71035809D01*
X134703333Y-70988190D01*
X134679523Y-70964380D01*
X134631904Y-70940571D01*
X134489047Y-70940571D01*
X134441428Y-70964380D01*
X134417619Y-70988190D01*
X134393809Y-71035809D01*
X134393809Y-71107238D01*
X134727142Y-70512000D02*
X134393809Y-70512000D01*
X134727142Y-70726285D02*
X134465238Y-70726285D01*
X134417619Y-70702476D01*
X134393809Y-70654857D01*
X134393809Y-70583428D01*
X134417619Y-70535809D01*
X134441428Y-70512000D01*
X134393809Y-70273904D02*
X134727142Y-70273904D01*
X134631904Y-70273904D02*
X134679523Y-70250095D01*
X134703333Y-70226285D01*
X134727142Y-70178666D01*
X134727142Y-70131047D01*
X134417619Y-69750095D02*
X134393809Y-69797714D01*
X134393809Y-69892952D01*
X134417619Y-69940571D01*
X134441428Y-69964380D01*
X134489047Y-69988190D01*
X134631904Y-69988190D01*
X134679523Y-69964380D01*
X134703333Y-69940571D01*
X134727142Y-69892952D01*
X134727142Y-69797714D01*
X134703333Y-69750095D01*
X134417619Y-69345333D02*
X134393809Y-69392952D01*
X134393809Y-69488190D01*
X134417619Y-69535809D01*
X134465238Y-69559619D01*
X134655714Y-69559619D01*
X134703333Y-69535809D01*
X134727142Y-69488190D01*
X134727142Y-69392952D01*
X134703333Y-69345333D01*
X134655714Y-69321523D01*
X134608095Y-69321523D01*
X134560476Y-69559619D01*
X134393809Y-68512000D02*
X134655714Y-68512000D01*
X134703333Y-68535809D01*
X134727142Y-68583428D01*
X134727142Y-68678666D01*
X134703333Y-68726285D01*
X134417619Y-68512000D02*
X134393809Y-68559619D01*
X134393809Y-68678666D01*
X134417619Y-68726285D01*
X134465238Y-68750095D01*
X134512857Y-68750095D01*
X134560476Y-68726285D01*
X134584285Y-68678666D01*
X134584285Y-68559619D01*
X134608095Y-68512000D01*
X134727142Y-68059619D02*
X134393809Y-68059619D01*
X134727142Y-68273904D02*
X134465238Y-68273904D01*
X134417619Y-68250095D01*
X134393809Y-68202476D01*
X134393809Y-68131047D01*
X134417619Y-68083428D01*
X134441428Y-68059619D01*
X134727142Y-67892952D02*
X134727142Y-67702476D01*
X134893809Y-67821523D02*
X134465238Y-67821523D01*
X134417619Y-67797714D01*
X134393809Y-67750095D01*
X134393809Y-67702476D01*
X134393809Y-67535809D02*
X134893809Y-67535809D01*
X134393809Y-67321523D02*
X134655714Y-67321523D01*
X134703333Y-67345333D01*
X134727142Y-67392952D01*
X134727142Y-67464380D01*
X134703333Y-67512000D01*
X134679523Y-67535809D01*
X134393809Y-67012000D02*
X134417619Y-67059619D01*
X134441428Y-67083428D01*
X134489047Y-67107238D01*
X134631904Y-67107238D01*
X134679523Y-67083428D01*
X134703333Y-67059619D01*
X134727142Y-67012000D01*
X134727142Y-66940571D01*
X134703333Y-66892952D01*
X134679523Y-66869142D01*
X134631904Y-66845333D01*
X134489047Y-66845333D01*
X134441428Y-66869142D01*
X134417619Y-66892952D01*
X134393809Y-66940571D01*
X134393809Y-67012000D01*
X134393809Y-66631047D02*
X134727142Y-66631047D01*
X134631904Y-66631047D02*
X134679523Y-66607238D01*
X134703333Y-66583428D01*
X134727142Y-66535809D01*
X134727142Y-66488190D01*
X134393809Y-65940571D02*
X134727142Y-65940571D01*
X134631904Y-65940571D02*
X134679523Y-65916761D01*
X134703333Y-65892952D01*
X134727142Y-65845333D01*
X134727142Y-65797714D01*
X134417619Y-65440571D02*
X134393809Y-65488190D01*
X134393809Y-65583428D01*
X134417619Y-65631047D01*
X134465238Y-65654857D01*
X134655714Y-65654857D01*
X134703333Y-65631047D01*
X134727142Y-65583428D01*
X134727142Y-65488190D01*
X134703333Y-65440571D01*
X134655714Y-65416761D01*
X134608095Y-65416761D01*
X134560476Y-65654857D01*
X134417619Y-64988190D02*
X134393809Y-65035809D01*
X134393809Y-65131047D01*
X134417619Y-65178666D01*
X134441428Y-65202476D01*
X134489047Y-65226285D01*
X134631904Y-65226285D01*
X134679523Y-65202476D01*
X134703333Y-65178666D01*
X134727142Y-65131047D01*
X134727142Y-65035809D01*
X134703333Y-64988190D01*
X134417619Y-64583428D02*
X134393809Y-64631047D01*
X134393809Y-64726285D01*
X134417619Y-64773904D01*
X134465238Y-64797714D01*
X134655714Y-64797714D01*
X134703333Y-64773904D01*
X134727142Y-64726285D01*
X134727142Y-64631047D01*
X134703333Y-64583428D01*
X134655714Y-64559619D01*
X134608095Y-64559619D01*
X134560476Y-64797714D01*
X134393809Y-64345333D02*
X134727142Y-64345333D01*
X134893809Y-64345333D02*
X134870000Y-64369142D01*
X134846190Y-64345333D01*
X134870000Y-64321523D01*
X134893809Y-64345333D01*
X134846190Y-64345333D01*
X134727142Y-64154857D02*
X134393809Y-64035809D01*
X134727142Y-63916761D01*
X134417619Y-63535809D02*
X134393809Y-63583428D01*
X134393809Y-63678666D01*
X134417619Y-63726285D01*
X134465238Y-63750095D01*
X134655714Y-63750095D01*
X134703333Y-63726285D01*
X134727142Y-63678666D01*
X134727142Y-63583428D01*
X134703333Y-63535809D01*
X134655714Y-63512000D01*
X134608095Y-63512000D01*
X134560476Y-63750095D01*
X134417619Y-63321523D02*
X134393809Y-63273904D01*
X134393809Y-63178666D01*
X134417619Y-63131047D01*
X134465238Y-63107238D01*
X134489047Y-63107238D01*
X134536666Y-63131047D01*
X134560476Y-63178666D01*
X134560476Y-63250095D01*
X134584285Y-63297714D01*
X134631904Y-63321523D01*
X134655714Y-63321523D01*
X134703333Y-63297714D01*
X134727142Y-63250095D01*
X134727142Y-63178666D01*
X134703333Y-63131047D01*
X134727142Y-62583428D02*
X134727142Y-62392952D01*
X134393809Y-62512000D02*
X134822380Y-62512000D01*
X134870000Y-62488190D01*
X134893809Y-62440571D01*
X134893809Y-62392952D01*
X134393809Y-62012000D02*
X134655714Y-62012000D01*
X134703333Y-62035809D01*
X134727142Y-62083428D01*
X134727142Y-62178666D01*
X134703333Y-62226285D01*
X134417619Y-62012000D02*
X134393809Y-62059619D01*
X134393809Y-62178666D01*
X134417619Y-62226285D01*
X134465238Y-62250095D01*
X134512857Y-62250095D01*
X134560476Y-62226285D01*
X134584285Y-62178666D01*
X134584285Y-62059619D01*
X134608095Y-62012000D01*
X134393809Y-61773904D02*
X134727142Y-61773904D01*
X134893809Y-61773904D02*
X134870000Y-61797714D01*
X134846190Y-61773904D01*
X134870000Y-61750095D01*
X134893809Y-61773904D01*
X134846190Y-61773904D01*
X134393809Y-61535809D02*
X134727142Y-61535809D01*
X134631904Y-61535809D02*
X134679523Y-61512000D01*
X134703333Y-61488190D01*
X134727142Y-61440571D01*
X134727142Y-61392952D01*
X134417619Y-60869142D02*
X134393809Y-60821523D01*
X134393809Y-60726285D01*
X134417619Y-60678666D01*
X134465238Y-60654857D01*
X134489047Y-60654857D01*
X134536666Y-60678666D01*
X134560476Y-60726285D01*
X134560476Y-60797714D01*
X134584285Y-60845333D01*
X134631904Y-60869142D01*
X134655714Y-60869142D01*
X134703333Y-60845333D01*
X134727142Y-60797714D01*
X134727142Y-60726285D01*
X134703333Y-60678666D01*
X134393809Y-60440571D02*
X134893809Y-60440571D01*
X134393809Y-60226285D02*
X134655714Y-60226285D01*
X134703333Y-60250095D01*
X134727142Y-60297714D01*
X134727142Y-60369142D01*
X134703333Y-60416761D01*
X134679523Y-60440571D01*
X134393809Y-59773904D02*
X134655714Y-59773904D01*
X134703333Y-59797714D01*
X134727142Y-59845333D01*
X134727142Y-59940571D01*
X134703333Y-59988190D01*
X134417619Y-59773904D02*
X134393809Y-59821523D01*
X134393809Y-59940571D01*
X134417619Y-59988190D01*
X134465238Y-60012000D01*
X134512857Y-60012000D01*
X134560476Y-59988190D01*
X134584285Y-59940571D01*
X134584285Y-59821523D01*
X134608095Y-59773904D01*
X134393809Y-59535809D02*
X134727142Y-59535809D01*
X134631904Y-59535809D02*
X134679523Y-59512000D01*
X134703333Y-59488190D01*
X134727142Y-59440571D01*
X134727142Y-59392952D01*
X134417619Y-59035809D02*
X134393809Y-59083428D01*
X134393809Y-59178666D01*
X134417619Y-59226285D01*
X134465238Y-59250095D01*
X134655714Y-59250095D01*
X134703333Y-59226285D01*
X134727142Y-59178666D01*
X134727142Y-59083428D01*
X134703333Y-59035809D01*
X134655714Y-59012000D01*
X134608095Y-59012000D01*
X134560476Y-59250095D01*
X134393809Y-58345333D02*
X134417619Y-58392952D01*
X134441428Y-58416761D01*
X134489047Y-58440571D01*
X134631904Y-58440571D01*
X134679523Y-58416761D01*
X134703333Y-58392952D01*
X134727142Y-58345333D01*
X134727142Y-58273904D01*
X134703333Y-58226285D01*
X134679523Y-58202476D01*
X134631904Y-58178666D01*
X134489047Y-58178666D01*
X134441428Y-58202476D01*
X134417619Y-58226285D01*
X134393809Y-58273904D01*
X134393809Y-58345333D01*
X134727142Y-58035809D02*
X134727142Y-57845333D01*
X134393809Y-57964380D02*
X134822380Y-57964380D01*
X134870000Y-57940571D01*
X134893809Y-57892952D01*
X134893809Y-57845333D01*
X134727142Y-57297714D02*
X134227142Y-57297714D01*
X134703333Y-57297714D02*
X134727142Y-57250095D01*
X134727142Y-57154857D01*
X134703333Y-57107238D01*
X134679523Y-57083428D01*
X134631904Y-57059619D01*
X134489047Y-57059619D01*
X134441428Y-57083428D01*
X134417619Y-57107238D01*
X134393809Y-57154857D01*
X134393809Y-57250095D01*
X134417619Y-57297714D01*
X134393809Y-56845333D02*
X134727142Y-56845333D01*
X134631904Y-56845333D02*
X134679523Y-56821523D01*
X134703333Y-56797714D01*
X134727142Y-56750095D01*
X134727142Y-56702476D01*
X134393809Y-56464380D02*
X134417619Y-56512000D01*
X134441428Y-56535809D01*
X134489047Y-56559619D01*
X134631904Y-56559619D01*
X134679523Y-56535809D01*
X134703333Y-56512000D01*
X134727142Y-56464380D01*
X134727142Y-56392952D01*
X134703333Y-56345333D01*
X134679523Y-56321523D01*
X134631904Y-56297714D01*
X134489047Y-56297714D01*
X134441428Y-56321523D01*
X134417619Y-56345333D01*
X134393809Y-56392952D01*
X134393809Y-56464380D01*
X134727142Y-56154857D02*
X134727142Y-55964380D01*
X134393809Y-56083428D02*
X134822380Y-56083428D01*
X134870000Y-56059619D01*
X134893809Y-56012000D01*
X134893809Y-55964380D01*
X134393809Y-55797714D02*
X134727142Y-55797714D01*
X134893809Y-55797714D02*
X134870000Y-55821523D01*
X134846190Y-55797714D01*
X134870000Y-55773904D01*
X134893809Y-55797714D01*
X134846190Y-55797714D01*
X134727142Y-55631047D02*
X134727142Y-55440571D01*
X134893809Y-55559619D02*
X134465238Y-55559619D01*
X134417619Y-55535809D01*
X134393809Y-55488190D01*
X134393809Y-55440571D01*
D10*
X162690333Y-107135247D02*
X162690333Y-106659057D01*
X162404619Y-107230485D02*
X163404619Y-106897152D01*
X162404619Y-106563819D01*
X162404619Y-106230485D02*
X163071285Y-106230485D01*
X162976047Y-106230485D02*
X163023666Y-106182866D01*
X163071285Y-106087628D01*
X163071285Y-105944771D01*
X163023666Y-105849533D01*
X162928428Y-105801914D01*
X162404619Y-105801914D01*
X162928428Y-105801914D02*
X163023666Y-105754295D01*
X163071285Y-105659057D01*
X163071285Y-105516200D01*
X163023666Y-105420961D01*
X162928428Y-105373342D01*
X162404619Y-105373342D01*
X162404619Y-104897152D02*
X163071285Y-104897152D01*
X163404619Y-104897152D02*
X163357000Y-104944771D01*
X163309380Y-104897152D01*
X163357000Y-104849533D01*
X163404619Y-104897152D01*
X163309380Y-104897152D01*
X163071285Y-103992390D02*
X162261761Y-103992390D01*
X162166523Y-104040009D01*
X162118904Y-104087628D01*
X162071285Y-104182866D01*
X162071285Y-104325723D01*
X162118904Y-104420961D01*
X162452238Y-103992390D02*
X162404619Y-104087628D01*
X162404619Y-104278104D01*
X162452238Y-104373342D01*
X162499857Y-104420961D01*
X162595095Y-104468580D01*
X162880809Y-104468580D01*
X162976047Y-104420961D01*
X163023666Y-104373342D01*
X163071285Y-104278104D01*
X163071285Y-104087628D01*
X163023666Y-103992390D01*
X162928428Y-103516200D02*
X162928428Y-103182866D01*
X162404619Y-103040009D02*
X162404619Y-103516200D01*
X163404619Y-103516200D01*
X163404619Y-103040009D01*
X162404619Y-102182866D02*
X162928428Y-102182866D01*
X163023666Y-102230485D01*
X163071285Y-102325723D01*
X163071285Y-102516200D01*
X163023666Y-102611438D01*
X162452238Y-102182866D02*
X162404619Y-102278104D01*
X162404619Y-102516200D01*
X162452238Y-102611438D01*
X162547476Y-102659057D01*
X162642714Y-102659057D01*
X162737952Y-102611438D01*
X162785571Y-102516200D01*
X162785571Y-102278104D01*
X162833190Y-102182866D01*
X162452238Y-101754295D02*
X162404619Y-101659057D01*
X162404619Y-101468580D01*
X162452238Y-101373342D01*
X162547476Y-101325723D01*
X162595095Y-101325723D01*
X162690333Y-101373342D01*
X162737952Y-101468580D01*
X162737952Y-101611438D01*
X162785571Y-101706676D01*
X162880809Y-101754295D01*
X162928428Y-101754295D01*
X163023666Y-101706676D01*
X163071285Y-101611438D01*
X163071285Y-101468580D01*
X163023666Y-101373342D01*
X163071285Y-101040009D02*
X163071285Y-100659057D01*
X163404619Y-100897152D02*
X162547476Y-100897152D01*
X162452238Y-100849533D01*
X162404619Y-100754295D01*
X162404619Y-100659057D01*
X162452238Y-99182866D02*
X162404619Y-99278104D01*
X162404619Y-99468580D01*
X162452238Y-99563819D01*
X162547476Y-99611438D01*
X162928428Y-99611438D01*
X163023666Y-99563819D01*
X163071285Y-99468580D01*
X163071285Y-99278104D01*
X163023666Y-99182866D01*
X162928428Y-99135247D01*
X162833190Y-99135247D01*
X162737952Y-99611438D01*
X163071285Y-98278104D02*
X162071285Y-98278104D01*
X162452238Y-98278104D02*
X162404619Y-98373342D01*
X162404619Y-98563819D01*
X162452238Y-98659057D01*
X162499857Y-98706676D01*
X162595095Y-98754295D01*
X162880809Y-98754295D01*
X162976047Y-98706676D01*
X163023666Y-98659057D01*
X163071285Y-98563819D01*
X163071285Y-98373342D01*
X163023666Y-98278104D01*
X163404619Y-97801914D02*
X162595095Y-97801914D01*
X162499857Y-97754295D01*
X162452238Y-97706676D01*
X162404619Y-97611438D01*
X162404619Y-97420961D01*
X162452238Y-97325723D01*
X162499857Y-97278104D01*
X162595095Y-97230485D01*
X163404619Y-97230485D01*
X162404619Y-96754295D02*
X163404619Y-96754295D01*
X163071285Y-96278104D02*
X162404619Y-96278104D01*
X162976047Y-96278104D02*
X163023666Y-96230485D01*
X163071285Y-96135247D01*
X163071285Y-95992390D01*
X163023666Y-95897152D01*
X162928428Y-95849533D01*
X162404619Y-95849533D01*
X163071285Y-95373342D02*
X162071285Y-95373342D01*
X163023666Y-95373342D02*
X163071285Y-95278104D01*
X163071285Y-95087628D01*
X163023666Y-94992390D01*
X162976047Y-94944771D01*
X162880809Y-94897152D01*
X162595095Y-94897152D01*
X162499857Y-94944771D01*
X162452238Y-94992390D01*
X162404619Y-95087628D01*
X162404619Y-95278104D01*
X162452238Y-95373342D01*
X163071285Y-94040009D02*
X162404619Y-94040009D01*
X163071285Y-94468580D02*
X162547476Y-94468580D01*
X162452238Y-94420961D01*
X162404619Y-94325723D01*
X162404619Y-94182866D01*
X162452238Y-94087628D01*
X162499857Y-94040009D01*
X163071285Y-93706676D02*
X163071285Y-93325723D01*
X163404619Y-93563819D02*
X162547476Y-93563819D01*
X162452238Y-93516200D01*
X162404619Y-93420961D01*
X162404619Y-93325723D01*
X162404619Y-92230485D02*
X163404619Y-92230485D01*
X163404619Y-91849533D01*
X163357000Y-91754295D01*
X163309380Y-91706676D01*
X163214142Y-91659057D01*
X163071285Y-91659057D01*
X162976047Y-91706676D01*
X162928428Y-91754295D01*
X162880809Y-91849533D01*
X162880809Y-92230485D01*
X162499857Y-90659057D02*
X162452238Y-90706676D01*
X162404619Y-90849533D01*
X162404619Y-90944771D01*
X162452238Y-91087628D01*
X162547476Y-91182866D01*
X162642714Y-91230485D01*
X162833190Y-91278104D01*
X162976047Y-91278104D01*
X163166523Y-91230485D01*
X163261761Y-91182866D01*
X163357000Y-91087628D01*
X163404619Y-90944771D01*
X163404619Y-90849533D01*
X163357000Y-90706676D01*
X163309380Y-90659057D01*
X163404619Y-89182866D02*
X162690333Y-89182866D01*
X162547476Y-89230485D01*
X162452238Y-89325723D01*
X162404619Y-89468580D01*
X162404619Y-89563819D01*
X163404619Y-88516200D02*
X163404619Y-88325723D01*
X163357000Y-88230485D01*
X163261761Y-88135247D01*
X163071285Y-88087628D01*
X162737952Y-88087628D01*
X162547476Y-88135247D01*
X162452238Y-88230485D01*
X162404619Y-88325723D01*
X162404619Y-88516200D01*
X162452238Y-88611438D01*
X162547476Y-88706676D01*
X162737952Y-88754295D01*
X163071285Y-88754295D01*
X163261761Y-88706676D01*
X163357000Y-88611438D01*
X163404619Y-88516200D01*
X162880809Y-87468580D02*
X162404619Y-87468580D01*
X163404619Y-87801914D02*
X162880809Y-87468580D01*
X163404619Y-87135247D01*
X162452238Y-86849533D02*
X162404619Y-86706676D01*
X162404619Y-86468580D01*
X162452238Y-86373342D01*
X162499857Y-86325723D01*
X162595095Y-86278104D01*
X162690333Y-86278104D01*
X162785571Y-86325723D01*
X162833190Y-86373342D01*
X162880809Y-86468580D01*
X162928428Y-86659057D01*
X162976047Y-86754295D01*
X163023666Y-86801914D01*
X163118904Y-86849533D01*
X163214142Y-86849533D01*
X163309380Y-86801914D01*
X163357000Y-86754295D01*
X163404619Y-86659057D01*
X163404619Y-86420961D01*
X163357000Y-86278104D01*
X163404619Y-85992390D02*
X163404619Y-85420961D01*
X162404619Y-85706676D02*
X163404619Y-85706676D01*
X162404619Y-85087628D02*
X163404619Y-85087628D01*
X162499857Y-84040009D02*
X162452238Y-84087628D01*
X162404619Y-84230485D01*
X162404619Y-84325723D01*
X162452238Y-84468580D01*
X162547476Y-84563819D01*
X162642714Y-84611438D01*
X162833190Y-84659057D01*
X162976047Y-84659057D01*
X163166523Y-84611438D01*
X163261761Y-84563819D01*
X163357000Y-84468580D01*
X163404619Y-84325723D01*
X163404619Y-84230485D01*
X163357000Y-84087628D01*
X163309380Y-84040009D01*
X162404619Y-83611438D02*
X163404619Y-83611438D01*
X162404619Y-83040009D02*
X162976047Y-83468580D01*
X163404619Y-83040009D02*
X162833190Y-83611438D01*
X162690333Y-81897152D02*
X162690333Y-81420961D01*
X162404619Y-81992390D02*
X163404619Y-81659057D01*
X162404619Y-81325723D01*
X162404619Y-80992390D02*
X163404619Y-80992390D01*
X163404619Y-80754295D01*
X163357000Y-80611438D01*
X163261761Y-80516200D01*
X163166523Y-80468580D01*
X162976047Y-80420961D01*
X162833190Y-80420961D01*
X162642714Y-80468580D01*
X162547476Y-80516200D01*
X162452238Y-80611438D01*
X162404619Y-80754295D01*
X162404619Y-80992390D01*
X162690333Y-80040009D02*
X162690333Y-79563819D01*
X162404619Y-80135247D02*
X163404619Y-79801914D01*
X162404619Y-79468580D01*
X162404619Y-79135247D02*
X163404619Y-79135247D01*
X163404619Y-78754295D01*
X163357000Y-78659057D01*
X163309380Y-78611438D01*
X163214142Y-78563819D01*
X163071285Y-78563819D01*
X162976047Y-78611438D01*
X162928428Y-78659057D01*
X162880809Y-78754295D01*
X162880809Y-79135247D01*
X163404619Y-78278104D02*
X163404619Y-77706676D01*
X162404619Y-77992390D02*
X163404619Y-77992390D01*
X162928428Y-77373342D02*
X162928428Y-77040009D01*
X162404619Y-76897152D02*
X162404619Y-77373342D01*
X163404619Y-77373342D01*
X163404619Y-76897152D01*
X162404619Y-75897152D02*
X162880809Y-76230485D01*
X162404619Y-76468580D02*
X163404619Y-76468580D01*
X163404619Y-76087628D01*
X163357000Y-75992390D01*
X163309380Y-75944771D01*
X163214142Y-75897152D01*
X163071285Y-75897152D01*
X162976047Y-75944771D01*
X162928428Y-75992390D01*
X162880809Y-76087628D01*
X162880809Y-76468580D01*
X160794619Y-104825723D02*
X161794619Y-104825723D01*
X160842238Y-104825723D02*
X160794619Y-104920961D01*
X160794619Y-105111438D01*
X160842238Y-105206676D01*
X160889857Y-105254295D01*
X160985095Y-105301914D01*
X161270809Y-105301914D01*
X161366047Y-105254295D01*
X161413666Y-105206676D01*
X161461285Y-105111438D01*
X161461285Y-104920961D01*
X161413666Y-104825723D01*
X160842238Y-103968580D02*
X160794619Y-104063819D01*
X160794619Y-104254295D01*
X160842238Y-104349533D01*
X160937476Y-104397152D01*
X161318428Y-104397152D01*
X161413666Y-104349533D01*
X161461285Y-104254295D01*
X161461285Y-104063819D01*
X161413666Y-103968580D01*
X161318428Y-103920961D01*
X161223190Y-103920961D01*
X161127952Y-104397152D01*
X160842238Y-103540009D02*
X160794619Y-103444771D01*
X160794619Y-103254295D01*
X160842238Y-103159057D01*
X160937476Y-103111438D01*
X160985095Y-103111438D01*
X161080333Y-103159057D01*
X161127952Y-103254295D01*
X161127952Y-103397152D01*
X161175571Y-103492390D01*
X161270809Y-103540009D01*
X161318428Y-103540009D01*
X161413666Y-103492390D01*
X161461285Y-103397152D01*
X161461285Y-103254295D01*
X161413666Y-103159057D01*
X160794619Y-102682866D02*
X161461285Y-102682866D01*
X161794619Y-102682866D02*
X161747000Y-102730485D01*
X161699380Y-102682866D01*
X161747000Y-102635247D01*
X161794619Y-102682866D01*
X161699380Y-102682866D01*
X161461285Y-101778104D02*
X160651761Y-101778104D01*
X160556523Y-101825723D01*
X160508904Y-101873342D01*
X160461285Y-101968580D01*
X160461285Y-102111438D01*
X160508904Y-102206676D01*
X160842238Y-101778104D02*
X160794619Y-101873342D01*
X160794619Y-102063819D01*
X160842238Y-102159057D01*
X160889857Y-102206676D01*
X160985095Y-102254295D01*
X161270809Y-102254295D01*
X161366047Y-102206676D01*
X161413666Y-102159057D01*
X161461285Y-102063819D01*
X161461285Y-101873342D01*
X161413666Y-101778104D01*
X161461285Y-101301914D02*
X160794619Y-101301914D01*
X161366047Y-101301914D02*
X161413666Y-101254295D01*
X161461285Y-101159057D01*
X161461285Y-101016200D01*
X161413666Y-100920961D01*
X161318428Y-100873342D01*
X160794619Y-100873342D01*
X160842238Y-100016200D02*
X160794619Y-100111438D01*
X160794619Y-100301914D01*
X160842238Y-100397152D01*
X160937476Y-100444771D01*
X161318428Y-100444771D01*
X161413666Y-100397152D01*
X161461285Y-100301914D01*
X161461285Y-100111438D01*
X161413666Y-100016200D01*
X161318428Y-99968580D01*
X161223190Y-99968580D01*
X161127952Y-100444771D01*
X160794619Y-99111438D02*
X161794619Y-99111438D01*
X160842238Y-99111438D02*
X160794619Y-99206676D01*
X160794619Y-99397152D01*
X160842238Y-99492390D01*
X160889857Y-99540009D01*
X160985095Y-99587628D01*
X161270809Y-99587628D01*
X161366047Y-99540009D01*
X161413666Y-99492390D01*
X161461285Y-99397152D01*
X161461285Y-99206676D01*
X161413666Y-99111438D01*
X160794619Y-97873342D02*
X161461285Y-97873342D01*
X161794619Y-97873342D02*
X161747000Y-97920961D01*
X161699380Y-97873342D01*
X161747000Y-97825723D01*
X161794619Y-97873342D01*
X161699380Y-97873342D01*
X161461285Y-97397152D02*
X160794619Y-97397152D01*
X161366047Y-97397152D02*
X161413666Y-97349533D01*
X161461285Y-97254295D01*
X161461285Y-97111438D01*
X161413666Y-97016200D01*
X161318428Y-96968580D01*
X160794619Y-96968580D01*
X160842238Y-95778104D02*
X160794619Y-95635247D01*
X160794619Y-95397152D01*
X160842238Y-95301914D01*
X160889857Y-95254295D01*
X160985095Y-95206676D01*
X161080333Y-95206676D01*
X161175571Y-95254295D01*
X161223190Y-95301914D01*
X161270809Y-95397152D01*
X161318428Y-95587628D01*
X161366047Y-95682866D01*
X161413666Y-95730485D01*
X161508904Y-95778104D01*
X161604142Y-95778104D01*
X161699380Y-95730485D01*
X161747000Y-95682866D01*
X161794619Y-95587628D01*
X161794619Y-95349533D01*
X161747000Y-95206676D01*
X160842238Y-94397152D02*
X160794619Y-94492390D01*
X160794619Y-94682866D01*
X160842238Y-94778104D01*
X160937476Y-94825723D01*
X161318428Y-94825723D01*
X161413666Y-94778104D01*
X161461285Y-94682866D01*
X161461285Y-94492390D01*
X161413666Y-94397152D01*
X161318428Y-94349533D01*
X161223190Y-94349533D01*
X161127952Y-94825723D01*
X160794619Y-93920961D02*
X161461285Y-93920961D01*
X161270809Y-93920961D02*
X161366047Y-93873342D01*
X161413666Y-93825723D01*
X161461285Y-93730485D01*
X161461285Y-93635247D01*
X160794619Y-93301914D02*
X161794619Y-93301914D01*
X161413666Y-93301914D02*
X161461285Y-93206676D01*
X161461285Y-93016200D01*
X161413666Y-92920961D01*
X161366047Y-92873342D01*
X161270809Y-92825723D01*
X160985095Y-92825723D01*
X160889857Y-92873342D01*
X160842238Y-92920961D01*
X160794619Y-93016200D01*
X160794619Y-93206676D01*
X160842238Y-93301914D01*
X160794619Y-92397152D02*
X161461285Y-92397152D01*
X161794619Y-92397152D02*
X161747000Y-92444771D01*
X161699380Y-92397152D01*
X161747000Y-92349533D01*
X161794619Y-92397152D01*
X161699380Y-92397152D01*
X160794619Y-91492390D02*
X161318428Y-91492390D01*
X161413666Y-91540009D01*
X161461285Y-91635247D01*
X161461285Y-91825723D01*
X161413666Y-91920961D01*
X160842238Y-91492390D02*
X160794619Y-91587628D01*
X160794619Y-91825723D01*
X160842238Y-91920961D01*
X160937476Y-91968580D01*
X161032714Y-91968580D01*
X161127952Y-91920961D01*
X161175571Y-91825723D01*
X161175571Y-91587628D01*
X161223190Y-91492390D01*
X161461285Y-90397152D02*
X161461285Y-90016200D01*
X160794619Y-90254295D02*
X161651761Y-90254295D01*
X161747000Y-90206676D01*
X161794619Y-90111438D01*
X161794619Y-90016200D01*
X160794619Y-89540009D02*
X160842238Y-89635247D01*
X160889857Y-89682866D01*
X160985095Y-89730485D01*
X161270809Y-89730485D01*
X161366047Y-89682866D01*
X161413666Y-89635247D01*
X161461285Y-89540009D01*
X161461285Y-89397152D01*
X161413666Y-89301914D01*
X161366047Y-89254295D01*
X161270809Y-89206676D01*
X160985095Y-89206676D01*
X160889857Y-89254295D01*
X160842238Y-89301914D01*
X160794619Y-89397152D01*
X160794619Y-89540009D01*
X160794619Y-88778104D02*
X161461285Y-88778104D01*
X161270809Y-88778104D02*
X161366047Y-88730485D01*
X161413666Y-88682866D01*
X161461285Y-88587628D01*
X161461285Y-88492390D01*
X161080333Y-87444771D02*
X161080333Y-86968580D01*
X160794619Y-87540009D02*
X161794619Y-87206676D01*
X160794619Y-86873342D01*
X160794619Y-86540009D02*
X161461285Y-86540009D01*
X161270809Y-86540009D02*
X161366047Y-86492390D01*
X161413666Y-86444771D01*
X161461285Y-86349533D01*
X161461285Y-86254295D01*
X160794619Y-85492390D02*
X161794619Y-85492390D01*
X160842238Y-85492390D02*
X160794619Y-85587628D01*
X160794619Y-85778104D01*
X160842238Y-85873342D01*
X160889857Y-85920961D01*
X160985095Y-85968580D01*
X161270809Y-85968580D01*
X161366047Y-85920961D01*
X161413666Y-85873342D01*
X161461285Y-85778104D01*
X161461285Y-85587628D01*
X161413666Y-85492390D01*
X161461285Y-84587628D02*
X160794619Y-84587628D01*
X161461285Y-85016200D02*
X160937476Y-85016200D01*
X160842238Y-84968580D01*
X160794619Y-84873342D01*
X160794619Y-84730485D01*
X160842238Y-84635247D01*
X160889857Y-84587628D01*
X160794619Y-84111438D02*
X161461285Y-84111438D01*
X161794619Y-84111438D02*
X161747000Y-84159057D01*
X161699380Y-84111438D01*
X161747000Y-84063819D01*
X161794619Y-84111438D01*
X161699380Y-84111438D01*
X161461285Y-83635247D02*
X160794619Y-83635247D01*
X161366047Y-83635247D02*
X161413666Y-83587628D01*
X161461285Y-83492390D01*
X161461285Y-83349533D01*
X161413666Y-83254295D01*
X161318428Y-83206676D01*
X160794619Y-83206676D01*
X160794619Y-82587628D02*
X160842238Y-82682866D01*
X160889857Y-82730485D01*
X160985095Y-82778104D01*
X161270809Y-82778104D01*
X161366047Y-82730485D01*
X161413666Y-82682866D01*
X161461285Y-82587628D01*
X161461285Y-82444771D01*
X161413666Y-82349533D01*
X161366047Y-82301914D01*
X161270809Y-82254295D01*
X160985095Y-82254295D01*
X160889857Y-82301914D01*
X160842238Y-82349533D01*
X160794619Y-82444771D01*
X160794619Y-82587628D01*
X160794619Y-81063819D02*
X161794619Y-81063819D01*
X160794619Y-80492390D01*
X161794619Y-80492390D01*
X160794619Y-79587628D02*
X161318428Y-79587628D01*
X161413666Y-79635247D01*
X161461285Y-79730485D01*
X161461285Y-79920961D01*
X161413666Y-80016200D01*
X160842238Y-79587628D02*
X160794619Y-79682866D01*
X160794619Y-79920961D01*
X160842238Y-80016200D01*
X160937476Y-80063819D01*
X161032714Y-80063819D01*
X161127952Y-80016200D01*
X161175571Y-79920961D01*
X161175571Y-79682866D01*
X161223190Y-79587628D01*
X161461285Y-79111438D02*
X160794619Y-79111438D01*
X161366047Y-79111438D02*
X161413666Y-79063819D01*
X161461285Y-78968580D01*
X161461285Y-78825723D01*
X161413666Y-78730485D01*
X161318428Y-78682866D01*
X160794619Y-78682866D01*
X160794619Y-78063819D02*
X160842238Y-78159057D01*
X160889857Y-78206676D01*
X160985095Y-78254295D01*
X161270809Y-78254295D01*
X161366047Y-78206676D01*
X161413666Y-78159057D01*
X161461285Y-78063819D01*
X161461285Y-77920961D01*
X161413666Y-77825723D01*
X161366047Y-77778104D01*
X161270809Y-77730485D01*
X160985095Y-77730485D01*
X160889857Y-77778104D01*
X160842238Y-77825723D01*
X160794619Y-77920961D01*
X160794619Y-78063819D01*
D11*
X151257380Y-74026190D02*
X150257380Y-74026190D01*
X150257380Y-74445238D01*
X150305000Y-74550000D01*
X150352619Y-74602380D01*
X150447857Y-74654761D01*
X150590714Y-74654761D01*
X150685952Y-74602380D01*
X150733571Y-74550000D01*
X150781190Y-74445238D01*
X150781190Y-74026190D01*
X151162142Y-75754761D02*
X151209761Y-75702380D01*
X151257380Y-75545238D01*
X151257380Y-75440476D01*
X151209761Y-75283333D01*
X151114523Y-75178571D01*
X151019285Y-75126190D01*
X150828809Y-75073809D01*
X150685952Y-75073809D01*
X150495476Y-75126190D01*
X150400238Y-75178571D01*
X150305000Y-75283333D01*
X150257380Y-75440476D01*
X150257380Y-75545238D01*
X150305000Y-75702380D01*
X150352619Y-75754761D01*
X150733571Y-76592857D02*
X150781190Y-76750000D01*
X150828809Y-76802380D01*
X150924047Y-76854761D01*
X151066904Y-76854761D01*
X151162142Y-76802380D01*
X151209761Y-76750000D01*
X151257380Y-76645238D01*
X151257380Y-76226190D01*
X150257380Y-76226190D01*
X150257380Y-76592857D01*
X150305000Y-76697619D01*
X150352619Y-76750000D01*
X150447857Y-76802380D01*
X150543095Y-76802380D01*
X150638333Y-76750000D01*
X150685952Y-76697619D01*
X150733571Y-76592857D01*
X150733571Y-76226190D01*
X151257380Y-78164285D02*
X150257380Y-78164285D01*
X150638333Y-78164285D02*
X150590714Y-78269047D01*
X150590714Y-78478571D01*
X150638333Y-78583333D01*
X150685952Y-78635714D01*
X150781190Y-78688095D01*
X151066904Y-78688095D01*
X151162142Y-78635714D01*
X151209761Y-78583333D01*
X151257380Y-78478571D01*
X151257380Y-78269047D01*
X151209761Y-78164285D01*
X150590714Y-79054761D02*
X151257380Y-79316666D01*
X150590714Y-79578571D02*
X151257380Y-79316666D01*
X151495476Y-79211904D01*
X151543095Y-79159523D01*
X151590714Y-79054761D01*
X150971666Y-80783333D02*
X150971666Y-81307142D01*
X151257380Y-80678571D02*
X150257380Y-81045238D01*
X151257380Y-81411904D01*
X151257380Y-81778571D02*
X150590714Y-81778571D01*
X150685952Y-81778571D02*
X150638333Y-81830952D01*
X150590714Y-81935714D01*
X150590714Y-82092857D01*
X150638333Y-82197619D01*
X150733571Y-82250000D01*
X151257380Y-82250000D01*
X150733571Y-82250000D02*
X150638333Y-82302380D01*
X150590714Y-82407142D01*
X150590714Y-82564285D01*
X150638333Y-82669047D01*
X150733571Y-82721428D01*
X151257380Y-82721428D01*
X151257380Y-83245238D02*
X150590714Y-83245238D01*
X150257380Y-83245238D02*
X150305000Y-83192857D01*
X150352619Y-83245238D01*
X150305000Y-83297619D01*
X150257380Y-83245238D01*
X150352619Y-83245238D01*
X150590714Y-84240476D02*
X151400238Y-84240476D01*
X151495476Y-84188095D01*
X151543095Y-84135714D01*
X151590714Y-84030952D01*
X151590714Y-83873809D01*
X151543095Y-83769047D01*
X151209761Y-84240476D02*
X151257380Y-84135714D01*
X151257380Y-83926190D01*
X151209761Y-83821428D01*
X151162142Y-83769047D01*
X151066904Y-83716666D01*
X150781190Y-83716666D01*
X150685952Y-83769047D01*
X150638333Y-83821428D01*
X150590714Y-83926190D01*
X150590714Y-84135714D01*
X150638333Y-84240476D01*
X150733571Y-84764285D02*
X150733571Y-85130952D01*
X151257380Y-85288095D02*
X151257380Y-84764285D01*
X150257380Y-84764285D01*
X150257380Y-85288095D01*
X151257380Y-86230952D02*
X150733571Y-86230952D01*
X150638333Y-86178571D01*
X150590714Y-86073809D01*
X150590714Y-85864285D01*
X150638333Y-85759523D01*
X151209761Y-86230952D02*
X151257380Y-86126190D01*
X151257380Y-85864285D01*
X151209761Y-85759523D01*
X151114523Y-85707142D01*
X151019285Y-85707142D01*
X150924047Y-85759523D01*
X150876428Y-85864285D01*
X150876428Y-86126190D01*
X150828809Y-86230952D01*
X151209761Y-86702380D02*
X151257380Y-86807142D01*
X151257380Y-87016666D01*
X151209761Y-87121428D01*
X151114523Y-87173809D01*
X151066904Y-87173809D01*
X150971666Y-87121428D01*
X150924047Y-87016666D01*
X150924047Y-86859523D01*
X150876428Y-86754761D01*
X150781190Y-86702380D01*
X150733571Y-86702380D01*
X150638333Y-86754761D01*
X150590714Y-86859523D01*
X150590714Y-87016666D01*
X150638333Y-87121428D01*
X150590714Y-87488095D02*
X150590714Y-87907142D01*
X150257380Y-87645238D02*
X151114523Y-87645238D01*
X151209761Y-87697619D01*
X151257380Y-87802380D01*
X151257380Y-87907142D01*
X151209761Y-88326190D02*
X151257380Y-88326190D01*
X151352619Y-88273809D01*
X151400238Y-88221428D01*
X151257380Y-90107142D02*
X150257380Y-90107142D01*
X151209761Y-90107142D02*
X151257380Y-90002380D01*
X151257380Y-89792857D01*
X151209761Y-89688095D01*
X151162142Y-89635714D01*
X151066904Y-89583333D01*
X150781190Y-89583333D01*
X150685952Y-89635714D01*
X150638333Y-89688095D01*
X150590714Y-89792857D01*
X150590714Y-90002380D01*
X150638333Y-90107142D01*
X151209761Y-91050000D02*
X151257380Y-90945238D01*
X151257380Y-90735714D01*
X151209761Y-90630952D01*
X151114523Y-90578571D01*
X150733571Y-90578571D01*
X150638333Y-90630952D01*
X150590714Y-90735714D01*
X150590714Y-90945238D01*
X150638333Y-91050000D01*
X150733571Y-91102380D01*
X150828809Y-91102380D01*
X150924047Y-90578571D01*
X151209761Y-91521428D02*
X151257380Y-91626190D01*
X151257380Y-91835714D01*
X151209761Y-91940476D01*
X151114523Y-91992857D01*
X151066904Y-91992857D01*
X150971666Y-91940476D01*
X150924047Y-91835714D01*
X150924047Y-91678571D01*
X150876428Y-91573809D01*
X150781190Y-91521428D01*
X150733571Y-91521428D01*
X150638333Y-91573809D01*
X150590714Y-91678571D01*
X150590714Y-91835714D01*
X150638333Y-91940476D01*
X151257380Y-92464285D02*
X150590714Y-92464285D01*
X150257380Y-92464285D02*
X150305000Y-92411904D01*
X150352619Y-92464285D01*
X150305000Y-92516666D01*
X150257380Y-92464285D01*
X150352619Y-92464285D01*
X150590714Y-93459523D02*
X151400238Y-93459523D01*
X151495476Y-93407142D01*
X151543095Y-93354761D01*
X151590714Y-93250000D01*
X151590714Y-93092857D01*
X151543095Y-92988095D01*
X151209761Y-93459523D02*
X151257380Y-93354761D01*
X151257380Y-93145238D01*
X151209761Y-93040476D01*
X151162142Y-92988095D01*
X151066904Y-92935714D01*
X150781190Y-92935714D01*
X150685952Y-92988095D01*
X150638333Y-93040476D01*
X150590714Y-93145238D01*
X150590714Y-93354761D01*
X150638333Y-93459523D01*
X150590714Y-93983333D02*
X151257380Y-93983333D01*
X150685952Y-93983333D02*
X150638333Y-94035714D01*
X150590714Y-94140476D01*
X150590714Y-94297619D01*
X150638333Y-94402380D01*
X150733571Y-94454761D01*
X151257380Y-94454761D01*
X151209761Y-95397619D02*
X151257380Y-95292857D01*
X151257380Y-95083333D01*
X151209761Y-94978571D01*
X151114523Y-94926190D01*
X150733571Y-94926190D01*
X150638333Y-94978571D01*
X150590714Y-95083333D01*
X150590714Y-95292857D01*
X150638333Y-95397619D01*
X150733571Y-95450000D01*
X150828809Y-95450000D01*
X150924047Y-94926190D01*
X151257380Y-96392857D02*
X150257380Y-96392857D01*
X151209761Y-96392857D02*
X151257380Y-96288095D01*
X151257380Y-96078571D01*
X151209761Y-95973809D01*
X151162142Y-95921428D01*
X151066904Y-95869047D01*
X150781190Y-95869047D01*
X150685952Y-95921428D01*
X150638333Y-95973809D01*
X150590714Y-96078571D01*
X150590714Y-96288095D01*
X150638333Y-96392857D01*
X151257380Y-97754761D02*
X150590714Y-97754761D01*
X150257380Y-97754761D02*
X150305000Y-97702380D01*
X150352619Y-97754761D01*
X150305000Y-97807142D01*
X150257380Y-97754761D01*
X150352619Y-97754761D01*
X150590714Y-98278571D02*
X151257380Y-98278571D01*
X150685952Y-98278571D02*
X150638333Y-98330952D01*
X150590714Y-98435714D01*
X150590714Y-98592857D01*
X150638333Y-98697619D01*
X150733571Y-98750000D01*
X151257380Y-98750000D01*
X151209761Y-100059523D02*
X151257380Y-100216666D01*
X151257380Y-100478571D01*
X151209761Y-100583333D01*
X151162142Y-100635714D01*
X151066904Y-100688095D01*
X150971666Y-100688095D01*
X150876428Y-100635714D01*
X150828809Y-100583333D01*
X150781190Y-100478571D01*
X150733571Y-100269047D01*
X150685952Y-100164285D01*
X150638333Y-100111904D01*
X150543095Y-100059523D01*
X150447857Y-100059523D01*
X150352619Y-100111904D01*
X150305000Y-100164285D01*
X150257380Y-100269047D01*
X150257380Y-100530952D01*
X150305000Y-100688095D01*
X151209761Y-101578571D02*
X151257380Y-101473809D01*
X151257380Y-101264285D01*
X151209761Y-101159523D01*
X151114523Y-101107142D01*
X150733571Y-101107142D01*
X150638333Y-101159523D01*
X150590714Y-101264285D01*
X150590714Y-101473809D01*
X150638333Y-101578571D01*
X150733571Y-101630952D01*
X150828809Y-101630952D01*
X150924047Y-101107142D01*
X151257380Y-102102380D02*
X150590714Y-102102380D01*
X150781190Y-102102380D02*
X150685952Y-102154761D01*
X150638333Y-102207142D01*
X150590714Y-102311904D01*
X150590714Y-102416666D01*
X151257380Y-102783333D02*
X150257380Y-102783333D01*
X150638333Y-102783333D02*
X150590714Y-102888095D01*
X150590714Y-103097619D01*
X150638333Y-103202380D01*
X150685952Y-103254761D01*
X150781190Y-103307142D01*
X151066904Y-103307142D01*
X151162142Y-103254761D01*
X151209761Y-103202380D01*
X151257380Y-103097619D01*
X151257380Y-102888095D01*
X151209761Y-102783333D01*
X151257380Y-103778571D02*
X150590714Y-103778571D01*
X150257380Y-103778571D02*
X150305000Y-103726190D01*
X150352619Y-103778571D01*
X150305000Y-103830952D01*
X150257380Y-103778571D01*
X150352619Y-103778571D01*
X151257380Y-104773809D02*
X150733571Y-104773809D01*
X150638333Y-104721428D01*
X150590714Y-104616666D01*
X150590714Y-104407142D01*
X150638333Y-104302380D01*
X151209761Y-104773809D02*
X151257380Y-104669047D01*
X151257380Y-104407142D01*
X151209761Y-104302380D01*
X151114523Y-104250000D01*
X151019285Y-104250000D01*
X150924047Y-104302380D01*
X150876428Y-104407142D01*
X150876428Y-104669047D01*
X150828809Y-104773809D01*
X151867380Y-62738095D02*
X152867380Y-63000000D01*
X152153095Y-63209523D01*
X152867380Y-63419047D01*
X151867380Y-63680952D01*
X152867380Y-64100000D02*
X152200714Y-64100000D01*
X151867380Y-64100000D02*
X151915000Y-64047619D01*
X151962619Y-64100000D01*
X151915000Y-64152380D01*
X151867380Y-64100000D01*
X151962619Y-64100000D01*
X152867380Y-64623809D02*
X152200714Y-64623809D01*
X152391190Y-64623809D02*
X152295952Y-64676190D01*
X152248333Y-64728571D01*
X152200714Y-64833333D01*
X152200714Y-64938095D01*
X152819761Y-65723809D02*
X152867380Y-65619047D01*
X152867380Y-65409523D01*
X152819761Y-65304761D01*
X152724523Y-65252380D01*
X152343571Y-65252380D01*
X152248333Y-65304761D01*
X152200714Y-65409523D01*
X152200714Y-65619047D01*
X152248333Y-65723809D01*
X152343571Y-65776190D01*
X152438809Y-65776190D01*
X152534047Y-65252380D01*
X152867380Y-66719047D02*
X151867380Y-66719047D01*
X152819761Y-66719047D02*
X152867380Y-66614285D01*
X152867380Y-66404761D01*
X152819761Y-66300000D01*
X152772142Y-66247619D01*
X152676904Y-66195238D01*
X152391190Y-66195238D01*
X152295952Y-66247619D01*
X152248333Y-66300000D01*
X152200714Y-66404761D01*
X152200714Y-66614285D01*
X152248333Y-66719047D01*
X152200714Y-67923809D02*
X152200714Y-68342857D01*
X152867380Y-68080952D02*
X152010238Y-68080952D01*
X151915000Y-68133333D01*
X151867380Y-68238095D01*
X151867380Y-68342857D01*
X152867380Y-68866666D02*
X152819761Y-68761904D01*
X152772142Y-68709523D01*
X152676904Y-68657142D01*
X152391190Y-68657142D01*
X152295952Y-68709523D01*
X152248333Y-68761904D01*
X152200714Y-68866666D01*
X152200714Y-69023809D01*
X152248333Y-69128571D01*
X152295952Y-69180952D01*
X152391190Y-69233333D01*
X152676904Y-69233333D01*
X152772142Y-69180952D01*
X152819761Y-69128571D01*
X152867380Y-69023809D01*
X152867380Y-68866666D01*
X152867380Y-69704761D02*
X152200714Y-69704761D01*
X152391190Y-69704761D02*
X152295952Y-69757142D01*
X152248333Y-69809523D01*
X152200714Y-69914285D01*
X152200714Y-70019047D01*
X152867380Y-71223809D02*
X151867380Y-71223809D01*
X152867380Y-71695238D02*
X152343571Y-71695238D01*
X152248333Y-71642857D01*
X152200714Y-71538095D01*
X152200714Y-71380952D01*
X152248333Y-71276190D01*
X152295952Y-71223809D01*
X152200714Y-72061904D02*
X152200714Y-72480952D01*
X151867380Y-72219047D02*
X152724523Y-72219047D01*
X152819761Y-72271428D01*
X152867380Y-72376190D01*
X152867380Y-72480952D01*
X152200714Y-72690476D02*
X152200714Y-73109523D01*
X151867380Y-72847619D02*
X152724523Y-72847619D01*
X152819761Y-72900000D01*
X152867380Y-73004761D01*
X152867380Y-73109523D01*
X152200714Y-73476190D02*
X153200714Y-73476190D01*
X152248333Y-73476190D02*
X152200714Y-73580952D01*
X152200714Y-73790476D01*
X152248333Y-73895238D01*
X152295952Y-73947619D01*
X152391190Y-74000000D01*
X152676904Y-74000000D01*
X152772142Y-73947619D01*
X152819761Y-73895238D01*
X152867380Y-73790476D01*
X152867380Y-73580952D01*
X152819761Y-73476190D01*
X152819761Y-74419047D02*
X152867380Y-74523809D01*
X152867380Y-74733333D01*
X152819761Y-74838095D01*
X152724523Y-74890476D01*
X152676904Y-74890476D01*
X152581666Y-74838095D01*
X152534047Y-74733333D01*
X152534047Y-74576190D01*
X152486428Y-74471428D01*
X152391190Y-74419047D01*
X152343571Y-74419047D01*
X152248333Y-74471428D01*
X152200714Y-74576190D01*
X152200714Y-74733333D01*
X152248333Y-74838095D01*
X152772142Y-75361904D02*
X152819761Y-75414285D01*
X152867380Y-75361904D01*
X152819761Y-75309523D01*
X152772142Y-75361904D01*
X152867380Y-75361904D01*
X152248333Y-75361904D02*
X152295952Y-75414285D01*
X152343571Y-75361904D01*
X152295952Y-75309523D01*
X152248333Y-75361904D01*
X152343571Y-75361904D01*
X151819761Y-76671428D02*
X153105476Y-75728571D01*
X151819761Y-77823809D02*
X153105476Y-76880952D01*
X152200714Y-78661904D02*
X153010238Y-78661904D01*
X153105476Y-78609523D01*
X153153095Y-78557142D01*
X153200714Y-78452380D01*
X153200714Y-78295238D01*
X153153095Y-78190476D01*
X152819761Y-78661904D02*
X152867380Y-78557142D01*
X152867380Y-78347619D01*
X152819761Y-78242857D01*
X152772142Y-78190476D01*
X152676904Y-78138095D01*
X152391190Y-78138095D01*
X152295952Y-78190476D01*
X152248333Y-78242857D01*
X152200714Y-78347619D01*
X152200714Y-78557142D01*
X152248333Y-78661904D01*
X152867380Y-79185714D02*
X152200714Y-79185714D01*
X151867380Y-79185714D02*
X151915000Y-79133333D01*
X151962619Y-79185714D01*
X151915000Y-79238095D01*
X151867380Y-79185714D01*
X151962619Y-79185714D01*
X152200714Y-79552380D02*
X152200714Y-79971428D01*
X151867380Y-79709523D02*
X152724523Y-79709523D01*
X152819761Y-79761904D01*
X152867380Y-79866666D01*
X152867380Y-79971428D01*
X152867380Y-80338095D02*
X151867380Y-80338095D01*
X152867380Y-80809523D02*
X152343571Y-80809523D01*
X152248333Y-80757142D01*
X152200714Y-80652380D01*
X152200714Y-80495238D01*
X152248333Y-80390476D01*
X152295952Y-80338095D01*
X152200714Y-81804761D02*
X152867380Y-81804761D01*
X152200714Y-81333333D02*
X152724523Y-81333333D01*
X152819761Y-81385714D01*
X152867380Y-81490476D01*
X152867380Y-81647619D01*
X152819761Y-81752380D01*
X152772142Y-81804761D01*
X152867380Y-82328571D02*
X151867380Y-82328571D01*
X152248333Y-82328571D02*
X152200714Y-82433333D01*
X152200714Y-82642857D01*
X152248333Y-82747619D01*
X152295952Y-82800000D01*
X152391190Y-82852380D01*
X152676904Y-82852380D01*
X152772142Y-82800000D01*
X152819761Y-82747619D01*
X152867380Y-82642857D01*
X152867380Y-82433333D01*
X152819761Y-82328571D01*
X152772142Y-83323809D02*
X152819761Y-83376190D01*
X152867380Y-83323809D01*
X152819761Y-83271428D01*
X152772142Y-83323809D01*
X152867380Y-83323809D01*
X152819761Y-84319047D02*
X152867380Y-84214285D01*
X152867380Y-84004761D01*
X152819761Y-83900000D01*
X152772142Y-83847619D01*
X152676904Y-83795238D01*
X152391190Y-83795238D01*
X152295952Y-83847619D01*
X152248333Y-83900000D01*
X152200714Y-84004761D01*
X152200714Y-84214285D01*
X152248333Y-84319047D01*
X152867380Y-84947619D02*
X152819761Y-84842857D01*
X152772142Y-84790476D01*
X152676904Y-84738095D01*
X152391190Y-84738095D01*
X152295952Y-84790476D01*
X152248333Y-84842857D01*
X152200714Y-84947619D01*
X152200714Y-85104761D01*
X152248333Y-85209523D01*
X152295952Y-85261904D01*
X152391190Y-85314285D01*
X152676904Y-85314285D01*
X152772142Y-85261904D01*
X152819761Y-85209523D01*
X152867380Y-85104761D01*
X152867380Y-84947619D01*
X152867380Y-85785714D02*
X152200714Y-85785714D01*
X152295952Y-85785714D02*
X152248333Y-85838095D01*
X152200714Y-85942857D01*
X152200714Y-86100000D01*
X152248333Y-86204761D01*
X152343571Y-86257142D01*
X152867380Y-86257142D01*
X152343571Y-86257142D02*
X152248333Y-86309523D01*
X152200714Y-86414285D01*
X152200714Y-86571428D01*
X152248333Y-86676190D01*
X152343571Y-86728571D01*
X152867380Y-86728571D01*
X151819761Y-88038095D02*
X153105476Y-87095238D01*
X152867380Y-88876190D02*
X152343571Y-88876190D01*
X152248333Y-88823809D01*
X152200714Y-88719047D01*
X152200714Y-88509523D01*
X152248333Y-88404761D01*
X152819761Y-88876190D02*
X152867380Y-88771428D01*
X152867380Y-88509523D01*
X152819761Y-88404761D01*
X152724523Y-88352380D01*
X152629285Y-88352380D01*
X152534047Y-88404761D01*
X152486428Y-88509523D01*
X152486428Y-88771428D01*
X152438809Y-88876190D01*
X152819761Y-89347619D02*
X152867380Y-89452380D01*
X152867380Y-89661904D01*
X152819761Y-89766666D01*
X152724523Y-89819047D01*
X152676904Y-89819047D01*
X152581666Y-89766666D01*
X152534047Y-89661904D01*
X152534047Y-89504761D01*
X152486428Y-89400000D01*
X152391190Y-89347619D01*
X152343571Y-89347619D01*
X152248333Y-89400000D01*
X152200714Y-89504761D01*
X152200714Y-89661904D01*
X152248333Y-89766666D01*
X152867380Y-90290476D02*
X152200714Y-90290476D01*
X151867380Y-90290476D02*
X151915000Y-90238095D01*
X151962619Y-90290476D01*
X151915000Y-90342857D01*
X151867380Y-90290476D01*
X151962619Y-90290476D01*
X152200714Y-91285714D02*
X153010238Y-91285714D01*
X153105476Y-91233333D01*
X153153095Y-91180952D01*
X153200714Y-91076190D01*
X153200714Y-90919047D01*
X153153095Y-90814285D01*
X152819761Y-91285714D02*
X152867380Y-91180952D01*
X152867380Y-90971428D01*
X152819761Y-90866666D01*
X152772142Y-90814285D01*
X152676904Y-90761904D01*
X152391190Y-90761904D01*
X152295952Y-90814285D01*
X152248333Y-90866666D01*
X152200714Y-90971428D01*
X152200714Y-91180952D01*
X152248333Y-91285714D01*
X151819761Y-92595238D02*
X153105476Y-91652380D01*
X152867380Y-93433333D02*
X152343571Y-93433333D01*
X152248333Y-93380952D01*
X152200714Y-93276190D01*
X152200714Y-93066666D01*
X152248333Y-92961904D01*
X152819761Y-93433333D02*
X152867380Y-93328571D01*
X152867380Y-93066666D01*
X152819761Y-92961904D01*
X152724523Y-92909523D01*
X152629285Y-92909523D01*
X152534047Y-92961904D01*
X152486428Y-93066666D01*
X152486428Y-93328571D01*
X152438809Y-93433333D01*
X152867380Y-93957142D02*
X152200714Y-93957142D01*
X152295952Y-93957142D02*
X152248333Y-94009523D01*
X152200714Y-94114285D01*
X152200714Y-94271428D01*
X152248333Y-94376190D01*
X152343571Y-94428571D01*
X152867380Y-94428571D01*
X152343571Y-94428571D02*
X152248333Y-94480952D01*
X152200714Y-94585714D01*
X152200714Y-94742857D01*
X152248333Y-94847619D01*
X152343571Y-94900000D01*
X152867380Y-94900000D01*
X152867380Y-95423809D02*
X152200714Y-95423809D01*
X151867380Y-95423809D02*
X151915000Y-95371428D01*
X151962619Y-95423809D01*
X151915000Y-95476190D01*
X151867380Y-95423809D01*
X151962619Y-95423809D01*
X152200714Y-96419047D02*
X153010238Y-96419047D01*
X153105476Y-96366666D01*
X153153095Y-96314285D01*
X153200714Y-96209523D01*
X153200714Y-96052380D01*
X153153095Y-95947619D01*
X152819761Y-96419047D02*
X152867380Y-96314285D01*
X152867380Y-96104761D01*
X152819761Y-96000000D01*
X152772142Y-95947619D01*
X152676904Y-95895238D01*
X152391190Y-95895238D01*
X152295952Y-95947619D01*
X152248333Y-96000000D01*
X152200714Y-96104761D01*
X152200714Y-96314285D01*
X152248333Y-96419047D01*
X152867380Y-97414285D02*
X152343571Y-97414285D01*
X152248333Y-97361904D01*
X152200714Y-97257142D01*
X152200714Y-97047619D01*
X152248333Y-96942857D01*
X152819761Y-97414285D02*
X152867380Y-97309523D01*
X152867380Y-97047619D01*
X152819761Y-96942857D01*
X152724523Y-96890476D01*
X152629285Y-96890476D01*
X152534047Y-96942857D01*
X152486428Y-97047619D01*
X152486428Y-97309523D01*
X152438809Y-97414285D01*
X152486428Y-97938095D02*
X152486428Y-98776190D01*
X152200714Y-99300000D02*
X153200714Y-99300000D01*
X152248333Y-99300000D02*
X152200714Y-99404761D01*
X152200714Y-99614285D01*
X152248333Y-99719047D01*
X152295952Y-99771428D01*
X152391190Y-99823809D01*
X152676904Y-99823809D01*
X152772142Y-99771428D01*
X152819761Y-99719047D01*
X152867380Y-99614285D01*
X152867380Y-99404761D01*
X152819761Y-99300000D01*
X152819761Y-100242857D02*
X152867380Y-100347619D01*
X152867380Y-100557142D01*
X152819761Y-100661904D01*
X152724523Y-100714285D01*
X152676904Y-100714285D01*
X152581666Y-100661904D01*
X152534047Y-100557142D01*
X152534047Y-100400000D01*
X152486428Y-100295238D01*
X152391190Y-100242857D01*
X152343571Y-100242857D01*
X152248333Y-100295238D01*
X152200714Y-100400000D01*
X152200714Y-100557142D01*
X152248333Y-100661904D01*
X151962619Y-101133333D02*
X151915000Y-101185714D01*
X151867380Y-101290476D01*
X151867380Y-101552380D01*
X151915000Y-101657142D01*
X151962619Y-101709523D01*
X152057857Y-101761904D01*
X152153095Y-101761904D01*
X152295952Y-101709523D01*
X152867380Y-101080952D01*
X152867380Y-101761904D01*
X152486428Y-102233333D02*
X152486428Y-103071428D01*
X152867380Y-103595238D02*
X152200714Y-103595238D01*
X152295952Y-103595238D02*
X152248333Y-103647619D01*
X152200714Y-103752380D01*
X152200714Y-103909523D01*
X152248333Y-104014285D01*
X152343571Y-104066666D01*
X152867380Y-104066666D01*
X152343571Y-104066666D02*
X152248333Y-104119047D01*
X152200714Y-104223809D01*
X152200714Y-104380952D01*
X152248333Y-104485714D01*
X152343571Y-104538095D01*
X152867380Y-104538095D01*
X152867380Y-105219047D02*
X152819761Y-105114285D01*
X152772142Y-105061904D01*
X152676904Y-105009523D01*
X152391190Y-105009523D01*
X152295952Y-105061904D01*
X152248333Y-105114285D01*
X152200714Y-105219047D01*
X152200714Y-105376190D01*
X152248333Y-105480952D01*
X152295952Y-105533333D01*
X152391190Y-105585714D01*
X152676904Y-105585714D01*
X152772142Y-105533333D01*
X152819761Y-105480952D01*
X152867380Y-105376190D01*
X152867380Y-105219047D01*
X152200714Y-106528571D02*
X152867380Y-106528571D01*
X152200714Y-106057142D02*
X152724523Y-106057142D01*
X152819761Y-106109523D01*
X152867380Y-106214285D01*
X152867380Y-106371428D01*
X152819761Y-106476190D01*
X152772142Y-106528571D01*
X152819761Y-107000000D02*
X152867380Y-107104761D01*
X152867380Y-107314285D01*
X152819761Y-107419047D01*
X152724523Y-107471428D01*
X152676904Y-107471428D01*
X152581666Y-107419047D01*
X152534047Y-107314285D01*
X152534047Y-107157142D01*
X152486428Y-107052380D01*
X152391190Y-107000000D01*
X152343571Y-107000000D01*
X152248333Y-107052380D01*
X152200714Y-107157142D01*
X152200714Y-107314285D01*
X152248333Y-107419047D01*
X152819761Y-108361904D02*
X152867380Y-108257142D01*
X152867380Y-108047619D01*
X152819761Y-107942857D01*
X152724523Y-107890476D01*
X152343571Y-107890476D01*
X152248333Y-107942857D01*
X152200714Y-108047619D01*
X152200714Y-108257142D01*
X152248333Y-108361904D01*
X152343571Y-108414285D01*
X152438809Y-108414285D01*
X152534047Y-107890476D01*
X152486428Y-108885714D02*
X152486428Y-109723809D01*
X152867380Y-110719047D02*
X152343571Y-110719047D01*
X152248333Y-110666666D01*
X152200714Y-110561904D01*
X152200714Y-110352380D01*
X152248333Y-110247619D01*
X152819761Y-110719047D02*
X152867380Y-110614285D01*
X152867380Y-110352380D01*
X152819761Y-110247619D01*
X152724523Y-110195238D01*
X152629285Y-110195238D01*
X152534047Y-110247619D01*
X152486428Y-110352380D01*
X152486428Y-110614285D01*
X152438809Y-110719047D01*
X152867380Y-111714285D02*
X151867380Y-111714285D01*
X152819761Y-111714285D02*
X152867380Y-111609523D01*
X152867380Y-111399999D01*
X152819761Y-111295238D01*
X152772142Y-111242857D01*
X152676904Y-111190476D01*
X152391190Y-111190476D01*
X152295952Y-111242857D01*
X152248333Y-111295238D01*
X152200714Y-111399999D01*
X152200714Y-111609523D01*
X152248333Y-111714285D01*
X152867380Y-112709523D02*
X152343571Y-112709523D01*
X152248333Y-112657142D01*
X152200714Y-112552380D01*
X152200714Y-112342857D01*
X152248333Y-112238095D01*
X152819761Y-112709523D02*
X152867380Y-112604761D01*
X152867380Y-112342857D01*
X152819761Y-112238095D01*
X152724523Y-112185714D01*
X152629285Y-112185714D01*
X152534047Y-112238095D01*
X152486428Y-112342857D01*
X152486428Y-112604761D01*
X152438809Y-112709523D01*
X152200714Y-113233333D02*
X153200714Y-113233333D01*
X152248333Y-113233333D02*
X152200714Y-113338095D01*
X152200714Y-113547619D01*
X152248333Y-113652380D01*
X152295952Y-113704761D01*
X152391190Y-113757142D01*
X152676904Y-113757142D01*
X152772142Y-113704761D01*
X152819761Y-113652380D01*
X152867380Y-113547619D01*
X152867380Y-113338095D01*
X152819761Y-113233333D01*
X152200714Y-114071428D02*
X152200714Y-114490476D01*
X151867380Y-114228571D02*
X152724523Y-114228571D01*
X152819761Y-114280952D01*
X152867380Y-114385714D01*
X152867380Y-114490476D01*
X152819761Y-115276190D02*
X152867380Y-115171428D01*
X152867380Y-114961904D01*
X152819761Y-114857142D01*
X152724523Y-114804761D01*
X152343571Y-114804761D01*
X152248333Y-114857142D01*
X152200714Y-114961904D01*
X152200714Y-115171428D01*
X152248333Y-115276190D01*
X152343571Y-115328571D01*
X152438809Y-115328571D01*
X152534047Y-114804761D01*
X152867380Y-115799999D02*
X152200714Y-115799999D01*
X152391190Y-115799999D02*
X152295952Y-115852380D01*
X152248333Y-115904761D01*
X152200714Y-116009523D01*
X152200714Y-116114285D01*
X174051942Y-112132971D02*
X174023371Y-112047257D01*
X174023371Y-111904400D01*
X174051942Y-111847257D01*
X174080514Y-111818685D01*
X174137657Y-111790114D01*
X174194800Y-111790114D01*
X174251942Y-111818685D01*
X174280514Y-111847257D01*
X174309085Y-111904400D01*
X174337657Y-112018685D01*
X174366228Y-112075828D01*
X174394800Y-112104400D01*
X174451942Y-112132971D01*
X174509085Y-112132971D01*
X174566228Y-112104400D01*
X174594800Y-112075828D01*
X174623371Y-112018685D01*
X174623371Y-111875828D01*
X174594800Y-111790114D01*
X174023371Y-111532971D02*
X174623371Y-111532971D01*
X174623371Y-111390114D01*
X174594800Y-111304400D01*
X174537657Y-111247257D01*
X174480514Y-111218685D01*
X174366228Y-111190114D01*
X174280514Y-111190114D01*
X174166228Y-111218685D01*
X174109085Y-111247257D01*
X174051942Y-111304400D01*
X174023371Y-111390114D01*
X174023371Y-111532971D01*
X174194800Y-110961542D02*
X174194800Y-110675828D01*
X174023371Y-111018685D02*
X174623371Y-110818685D01*
X174023371Y-110618685D01*
%TO.C,CONFIG*%
X175003580Y-69469371D02*
X175027390Y-69493180D01*
X175098819Y-69516990D01*
X175146438Y-69516990D01*
X175217866Y-69493180D01*
X175265485Y-69445561D01*
X175289295Y-69397942D01*
X175313104Y-69302704D01*
X175313104Y-69231276D01*
X175289295Y-69136038D01*
X175265485Y-69088419D01*
X175217866Y-69040800D01*
X175146438Y-69016990D01*
X175098819Y-69016990D01*
X175027390Y-69040800D01*
X175003580Y-69064609D01*
X174694057Y-69016990D02*
X174598819Y-69016990D01*
X174551200Y-69040800D01*
X174503580Y-69088419D01*
X174479771Y-69183657D01*
X174479771Y-69350323D01*
X174503580Y-69445561D01*
X174551200Y-69493180D01*
X174598819Y-69516990D01*
X174694057Y-69516990D01*
X174741676Y-69493180D01*
X174789295Y-69445561D01*
X174813104Y-69350323D01*
X174813104Y-69183657D01*
X174789295Y-69088419D01*
X174741676Y-69040800D01*
X174694057Y-69016990D01*
X174265485Y-69516990D02*
X174265485Y-69016990D01*
X173979771Y-69516990D01*
X173979771Y-69016990D01*
X173575009Y-69255085D02*
X173741676Y-69255085D01*
X173741676Y-69516990D02*
X173741676Y-69016990D01*
X173503580Y-69016990D01*
X173313104Y-69516990D02*
X173313104Y-69016990D01*
X172813104Y-69040800D02*
X172860723Y-69016990D01*
X172932152Y-69016990D01*
X173003580Y-69040800D01*
X173051200Y-69088419D01*
X173075009Y-69136038D01*
X173098819Y-69231276D01*
X173098819Y-69302704D01*
X173075009Y-69397942D01*
X173051200Y-69445561D01*
X173003580Y-69493180D01*
X172932152Y-69516990D01*
X172884533Y-69516990D01*
X172813104Y-69493180D01*
X172789295Y-69469371D01*
X172789295Y-69302704D01*
X172884533Y-69302704D01*
%TD*%
%LPC*%
D13*
X133851666Y-75386190D02*
X133851666Y-75862380D01*
X134137380Y-75290952D02*
X133137380Y-75624285D01*
X134137380Y-75957619D01*
X134137380Y-76290952D02*
X133470714Y-76290952D01*
X133565952Y-76290952D02*
X133518333Y-76338571D01*
X133470714Y-76433809D01*
X133470714Y-76576666D01*
X133518333Y-76671904D01*
X133613571Y-76719523D01*
X134137380Y-76719523D01*
X133613571Y-76719523D02*
X133518333Y-76767142D01*
X133470714Y-76862380D01*
X133470714Y-77005238D01*
X133518333Y-77100476D01*
X133613571Y-77148095D01*
X134137380Y-77148095D01*
X134137380Y-77624285D02*
X133470714Y-77624285D01*
X133137380Y-77624285D02*
X133185000Y-77576666D01*
X133232619Y-77624285D01*
X133185000Y-77671904D01*
X133137380Y-77624285D01*
X133232619Y-77624285D01*
X133470714Y-78529047D02*
X134280238Y-78529047D01*
X134375476Y-78481428D01*
X134423095Y-78433809D01*
X134470714Y-78338571D01*
X134470714Y-78195714D01*
X134423095Y-78100476D01*
X134089761Y-78529047D02*
X134137380Y-78433809D01*
X134137380Y-78243333D01*
X134089761Y-78148095D01*
X134042142Y-78100476D01*
X133946904Y-78052857D01*
X133661190Y-78052857D01*
X133565952Y-78100476D01*
X133518333Y-78148095D01*
X133470714Y-78243333D01*
X133470714Y-78433809D01*
X133518333Y-78529047D01*
X134137380Y-79433809D02*
X133613571Y-79433809D01*
X133518333Y-79386190D01*
X133470714Y-79290952D01*
X133470714Y-79100476D01*
X133518333Y-79005238D01*
X134089761Y-79433809D02*
X134137380Y-79338571D01*
X134137380Y-79100476D01*
X134089761Y-79005238D01*
X133994523Y-78957619D01*
X133899285Y-78957619D01*
X133804047Y-79005238D01*
X133756428Y-79100476D01*
X133756428Y-79338571D01*
X133708809Y-79433809D01*
X134137380Y-80671904D02*
X133137380Y-80671904D01*
X133137380Y-81052857D01*
X133185000Y-81148095D01*
X133232619Y-81195714D01*
X133327857Y-81243333D01*
X133470714Y-81243333D01*
X133565952Y-81195714D01*
X133613571Y-81148095D01*
X133661190Y-81052857D01*
X133661190Y-80671904D01*
X134089761Y-81624285D02*
X134137380Y-81767142D01*
X134137380Y-82005238D01*
X134089761Y-82100476D01*
X134042142Y-82148095D01*
X133946904Y-82195714D01*
X133851666Y-82195714D01*
X133756428Y-82148095D01*
X133708809Y-82100476D01*
X133661190Y-82005238D01*
X133613571Y-81814761D01*
X133565952Y-81719523D01*
X133518333Y-81671904D01*
X133423095Y-81624285D01*
X133327857Y-81624285D01*
X133232619Y-81671904D01*
X133185000Y-81719523D01*
X133137380Y-81814761D01*
X133137380Y-82052857D01*
X133185000Y-82195714D01*
X133089761Y-83338571D02*
X134375476Y-82481428D01*
X133232619Y-83624285D02*
X133185000Y-83671904D01*
X133137380Y-83767142D01*
X133137380Y-84005238D01*
X133185000Y-84100476D01*
X133232619Y-84148095D01*
X133327857Y-84195714D01*
X133423095Y-84195714D01*
X133565952Y-84148095D01*
X134137380Y-83576666D01*
X134137380Y-84195714D01*
X134137380Y-85814761D02*
X133613571Y-85814761D01*
X133518333Y-85767142D01*
X133470714Y-85671904D01*
X133470714Y-85481428D01*
X133518333Y-85386190D01*
X134089761Y-85814761D02*
X134137380Y-85719523D01*
X134137380Y-85481428D01*
X134089761Y-85386190D01*
X133994523Y-85338571D01*
X133899285Y-85338571D01*
X133804047Y-85386190D01*
X133756428Y-85481428D01*
X133756428Y-85719523D01*
X133708809Y-85814761D01*
X134137380Y-86719523D02*
X133137380Y-86719523D01*
X134089761Y-86719523D02*
X134137380Y-86624285D01*
X134137380Y-86433809D01*
X134089761Y-86338571D01*
X134042142Y-86290952D01*
X133946904Y-86243333D01*
X133661190Y-86243333D01*
X133565952Y-86290952D01*
X133518333Y-86338571D01*
X133470714Y-86433809D01*
X133470714Y-86624285D01*
X133518333Y-86719523D01*
X134137380Y-87624285D02*
X133613571Y-87624285D01*
X133518333Y-87576666D01*
X133470714Y-87481428D01*
X133470714Y-87290952D01*
X133518333Y-87195714D01*
X134089761Y-87624285D02*
X134137380Y-87529047D01*
X134137380Y-87290952D01*
X134089761Y-87195714D01*
X133994523Y-87148095D01*
X133899285Y-87148095D01*
X133804047Y-87195714D01*
X133756428Y-87290952D01*
X133756428Y-87529047D01*
X133708809Y-87624285D01*
X133470714Y-88100476D02*
X134470714Y-88100476D01*
X133518333Y-88100476D02*
X133470714Y-88195714D01*
X133470714Y-88386190D01*
X133518333Y-88481428D01*
X133565952Y-88529047D01*
X133661190Y-88576666D01*
X133946904Y-88576666D01*
X134042142Y-88529047D01*
X134089761Y-88481428D01*
X134137380Y-88386190D01*
X134137380Y-88195714D01*
X134089761Y-88100476D01*
X133470714Y-88862380D02*
X133470714Y-89243333D01*
X133137380Y-89005238D02*
X133994523Y-89005238D01*
X134089761Y-89052857D01*
X134137380Y-89148095D01*
X134137380Y-89243333D01*
X134089761Y-89957619D02*
X134137380Y-89862380D01*
X134137380Y-89671904D01*
X134089761Y-89576666D01*
X133994523Y-89529047D01*
X133613571Y-89529047D01*
X133518333Y-89576666D01*
X133470714Y-89671904D01*
X133470714Y-89862380D01*
X133518333Y-89957619D01*
X133613571Y-90005238D01*
X133708809Y-90005238D01*
X133804047Y-89529047D01*
X134137380Y-90433809D02*
X133470714Y-90433809D01*
X133661190Y-90433809D02*
X133565952Y-90481428D01*
X133518333Y-90529047D01*
X133470714Y-90624285D01*
X133470714Y-90719523D01*
X133851666Y-91767142D02*
X133851666Y-92243333D01*
X134137380Y-91671904D02*
X133137380Y-92005238D01*
X134137380Y-92338571D01*
X134137380Y-92671904D02*
X133470714Y-92671904D01*
X133661190Y-92671904D02*
X133565952Y-92719523D01*
X133518333Y-92767142D01*
X133470714Y-92862380D01*
X133470714Y-92957619D01*
X134137380Y-93719523D02*
X133137380Y-93719523D01*
X134089761Y-93719523D02*
X134137380Y-93624285D01*
X134137380Y-93433809D01*
X134089761Y-93338571D01*
X134042142Y-93290952D01*
X133946904Y-93243333D01*
X133661190Y-93243333D01*
X133565952Y-93290952D01*
X133518333Y-93338571D01*
X133470714Y-93433809D01*
X133470714Y-93624285D01*
X133518333Y-93719523D01*
X133470714Y-94624285D02*
X134137380Y-94624285D01*
X133470714Y-94195714D02*
X133994523Y-94195714D01*
X134089761Y-94243333D01*
X134137380Y-94338571D01*
X134137380Y-94481428D01*
X134089761Y-94576666D01*
X134042142Y-94624285D01*
X134137380Y-95100476D02*
X133470714Y-95100476D01*
X133137380Y-95100476D02*
X133185000Y-95052857D01*
X133232619Y-95100476D01*
X133185000Y-95148095D01*
X133137380Y-95100476D01*
X133232619Y-95100476D01*
X133470714Y-95576666D02*
X134137380Y-95576666D01*
X133565952Y-95576666D02*
X133518333Y-95624285D01*
X133470714Y-95719523D01*
X133470714Y-95862380D01*
X133518333Y-95957619D01*
X133613571Y-96005238D01*
X134137380Y-96005238D01*
X134137380Y-96624285D02*
X134089761Y-96529047D01*
X134042142Y-96481428D01*
X133946904Y-96433809D01*
X133661190Y-96433809D01*
X133565952Y-96481428D01*
X133518333Y-96529047D01*
X133470714Y-96624285D01*
X133470714Y-96767142D01*
X133518333Y-96862380D01*
X133565952Y-96909999D01*
X133661190Y-96957619D01*
X133946904Y-96957619D01*
X134042142Y-96909999D01*
X134089761Y-96862380D01*
X134137380Y-96767142D01*
X134137380Y-96624285D01*
X133470714Y-98148095D02*
X134470714Y-98148095D01*
X133518333Y-98148095D02*
X133470714Y-98243333D01*
X133470714Y-98433809D01*
X133518333Y-98529047D01*
X133565952Y-98576666D01*
X133661190Y-98624285D01*
X133946904Y-98624285D01*
X134042142Y-98576666D01*
X134089761Y-98529047D01*
X134137380Y-98433809D01*
X134137380Y-98243333D01*
X134089761Y-98148095D01*
X134137380Y-99052857D02*
X133470714Y-99052857D01*
X133661190Y-99052857D02*
X133565952Y-99100476D01*
X133518333Y-99148095D01*
X133470714Y-99243333D01*
X133470714Y-99338571D01*
X134137380Y-99814761D02*
X134089761Y-99719523D01*
X134042142Y-99671904D01*
X133946904Y-99624285D01*
X133661190Y-99624285D01*
X133565952Y-99671904D01*
X133518333Y-99719523D01*
X133470714Y-99814761D01*
X133470714Y-99957619D01*
X133518333Y-100052857D01*
X133565952Y-100100476D01*
X133661190Y-100148095D01*
X133946904Y-100148095D01*
X134042142Y-100100476D01*
X134089761Y-100052857D01*
X134137380Y-99957619D01*
X134137380Y-99814761D01*
X133470714Y-101005238D02*
X134280238Y-101005238D01*
X134375476Y-100957619D01*
X134423095Y-100909999D01*
X134470714Y-100814761D01*
X134470714Y-100671904D01*
X134423095Y-100576666D01*
X134089761Y-101005238D02*
X134137380Y-100909999D01*
X134137380Y-100719523D01*
X134089761Y-100624285D01*
X134042142Y-100576666D01*
X133946904Y-100529047D01*
X133661190Y-100529047D01*
X133565952Y-100576666D01*
X133518333Y-100624285D01*
X133470714Y-100719523D01*
X133470714Y-100909999D01*
X133518333Y-101005238D01*
X134137380Y-101481428D02*
X133470714Y-101481428D01*
X133661190Y-101481428D02*
X133565952Y-101529047D01*
X133518333Y-101576666D01*
X133470714Y-101671904D01*
X133470714Y-101767142D01*
X134137380Y-102529047D02*
X133613571Y-102529047D01*
X133518333Y-102481428D01*
X133470714Y-102386190D01*
X133470714Y-102195714D01*
X133518333Y-102100476D01*
X134089761Y-102529047D02*
X134137380Y-102433809D01*
X134137380Y-102195714D01*
X134089761Y-102100476D01*
X133994523Y-102052857D01*
X133899285Y-102052857D01*
X133804047Y-102100476D01*
X133756428Y-102195714D01*
X133756428Y-102433809D01*
X133708809Y-102529047D01*
X134137380Y-103005238D02*
X133470714Y-103005238D01*
X133565952Y-103005238D02*
X133518333Y-103052857D01*
X133470714Y-103148095D01*
X133470714Y-103290952D01*
X133518333Y-103386190D01*
X133613571Y-103433809D01*
X134137380Y-103433809D01*
X133613571Y-103433809D02*
X133518333Y-103481428D01*
X133470714Y-103576666D01*
X133470714Y-103719523D01*
X133518333Y-103814761D01*
X133613571Y-103862380D01*
X134137380Y-103862380D01*
X134137380Y-104338571D02*
X133470714Y-104338571D01*
X133565952Y-104338571D02*
X133518333Y-104386190D01*
X133470714Y-104481428D01*
X133470714Y-104624285D01*
X133518333Y-104719523D01*
X133613571Y-104767142D01*
X134137380Y-104767142D01*
X133613571Y-104767142D02*
X133518333Y-104814761D01*
X133470714Y-104909999D01*
X133470714Y-105052857D01*
X133518333Y-105148095D01*
X133613571Y-105195714D01*
X134137380Y-105195714D01*
X134137380Y-106100476D02*
X133613571Y-106100476D01*
X133518333Y-106052857D01*
X133470714Y-105957619D01*
X133470714Y-105767142D01*
X133518333Y-105671904D01*
X134089761Y-106100476D02*
X134137380Y-106005238D01*
X134137380Y-105767142D01*
X134089761Y-105671904D01*
X133994523Y-105624285D01*
X133899285Y-105624285D01*
X133804047Y-105671904D01*
X133756428Y-105767142D01*
X133756428Y-106005238D01*
X133708809Y-106100476D01*
X134137380Y-106576666D02*
X133137380Y-106576666D01*
X133518333Y-106576666D02*
X133470714Y-106671904D01*
X133470714Y-106862380D01*
X133518333Y-106957619D01*
X133565952Y-107005238D01*
X133661190Y-107052857D01*
X133946904Y-107052857D01*
X134042142Y-107005238D01*
X134089761Y-106957619D01*
X134137380Y-106862380D01*
X134137380Y-106671904D01*
X134089761Y-106576666D01*
X134137380Y-107624285D02*
X134089761Y-107529047D01*
X133994523Y-107481428D01*
X133137380Y-107481428D01*
X134089761Y-108386190D02*
X134137380Y-108290952D01*
X134137380Y-108100476D01*
X134089761Y-108005238D01*
X133994523Y-107957619D01*
X133613571Y-107957619D01*
X133518333Y-108005238D01*
X133470714Y-108100476D01*
X133470714Y-108290952D01*
X133518333Y-108386190D01*
X133613571Y-108433809D01*
X133708809Y-108433809D01*
X133804047Y-107957619D01*
X135747380Y-76219523D02*
X134747380Y-76219523D01*
X135223571Y-76219523D02*
X135223571Y-76790952D01*
X135747380Y-76790952D02*
X134747380Y-76790952D01*
X135747380Y-77695714D02*
X135223571Y-77695714D01*
X135128333Y-77648095D01*
X135080714Y-77552857D01*
X135080714Y-77362380D01*
X135128333Y-77267142D01*
X135699761Y-77695714D02*
X135747380Y-77600476D01*
X135747380Y-77362380D01*
X135699761Y-77267142D01*
X135604523Y-77219523D01*
X135509285Y-77219523D01*
X135414047Y-77267142D01*
X135366428Y-77362380D01*
X135366428Y-77600476D01*
X135318809Y-77695714D01*
X135747380Y-78171904D02*
X135080714Y-78171904D01*
X135271190Y-78171904D02*
X135175952Y-78219523D01*
X135128333Y-78267142D01*
X135080714Y-78362380D01*
X135080714Y-78457619D01*
X135747380Y-79219523D02*
X134747380Y-79219523D01*
X135699761Y-79219523D02*
X135747380Y-79124285D01*
X135747380Y-78933809D01*
X135699761Y-78838571D01*
X135652142Y-78790952D01*
X135556904Y-78743333D01*
X135271190Y-78743333D01*
X135175952Y-78790952D01*
X135128333Y-78838571D01*
X135080714Y-78933809D01*
X135080714Y-79124285D01*
X135128333Y-79219523D01*
X135080714Y-79600476D02*
X135747380Y-79790952D01*
X135271190Y-79981428D01*
X135747380Y-80171904D01*
X135080714Y-80362380D01*
X135747380Y-81171904D02*
X135223571Y-81171904D01*
X135128333Y-81124285D01*
X135080714Y-81029047D01*
X135080714Y-80838571D01*
X135128333Y-80743333D01*
X135699761Y-81171904D02*
X135747380Y-81076666D01*
X135747380Y-80838571D01*
X135699761Y-80743333D01*
X135604523Y-80695714D01*
X135509285Y-80695714D01*
X135414047Y-80743333D01*
X135366428Y-80838571D01*
X135366428Y-81076666D01*
X135318809Y-81171904D01*
X135747380Y-81648095D02*
X135080714Y-81648095D01*
X135271190Y-81648095D02*
X135175952Y-81695714D01*
X135128333Y-81743333D01*
X135080714Y-81838571D01*
X135080714Y-81933809D01*
X135699761Y-82648095D02*
X135747380Y-82552857D01*
X135747380Y-82362380D01*
X135699761Y-82267142D01*
X135604523Y-82219523D01*
X135223571Y-82219523D01*
X135128333Y-82267142D01*
X135080714Y-82362380D01*
X135080714Y-82552857D01*
X135128333Y-82648095D01*
X135223571Y-82695714D01*
X135318809Y-82695714D01*
X135414047Y-82219523D01*
X135747380Y-84314761D02*
X134747380Y-84314761D01*
X135699761Y-84314761D02*
X135747380Y-84219523D01*
X135747380Y-84029047D01*
X135699761Y-83933809D01*
X135652142Y-83886190D01*
X135556904Y-83838571D01*
X135271190Y-83838571D01*
X135175952Y-83886190D01*
X135128333Y-83933809D01*
X135080714Y-84029047D01*
X135080714Y-84219523D01*
X135128333Y-84314761D01*
X135699761Y-85171904D02*
X135747380Y-85076666D01*
X135747380Y-84886190D01*
X135699761Y-84790952D01*
X135604523Y-84743333D01*
X135223571Y-84743333D01*
X135128333Y-84790952D01*
X135080714Y-84886190D01*
X135080714Y-85076666D01*
X135128333Y-85171904D01*
X135223571Y-85219523D01*
X135318809Y-85219523D01*
X135414047Y-84743333D01*
X135699761Y-85600476D02*
X135747380Y-85695714D01*
X135747380Y-85886190D01*
X135699761Y-85981428D01*
X135604523Y-86029047D01*
X135556904Y-86029047D01*
X135461666Y-85981428D01*
X135414047Y-85886190D01*
X135414047Y-85743333D01*
X135366428Y-85648095D01*
X135271190Y-85600476D01*
X135223571Y-85600476D01*
X135128333Y-85648095D01*
X135080714Y-85743333D01*
X135080714Y-85886190D01*
X135128333Y-85981428D01*
X135747380Y-86457619D02*
X135080714Y-86457619D01*
X134747380Y-86457619D02*
X134795000Y-86410000D01*
X134842619Y-86457619D01*
X134795000Y-86505238D01*
X134747380Y-86457619D01*
X134842619Y-86457619D01*
X135080714Y-87362380D02*
X135890238Y-87362380D01*
X135985476Y-87314761D01*
X136033095Y-87267142D01*
X136080714Y-87171904D01*
X136080714Y-87029047D01*
X136033095Y-86933809D01*
X135699761Y-87362380D02*
X135747380Y-87267142D01*
X135747380Y-87076666D01*
X135699761Y-86981428D01*
X135652142Y-86933809D01*
X135556904Y-86886190D01*
X135271190Y-86886190D01*
X135175952Y-86933809D01*
X135128333Y-86981428D01*
X135080714Y-87076666D01*
X135080714Y-87267142D01*
X135128333Y-87362380D01*
X135080714Y-87838571D02*
X135747380Y-87838571D01*
X135175952Y-87838571D02*
X135128333Y-87886190D01*
X135080714Y-87981428D01*
X135080714Y-88124285D01*
X135128333Y-88219523D01*
X135223571Y-88267142D01*
X135747380Y-88267142D01*
X135699761Y-89124285D02*
X135747380Y-89029047D01*
X135747380Y-88838571D01*
X135699761Y-88743333D01*
X135604523Y-88695714D01*
X135223571Y-88695714D01*
X135128333Y-88743333D01*
X135080714Y-88838571D01*
X135080714Y-89029047D01*
X135128333Y-89124285D01*
X135223571Y-89171904D01*
X135318809Y-89171904D01*
X135414047Y-88695714D01*
X135747380Y-90029047D02*
X134747380Y-90029047D01*
X135699761Y-90029047D02*
X135747380Y-89933809D01*
X135747380Y-89743333D01*
X135699761Y-89648095D01*
X135652142Y-89600476D01*
X135556904Y-89552857D01*
X135271190Y-89552857D01*
X135175952Y-89600476D01*
X135128333Y-89648095D01*
X135080714Y-89743333D01*
X135080714Y-89933809D01*
X135128333Y-90029047D01*
X135747380Y-91267142D02*
X134747380Y-91267142D01*
X135128333Y-91267142D02*
X135080714Y-91362380D01*
X135080714Y-91552857D01*
X135128333Y-91648095D01*
X135175952Y-91695714D01*
X135271190Y-91743333D01*
X135556904Y-91743333D01*
X135652142Y-91695714D01*
X135699761Y-91648095D01*
X135747380Y-91552857D01*
X135747380Y-91362380D01*
X135699761Y-91267142D01*
X135080714Y-92076666D02*
X135747380Y-92314761D01*
X135080714Y-92552857D02*
X135747380Y-92314761D01*
X135985476Y-92219523D01*
X136033095Y-92171904D01*
X136080714Y-92076666D01*
X135461666Y-93648095D02*
X135461666Y-94124285D01*
X135747380Y-93552857D02*
X134747380Y-93886190D01*
X135747380Y-94219523D01*
X135747380Y-94552857D02*
X135080714Y-94552857D01*
X135175952Y-94552857D02*
X135128333Y-94600476D01*
X135080714Y-94695714D01*
X135080714Y-94838571D01*
X135128333Y-94933809D01*
X135223571Y-94981428D01*
X135747380Y-94981428D01*
X135223571Y-94981428D02*
X135128333Y-95029047D01*
X135080714Y-95124285D01*
X135080714Y-95267142D01*
X135128333Y-95362380D01*
X135223571Y-95409999D01*
X135747380Y-95409999D01*
X135747380Y-95886190D02*
X135080714Y-95886190D01*
X134747380Y-95886190D02*
X134795000Y-95838571D01*
X134842619Y-95886190D01*
X134795000Y-95933809D01*
X134747380Y-95886190D01*
X134842619Y-95886190D01*
X135080714Y-96790952D02*
X135890238Y-96790952D01*
X135985476Y-96743333D01*
X136033095Y-96695714D01*
X136080714Y-96600476D01*
X136080714Y-96457619D01*
X136033095Y-96362380D01*
X135699761Y-96790952D02*
X135747380Y-96695714D01*
X135747380Y-96505238D01*
X135699761Y-96409999D01*
X135652142Y-96362380D01*
X135556904Y-96314761D01*
X135271190Y-96314761D01*
X135175952Y-96362380D01*
X135128333Y-96409999D01*
X135080714Y-96505238D01*
X135080714Y-96695714D01*
X135128333Y-96790952D01*
X135223571Y-97267142D02*
X135223571Y-97600476D01*
X135747380Y-97743333D02*
X135747380Y-97267142D01*
X134747380Y-97267142D01*
X134747380Y-97743333D01*
X135747380Y-98600476D02*
X135223571Y-98600476D01*
X135128333Y-98552857D01*
X135080714Y-98457619D01*
X135080714Y-98267142D01*
X135128333Y-98171904D01*
X135699761Y-98600476D02*
X135747380Y-98505238D01*
X135747380Y-98267142D01*
X135699761Y-98171904D01*
X135604523Y-98124285D01*
X135509285Y-98124285D01*
X135414047Y-98171904D01*
X135366428Y-98267142D01*
X135366428Y-98505238D01*
X135318809Y-98600476D01*
X135699761Y-99029047D02*
X135747380Y-99124285D01*
X135747380Y-99314761D01*
X135699761Y-99409999D01*
X135604523Y-99457619D01*
X135556904Y-99457619D01*
X135461666Y-99409999D01*
X135414047Y-99314761D01*
X135414047Y-99171904D01*
X135366428Y-99076666D01*
X135271190Y-99029047D01*
X135223571Y-99029047D01*
X135128333Y-99076666D01*
X135080714Y-99171904D01*
X135080714Y-99314761D01*
X135128333Y-99409999D01*
X135080714Y-99743333D02*
X135080714Y-100124285D01*
X134747380Y-99886190D02*
X135604523Y-99886190D01*
X135699761Y-99933809D01*
X135747380Y-100029047D01*
X135747380Y-100124285D01*
X135747380Y-101219523D02*
X135080714Y-101219523D01*
X134747380Y-101219523D02*
X134795000Y-101171904D01*
X134842619Y-101219523D01*
X134795000Y-101267142D01*
X134747380Y-101219523D01*
X134842619Y-101219523D01*
X135080714Y-101695714D02*
X135747380Y-101695714D01*
X135175952Y-101695714D02*
X135128333Y-101743333D01*
X135080714Y-101838571D01*
X135080714Y-101981428D01*
X135128333Y-102076666D01*
X135223571Y-102124285D01*
X135747380Y-102124285D01*
X135699761Y-103314761D02*
X135747380Y-103457619D01*
X135747380Y-103695714D01*
X135699761Y-103790952D01*
X135652142Y-103838571D01*
X135556904Y-103886190D01*
X135461666Y-103886190D01*
X135366428Y-103838571D01*
X135318809Y-103790952D01*
X135271190Y-103695714D01*
X135223571Y-103505238D01*
X135175952Y-103409999D01*
X135128333Y-103362380D01*
X135033095Y-103314761D01*
X134937857Y-103314761D01*
X134842619Y-103362380D01*
X134795000Y-103409999D01*
X134747380Y-103505238D01*
X134747380Y-103743333D01*
X134795000Y-103886190D01*
X135699761Y-104695714D02*
X135747380Y-104600476D01*
X135747380Y-104409999D01*
X135699761Y-104314761D01*
X135604523Y-104267142D01*
X135223571Y-104267142D01*
X135128333Y-104314761D01*
X135080714Y-104409999D01*
X135080714Y-104600476D01*
X135128333Y-104695714D01*
X135223571Y-104743333D01*
X135318809Y-104743333D01*
X135414047Y-104267142D01*
X135747380Y-105171904D02*
X135080714Y-105171904D01*
X135271190Y-105171904D02*
X135175952Y-105219523D01*
X135128333Y-105267142D01*
X135080714Y-105362380D01*
X135080714Y-105457619D01*
X135747380Y-105790952D02*
X134747380Y-105790952D01*
X135128333Y-105790952D02*
X135080714Y-105886190D01*
X135080714Y-106076666D01*
X135128333Y-106171904D01*
X135175952Y-106219523D01*
X135271190Y-106267142D01*
X135556904Y-106267142D01*
X135652142Y-106219523D01*
X135699761Y-106171904D01*
X135747380Y-106076666D01*
X135747380Y-105886190D01*
X135699761Y-105790952D01*
X135747380Y-106695714D02*
X135080714Y-106695714D01*
X134747380Y-106695714D02*
X134795000Y-106648095D01*
X134842619Y-106695714D01*
X134795000Y-106743333D01*
X134747380Y-106695714D01*
X134842619Y-106695714D01*
X135747380Y-107600476D02*
X135223571Y-107600476D01*
X135128333Y-107552857D01*
X135080714Y-107457619D01*
X135080714Y-107267142D01*
X135128333Y-107171904D01*
X135699761Y-107600476D02*
X135747380Y-107505238D01*
X135747380Y-107267142D01*
X135699761Y-107171904D01*
X135604523Y-107124285D01*
X135509285Y-107124285D01*
X135414047Y-107171904D01*
X135366428Y-107267142D01*
X135366428Y-107505238D01*
X135318809Y-107600476D01*
D14*
%TO.C,P1*%
X139446000Y-71247000D03*
X139446000Y-73787000D03*
X139446000Y-76327000D03*
X139446000Y-78867000D03*
X139446000Y-81407000D03*
X139446000Y-83947000D03*
X139446000Y-86487000D03*
X139446000Y-91567000D03*
X139446000Y-94107000D03*
X139446000Y-96647000D03*
X139446000Y-99187000D03*
X139446000Y-101727000D03*
X139446000Y-104267000D03*
X139446000Y-106807000D03*
X139446000Y-89027000D03*
%TD*%
%TO.C,P2*%
X154686000Y-71247000D03*
X154686000Y-73787000D03*
X154686000Y-76327000D03*
X154686000Y-78867000D03*
X154686000Y-81407000D03*
X154686000Y-83947000D03*
X154686000Y-86487000D03*
X154686000Y-89027000D03*
X154686000Y-91567000D03*
X154686000Y-94107000D03*
X154686000Y-96647000D03*
X154686000Y-99187000D03*
X154686000Y-101727000D03*
X154686000Y-104267000D03*
X154686000Y-106807000D03*
%TD*%
D15*
%TO.C,P3*%
X139446000Y-68707000D03*
%TD*%
%TO.C,P4*%
X139446000Y-109347000D03*
%TD*%
%TO.C,P5*%
X154686000Y-109347000D03*
%TD*%
%TO.C,P6*%
X154686000Y-68707000D03*
%TD*%
D14*
%TO.C,*%
X173959507Y-97770000D03*
%TD*%
%TO.C,*%
X173959507Y-85070000D03*
%TD*%
D16*
%TO.C,REF\u002A\u002A*%
X162458400Y-71780400D03*
D17*
X162458400Y-69240400D03*
%TD*%
D18*
%TO.C,*%
X165384200Y-93759200D03*
%TD*%
D14*
%TO.C,*%
X173959507Y-95230000D03*
%TD*%
%TO.C,*%
X158750000Y-80010000D03*
%TD*%
D18*
%TO.C,*%
X165384200Y-96529200D03*
%TD*%
D14*
%TO.C,*%
X173959507Y-100310000D03*
%TD*%
%TO.C,*%
X173959507Y-90150000D03*
%TD*%
%TO.C,*%
X173959507Y-87610000D03*
%TD*%
D18*
%TO.C,*%
X165384200Y-102069200D03*
%TD*%
D16*
%TO.C,CONFIG*%
X171181000Y-69367000D03*
D17*
X168641000Y-69367000D03*
X166101000Y-69367000D03*
%TD*%
D18*
%TO.C,*%
X168224200Y-89604200D03*
%TD*%
D14*
%TO.C,*%
X158750000Y-87630000D03*
%TD*%
D19*
%TO.C,Female DSUB9 connector*%
X134741000Y-116632000D03*
X159741000Y-116632000D03*
D18*
X148626000Y-119172000D03*
X145856000Y-119172000D03*
X150011000Y-116332000D03*
X144471000Y-116332000D03*
X151396000Y-119172000D03*
X141701000Y-116332000D03*
X143086000Y-119172000D03*
D20*
X152781000Y-116332000D03*
D18*
X147241000Y-116332000D03*
%TD*%
D21*
%TO.C,DIODE*%
X146470000Y-113010000D03*
D22*
X156630000Y-113010000D03*
%TD*%
D14*
%TO.C,*%
X158750000Y-95250000D03*
%TD*%
D18*
%TO.C,*%
X168224200Y-95144200D03*
%TD*%
%TO.C,*%
X168224200Y-84064200D03*
%TD*%
D23*
%TO.C,J1*%
X143568000Y-60706000D03*
X150368000Y-60706000D03*
D24*
X146968000Y-56906000D03*
X140218000Y-57706000D03*
X153718000Y-57706000D03*
D23*
X143568000Y-63206000D03*
X150368000Y-63206000D03*
X145668000Y-60706000D03*
X148268000Y-60706000D03*
%TD*%
D20*
%TO.C,*%
X168224200Y-103454200D03*
%TD*%
D16*
%TO.C,REF\u002A\u002A*%
X173020000Y-111175000D03*
D17*
X170480000Y-111175000D03*
X167940000Y-111175000D03*
X165400000Y-111175000D03*
%TD*%
D14*
%TO.C,*%
X158750000Y-77470000D03*
%TD*%
D18*
%TO.C,*%
X165384200Y-90989200D03*
%TD*%
D14*
%TO.C,*%
X173959507Y-82530000D03*
%TD*%
D18*
%TO.C,*%
X168224200Y-100684200D03*
%TD*%
D14*
%TO.C,*%
X173959507Y-92690000D03*
%TD*%
%TO.C,*%
X158750000Y-97790000D03*
%TD*%
D18*
%TO.C,*%
X168224200Y-97914200D03*
%TD*%
D25*
%TO.C,MouseDPI*%
X164846000Y-62126000D03*
X164846000Y-55626000D03*
X160346000Y-62126000D03*
X160346000Y-55626000D03*
%TD*%
D16*
%TO.C,REF\u002A\u002A*%
X150469600Y-71221600D03*
%TD*%
D18*
%TO.C,*%
X165384200Y-99299200D03*
%TD*%
%TO.C,*%
X165384200Y-85449200D03*
%TD*%
D14*
%TO.C,*%
X158750000Y-72390000D03*
%TD*%
%TO.C,*%
X158750000Y-92710000D03*
%TD*%
D18*
%TO.C,*%
X168224200Y-86834200D03*
%TD*%
%TO.C,*%
X165384200Y-88219200D03*
%TD*%
%TO.C,*%
X168224200Y-92374200D03*
%TD*%
M02*
