%FSLAX45Y45*%
G04 Gerber Fmt 4.5, Leading zero omitted, Abs format (unit mm)*
G04 Created by KiCad (PCBNEW (6.0.2)) date 2024-04-09 06:49:31*
%MOMM*%
%LPD*%
G01*
G04 APERTURE LIST*
%TA.AperFunction,Profile*%
%ADD10C,0.100000*%
%TD*%
%ADD11C,0.200000*%
%ADD12C,0.030000*%
%ADD13C,0.040000*%
%ADD14C,0.076200*%
%ADD15C,0.090000*%
%ADD16C,0.100000*%
%ADD17C,0.101600*%
%ADD18C,0.110000*%
%ADD19C,0.177800*%
%ADD20C,0.205000*%
%ADD21C,0.230000*%
%ADD22C,0.320000*%
G04 APERTURE END LIST*
D10*
X17602648Y-11281547D02*
X17549000Y-11323000D01*
X17597120Y-5359400D02*
X15671800Y-5359400D01*
X13220000Y-12190000D02*
X16230600Y-12192000D01*
X15494000Y-5359400D02*
X13716000Y-5359400D01*
X17596768Y-5359400D02*
X17602648Y-11267000D01*
X13220000Y-12190000D02*
X13220000Y-11574050D01*
X16230000Y-11349000D02*
X16229000Y-11321000D01*
X17602648Y-11267000D02*
X17602648Y-11281547D01*
X16230000Y-11349000D02*
X16230600Y-12192000D01*
X13220000Y-5359400D02*
X13220000Y-11574050D01*
X15671800Y-5359400D02*
X15494000Y-5359400D01*
X13716000Y-5359400D02*
X13220000Y-5359400D01*
X17549000Y-11323000D02*
X16229000Y-11321000D01*
D11*
D12*
X16743000Y-7244000D02*
X16773000Y-7274000D01*
X16773000Y-7244000D02*
X16743000Y-7274000D01*
D13*
X14028100Y-6616700D02*
G75*
G03*
X14028100Y-6616700I-20000J0D01*
G01*
X14218600Y-6616700D02*
G75*
G03*
X14218600Y-6616700I-20000J0D01*
G01*
X14332000Y-9456000D02*
G75*
G03*
X14332000Y-9456000I-20000J0D01*
G01*
X14358300Y-5892800D02*
G75*
G03*
X14358300Y-5892800I-20000J0D01*
G01*
X14421800Y-10172700D02*
G75*
G03*
X14421800Y-10172700I-20000J0D01*
G01*
X14421800Y-10426700D02*
G75*
G03*
X14421800Y-10426700I-20000J0D01*
G01*
X14438000Y-9699000D02*
G75*
G03*
X14438000Y-9699000I-20000J0D01*
G01*
X14447200Y-10680700D02*
G75*
G03*
X14447200Y-10680700I-20000J0D01*
G01*
X14480000Y-7400000D02*
G75*
G03*
X14480000Y-7400000I-20000J0D01*
G01*
X14498000Y-9232900D02*
G75*
G03*
X14498000Y-9232900I-20000J0D01*
G01*
X14615000Y-8960000D02*
G75*
G03*
X14615000Y-8960000I-20000J0D01*
G01*
X14615000Y-9375000D02*
G75*
G03*
X14615000Y-9375000I-20000J0D01*
G01*
X14764700Y-9867900D02*
G75*
G03*
X14764700Y-9867900I-20000J0D01*
G01*
X14779000Y-10170000D02*
G75*
G03*
X14779000Y-10170000I-20000J0D01*
G01*
X14855000Y-7485000D02*
G75*
G03*
X14855000Y-7485000I-20000J0D01*
G01*
X14855000Y-7975000D02*
G75*
G03*
X14855000Y-7975000I-20000J0D01*
G01*
X14897968Y-11737968D02*
G75*
G03*
X14897968Y-11737968I-20000J0D01*
G01*
X14898000Y-9971000D02*
G75*
G03*
X14898000Y-9971000I-20000J0D01*
G01*
X14917100Y-11518900D02*
G75*
G03*
X14917100Y-11518900I-20000J0D01*
G01*
X14929800Y-10426700D02*
G75*
G03*
X14929800Y-10426700I-20000J0D01*
G01*
X14940000Y-9420000D02*
G75*
G03*
X14940000Y-9420000I-20000J0D01*
G01*
X14950000Y-9060000D02*
G75*
G03*
X14950000Y-9060000I-20000J0D01*
G01*
X14993300Y-5880100D02*
G75*
G03*
X14993300Y-5880100I-20000J0D01*
G01*
X15004750Y-10680000D02*
G75*
G03*
X15004750Y-10680000I-20000J0D01*
G01*
X15018700Y-11798300D02*
G75*
G03*
X15018700Y-11798300I-20000J0D01*
G01*
X15050000Y-10790000D02*
G75*
G03*
X15050000Y-10790000I-20000J0D01*
G01*
X15065000Y-7485000D02*
G75*
G03*
X15065000Y-7485000I-20000J0D01*
G01*
X15069500Y-10528300D02*
G75*
G03*
X15069500Y-10528300I-20000J0D01*
G01*
X15221900Y-9931400D02*
G75*
G03*
X15221900Y-9931400I-20000J0D01*
G01*
X15234600Y-10528300D02*
G75*
G03*
X15234600Y-10528300I-20000J0D01*
G01*
X15323500Y-11798300D02*
G75*
G03*
X15323500Y-11798300I-20000J0D01*
G01*
X15768000Y-8636000D02*
G75*
G03*
X15768000Y-8636000I-20000J0D01*
G01*
X15904000Y-10176000D02*
G75*
G03*
X15904000Y-10176000I-20000J0D01*
G01*
X15922000Y-8252000D02*
G75*
G03*
X15922000Y-8252000I-20000J0D01*
G01*
X15936000Y-9081000D02*
G75*
G03*
X15936000Y-9081000I-20000J0D01*
G01*
X15971000Y-10539000D02*
G75*
G03*
X15971000Y-10539000I-20000J0D01*
G01*
X16061000Y-7544000D02*
G75*
G03*
X16061000Y-7544000I-20000J0D01*
G01*
X16128000Y-9885000D02*
G75*
G03*
X16128000Y-9885000I-20000J0D01*
G01*
X16178210Y-9389110D02*
G75*
G03*
X16178210Y-9389110I-20000J0D01*
G01*
X16187100Y-9550400D02*
G75*
G03*
X16187100Y-9550400I-20000J0D01*
G01*
X16217978Y-9198288D02*
G75*
G03*
X16217978Y-9198288I-20000J0D01*
G01*
X16237900Y-9728200D02*
G75*
G03*
X16237900Y-9728200I-20000J0D01*
G01*
X16279000Y-10976000D02*
G75*
G03*
X16279000Y-10976000I-20000J0D01*
G01*
X16284000Y-11068000D02*
G75*
G03*
X16284000Y-11068000I-20000J0D01*
G01*
X16314100Y-8966200D02*
G75*
G03*
X16314100Y-8966200I-20000J0D01*
G01*
X16338452Y-10309000D02*
G75*
G03*
X16338452Y-10309000I-20000J0D01*
G01*
X16364900Y-8026400D02*
G75*
G03*
X16364900Y-8026400I-20000J0D01*
G01*
X16480000Y-7874000D02*
G75*
G03*
X16480000Y-7874000I-20000J0D01*
G01*
X16488000Y-10391000D02*
G75*
G03*
X16488000Y-10391000I-20000J0D01*
G01*
X16660000Y-10496000D02*
G75*
G03*
X16660000Y-10496000I-20000J0D01*
G01*
X16660000Y-10653000D02*
G75*
G03*
X16660000Y-10653000I-20000J0D01*
G01*
X16663000Y-8402000D02*
G75*
G03*
X16663000Y-8402000I-20000J0D01*
G01*
X16739000Y-8542000D02*
G75*
G03*
X16739000Y-8542000I-20000J0D01*
G01*
X16814000Y-10895000D02*
G75*
G03*
X16814000Y-10895000I-20000J0D01*
G01*
X16855000Y-10502000D02*
G75*
G03*
X16855000Y-10502000I-20000J0D01*
G01*
X16975000Y-7281000D02*
G75*
G03*
X16975000Y-7281000I-20000J0D01*
G01*
X17059000Y-10474000D02*
G75*
G03*
X17059000Y-10474000I-20000J0D01*
G01*
X17168430Y-11033775D02*
G75*
G03*
X17168430Y-11033775I-20000J0D01*
G01*
X17170000Y-10519000D02*
G75*
G03*
X17170000Y-10519000I-20000J0D01*
G01*
X17175960Y-11198470D02*
G75*
G03*
X17175960Y-11198470I-20000J0D01*
G01*
X17279000Y-9082000D02*
G75*
G03*
X17279000Y-9082000I-20000J0D01*
G01*
X17426000Y-7741000D02*
G75*
G03*
X17426000Y-7741000I-20000J0D01*
G01*
X17427000Y-7480000D02*
G75*
G03*
X17427000Y-7480000I-20000J0D01*
G01*
X17428000Y-10520000D02*
G75*
G03*
X17428000Y-10520000I-20000J0D01*
G01*
X17430000Y-7287000D02*
G75*
G03*
X17430000Y-7287000I-20000J0D01*
G01*
X17436000Y-10890000D02*
G75*
G03*
X17436000Y-10890000I-20000J0D01*
G01*
X17469800Y-6819900D02*
G75*
G03*
X17469800Y-6819900I-20000J0D01*
G01*
D14*
X14356800Y-6032500D02*
X14356800Y-6108700D01*
X14318700Y-6070600D02*
X14394900Y-6070600D01*
X14356800Y-6282500D02*
X14356800Y-6358700D01*
X14318700Y-6320600D02*
X14394900Y-6320600D01*
X14566800Y-6032500D02*
X14566800Y-6108700D01*
X14528700Y-6070600D02*
X14604900Y-6070600D01*
X14826800Y-6032500D02*
X14826800Y-6108700D01*
X14788700Y-6070600D02*
X14864900Y-6070600D01*
X15036800Y-6032500D02*
X15036800Y-6108700D01*
X14998700Y-6070600D02*
X15074900Y-6070600D01*
X15036800Y-6282500D02*
X15036800Y-6358700D01*
X14998700Y-6320600D02*
X15074900Y-6320600D01*
D15*
X14678820Y-11332820D02*
X14678820Y-11269180D01*
X14615180Y-11269180D01*
X14615180Y-11332820D01*
X14678820Y-11332820D01*
X15694820Y-11332820D02*
X15694820Y-11269180D01*
X15631180Y-11269180D01*
X15631180Y-11332820D01*
X15694820Y-11332820D01*
D16*
X14170100Y-11683200D02*
X14220100Y-11633200D01*
X14170100Y-11583200D01*
X14120100Y-11633200D01*
X14170100Y-11683200D01*
X14308600Y-11967200D02*
X14358600Y-11917200D01*
X14308600Y-11867200D01*
X14258600Y-11917200D01*
X14308600Y-11967200D01*
X14447100Y-11683200D02*
X14497100Y-11633200D01*
X14447100Y-11583200D01*
X14397100Y-11633200D01*
X14447100Y-11683200D01*
X14585600Y-11967200D02*
X14635600Y-11917200D01*
X14585600Y-11867200D01*
X14535600Y-11917200D01*
X14585600Y-11967200D01*
X14724100Y-11683200D02*
X14774100Y-11633200D01*
X14724100Y-11583200D01*
X14674100Y-11633200D01*
X14724100Y-11683200D01*
X14862600Y-11967200D02*
X14912600Y-11917200D01*
X14862600Y-11867200D01*
X14812600Y-11917200D01*
X14862600Y-11967200D01*
X15001100Y-11683200D02*
X15051100Y-11633200D01*
X15001100Y-11583200D01*
X14951100Y-11633200D01*
X15001100Y-11683200D01*
X15046960Y-7172160D02*
X15096960Y-7122160D01*
X15046960Y-7072160D01*
X14996960Y-7122160D01*
X15046960Y-7172160D01*
X15139600Y-11967200D02*
X15189600Y-11917200D01*
X15139600Y-11867200D01*
X15089600Y-11917200D01*
X15139600Y-11967200D01*
X15278100Y-11683200D02*
X15328100Y-11633200D01*
X15278100Y-11583200D01*
X15228100Y-11633200D01*
X15278100Y-11683200D01*
X16245840Y-6974040D02*
X16295840Y-6924040D01*
X16245840Y-6874040D01*
X16195840Y-6924040D01*
X16245840Y-6974040D01*
X16245840Y-7228040D02*
X16295840Y-7178040D01*
X16245840Y-7128040D01*
X16195840Y-7178040D01*
X16245840Y-7228040D01*
X16538420Y-8594920D02*
X16588420Y-8544920D01*
X16538420Y-8494920D01*
X16488420Y-8544920D01*
X16538420Y-8594920D01*
X16538420Y-8871920D02*
X16588420Y-8821920D01*
X16538420Y-8771920D01*
X16488420Y-8821920D01*
X16538420Y-8871920D01*
X16538420Y-9148920D02*
X16588420Y-9098920D01*
X16538420Y-9048920D01*
X16488420Y-9098920D01*
X16538420Y-9148920D01*
X16538420Y-9425920D02*
X16588420Y-9375920D01*
X16538420Y-9325920D01*
X16488420Y-9375920D01*
X16538420Y-9425920D01*
X16538420Y-9702920D02*
X16588420Y-9652920D01*
X16538420Y-9602920D01*
X16488420Y-9652920D01*
X16538420Y-9702920D01*
X16538420Y-9979920D02*
X16588420Y-9929920D01*
X16538420Y-9879920D01*
X16488420Y-9929920D01*
X16538420Y-9979920D01*
X16538420Y-10256920D02*
X16588420Y-10206920D01*
X16538420Y-10156920D01*
X16488420Y-10206920D01*
X16538420Y-10256920D01*
X16540000Y-11167500D02*
X16590000Y-11117500D01*
X16540000Y-11067500D01*
X16490000Y-11117500D01*
X16540000Y-11167500D01*
X16610100Y-6986700D02*
X16660100Y-6936700D01*
X16610100Y-6886700D01*
X16560100Y-6936700D01*
X16610100Y-6986700D01*
X16794000Y-11167500D02*
X16844000Y-11117500D01*
X16794000Y-11067500D01*
X16744000Y-11117500D01*
X16794000Y-11167500D01*
X16822420Y-8456420D02*
X16872420Y-8406420D01*
X16822420Y-8356420D01*
X16772420Y-8406420D01*
X16822420Y-8456420D01*
X16822420Y-8733420D02*
X16872420Y-8683420D01*
X16822420Y-8633420D01*
X16772420Y-8683420D01*
X16822420Y-8733420D01*
X16822420Y-9010420D02*
X16872420Y-8960420D01*
X16822420Y-8910420D01*
X16772420Y-8960420D01*
X16822420Y-9010420D01*
X16822420Y-9287420D02*
X16872420Y-9237420D01*
X16822420Y-9187420D01*
X16772420Y-9237420D01*
X16822420Y-9287420D01*
X16822420Y-9564420D02*
X16872420Y-9514420D01*
X16822420Y-9464420D01*
X16772420Y-9514420D01*
X16822420Y-9564420D01*
X16822420Y-9841420D02*
X16872420Y-9791420D01*
X16822420Y-9741420D01*
X16772420Y-9791420D01*
X16822420Y-9841420D01*
X16822420Y-10118420D02*
X16872420Y-10068420D01*
X16822420Y-10018420D01*
X16772420Y-10068420D01*
X16822420Y-10118420D01*
X16822420Y-10395420D02*
X16872420Y-10345420D01*
X16822420Y-10295420D01*
X16772420Y-10345420D01*
X16822420Y-10395420D01*
X16864100Y-6986700D02*
X16914100Y-6936700D01*
X16864100Y-6886700D01*
X16814100Y-6936700D01*
X16864100Y-6986700D01*
X17048000Y-11167500D02*
X17098000Y-11117500D01*
X17048000Y-11067500D01*
X16998000Y-11117500D01*
X17048000Y-11167500D01*
X17118100Y-6986700D02*
X17168100Y-6936700D01*
X17118100Y-6886700D01*
X17068100Y-6936700D01*
X17118100Y-6986700D01*
X17302000Y-11167500D02*
X17352000Y-11117500D01*
X17302000Y-11067500D01*
X17252000Y-11117500D01*
X17302000Y-11167500D01*
D17*
X13893800Y-7073900D02*
X13995400Y-7175500D01*
X13995400Y-7073900D02*
X13893800Y-7175500D01*
X13995400Y-7124700D02*
G75*
G03*
X13995400Y-7124700I-50800J0D01*
G01*
X13893800Y-7327900D02*
X13995400Y-7429500D01*
X13995400Y-7327900D02*
X13893800Y-7429500D01*
X13995400Y-7378700D02*
G75*
G03*
X13995400Y-7378700I-50800J0D01*
G01*
X13893800Y-7581900D02*
X13995400Y-7683500D01*
X13995400Y-7581900D02*
X13893800Y-7683500D01*
X13995400Y-7632700D02*
G75*
G03*
X13995400Y-7632700I-50800J0D01*
G01*
X13893800Y-7835900D02*
X13995400Y-7937500D01*
X13995400Y-7835900D02*
X13893800Y-7937500D01*
X13995400Y-7886700D02*
G75*
G03*
X13995400Y-7886700I-50800J0D01*
G01*
X13893800Y-8089900D02*
X13995400Y-8191500D01*
X13995400Y-8089900D02*
X13893800Y-8191500D01*
X13995400Y-8140700D02*
G75*
G03*
X13995400Y-8140700I-50800J0D01*
G01*
X13893800Y-8343900D02*
X13995400Y-8445500D01*
X13995400Y-8343900D02*
X13893800Y-8445500D01*
X13995400Y-8394700D02*
G75*
G03*
X13995400Y-8394700I-50800J0D01*
G01*
X13893800Y-8597900D02*
X13995400Y-8699500D01*
X13995400Y-8597900D02*
X13893800Y-8699500D01*
X13995400Y-8648700D02*
G75*
G03*
X13995400Y-8648700I-50800J0D01*
G01*
X13893800Y-8851900D02*
X13995400Y-8953500D01*
X13995400Y-8851900D02*
X13893800Y-8953500D01*
X13995400Y-8902700D02*
G75*
G03*
X13995400Y-8902700I-50800J0D01*
G01*
X13893800Y-9105900D02*
X13995400Y-9207500D01*
X13995400Y-9105900D02*
X13893800Y-9207500D01*
X13995400Y-9156700D02*
G75*
G03*
X13995400Y-9156700I-50800J0D01*
G01*
X13893800Y-9359900D02*
X13995400Y-9461500D01*
X13995400Y-9359900D02*
X13893800Y-9461500D01*
X13995400Y-9410700D02*
G75*
G03*
X13995400Y-9410700I-50800J0D01*
G01*
X13893800Y-9613900D02*
X13995400Y-9715500D01*
X13995400Y-9613900D02*
X13893800Y-9715500D01*
X13995400Y-9664700D02*
G75*
G03*
X13995400Y-9664700I-50800J0D01*
G01*
X13893800Y-9867900D02*
X13995400Y-9969500D01*
X13995400Y-9867900D02*
X13893800Y-9969500D01*
X13995400Y-9918700D02*
G75*
G03*
X13995400Y-9918700I-50800J0D01*
G01*
X13893800Y-10121900D02*
X13995400Y-10223500D01*
X13995400Y-10121900D02*
X13893800Y-10223500D01*
X13995400Y-10172700D02*
G75*
G03*
X13995400Y-10172700I-50800J0D01*
G01*
X13893800Y-10375900D02*
X13995400Y-10477500D01*
X13995400Y-10375900D02*
X13893800Y-10477500D01*
X13995400Y-10426700D02*
G75*
G03*
X13995400Y-10426700I-50800J0D01*
G01*
X13893800Y-10629900D02*
X13995400Y-10731500D01*
X13995400Y-10629900D02*
X13893800Y-10731500D01*
X13995400Y-10680700D02*
G75*
G03*
X13995400Y-10680700I-50800J0D01*
G01*
X15417800Y-7073900D02*
X15519400Y-7175500D01*
X15519400Y-7073900D02*
X15417800Y-7175500D01*
X15519400Y-7124700D02*
G75*
G03*
X15519400Y-7124700I-50800J0D01*
G01*
X15417800Y-7327900D02*
X15519400Y-7429500D01*
X15519400Y-7327900D02*
X15417800Y-7429500D01*
X15519400Y-7378700D02*
G75*
G03*
X15519400Y-7378700I-50800J0D01*
G01*
X15417800Y-7581900D02*
X15519400Y-7683500D01*
X15519400Y-7581900D02*
X15417800Y-7683500D01*
X15519400Y-7632700D02*
G75*
G03*
X15519400Y-7632700I-50800J0D01*
G01*
X15417800Y-7835900D02*
X15519400Y-7937500D01*
X15519400Y-7835900D02*
X15417800Y-7937500D01*
X15519400Y-7886700D02*
G75*
G03*
X15519400Y-7886700I-50800J0D01*
G01*
X15417800Y-8089900D02*
X15519400Y-8191500D01*
X15519400Y-8089900D02*
X15417800Y-8191500D01*
X15519400Y-8140700D02*
G75*
G03*
X15519400Y-8140700I-50800J0D01*
G01*
X15417800Y-8343900D02*
X15519400Y-8445500D01*
X15519400Y-8343900D02*
X15417800Y-8445500D01*
X15519400Y-8394700D02*
G75*
G03*
X15519400Y-8394700I-50800J0D01*
G01*
X15417800Y-8597900D02*
X15519400Y-8699500D01*
X15519400Y-8597900D02*
X15417800Y-8699500D01*
X15519400Y-8648700D02*
G75*
G03*
X15519400Y-8648700I-50800J0D01*
G01*
X15417800Y-8851900D02*
X15519400Y-8953500D01*
X15519400Y-8851900D02*
X15417800Y-8953500D01*
X15519400Y-8902700D02*
G75*
G03*
X15519400Y-8902700I-50800J0D01*
G01*
X15417800Y-9105900D02*
X15519400Y-9207500D01*
X15519400Y-9105900D02*
X15417800Y-9207500D01*
X15519400Y-9156700D02*
G75*
G03*
X15519400Y-9156700I-50800J0D01*
G01*
X15417800Y-9359900D02*
X15519400Y-9461500D01*
X15519400Y-9359900D02*
X15417800Y-9461500D01*
X15519400Y-9410700D02*
G75*
G03*
X15519400Y-9410700I-50800J0D01*
G01*
X15417800Y-9613900D02*
X15519400Y-9715500D01*
X15519400Y-9613900D02*
X15417800Y-9715500D01*
X15519400Y-9664700D02*
G75*
G03*
X15519400Y-9664700I-50800J0D01*
G01*
X15417800Y-9867900D02*
X15519400Y-9969500D01*
X15519400Y-9867900D02*
X15417800Y-9969500D01*
X15519400Y-9918700D02*
G75*
G03*
X15519400Y-9918700I-50800J0D01*
G01*
X15417800Y-10121900D02*
X15519400Y-10223500D01*
X15519400Y-10121900D02*
X15417800Y-10223500D01*
X15519400Y-10172700D02*
G75*
G03*
X15519400Y-10172700I-50800J0D01*
G01*
X15417800Y-10375900D02*
X15519400Y-10477500D01*
X15519400Y-10375900D02*
X15417800Y-10477500D01*
X15519400Y-10426700D02*
G75*
G03*
X15519400Y-10426700I-50800J0D01*
G01*
X15417800Y-10629900D02*
X15519400Y-10731500D01*
X15519400Y-10629900D02*
X15417800Y-10731500D01*
X15519400Y-10680700D02*
G75*
G03*
X15519400Y-10680700I-50800J0D01*
G01*
X15824200Y-7188200D02*
X15925800Y-7289800D01*
X15925800Y-7188200D02*
X15824200Y-7289800D01*
X15925800Y-7239000D02*
G75*
G03*
X15925800Y-7239000I-50800J0D01*
G01*
X15824200Y-7696200D02*
X15925800Y-7797800D01*
X15925800Y-7696200D02*
X15824200Y-7797800D01*
X15925800Y-7747000D02*
G75*
G03*
X15925800Y-7747000I-50800J0D01*
G01*
X15824200Y-7950200D02*
X15925800Y-8051800D01*
X15925800Y-7950200D02*
X15824200Y-8051800D01*
X15925800Y-8001000D02*
G75*
G03*
X15925800Y-8001000I-50800J0D01*
G01*
X15824200Y-8712200D02*
X15925800Y-8813800D01*
X15925800Y-8712200D02*
X15824200Y-8813800D01*
X15925800Y-8763000D02*
G75*
G03*
X15925800Y-8763000I-50800J0D01*
G01*
X15824200Y-9220200D02*
X15925800Y-9321800D01*
X15925800Y-9220200D02*
X15824200Y-9321800D01*
X15925800Y-9271000D02*
G75*
G03*
X15925800Y-9271000I-50800J0D01*
G01*
X15824200Y-9474200D02*
X15925800Y-9575800D01*
X15925800Y-9474200D02*
X15824200Y-9575800D01*
X15925800Y-9525000D02*
G75*
G03*
X15925800Y-9525000I-50800J0D01*
G01*
X15824200Y-9728200D02*
X15925800Y-9829800D01*
X15925800Y-9728200D02*
X15824200Y-9829800D01*
X15925800Y-9779000D02*
G75*
G03*
X15925800Y-9779000I-50800J0D01*
G01*
X17016200Y-7984200D02*
X17117800Y-8085800D01*
X17117800Y-7984200D02*
X17016200Y-8085800D01*
X17117800Y-8035000D02*
G75*
G03*
X17117800Y-8035000I-50800J0D01*
G01*
X17038200Y-7585200D02*
X17139800Y-7686800D01*
X17139800Y-7585200D02*
X17038200Y-7686800D01*
X17139800Y-7636000D02*
G75*
G03*
X17139800Y-7636000I-50800J0D01*
G01*
X17085200Y-8873200D02*
X17186800Y-8974800D01*
X17186800Y-8873200D02*
X17085200Y-8974800D01*
X17186800Y-8924000D02*
G75*
G03*
X17186800Y-8924000I-50800J0D01*
G01*
X17090200Y-9201200D02*
X17191800Y-9302800D01*
X17191800Y-9201200D02*
X17090200Y-9302800D01*
X17191800Y-9252000D02*
G75*
G03*
X17191800Y-9252000I-50800J0D01*
G01*
X17091200Y-9856200D02*
X17192800Y-9957800D01*
X17192800Y-9856200D02*
X17091200Y-9957800D01*
X17192800Y-9907000D02*
G75*
G03*
X17192800Y-9907000I-50800J0D01*
G01*
X17097200Y-9528200D02*
X17198800Y-9629800D01*
X17198800Y-9528200D02*
X17097200Y-9629800D01*
X17198800Y-9579000D02*
G75*
G03*
X17198800Y-9579000I-50800J0D01*
G01*
D18*
X15979600Y-5507600D02*
X16089600Y-5617600D01*
X16089600Y-5507600D02*
X15979600Y-5617600D01*
X16034600Y-5507600D02*
X16034600Y-5617600D01*
X15979600Y-5562600D02*
X16089600Y-5562600D01*
X15979600Y-6157600D02*
X16089600Y-6267600D01*
X16089600Y-6157600D02*
X15979600Y-6267600D01*
X16034600Y-6157600D02*
X16034600Y-6267600D01*
X15979600Y-6212600D02*
X16089600Y-6212600D01*
X16429600Y-5507600D02*
X16539600Y-5617600D01*
X16539600Y-5507600D02*
X16429600Y-5617600D01*
X16484600Y-5507600D02*
X16484600Y-5617600D01*
X16429600Y-5562600D02*
X16539600Y-5562600D01*
X16429600Y-6157600D02*
X16539600Y-6267600D01*
X16539600Y-6157600D02*
X16429600Y-6267600D01*
X16484600Y-6157600D02*
X16484600Y-6267600D01*
X16429600Y-6212600D02*
X16539600Y-6212600D01*
D19*
X13855700Y-6781800D02*
X14033500Y-6959600D01*
X14033500Y-6781800D02*
X13855700Y-6959600D01*
X14007462Y-6933562D02*
X14007462Y-6807838D01*
X13881738Y-6807838D01*
X13881738Y-6933562D01*
X14007462Y-6933562D01*
X15379700Y-6781800D02*
X15557500Y-6959600D01*
X15557500Y-6781800D02*
X15379700Y-6959600D01*
X15531462Y-6933562D02*
X15531462Y-6807838D01*
X15405738Y-6807838D01*
X15405738Y-6933562D01*
X15531462Y-6933562D01*
D20*
X13842100Y-10832200D02*
X14047100Y-11037200D01*
X14047100Y-10832200D02*
X13842100Y-11037200D01*
X13944600Y-11037200D02*
X14047100Y-10934700D01*
X13944600Y-10832200D01*
X13842100Y-10934700D01*
X13944600Y-11037200D01*
X15366100Y-10832200D02*
X15571100Y-11037200D01*
X15571100Y-10832200D02*
X15366100Y-11037200D01*
X15468600Y-11037200D02*
X15571100Y-10934700D01*
X15468600Y-10832200D01*
X15366100Y-10934700D01*
X15468600Y-11037200D01*
D21*
X14021800Y-5655600D02*
X14021800Y-5885600D01*
X13906800Y-5770600D02*
X14136800Y-5770600D01*
X14136800Y-5770600D02*
G75*
G03*
X14136800Y-5770600I-115000J0D01*
G01*
X14696800Y-5575600D02*
X14696800Y-5805600D01*
X14581800Y-5690600D02*
X14811800Y-5690600D01*
X14811800Y-5690600D02*
G75*
G03*
X14811800Y-5690600I-115000J0D01*
G01*
X15371800Y-5655600D02*
X15371800Y-5885600D01*
X15256800Y-5770600D02*
X15486800Y-5770600D01*
X15486800Y-5770600D02*
G75*
G03*
X15486800Y-5770600I-115000J0D01*
G01*
D22*
X13587238Y-11776338D02*
X13587238Y-11550062D01*
X13360962Y-11550062D01*
X13360962Y-11776338D01*
X13587238Y-11776338D01*
X13634100Y-11663200D02*
G75*
G03*
X13634100Y-11663200I-160000J0D01*
G01*
X16087238Y-11776338D02*
X16087238Y-11550062D01*
X15860962Y-11550062D01*
X15860962Y-11776338D01*
X16087238Y-11776338D01*
X16134100Y-11663200D02*
G75*
G03*
X16134100Y-11663200I-160000J0D01*
G01*
D11*
X13472619Y-12507476D02*
X13472619Y-12307476D01*
X13520238Y-12307476D01*
X13548809Y-12317000D01*
X13567857Y-12336048D01*
X13577381Y-12355095D01*
X13586905Y-12393190D01*
X13586905Y-12421762D01*
X13577381Y-12459857D01*
X13567857Y-12478905D01*
X13548809Y-12497952D01*
X13520238Y-12507476D01*
X13472619Y-12507476D01*
X13672619Y-12507476D02*
X13672619Y-12374143D01*
X13672619Y-12412238D02*
X13682143Y-12393190D01*
X13691667Y-12383667D01*
X13710714Y-12374143D01*
X13729762Y-12374143D01*
X13796428Y-12507476D02*
X13796428Y-12374143D01*
X13796428Y-12307476D02*
X13786905Y-12317000D01*
X13796428Y-12326524D01*
X13805952Y-12317000D01*
X13796428Y-12307476D01*
X13796428Y-12326524D01*
X13920238Y-12507476D02*
X13901190Y-12497952D01*
X13891667Y-12478905D01*
X13891667Y-12307476D01*
X14025000Y-12507476D02*
X14005952Y-12497952D01*
X13996428Y-12478905D01*
X13996428Y-12307476D01*
X14253571Y-12507476D02*
X14253571Y-12307476D01*
X14320238Y-12450333D01*
X14386905Y-12307476D01*
X14386905Y-12507476D01*
X14567857Y-12507476D02*
X14567857Y-12402714D01*
X14558333Y-12383667D01*
X14539286Y-12374143D01*
X14501190Y-12374143D01*
X14482143Y-12383667D01*
X14567857Y-12497952D02*
X14548809Y-12507476D01*
X14501190Y-12507476D01*
X14482143Y-12497952D01*
X14472619Y-12478905D01*
X14472619Y-12459857D01*
X14482143Y-12440809D01*
X14501190Y-12431286D01*
X14548809Y-12431286D01*
X14567857Y-12421762D01*
X14663095Y-12374143D02*
X14663095Y-12574143D01*
X14663095Y-12383667D02*
X14682143Y-12374143D01*
X14720238Y-12374143D01*
X14739286Y-12383667D01*
X14748809Y-12393190D01*
X14758333Y-12412238D01*
X14758333Y-12469381D01*
X14748809Y-12488428D01*
X14739286Y-12497952D01*
X14720238Y-12507476D01*
X14682143Y-12507476D01*
X14663095Y-12497952D01*
X14844048Y-12488428D02*
X14853571Y-12497952D01*
X14844048Y-12507476D01*
X14834524Y-12497952D01*
X14844048Y-12488428D01*
X14844048Y-12507476D01*
X14844048Y-12383667D02*
X14853571Y-12393190D01*
X14844048Y-12402714D01*
X14834524Y-12393190D01*
X14844048Y-12383667D01*
X14844048Y-12402714D01*
D12*
X13185000Y-12822000D02*
X13215000Y-12852000D01*
X13215000Y-12822000D02*
X13185000Y-12852000D01*
D11*
X13510714Y-12727476D02*
X13529762Y-12727476D01*
X13548809Y-12737000D01*
X13558333Y-12746524D01*
X13567857Y-12765571D01*
X13577381Y-12803667D01*
X13577381Y-12851286D01*
X13567857Y-12889381D01*
X13558333Y-12908428D01*
X13548809Y-12917952D01*
X13529762Y-12927476D01*
X13510714Y-12927476D01*
X13491667Y-12917952D01*
X13482143Y-12908428D01*
X13472619Y-12889381D01*
X13463095Y-12851286D01*
X13463095Y-12803667D01*
X13472619Y-12765571D01*
X13482143Y-12746524D01*
X13491667Y-12737000D01*
X13510714Y-12727476D01*
X13663095Y-12908428D02*
X13672619Y-12917952D01*
X13663095Y-12927476D01*
X13653571Y-12917952D01*
X13663095Y-12908428D01*
X13663095Y-12927476D01*
X13739286Y-12727476D02*
X13863095Y-12727476D01*
X13796428Y-12803667D01*
X13825000Y-12803667D01*
X13844048Y-12813190D01*
X13853571Y-12822714D01*
X13863095Y-12841762D01*
X13863095Y-12889381D01*
X13853571Y-12908428D01*
X13844048Y-12917952D01*
X13825000Y-12927476D01*
X13767857Y-12927476D01*
X13748809Y-12917952D01*
X13739286Y-12908428D01*
X13986905Y-12727476D02*
X14005952Y-12727476D01*
X14025000Y-12737000D01*
X14034524Y-12746524D01*
X14044048Y-12765571D01*
X14053571Y-12803667D01*
X14053571Y-12851286D01*
X14044048Y-12889381D01*
X14034524Y-12908428D01*
X14025000Y-12917952D01*
X14005952Y-12927476D01*
X13986905Y-12927476D01*
X13967857Y-12917952D01*
X13958333Y-12908428D01*
X13948809Y-12889381D01*
X13939286Y-12851286D01*
X13939286Y-12803667D01*
X13948809Y-12765571D01*
X13958333Y-12746524D01*
X13967857Y-12737000D01*
X13986905Y-12727476D01*
X14177381Y-12727476D02*
X14196428Y-12727476D01*
X14215476Y-12737000D01*
X14225000Y-12746524D01*
X14234524Y-12765571D01*
X14244048Y-12803667D01*
X14244048Y-12851286D01*
X14234524Y-12889381D01*
X14225000Y-12908428D01*
X14215476Y-12917952D01*
X14196428Y-12927476D01*
X14177381Y-12927476D01*
X14158333Y-12917952D01*
X14148809Y-12908428D01*
X14139286Y-12889381D01*
X14129762Y-12851286D01*
X14129762Y-12803667D01*
X14139286Y-12765571D01*
X14148809Y-12746524D01*
X14158333Y-12737000D01*
X14177381Y-12727476D01*
X14329762Y-12927476D02*
X14329762Y-12794143D01*
X14329762Y-12813190D02*
X14339286Y-12803667D01*
X14358333Y-12794143D01*
X14386905Y-12794143D01*
X14405952Y-12803667D01*
X14415476Y-12822714D01*
X14415476Y-12927476D01*
X14415476Y-12822714D02*
X14425000Y-12803667D01*
X14444048Y-12794143D01*
X14472619Y-12794143D01*
X14491667Y-12803667D01*
X14501190Y-12822714D01*
X14501190Y-12927476D01*
X14596428Y-12927476D02*
X14596428Y-12794143D01*
X14596428Y-12813190D02*
X14605952Y-12803667D01*
X14625000Y-12794143D01*
X14653571Y-12794143D01*
X14672619Y-12803667D01*
X14682143Y-12822714D01*
X14682143Y-12927476D01*
X14682143Y-12822714D02*
X14691667Y-12803667D01*
X14710714Y-12794143D01*
X14739286Y-12794143D01*
X14758333Y-12803667D01*
X14767857Y-12822714D01*
X14767857Y-12927476D01*
X15158333Y-12717952D02*
X14986905Y-12975095D01*
X15415476Y-12727476D02*
X15434524Y-12727476D01*
X15453571Y-12737000D01*
X15463095Y-12746524D01*
X15472619Y-12765571D01*
X15482143Y-12803667D01*
X15482143Y-12851286D01*
X15472619Y-12889381D01*
X15463095Y-12908428D01*
X15453571Y-12917952D01*
X15434524Y-12927476D01*
X15415476Y-12927476D01*
X15396428Y-12917952D01*
X15386905Y-12908428D01*
X15377381Y-12889381D01*
X15367857Y-12851286D01*
X15367857Y-12803667D01*
X15377381Y-12765571D01*
X15386905Y-12746524D01*
X15396428Y-12737000D01*
X15415476Y-12727476D01*
X15567857Y-12908428D02*
X15577381Y-12917952D01*
X15567857Y-12927476D01*
X15558333Y-12917952D01*
X15567857Y-12908428D01*
X15567857Y-12927476D01*
X15701190Y-12727476D02*
X15720238Y-12727476D01*
X15739286Y-12737000D01*
X15748809Y-12746524D01*
X15758333Y-12765571D01*
X15767857Y-12803667D01*
X15767857Y-12851286D01*
X15758333Y-12889381D01*
X15748809Y-12908428D01*
X15739286Y-12917952D01*
X15720238Y-12927476D01*
X15701190Y-12927476D01*
X15682143Y-12917952D01*
X15672619Y-12908428D01*
X15663095Y-12889381D01*
X15653571Y-12851286D01*
X15653571Y-12803667D01*
X15663095Y-12765571D01*
X15672619Y-12746524D01*
X15682143Y-12737000D01*
X15701190Y-12727476D01*
X15958333Y-12927476D02*
X15844048Y-12927476D01*
X15901190Y-12927476D02*
X15901190Y-12727476D01*
X15882143Y-12756048D01*
X15863095Y-12775095D01*
X15844048Y-12784619D01*
X16148809Y-12927476D02*
X16034524Y-12927476D01*
X16091667Y-12927476D02*
X16091667Y-12727476D01*
X16072619Y-12756048D01*
X16053571Y-12775095D01*
X16034524Y-12784619D01*
X16263095Y-12813190D02*
X16244048Y-12803667D01*
X16234524Y-12794143D01*
X16225000Y-12775095D01*
X16225000Y-12765571D01*
X16234524Y-12746524D01*
X16244048Y-12737000D01*
X16263095Y-12727476D01*
X16301190Y-12727476D01*
X16320238Y-12737000D01*
X16329762Y-12746524D01*
X16339286Y-12765571D01*
X16339286Y-12775095D01*
X16329762Y-12794143D01*
X16320238Y-12803667D01*
X16301190Y-12813190D01*
X16263095Y-12813190D01*
X16244048Y-12822714D01*
X16234524Y-12832238D01*
X16225000Y-12851286D01*
X16225000Y-12889381D01*
X16234524Y-12908428D01*
X16244048Y-12917952D01*
X16263095Y-12927476D01*
X16301190Y-12927476D01*
X16320238Y-12917952D01*
X16329762Y-12908428D01*
X16339286Y-12889381D01*
X16339286Y-12851286D01*
X16329762Y-12832238D01*
X16320238Y-12822714D01*
X16301190Y-12813190D01*
X16415476Y-12727476D02*
X16415476Y-12765571D01*
X16491667Y-12727476D02*
X16491667Y-12765571D01*
X16786905Y-13003667D02*
X16777381Y-12994143D01*
X16758333Y-12965571D01*
X16748809Y-12946524D01*
X16739286Y-12917952D01*
X16729762Y-12870333D01*
X16729762Y-12832238D01*
X16739286Y-12784619D01*
X16748809Y-12756048D01*
X16758333Y-12737000D01*
X16777381Y-12708428D01*
X16786905Y-12698905D01*
X16967857Y-12927476D02*
X16853571Y-12927476D01*
X16910714Y-12927476D02*
X16910714Y-12727476D01*
X16891667Y-12756048D01*
X16872619Y-12775095D01*
X16853571Y-12784619D01*
X17205952Y-12927476D02*
X17205952Y-12727476D01*
X17291667Y-12927476D02*
X17291667Y-12822714D01*
X17282143Y-12803667D01*
X17263095Y-12794143D01*
X17234524Y-12794143D01*
X17215476Y-12803667D01*
X17205952Y-12813190D01*
X17415476Y-12927476D02*
X17396429Y-12917952D01*
X17386905Y-12908428D01*
X17377381Y-12889381D01*
X17377381Y-12832238D01*
X17386905Y-12813190D01*
X17396429Y-12803667D01*
X17415476Y-12794143D01*
X17444048Y-12794143D01*
X17463095Y-12803667D01*
X17472619Y-12813190D01*
X17482143Y-12832238D01*
X17482143Y-12889381D01*
X17472619Y-12908428D01*
X17463095Y-12917952D01*
X17444048Y-12927476D01*
X17415476Y-12927476D01*
X17596429Y-12927476D02*
X17577381Y-12917952D01*
X17567857Y-12898905D01*
X17567857Y-12727476D01*
X17748810Y-12917952D02*
X17729762Y-12927476D01*
X17691667Y-12927476D01*
X17672619Y-12917952D01*
X17663095Y-12898905D01*
X17663095Y-12822714D01*
X17672619Y-12803667D01*
X17691667Y-12794143D01*
X17729762Y-12794143D01*
X17748810Y-12803667D01*
X17758333Y-12822714D01*
X17758333Y-12841762D01*
X17663095Y-12860809D01*
X17825000Y-13003667D02*
X17834524Y-12994143D01*
X17853571Y-12965571D01*
X17863095Y-12946524D01*
X17872619Y-12917952D01*
X17882143Y-12870333D01*
X17882143Y-12832238D01*
X17872619Y-12784619D01*
X17863095Y-12756048D01*
X17853571Y-12737000D01*
X17834524Y-12708428D01*
X17825000Y-12698905D01*
D13*
X13215000Y-13101000D02*
G75*
G03*
X13215000Y-13101000I-20000J0D01*
G01*
D11*
X13510714Y-12991476D02*
X13529762Y-12991476D01*
X13548809Y-13001000D01*
X13558333Y-13010524D01*
X13567857Y-13029571D01*
X13577381Y-13067667D01*
X13577381Y-13115286D01*
X13567857Y-13153381D01*
X13558333Y-13172428D01*
X13548809Y-13181952D01*
X13529762Y-13191476D01*
X13510714Y-13191476D01*
X13491667Y-13181952D01*
X13482143Y-13172428D01*
X13472619Y-13153381D01*
X13463095Y-13115286D01*
X13463095Y-13067667D01*
X13472619Y-13029571D01*
X13482143Y-13010524D01*
X13491667Y-13001000D01*
X13510714Y-12991476D01*
X13663095Y-13172428D02*
X13672619Y-13181952D01*
X13663095Y-13191476D01*
X13653571Y-13181952D01*
X13663095Y-13172428D01*
X13663095Y-13191476D01*
X13844048Y-13058143D02*
X13844048Y-13191476D01*
X13796428Y-12981952D02*
X13748809Y-13124809D01*
X13872619Y-13124809D01*
X13986905Y-12991476D02*
X14005952Y-12991476D01*
X14025000Y-13001000D01*
X14034524Y-13010524D01*
X14044048Y-13029571D01*
X14053571Y-13067667D01*
X14053571Y-13115286D01*
X14044048Y-13153381D01*
X14034524Y-13172428D01*
X14025000Y-13181952D01*
X14005952Y-13191476D01*
X13986905Y-13191476D01*
X13967857Y-13181952D01*
X13958333Y-13172428D01*
X13948809Y-13153381D01*
X13939286Y-13115286D01*
X13939286Y-13067667D01*
X13948809Y-13029571D01*
X13958333Y-13010524D01*
X13967857Y-13001000D01*
X13986905Y-12991476D01*
X14177381Y-12991476D02*
X14196428Y-12991476D01*
X14215476Y-13001000D01*
X14225000Y-13010524D01*
X14234524Y-13029571D01*
X14244048Y-13067667D01*
X14244048Y-13115286D01*
X14234524Y-13153381D01*
X14225000Y-13172428D01*
X14215476Y-13181952D01*
X14196428Y-13191476D01*
X14177381Y-13191476D01*
X14158333Y-13181952D01*
X14148809Y-13172428D01*
X14139286Y-13153381D01*
X14129762Y-13115286D01*
X14129762Y-13067667D01*
X14139286Y-13029571D01*
X14148809Y-13010524D01*
X14158333Y-13001000D01*
X14177381Y-12991476D01*
X14329762Y-13191476D02*
X14329762Y-13058143D01*
X14329762Y-13077190D02*
X14339286Y-13067667D01*
X14358333Y-13058143D01*
X14386905Y-13058143D01*
X14405952Y-13067667D01*
X14415476Y-13086714D01*
X14415476Y-13191476D01*
X14415476Y-13086714D02*
X14425000Y-13067667D01*
X14444048Y-13058143D01*
X14472619Y-13058143D01*
X14491667Y-13067667D01*
X14501190Y-13086714D01*
X14501190Y-13191476D01*
X14596428Y-13191476D02*
X14596428Y-13058143D01*
X14596428Y-13077190D02*
X14605952Y-13067667D01*
X14625000Y-13058143D01*
X14653571Y-13058143D01*
X14672619Y-13067667D01*
X14682143Y-13086714D01*
X14682143Y-13191476D01*
X14682143Y-13086714D02*
X14691667Y-13067667D01*
X14710714Y-13058143D01*
X14739286Y-13058143D01*
X14758333Y-13067667D01*
X14767857Y-13086714D01*
X14767857Y-13191476D01*
X15158333Y-12981952D02*
X14986905Y-13239095D01*
X15415476Y-12991476D02*
X15434524Y-12991476D01*
X15453571Y-13001000D01*
X15463095Y-13010524D01*
X15472619Y-13029571D01*
X15482143Y-13067667D01*
X15482143Y-13115286D01*
X15472619Y-13153381D01*
X15463095Y-13172428D01*
X15453571Y-13181952D01*
X15434524Y-13191476D01*
X15415476Y-13191476D01*
X15396428Y-13181952D01*
X15386905Y-13172428D01*
X15377381Y-13153381D01*
X15367857Y-13115286D01*
X15367857Y-13067667D01*
X15377381Y-13029571D01*
X15386905Y-13010524D01*
X15396428Y-13001000D01*
X15415476Y-12991476D01*
X15567857Y-13172428D02*
X15577381Y-13181952D01*
X15567857Y-13191476D01*
X15558333Y-13181952D01*
X15567857Y-13172428D01*
X15567857Y-13191476D01*
X15701190Y-12991476D02*
X15720238Y-12991476D01*
X15739286Y-13001000D01*
X15748809Y-13010524D01*
X15758333Y-13029571D01*
X15767857Y-13067667D01*
X15767857Y-13115286D01*
X15758333Y-13153381D01*
X15748809Y-13172428D01*
X15739286Y-13181952D01*
X15720238Y-13191476D01*
X15701190Y-13191476D01*
X15682143Y-13181952D01*
X15672619Y-13172428D01*
X15663095Y-13153381D01*
X15653571Y-13115286D01*
X15653571Y-13067667D01*
X15663095Y-13029571D01*
X15672619Y-13010524D01*
X15682143Y-13001000D01*
X15701190Y-12991476D01*
X15958333Y-13191476D02*
X15844048Y-13191476D01*
X15901190Y-13191476D02*
X15901190Y-12991476D01*
X15882143Y-13020048D01*
X15863095Y-13039095D01*
X15844048Y-13048619D01*
X16139286Y-12991476D02*
X16044048Y-12991476D01*
X16034524Y-13086714D01*
X16044048Y-13077190D01*
X16063095Y-13067667D01*
X16110714Y-13067667D01*
X16129762Y-13077190D01*
X16139286Y-13086714D01*
X16148809Y-13105762D01*
X16148809Y-13153381D01*
X16139286Y-13172428D01*
X16129762Y-13181952D01*
X16110714Y-13191476D01*
X16063095Y-13191476D01*
X16044048Y-13181952D01*
X16034524Y-13172428D01*
X16215476Y-12991476D02*
X16348809Y-12991476D01*
X16263095Y-13191476D01*
X16415476Y-12991476D02*
X16415476Y-13029571D01*
X16491667Y-12991476D02*
X16491667Y-13029571D01*
X16786905Y-13267667D02*
X16777381Y-13258143D01*
X16758333Y-13229571D01*
X16748809Y-13210524D01*
X16739286Y-13181952D01*
X16729762Y-13134333D01*
X16729762Y-13096238D01*
X16739286Y-13048619D01*
X16748809Y-13020048D01*
X16758333Y-13001000D01*
X16777381Y-12972428D01*
X16786905Y-12962905D01*
X16948810Y-12991476D02*
X16910714Y-12991476D01*
X16891667Y-13001000D01*
X16882143Y-13010524D01*
X16863095Y-13039095D01*
X16853571Y-13077190D01*
X16853571Y-13153381D01*
X16863095Y-13172428D01*
X16872619Y-13181952D01*
X16891667Y-13191476D01*
X16929762Y-13191476D01*
X16948810Y-13181952D01*
X16958333Y-13172428D01*
X16967857Y-13153381D01*
X16967857Y-13105762D01*
X16958333Y-13086714D01*
X16948810Y-13077190D01*
X16929762Y-13067667D01*
X16891667Y-13067667D01*
X16872619Y-13077190D01*
X16863095Y-13086714D01*
X16853571Y-13105762D01*
X17034524Y-12991476D02*
X17167857Y-12991476D01*
X17082143Y-13191476D01*
X17396429Y-13191476D02*
X17396429Y-12991476D01*
X17482143Y-13191476D02*
X17482143Y-13086714D01*
X17472619Y-13067667D01*
X17453571Y-13058143D01*
X17425000Y-13058143D01*
X17405952Y-13067667D01*
X17396429Y-13077190D01*
X17605952Y-13191476D02*
X17586905Y-13181952D01*
X17577381Y-13172428D01*
X17567857Y-13153381D01*
X17567857Y-13096238D01*
X17577381Y-13077190D01*
X17586905Y-13067667D01*
X17605952Y-13058143D01*
X17634524Y-13058143D01*
X17653571Y-13067667D01*
X17663095Y-13077190D01*
X17672619Y-13096238D01*
X17672619Y-13153381D01*
X17663095Y-13172428D01*
X17653571Y-13181952D01*
X17634524Y-13191476D01*
X17605952Y-13191476D01*
X17786905Y-13191476D02*
X17767857Y-13181952D01*
X17758333Y-13162905D01*
X17758333Y-12991476D01*
X17939286Y-13181952D02*
X17920238Y-13191476D01*
X17882143Y-13191476D01*
X17863095Y-13181952D01*
X17853571Y-13162905D01*
X17853571Y-13086714D01*
X17863095Y-13067667D01*
X17882143Y-13058143D01*
X17920238Y-13058143D01*
X17939286Y-13067667D01*
X17948810Y-13086714D01*
X17948810Y-13105762D01*
X17853571Y-13124809D01*
X18025000Y-13181952D02*
X18044048Y-13191476D01*
X18082143Y-13191476D01*
X18101190Y-13181952D01*
X18110714Y-13162905D01*
X18110714Y-13153381D01*
X18101190Y-13134333D01*
X18082143Y-13124809D01*
X18053571Y-13124809D01*
X18034524Y-13115286D01*
X18025000Y-13096238D01*
X18025000Y-13086714D01*
X18034524Y-13067667D01*
X18053571Y-13058143D01*
X18082143Y-13058143D01*
X18101190Y-13067667D01*
X18177381Y-13267667D02*
X18186905Y-13258143D01*
X18205952Y-13229571D01*
X18215476Y-13210524D01*
X18225000Y-13181952D01*
X18234524Y-13134333D01*
X18234524Y-13096238D01*
X18225000Y-13048619D01*
X18215476Y-13020048D01*
X18205952Y-13001000D01*
X18186905Y-12972428D01*
X18177381Y-12962905D01*
D14*
X13176900Y-13326900D02*
X13176900Y-13403100D01*
X13138800Y-13365000D02*
X13215000Y-13365000D01*
D11*
X13510714Y-13255476D02*
X13529762Y-13255476D01*
X13548809Y-13265000D01*
X13558333Y-13274524D01*
X13567857Y-13293571D01*
X13577381Y-13331667D01*
X13577381Y-13379286D01*
X13567857Y-13417381D01*
X13558333Y-13436428D01*
X13548809Y-13445952D01*
X13529762Y-13455476D01*
X13510714Y-13455476D01*
X13491667Y-13445952D01*
X13482143Y-13436428D01*
X13472619Y-13417381D01*
X13463095Y-13379286D01*
X13463095Y-13331667D01*
X13472619Y-13293571D01*
X13482143Y-13274524D01*
X13491667Y-13265000D01*
X13510714Y-13255476D01*
X13663095Y-13436428D02*
X13672619Y-13445952D01*
X13663095Y-13455476D01*
X13653571Y-13445952D01*
X13663095Y-13436428D01*
X13663095Y-13455476D01*
X13739286Y-13255476D02*
X13872619Y-13255476D01*
X13786905Y-13455476D01*
X14034524Y-13255476D02*
X13996428Y-13255476D01*
X13977381Y-13265000D01*
X13967857Y-13274524D01*
X13948809Y-13303095D01*
X13939286Y-13341190D01*
X13939286Y-13417381D01*
X13948809Y-13436428D01*
X13958333Y-13445952D01*
X13977381Y-13455476D01*
X14015476Y-13455476D01*
X14034524Y-13445952D01*
X14044048Y-13436428D01*
X14053571Y-13417381D01*
X14053571Y-13369762D01*
X14044048Y-13350714D01*
X14034524Y-13341190D01*
X14015476Y-13331667D01*
X13977381Y-13331667D01*
X13958333Y-13341190D01*
X13948809Y-13350714D01*
X13939286Y-13369762D01*
X14129762Y-13274524D02*
X14139286Y-13265000D01*
X14158333Y-13255476D01*
X14205952Y-13255476D01*
X14225000Y-13265000D01*
X14234524Y-13274524D01*
X14244048Y-13293571D01*
X14244048Y-13312619D01*
X14234524Y-13341190D01*
X14120238Y-13455476D01*
X14244048Y-13455476D01*
X14329762Y-13455476D02*
X14329762Y-13322143D01*
X14329762Y-13341190D02*
X14339286Y-13331667D01*
X14358333Y-13322143D01*
X14386905Y-13322143D01*
X14405952Y-13331667D01*
X14415476Y-13350714D01*
X14415476Y-13455476D01*
X14415476Y-13350714D02*
X14425000Y-13331667D01*
X14444048Y-13322143D01*
X14472619Y-13322143D01*
X14491667Y-13331667D01*
X14501190Y-13350714D01*
X14501190Y-13455476D01*
X14596428Y-13455476D02*
X14596428Y-13322143D01*
X14596428Y-13341190D02*
X14605952Y-13331667D01*
X14625000Y-13322143D01*
X14653571Y-13322143D01*
X14672619Y-13331667D01*
X14682143Y-13350714D01*
X14682143Y-13455476D01*
X14682143Y-13350714D02*
X14691667Y-13331667D01*
X14710714Y-13322143D01*
X14739286Y-13322143D01*
X14758333Y-13331667D01*
X14767857Y-13350714D01*
X14767857Y-13455476D01*
X15158333Y-13245952D02*
X14986905Y-13503095D01*
X15415476Y-13255476D02*
X15434524Y-13255476D01*
X15453571Y-13265000D01*
X15463095Y-13274524D01*
X15472619Y-13293571D01*
X15482143Y-13331667D01*
X15482143Y-13379286D01*
X15472619Y-13417381D01*
X15463095Y-13436428D01*
X15453571Y-13445952D01*
X15434524Y-13455476D01*
X15415476Y-13455476D01*
X15396428Y-13445952D01*
X15386905Y-13436428D01*
X15377381Y-13417381D01*
X15367857Y-13379286D01*
X15367857Y-13331667D01*
X15377381Y-13293571D01*
X15386905Y-13274524D01*
X15396428Y-13265000D01*
X15415476Y-13255476D01*
X15567857Y-13436428D02*
X15577381Y-13445952D01*
X15567857Y-13455476D01*
X15558333Y-13445952D01*
X15567857Y-13436428D01*
X15567857Y-13455476D01*
X15701190Y-13255476D02*
X15720238Y-13255476D01*
X15739286Y-13265000D01*
X15748809Y-13274524D01*
X15758333Y-13293571D01*
X15767857Y-13331667D01*
X15767857Y-13379286D01*
X15758333Y-13417381D01*
X15748809Y-13436428D01*
X15739286Y-13445952D01*
X15720238Y-13455476D01*
X15701190Y-13455476D01*
X15682143Y-13445952D01*
X15672619Y-13436428D01*
X15663095Y-13417381D01*
X15653571Y-13379286D01*
X15653571Y-13331667D01*
X15663095Y-13293571D01*
X15672619Y-13274524D01*
X15682143Y-13265000D01*
X15701190Y-13255476D01*
X15834524Y-13255476D02*
X15958333Y-13255476D01*
X15891667Y-13331667D01*
X15920238Y-13331667D01*
X15939286Y-13341190D01*
X15948809Y-13350714D01*
X15958333Y-13369762D01*
X15958333Y-13417381D01*
X15948809Y-13436428D01*
X15939286Y-13445952D01*
X15920238Y-13455476D01*
X15863095Y-13455476D01*
X15844048Y-13445952D01*
X15834524Y-13436428D01*
X16082143Y-13255476D02*
X16101190Y-13255476D01*
X16120238Y-13265000D01*
X16129762Y-13274524D01*
X16139286Y-13293571D01*
X16148809Y-13331667D01*
X16148809Y-13379286D01*
X16139286Y-13417381D01*
X16129762Y-13436428D01*
X16120238Y-13445952D01*
X16101190Y-13455476D01*
X16082143Y-13455476D01*
X16063095Y-13445952D01*
X16053571Y-13436428D01*
X16044048Y-13417381D01*
X16034524Y-13379286D01*
X16034524Y-13331667D01*
X16044048Y-13293571D01*
X16053571Y-13274524D01*
X16063095Y-13265000D01*
X16082143Y-13255476D01*
X16272619Y-13255476D02*
X16291667Y-13255476D01*
X16310714Y-13265000D01*
X16320238Y-13274524D01*
X16329762Y-13293571D01*
X16339286Y-13331667D01*
X16339286Y-13379286D01*
X16329762Y-13417381D01*
X16320238Y-13436428D01*
X16310714Y-13445952D01*
X16291667Y-13455476D01*
X16272619Y-13455476D01*
X16253571Y-13445952D01*
X16244048Y-13436428D01*
X16234524Y-13417381D01*
X16225000Y-13379286D01*
X16225000Y-13331667D01*
X16234524Y-13293571D01*
X16244048Y-13274524D01*
X16253571Y-13265000D01*
X16272619Y-13255476D01*
X16415476Y-13255476D02*
X16415476Y-13293571D01*
X16491667Y-13255476D02*
X16491667Y-13293571D01*
X16786905Y-13531667D02*
X16777381Y-13522143D01*
X16758333Y-13493571D01*
X16748809Y-13474524D01*
X16739286Y-13445952D01*
X16729762Y-13398333D01*
X16729762Y-13360238D01*
X16739286Y-13312619D01*
X16748809Y-13284048D01*
X16758333Y-13265000D01*
X16777381Y-13236428D01*
X16786905Y-13226905D01*
X16948810Y-13255476D02*
X16910714Y-13255476D01*
X16891667Y-13265000D01*
X16882143Y-13274524D01*
X16863095Y-13303095D01*
X16853571Y-13341190D01*
X16853571Y-13417381D01*
X16863095Y-13436428D01*
X16872619Y-13445952D01*
X16891667Y-13455476D01*
X16929762Y-13455476D01*
X16948810Y-13445952D01*
X16958333Y-13436428D01*
X16967857Y-13417381D01*
X16967857Y-13369762D01*
X16958333Y-13350714D01*
X16948810Y-13341190D01*
X16929762Y-13331667D01*
X16891667Y-13331667D01*
X16872619Y-13341190D01*
X16863095Y-13350714D01*
X16853571Y-13369762D01*
X17205952Y-13455476D02*
X17205952Y-13255476D01*
X17291667Y-13455476D02*
X17291667Y-13350714D01*
X17282143Y-13331667D01*
X17263095Y-13322143D01*
X17234524Y-13322143D01*
X17215476Y-13331667D01*
X17205952Y-13341190D01*
X17415476Y-13455476D02*
X17396429Y-13445952D01*
X17386905Y-13436428D01*
X17377381Y-13417381D01*
X17377381Y-13360238D01*
X17386905Y-13341190D01*
X17396429Y-13331667D01*
X17415476Y-13322143D01*
X17444048Y-13322143D01*
X17463095Y-13331667D01*
X17472619Y-13341190D01*
X17482143Y-13360238D01*
X17482143Y-13417381D01*
X17472619Y-13436428D01*
X17463095Y-13445952D01*
X17444048Y-13455476D01*
X17415476Y-13455476D01*
X17596429Y-13455476D02*
X17577381Y-13445952D01*
X17567857Y-13426905D01*
X17567857Y-13255476D01*
X17748810Y-13445952D02*
X17729762Y-13455476D01*
X17691667Y-13455476D01*
X17672619Y-13445952D01*
X17663095Y-13426905D01*
X17663095Y-13350714D01*
X17672619Y-13331667D01*
X17691667Y-13322143D01*
X17729762Y-13322143D01*
X17748810Y-13331667D01*
X17758333Y-13350714D01*
X17758333Y-13369762D01*
X17663095Y-13388809D01*
X17834524Y-13445952D02*
X17853571Y-13455476D01*
X17891667Y-13455476D01*
X17910714Y-13445952D01*
X17920238Y-13426905D01*
X17920238Y-13417381D01*
X17910714Y-13398333D01*
X17891667Y-13388809D01*
X17863095Y-13388809D01*
X17844048Y-13379286D01*
X17834524Y-13360238D01*
X17834524Y-13350714D01*
X17844048Y-13331667D01*
X17863095Y-13322143D01*
X17891667Y-13322143D01*
X17910714Y-13331667D01*
X17986905Y-13531667D02*
X17996429Y-13522143D01*
X18015476Y-13493571D01*
X18025000Y-13474524D01*
X18034524Y-13445952D01*
X18044048Y-13398333D01*
X18044048Y-13360238D01*
X18034524Y-13312619D01*
X18025000Y-13284048D01*
X18015476Y-13265000D01*
X17996429Y-13236428D01*
X17986905Y-13226905D01*
D15*
X13201820Y-13660820D02*
X13201820Y-13597180D01*
X13138180Y-13597180D01*
X13138180Y-13660820D01*
X13201820Y-13660820D01*
D11*
X13510714Y-13519476D02*
X13529762Y-13519476D01*
X13548809Y-13529000D01*
X13558333Y-13538524D01*
X13567857Y-13557571D01*
X13577381Y-13595667D01*
X13577381Y-13643286D01*
X13567857Y-13681381D01*
X13558333Y-13700428D01*
X13548809Y-13709952D01*
X13529762Y-13719476D01*
X13510714Y-13719476D01*
X13491667Y-13709952D01*
X13482143Y-13700428D01*
X13472619Y-13681381D01*
X13463095Y-13643286D01*
X13463095Y-13595667D01*
X13472619Y-13557571D01*
X13482143Y-13538524D01*
X13491667Y-13529000D01*
X13510714Y-13519476D01*
X13663095Y-13700428D02*
X13672619Y-13709952D01*
X13663095Y-13719476D01*
X13653571Y-13709952D01*
X13663095Y-13700428D01*
X13663095Y-13719476D01*
X13767857Y-13719476D02*
X13805952Y-13719476D01*
X13825000Y-13709952D01*
X13834524Y-13700428D01*
X13853571Y-13671857D01*
X13863095Y-13633762D01*
X13863095Y-13557571D01*
X13853571Y-13538524D01*
X13844048Y-13529000D01*
X13825000Y-13519476D01*
X13786905Y-13519476D01*
X13767857Y-13529000D01*
X13758333Y-13538524D01*
X13748809Y-13557571D01*
X13748809Y-13605190D01*
X13758333Y-13624238D01*
X13767857Y-13633762D01*
X13786905Y-13643286D01*
X13825000Y-13643286D01*
X13844048Y-13633762D01*
X13853571Y-13624238D01*
X13863095Y-13605190D01*
X13986905Y-13519476D02*
X14005952Y-13519476D01*
X14025000Y-13529000D01*
X14034524Y-13538524D01*
X14044048Y-13557571D01*
X14053571Y-13595667D01*
X14053571Y-13643286D01*
X14044048Y-13681381D01*
X14034524Y-13700428D01*
X14025000Y-13709952D01*
X14005952Y-13719476D01*
X13986905Y-13719476D01*
X13967857Y-13709952D01*
X13958333Y-13700428D01*
X13948809Y-13681381D01*
X13939286Y-13643286D01*
X13939286Y-13595667D01*
X13948809Y-13557571D01*
X13958333Y-13538524D01*
X13967857Y-13529000D01*
X13986905Y-13519476D01*
X14177381Y-13519476D02*
X14196428Y-13519476D01*
X14215476Y-13529000D01*
X14225000Y-13538524D01*
X14234524Y-13557571D01*
X14244048Y-13595667D01*
X14244048Y-13643286D01*
X14234524Y-13681381D01*
X14225000Y-13700428D01*
X14215476Y-13709952D01*
X14196428Y-13719476D01*
X14177381Y-13719476D01*
X14158333Y-13709952D01*
X14148809Y-13700428D01*
X14139286Y-13681381D01*
X14129762Y-13643286D01*
X14129762Y-13595667D01*
X14139286Y-13557571D01*
X14148809Y-13538524D01*
X14158333Y-13529000D01*
X14177381Y-13519476D01*
X14329762Y-13719476D02*
X14329762Y-13586143D01*
X14329762Y-13605190D02*
X14339286Y-13595667D01*
X14358333Y-13586143D01*
X14386905Y-13586143D01*
X14405952Y-13595667D01*
X14415476Y-13614714D01*
X14415476Y-13719476D01*
X14415476Y-13614714D02*
X14425000Y-13595667D01*
X14444048Y-13586143D01*
X14472619Y-13586143D01*
X14491667Y-13595667D01*
X14501190Y-13614714D01*
X14501190Y-13719476D01*
X14596428Y-13719476D02*
X14596428Y-13586143D01*
X14596428Y-13605190D02*
X14605952Y-13595667D01*
X14625000Y-13586143D01*
X14653571Y-13586143D01*
X14672619Y-13595667D01*
X14682143Y-13614714D01*
X14682143Y-13719476D01*
X14682143Y-13614714D02*
X14691667Y-13595667D01*
X14710714Y-13586143D01*
X14739286Y-13586143D01*
X14758333Y-13595667D01*
X14767857Y-13614714D01*
X14767857Y-13719476D01*
X15158333Y-13509952D02*
X14986905Y-13767095D01*
X15415476Y-13519476D02*
X15434524Y-13519476D01*
X15453571Y-13529000D01*
X15463095Y-13538524D01*
X15472619Y-13557571D01*
X15482143Y-13595667D01*
X15482143Y-13643286D01*
X15472619Y-13681381D01*
X15463095Y-13700428D01*
X15453571Y-13709952D01*
X15434524Y-13719476D01*
X15415476Y-13719476D01*
X15396428Y-13709952D01*
X15386905Y-13700428D01*
X15377381Y-13681381D01*
X15367857Y-13643286D01*
X15367857Y-13595667D01*
X15377381Y-13557571D01*
X15386905Y-13538524D01*
X15396428Y-13529000D01*
X15415476Y-13519476D01*
X15567857Y-13700428D02*
X15577381Y-13709952D01*
X15567857Y-13719476D01*
X15558333Y-13709952D01*
X15567857Y-13700428D01*
X15567857Y-13719476D01*
X15701190Y-13519476D02*
X15720238Y-13519476D01*
X15739286Y-13529000D01*
X15748809Y-13538524D01*
X15758333Y-13557571D01*
X15767857Y-13595667D01*
X15767857Y-13643286D01*
X15758333Y-13681381D01*
X15748809Y-13700428D01*
X15739286Y-13709952D01*
X15720238Y-13719476D01*
X15701190Y-13719476D01*
X15682143Y-13709952D01*
X15672619Y-13700428D01*
X15663095Y-13681381D01*
X15653571Y-13643286D01*
X15653571Y-13595667D01*
X15663095Y-13557571D01*
X15672619Y-13538524D01*
X15682143Y-13529000D01*
X15701190Y-13519476D01*
X15834524Y-13519476D02*
X15958333Y-13519476D01*
X15891667Y-13595667D01*
X15920238Y-13595667D01*
X15939286Y-13605190D01*
X15948809Y-13614714D01*
X15958333Y-13633762D01*
X15958333Y-13681381D01*
X15948809Y-13700428D01*
X15939286Y-13709952D01*
X15920238Y-13719476D01*
X15863095Y-13719476D01*
X15844048Y-13709952D01*
X15834524Y-13700428D01*
X16139286Y-13519476D02*
X16044048Y-13519476D01*
X16034524Y-13614714D01*
X16044048Y-13605190D01*
X16063095Y-13595667D01*
X16110714Y-13595667D01*
X16129762Y-13605190D01*
X16139286Y-13614714D01*
X16148809Y-13633762D01*
X16148809Y-13681381D01*
X16139286Y-13700428D01*
X16129762Y-13709952D01*
X16110714Y-13719476D01*
X16063095Y-13719476D01*
X16044048Y-13709952D01*
X16034524Y-13700428D01*
X16320238Y-13586143D02*
X16320238Y-13719476D01*
X16272619Y-13509952D02*
X16225000Y-13652809D01*
X16348809Y-13652809D01*
X16415476Y-13519476D02*
X16415476Y-13557571D01*
X16491667Y-13519476D02*
X16491667Y-13557571D01*
X16786905Y-13795667D02*
X16777381Y-13786143D01*
X16758333Y-13757571D01*
X16748809Y-13738524D01*
X16739286Y-13709952D01*
X16729762Y-13662333D01*
X16729762Y-13624238D01*
X16739286Y-13576619D01*
X16748809Y-13548048D01*
X16758333Y-13529000D01*
X16777381Y-13500428D01*
X16786905Y-13490905D01*
X16853571Y-13538524D02*
X16863095Y-13529000D01*
X16882143Y-13519476D01*
X16929762Y-13519476D01*
X16948810Y-13529000D01*
X16958333Y-13538524D01*
X16967857Y-13557571D01*
X16967857Y-13576619D01*
X16958333Y-13605190D01*
X16844048Y-13719476D01*
X16967857Y-13719476D01*
X17205952Y-13719476D02*
X17205952Y-13519476D01*
X17291667Y-13719476D02*
X17291667Y-13614714D01*
X17282143Y-13595667D01*
X17263095Y-13586143D01*
X17234524Y-13586143D01*
X17215476Y-13595667D01*
X17205952Y-13605190D01*
X17415476Y-13719476D02*
X17396429Y-13709952D01*
X17386905Y-13700428D01*
X17377381Y-13681381D01*
X17377381Y-13624238D01*
X17386905Y-13605190D01*
X17396429Y-13595667D01*
X17415476Y-13586143D01*
X17444048Y-13586143D01*
X17463095Y-13595667D01*
X17472619Y-13605190D01*
X17482143Y-13624238D01*
X17482143Y-13681381D01*
X17472619Y-13700428D01*
X17463095Y-13709952D01*
X17444048Y-13719476D01*
X17415476Y-13719476D01*
X17596429Y-13719476D02*
X17577381Y-13709952D01*
X17567857Y-13690905D01*
X17567857Y-13519476D01*
X17748810Y-13709952D02*
X17729762Y-13719476D01*
X17691667Y-13719476D01*
X17672619Y-13709952D01*
X17663095Y-13690905D01*
X17663095Y-13614714D01*
X17672619Y-13595667D01*
X17691667Y-13586143D01*
X17729762Y-13586143D01*
X17748810Y-13595667D01*
X17758333Y-13614714D01*
X17758333Y-13633762D01*
X17663095Y-13652809D01*
X17834524Y-13709952D02*
X17853571Y-13719476D01*
X17891667Y-13719476D01*
X17910714Y-13709952D01*
X17920238Y-13690905D01*
X17920238Y-13681381D01*
X17910714Y-13662333D01*
X17891667Y-13652809D01*
X17863095Y-13652809D01*
X17844048Y-13643286D01*
X17834524Y-13624238D01*
X17834524Y-13614714D01*
X17844048Y-13595667D01*
X17863095Y-13586143D01*
X17891667Y-13586143D01*
X17910714Y-13595667D01*
X17986905Y-13795667D02*
X17996429Y-13786143D01*
X18015476Y-13757571D01*
X18025000Y-13738524D01*
X18034524Y-13709952D01*
X18044048Y-13662333D01*
X18044048Y-13624238D01*
X18034524Y-13576619D01*
X18025000Y-13548048D01*
X18015476Y-13529000D01*
X17996429Y-13500428D01*
X17986905Y-13490905D01*
D16*
X13165000Y-13943000D02*
X13215000Y-13893000D01*
X13165000Y-13843000D01*
X13115000Y-13893000D01*
X13165000Y-13943000D01*
D11*
X13577381Y-13983476D02*
X13463095Y-13983476D01*
X13520238Y-13983476D02*
X13520238Y-13783476D01*
X13501190Y-13812048D01*
X13482143Y-13831095D01*
X13463095Y-13840619D01*
X13663095Y-13964428D02*
X13672619Y-13973952D01*
X13663095Y-13983476D01*
X13653571Y-13973952D01*
X13663095Y-13964428D01*
X13663095Y-13983476D01*
X13796428Y-13783476D02*
X13815476Y-13783476D01*
X13834524Y-13793000D01*
X13844048Y-13802524D01*
X13853571Y-13821571D01*
X13863095Y-13859667D01*
X13863095Y-13907286D01*
X13853571Y-13945381D01*
X13844048Y-13964428D01*
X13834524Y-13973952D01*
X13815476Y-13983476D01*
X13796428Y-13983476D01*
X13777381Y-13973952D01*
X13767857Y-13964428D01*
X13758333Y-13945381D01*
X13748809Y-13907286D01*
X13748809Y-13859667D01*
X13758333Y-13821571D01*
X13767857Y-13802524D01*
X13777381Y-13793000D01*
X13796428Y-13783476D01*
X13986905Y-13783476D02*
X14005952Y-13783476D01*
X14025000Y-13793000D01*
X14034524Y-13802524D01*
X14044048Y-13821571D01*
X14053571Y-13859667D01*
X14053571Y-13907286D01*
X14044048Y-13945381D01*
X14034524Y-13964428D01*
X14025000Y-13973952D01*
X14005952Y-13983476D01*
X13986905Y-13983476D01*
X13967857Y-13973952D01*
X13958333Y-13964428D01*
X13948809Y-13945381D01*
X13939286Y-13907286D01*
X13939286Y-13859667D01*
X13948809Y-13821571D01*
X13958333Y-13802524D01*
X13967857Y-13793000D01*
X13986905Y-13783476D01*
X14177381Y-13783476D02*
X14196428Y-13783476D01*
X14215476Y-13793000D01*
X14225000Y-13802524D01*
X14234524Y-13821571D01*
X14244048Y-13859667D01*
X14244048Y-13907286D01*
X14234524Y-13945381D01*
X14225000Y-13964428D01*
X14215476Y-13973952D01*
X14196428Y-13983476D01*
X14177381Y-13983476D01*
X14158333Y-13973952D01*
X14148809Y-13964428D01*
X14139286Y-13945381D01*
X14129762Y-13907286D01*
X14129762Y-13859667D01*
X14139286Y-13821571D01*
X14148809Y-13802524D01*
X14158333Y-13793000D01*
X14177381Y-13783476D01*
X14329762Y-13983476D02*
X14329762Y-13850143D01*
X14329762Y-13869190D02*
X14339286Y-13859667D01*
X14358333Y-13850143D01*
X14386905Y-13850143D01*
X14405952Y-13859667D01*
X14415476Y-13878714D01*
X14415476Y-13983476D01*
X14415476Y-13878714D02*
X14425000Y-13859667D01*
X14444048Y-13850143D01*
X14472619Y-13850143D01*
X14491667Y-13859667D01*
X14501190Y-13878714D01*
X14501190Y-13983476D01*
X14596428Y-13983476D02*
X14596428Y-13850143D01*
X14596428Y-13869190D02*
X14605952Y-13859667D01*
X14625000Y-13850143D01*
X14653571Y-13850143D01*
X14672619Y-13859667D01*
X14682143Y-13878714D01*
X14682143Y-13983476D01*
X14682143Y-13878714D02*
X14691667Y-13859667D01*
X14710714Y-13850143D01*
X14739286Y-13850143D01*
X14758333Y-13859667D01*
X14767857Y-13878714D01*
X14767857Y-13983476D01*
X15158333Y-13773952D02*
X14986905Y-14031095D01*
X15415476Y-13783476D02*
X15434524Y-13783476D01*
X15453571Y-13793000D01*
X15463095Y-13802524D01*
X15472619Y-13821571D01*
X15482143Y-13859667D01*
X15482143Y-13907286D01*
X15472619Y-13945381D01*
X15463095Y-13964428D01*
X15453571Y-13973952D01*
X15434524Y-13983476D01*
X15415476Y-13983476D01*
X15396428Y-13973952D01*
X15386905Y-13964428D01*
X15377381Y-13945381D01*
X15367857Y-13907286D01*
X15367857Y-13859667D01*
X15377381Y-13821571D01*
X15386905Y-13802524D01*
X15396428Y-13793000D01*
X15415476Y-13783476D01*
X15567857Y-13964428D02*
X15577381Y-13973952D01*
X15567857Y-13983476D01*
X15558333Y-13973952D01*
X15567857Y-13964428D01*
X15567857Y-13983476D01*
X15701190Y-13783476D02*
X15720238Y-13783476D01*
X15739286Y-13793000D01*
X15748809Y-13802524D01*
X15758333Y-13821571D01*
X15767857Y-13859667D01*
X15767857Y-13907286D01*
X15758333Y-13945381D01*
X15748809Y-13964428D01*
X15739286Y-13973952D01*
X15720238Y-13983476D01*
X15701190Y-13983476D01*
X15682143Y-13973952D01*
X15672619Y-13964428D01*
X15663095Y-13945381D01*
X15653571Y-13907286D01*
X15653571Y-13859667D01*
X15663095Y-13821571D01*
X15672619Y-13802524D01*
X15682143Y-13793000D01*
X15701190Y-13783476D01*
X15834524Y-13783476D02*
X15958333Y-13783476D01*
X15891667Y-13859667D01*
X15920238Y-13859667D01*
X15939286Y-13869190D01*
X15948809Y-13878714D01*
X15958333Y-13897762D01*
X15958333Y-13945381D01*
X15948809Y-13964428D01*
X15939286Y-13973952D01*
X15920238Y-13983476D01*
X15863095Y-13983476D01*
X15844048Y-13973952D01*
X15834524Y-13964428D01*
X16053571Y-13983476D02*
X16091667Y-13983476D01*
X16110714Y-13973952D01*
X16120238Y-13964428D01*
X16139286Y-13935857D01*
X16148809Y-13897762D01*
X16148809Y-13821571D01*
X16139286Y-13802524D01*
X16129762Y-13793000D01*
X16110714Y-13783476D01*
X16072619Y-13783476D01*
X16053571Y-13793000D01*
X16044048Y-13802524D01*
X16034524Y-13821571D01*
X16034524Y-13869190D01*
X16044048Y-13888238D01*
X16053571Y-13897762D01*
X16072619Y-13907286D01*
X16110714Y-13907286D01*
X16129762Y-13897762D01*
X16139286Y-13888238D01*
X16148809Y-13869190D01*
X16320238Y-13850143D02*
X16320238Y-13983476D01*
X16272619Y-13773952D02*
X16225000Y-13916809D01*
X16348809Y-13916809D01*
X16415476Y-13783476D02*
X16415476Y-13821571D01*
X16491667Y-13783476D02*
X16491667Y-13821571D01*
X16786905Y-14059667D02*
X16777381Y-14050143D01*
X16758333Y-14021571D01*
X16748809Y-14002524D01*
X16739286Y-13973952D01*
X16729762Y-13926333D01*
X16729762Y-13888238D01*
X16739286Y-13840619D01*
X16748809Y-13812048D01*
X16758333Y-13793000D01*
X16777381Y-13764428D01*
X16786905Y-13754905D01*
X16844048Y-13783476D02*
X16967857Y-13783476D01*
X16901190Y-13859667D01*
X16929762Y-13859667D01*
X16948810Y-13869190D01*
X16958333Y-13878714D01*
X16967857Y-13897762D01*
X16967857Y-13945381D01*
X16958333Y-13964428D01*
X16948810Y-13973952D01*
X16929762Y-13983476D01*
X16872619Y-13983476D01*
X16853571Y-13973952D01*
X16844048Y-13964428D01*
X17139286Y-13850143D02*
X17139286Y-13983476D01*
X17091667Y-13773952D02*
X17044048Y-13916809D01*
X17167857Y-13916809D01*
X17396429Y-13983476D02*
X17396429Y-13783476D01*
X17482143Y-13983476D02*
X17482143Y-13878714D01*
X17472619Y-13859667D01*
X17453571Y-13850143D01*
X17425000Y-13850143D01*
X17405952Y-13859667D01*
X17396429Y-13869190D01*
X17605952Y-13983476D02*
X17586905Y-13973952D01*
X17577381Y-13964428D01*
X17567857Y-13945381D01*
X17567857Y-13888238D01*
X17577381Y-13869190D01*
X17586905Y-13859667D01*
X17605952Y-13850143D01*
X17634524Y-13850143D01*
X17653571Y-13859667D01*
X17663095Y-13869190D01*
X17672619Y-13888238D01*
X17672619Y-13945381D01*
X17663095Y-13964428D01*
X17653571Y-13973952D01*
X17634524Y-13983476D01*
X17605952Y-13983476D01*
X17786905Y-13983476D02*
X17767857Y-13973952D01*
X17758333Y-13954905D01*
X17758333Y-13783476D01*
X17939286Y-13973952D02*
X17920238Y-13983476D01*
X17882143Y-13983476D01*
X17863095Y-13973952D01*
X17853571Y-13954905D01*
X17853571Y-13878714D01*
X17863095Y-13859667D01*
X17882143Y-13850143D01*
X17920238Y-13850143D01*
X17939286Y-13859667D01*
X17948810Y-13878714D01*
X17948810Y-13897762D01*
X17853571Y-13916809D01*
X18025000Y-13973952D02*
X18044048Y-13983476D01*
X18082143Y-13983476D01*
X18101190Y-13973952D01*
X18110714Y-13954905D01*
X18110714Y-13945381D01*
X18101190Y-13926333D01*
X18082143Y-13916809D01*
X18053571Y-13916809D01*
X18034524Y-13907286D01*
X18025000Y-13888238D01*
X18025000Y-13878714D01*
X18034524Y-13859667D01*
X18053571Y-13850143D01*
X18082143Y-13850143D01*
X18101190Y-13859667D01*
X18177381Y-14059667D02*
X18186905Y-14050143D01*
X18205952Y-14021571D01*
X18215476Y-14002524D01*
X18225000Y-13973952D01*
X18234524Y-13926333D01*
X18234524Y-13888238D01*
X18225000Y-13840619D01*
X18215476Y-13812048D01*
X18205952Y-13793000D01*
X18186905Y-13764428D01*
X18177381Y-13754905D01*
D17*
X13113400Y-14106200D02*
X13215000Y-14207800D01*
X13215000Y-14106200D02*
X13113400Y-14207800D01*
X13215000Y-14157000D02*
G75*
G03*
X13215000Y-14157000I-50800J0D01*
G01*
D11*
X13577381Y-14247476D02*
X13463095Y-14247476D01*
X13520238Y-14247476D02*
X13520238Y-14047476D01*
X13501190Y-14076048D01*
X13482143Y-14095095D01*
X13463095Y-14104619D01*
X13663095Y-14228428D02*
X13672619Y-14237952D01*
X13663095Y-14247476D01*
X13653571Y-14237952D01*
X13663095Y-14228428D01*
X13663095Y-14247476D01*
X13796428Y-14047476D02*
X13815476Y-14047476D01*
X13834524Y-14057000D01*
X13844048Y-14066524D01*
X13853571Y-14085571D01*
X13863095Y-14123667D01*
X13863095Y-14171286D01*
X13853571Y-14209381D01*
X13844048Y-14228428D01*
X13834524Y-14237952D01*
X13815476Y-14247476D01*
X13796428Y-14247476D01*
X13777381Y-14237952D01*
X13767857Y-14228428D01*
X13758333Y-14209381D01*
X13748809Y-14171286D01*
X13748809Y-14123667D01*
X13758333Y-14085571D01*
X13767857Y-14066524D01*
X13777381Y-14057000D01*
X13796428Y-14047476D01*
X14053571Y-14247476D02*
X13939286Y-14247476D01*
X13996428Y-14247476D02*
X13996428Y-14047476D01*
X13977381Y-14076048D01*
X13958333Y-14095095D01*
X13939286Y-14104619D01*
X14225000Y-14047476D02*
X14186905Y-14047476D01*
X14167857Y-14057000D01*
X14158333Y-14066524D01*
X14139286Y-14095095D01*
X14129762Y-14133190D01*
X14129762Y-14209381D01*
X14139286Y-14228428D01*
X14148809Y-14237952D01*
X14167857Y-14247476D01*
X14205952Y-14247476D01*
X14225000Y-14237952D01*
X14234524Y-14228428D01*
X14244048Y-14209381D01*
X14244048Y-14161762D01*
X14234524Y-14142714D01*
X14225000Y-14133190D01*
X14205952Y-14123667D01*
X14167857Y-14123667D01*
X14148809Y-14133190D01*
X14139286Y-14142714D01*
X14129762Y-14161762D01*
X14329762Y-14247476D02*
X14329762Y-14114143D01*
X14329762Y-14133190D02*
X14339286Y-14123667D01*
X14358333Y-14114143D01*
X14386905Y-14114143D01*
X14405952Y-14123667D01*
X14415476Y-14142714D01*
X14415476Y-14247476D01*
X14415476Y-14142714D02*
X14425000Y-14123667D01*
X14444048Y-14114143D01*
X14472619Y-14114143D01*
X14491667Y-14123667D01*
X14501190Y-14142714D01*
X14501190Y-14247476D01*
X14596428Y-14247476D02*
X14596428Y-14114143D01*
X14596428Y-14133190D02*
X14605952Y-14123667D01*
X14625000Y-14114143D01*
X14653571Y-14114143D01*
X14672619Y-14123667D01*
X14682143Y-14142714D01*
X14682143Y-14247476D01*
X14682143Y-14142714D02*
X14691667Y-14123667D01*
X14710714Y-14114143D01*
X14739286Y-14114143D01*
X14758333Y-14123667D01*
X14767857Y-14142714D01*
X14767857Y-14247476D01*
X15158333Y-14037952D02*
X14986905Y-14295095D01*
X15415476Y-14047476D02*
X15434524Y-14047476D01*
X15453571Y-14057000D01*
X15463095Y-14066524D01*
X15472619Y-14085571D01*
X15482143Y-14123667D01*
X15482143Y-14171286D01*
X15472619Y-14209381D01*
X15463095Y-14228428D01*
X15453571Y-14237952D01*
X15434524Y-14247476D01*
X15415476Y-14247476D01*
X15396428Y-14237952D01*
X15386905Y-14228428D01*
X15377381Y-14209381D01*
X15367857Y-14171286D01*
X15367857Y-14123667D01*
X15377381Y-14085571D01*
X15386905Y-14066524D01*
X15396428Y-14057000D01*
X15415476Y-14047476D01*
X15567857Y-14228428D02*
X15577381Y-14237952D01*
X15567857Y-14247476D01*
X15558333Y-14237952D01*
X15567857Y-14228428D01*
X15567857Y-14247476D01*
X15701190Y-14047476D02*
X15720238Y-14047476D01*
X15739286Y-14057000D01*
X15748809Y-14066524D01*
X15758333Y-14085571D01*
X15767857Y-14123667D01*
X15767857Y-14171286D01*
X15758333Y-14209381D01*
X15748809Y-14228428D01*
X15739286Y-14237952D01*
X15720238Y-14247476D01*
X15701190Y-14247476D01*
X15682143Y-14237952D01*
X15672619Y-14228428D01*
X15663095Y-14209381D01*
X15653571Y-14171286D01*
X15653571Y-14123667D01*
X15663095Y-14085571D01*
X15672619Y-14066524D01*
X15682143Y-14057000D01*
X15701190Y-14047476D01*
X15939286Y-14114143D02*
X15939286Y-14247476D01*
X15891667Y-14037952D02*
X15844048Y-14180809D01*
X15967857Y-14180809D01*
X16082143Y-14047476D02*
X16101190Y-14047476D01*
X16120238Y-14057000D01*
X16129762Y-14066524D01*
X16139286Y-14085571D01*
X16148809Y-14123667D01*
X16148809Y-14171286D01*
X16139286Y-14209381D01*
X16129762Y-14228428D01*
X16120238Y-14237952D01*
X16101190Y-14247476D01*
X16082143Y-14247476D01*
X16063095Y-14237952D01*
X16053571Y-14228428D01*
X16044048Y-14209381D01*
X16034524Y-14171286D01*
X16034524Y-14123667D01*
X16044048Y-14085571D01*
X16053571Y-14066524D01*
X16063095Y-14057000D01*
X16082143Y-14047476D01*
X16272619Y-14047476D02*
X16291667Y-14047476D01*
X16310714Y-14057000D01*
X16320238Y-14066524D01*
X16329762Y-14085571D01*
X16339286Y-14123667D01*
X16339286Y-14171286D01*
X16329762Y-14209381D01*
X16320238Y-14228428D01*
X16310714Y-14237952D01*
X16291667Y-14247476D01*
X16272619Y-14247476D01*
X16253571Y-14237952D01*
X16244048Y-14228428D01*
X16234524Y-14209381D01*
X16225000Y-14171286D01*
X16225000Y-14123667D01*
X16234524Y-14085571D01*
X16244048Y-14066524D01*
X16253571Y-14057000D01*
X16272619Y-14047476D01*
X16415476Y-14047476D02*
X16415476Y-14085571D01*
X16491667Y-14047476D02*
X16491667Y-14085571D01*
X16786905Y-14323667D02*
X16777381Y-14314143D01*
X16758333Y-14285571D01*
X16748809Y-14266524D01*
X16739286Y-14237952D01*
X16729762Y-14190333D01*
X16729762Y-14152238D01*
X16739286Y-14104619D01*
X16748809Y-14076048D01*
X16758333Y-14057000D01*
X16777381Y-14028428D01*
X16786905Y-14018905D01*
X16948810Y-14114143D02*
X16948810Y-14247476D01*
X16901190Y-14037952D02*
X16853571Y-14180809D01*
X16977381Y-14180809D01*
X17034524Y-14047476D02*
X17158333Y-14047476D01*
X17091667Y-14123667D01*
X17120238Y-14123667D01*
X17139286Y-14133190D01*
X17148810Y-14142714D01*
X17158333Y-14161762D01*
X17158333Y-14209381D01*
X17148810Y-14228428D01*
X17139286Y-14237952D01*
X17120238Y-14247476D01*
X17063095Y-14247476D01*
X17044048Y-14237952D01*
X17034524Y-14228428D01*
X17396429Y-14247476D02*
X17396429Y-14047476D01*
X17482143Y-14247476D02*
X17482143Y-14142714D01*
X17472619Y-14123667D01*
X17453571Y-14114143D01*
X17425000Y-14114143D01*
X17405952Y-14123667D01*
X17396429Y-14133190D01*
X17605952Y-14247476D02*
X17586905Y-14237952D01*
X17577381Y-14228428D01*
X17567857Y-14209381D01*
X17567857Y-14152238D01*
X17577381Y-14133190D01*
X17586905Y-14123667D01*
X17605952Y-14114143D01*
X17634524Y-14114143D01*
X17653571Y-14123667D01*
X17663095Y-14133190D01*
X17672619Y-14152238D01*
X17672619Y-14209381D01*
X17663095Y-14228428D01*
X17653571Y-14237952D01*
X17634524Y-14247476D01*
X17605952Y-14247476D01*
X17786905Y-14247476D02*
X17767857Y-14237952D01*
X17758333Y-14218905D01*
X17758333Y-14047476D01*
X17939286Y-14237952D02*
X17920238Y-14247476D01*
X17882143Y-14247476D01*
X17863095Y-14237952D01*
X17853571Y-14218905D01*
X17853571Y-14142714D01*
X17863095Y-14123667D01*
X17882143Y-14114143D01*
X17920238Y-14114143D01*
X17939286Y-14123667D01*
X17948810Y-14142714D01*
X17948810Y-14161762D01*
X17853571Y-14180809D01*
X18025000Y-14237952D02*
X18044048Y-14247476D01*
X18082143Y-14247476D01*
X18101190Y-14237952D01*
X18110714Y-14218905D01*
X18110714Y-14209381D01*
X18101190Y-14190333D01*
X18082143Y-14180809D01*
X18053571Y-14180809D01*
X18034524Y-14171286D01*
X18025000Y-14152238D01*
X18025000Y-14142714D01*
X18034524Y-14123667D01*
X18053571Y-14114143D01*
X18082143Y-14114143D01*
X18101190Y-14123667D01*
X18177381Y-14323667D02*
X18186905Y-14314143D01*
X18205952Y-14285571D01*
X18215476Y-14266524D01*
X18225000Y-14237952D01*
X18234524Y-14190333D01*
X18234524Y-14152238D01*
X18225000Y-14104619D01*
X18215476Y-14076048D01*
X18205952Y-14057000D01*
X18186905Y-14028428D01*
X18177381Y-14018905D01*
D18*
X13105000Y-14366000D02*
X13215000Y-14476000D01*
X13215000Y-14366000D02*
X13105000Y-14476000D01*
X13160000Y-14366000D02*
X13160000Y-14476000D01*
X13105000Y-14421000D02*
X13215000Y-14421000D01*
D11*
X13577381Y-14511476D02*
X13463095Y-14511476D01*
X13520238Y-14511476D02*
X13520238Y-14311476D01*
X13501190Y-14340048D01*
X13482143Y-14359095D01*
X13463095Y-14368619D01*
X13663095Y-14492428D02*
X13672619Y-14501952D01*
X13663095Y-14511476D01*
X13653571Y-14501952D01*
X13663095Y-14492428D01*
X13663095Y-14511476D01*
X13863095Y-14511476D02*
X13748809Y-14511476D01*
X13805952Y-14511476D02*
X13805952Y-14311476D01*
X13786905Y-14340048D01*
X13767857Y-14359095D01*
X13748809Y-14368619D01*
X13986905Y-14311476D02*
X14005952Y-14311476D01*
X14025000Y-14321000D01*
X14034524Y-14330524D01*
X14044048Y-14349571D01*
X14053571Y-14387667D01*
X14053571Y-14435286D01*
X14044048Y-14473381D01*
X14034524Y-14492428D01*
X14025000Y-14501952D01*
X14005952Y-14511476D01*
X13986905Y-14511476D01*
X13967857Y-14501952D01*
X13958333Y-14492428D01*
X13948809Y-14473381D01*
X13939286Y-14435286D01*
X13939286Y-14387667D01*
X13948809Y-14349571D01*
X13958333Y-14330524D01*
X13967857Y-14321000D01*
X13986905Y-14311476D01*
X14177381Y-14311476D02*
X14196428Y-14311476D01*
X14215476Y-14321000D01*
X14225000Y-14330524D01*
X14234524Y-14349571D01*
X14244048Y-14387667D01*
X14244048Y-14435286D01*
X14234524Y-14473381D01*
X14225000Y-14492428D01*
X14215476Y-14501952D01*
X14196428Y-14511476D01*
X14177381Y-14511476D01*
X14158333Y-14501952D01*
X14148809Y-14492428D01*
X14139286Y-14473381D01*
X14129762Y-14435286D01*
X14129762Y-14387667D01*
X14139286Y-14349571D01*
X14148809Y-14330524D01*
X14158333Y-14321000D01*
X14177381Y-14311476D01*
X14329762Y-14511476D02*
X14329762Y-14378143D01*
X14329762Y-14397190D02*
X14339286Y-14387667D01*
X14358333Y-14378143D01*
X14386905Y-14378143D01*
X14405952Y-14387667D01*
X14415476Y-14406714D01*
X14415476Y-14511476D01*
X14415476Y-14406714D02*
X14425000Y-14387667D01*
X14444048Y-14378143D01*
X14472619Y-14378143D01*
X14491667Y-14387667D01*
X14501190Y-14406714D01*
X14501190Y-14511476D01*
X14596428Y-14511476D02*
X14596428Y-14378143D01*
X14596428Y-14397190D02*
X14605952Y-14387667D01*
X14625000Y-14378143D01*
X14653571Y-14378143D01*
X14672619Y-14387667D01*
X14682143Y-14406714D01*
X14682143Y-14511476D01*
X14682143Y-14406714D02*
X14691667Y-14387667D01*
X14710714Y-14378143D01*
X14739286Y-14378143D01*
X14758333Y-14387667D01*
X14767857Y-14406714D01*
X14767857Y-14511476D01*
X15158333Y-14301952D02*
X14986905Y-14559095D01*
X15415476Y-14311476D02*
X15434524Y-14311476D01*
X15453571Y-14321000D01*
X15463095Y-14330524D01*
X15472619Y-14349571D01*
X15482143Y-14387667D01*
X15482143Y-14435286D01*
X15472619Y-14473381D01*
X15463095Y-14492428D01*
X15453571Y-14501952D01*
X15434524Y-14511476D01*
X15415476Y-14511476D01*
X15396428Y-14501952D01*
X15386905Y-14492428D01*
X15377381Y-14473381D01*
X15367857Y-14435286D01*
X15367857Y-14387667D01*
X15377381Y-14349571D01*
X15386905Y-14330524D01*
X15396428Y-14321000D01*
X15415476Y-14311476D01*
X15567857Y-14492428D02*
X15577381Y-14501952D01*
X15567857Y-14511476D01*
X15558333Y-14501952D01*
X15567857Y-14492428D01*
X15567857Y-14511476D01*
X15701190Y-14311476D02*
X15720238Y-14311476D01*
X15739286Y-14321000D01*
X15748809Y-14330524D01*
X15758333Y-14349571D01*
X15767857Y-14387667D01*
X15767857Y-14435286D01*
X15758333Y-14473381D01*
X15748809Y-14492428D01*
X15739286Y-14501952D01*
X15720238Y-14511476D01*
X15701190Y-14511476D01*
X15682143Y-14501952D01*
X15672619Y-14492428D01*
X15663095Y-14473381D01*
X15653571Y-14435286D01*
X15653571Y-14387667D01*
X15663095Y-14349571D01*
X15672619Y-14330524D01*
X15682143Y-14321000D01*
X15701190Y-14311476D01*
X15939286Y-14378143D02*
X15939286Y-14511476D01*
X15891667Y-14301952D02*
X15844048Y-14444809D01*
X15967857Y-14444809D01*
X16025000Y-14311476D02*
X16148809Y-14311476D01*
X16082143Y-14387667D01*
X16110714Y-14387667D01*
X16129762Y-14397190D01*
X16139286Y-14406714D01*
X16148809Y-14425762D01*
X16148809Y-14473381D01*
X16139286Y-14492428D01*
X16129762Y-14501952D01*
X16110714Y-14511476D01*
X16053571Y-14511476D01*
X16034524Y-14501952D01*
X16025000Y-14492428D01*
X16215476Y-14311476D02*
X16339286Y-14311476D01*
X16272619Y-14387667D01*
X16301190Y-14387667D01*
X16320238Y-14397190D01*
X16329762Y-14406714D01*
X16339286Y-14425762D01*
X16339286Y-14473381D01*
X16329762Y-14492428D01*
X16320238Y-14501952D01*
X16301190Y-14511476D01*
X16244048Y-14511476D01*
X16225000Y-14501952D01*
X16215476Y-14492428D01*
X16415476Y-14311476D02*
X16415476Y-14349571D01*
X16491667Y-14311476D02*
X16491667Y-14349571D01*
X16786905Y-14587667D02*
X16777381Y-14578143D01*
X16758333Y-14549571D01*
X16748809Y-14530524D01*
X16739286Y-14501952D01*
X16729762Y-14454333D01*
X16729762Y-14416238D01*
X16739286Y-14368619D01*
X16748809Y-14340048D01*
X16758333Y-14321000D01*
X16777381Y-14292428D01*
X16786905Y-14282905D01*
X16948810Y-14378143D02*
X16948810Y-14511476D01*
X16901190Y-14301952D02*
X16853571Y-14444809D01*
X16977381Y-14444809D01*
X17205952Y-14511476D02*
X17205952Y-14311476D01*
X17291667Y-14511476D02*
X17291667Y-14406714D01*
X17282143Y-14387667D01*
X17263095Y-14378143D01*
X17234524Y-14378143D01*
X17215476Y-14387667D01*
X17205952Y-14397190D01*
X17415476Y-14511476D02*
X17396429Y-14501952D01*
X17386905Y-14492428D01*
X17377381Y-14473381D01*
X17377381Y-14416238D01*
X17386905Y-14397190D01*
X17396429Y-14387667D01*
X17415476Y-14378143D01*
X17444048Y-14378143D01*
X17463095Y-14387667D01*
X17472619Y-14397190D01*
X17482143Y-14416238D01*
X17482143Y-14473381D01*
X17472619Y-14492428D01*
X17463095Y-14501952D01*
X17444048Y-14511476D01*
X17415476Y-14511476D01*
X17596429Y-14511476D02*
X17577381Y-14501952D01*
X17567857Y-14482905D01*
X17567857Y-14311476D01*
X17748810Y-14501952D02*
X17729762Y-14511476D01*
X17691667Y-14511476D01*
X17672619Y-14501952D01*
X17663095Y-14482905D01*
X17663095Y-14406714D01*
X17672619Y-14387667D01*
X17691667Y-14378143D01*
X17729762Y-14378143D01*
X17748810Y-14387667D01*
X17758333Y-14406714D01*
X17758333Y-14425762D01*
X17663095Y-14444809D01*
X17834524Y-14501952D02*
X17853571Y-14511476D01*
X17891667Y-14511476D01*
X17910714Y-14501952D01*
X17920238Y-14482905D01*
X17920238Y-14473381D01*
X17910714Y-14454333D01*
X17891667Y-14444809D01*
X17863095Y-14444809D01*
X17844048Y-14435286D01*
X17834524Y-14416238D01*
X17834524Y-14406714D01*
X17844048Y-14387667D01*
X17863095Y-14378143D01*
X17891667Y-14378143D01*
X17910714Y-14387667D01*
X17986905Y-14587667D02*
X17996429Y-14578143D01*
X18015476Y-14549571D01*
X18025000Y-14530524D01*
X18034524Y-14501952D01*
X18044048Y-14454333D01*
X18044048Y-14416238D01*
X18034524Y-14368619D01*
X18025000Y-14340048D01*
X18015476Y-14321000D01*
X17996429Y-14292428D01*
X17986905Y-14282905D01*
D19*
X13037200Y-14596100D02*
X13215000Y-14773900D01*
X13215000Y-14596100D02*
X13037200Y-14773900D01*
X13188962Y-14747862D02*
X13188962Y-14622138D01*
X13063238Y-14622138D01*
X13063238Y-14747862D01*
X13188962Y-14747862D01*
D11*
X13577381Y-14775476D02*
X13463095Y-14775476D01*
X13520238Y-14775476D02*
X13520238Y-14575476D01*
X13501190Y-14604048D01*
X13482143Y-14623095D01*
X13463095Y-14632619D01*
X13663095Y-14756428D02*
X13672619Y-14765952D01*
X13663095Y-14775476D01*
X13653571Y-14765952D01*
X13663095Y-14756428D01*
X13663095Y-14775476D01*
X13739286Y-14575476D02*
X13872619Y-14575476D01*
X13786905Y-14775476D01*
X13929762Y-14575476D02*
X14063095Y-14575476D01*
X13977381Y-14775476D01*
X14167857Y-14661190D02*
X14148809Y-14651667D01*
X14139286Y-14642143D01*
X14129762Y-14623095D01*
X14129762Y-14613571D01*
X14139286Y-14594524D01*
X14148809Y-14585000D01*
X14167857Y-14575476D01*
X14205952Y-14575476D01*
X14225000Y-14585000D01*
X14234524Y-14594524D01*
X14244048Y-14613571D01*
X14244048Y-14623095D01*
X14234524Y-14642143D01*
X14225000Y-14651667D01*
X14205952Y-14661190D01*
X14167857Y-14661190D01*
X14148809Y-14670714D01*
X14139286Y-14680238D01*
X14129762Y-14699286D01*
X14129762Y-14737381D01*
X14139286Y-14756428D01*
X14148809Y-14765952D01*
X14167857Y-14775476D01*
X14205952Y-14775476D01*
X14225000Y-14765952D01*
X14234524Y-14756428D01*
X14244048Y-14737381D01*
X14244048Y-14699286D01*
X14234524Y-14680238D01*
X14225000Y-14670714D01*
X14205952Y-14661190D01*
X14329762Y-14775476D02*
X14329762Y-14642143D01*
X14329762Y-14661190D02*
X14339286Y-14651667D01*
X14358333Y-14642143D01*
X14386905Y-14642143D01*
X14405952Y-14651667D01*
X14415476Y-14670714D01*
X14415476Y-14775476D01*
X14415476Y-14670714D02*
X14425000Y-14651667D01*
X14444048Y-14642143D01*
X14472619Y-14642143D01*
X14491667Y-14651667D01*
X14501190Y-14670714D01*
X14501190Y-14775476D01*
X14596428Y-14775476D02*
X14596428Y-14642143D01*
X14596428Y-14661190D02*
X14605952Y-14651667D01*
X14625000Y-14642143D01*
X14653571Y-14642143D01*
X14672619Y-14651667D01*
X14682143Y-14670714D01*
X14682143Y-14775476D01*
X14682143Y-14670714D02*
X14691667Y-14651667D01*
X14710714Y-14642143D01*
X14739286Y-14642143D01*
X14758333Y-14651667D01*
X14767857Y-14670714D01*
X14767857Y-14775476D01*
X15158333Y-14565952D02*
X14986905Y-14823095D01*
X15415476Y-14575476D02*
X15434524Y-14575476D01*
X15453571Y-14585000D01*
X15463095Y-14594524D01*
X15472619Y-14613571D01*
X15482143Y-14651667D01*
X15482143Y-14699286D01*
X15472619Y-14737381D01*
X15463095Y-14756428D01*
X15453571Y-14765952D01*
X15434524Y-14775476D01*
X15415476Y-14775476D01*
X15396428Y-14765952D01*
X15386905Y-14756428D01*
X15377381Y-14737381D01*
X15367857Y-14699286D01*
X15367857Y-14651667D01*
X15377381Y-14613571D01*
X15386905Y-14594524D01*
X15396428Y-14585000D01*
X15415476Y-14575476D01*
X15567857Y-14756428D02*
X15577381Y-14765952D01*
X15567857Y-14775476D01*
X15558333Y-14765952D01*
X15567857Y-14756428D01*
X15567857Y-14775476D01*
X15701190Y-14575476D02*
X15720238Y-14575476D01*
X15739286Y-14585000D01*
X15748809Y-14594524D01*
X15758333Y-14613571D01*
X15767857Y-14651667D01*
X15767857Y-14699286D01*
X15758333Y-14737381D01*
X15748809Y-14756428D01*
X15739286Y-14765952D01*
X15720238Y-14775476D01*
X15701190Y-14775476D01*
X15682143Y-14765952D01*
X15672619Y-14756428D01*
X15663095Y-14737381D01*
X15653571Y-14699286D01*
X15653571Y-14651667D01*
X15663095Y-14613571D01*
X15672619Y-14594524D01*
X15682143Y-14585000D01*
X15701190Y-14575476D01*
X15834524Y-14575476D02*
X15967857Y-14575476D01*
X15882143Y-14775476D01*
X16082143Y-14575476D02*
X16101190Y-14575476D01*
X16120238Y-14585000D01*
X16129762Y-14594524D01*
X16139286Y-14613571D01*
X16148809Y-14651667D01*
X16148809Y-14699286D01*
X16139286Y-14737381D01*
X16129762Y-14756428D01*
X16120238Y-14765952D01*
X16101190Y-14775476D01*
X16082143Y-14775476D01*
X16063095Y-14765952D01*
X16053571Y-14756428D01*
X16044048Y-14737381D01*
X16034524Y-14699286D01*
X16034524Y-14651667D01*
X16044048Y-14613571D01*
X16053571Y-14594524D01*
X16063095Y-14585000D01*
X16082143Y-14575476D01*
X16272619Y-14575476D02*
X16291667Y-14575476D01*
X16310714Y-14585000D01*
X16320238Y-14594524D01*
X16329762Y-14613571D01*
X16339286Y-14651667D01*
X16339286Y-14699286D01*
X16329762Y-14737381D01*
X16320238Y-14756428D01*
X16310714Y-14765952D01*
X16291667Y-14775476D01*
X16272619Y-14775476D01*
X16253571Y-14765952D01*
X16244048Y-14756428D01*
X16234524Y-14737381D01*
X16225000Y-14699286D01*
X16225000Y-14651667D01*
X16234524Y-14613571D01*
X16244048Y-14594524D01*
X16253571Y-14585000D01*
X16272619Y-14575476D01*
X16415476Y-14575476D02*
X16415476Y-14613571D01*
X16491667Y-14575476D02*
X16491667Y-14613571D01*
X16786905Y-14851667D02*
X16777381Y-14842143D01*
X16758333Y-14813571D01*
X16748809Y-14794524D01*
X16739286Y-14765952D01*
X16729762Y-14718333D01*
X16729762Y-14680238D01*
X16739286Y-14632619D01*
X16748809Y-14604048D01*
X16758333Y-14585000D01*
X16777381Y-14556428D01*
X16786905Y-14546905D01*
X16853571Y-14594524D02*
X16863095Y-14585000D01*
X16882143Y-14575476D01*
X16929762Y-14575476D01*
X16948810Y-14585000D01*
X16958333Y-14594524D01*
X16967857Y-14613571D01*
X16967857Y-14632619D01*
X16958333Y-14661190D01*
X16844048Y-14775476D01*
X16967857Y-14775476D01*
X17205952Y-14775476D02*
X17205952Y-14575476D01*
X17291667Y-14775476D02*
X17291667Y-14670714D01*
X17282143Y-14651667D01*
X17263095Y-14642143D01*
X17234524Y-14642143D01*
X17215476Y-14651667D01*
X17205952Y-14661190D01*
X17415476Y-14775476D02*
X17396429Y-14765952D01*
X17386905Y-14756428D01*
X17377381Y-14737381D01*
X17377381Y-14680238D01*
X17386905Y-14661190D01*
X17396429Y-14651667D01*
X17415476Y-14642143D01*
X17444048Y-14642143D01*
X17463095Y-14651667D01*
X17472619Y-14661190D01*
X17482143Y-14680238D01*
X17482143Y-14737381D01*
X17472619Y-14756428D01*
X17463095Y-14765952D01*
X17444048Y-14775476D01*
X17415476Y-14775476D01*
X17596429Y-14775476D02*
X17577381Y-14765952D01*
X17567857Y-14746905D01*
X17567857Y-14575476D01*
X17748810Y-14765952D02*
X17729762Y-14775476D01*
X17691667Y-14775476D01*
X17672619Y-14765952D01*
X17663095Y-14746905D01*
X17663095Y-14670714D01*
X17672619Y-14651667D01*
X17691667Y-14642143D01*
X17729762Y-14642143D01*
X17748810Y-14651667D01*
X17758333Y-14670714D01*
X17758333Y-14689762D01*
X17663095Y-14708809D01*
X17834524Y-14765952D02*
X17853571Y-14775476D01*
X17891667Y-14775476D01*
X17910714Y-14765952D01*
X17920238Y-14746905D01*
X17920238Y-14737381D01*
X17910714Y-14718333D01*
X17891667Y-14708809D01*
X17863095Y-14708809D01*
X17844048Y-14699286D01*
X17834524Y-14680238D01*
X17834524Y-14670714D01*
X17844048Y-14651667D01*
X17863095Y-14642143D01*
X17891667Y-14642143D01*
X17910714Y-14651667D01*
X17986905Y-14851667D02*
X17996429Y-14842143D01*
X18015476Y-14813571D01*
X18025000Y-14794524D01*
X18034524Y-14765952D01*
X18044048Y-14718333D01*
X18044048Y-14680238D01*
X18034524Y-14632619D01*
X18025000Y-14604048D01*
X18015476Y-14585000D01*
X17996429Y-14556428D01*
X17986905Y-14546905D01*
X13015000Y-14882800D02*
X13215000Y-15082800D01*
X13215000Y-14882800D02*
X13015000Y-15082800D01*
X13115000Y-15082800D02*
X13215000Y-14982800D01*
X13115000Y-14882800D01*
X13015000Y-14982800D01*
X13115000Y-15082800D01*
X13463095Y-14892324D02*
X13472619Y-14882800D01*
X13491667Y-14873276D01*
X13539286Y-14873276D01*
X13558333Y-14882800D01*
X13567857Y-14892324D01*
X13577381Y-14911371D01*
X13577381Y-14930419D01*
X13567857Y-14958990D01*
X13453571Y-15073276D01*
X13577381Y-15073276D01*
X13663095Y-15054228D02*
X13672619Y-15063752D01*
X13663095Y-15073276D01*
X13653571Y-15063752D01*
X13663095Y-15054228D01*
X13663095Y-15073276D01*
X13796428Y-14873276D02*
X13815476Y-14873276D01*
X13834524Y-14882800D01*
X13844048Y-14892324D01*
X13853571Y-14911371D01*
X13863095Y-14949467D01*
X13863095Y-14997086D01*
X13853571Y-15035181D01*
X13844048Y-15054228D01*
X13834524Y-15063752D01*
X13815476Y-15073276D01*
X13796428Y-15073276D01*
X13777381Y-15063752D01*
X13767857Y-15054228D01*
X13758333Y-15035181D01*
X13748809Y-14997086D01*
X13748809Y-14949467D01*
X13758333Y-14911371D01*
X13767857Y-14892324D01*
X13777381Y-14882800D01*
X13796428Y-14873276D01*
X14044048Y-14873276D02*
X13948809Y-14873276D01*
X13939286Y-14968514D01*
X13948809Y-14958990D01*
X13967857Y-14949467D01*
X14015476Y-14949467D01*
X14034524Y-14958990D01*
X14044048Y-14968514D01*
X14053571Y-14987562D01*
X14053571Y-15035181D01*
X14044048Y-15054228D01*
X14034524Y-15063752D01*
X14015476Y-15073276D01*
X13967857Y-15073276D01*
X13948809Y-15063752D01*
X13939286Y-15054228D01*
X14177381Y-14873276D02*
X14196428Y-14873276D01*
X14215476Y-14882800D01*
X14225000Y-14892324D01*
X14234524Y-14911371D01*
X14244048Y-14949467D01*
X14244048Y-14997086D01*
X14234524Y-15035181D01*
X14225000Y-15054228D01*
X14215476Y-15063752D01*
X14196428Y-15073276D01*
X14177381Y-15073276D01*
X14158333Y-15063752D01*
X14148809Y-15054228D01*
X14139286Y-15035181D01*
X14129762Y-14997086D01*
X14129762Y-14949467D01*
X14139286Y-14911371D01*
X14148809Y-14892324D01*
X14158333Y-14882800D01*
X14177381Y-14873276D01*
X14329762Y-15073276D02*
X14329762Y-14939943D01*
X14329762Y-14958990D02*
X14339286Y-14949467D01*
X14358333Y-14939943D01*
X14386905Y-14939943D01*
X14405952Y-14949467D01*
X14415476Y-14968514D01*
X14415476Y-15073276D01*
X14415476Y-14968514D02*
X14425000Y-14949467D01*
X14444048Y-14939943D01*
X14472619Y-14939943D01*
X14491667Y-14949467D01*
X14501190Y-14968514D01*
X14501190Y-15073276D01*
X14596428Y-15073276D02*
X14596428Y-14939943D01*
X14596428Y-14958990D02*
X14605952Y-14949467D01*
X14625000Y-14939943D01*
X14653571Y-14939943D01*
X14672619Y-14949467D01*
X14682143Y-14968514D01*
X14682143Y-15073276D01*
X14682143Y-14968514D02*
X14691667Y-14949467D01*
X14710714Y-14939943D01*
X14739286Y-14939943D01*
X14758333Y-14949467D01*
X14767857Y-14968514D01*
X14767857Y-15073276D01*
X15158333Y-14863752D02*
X14986905Y-15120895D01*
X15415476Y-14873276D02*
X15434524Y-14873276D01*
X15453571Y-14882800D01*
X15463095Y-14892324D01*
X15472619Y-14911371D01*
X15482143Y-14949467D01*
X15482143Y-14997086D01*
X15472619Y-15035181D01*
X15463095Y-15054228D01*
X15453571Y-15063752D01*
X15434524Y-15073276D01*
X15415476Y-15073276D01*
X15396428Y-15063752D01*
X15386905Y-15054228D01*
X15377381Y-15035181D01*
X15367857Y-14997086D01*
X15367857Y-14949467D01*
X15377381Y-14911371D01*
X15386905Y-14892324D01*
X15396428Y-14882800D01*
X15415476Y-14873276D01*
X15567857Y-15054228D02*
X15577381Y-15063752D01*
X15567857Y-15073276D01*
X15558333Y-15063752D01*
X15567857Y-15054228D01*
X15567857Y-15073276D01*
X15701190Y-14873276D02*
X15720238Y-14873276D01*
X15739286Y-14882800D01*
X15748809Y-14892324D01*
X15758333Y-14911371D01*
X15767857Y-14949467D01*
X15767857Y-14997086D01*
X15758333Y-15035181D01*
X15748809Y-15054228D01*
X15739286Y-15063752D01*
X15720238Y-15073276D01*
X15701190Y-15073276D01*
X15682143Y-15063752D01*
X15672619Y-15054228D01*
X15663095Y-15035181D01*
X15653571Y-14997086D01*
X15653571Y-14949467D01*
X15663095Y-14911371D01*
X15672619Y-14892324D01*
X15682143Y-14882800D01*
X15701190Y-14873276D01*
X15882143Y-14958990D02*
X15863095Y-14949467D01*
X15853571Y-14939943D01*
X15844048Y-14920895D01*
X15844048Y-14911371D01*
X15853571Y-14892324D01*
X15863095Y-14882800D01*
X15882143Y-14873276D01*
X15920238Y-14873276D01*
X15939286Y-14882800D01*
X15948809Y-14892324D01*
X15958333Y-14911371D01*
X15958333Y-14920895D01*
X15948809Y-14939943D01*
X15939286Y-14949467D01*
X15920238Y-14958990D01*
X15882143Y-14958990D01*
X15863095Y-14968514D01*
X15853571Y-14978038D01*
X15844048Y-14997086D01*
X15844048Y-15035181D01*
X15853571Y-15054228D01*
X15863095Y-15063752D01*
X15882143Y-15073276D01*
X15920238Y-15073276D01*
X15939286Y-15063752D01*
X15948809Y-15054228D01*
X15958333Y-15035181D01*
X15958333Y-14997086D01*
X15948809Y-14978038D01*
X15939286Y-14968514D01*
X15920238Y-14958990D01*
X16082143Y-14873276D02*
X16101190Y-14873276D01*
X16120238Y-14882800D01*
X16129762Y-14892324D01*
X16139286Y-14911371D01*
X16148809Y-14949467D01*
X16148809Y-14997086D01*
X16139286Y-15035181D01*
X16129762Y-15054228D01*
X16120238Y-15063752D01*
X16101190Y-15073276D01*
X16082143Y-15073276D01*
X16063095Y-15063752D01*
X16053571Y-15054228D01*
X16044048Y-15035181D01*
X16034524Y-14997086D01*
X16034524Y-14949467D01*
X16044048Y-14911371D01*
X16053571Y-14892324D01*
X16063095Y-14882800D01*
X16082143Y-14873276D01*
X16215476Y-14873276D02*
X16348809Y-14873276D01*
X16263095Y-15073276D01*
X16415476Y-14873276D02*
X16415476Y-14911371D01*
X16491667Y-14873276D02*
X16491667Y-14911371D01*
X16786905Y-15149467D02*
X16777381Y-15139943D01*
X16758333Y-15111371D01*
X16748809Y-15092324D01*
X16739286Y-15063752D01*
X16729762Y-15016133D01*
X16729762Y-14978038D01*
X16739286Y-14930419D01*
X16748809Y-14901848D01*
X16758333Y-14882800D01*
X16777381Y-14854228D01*
X16786905Y-14844705D01*
X16853571Y-14892324D02*
X16863095Y-14882800D01*
X16882143Y-14873276D01*
X16929762Y-14873276D01*
X16948810Y-14882800D01*
X16958333Y-14892324D01*
X16967857Y-14911371D01*
X16967857Y-14930419D01*
X16958333Y-14958990D01*
X16844048Y-15073276D01*
X16967857Y-15073276D01*
X17205952Y-15073276D02*
X17205952Y-14873276D01*
X17291667Y-15073276D02*
X17291667Y-14968514D01*
X17282143Y-14949467D01*
X17263095Y-14939943D01*
X17234524Y-14939943D01*
X17215476Y-14949467D01*
X17205952Y-14958990D01*
X17415476Y-15073276D02*
X17396429Y-15063752D01*
X17386905Y-15054228D01*
X17377381Y-15035181D01*
X17377381Y-14978038D01*
X17386905Y-14958990D01*
X17396429Y-14949467D01*
X17415476Y-14939943D01*
X17444048Y-14939943D01*
X17463095Y-14949467D01*
X17472619Y-14958990D01*
X17482143Y-14978038D01*
X17482143Y-15035181D01*
X17472619Y-15054228D01*
X17463095Y-15063752D01*
X17444048Y-15073276D01*
X17415476Y-15073276D01*
X17596429Y-15073276D02*
X17577381Y-15063752D01*
X17567857Y-15044705D01*
X17567857Y-14873276D01*
X17748810Y-15063752D02*
X17729762Y-15073276D01*
X17691667Y-15073276D01*
X17672619Y-15063752D01*
X17663095Y-15044705D01*
X17663095Y-14968514D01*
X17672619Y-14949467D01*
X17691667Y-14939943D01*
X17729762Y-14939943D01*
X17748810Y-14949467D01*
X17758333Y-14968514D01*
X17758333Y-14987562D01*
X17663095Y-15006609D01*
X17834524Y-15063752D02*
X17853571Y-15073276D01*
X17891667Y-15073276D01*
X17910714Y-15063752D01*
X17920238Y-15044705D01*
X17920238Y-15035181D01*
X17910714Y-15016133D01*
X17891667Y-15006609D01*
X17863095Y-15006609D01*
X17844048Y-14997086D01*
X17834524Y-14978038D01*
X17834524Y-14968514D01*
X17844048Y-14949467D01*
X17863095Y-14939943D01*
X17891667Y-14939943D01*
X17910714Y-14949467D01*
X17986905Y-15149467D02*
X17996429Y-15139943D01*
X18015476Y-15111371D01*
X18025000Y-15092324D01*
X18034524Y-15063752D01*
X18044048Y-15016133D01*
X18044048Y-14978038D01*
X18034524Y-14930419D01*
X18025000Y-14901848D01*
X18015476Y-14882800D01*
X17996429Y-14854228D01*
X17986905Y-14844705D01*
X13115000Y-15202800D02*
X13115000Y-15402800D01*
X13015000Y-15302800D02*
X13215000Y-15302800D01*
X13215000Y-15302800D02*
G75*
G03*
X13215000Y-15302800I-100000J0D01*
G01*
X13463095Y-15212324D02*
X13472619Y-15202800D01*
X13491667Y-15193276D01*
X13539286Y-15193276D01*
X13558333Y-15202800D01*
X13567857Y-15212324D01*
X13577381Y-15231371D01*
X13577381Y-15250419D01*
X13567857Y-15278990D01*
X13453571Y-15393276D01*
X13577381Y-15393276D01*
X13663095Y-15374228D02*
X13672619Y-15383752D01*
X13663095Y-15393276D01*
X13653571Y-15383752D01*
X13663095Y-15374228D01*
X13663095Y-15393276D01*
X13739286Y-15193276D02*
X13863095Y-15193276D01*
X13796428Y-15269467D01*
X13825000Y-15269467D01*
X13844048Y-15278990D01*
X13853571Y-15288514D01*
X13863095Y-15307562D01*
X13863095Y-15355181D01*
X13853571Y-15374228D01*
X13844048Y-15383752D01*
X13825000Y-15393276D01*
X13767857Y-15393276D01*
X13748809Y-15383752D01*
X13739286Y-15374228D01*
X13986905Y-15193276D02*
X14005952Y-15193276D01*
X14025000Y-15202800D01*
X14034524Y-15212324D01*
X14044048Y-15231371D01*
X14053571Y-15269467D01*
X14053571Y-15317086D01*
X14044048Y-15355181D01*
X14034524Y-15374228D01*
X14025000Y-15383752D01*
X14005952Y-15393276D01*
X13986905Y-15393276D01*
X13967857Y-15383752D01*
X13958333Y-15374228D01*
X13948809Y-15355181D01*
X13939286Y-15317086D01*
X13939286Y-15269467D01*
X13948809Y-15231371D01*
X13958333Y-15212324D01*
X13967857Y-15202800D01*
X13986905Y-15193276D01*
X14177381Y-15193276D02*
X14196428Y-15193276D01*
X14215476Y-15202800D01*
X14225000Y-15212324D01*
X14234524Y-15231371D01*
X14244048Y-15269467D01*
X14244048Y-15317086D01*
X14234524Y-15355181D01*
X14225000Y-15374228D01*
X14215476Y-15383752D01*
X14196428Y-15393276D01*
X14177381Y-15393276D01*
X14158333Y-15383752D01*
X14148809Y-15374228D01*
X14139286Y-15355181D01*
X14129762Y-15317086D01*
X14129762Y-15269467D01*
X14139286Y-15231371D01*
X14148809Y-15212324D01*
X14158333Y-15202800D01*
X14177381Y-15193276D01*
X14329762Y-15393276D02*
X14329762Y-15259943D01*
X14329762Y-15278990D02*
X14339286Y-15269467D01*
X14358333Y-15259943D01*
X14386905Y-15259943D01*
X14405952Y-15269467D01*
X14415476Y-15288514D01*
X14415476Y-15393276D01*
X14415476Y-15288514D02*
X14425000Y-15269467D01*
X14444048Y-15259943D01*
X14472619Y-15259943D01*
X14491667Y-15269467D01*
X14501190Y-15288514D01*
X14501190Y-15393276D01*
X14596428Y-15393276D02*
X14596428Y-15259943D01*
X14596428Y-15278990D02*
X14605952Y-15269467D01*
X14625000Y-15259943D01*
X14653571Y-15259943D01*
X14672619Y-15269467D01*
X14682143Y-15288514D01*
X14682143Y-15393276D01*
X14682143Y-15288514D02*
X14691667Y-15269467D01*
X14710714Y-15259943D01*
X14739286Y-15259943D01*
X14758333Y-15269467D01*
X14767857Y-15288514D01*
X14767857Y-15393276D01*
X15158333Y-15183752D02*
X14986905Y-15440895D01*
X15415476Y-15193276D02*
X15434524Y-15193276D01*
X15453571Y-15202800D01*
X15463095Y-15212324D01*
X15472619Y-15231371D01*
X15482143Y-15269467D01*
X15482143Y-15317086D01*
X15472619Y-15355181D01*
X15463095Y-15374228D01*
X15453571Y-15383752D01*
X15434524Y-15393276D01*
X15415476Y-15393276D01*
X15396428Y-15383752D01*
X15386905Y-15374228D01*
X15377381Y-15355181D01*
X15367857Y-15317086D01*
X15367857Y-15269467D01*
X15377381Y-15231371D01*
X15386905Y-15212324D01*
X15396428Y-15202800D01*
X15415476Y-15193276D01*
X15567857Y-15374228D02*
X15577381Y-15383752D01*
X15567857Y-15393276D01*
X15558333Y-15383752D01*
X15567857Y-15374228D01*
X15567857Y-15393276D01*
X15701190Y-15193276D02*
X15720238Y-15193276D01*
X15739286Y-15202800D01*
X15748809Y-15212324D01*
X15758333Y-15231371D01*
X15767857Y-15269467D01*
X15767857Y-15317086D01*
X15758333Y-15355181D01*
X15748809Y-15374228D01*
X15739286Y-15383752D01*
X15720238Y-15393276D01*
X15701190Y-15393276D01*
X15682143Y-15383752D01*
X15672619Y-15374228D01*
X15663095Y-15355181D01*
X15653571Y-15317086D01*
X15653571Y-15269467D01*
X15663095Y-15231371D01*
X15672619Y-15212324D01*
X15682143Y-15202800D01*
X15701190Y-15193276D01*
X15863095Y-15393276D02*
X15901190Y-15393276D01*
X15920238Y-15383752D01*
X15929762Y-15374228D01*
X15948809Y-15345657D01*
X15958333Y-15307562D01*
X15958333Y-15231371D01*
X15948809Y-15212324D01*
X15939286Y-15202800D01*
X15920238Y-15193276D01*
X15882143Y-15193276D01*
X15863095Y-15202800D01*
X15853571Y-15212324D01*
X15844048Y-15231371D01*
X15844048Y-15278990D01*
X15853571Y-15298038D01*
X15863095Y-15307562D01*
X15882143Y-15317086D01*
X15920238Y-15317086D01*
X15939286Y-15307562D01*
X15948809Y-15298038D01*
X15958333Y-15278990D01*
X16082143Y-15193276D02*
X16101190Y-15193276D01*
X16120238Y-15202800D01*
X16129762Y-15212324D01*
X16139286Y-15231371D01*
X16148809Y-15269467D01*
X16148809Y-15317086D01*
X16139286Y-15355181D01*
X16129762Y-15374228D01*
X16120238Y-15383752D01*
X16101190Y-15393276D01*
X16082143Y-15393276D01*
X16063095Y-15383752D01*
X16053571Y-15374228D01*
X16044048Y-15355181D01*
X16034524Y-15317086D01*
X16034524Y-15269467D01*
X16044048Y-15231371D01*
X16053571Y-15212324D01*
X16063095Y-15202800D01*
X16082143Y-15193276D01*
X16320238Y-15193276D02*
X16282143Y-15193276D01*
X16263095Y-15202800D01*
X16253571Y-15212324D01*
X16234524Y-15240895D01*
X16225000Y-15278990D01*
X16225000Y-15355181D01*
X16234524Y-15374228D01*
X16244048Y-15383752D01*
X16263095Y-15393276D01*
X16301190Y-15393276D01*
X16320238Y-15383752D01*
X16329762Y-15374228D01*
X16339286Y-15355181D01*
X16339286Y-15307562D01*
X16329762Y-15288514D01*
X16320238Y-15278990D01*
X16301190Y-15269467D01*
X16263095Y-15269467D01*
X16244048Y-15278990D01*
X16234524Y-15288514D01*
X16225000Y-15307562D01*
X16415476Y-15193276D02*
X16415476Y-15231371D01*
X16491667Y-15193276D02*
X16491667Y-15231371D01*
X16786905Y-15469467D02*
X16777381Y-15459943D01*
X16758333Y-15431371D01*
X16748809Y-15412324D01*
X16739286Y-15383752D01*
X16729762Y-15336133D01*
X16729762Y-15298038D01*
X16739286Y-15250419D01*
X16748809Y-15221848D01*
X16758333Y-15202800D01*
X16777381Y-15174228D01*
X16786905Y-15164705D01*
X16844048Y-15193276D02*
X16967857Y-15193276D01*
X16901190Y-15269467D01*
X16929762Y-15269467D01*
X16948810Y-15278990D01*
X16958333Y-15288514D01*
X16967857Y-15307562D01*
X16967857Y-15355181D01*
X16958333Y-15374228D01*
X16948810Y-15383752D01*
X16929762Y-15393276D01*
X16872619Y-15393276D01*
X16853571Y-15383752D01*
X16844048Y-15374228D01*
X17205952Y-15393276D02*
X17205952Y-15193276D01*
X17291667Y-15393276D02*
X17291667Y-15288514D01*
X17282143Y-15269467D01*
X17263095Y-15259943D01*
X17234524Y-15259943D01*
X17215476Y-15269467D01*
X17205952Y-15278990D01*
X17415476Y-15393276D02*
X17396429Y-15383752D01*
X17386905Y-15374228D01*
X17377381Y-15355181D01*
X17377381Y-15298038D01*
X17386905Y-15278990D01*
X17396429Y-15269467D01*
X17415476Y-15259943D01*
X17444048Y-15259943D01*
X17463095Y-15269467D01*
X17472619Y-15278990D01*
X17482143Y-15298038D01*
X17482143Y-15355181D01*
X17472619Y-15374228D01*
X17463095Y-15383752D01*
X17444048Y-15393276D01*
X17415476Y-15393276D01*
X17596429Y-15393276D02*
X17577381Y-15383752D01*
X17567857Y-15364705D01*
X17567857Y-15193276D01*
X17748810Y-15383752D02*
X17729762Y-15393276D01*
X17691667Y-15393276D01*
X17672619Y-15383752D01*
X17663095Y-15364705D01*
X17663095Y-15288514D01*
X17672619Y-15269467D01*
X17691667Y-15259943D01*
X17729762Y-15259943D01*
X17748810Y-15269467D01*
X17758333Y-15288514D01*
X17758333Y-15307562D01*
X17663095Y-15326609D01*
X17834524Y-15383752D02*
X17853571Y-15393276D01*
X17891667Y-15393276D01*
X17910714Y-15383752D01*
X17920238Y-15364705D01*
X17920238Y-15355181D01*
X17910714Y-15336133D01*
X17891667Y-15326609D01*
X17863095Y-15326609D01*
X17844048Y-15317086D01*
X17834524Y-15298038D01*
X17834524Y-15288514D01*
X17844048Y-15269467D01*
X17863095Y-15259943D01*
X17891667Y-15259943D01*
X17910714Y-15269467D01*
X17986905Y-15469467D02*
X17996429Y-15459943D01*
X18015476Y-15431371D01*
X18025000Y-15412324D01*
X18034524Y-15383752D01*
X18044048Y-15336133D01*
X18044048Y-15298038D01*
X18034524Y-15250419D01*
X18025000Y-15221848D01*
X18015476Y-15202800D01*
X17996429Y-15174228D01*
X17986905Y-15164705D01*
X13185711Y-15693511D02*
X13185711Y-15552089D01*
X13044289Y-15552089D01*
X13044289Y-15693511D01*
X13185711Y-15693511D01*
X13215000Y-15622800D02*
G75*
G03*
X13215000Y-15622800I-100000J0D01*
G01*
X13453571Y-15513276D02*
X13577381Y-15513276D01*
X13510714Y-15589467D01*
X13539286Y-15589467D01*
X13558333Y-15598990D01*
X13567857Y-15608514D01*
X13577381Y-15627562D01*
X13577381Y-15675181D01*
X13567857Y-15694228D01*
X13558333Y-15703752D01*
X13539286Y-15713276D01*
X13482143Y-15713276D01*
X13463095Y-15703752D01*
X13453571Y-15694228D01*
X13663095Y-15694228D02*
X13672619Y-15703752D01*
X13663095Y-15713276D01*
X13653571Y-15703752D01*
X13663095Y-15694228D01*
X13663095Y-15713276D01*
X13748809Y-15532324D02*
X13758333Y-15522800D01*
X13777381Y-15513276D01*
X13825000Y-15513276D01*
X13844048Y-15522800D01*
X13853571Y-15532324D01*
X13863095Y-15551371D01*
X13863095Y-15570419D01*
X13853571Y-15598990D01*
X13739286Y-15713276D01*
X13863095Y-15713276D01*
X13986905Y-15513276D02*
X14005952Y-15513276D01*
X14025000Y-15522800D01*
X14034524Y-15532324D01*
X14044048Y-15551371D01*
X14053571Y-15589467D01*
X14053571Y-15637086D01*
X14044048Y-15675181D01*
X14034524Y-15694228D01*
X14025000Y-15703752D01*
X14005952Y-15713276D01*
X13986905Y-15713276D01*
X13967857Y-15703752D01*
X13958333Y-15694228D01*
X13948809Y-15675181D01*
X13939286Y-15637086D01*
X13939286Y-15589467D01*
X13948809Y-15551371D01*
X13958333Y-15532324D01*
X13967857Y-15522800D01*
X13986905Y-15513276D01*
X14177381Y-15513276D02*
X14196428Y-15513276D01*
X14215476Y-15522800D01*
X14225000Y-15532324D01*
X14234524Y-15551371D01*
X14244048Y-15589467D01*
X14244048Y-15637086D01*
X14234524Y-15675181D01*
X14225000Y-15694228D01*
X14215476Y-15703752D01*
X14196428Y-15713276D01*
X14177381Y-15713276D01*
X14158333Y-15703752D01*
X14148809Y-15694228D01*
X14139286Y-15675181D01*
X14129762Y-15637086D01*
X14129762Y-15589467D01*
X14139286Y-15551371D01*
X14148809Y-15532324D01*
X14158333Y-15522800D01*
X14177381Y-15513276D01*
X14329762Y-15713276D02*
X14329762Y-15579943D01*
X14329762Y-15598990D02*
X14339286Y-15589467D01*
X14358333Y-15579943D01*
X14386905Y-15579943D01*
X14405952Y-15589467D01*
X14415476Y-15608514D01*
X14415476Y-15713276D01*
X14415476Y-15608514D02*
X14425000Y-15589467D01*
X14444048Y-15579943D01*
X14472619Y-15579943D01*
X14491667Y-15589467D01*
X14501190Y-15608514D01*
X14501190Y-15713276D01*
X14596428Y-15713276D02*
X14596428Y-15579943D01*
X14596428Y-15598990D02*
X14605952Y-15589467D01*
X14625000Y-15579943D01*
X14653571Y-15579943D01*
X14672619Y-15589467D01*
X14682143Y-15608514D01*
X14682143Y-15713276D01*
X14682143Y-15608514D02*
X14691667Y-15589467D01*
X14710714Y-15579943D01*
X14739286Y-15579943D01*
X14758333Y-15589467D01*
X14767857Y-15608514D01*
X14767857Y-15713276D01*
X15158333Y-15503752D02*
X14986905Y-15760895D01*
X15415476Y-15513276D02*
X15434524Y-15513276D01*
X15453571Y-15522800D01*
X15463095Y-15532324D01*
X15472619Y-15551371D01*
X15482143Y-15589467D01*
X15482143Y-15637086D01*
X15472619Y-15675181D01*
X15463095Y-15694228D01*
X15453571Y-15703752D01*
X15434524Y-15713276D01*
X15415476Y-15713276D01*
X15396428Y-15703752D01*
X15386905Y-15694228D01*
X15377381Y-15675181D01*
X15367857Y-15637086D01*
X15367857Y-15589467D01*
X15377381Y-15551371D01*
X15386905Y-15532324D01*
X15396428Y-15522800D01*
X15415476Y-15513276D01*
X15567857Y-15694228D02*
X15577381Y-15703752D01*
X15567857Y-15713276D01*
X15558333Y-15703752D01*
X15567857Y-15694228D01*
X15567857Y-15713276D01*
X15767857Y-15713276D02*
X15653571Y-15713276D01*
X15710714Y-15713276D02*
X15710714Y-15513276D01*
X15691667Y-15541848D01*
X15672619Y-15560895D01*
X15653571Y-15570419D01*
X15844048Y-15532324D02*
X15853571Y-15522800D01*
X15872619Y-15513276D01*
X15920238Y-15513276D01*
X15939286Y-15522800D01*
X15948809Y-15532324D01*
X15958333Y-15551371D01*
X15958333Y-15570419D01*
X15948809Y-15598990D01*
X15834524Y-15713276D01*
X15958333Y-15713276D01*
X16129762Y-15513276D02*
X16091667Y-15513276D01*
X16072619Y-15522800D01*
X16063095Y-15532324D01*
X16044048Y-15560895D01*
X16034524Y-15598990D01*
X16034524Y-15675181D01*
X16044048Y-15694228D01*
X16053571Y-15703752D01*
X16072619Y-15713276D01*
X16110714Y-15713276D01*
X16129762Y-15703752D01*
X16139286Y-15694228D01*
X16148809Y-15675181D01*
X16148809Y-15627562D01*
X16139286Y-15608514D01*
X16129762Y-15598990D01*
X16110714Y-15589467D01*
X16072619Y-15589467D01*
X16053571Y-15598990D01*
X16044048Y-15608514D01*
X16034524Y-15627562D01*
X16272619Y-15513276D02*
X16291667Y-15513276D01*
X16310714Y-15522800D01*
X16320238Y-15532324D01*
X16329762Y-15551371D01*
X16339286Y-15589467D01*
X16339286Y-15637086D01*
X16329762Y-15675181D01*
X16320238Y-15694228D01*
X16310714Y-15703752D01*
X16291667Y-15713276D01*
X16272619Y-15713276D01*
X16253571Y-15703752D01*
X16244048Y-15694228D01*
X16234524Y-15675181D01*
X16225000Y-15637086D01*
X16225000Y-15589467D01*
X16234524Y-15551371D01*
X16244048Y-15532324D01*
X16253571Y-15522800D01*
X16272619Y-15513276D01*
X16415476Y-15513276D02*
X16415476Y-15551371D01*
X16491667Y-15513276D02*
X16491667Y-15551371D01*
X16786905Y-15789467D02*
X16777381Y-15779943D01*
X16758333Y-15751371D01*
X16748809Y-15732324D01*
X16739286Y-15703752D01*
X16729762Y-15656133D01*
X16729762Y-15618038D01*
X16739286Y-15570419D01*
X16748809Y-15541848D01*
X16758333Y-15522800D01*
X16777381Y-15494228D01*
X16786905Y-15484705D01*
X16853571Y-15532324D02*
X16863095Y-15522800D01*
X16882143Y-15513276D01*
X16929762Y-15513276D01*
X16948810Y-15522800D01*
X16958333Y-15532324D01*
X16967857Y-15551371D01*
X16967857Y-15570419D01*
X16958333Y-15598990D01*
X16844048Y-15713276D01*
X16967857Y-15713276D01*
X17205952Y-15713276D02*
X17205952Y-15513276D01*
X17291667Y-15713276D02*
X17291667Y-15608514D01*
X17282143Y-15589467D01*
X17263095Y-15579943D01*
X17234524Y-15579943D01*
X17215476Y-15589467D01*
X17205952Y-15598990D01*
X17415476Y-15713276D02*
X17396429Y-15703752D01*
X17386905Y-15694228D01*
X17377381Y-15675181D01*
X17377381Y-15618038D01*
X17386905Y-15598990D01*
X17396429Y-15589467D01*
X17415476Y-15579943D01*
X17444048Y-15579943D01*
X17463095Y-15589467D01*
X17472619Y-15598990D01*
X17482143Y-15618038D01*
X17482143Y-15675181D01*
X17472619Y-15694228D01*
X17463095Y-15703752D01*
X17444048Y-15713276D01*
X17415476Y-15713276D01*
X17596429Y-15713276D02*
X17577381Y-15703752D01*
X17567857Y-15684705D01*
X17567857Y-15513276D01*
X17748810Y-15703752D02*
X17729762Y-15713276D01*
X17691667Y-15713276D01*
X17672619Y-15703752D01*
X17663095Y-15684705D01*
X17663095Y-15608514D01*
X17672619Y-15589467D01*
X17691667Y-15579943D01*
X17729762Y-15579943D01*
X17748810Y-15589467D01*
X17758333Y-15608514D01*
X17758333Y-15627562D01*
X17663095Y-15646609D01*
X17834524Y-15703752D02*
X17853571Y-15713276D01*
X17891667Y-15713276D01*
X17910714Y-15703752D01*
X17920238Y-15684705D01*
X17920238Y-15675181D01*
X17910714Y-15656133D01*
X17891667Y-15646609D01*
X17863095Y-15646609D01*
X17844048Y-15637086D01*
X17834524Y-15618038D01*
X17834524Y-15608514D01*
X17844048Y-15589467D01*
X17863095Y-15579943D01*
X17891667Y-15579943D01*
X17910714Y-15589467D01*
X17986905Y-15789467D02*
X17996429Y-15779943D01*
X18015476Y-15751371D01*
X18025000Y-15732324D01*
X18034524Y-15703752D01*
X18044048Y-15656133D01*
X18044048Y-15618038D01*
X18034524Y-15570419D01*
X18025000Y-15541848D01*
X18015476Y-15522800D01*
X17996429Y-15494228D01*
X17986905Y-15484705D01*
M02*
