%TF.GenerationSoftware,KiCad,Pcbnew,(6.0.2)*%
%TF.CreationDate,2024-04-06T20:18:03+01:00*%
%TF.ProjectId,amigaps2 revision1.6,616d6967-6170-4733-9220-726576697369,rev?*%
%TF.SameCoordinates,Original*%
%TF.FileFunction,Soldermask,Bot*%
%TF.FilePolarity,Negative*%
%FSLAX46Y46*%
G04 Gerber Fmt 4.6, Leading zero omitted, Abs format (unit mm)*
G04 Created by KiCad (PCBNEW (6.0.2)) date 2024-04-06 20:18:03*
%MOMM*%
%LPD*%
G01*
G04 APERTURE LIST*
%ADD10C,0.250000*%
%ADD11O,2.032000X1.727200*%
%ADD12C,2.540000*%
%ADD13R,1.700000X1.700000*%
%ADD14O,1.700000X1.700000*%
%ADD15C,1.600000*%
%ADD16C,4.000000*%
%ADD17R,1.600000X1.600000*%
%ADD18R,1.800000X1.800000*%
%ADD19O,1.800000X1.800000*%
%ADD20C,1.524000*%
%ADD21C,3.300000*%
%ADD22C,2.000000*%
G04 APERTURE END LIST*
D10*
X133851666Y-75386190D02*
X133851666Y-75862380D01*
X134137380Y-75290952D02*
X133137380Y-75624285D01*
X134137380Y-75957619D01*
X134137380Y-76290952D02*
X133470714Y-76290952D01*
X133565952Y-76290952D02*
X133518333Y-76338571D01*
X133470714Y-76433809D01*
X133470714Y-76576666D01*
X133518333Y-76671904D01*
X133613571Y-76719523D01*
X134137380Y-76719523D01*
X133613571Y-76719523D02*
X133518333Y-76767142D01*
X133470714Y-76862380D01*
X133470714Y-77005238D01*
X133518333Y-77100476D01*
X133613571Y-77148095D01*
X134137380Y-77148095D01*
X134137380Y-77624285D02*
X133470714Y-77624285D01*
X133137380Y-77624285D02*
X133185000Y-77576666D01*
X133232619Y-77624285D01*
X133185000Y-77671904D01*
X133137380Y-77624285D01*
X133232619Y-77624285D01*
X133470714Y-78529047D02*
X134280238Y-78529047D01*
X134375476Y-78481428D01*
X134423095Y-78433809D01*
X134470714Y-78338571D01*
X134470714Y-78195714D01*
X134423095Y-78100476D01*
X134089761Y-78529047D02*
X134137380Y-78433809D01*
X134137380Y-78243333D01*
X134089761Y-78148095D01*
X134042142Y-78100476D01*
X133946904Y-78052857D01*
X133661190Y-78052857D01*
X133565952Y-78100476D01*
X133518333Y-78148095D01*
X133470714Y-78243333D01*
X133470714Y-78433809D01*
X133518333Y-78529047D01*
X134137380Y-79433809D02*
X133613571Y-79433809D01*
X133518333Y-79386190D01*
X133470714Y-79290952D01*
X133470714Y-79100476D01*
X133518333Y-79005238D01*
X134089761Y-79433809D02*
X134137380Y-79338571D01*
X134137380Y-79100476D01*
X134089761Y-79005238D01*
X133994523Y-78957619D01*
X133899285Y-78957619D01*
X133804047Y-79005238D01*
X133756428Y-79100476D01*
X133756428Y-79338571D01*
X133708809Y-79433809D01*
X134137380Y-80671904D02*
X133137380Y-80671904D01*
X133137380Y-81052857D01*
X133185000Y-81148095D01*
X133232619Y-81195714D01*
X133327857Y-81243333D01*
X133470714Y-81243333D01*
X133565952Y-81195714D01*
X133613571Y-81148095D01*
X133661190Y-81052857D01*
X133661190Y-80671904D01*
X134089761Y-81624285D02*
X134137380Y-81767142D01*
X134137380Y-82005238D01*
X134089761Y-82100476D01*
X134042142Y-82148095D01*
X133946904Y-82195714D01*
X133851666Y-82195714D01*
X133756428Y-82148095D01*
X133708809Y-82100476D01*
X133661190Y-82005238D01*
X133613571Y-81814761D01*
X133565952Y-81719523D01*
X133518333Y-81671904D01*
X133423095Y-81624285D01*
X133327857Y-81624285D01*
X133232619Y-81671904D01*
X133185000Y-81719523D01*
X133137380Y-81814761D01*
X133137380Y-82052857D01*
X133185000Y-82195714D01*
X133089761Y-83338571D02*
X134375476Y-82481428D01*
X133232619Y-83624285D02*
X133185000Y-83671904D01*
X133137380Y-83767142D01*
X133137380Y-84005238D01*
X133185000Y-84100476D01*
X133232619Y-84148095D01*
X133327857Y-84195714D01*
X133423095Y-84195714D01*
X133565952Y-84148095D01*
X134137380Y-83576666D01*
X134137380Y-84195714D01*
X134137380Y-85814761D02*
X133613571Y-85814761D01*
X133518333Y-85767142D01*
X133470714Y-85671904D01*
X133470714Y-85481428D01*
X133518333Y-85386190D01*
X134089761Y-85814761D02*
X134137380Y-85719523D01*
X134137380Y-85481428D01*
X134089761Y-85386190D01*
X133994523Y-85338571D01*
X133899285Y-85338571D01*
X133804047Y-85386190D01*
X133756428Y-85481428D01*
X133756428Y-85719523D01*
X133708809Y-85814761D01*
X134137380Y-86719523D02*
X133137380Y-86719523D01*
X134089761Y-86719523D02*
X134137380Y-86624285D01*
X134137380Y-86433809D01*
X134089761Y-86338571D01*
X134042142Y-86290952D01*
X133946904Y-86243333D01*
X133661190Y-86243333D01*
X133565952Y-86290952D01*
X133518333Y-86338571D01*
X133470714Y-86433809D01*
X133470714Y-86624285D01*
X133518333Y-86719523D01*
X134137380Y-87624285D02*
X133613571Y-87624285D01*
X133518333Y-87576666D01*
X133470714Y-87481428D01*
X133470714Y-87290952D01*
X133518333Y-87195714D01*
X134089761Y-87624285D02*
X134137380Y-87529047D01*
X134137380Y-87290952D01*
X134089761Y-87195714D01*
X133994523Y-87148095D01*
X133899285Y-87148095D01*
X133804047Y-87195714D01*
X133756428Y-87290952D01*
X133756428Y-87529047D01*
X133708809Y-87624285D01*
X133470714Y-88100476D02*
X134470714Y-88100476D01*
X133518333Y-88100476D02*
X133470714Y-88195714D01*
X133470714Y-88386190D01*
X133518333Y-88481428D01*
X133565952Y-88529047D01*
X133661190Y-88576666D01*
X133946904Y-88576666D01*
X134042142Y-88529047D01*
X134089761Y-88481428D01*
X134137380Y-88386190D01*
X134137380Y-88195714D01*
X134089761Y-88100476D01*
X133470714Y-88862380D02*
X133470714Y-89243333D01*
X133137380Y-89005238D02*
X133994523Y-89005238D01*
X134089761Y-89052857D01*
X134137380Y-89148095D01*
X134137380Y-89243333D01*
X134089761Y-89957619D02*
X134137380Y-89862380D01*
X134137380Y-89671904D01*
X134089761Y-89576666D01*
X133994523Y-89529047D01*
X133613571Y-89529047D01*
X133518333Y-89576666D01*
X133470714Y-89671904D01*
X133470714Y-89862380D01*
X133518333Y-89957619D01*
X133613571Y-90005238D01*
X133708809Y-90005238D01*
X133804047Y-89529047D01*
X134137380Y-90433809D02*
X133470714Y-90433809D01*
X133661190Y-90433809D02*
X133565952Y-90481428D01*
X133518333Y-90529047D01*
X133470714Y-90624285D01*
X133470714Y-90719523D01*
X133851666Y-91767142D02*
X133851666Y-92243333D01*
X134137380Y-91671904D02*
X133137380Y-92005238D01*
X134137380Y-92338571D01*
X134137380Y-92671904D02*
X133470714Y-92671904D01*
X133661190Y-92671904D02*
X133565952Y-92719523D01*
X133518333Y-92767142D01*
X133470714Y-92862380D01*
X133470714Y-92957619D01*
X134137380Y-93719523D02*
X133137380Y-93719523D01*
X134089761Y-93719523D02*
X134137380Y-93624285D01*
X134137380Y-93433809D01*
X134089761Y-93338571D01*
X134042142Y-93290952D01*
X133946904Y-93243333D01*
X133661190Y-93243333D01*
X133565952Y-93290952D01*
X133518333Y-93338571D01*
X133470714Y-93433809D01*
X133470714Y-93624285D01*
X133518333Y-93719523D01*
X133470714Y-94624285D02*
X134137380Y-94624285D01*
X133470714Y-94195714D02*
X133994523Y-94195714D01*
X134089761Y-94243333D01*
X134137380Y-94338571D01*
X134137380Y-94481428D01*
X134089761Y-94576666D01*
X134042142Y-94624285D01*
X134137380Y-95100476D02*
X133470714Y-95100476D01*
X133137380Y-95100476D02*
X133185000Y-95052857D01*
X133232619Y-95100476D01*
X133185000Y-95148095D01*
X133137380Y-95100476D01*
X133232619Y-95100476D01*
X133470714Y-95576666D02*
X134137380Y-95576666D01*
X133565952Y-95576666D02*
X133518333Y-95624285D01*
X133470714Y-95719523D01*
X133470714Y-95862380D01*
X133518333Y-95957619D01*
X133613571Y-96005238D01*
X134137380Y-96005238D01*
X134137380Y-96624285D02*
X134089761Y-96529047D01*
X134042142Y-96481428D01*
X133946904Y-96433809D01*
X133661190Y-96433809D01*
X133565952Y-96481428D01*
X133518333Y-96529047D01*
X133470714Y-96624285D01*
X133470714Y-96767142D01*
X133518333Y-96862380D01*
X133565952Y-96909999D01*
X133661190Y-96957619D01*
X133946904Y-96957619D01*
X134042142Y-96909999D01*
X134089761Y-96862380D01*
X134137380Y-96767142D01*
X134137380Y-96624285D01*
X133470714Y-98148095D02*
X134470714Y-98148095D01*
X133518333Y-98148095D02*
X133470714Y-98243333D01*
X133470714Y-98433809D01*
X133518333Y-98529047D01*
X133565952Y-98576666D01*
X133661190Y-98624285D01*
X133946904Y-98624285D01*
X134042142Y-98576666D01*
X134089761Y-98529047D01*
X134137380Y-98433809D01*
X134137380Y-98243333D01*
X134089761Y-98148095D01*
X134137380Y-99052857D02*
X133470714Y-99052857D01*
X133661190Y-99052857D02*
X133565952Y-99100476D01*
X133518333Y-99148095D01*
X133470714Y-99243333D01*
X133470714Y-99338571D01*
X134137380Y-99814761D02*
X134089761Y-99719523D01*
X134042142Y-99671904D01*
X133946904Y-99624285D01*
X133661190Y-99624285D01*
X133565952Y-99671904D01*
X133518333Y-99719523D01*
X133470714Y-99814761D01*
X133470714Y-99957619D01*
X133518333Y-100052857D01*
X133565952Y-100100476D01*
X133661190Y-100148095D01*
X133946904Y-100148095D01*
X134042142Y-100100476D01*
X134089761Y-100052857D01*
X134137380Y-99957619D01*
X134137380Y-99814761D01*
X133470714Y-101005238D02*
X134280238Y-101005238D01*
X134375476Y-100957619D01*
X134423095Y-100909999D01*
X134470714Y-100814761D01*
X134470714Y-100671904D01*
X134423095Y-100576666D01*
X134089761Y-101005238D02*
X134137380Y-100909999D01*
X134137380Y-100719523D01*
X134089761Y-100624285D01*
X134042142Y-100576666D01*
X133946904Y-100529047D01*
X133661190Y-100529047D01*
X133565952Y-100576666D01*
X133518333Y-100624285D01*
X133470714Y-100719523D01*
X133470714Y-100909999D01*
X133518333Y-101005238D01*
X134137380Y-101481428D02*
X133470714Y-101481428D01*
X133661190Y-101481428D02*
X133565952Y-101529047D01*
X133518333Y-101576666D01*
X133470714Y-101671904D01*
X133470714Y-101767142D01*
X134137380Y-102529047D02*
X133613571Y-102529047D01*
X133518333Y-102481428D01*
X133470714Y-102386190D01*
X133470714Y-102195714D01*
X133518333Y-102100476D01*
X134089761Y-102529047D02*
X134137380Y-102433809D01*
X134137380Y-102195714D01*
X134089761Y-102100476D01*
X133994523Y-102052857D01*
X133899285Y-102052857D01*
X133804047Y-102100476D01*
X133756428Y-102195714D01*
X133756428Y-102433809D01*
X133708809Y-102529047D01*
X134137380Y-103005238D02*
X133470714Y-103005238D01*
X133565952Y-103005238D02*
X133518333Y-103052857D01*
X133470714Y-103148095D01*
X133470714Y-103290952D01*
X133518333Y-103386190D01*
X133613571Y-103433809D01*
X134137380Y-103433809D01*
X133613571Y-103433809D02*
X133518333Y-103481428D01*
X133470714Y-103576666D01*
X133470714Y-103719523D01*
X133518333Y-103814761D01*
X133613571Y-103862380D01*
X134137380Y-103862380D01*
X134137380Y-104338571D02*
X133470714Y-104338571D01*
X133565952Y-104338571D02*
X133518333Y-104386190D01*
X133470714Y-104481428D01*
X133470714Y-104624285D01*
X133518333Y-104719523D01*
X133613571Y-104767142D01*
X134137380Y-104767142D01*
X133613571Y-104767142D02*
X133518333Y-104814761D01*
X133470714Y-104909999D01*
X133470714Y-105052857D01*
X133518333Y-105148095D01*
X133613571Y-105195714D01*
X134137380Y-105195714D01*
X134137380Y-106100476D02*
X133613571Y-106100476D01*
X133518333Y-106052857D01*
X133470714Y-105957619D01*
X133470714Y-105767142D01*
X133518333Y-105671904D01*
X134089761Y-106100476D02*
X134137380Y-106005238D01*
X134137380Y-105767142D01*
X134089761Y-105671904D01*
X133994523Y-105624285D01*
X133899285Y-105624285D01*
X133804047Y-105671904D01*
X133756428Y-105767142D01*
X133756428Y-106005238D01*
X133708809Y-106100476D01*
X134137380Y-106576666D02*
X133137380Y-106576666D01*
X133518333Y-106576666D02*
X133470714Y-106671904D01*
X133470714Y-106862380D01*
X133518333Y-106957619D01*
X133565952Y-107005238D01*
X133661190Y-107052857D01*
X133946904Y-107052857D01*
X134042142Y-107005238D01*
X134089761Y-106957619D01*
X134137380Y-106862380D01*
X134137380Y-106671904D01*
X134089761Y-106576666D01*
X134137380Y-107624285D02*
X134089761Y-107529047D01*
X133994523Y-107481428D01*
X133137380Y-107481428D01*
X134089761Y-108386190D02*
X134137380Y-108290952D01*
X134137380Y-108100476D01*
X134089761Y-108005238D01*
X133994523Y-107957619D01*
X133613571Y-107957619D01*
X133518333Y-108005238D01*
X133470714Y-108100476D01*
X133470714Y-108290952D01*
X133518333Y-108386190D01*
X133613571Y-108433809D01*
X133708809Y-108433809D01*
X133804047Y-107957619D01*
X135747380Y-76219523D02*
X134747380Y-76219523D01*
X135223571Y-76219523D02*
X135223571Y-76790952D01*
X135747380Y-76790952D02*
X134747380Y-76790952D01*
X135747380Y-77695714D02*
X135223571Y-77695714D01*
X135128333Y-77648095D01*
X135080714Y-77552857D01*
X135080714Y-77362380D01*
X135128333Y-77267142D01*
X135699761Y-77695714D02*
X135747380Y-77600476D01*
X135747380Y-77362380D01*
X135699761Y-77267142D01*
X135604523Y-77219523D01*
X135509285Y-77219523D01*
X135414047Y-77267142D01*
X135366428Y-77362380D01*
X135366428Y-77600476D01*
X135318809Y-77695714D01*
X135747380Y-78171904D02*
X135080714Y-78171904D01*
X135271190Y-78171904D02*
X135175952Y-78219523D01*
X135128333Y-78267142D01*
X135080714Y-78362380D01*
X135080714Y-78457619D01*
X135747380Y-79219523D02*
X134747380Y-79219523D01*
X135699761Y-79219523D02*
X135747380Y-79124285D01*
X135747380Y-78933809D01*
X135699761Y-78838571D01*
X135652142Y-78790952D01*
X135556904Y-78743333D01*
X135271190Y-78743333D01*
X135175952Y-78790952D01*
X135128333Y-78838571D01*
X135080714Y-78933809D01*
X135080714Y-79124285D01*
X135128333Y-79219523D01*
X135080714Y-79600476D02*
X135747380Y-79790952D01*
X135271190Y-79981428D01*
X135747380Y-80171904D01*
X135080714Y-80362380D01*
X135747380Y-81171904D02*
X135223571Y-81171904D01*
X135128333Y-81124285D01*
X135080714Y-81029047D01*
X135080714Y-80838571D01*
X135128333Y-80743333D01*
X135699761Y-81171904D02*
X135747380Y-81076666D01*
X135747380Y-80838571D01*
X135699761Y-80743333D01*
X135604523Y-80695714D01*
X135509285Y-80695714D01*
X135414047Y-80743333D01*
X135366428Y-80838571D01*
X135366428Y-81076666D01*
X135318809Y-81171904D01*
X135747380Y-81648095D02*
X135080714Y-81648095D01*
X135271190Y-81648095D02*
X135175952Y-81695714D01*
X135128333Y-81743333D01*
X135080714Y-81838571D01*
X135080714Y-81933809D01*
X135699761Y-82648095D02*
X135747380Y-82552857D01*
X135747380Y-82362380D01*
X135699761Y-82267142D01*
X135604523Y-82219523D01*
X135223571Y-82219523D01*
X135128333Y-82267142D01*
X135080714Y-82362380D01*
X135080714Y-82552857D01*
X135128333Y-82648095D01*
X135223571Y-82695714D01*
X135318809Y-82695714D01*
X135414047Y-82219523D01*
X135747380Y-84314761D02*
X134747380Y-84314761D01*
X135699761Y-84314761D02*
X135747380Y-84219523D01*
X135747380Y-84029047D01*
X135699761Y-83933809D01*
X135652142Y-83886190D01*
X135556904Y-83838571D01*
X135271190Y-83838571D01*
X135175952Y-83886190D01*
X135128333Y-83933809D01*
X135080714Y-84029047D01*
X135080714Y-84219523D01*
X135128333Y-84314761D01*
X135699761Y-85171904D02*
X135747380Y-85076666D01*
X135747380Y-84886190D01*
X135699761Y-84790952D01*
X135604523Y-84743333D01*
X135223571Y-84743333D01*
X135128333Y-84790952D01*
X135080714Y-84886190D01*
X135080714Y-85076666D01*
X135128333Y-85171904D01*
X135223571Y-85219523D01*
X135318809Y-85219523D01*
X135414047Y-84743333D01*
X135699761Y-85600476D02*
X135747380Y-85695714D01*
X135747380Y-85886190D01*
X135699761Y-85981428D01*
X135604523Y-86029047D01*
X135556904Y-86029047D01*
X135461666Y-85981428D01*
X135414047Y-85886190D01*
X135414047Y-85743333D01*
X135366428Y-85648095D01*
X135271190Y-85600476D01*
X135223571Y-85600476D01*
X135128333Y-85648095D01*
X135080714Y-85743333D01*
X135080714Y-85886190D01*
X135128333Y-85981428D01*
X135747380Y-86457619D02*
X135080714Y-86457619D01*
X134747380Y-86457619D02*
X134795000Y-86410000D01*
X134842619Y-86457619D01*
X134795000Y-86505238D01*
X134747380Y-86457619D01*
X134842619Y-86457619D01*
X135080714Y-87362380D02*
X135890238Y-87362380D01*
X135985476Y-87314761D01*
X136033095Y-87267142D01*
X136080714Y-87171904D01*
X136080714Y-87029047D01*
X136033095Y-86933809D01*
X135699761Y-87362380D02*
X135747380Y-87267142D01*
X135747380Y-87076666D01*
X135699761Y-86981428D01*
X135652142Y-86933809D01*
X135556904Y-86886190D01*
X135271190Y-86886190D01*
X135175952Y-86933809D01*
X135128333Y-86981428D01*
X135080714Y-87076666D01*
X135080714Y-87267142D01*
X135128333Y-87362380D01*
X135080714Y-87838571D02*
X135747380Y-87838571D01*
X135175952Y-87838571D02*
X135128333Y-87886190D01*
X135080714Y-87981428D01*
X135080714Y-88124285D01*
X135128333Y-88219523D01*
X135223571Y-88267142D01*
X135747380Y-88267142D01*
X135699761Y-89124285D02*
X135747380Y-89029047D01*
X135747380Y-88838571D01*
X135699761Y-88743333D01*
X135604523Y-88695714D01*
X135223571Y-88695714D01*
X135128333Y-88743333D01*
X135080714Y-88838571D01*
X135080714Y-89029047D01*
X135128333Y-89124285D01*
X135223571Y-89171904D01*
X135318809Y-89171904D01*
X135414047Y-88695714D01*
X135747380Y-90029047D02*
X134747380Y-90029047D01*
X135699761Y-90029047D02*
X135747380Y-89933809D01*
X135747380Y-89743333D01*
X135699761Y-89648095D01*
X135652142Y-89600476D01*
X135556904Y-89552857D01*
X135271190Y-89552857D01*
X135175952Y-89600476D01*
X135128333Y-89648095D01*
X135080714Y-89743333D01*
X135080714Y-89933809D01*
X135128333Y-90029047D01*
X135747380Y-91267142D02*
X134747380Y-91267142D01*
X135128333Y-91267142D02*
X135080714Y-91362380D01*
X135080714Y-91552857D01*
X135128333Y-91648095D01*
X135175952Y-91695714D01*
X135271190Y-91743333D01*
X135556904Y-91743333D01*
X135652142Y-91695714D01*
X135699761Y-91648095D01*
X135747380Y-91552857D01*
X135747380Y-91362380D01*
X135699761Y-91267142D01*
X135080714Y-92076666D02*
X135747380Y-92314761D01*
X135080714Y-92552857D02*
X135747380Y-92314761D01*
X135985476Y-92219523D01*
X136033095Y-92171904D01*
X136080714Y-92076666D01*
X135461666Y-93648095D02*
X135461666Y-94124285D01*
X135747380Y-93552857D02*
X134747380Y-93886190D01*
X135747380Y-94219523D01*
X135747380Y-94552857D02*
X135080714Y-94552857D01*
X135175952Y-94552857D02*
X135128333Y-94600476D01*
X135080714Y-94695714D01*
X135080714Y-94838571D01*
X135128333Y-94933809D01*
X135223571Y-94981428D01*
X135747380Y-94981428D01*
X135223571Y-94981428D02*
X135128333Y-95029047D01*
X135080714Y-95124285D01*
X135080714Y-95267142D01*
X135128333Y-95362380D01*
X135223571Y-95409999D01*
X135747380Y-95409999D01*
X135747380Y-95886190D02*
X135080714Y-95886190D01*
X134747380Y-95886190D02*
X134795000Y-95838571D01*
X134842619Y-95886190D01*
X134795000Y-95933809D01*
X134747380Y-95886190D01*
X134842619Y-95886190D01*
X135080714Y-96790952D02*
X135890238Y-96790952D01*
X135985476Y-96743333D01*
X136033095Y-96695714D01*
X136080714Y-96600476D01*
X136080714Y-96457619D01*
X136033095Y-96362380D01*
X135699761Y-96790952D02*
X135747380Y-96695714D01*
X135747380Y-96505238D01*
X135699761Y-96409999D01*
X135652142Y-96362380D01*
X135556904Y-96314761D01*
X135271190Y-96314761D01*
X135175952Y-96362380D01*
X135128333Y-96409999D01*
X135080714Y-96505238D01*
X135080714Y-96695714D01*
X135128333Y-96790952D01*
X135223571Y-97267142D02*
X135223571Y-97600476D01*
X135747380Y-97743333D02*
X135747380Y-97267142D01*
X134747380Y-97267142D01*
X134747380Y-97743333D01*
X135747380Y-98600476D02*
X135223571Y-98600476D01*
X135128333Y-98552857D01*
X135080714Y-98457619D01*
X135080714Y-98267142D01*
X135128333Y-98171904D01*
X135699761Y-98600476D02*
X135747380Y-98505238D01*
X135747380Y-98267142D01*
X135699761Y-98171904D01*
X135604523Y-98124285D01*
X135509285Y-98124285D01*
X135414047Y-98171904D01*
X135366428Y-98267142D01*
X135366428Y-98505238D01*
X135318809Y-98600476D01*
X135699761Y-99029047D02*
X135747380Y-99124285D01*
X135747380Y-99314761D01*
X135699761Y-99409999D01*
X135604523Y-99457619D01*
X135556904Y-99457619D01*
X135461666Y-99409999D01*
X135414047Y-99314761D01*
X135414047Y-99171904D01*
X135366428Y-99076666D01*
X135271190Y-99029047D01*
X135223571Y-99029047D01*
X135128333Y-99076666D01*
X135080714Y-99171904D01*
X135080714Y-99314761D01*
X135128333Y-99409999D01*
X135080714Y-99743333D02*
X135080714Y-100124285D01*
X134747380Y-99886190D02*
X135604523Y-99886190D01*
X135699761Y-99933809D01*
X135747380Y-100029047D01*
X135747380Y-100124285D01*
X135747380Y-101219523D02*
X135080714Y-101219523D01*
X134747380Y-101219523D02*
X134795000Y-101171904D01*
X134842619Y-101219523D01*
X134795000Y-101267142D01*
X134747380Y-101219523D01*
X134842619Y-101219523D01*
X135080714Y-101695714D02*
X135747380Y-101695714D01*
X135175952Y-101695714D02*
X135128333Y-101743333D01*
X135080714Y-101838571D01*
X135080714Y-101981428D01*
X135128333Y-102076666D01*
X135223571Y-102124285D01*
X135747380Y-102124285D01*
X135699761Y-103314761D02*
X135747380Y-103457619D01*
X135747380Y-103695714D01*
X135699761Y-103790952D01*
X135652142Y-103838571D01*
X135556904Y-103886190D01*
X135461666Y-103886190D01*
X135366428Y-103838571D01*
X135318809Y-103790952D01*
X135271190Y-103695714D01*
X135223571Y-103505238D01*
X135175952Y-103409999D01*
X135128333Y-103362380D01*
X135033095Y-103314761D01*
X134937857Y-103314761D01*
X134842619Y-103362380D01*
X134795000Y-103409999D01*
X134747380Y-103505238D01*
X134747380Y-103743333D01*
X134795000Y-103886190D01*
X135699761Y-104695714D02*
X135747380Y-104600476D01*
X135747380Y-104409999D01*
X135699761Y-104314761D01*
X135604523Y-104267142D01*
X135223571Y-104267142D01*
X135128333Y-104314761D01*
X135080714Y-104409999D01*
X135080714Y-104600476D01*
X135128333Y-104695714D01*
X135223571Y-104743333D01*
X135318809Y-104743333D01*
X135414047Y-104267142D01*
X135747380Y-105171904D02*
X135080714Y-105171904D01*
X135271190Y-105171904D02*
X135175952Y-105219523D01*
X135128333Y-105267142D01*
X135080714Y-105362380D01*
X135080714Y-105457619D01*
X135747380Y-105790952D02*
X134747380Y-105790952D01*
X135128333Y-105790952D02*
X135080714Y-105886190D01*
X135080714Y-106076666D01*
X135128333Y-106171904D01*
X135175952Y-106219523D01*
X135271190Y-106267142D01*
X135556904Y-106267142D01*
X135652142Y-106219523D01*
X135699761Y-106171904D01*
X135747380Y-106076666D01*
X135747380Y-105886190D01*
X135699761Y-105790952D01*
X135747380Y-106695714D02*
X135080714Y-106695714D01*
X134747380Y-106695714D02*
X134795000Y-106648095D01*
X134842619Y-106695714D01*
X134795000Y-106743333D01*
X134747380Y-106695714D01*
X134842619Y-106695714D01*
X135747380Y-107600476D02*
X135223571Y-107600476D01*
X135128333Y-107552857D01*
X135080714Y-107457619D01*
X135080714Y-107267142D01*
X135128333Y-107171904D01*
X135699761Y-107600476D02*
X135747380Y-107505238D01*
X135747380Y-107267142D01*
X135699761Y-107171904D01*
X135604523Y-107124285D01*
X135509285Y-107124285D01*
X135414047Y-107171904D01*
X135366428Y-107267142D01*
X135366428Y-107505238D01*
X135318809Y-107600476D01*
D11*
%TO.C,P1*%
X139446000Y-71247000D03*
X139446000Y-73787000D03*
X139446000Y-76327000D03*
X139446000Y-78867000D03*
X139446000Y-81407000D03*
X139446000Y-83947000D03*
X139446000Y-86487000D03*
X139446000Y-91567000D03*
X139446000Y-94107000D03*
X139446000Y-96647000D03*
X139446000Y-99187000D03*
X139446000Y-101727000D03*
X139446000Y-104267000D03*
X139446000Y-106807000D03*
X139446000Y-89027000D03*
%TD*%
%TO.C,P2*%
X154686000Y-71247000D03*
X154686000Y-73787000D03*
X154686000Y-76327000D03*
X154686000Y-78867000D03*
X154686000Y-81407000D03*
X154686000Y-83947000D03*
X154686000Y-86487000D03*
X154686000Y-89027000D03*
X154686000Y-91567000D03*
X154686000Y-94107000D03*
X154686000Y-96647000D03*
X154686000Y-99187000D03*
X154686000Y-101727000D03*
X154686000Y-104267000D03*
X154686000Y-106807000D03*
%TD*%
D12*
%TO.C,P3*%
X139446000Y-68707000D03*
%TD*%
%TO.C,P4*%
X139446000Y-109347000D03*
%TD*%
%TO.C,P5*%
X154686000Y-109347000D03*
%TD*%
%TO.C,P6*%
X154686000Y-68707000D03*
%TD*%
D11*
%TO.C,*%
X173959507Y-97770000D03*
%TD*%
%TO.C,*%
X173959507Y-85070000D03*
%TD*%
D13*
%TO.C,REF\u002A\u002A*%
X162458400Y-71780400D03*
D14*
X162458400Y-69240400D03*
%TD*%
D15*
%TO.C,*%
X165384200Y-93759200D03*
%TD*%
D11*
%TO.C,*%
X173959507Y-95230000D03*
%TD*%
%TO.C,*%
X158750000Y-80010000D03*
%TD*%
D15*
%TO.C,*%
X165384200Y-96529200D03*
%TD*%
D11*
%TO.C,*%
X173959507Y-100310000D03*
%TD*%
%TO.C,*%
X173959507Y-90150000D03*
%TD*%
%TO.C,*%
X173959507Y-87610000D03*
%TD*%
D15*
%TO.C,*%
X165384200Y-102069200D03*
%TD*%
D13*
%TO.C,CONFIG*%
X171181000Y-69367000D03*
D14*
X168641000Y-69367000D03*
X166101000Y-69367000D03*
%TD*%
D15*
%TO.C,*%
X168224200Y-89604200D03*
%TD*%
D11*
%TO.C,*%
X158750000Y-87630000D03*
%TD*%
D16*
%TO.C,Female DSUB9 connector*%
X134741000Y-116632000D03*
X159741000Y-116632000D03*
D15*
X148626000Y-119172000D03*
X145856000Y-119172000D03*
X150011000Y-116332000D03*
X144471000Y-116332000D03*
X151396000Y-119172000D03*
X141701000Y-116332000D03*
X143086000Y-119172000D03*
D17*
X152781000Y-116332000D03*
D15*
X147241000Y-116332000D03*
%TD*%
D18*
%TO.C,DIODE*%
X146470000Y-113010000D03*
D19*
X156630000Y-113010000D03*
%TD*%
D11*
%TO.C,*%
X158750000Y-95250000D03*
%TD*%
D15*
%TO.C,*%
X168224200Y-95144200D03*
%TD*%
%TO.C,*%
X168224200Y-84064200D03*
%TD*%
D20*
%TO.C,J1*%
X143568000Y-60706000D03*
X150368000Y-60706000D03*
D21*
X146968000Y-56906000D03*
X140218000Y-57706000D03*
X153718000Y-57706000D03*
D20*
X143568000Y-63206000D03*
X150368000Y-63206000D03*
X145668000Y-60706000D03*
X148268000Y-60706000D03*
%TD*%
D17*
%TO.C,*%
X168224200Y-103454200D03*
%TD*%
D13*
%TO.C,REF\u002A\u002A*%
X173020000Y-111175000D03*
D14*
X170480000Y-111175000D03*
X167940000Y-111175000D03*
X165400000Y-111175000D03*
%TD*%
D11*
%TO.C,*%
X158750000Y-77470000D03*
%TD*%
D15*
%TO.C,*%
X165384200Y-90989200D03*
%TD*%
D11*
%TO.C,*%
X173959507Y-82530000D03*
%TD*%
D15*
%TO.C,*%
X168224200Y-100684200D03*
%TD*%
D11*
%TO.C,*%
X173959507Y-92690000D03*
%TD*%
%TO.C,*%
X158750000Y-97790000D03*
%TD*%
D15*
%TO.C,*%
X168224200Y-97914200D03*
%TD*%
D22*
%TO.C,MouseDPI*%
X164846000Y-62126000D03*
X164846000Y-55626000D03*
X160346000Y-62126000D03*
X160346000Y-55626000D03*
%TD*%
D13*
%TO.C,REF\u002A\u002A*%
X150469600Y-71221600D03*
%TD*%
D15*
%TO.C,*%
X165384200Y-99299200D03*
%TD*%
%TO.C,*%
X165384200Y-85449200D03*
%TD*%
D11*
%TO.C,*%
X158750000Y-72390000D03*
%TD*%
%TO.C,*%
X158750000Y-92710000D03*
%TD*%
D15*
%TO.C,*%
X168224200Y-86834200D03*
%TD*%
%TO.C,*%
X165384200Y-88219200D03*
%TD*%
%TO.C,*%
X168224200Y-92374200D03*
%TD*%
M02*
