%TF.GenerationSoftware,KiCad,Pcbnew,(6.0.2)*%
%TF.CreationDate,2024-04-09T06:49:27+01:00*%
%TF.ProjectId,amigaps2 revision1.7,616d6967-6170-4733-9220-726576697369,rev?*%
%TF.SameCoordinates,Original*%
%TF.FileFunction,AssemblyDrawing,Bot*%
%FSLAX46Y46*%
G04 Gerber Fmt 4.6, Leading zero omitted, Abs format (unit mm)*
G04 Created by KiCad (PCBNEW (6.0.2)) date 2024-04-09 06:49:27*
%MOMM*%
%LPD*%
G01*
G04 APERTURE LIST*
%ADD10C,0.150000*%
%ADD11C,0.080000*%
%ADD12C,0.100000*%
G04 APERTURE END LIST*
D10*
%TO.C,10k*%
X162112380Y-65486190D02*
X161636190Y-65152857D01*
X162112380Y-64914761D02*
X161112380Y-64914761D01*
X161112380Y-65295714D01*
X161160000Y-65390952D01*
X161207619Y-65438571D01*
X161302857Y-65486190D01*
X161445714Y-65486190D01*
X161540952Y-65438571D01*
X161588571Y-65390952D01*
X161636190Y-65295714D01*
X161636190Y-64914761D01*
X162207619Y-65676666D02*
X162207619Y-66438571D01*
X161112380Y-66867142D02*
X161112380Y-66962380D01*
X161160000Y-67057619D01*
X161207619Y-67105238D01*
X161302857Y-67152857D01*
X161493333Y-67200476D01*
X161731428Y-67200476D01*
X161921904Y-67152857D01*
X162017142Y-67105238D01*
X162064761Y-67057619D01*
X162112380Y-66962380D01*
X162112380Y-66867142D01*
X162064761Y-66771904D01*
X162017142Y-66724285D01*
X161921904Y-66676666D01*
X161731428Y-66629047D01*
X161493333Y-66629047D01*
X161302857Y-66676666D01*
X161207619Y-66724285D01*
X161160000Y-66771904D01*
X161112380Y-66867142D01*
X161540952Y-67771904D02*
X161493333Y-67676666D01*
X161445714Y-67629047D01*
X161350476Y-67581428D01*
X161302857Y-67581428D01*
X161207619Y-67629047D01*
X161160000Y-67676666D01*
X161112380Y-67771904D01*
X161112380Y-67962380D01*
X161160000Y-68057619D01*
X161207619Y-68105238D01*
X161302857Y-68152857D01*
X161350476Y-68152857D01*
X161445714Y-68105238D01*
X161493333Y-68057619D01*
X161540952Y-67962380D01*
X161540952Y-67771904D01*
X161588571Y-67676666D01*
X161636190Y-67629047D01*
X161731428Y-67581428D01*
X161921904Y-67581428D01*
X162017142Y-67629047D01*
X162064761Y-67676666D01*
X162112380Y-67771904D01*
X162112380Y-67962380D01*
X162064761Y-68057619D01*
X162017142Y-68105238D01*
X161921904Y-68152857D01*
X161731428Y-68152857D01*
X161636190Y-68105238D01*
X161588571Y-68057619D01*
X161540952Y-67962380D01*
X161112380Y-68771904D02*
X161112380Y-68867142D01*
X161160000Y-68962380D01*
X161207619Y-69010000D01*
X161302857Y-69057619D01*
X161493333Y-69105238D01*
X161731428Y-69105238D01*
X161921904Y-69057619D01*
X162017142Y-69010000D01*
X162064761Y-68962380D01*
X162112380Y-68867142D01*
X162112380Y-68771904D01*
X162064761Y-68676666D01*
X162017142Y-68629047D01*
X161921904Y-68581428D01*
X161731428Y-68533809D01*
X161493333Y-68533809D01*
X161302857Y-68581428D01*
X161207619Y-68629047D01*
X161160000Y-68676666D01*
X161112380Y-68771904D01*
X161112380Y-70010000D02*
X161112380Y-69533809D01*
X161588571Y-69486190D01*
X161540952Y-69533809D01*
X161493333Y-69629047D01*
X161493333Y-69867142D01*
X161540952Y-69962380D01*
X161588571Y-70010000D01*
X161683809Y-70057619D01*
X161921904Y-70057619D01*
X162017142Y-70010000D01*
X162064761Y-69962380D01*
X162112380Y-69867142D01*
X162112380Y-69629047D01*
X162064761Y-69533809D01*
X162017142Y-69486190D01*
X162207619Y-70248095D02*
X162207619Y-71010000D01*
X161207619Y-71200476D02*
X161160000Y-71248095D01*
X161112380Y-71343333D01*
X161112380Y-71581428D01*
X161160000Y-71676666D01*
X161207619Y-71724285D01*
X161302857Y-71771904D01*
X161398095Y-71771904D01*
X161540952Y-71724285D01*
X162112380Y-71152857D01*
X162112380Y-71771904D01*
X161112380Y-72390952D02*
X161112380Y-72486190D01*
X161160000Y-72581428D01*
X161207619Y-72629047D01*
X161302857Y-72676666D01*
X161493333Y-72724285D01*
X161731428Y-72724285D01*
X161921904Y-72676666D01*
X162017142Y-72629047D01*
X162064761Y-72581428D01*
X162112380Y-72486190D01*
X162112380Y-72390952D01*
X162064761Y-72295714D01*
X162017142Y-72248095D01*
X161921904Y-72200476D01*
X161731428Y-72152857D01*
X161493333Y-72152857D01*
X161302857Y-72200476D01*
X161207619Y-72248095D01*
X161160000Y-72295714D01*
X161112380Y-72390952D01*
X162112380Y-73676666D02*
X162112380Y-73105238D01*
X162112380Y-73390952D02*
X161112380Y-73390952D01*
X161255238Y-73295714D01*
X161350476Y-73200476D01*
X161398095Y-73105238D01*
X161207619Y-74057619D02*
X161160000Y-74105238D01*
X161112380Y-74200476D01*
X161112380Y-74438571D01*
X161160000Y-74533809D01*
X161207619Y-74581428D01*
X161302857Y-74629047D01*
X161398095Y-74629047D01*
X161540952Y-74581428D01*
X162112380Y-74010000D01*
X162112380Y-74629047D01*
X162112380Y-75057619D02*
X161112380Y-75057619D01*
X161826666Y-75390952D01*
X161112380Y-75724285D01*
X162112380Y-75724285D01*
X162064761Y-76581428D02*
X162112380Y-76486190D01*
X162112380Y-76295714D01*
X162064761Y-76200476D01*
X161969523Y-76152857D01*
X161588571Y-76152857D01*
X161493333Y-76200476D01*
X161445714Y-76295714D01*
X161445714Y-76486190D01*
X161493333Y-76581428D01*
X161588571Y-76629047D01*
X161683809Y-76629047D01*
X161779047Y-76152857D01*
X161445714Y-76914761D02*
X161445714Y-77295714D01*
X161112380Y-77057619D02*
X161969523Y-77057619D01*
X162064761Y-77105238D01*
X162112380Y-77200476D01*
X162112380Y-77295714D01*
X162112380Y-77629047D02*
X161445714Y-77629047D01*
X161636190Y-77629047D02*
X161540952Y-77676666D01*
X161493333Y-77724285D01*
X161445714Y-77819523D01*
X161445714Y-77914761D01*
X162112380Y-78248095D02*
X161445714Y-78248095D01*
X161112380Y-78248095D02*
X161160000Y-78200476D01*
X161207619Y-78248095D01*
X161160000Y-78295714D01*
X161112380Y-78248095D01*
X161207619Y-78248095D01*
X162064761Y-79152857D02*
X162112380Y-79057619D01*
X162112380Y-78867142D01*
X162064761Y-78771904D01*
X162017142Y-78724285D01*
X161921904Y-78676666D01*
X161636190Y-78676666D01*
X161540952Y-78724285D01*
X161493333Y-78771904D01*
X161445714Y-78867142D01*
X161445714Y-79057619D01*
X161493333Y-79152857D01*
X162207619Y-79343333D02*
X162207619Y-80105238D01*
X162112380Y-80343333D02*
X161112380Y-80343333D01*
X161112380Y-80724285D01*
X161160000Y-80819523D01*
X161207619Y-80867142D01*
X161302857Y-80914761D01*
X161445714Y-80914761D01*
X161540952Y-80867142D01*
X161588571Y-80819523D01*
X161636190Y-80724285D01*
X161636190Y-80343333D01*
X162112380Y-81771904D02*
X161588571Y-81771904D01*
X161493333Y-81724285D01*
X161445714Y-81629047D01*
X161445714Y-81438571D01*
X161493333Y-81343333D01*
X162064761Y-81771904D02*
X162112380Y-81676666D01*
X162112380Y-81438571D01*
X162064761Y-81343333D01*
X161969523Y-81295714D01*
X161874285Y-81295714D01*
X161779047Y-81343333D01*
X161731428Y-81438571D01*
X161731428Y-81676666D01*
X161683809Y-81771904D01*
X162112380Y-82676666D02*
X161112380Y-82676666D01*
X162064761Y-82676666D02*
X162112380Y-82581428D01*
X162112380Y-82390952D01*
X162064761Y-82295714D01*
X162017142Y-82248095D01*
X161921904Y-82200476D01*
X161636190Y-82200476D01*
X161540952Y-82248095D01*
X161493333Y-82295714D01*
X161445714Y-82390952D01*
X161445714Y-82581428D01*
X161493333Y-82676666D01*
X162112380Y-83676666D02*
X162112380Y-83105238D01*
X162112380Y-83390952D02*
X161112380Y-83390952D01*
X161255238Y-83295714D01*
X161350476Y-83200476D01*
X161398095Y-83105238D01*
X162017142Y-84105238D02*
X162064761Y-84152857D01*
X162112380Y-84105238D01*
X162064761Y-84057619D01*
X162017142Y-84105238D01*
X162112380Y-84105238D01*
X161207619Y-84533809D02*
X161160000Y-84581428D01*
X161112380Y-84676666D01*
X161112380Y-84914761D01*
X161160000Y-85010000D01*
X161207619Y-85057619D01*
X161302857Y-85105238D01*
X161398095Y-85105238D01*
X161540952Y-85057619D01*
X162112380Y-84486190D01*
X162112380Y-85105238D01*
X161112380Y-85724285D02*
X161112380Y-85819523D01*
X161160000Y-85914761D01*
X161207619Y-85962380D01*
X161302857Y-86010000D01*
X161493333Y-86057619D01*
X161731428Y-86057619D01*
X161921904Y-86010000D01*
X162017142Y-85962380D01*
X162064761Y-85914761D01*
X162112380Y-85819523D01*
X162112380Y-85724285D01*
X162064761Y-85629047D01*
X162017142Y-85581428D01*
X161921904Y-85533809D01*
X161731428Y-85486190D01*
X161493333Y-85486190D01*
X161302857Y-85533809D01*
X161207619Y-85581428D01*
X161160000Y-85629047D01*
X161112380Y-85724285D01*
X162112380Y-86390952D02*
X161445714Y-86914761D01*
X161445714Y-86390952D02*
X162112380Y-86914761D01*
X162112380Y-87819523D02*
X162112380Y-87248095D01*
X162112380Y-87533809D02*
X161112380Y-87533809D01*
X161255238Y-87438571D01*
X161350476Y-87343333D01*
X161398095Y-87248095D01*
X162017142Y-88248095D02*
X162064761Y-88295714D01*
X162112380Y-88248095D01*
X162064761Y-88200476D01*
X162017142Y-88248095D01*
X162112380Y-88248095D01*
X161445714Y-89152857D02*
X162112380Y-89152857D01*
X161064761Y-88914761D02*
X161779047Y-88676666D01*
X161779047Y-89295714D01*
X161112380Y-89867142D02*
X161112380Y-89962380D01*
X161160000Y-90057619D01*
X161207619Y-90105238D01*
X161302857Y-90152857D01*
X161493333Y-90200476D01*
X161731428Y-90200476D01*
X161921904Y-90152857D01*
X162017142Y-90105238D01*
X162064761Y-90057619D01*
X162112380Y-89962380D01*
X162112380Y-89867142D01*
X162064761Y-89771904D01*
X162017142Y-89724285D01*
X161921904Y-89676666D01*
X161731428Y-89629047D01*
X161493333Y-89629047D01*
X161302857Y-89676666D01*
X161207619Y-89724285D01*
X161160000Y-89771904D01*
X161112380Y-89867142D01*
X162112380Y-90629047D02*
X161445714Y-90629047D01*
X161540952Y-90629047D02*
X161493333Y-90676666D01*
X161445714Y-90771904D01*
X161445714Y-90914761D01*
X161493333Y-91010000D01*
X161588571Y-91057619D01*
X162112380Y-91057619D01*
X161588571Y-91057619D02*
X161493333Y-91105238D01*
X161445714Y-91200476D01*
X161445714Y-91343333D01*
X161493333Y-91438571D01*
X161588571Y-91486190D01*
X162112380Y-91486190D01*
X162112380Y-91962380D02*
X161445714Y-91962380D01*
X161540952Y-91962380D02*
X161493333Y-92010000D01*
X161445714Y-92105238D01*
X161445714Y-92248095D01*
X161493333Y-92343333D01*
X161588571Y-92390952D01*
X162112380Y-92390952D01*
X161588571Y-92390952D02*
X161493333Y-92438571D01*
X161445714Y-92533809D01*
X161445714Y-92676666D01*
X161493333Y-92771904D01*
X161588571Y-92819523D01*
X162112380Y-92819523D01*
X162207619Y-93057619D02*
X162207619Y-93819523D01*
X162112380Y-94057619D02*
X161112380Y-94057619D01*
X161588571Y-94057619D02*
X161588571Y-94629047D01*
X162112380Y-94629047D02*
X161112380Y-94629047D01*
X162112380Y-95533809D02*
X161588571Y-95533809D01*
X161493333Y-95486190D01*
X161445714Y-95390952D01*
X161445714Y-95200476D01*
X161493333Y-95105238D01*
X162064761Y-95533809D02*
X162112380Y-95438571D01*
X162112380Y-95200476D01*
X162064761Y-95105238D01*
X161969523Y-95057619D01*
X161874285Y-95057619D01*
X161779047Y-95105238D01*
X161731428Y-95200476D01*
X161731428Y-95438571D01*
X161683809Y-95533809D01*
X161445714Y-96010000D02*
X162112380Y-96010000D01*
X161540952Y-96010000D02*
X161493333Y-96057619D01*
X161445714Y-96152857D01*
X161445714Y-96295714D01*
X161493333Y-96390952D01*
X161588571Y-96438571D01*
X162112380Y-96438571D01*
X162112380Y-97343333D02*
X161112380Y-97343333D01*
X162064761Y-97343333D02*
X162112380Y-97248095D01*
X162112380Y-97057619D01*
X162064761Y-96962380D01*
X162017142Y-96914761D01*
X161921904Y-96867142D01*
X161636190Y-96867142D01*
X161540952Y-96914761D01*
X161493333Y-96962380D01*
X161445714Y-97057619D01*
X161445714Y-97248095D01*
X161493333Y-97343333D01*
X162064761Y-97771904D02*
X162112380Y-97914761D01*
X162112380Y-98152857D01*
X162064761Y-98248095D01*
X162017142Y-98295714D01*
X161921904Y-98343333D01*
X161826666Y-98343333D01*
X161731428Y-98295714D01*
X161683809Y-98248095D01*
X161636190Y-98152857D01*
X161588571Y-97962380D01*
X161540952Y-97867142D01*
X161493333Y-97819523D01*
X161398095Y-97771904D01*
X161302857Y-97771904D01*
X161207619Y-97819523D01*
X161160000Y-97867142D01*
X161112380Y-97962380D01*
X161112380Y-98200476D01*
X161160000Y-98343333D01*
X162112380Y-98914761D02*
X162064761Y-98819523D01*
X162017142Y-98771904D01*
X161921904Y-98724285D01*
X161636190Y-98724285D01*
X161540952Y-98771904D01*
X161493333Y-98819523D01*
X161445714Y-98914761D01*
X161445714Y-99057619D01*
X161493333Y-99152857D01*
X161540952Y-99200476D01*
X161636190Y-99248095D01*
X161921904Y-99248095D01*
X162017142Y-99200476D01*
X162064761Y-99152857D01*
X162112380Y-99057619D01*
X162112380Y-98914761D01*
X162112380Y-99819523D02*
X162064761Y-99724285D01*
X161969523Y-99676666D01*
X161112380Y-99676666D01*
X162112380Y-100629047D02*
X161112380Y-100629047D01*
X162064761Y-100629047D02*
X162112380Y-100533809D01*
X162112380Y-100343333D01*
X162064761Y-100248095D01*
X162017142Y-100200476D01*
X161921904Y-100152857D01*
X161636190Y-100152857D01*
X161540952Y-100200476D01*
X161493333Y-100248095D01*
X161445714Y-100343333D01*
X161445714Y-100533809D01*
X161493333Y-100629047D01*
X162064761Y-101486190D02*
X162112380Y-101390952D01*
X162112380Y-101200476D01*
X162064761Y-101105238D01*
X161969523Y-101057619D01*
X161588571Y-101057619D01*
X161493333Y-101105238D01*
X161445714Y-101200476D01*
X161445714Y-101390952D01*
X161493333Y-101486190D01*
X161588571Y-101533809D01*
X161683809Y-101533809D01*
X161779047Y-101057619D01*
X162112380Y-101962380D02*
X161445714Y-101962380D01*
X161636190Y-101962380D02*
X161540952Y-102010000D01*
X161493333Y-102057619D01*
X161445714Y-102152857D01*
X161445714Y-102248095D01*
D11*
X163536190Y-83212380D02*
X163536190Y-82926666D01*
X163536190Y-83069523D02*
X163036190Y-83069523D01*
X163107619Y-83021904D01*
X163155238Y-82974285D01*
X163179047Y-82926666D01*
X163036190Y-83521904D02*
X163036190Y-83569523D01*
X163060000Y-83617142D01*
X163083809Y-83640952D01*
X163131428Y-83664761D01*
X163226666Y-83688571D01*
X163345714Y-83688571D01*
X163440952Y-83664761D01*
X163488571Y-83640952D01*
X163512380Y-83617142D01*
X163536190Y-83569523D01*
X163536190Y-83521904D01*
X163512380Y-83474285D01*
X163488571Y-83450476D01*
X163440952Y-83426666D01*
X163345714Y-83402857D01*
X163226666Y-83402857D01*
X163131428Y-83426666D01*
X163083809Y-83450476D01*
X163060000Y-83474285D01*
X163036190Y-83521904D01*
X163536190Y-83902857D02*
X163036190Y-83902857D01*
X163345714Y-83950476D02*
X163536190Y-84093333D01*
X163202857Y-84093333D02*
X163393333Y-83902857D01*
D12*
X163935000Y-84510000D02*
X163935000Y-82510000D01*
X162685000Y-82510000D02*
X162685000Y-84510000D01*
X163935000Y-82510000D02*
X162685000Y-82510000D01*
X162685000Y-84510000D02*
X163935000Y-84510000D01*
%TD*%
M02*
