%TF.GenerationSoftware,KiCad,Pcbnew,(6.0.2)*%
%TF.CreationDate,2024-04-09T06:49:27+01:00*%
%TF.ProjectId,amigaps2 revision1.7,616d6967-6170-4733-9220-726576697369,rev?*%
%TF.SameCoordinates,Original*%
%TF.FileFunction,Soldermask,Top*%
%TF.FilePolarity,Negative*%
%FSLAX46Y46*%
G04 Gerber Fmt 4.6, Leading zero omitted, Abs format (unit mm)*
G04 Created by KiCad (PCBNEW (6.0.2)) date 2024-04-09 06:49:27*
%MOMM*%
%LPD*%
G01*
G04 APERTURE LIST*
G04 Aperture macros list*
%AMRoundRect*
0 Rectangle with rounded corners*
0 $1 Rounding radius*
0 $2 $3 $4 $5 $6 $7 $8 $9 X,Y pos of 4 corners*
0 Add a 4 corners polygon primitive as box body*
4,1,4,$2,$3,$4,$5,$6,$7,$8,$9,$2,$3,0*
0 Add four circle primitives for the rounded corners*
1,1,$1+$1,$2,$3*
1,1,$1+$1,$4,$5*
1,1,$1+$1,$6,$7*
1,1,$1+$1,$8,$9*
0 Add four rect primitives between the rounded corners*
20,1,$1+$1,$2,$3,$4,$5,0*
20,1,$1+$1,$4,$5,$6,$7,0*
20,1,$1+$1,$6,$7,$8,$9,0*
20,1,$1+$1,$8,$9,$2,$3,0*%
G04 Aperture macros list end*
%ADD10RoundRect,0.250000X-0.350000X-0.450000X0.350000X-0.450000X0.350000X0.450000X-0.350000X0.450000X0*%
%ADD11RoundRect,0.250000X0.450000X-0.350000X0.450000X0.350000X-0.450000X0.350000X-0.450000X-0.350000X0*%
%ADD12RoundRect,0.250000X-0.450000X0.350000X-0.450000X-0.350000X0.450000X-0.350000X0.450000X0.350000X0*%
%ADD13O,2.032000X1.727200*%
%ADD14C,2.540000*%
%ADD15R,1.700000X1.700000*%
%ADD16O,1.700000X1.700000*%
%ADD17C,1.600000*%
%ADD18C,4.000000*%
%ADD19R,1.600000X1.600000*%
%ADD20R,1.800000X1.800000*%
%ADD21O,1.800000X1.800000*%
%ADD22C,1.524000*%
%ADD23C,3.300000*%
%ADD24C,2.000000*%
G04 APERTURE END LIST*
D10*
%TO.C,10k*%
X162550000Y-107860000D03*
X164550000Y-107860000D03*
%TD*%
D11*
%TO.C,10k*%
X168450000Y-76660000D03*
X168450000Y-74660000D03*
%TD*%
D10*
%TO.C,10k*%
X162560000Y-105800000D03*
X164560000Y-105800000D03*
%TD*%
D11*
%TO.C,100k*%
X173810000Y-81900000D03*
X173810000Y-79900000D03*
%TD*%
%TO.C,100k*%
X172450000Y-86400000D03*
X172450000Y-84400000D03*
%TD*%
D12*
%TO.C,100k*%
X173960000Y-101560000D03*
X173960000Y-103560000D03*
%TD*%
%TO.C,100k*%
X171650000Y-101540000D03*
X171650000Y-103540000D03*
%TD*%
D13*
%TO.C,P1*%
X139446000Y-71247000D03*
X139446000Y-73787000D03*
X139446000Y-76327000D03*
X139446000Y-78867000D03*
X139446000Y-81407000D03*
X139446000Y-83947000D03*
X139446000Y-86487000D03*
X139446000Y-91567000D03*
X139446000Y-94107000D03*
X139446000Y-96647000D03*
X139446000Y-99187000D03*
X139446000Y-101727000D03*
X139446000Y-104267000D03*
X139446000Y-106807000D03*
X139446000Y-89027000D03*
%TD*%
%TO.C,P2*%
X154686000Y-71247000D03*
X154686000Y-73787000D03*
X154686000Y-76327000D03*
X154686000Y-78867000D03*
X154686000Y-81407000D03*
X154686000Y-83947000D03*
X154686000Y-86487000D03*
X154686000Y-89027000D03*
X154686000Y-91567000D03*
X154686000Y-94107000D03*
X154686000Y-96647000D03*
X154686000Y-99187000D03*
X154686000Y-101727000D03*
X154686000Y-104267000D03*
X154686000Y-106807000D03*
%TD*%
D14*
%TO.C,P3*%
X139446000Y-68707000D03*
%TD*%
%TO.C,P4*%
X139446000Y-109347000D03*
%TD*%
%TO.C,P5*%
X154686000Y-109347000D03*
%TD*%
%TO.C,P6*%
X154686000Y-68707000D03*
%TD*%
D13*
%TO.C,*%
X171480000Y-95790000D03*
%TD*%
%TO.C,*%
X170670000Y-80350000D03*
%TD*%
D15*
%TO.C,REF\u002A\u002A*%
X162458400Y-71780400D03*
D16*
X162458400Y-69240400D03*
%TD*%
D17*
%TO.C,*%
X165384200Y-93759200D03*
%TD*%
D13*
%TO.C,*%
X171410000Y-92520000D03*
%TD*%
%TO.C,*%
X158750000Y-80010000D03*
%TD*%
D17*
%TO.C,*%
X165384200Y-96529200D03*
%TD*%
D13*
%TO.C,*%
X171420000Y-99070000D03*
%TD*%
D17*
%TO.C,*%
X165384200Y-102069200D03*
%TD*%
D15*
%TO.C,CONFIG*%
X171181000Y-69367000D03*
D16*
X168641000Y-69367000D03*
X166101000Y-69367000D03*
%TD*%
D17*
%TO.C,*%
X168224200Y-89604200D03*
%TD*%
D13*
%TO.C,*%
X158750000Y-87630000D03*
%TD*%
D18*
%TO.C,Female DSUB9 connector*%
X134741000Y-116632000D03*
X159741000Y-116632000D03*
D17*
X148626000Y-119172000D03*
X145856000Y-119172000D03*
X150011000Y-116332000D03*
X144471000Y-116332000D03*
X151396000Y-119172000D03*
X141701000Y-116332000D03*
X143086000Y-119172000D03*
D19*
X152781000Y-116332000D03*
D17*
X147241000Y-116332000D03*
%TD*%
D20*
%TO.C,DIODE*%
X146470000Y-113010000D03*
D21*
X156630000Y-113010000D03*
%TD*%
D13*
%TO.C,*%
X158750000Y-95250000D03*
%TD*%
D17*
%TO.C,*%
X168224200Y-95144200D03*
%TD*%
%TO.C,*%
X168224200Y-84064200D03*
%TD*%
D22*
%TO.C,J1*%
X143568000Y-60706000D03*
X150368000Y-60706000D03*
D23*
X146968000Y-56906000D03*
X140218000Y-57706000D03*
X153718000Y-57706000D03*
D22*
X143568000Y-63206000D03*
X150368000Y-63206000D03*
X145668000Y-60706000D03*
X148268000Y-60706000D03*
%TD*%
D19*
%TO.C,*%
X168224200Y-103454200D03*
%TD*%
D15*
%TO.C,REF\u002A\u002A*%
X173020000Y-111175000D03*
D16*
X170480000Y-111175000D03*
X167940000Y-111175000D03*
X165400000Y-111175000D03*
%TD*%
D13*
%TO.C,*%
X158750000Y-77470000D03*
%TD*%
D17*
%TO.C,*%
X165384200Y-90989200D03*
%TD*%
D13*
%TO.C,*%
X170890000Y-76360000D03*
%TD*%
D17*
%TO.C,*%
X168224200Y-100684200D03*
%TD*%
D13*
%TO.C,*%
X171360000Y-89240000D03*
%TD*%
%TO.C,*%
X158750000Y-97790000D03*
%TD*%
D17*
%TO.C,*%
X168224200Y-97914200D03*
%TD*%
D24*
%TO.C,MouseDPI*%
X164846000Y-62126000D03*
X164846000Y-55626000D03*
X160346000Y-62126000D03*
X160346000Y-55626000D03*
%TD*%
D15*
%TO.C,REF\u002A\u002A*%
X150469600Y-71221600D03*
%TD*%
D17*
%TO.C,*%
X165384200Y-99299200D03*
%TD*%
%TO.C,*%
X165384200Y-85449200D03*
%TD*%
D13*
%TO.C,*%
X158750000Y-72390000D03*
%TD*%
%TO.C,*%
X158750000Y-92710000D03*
%TD*%
D17*
%TO.C,*%
X168224200Y-86834200D03*
%TD*%
%TO.C,*%
X165384200Y-88219200D03*
%TD*%
%TO.C,*%
X168224200Y-92374200D03*
%TD*%
M02*
