%TF.GenerationSoftware,KiCad,Pcbnew,(6.0.2)*%
%TF.CreationDate,2024-04-09T06:49:27+01:00*%
%TF.ProjectId,amigaps2 revision1.7,616d6967-6170-4733-9220-726576697369,rev?*%
%TF.SameCoordinates,Original*%
%TF.FileFunction,AssemblyDrawing,Top*%
%FSLAX46Y46*%
G04 Gerber Fmt 4.6, Leading zero omitted, Abs format (unit mm)*
G04 Created by KiCad (PCBNEW (6.0.2)) date 2024-04-09 06:49:27*
%MOMM*%
%LPD*%
G01*
G04 APERTURE LIST*
%ADD10C,0.150000*%
%ADD11C,0.080000*%
%ADD12C,0.100000*%
G04 APERTURE END LIST*
D10*
%TO.C,10k*%
X145526190Y-109962380D02*
X145192857Y-109486190D01*
X144954761Y-109962380D02*
X144954761Y-108962380D01*
X145335714Y-108962380D01*
X145430952Y-109010000D01*
X145478571Y-109057619D01*
X145526190Y-109152857D01*
X145526190Y-109295714D01*
X145478571Y-109390952D01*
X145430952Y-109438571D01*
X145335714Y-109486190D01*
X144954761Y-109486190D01*
X145716666Y-110057619D02*
X146478571Y-110057619D01*
X146907142Y-108962380D02*
X147002380Y-108962380D01*
X147097619Y-109010000D01*
X147145238Y-109057619D01*
X147192857Y-109152857D01*
X147240476Y-109343333D01*
X147240476Y-109581428D01*
X147192857Y-109771904D01*
X147145238Y-109867142D01*
X147097619Y-109914761D01*
X147002380Y-109962380D01*
X146907142Y-109962380D01*
X146811904Y-109914761D01*
X146764285Y-109867142D01*
X146716666Y-109771904D01*
X146669047Y-109581428D01*
X146669047Y-109343333D01*
X146716666Y-109152857D01*
X146764285Y-109057619D01*
X146811904Y-109010000D01*
X146907142Y-108962380D01*
X147811904Y-109390952D02*
X147716666Y-109343333D01*
X147669047Y-109295714D01*
X147621428Y-109200476D01*
X147621428Y-109152857D01*
X147669047Y-109057619D01*
X147716666Y-109010000D01*
X147811904Y-108962380D01*
X148002380Y-108962380D01*
X148097619Y-109010000D01*
X148145238Y-109057619D01*
X148192857Y-109152857D01*
X148192857Y-109200476D01*
X148145238Y-109295714D01*
X148097619Y-109343333D01*
X148002380Y-109390952D01*
X147811904Y-109390952D01*
X147716666Y-109438571D01*
X147669047Y-109486190D01*
X147621428Y-109581428D01*
X147621428Y-109771904D01*
X147669047Y-109867142D01*
X147716666Y-109914761D01*
X147811904Y-109962380D01*
X148002380Y-109962380D01*
X148097619Y-109914761D01*
X148145238Y-109867142D01*
X148192857Y-109771904D01*
X148192857Y-109581428D01*
X148145238Y-109486190D01*
X148097619Y-109438571D01*
X148002380Y-109390952D01*
X148811904Y-108962380D02*
X148907142Y-108962380D01*
X149002380Y-109010000D01*
X149050000Y-109057619D01*
X149097619Y-109152857D01*
X149145238Y-109343333D01*
X149145238Y-109581428D01*
X149097619Y-109771904D01*
X149050000Y-109867142D01*
X149002380Y-109914761D01*
X148907142Y-109962380D01*
X148811904Y-109962380D01*
X148716666Y-109914761D01*
X148669047Y-109867142D01*
X148621428Y-109771904D01*
X148573809Y-109581428D01*
X148573809Y-109343333D01*
X148621428Y-109152857D01*
X148669047Y-109057619D01*
X148716666Y-109010000D01*
X148811904Y-108962380D01*
X150050000Y-108962380D02*
X149573809Y-108962380D01*
X149526190Y-109438571D01*
X149573809Y-109390952D01*
X149669047Y-109343333D01*
X149907142Y-109343333D01*
X150002380Y-109390952D01*
X150050000Y-109438571D01*
X150097619Y-109533809D01*
X150097619Y-109771904D01*
X150050000Y-109867142D01*
X150002380Y-109914761D01*
X149907142Y-109962380D01*
X149669047Y-109962380D01*
X149573809Y-109914761D01*
X149526190Y-109867142D01*
X150288095Y-110057619D02*
X151050000Y-110057619D01*
X151240476Y-109057619D02*
X151288095Y-109010000D01*
X151383333Y-108962380D01*
X151621428Y-108962380D01*
X151716666Y-109010000D01*
X151764285Y-109057619D01*
X151811904Y-109152857D01*
X151811904Y-109248095D01*
X151764285Y-109390952D01*
X151192857Y-109962380D01*
X151811904Y-109962380D01*
X152430952Y-108962380D02*
X152526190Y-108962380D01*
X152621428Y-109010000D01*
X152669047Y-109057619D01*
X152716666Y-109152857D01*
X152764285Y-109343333D01*
X152764285Y-109581428D01*
X152716666Y-109771904D01*
X152669047Y-109867142D01*
X152621428Y-109914761D01*
X152526190Y-109962380D01*
X152430952Y-109962380D01*
X152335714Y-109914761D01*
X152288095Y-109867142D01*
X152240476Y-109771904D01*
X152192857Y-109581428D01*
X152192857Y-109343333D01*
X152240476Y-109152857D01*
X152288095Y-109057619D01*
X152335714Y-109010000D01*
X152430952Y-108962380D01*
X153716666Y-109962380D02*
X153145238Y-109962380D01*
X153430952Y-109962380D02*
X153430952Y-108962380D01*
X153335714Y-109105238D01*
X153240476Y-109200476D01*
X153145238Y-109248095D01*
X154097619Y-109057619D02*
X154145238Y-109010000D01*
X154240476Y-108962380D01*
X154478571Y-108962380D01*
X154573809Y-109010000D01*
X154621428Y-109057619D01*
X154669047Y-109152857D01*
X154669047Y-109248095D01*
X154621428Y-109390952D01*
X154050000Y-109962380D01*
X154669047Y-109962380D01*
X155097619Y-109962380D02*
X155097619Y-108962380D01*
X155430952Y-109676666D01*
X155764285Y-108962380D01*
X155764285Y-109962380D01*
X156621428Y-109914761D02*
X156526190Y-109962380D01*
X156335714Y-109962380D01*
X156240476Y-109914761D01*
X156192857Y-109819523D01*
X156192857Y-109438571D01*
X156240476Y-109343333D01*
X156335714Y-109295714D01*
X156526190Y-109295714D01*
X156621428Y-109343333D01*
X156669047Y-109438571D01*
X156669047Y-109533809D01*
X156192857Y-109629047D01*
X156954761Y-109295714D02*
X157335714Y-109295714D01*
X157097619Y-108962380D02*
X157097619Y-109819523D01*
X157145238Y-109914761D01*
X157240476Y-109962380D01*
X157335714Y-109962380D01*
X157669047Y-109962380D02*
X157669047Y-109295714D01*
X157669047Y-109486190D02*
X157716666Y-109390952D01*
X157764285Y-109343333D01*
X157859523Y-109295714D01*
X157954761Y-109295714D01*
X158288095Y-109962380D02*
X158288095Y-109295714D01*
X158288095Y-108962380D02*
X158240476Y-109010000D01*
X158288095Y-109057619D01*
X158335714Y-109010000D01*
X158288095Y-108962380D01*
X158288095Y-109057619D01*
X159192857Y-109914761D02*
X159097619Y-109962380D01*
X158907142Y-109962380D01*
X158811904Y-109914761D01*
X158764285Y-109867142D01*
X158716666Y-109771904D01*
X158716666Y-109486190D01*
X158764285Y-109390952D01*
X158811904Y-109343333D01*
X158907142Y-109295714D01*
X159097619Y-109295714D01*
X159192857Y-109343333D01*
X159383333Y-110057619D02*
X160145238Y-110057619D01*
X160383333Y-109962380D02*
X160383333Y-108962380D01*
X160764285Y-108962380D01*
X160859523Y-109010000D01*
X160907142Y-109057619D01*
X160954761Y-109152857D01*
X160954761Y-109295714D01*
X160907142Y-109390952D01*
X160859523Y-109438571D01*
X160764285Y-109486190D01*
X160383333Y-109486190D01*
X161811904Y-109962380D02*
X161811904Y-109438571D01*
X161764285Y-109343333D01*
X161669047Y-109295714D01*
X161478571Y-109295714D01*
X161383333Y-109343333D01*
X161811904Y-109914761D02*
X161716666Y-109962380D01*
X161478571Y-109962380D01*
X161383333Y-109914761D01*
X161335714Y-109819523D01*
X161335714Y-109724285D01*
X161383333Y-109629047D01*
X161478571Y-109581428D01*
X161716666Y-109581428D01*
X161811904Y-109533809D01*
X162716666Y-109962380D02*
X162716666Y-108962380D01*
X162716666Y-109914761D02*
X162621428Y-109962380D01*
X162430952Y-109962380D01*
X162335714Y-109914761D01*
X162288095Y-109867142D01*
X162240476Y-109771904D01*
X162240476Y-109486190D01*
X162288095Y-109390952D01*
X162335714Y-109343333D01*
X162430952Y-109295714D01*
X162621428Y-109295714D01*
X162716666Y-109343333D01*
X163716666Y-109962380D02*
X163145238Y-109962380D01*
X163430952Y-109962380D02*
X163430952Y-108962380D01*
X163335714Y-109105238D01*
X163240476Y-109200476D01*
X163145238Y-109248095D01*
X164145238Y-109867142D02*
X164192857Y-109914761D01*
X164145238Y-109962380D01*
X164097619Y-109914761D01*
X164145238Y-109867142D01*
X164145238Y-109962380D01*
X164573809Y-109057619D02*
X164621428Y-109010000D01*
X164716666Y-108962380D01*
X164954761Y-108962380D01*
X165050000Y-109010000D01*
X165097619Y-109057619D01*
X165145238Y-109152857D01*
X165145238Y-109248095D01*
X165097619Y-109390952D01*
X164526190Y-109962380D01*
X165145238Y-109962380D01*
X165764285Y-108962380D02*
X165859523Y-108962380D01*
X165954761Y-109010000D01*
X166002380Y-109057619D01*
X166049999Y-109152857D01*
X166097619Y-109343333D01*
X166097619Y-109581428D01*
X166049999Y-109771904D01*
X166002380Y-109867142D01*
X165954761Y-109914761D01*
X165859523Y-109962380D01*
X165764285Y-109962380D01*
X165669047Y-109914761D01*
X165621428Y-109867142D01*
X165573809Y-109771904D01*
X165526190Y-109581428D01*
X165526190Y-109343333D01*
X165573809Y-109152857D01*
X165621428Y-109057619D01*
X165669047Y-109010000D01*
X165764285Y-108962380D01*
X166430952Y-109962380D02*
X166954761Y-109295714D01*
X166430952Y-109295714D02*
X166954761Y-109962380D01*
X167859523Y-109962380D02*
X167288095Y-109962380D01*
X167573809Y-109962380D02*
X167573809Y-108962380D01*
X167478571Y-109105238D01*
X167383333Y-109200476D01*
X167288095Y-109248095D01*
X168288095Y-109867142D02*
X168335714Y-109914761D01*
X168288095Y-109962380D01*
X168240476Y-109914761D01*
X168288095Y-109867142D01*
X168288095Y-109962380D01*
X169192857Y-109295714D02*
X169192857Y-109962380D01*
X168954761Y-108914761D02*
X168716666Y-109629047D01*
X169335714Y-109629047D01*
X169907142Y-108962380D02*
X170002380Y-108962380D01*
X170097619Y-109010000D01*
X170145238Y-109057619D01*
X170192857Y-109152857D01*
X170240476Y-109343333D01*
X170240476Y-109581428D01*
X170192857Y-109771904D01*
X170145238Y-109867142D01*
X170097619Y-109914761D01*
X170002380Y-109962380D01*
X169907142Y-109962380D01*
X169811904Y-109914761D01*
X169764285Y-109867142D01*
X169716666Y-109771904D01*
X169669047Y-109581428D01*
X169669047Y-109343333D01*
X169716666Y-109152857D01*
X169764285Y-109057619D01*
X169811904Y-109010000D01*
X169907142Y-108962380D01*
X170669047Y-109962380D02*
X170669047Y-109295714D01*
X170669047Y-109390952D02*
X170716666Y-109343333D01*
X170811904Y-109295714D01*
X170954761Y-109295714D01*
X171049999Y-109343333D01*
X171097619Y-109438571D01*
X171097619Y-109962380D01*
X171097619Y-109438571D02*
X171145238Y-109343333D01*
X171240476Y-109295714D01*
X171383333Y-109295714D01*
X171478571Y-109343333D01*
X171526190Y-109438571D01*
X171526190Y-109962380D01*
X172002380Y-109962380D02*
X172002380Y-109295714D01*
X172002380Y-109390952D02*
X172049999Y-109343333D01*
X172145238Y-109295714D01*
X172288095Y-109295714D01*
X172383333Y-109343333D01*
X172430952Y-109438571D01*
X172430952Y-109962380D01*
X172430952Y-109438571D02*
X172478571Y-109343333D01*
X172573809Y-109295714D01*
X172716666Y-109295714D01*
X172811904Y-109343333D01*
X172859523Y-109438571D01*
X172859523Y-109962380D01*
X173097619Y-110057619D02*
X173859523Y-110057619D01*
X174097619Y-109962380D02*
X174097619Y-108962380D01*
X174097619Y-109438571D02*
X174669047Y-109438571D01*
X174669047Y-109962380D02*
X174669047Y-108962380D01*
X175573809Y-109962380D02*
X175573809Y-109438571D01*
X175526190Y-109343333D01*
X175430952Y-109295714D01*
X175240476Y-109295714D01*
X175145238Y-109343333D01*
X175573809Y-109914761D02*
X175478571Y-109962380D01*
X175240476Y-109962380D01*
X175145238Y-109914761D01*
X175097619Y-109819523D01*
X175097619Y-109724285D01*
X175145238Y-109629047D01*
X175240476Y-109581428D01*
X175478571Y-109581428D01*
X175573809Y-109533809D01*
X176049999Y-109295714D02*
X176049999Y-109962380D01*
X176049999Y-109390952D02*
X176097619Y-109343333D01*
X176192857Y-109295714D01*
X176335714Y-109295714D01*
X176430952Y-109343333D01*
X176478571Y-109438571D01*
X176478571Y-109962380D01*
X177383333Y-109962380D02*
X177383333Y-108962380D01*
X177383333Y-109914761D02*
X177288095Y-109962380D01*
X177097619Y-109962380D01*
X177002380Y-109914761D01*
X176954761Y-109867142D01*
X176907142Y-109771904D01*
X176907142Y-109486190D01*
X176954761Y-109390952D01*
X177002380Y-109343333D01*
X177097619Y-109295714D01*
X177288095Y-109295714D01*
X177383333Y-109343333D01*
X177811904Y-109914761D02*
X177954761Y-109962380D01*
X178192857Y-109962380D01*
X178288095Y-109914761D01*
X178335714Y-109867142D01*
X178383333Y-109771904D01*
X178383333Y-109676666D01*
X178335714Y-109581428D01*
X178288095Y-109533809D01*
X178192857Y-109486190D01*
X178002380Y-109438571D01*
X177907142Y-109390952D01*
X177859523Y-109343333D01*
X177811904Y-109248095D01*
X177811904Y-109152857D01*
X177859523Y-109057619D01*
X177907142Y-109010000D01*
X178002380Y-108962380D01*
X178240476Y-108962380D01*
X178383333Y-109010000D01*
X178954761Y-109962380D02*
X178859523Y-109914761D01*
X178811904Y-109867142D01*
X178764285Y-109771904D01*
X178764285Y-109486190D01*
X178811904Y-109390952D01*
X178859523Y-109343333D01*
X178954761Y-109295714D01*
X179097619Y-109295714D01*
X179192857Y-109343333D01*
X179240476Y-109390952D01*
X179288095Y-109486190D01*
X179288095Y-109771904D01*
X179240476Y-109867142D01*
X179192857Y-109914761D01*
X179097619Y-109962380D01*
X178954761Y-109962380D01*
X179859523Y-109962380D02*
X179764285Y-109914761D01*
X179716666Y-109819523D01*
X179716666Y-108962380D01*
X180669047Y-109962380D02*
X180669047Y-108962380D01*
X180669047Y-109914761D02*
X180573809Y-109962380D01*
X180383333Y-109962380D01*
X180288095Y-109914761D01*
X180240476Y-109867142D01*
X180192857Y-109771904D01*
X180192857Y-109486190D01*
X180240476Y-109390952D01*
X180288095Y-109343333D01*
X180383333Y-109295714D01*
X180573809Y-109295714D01*
X180669047Y-109343333D01*
X181526190Y-109914761D02*
X181430952Y-109962380D01*
X181240476Y-109962380D01*
X181145238Y-109914761D01*
X181097619Y-109819523D01*
X181097619Y-109438571D01*
X181145238Y-109343333D01*
X181240476Y-109295714D01*
X181430952Y-109295714D01*
X181526190Y-109343333D01*
X181573809Y-109438571D01*
X181573809Y-109533809D01*
X181097619Y-109629047D01*
X182002380Y-109962380D02*
X182002380Y-109295714D01*
X182002380Y-109486190D02*
X182049999Y-109390952D01*
X182097619Y-109343333D01*
X182192857Y-109295714D01*
X182288095Y-109295714D01*
D11*
X163252380Y-108086190D02*
X162966666Y-108086190D01*
X163109523Y-108086190D02*
X163109523Y-107586190D01*
X163061904Y-107657619D01*
X163014285Y-107705238D01*
X162966666Y-107729047D01*
X163561904Y-107586190D02*
X163609523Y-107586190D01*
X163657142Y-107610000D01*
X163680952Y-107633809D01*
X163704761Y-107681428D01*
X163728571Y-107776666D01*
X163728571Y-107895714D01*
X163704761Y-107990952D01*
X163680952Y-108038571D01*
X163657142Y-108062380D01*
X163609523Y-108086190D01*
X163561904Y-108086190D01*
X163514285Y-108062380D01*
X163490476Y-108038571D01*
X163466666Y-107990952D01*
X163442857Y-107895714D01*
X163442857Y-107776666D01*
X163466666Y-107681428D01*
X163490476Y-107633809D01*
X163514285Y-107610000D01*
X163561904Y-107586190D01*
X163942857Y-108086190D02*
X163942857Y-107586190D01*
X163990476Y-107895714D02*
X164133333Y-108086190D01*
X164133333Y-107752857D02*
X163942857Y-107943333D01*
D10*
X170552380Y-93683809D02*
X170076190Y-94017142D01*
X170552380Y-94255238D02*
X169552380Y-94255238D01*
X169552380Y-93874285D01*
X169600000Y-93779047D01*
X169647619Y-93731428D01*
X169742857Y-93683809D01*
X169885714Y-93683809D01*
X169980952Y-93731428D01*
X170028571Y-93779047D01*
X170076190Y-93874285D01*
X170076190Y-94255238D01*
X170647619Y-93493333D02*
X170647619Y-92731428D01*
X169552380Y-92302857D02*
X169552380Y-92207619D01*
X169600000Y-92112380D01*
X169647619Y-92064761D01*
X169742857Y-92017142D01*
X169933333Y-91969523D01*
X170171428Y-91969523D01*
X170361904Y-92017142D01*
X170457142Y-92064761D01*
X170504761Y-92112380D01*
X170552380Y-92207619D01*
X170552380Y-92302857D01*
X170504761Y-92398095D01*
X170457142Y-92445714D01*
X170361904Y-92493333D01*
X170171428Y-92540952D01*
X169933333Y-92540952D01*
X169742857Y-92493333D01*
X169647619Y-92445714D01*
X169600000Y-92398095D01*
X169552380Y-92302857D01*
X169980952Y-91398095D02*
X169933333Y-91493333D01*
X169885714Y-91540952D01*
X169790476Y-91588571D01*
X169742857Y-91588571D01*
X169647619Y-91540952D01*
X169600000Y-91493333D01*
X169552380Y-91398095D01*
X169552380Y-91207619D01*
X169600000Y-91112380D01*
X169647619Y-91064761D01*
X169742857Y-91017142D01*
X169790476Y-91017142D01*
X169885714Y-91064761D01*
X169933333Y-91112380D01*
X169980952Y-91207619D01*
X169980952Y-91398095D01*
X170028571Y-91493333D01*
X170076190Y-91540952D01*
X170171428Y-91588571D01*
X170361904Y-91588571D01*
X170457142Y-91540952D01*
X170504761Y-91493333D01*
X170552380Y-91398095D01*
X170552380Y-91207619D01*
X170504761Y-91112380D01*
X170457142Y-91064761D01*
X170361904Y-91017142D01*
X170171428Y-91017142D01*
X170076190Y-91064761D01*
X170028571Y-91112380D01*
X169980952Y-91207619D01*
X169552380Y-90398095D02*
X169552380Y-90302857D01*
X169600000Y-90207619D01*
X169647619Y-90160000D01*
X169742857Y-90112380D01*
X169933333Y-90064761D01*
X170171428Y-90064761D01*
X170361904Y-90112380D01*
X170457142Y-90160000D01*
X170504761Y-90207619D01*
X170552380Y-90302857D01*
X170552380Y-90398095D01*
X170504761Y-90493333D01*
X170457142Y-90540952D01*
X170361904Y-90588571D01*
X170171428Y-90636190D01*
X169933333Y-90636190D01*
X169742857Y-90588571D01*
X169647619Y-90540952D01*
X169600000Y-90493333D01*
X169552380Y-90398095D01*
X169552380Y-89160000D02*
X169552380Y-89636190D01*
X170028571Y-89683809D01*
X169980952Y-89636190D01*
X169933333Y-89540952D01*
X169933333Y-89302857D01*
X169980952Y-89207619D01*
X170028571Y-89160000D01*
X170123809Y-89112380D01*
X170361904Y-89112380D01*
X170457142Y-89160000D01*
X170504761Y-89207619D01*
X170552380Y-89302857D01*
X170552380Y-89540952D01*
X170504761Y-89636190D01*
X170457142Y-89683809D01*
X170647619Y-88921904D02*
X170647619Y-88160000D01*
X169647619Y-87969523D02*
X169600000Y-87921904D01*
X169552380Y-87826666D01*
X169552380Y-87588571D01*
X169600000Y-87493333D01*
X169647619Y-87445714D01*
X169742857Y-87398095D01*
X169838095Y-87398095D01*
X169980952Y-87445714D01*
X170552380Y-88017142D01*
X170552380Y-87398095D01*
X169552380Y-86779047D02*
X169552380Y-86683809D01*
X169600000Y-86588571D01*
X169647619Y-86540952D01*
X169742857Y-86493333D01*
X169933333Y-86445714D01*
X170171428Y-86445714D01*
X170361904Y-86493333D01*
X170457142Y-86540952D01*
X170504761Y-86588571D01*
X170552380Y-86683809D01*
X170552380Y-86779047D01*
X170504761Y-86874285D01*
X170457142Y-86921904D01*
X170361904Y-86969523D01*
X170171428Y-87017142D01*
X169933333Y-87017142D01*
X169742857Y-86969523D01*
X169647619Y-86921904D01*
X169600000Y-86874285D01*
X169552380Y-86779047D01*
X170552380Y-85493333D02*
X170552380Y-86064761D01*
X170552380Y-85779047D02*
X169552380Y-85779047D01*
X169695238Y-85874285D01*
X169790476Y-85969523D01*
X169838095Y-86064761D01*
X169647619Y-85112380D02*
X169600000Y-85064761D01*
X169552380Y-84969523D01*
X169552380Y-84731428D01*
X169600000Y-84636190D01*
X169647619Y-84588571D01*
X169742857Y-84540952D01*
X169838095Y-84540952D01*
X169980952Y-84588571D01*
X170552380Y-85160000D01*
X170552380Y-84540952D01*
X170552380Y-84112380D02*
X169552380Y-84112380D01*
X170266666Y-83779047D01*
X169552380Y-83445714D01*
X170552380Y-83445714D01*
X170504761Y-82588571D02*
X170552380Y-82683809D01*
X170552380Y-82874285D01*
X170504761Y-82969523D01*
X170409523Y-83017142D01*
X170028571Y-83017142D01*
X169933333Y-82969523D01*
X169885714Y-82874285D01*
X169885714Y-82683809D01*
X169933333Y-82588571D01*
X170028571Y-82540952D01*
X170123809Y-82540952D01*
X170219047Y-83017142D01*
X169885714Y-82255238D02*
X169885714Y-81874285D01*
X169552380Y-82112380D02*
X170409523Y-82112380D01*
X170504761Y-82064761D01*
X170552380Y-81969523D01*
X170552380Y-81874285D01*
X170552380Y-81540952D02*
X169885714Y-81540952D01*
X170076190Y-81540952D02*
X169980952Y-81493333D01*
X169933333Y-81445714D01*
X169885714Y-81350476D01*
X169885714Y-81255238D01*
X170552380Y-80921904D02*
X169885714Y-80921904D01*
X169552380Y-80921904D02*
X169600000Y-80969523D01*
X169647619Y-80921904D01*
X169600000Y-80874285D01*
X169552380Y-80921904D01*
X169647619Y-80921904D01*
X170504761Y-80017142D02*
X170552380Y-80112380D01*
X170552380Y-80302857D01*
X170504761Y-80398095D01*
X170457142Y-80445714D01*
X170361904Y-80493333D01*
X170076190Y-80493333D01*
X169980952Y-80445714D01*
X169933333Y-80398095D01*
X169885714Y-80302857D01*
X169885714Y-80112380D01*
X169933333Y-80017142D01*
X170647619Y-79826666D02*
X170647619Y-79064761D01*
X170552380Y-78826666D02*
X169552380Y-78826666D01*
X169552380Y-78445714D01*
X169600000Y-78350476D01*
X169647619Y-78302857D01*
X169742857Y-78255238D01*
X169885714Y-78255238D01*
X169980952Y-78302857D01*
X170028571Y-78350476D01*
X170076190Y-78445714D01*
X170076190Y-78826666D01*
X170552380Y-77398095D02*
X170028571Y-77398095D01*
X169933333Y-77445714D01*
X169885714Y-77540952D01*
X169885714Y-77731428D01*
X169933333Y-77826666D01*
X170504761Y-77398095D02*
X170552380Y-77493333D01*
X170552380Y-77731428D01*
X170504761Y-77826666D01*
X170409523Y-77874285D01*
X170314285Y-77874285D01*
X170219047Y-77826666D01*
X170171428Y-77731428D01*
X170171428Y-77493333D01*
X170123809Y-77398095D01*
X170552380Y-76493333D02*
X169552380Y-76493333D01*
X170504761Y-76493333D02*
X170552380Y-76588571D01*
X170552380Y-76779047D01*
X170504761Y-76874285D01*
X170457142Y-76921904D01*
X170361904Y-76969523D01*
X170076190Y-76969523D01*
X169980952Y-76921904D01*
X169933333Y-76874285D01*
X169885714Y-76779047D01*
X169885714Y-76588571D01*
X169933333Y-76493333D01*
X170552380Y-75493333D02*
X170552380Y-76064761D01*
X170552380Y-75779047D02*
X169552380Y-75779047D01*
X169695238Y-75874285D01*
X169790476Y-75969523D01*
X169838095Y-76064761D01*
X170457142Y-75064761D02*
X170504761Y-75017142D01*
X170552380Y-75064761D01*
X170504761Y-75112380D01*
X170457142Y-75064761D01*
X170552380Y-75064761D01*
X169647619Y-74636190D02*
X169600000Y-74588571D01*
X169552380Y-74493333D01*
X169552380Y-74255238D01*
X169600000Y-74160000D01*
X169647619Y-74112380D01*
X169742857Y-74064761D01*
X169838095Y-74064761D01*
X169980952Y-74112380D01*
X170552380Y-74683809D01*
X170552380Y-74064761D01*
X169552380Y-73445714D02*
X169552380Y-73350476D01*
X169600000Y-73255238D01*
X169647619Y-73207619D01*
X169742857Y-73160000D01*
X169933333Y-73112380D01*
X170171428Y-73112380D01*
X170361904Y-73160000D01*
X170457142Y-73207619D01*
X170504761Y-73255238D01*
X170552380Y-73350476D01*
X170552380Y-73445714D01*
X170504761Y-73540952D01*
X170457142Y-73588571D01*
X170361904Y-73636190D01*
X170171428Y-73683809D01*
X169933333Y-73683809D01*
X169742857Y-73636190D01*
X169647619Y-73588571D01*
X169600000Y-73540952D01*
X169552380Y-73445714D01*
X170552380Y-72779047D02*
X169885714Y-72255238D01*
X169885714Y-72779047D02*
X170552380Y-72255238D01*
X170552380Y-71350476D02*
X170552380Y-71921904D01*
X170552380Y-71636190D02*
X169552380Y-71636190D01*
X169695238Y-71731428D01*
X169790476Y-71826666D01*
X169838095Y-71921904D01*
X170457142Y-70921904D02*
X170504761Y-70874285D01*
X170552380Y-70921904D01*
X170504761Y-70969523D01*
X170457142Y-70921904D01*
X170552380Y-70921904D01*
X169885714Y-70017142D02*
X170552380Y-70017142D01*
X169504761Y-70255238D02*
X170219047Y-70493333D01*
X170219047Y-69874285D01*
X169552380Y-69302857D02*
X169552380Y-69207619D01*
X169600000Y-69112380D01*
X169647619Y-69064761D01*
X169742857Y-69017142D01*
X169933333Y-68969523D01*
X170171428Y-68969523D01*
X170361904Y-69017142D01*
X170457142Y-69064761D01*
X170504761Y-69112380D01*
X170552380Y-69207619D01*
X170552380Y-69302857D01*
X170504761Y-69398095D01*
X170457142Y-69445714D01*
X170361904Y-69493333D01*
X170171428Y-69540952D01*
X169933333Y-69540952D01*
X169742857Y-69493333D01*
X169647619Y-69445714D01*
X169600000Y-69398095D01*
X169552380Y-69302857D01*
X170552380Y-68540952D02*
X169885714Y-68540952D01*
X169980952Y-68540952D02*
X169933333Y-68493333D01*
X169885714Y-68398095D01*
X169885714Y-68255238D01*
X169933333Y-68160000D01*
X170028571Y-68112380D01*
X170552380Y-68112380D01*
X170028571Y-68112380D02*
X169933333Y-68064761D01*
X169885714Y-67969523D01*
X169885714Y-67826666D01*
X169933333Y-67731428D01*
X170028571Y-67683809D01*
X170552380Y-67683809D01*
X170552380Y-67207619D02*
X169885714Y-67207619D01*
X169980952Y-67207619D02*
X169933333Y-67160000D01*
X169885714Y-67064761D01*
X169885714Y-66921904D01*
X169933333Y-66826666D01*
X170028571Y-66779047D01*
X170552380Y-66779047D01*
X170028571Y-66779047D02*
X169933333Y-66731428D01*
X169885714Y-66636190D01*
X169885714Y-66493333D01*
X169933333Y-66398095D01*
X170028571Y-66350476D01*
X170552380Y-66350476D01*
X170647619Y-66112380D02*
X170647619Y-65350476D01*
X170552380Y-65112380D02*
X169552380Y-65112380D01*
X170028571Y-65112380D02*
X170028571Y-64540952D01*
X170552380Y-64540952D02*
X169552380Y-64540952D01*
X170552380Y-63636190D02*
X170028571Y-63636190D01*
X169933333Y-63683809D01*
X169885714Y-63779047D01*
X169885714Y-63969523D01*
X169933333Y-64064761D01*
X170504761Y-63636190D02*
X170552380Y-63731428D01*
X170552380Y-63969523D01*
X170504761Y-64064761D01*
X170409523Y-64112380D01*
X170314285Y-64112380D01*
X170219047Y-64064761D01*
X170171428Y-63969523D01*
X170171428Y-63731428D01*
X170123809Y-63636190D01*
X169885714Y-63160000D02*
X170552380Y-63160000D01*
X169980952Y-63160000D02*
X169933333Y-63112380D01*
X169885714Y-63017142D01*
X169885714Y-62874285D01*
X169933333Y-62779047D01*
X170028571Y-62731428D01*
X170552380Y-62731428D01*
X170552380Y-61826666D02*
X169552380Y-61826666D01*
X170504761Y-61826666D02*
X170552380Y-61921904D01*
X170552380Y-62112380D01*
X170504761Y-62207619D01*
X170457142Y-62255238D01*
X170361904Y-62302857D01*
X170076190Y-62302857D01*
X169980952Y-62255238D01*
X169933333Y-62207619D01*
X169885714Y-62112380D01*
X169885714Y-61921904D01*
X169933333Y-61826666D01*
X170504761Y-61398095D02*
X170552380Y-61255238D01*
X170552380Y-61017142D01*
X170504761Y-60921904D01*
X170457142Y-60874285D01*
X170361904Y-60826666D01*
X170266666Y-60826666D01*
X170171428Y-60874285D01*
X170123809Y-60921904D01*
X170076190Y-61017142D01*
X170028571Y-61207619D01*
X169980952Y-61302857D01*
X169933333Y-61350476D01*
X169838095Y-61398095D01*
X169742857Y-61398095D01*
X169647619Y-61350476D01*
X169600000Y-61302857D01*
X169552380Y-61207619D01*
X169552380Y-60969523D01*
X169600000Y-60826666D01*
X170552380Y-60255238D02*
X170504761Y-60350476D01*
X170457142Y-60398095D01*
X170361904Y-60445714D01*
X170076190Y-60445714D01*
X169980952Y-60398095D01*
X169933333Y-60350476D01*
X169885714Y-60255238D01*
X169885714Y-60112380D01*
X169933333Y-60017142D01*
X169980952Y-59969523D01*
X170076190Y-59921904D01*
X170361904Y-59921904D01*
X170457142Y-59969523D01*
X170504761Y-60017142D01*
X170552380Y-60112380D01*
X170552380Y-60255238D01*
X170552380Y-59350476D02*
X170504761Y-59445714D01*
X170409523Y-59493333D01*
X169552380Y-59493333D01*
X170552380Y-58540952D02*
X169552380Y-58540952D01*
X170504761Y-58540952D02*
X170552380Y-58636190D01*
X170552380Y-58826666D01*
X170504761Y-58921904D01*
X170457142Y-58969523D01*
X170361904Y-59017142D01*
X170076190Y-59017142D01*
X169980952Y-58969523D01*
X169933333Y-58921904D01*
X169885714Y-58826666D01*
X169885714Y-58636190D01*
X169933333Y-58540952D01*
X170504761Y-57683809D02*
X170552380Y-57779047D01*
X170552380Y-57969523D01*
X170504761Y-58064761D01*
X170409523Y-58112380D01*
X170028571Y-58112380D01*
X169933333Y-58064761D01*
X169885714Y-57969523D01*
X169885714Y-57779047D01*
X169933333Y-57683809D01*
X170028571Y-57636190D01*
X170123809Y-57636190D01*
X170219047Y-58112380D01*
X170552380Y-57207619D02*
X169885714Y-57207619D01*
X170076190Y-57207619D02*
X169980952Y-57160000D01*
X169933333Y-57112380D01*
X169885714Y-57017142D01*
X169885714Y-56921904D01*
D11*
X168676190Y-75957619D02*
X168676190Y-76243333D01*
X168676190Y-76100476D02*
X168176190Y-76100476D01*
X168247619Y-76148095D01*
X168295238Y-76195714D01*
X168319047Y-76243333D01*
X168176190Y-75648095D02*
X168176190Y-75600476D01*
X168200000Y-75552857D01*
X168223809Y-75529047D01*
X168271428Y-75505238D01*
X168366666Y-75481428D01*
X168485714Y-75481428D01*
X168580952Y-75505238D01*
X168628571Y-75529047D01*
X168652380Y-75552857D01*
X168676190Y-75600476D01*
X168676190Y-75648095D01*
X168652380Y-75695714D01*
X168628571Y-75719523D01*
X168580952Y-75743333D01*
X168485714Y-75767142D01*
X168366666Y-75767142D01*
X168271428Y-75743333D01*
X168223809Y-75719523D01*
X168200000Y-75695714D01*
X168176190Y-75648095D01*
X168676190Y-75267142D02*
X168176190Y-75267142D01*
X168485714Y-75219523D02*
X168676190Y-75076666D01*
X168342857Y-75076666D02*
X168533333Y-75267142D01*
D10*
X145536190Y-107902380D02*
X145202857Y-107426190D01*
X144964761Y-107902380D02*
X144964761Y-106902380D01*
X145345714Y-106902380D01*
X145440952Y-106950000D01*
X145488571Y-106997619D01*
X145536190Y-107092857D01*
X145536190Y-107235714D01*
X145488571Y-107330952D01*
X145440952Y-107378571D01*
X145345714Y-107426190D01*
X144964761Y-107426190D01*
X145726666Y-107997619D02*
X146488571Y-107997619D01*
X146917142Y-106902380D02*
X147012380Y-106902380D01*
X147107619Y-106950000D01*
X147155238Y-106997619D01*
X147202857Y-107092857D01*
X147250476Y-107283333D01*
X147250476Y-107521428D01*
X147202857Y-107711904D01*
X147155238Y-107807142D01*
X147107619Y-107854761D01*
X147012380Y-107902380D01*
X146917142Y-107902380D01*
X146821904Y-107854761D01*
X146774285Y-107807142D01*
X146726666Y-107711904D01*
X146679047Y-107521428D01*
X146679047Y-107283333D01*
X146726666Y-107092857D01*
X146774285Y-106997619D01*
X146821904Y-106950000D01*
X146917142Y-106902380D01*
X147821904Y-107330952D02*
X147726666Y-107283333D01*
X147679047Y-107235714D01*
X147631428Y-107140476D01*
X147631428Y-107092857D01*
X147679047Y-106997619D01*
X147726666Y-106950000D01*
X147821904Y-106902380D01*
X148012380Y-106902380D01*
X148107619Y-106950000D01*
X148155238Y-106997619D01*
X148202857Y-107092857D01*
X148202857Y-107140476D01*
X148155238Y-107235714D01*
X148107619Y-107283333D01*
X148012380Y-107330952D01*
X147821904Y-107330952D01*
X147726666Y-107378571D01*
X147679047Y-107426190D01*
X147631428Y-107521428D01*
X147631428Y-107711904D01*
X147679047Y-107807142D01*
X147726666Y-107854761D01*
X147821904Y-107902380D01*
X148012380Y-107902380D01*
X148107619Y-107854761D01*
X148155238Y-107807142D01*
X148202857Y-107711904D01*
X148202857Y-107521428D01*
X148155238Y-107426190D01*
X148107619Y-107378571D01*
X148012380Y-107330952D01*
X148821904Y-106902380D02*
X148917142Y-106902380D01*
X149012380Y-106950000D01*
X149060000Y-106997619D01*
X149107619Y-107092857D01*
X149155238Y-107283333D01*
X149155238Y-107521428D01*
X149107619Y-107711904D01*
X149060000Y-107807142D01*
X149012380Y-107854761D01*
X148917142Y-107902380D01*
X148821904Y-107902380D01*
X148726666Y-107854761D01*
X148679047Y-107807142D01*
X148631428Y-107711904D01*
X148583809Y-107521428D01*
X148583809Y-107283333D01*
X148631428Y-107092857D01*
X148679047Y-106997619D01*
X148726666Y-106950000D01*
X148821904Y-106902380D01*
X150060000Y-106902380D02*
X149583809Y-106902380D01*
X149536190Y-107378571D01*
X149583809Y-107330952D01*
X149679047Y-107283333D01*
X149917142Y-107283333D01*
X150012380Y-107330952D01*
X150060000Y-107378571D01*
X150107619Y-107473809D01*
X150107619Y-107711904D01*
X150060000Y-107807142D01*
X150012380Y-107854761D01*
X149917142Y-107902380D01*
X149679047Y-107902380D01*
X149583809Y-107854761D01*
X149536190Y-107807142D01*
X150298095Y-107997619D02*
X151060000Y-107997619D01*
X151250476Y-106997619D02*
X151298095Y-106950000D01*
X151393333Y-106902380D01*
X151631428Y-106902380D01*
X151726666Y-106950000D01*
X151774285Y-106997619D01*
X151821904Y-107092857D01*
X151821904Y-107188095D01*
X151774285Y-107330952D01*
X151202857Y-107902380D01*
X151821904Y-107902380D01*
X152440952Y-106902380D02*
X152536190Y-106902380D01*
X152631428Y-106950000D01*
X152679047Y-106997619D01*
X152726666Y-107092857D01*
X152774285Y-107283333D01*
X152774285Y-107521428D01*
X152726666Y-107711904D01*
X152679047Y-107807142D01*
X152631428Y-107854761D01*
X152536190Y-107902380D01*
X152440952Y-107902380D01*
X152345714Y-107854761D01*
X152298095Y-107807142D01*
X152250476Y-107711904D01*
X152202857Y-107521428D01*
X152202857Y-107283333D01*
X152250476Y-107092857D01*
X152298095Y-106997619D01*
X152345714Y-106950000D01*
X152440952Y-106902380D01*
X153726666Y-107902380D02*
X153155238Y-107902380D01*
X153440952Y-107902380D02*
X153440952Y-106902380D01*
X153345714Y-107045238D01*
X153250476Y-107140476D01*
X153155238Y-107188095D01*
X154107619Y-106997619D02*
X154155238Y-106950000D01*
X154250476Y-106902380D01*
X154488571Y-106902380D01*
X154583809Y-106950000D01*
X154631428Y-106997619D01*
X154679047Y-107092857D01*
X154679047Y-107188095D01*
X154631428Y-107330952D01*
X154060000Y-107902380D01*
X154679047Y-107902380D01*
X155107619Y-107902380D02*
X155107619Y-106902380D01*
X155440952Y-107616666D01*
X155774285Y-106902380D01*
X155774285Y-107902380D01*
X156631428Y-107854761D02*
X156536190Y-107902380D01*
X156345714Y-107902380D01*
X156250476Y-107854761D01*
X156202857Y-107759523D01*
X156202857Y-107378571D01*
X156250476Y-107283333D01*
X156345714Y-107235714D01*
X156536190Y-107235714D01*
X156631428Y-107283333D01*
X156679047Y-107378571D01*
X156679047Y-107473809D01*
X156202857Y-107569047D01*
X156964761Y-107235714D02*
X157345714Y-107235714D01*
X157107619Y-106902380D02*
X157107619Y-107759523D01*
X157155238Y-107854761D01*
X157250476Y-107902380D01*
X157345714Y-107902380D01*
X157679047Y-107902380D02*
X157679047Y-107235714D01*
X157679047Y-107426190D02*
X157726666Y-107330952D01*
X157774285Y-107283333D01*
X157869523Y-107235714D01*
X157964761Y-107235714D01*
X158298095Y-107902380D02*
X158298095Y-107235714D01*
X158298095Y-106902380D02*
X158250476Y-106950000D01*
X158298095Y-106997619D01*
X158345714Y-106950000D01*
X158298095Y-106902380D01*
X158298095Y-106997619D01*
X159202857Y-107854761D02*
X159107619Y-107902380D01*
X158917142Y-107902380D01*
X158821904Y-107854761D01*
X158774285Y-107807142D01*
X158726666Y-107711904D01*
X158726666Y-107426190D01*
X158774285Y-107330952D01*
X158821904Y-107283333D01*
X158917142Y-107235714D01*
X159107619Y-107235714D01*
X159202857Y-107283333D01*
X159393333Y-107997619D02*
X160155238Y-107997619D01*
X160393333Y-107902380D02*
X160393333Y-106902380D01*
X160774285Y-106902380D01*
X160869523Y-106950000D01*
X160917142Y-106997619D01*
X160964761Y-107092857D01*
X160964761Y-107235714D01*
X160917142Y-107330952D01*
X160869523Y-107378571D01*
X160774285Y-107426190D01*
X160393333Y-107426190D01*
X161821904Y-107902380D02*
X161821904Y-107378571D01*
X161774285Y-107283333D01*
X161679047Y-107235714D01*
X161488571Y-107235714D01*
X161393333Y-107283333D01*
X161821904Y-107854761D02*
X161726666Y-107902380D01*
X161488571Y-107902380D01*
X161393333Y-107854761D01*
X161345714Y-107759523D01*
X161345714Y-107664285D01*
X161393333Y-107569047D01*
X161488571Y-107521428D01*
X161726666Y-107521428D01*
X161821904Y-107473809D01*
X162726666Y-107902380D02*
X162726666Y-106902380D01*
X162726666Y-107854761D02*
X162631428Y-107902380D01*
X162440952Y-107902380D01*
X162345714Y-107854761D01*
X162298095Y-107807142D01*
X162250476Y-107711904D01*
X162250476Y-107426190D01*
X162298095Y-107330952D01*
X162345714Y-107283333D01*
X162440952Y-107235714D01*
X162631428Y-107235714D01*
X162726666Y-107283333D01*
X163726666Y-107902380D02*
X163155238Y-107902380D01*
X163440952Y-107902380D02*
X163440952Y-106902380D01*
X163345714Y-107045238D01*
X163250476Y-107140476D01*
X163155238Y-107188095D01*
X164155238Y-107807142D02*
X164202857Y-107854761D01*
X164155238Y-107902380D01*
X164107619Y-107854761D01*
X164155238Y-107807142D01*
X164155238Y-107902380D01*
X164583809Y-106997619D02*
X164631428Y-106950000D01*
X164726666Y-106902380D01*
X164964761Y-106902380D01*
X165060000Y-106950000D01*
X165107619Y-106997619D01*
X165155238Y-107092857D01*
X165155238Y-107188095D01*
X165107619Y-107330952D01*
X164536190Y-107902380D01*
X165155238Y-107902380D01*
X165774285Y-106902380D02*
X165869523Y-106902380D01*
X165964761Y-106950000D01*
X166012380Y-106997619D01*
X166059999Y-107092857D01*
X166107619Y-107283333D01*
X166107619Y-107521428D01*
X166059999Y-107711904D01*
X166012380Y-107807142D01*
X165964761Y-107854761D01*
X165869523Y-107902380D01*
X165774285Y-107902380D01*
X165679047Y-107854761D01*
X165631428Y-107807142D01*
X165583809Y-107711904D01*
X165536190Y-107521428D01*
X165536190Y-107283333D01*
X165583809Y-107092857D01*
X165631428Y-106997619D01*
X165679047Y-106950000D01*
X165774285Y-106902380D01*
X166440952Y-107902380D02*
X166964761Y-107235714D01*
X166440952Y-107235714D02*
X166964761Y-107902380D01*
X167869523Y-107902380D02*
X167298095Y-107902380D01*
X167583809Y-107902380D02*
X167583809Y-106902380D01*
X167488571Y-107045238D01*
X167393333Y-107140476D01*
X167298095Y-107188095D01*
X168298095Y-107807142D02*
X168345714Y-107854761D01*
X168298095Y-107902380D01*
X168250476Y-107854761D01*
X168298095Y-107807142D01*
X168298095Y-107902380D01*
X169202857Y-107235714D02*
X169202857Y-107902380D01*
X168964761Y-106854761D02*
X168726666Y-107569047D01*
X169345714Y-107569047D01*
X169917142Y-106902380D02*
X170012380Y-106902380D01*
X170107619Y-106950000D01*
X170155238Y-106997619D01*
X170202857Y-107092857D01*
X170250476Y-107283333D01*
X170250476Y-107521428D01*
X170202857Y-107711904D01*
X170155238Y-107807142D01*
X170107619Y-107854761D01*
X170012380Y-107902380D01*
X169917142Y-107902380D01*
X169821904Y-107854761D01*
X169774285Y-107807142D01*
X169726666Y-107711904D01*
X169679047Y-107521428D01*
X169679047Y-107283333D01*
X169726666Y-107092857D01*
X169774285Y-106997619D01*
X169821904Y-106950000D01*
X169917142Y-106902380D01*
X170679047Y-107902380D02*
X170679047Y-107235714D01*
X170679047Y-107330952D02*
X170726666Y-107283333D01*
X170821904Y-107235714D01*
X170964761Y-107235714D01*
X171059999Y-107283333D01*
X171107619Y-107378571D01*
X171107619Y-107902380D01*
X171107619Y-107378571D02*
X171155238Y-107283333D01*
X171250476Y-107235714D01*
X171393333Y-107235714D01*
X171488571Y-107283333D01*
X171536190Y-107378571D01*
X171536190Y-107902380D01*
X172012380Y-107902380D02*
X172012380Y-107235714D01*
X172012380Y-107330952D02*
X172059999Y-107283333D01*
X172155238Y-107235714D01*
X172298095Y-107235714D01*
X172393333Y-107283333D01*
X172440952Y-107378571D01*
X172440952Y-107902380D01*
X172440952Y-107378571D02*
X172488571Y-107283333D01*
X172583809Y-107235714D01*
X172726666Y-107235714D01*
X172821904Y-107283333D01*
X172869523Y-107378571D01*
X172869523Y-107902380D01*
X173107619Y-107997619D02*
X173869523Y-107997619D01*
X174107619Y-107902380D02*
X174107619Y-106902380D01*
X174107619Y-107378571D02*
X174679047Y-107378571D01*
X174679047Y-107902380D02*
X174679047Y-106902380D01*
X175583809Y-107902380D02*
X175583809Y-107378571D01*
X175536190Y-107283333D01*
X175440952Y-107235714D01*
X175250476Y-107235714D01*
X175155238Y-107283333D01*
X175583809Y-107854761D02*
X175488571Y-107902380D01*
X175250476Y-107902380D01*
X175155238Y-107854761D01*
X175107619Y-107759523D01*
X175107619Y-107664285D01*
X175155238Y-107569047D01*
X175250476Y-107521428D01*
X175488571Y-107521428D01*
X175583809Y-107473809D01*
X176059999Y-107235714D02*
X176059999Y-107902380D01*
X176059999Y-107330952D02*
X176107619Y-107283333D01*
X176202857Y-107235714D01*
X176345714Y-107235714D01*
X176440952Y-107283333D01*
X176488571Y-107378571D01*
X176488571Y-107902380D01*
X177393333Y-107902380D02*
X177393333Y-106902380D01*
X177393333Y-107854761D02*
X177298095Y-107902380D01*
X177107619Y-107902380D01*
X177012380Y-107854761D01*
X176964761Y-107807142D01*
X176917142Y-107711904D01*
X176917142Y-107426190D01*
X176964761Y-107330952D01*
X177012380Y-107283333D01*
X177107619Y-107235714D01*
X177298095Y-107235714D01*
X177393333Y-107283333D01*
X177821904Y-107854761D02*
X177964761Y-107902380D01*
X178202857Y-107902380D01*
X178298095Y-107854761D01*
X178345714Y-107807142D01*
X178393333Y-107711904D01*
X178393333Y-107616666D01*
X178345714Y-107521428D01*
X178298095Y-107473809D01*
X178202857Y-107426190D01*
X178012380Y-107378571D01*
X177917142Y-107330952D01*
X177869523Y-107283333D01*
X177821904Y-107188095D01*
X177821904Y-107092857D01*
X177869523Y-106997619D01*
X177917142Y-106950000D01*
X178012380Y-106902380D01*
X178250476Y-106902380D01*
X178393333Y-106950000D01*
X178964761Y-107902380D02*
X178869523Y-107854761D01*
X178821904Y-107807142D01*
X178774285Y-107711904D01*
X178774285Y-107426190D01*
X178821904Y-107330952D01*
X178869523Y-107283333D01*
X178964761Y-107235714D01*
X179107619Y-107235714D01*
X179202857Y-107283333D01*
X179250476Y-107330952D01*
X179298095Y-107426190D01*
X179298095Y-107711904D01*
X179250476Y-107807142D01*
X179202857Y-107854761D01*
X179107619Y-107902380D01*
X178964761Y-107902380D01*
X179869523Y-107902380D02*
X179774285Y-107854761D01*
X179726666Y-107759523D01*
X179726666Y-106902380D01*
X180679047Y-107902380D02*
X180679047Y-106902380D01*
X180679047Y-107854761D02*
X180583809Y-107902380D01*
X180393333Y-107902380D01*
X180298095Y-107854761D01*
X180250476Y-107807142D01*
X180202857Y-107711904D01*
X180202857Y-107426190D01*
X180250476Y-107330952D01*
X180298095Y-107283333D01*
X180393333Y-107235714D01*
X180583809Y-107235714D01*
X180679047Y-107283333D01*
X181536190Y-107854761D02*
X181440952Y-107902380D01*
X181250476Y-107902380D01*
X181155238Y-107854761D01*
X181107619Y-107759523D01*
X181107619Y-107378571D01*
X181155238Y-107283333D01*
X181250476Y-107235714D01*
X181440952Y-107235714D01*
X181536190Y-107283333D01*
X181583809Y-107378571D01*
X181583809Y-107473809D01*
X181107619Y-107569047D01*
X182012380Y-107902380D02*
X182012380Y-107235714D01*
X182012380Y-107426190D02*
X182059999Y-107330952D01*
X182107619Y-107283333D01*
X182202857Y-107235714D01*
X182298095Y-107235714D01*
D11*
X163262380Y-106026190D02*
X162976666Y-106026190D01*
X163119523Y-106026190D02*
X163119523Y-105526190D01*
X163071904Y-105597619D01*
X163024285Y-105645238D01*
X162976666Y-105669047D01*
X163571904Y-105526190D02*
X163619523Y-105526190D01*
X163667142Y-105550000D01*
X163690952Y-105573809D01*
X163714761Y-105621428D01*
X163738571Y-105716666D01*
X163738571Y-105835714D01*
X163714761Y-105930952D01*
X163690952Y-105978571D01*
X163667142Y-106002380D01*
X163619523Y-106026190D01*
X163571904Y-106026190D01*
X163524285Y-106002380D01*
X163500476Y-105978571D01*
X163476666Y-105930952D01*
X163452857Y-105835714D01*
X163452857Y-105716666D01*
X163476666Y-105621428D01*
X163500476Y-105573809D01*
X163524285Y-105550000D01*
X163571904Y-105526190D01*
X163952857Y-106026190D02*
X163952857Y-105526190D01*
X164000476Y-105835714D02*
X164143333Y-106026190D01*
X164143333Y-105692857D02*
X163952857Y-105883333D01*
D10*
%TO.C,100k*%
X175912380Y-98923809D02*
X175436190Y-99257142D01*
X175912380Y-99495238D02*
X174912380Y-99495238D01*
X174912380Y-99114285D01*
X174960000Y-99019047D01*
X175007619Y-98971428D01*
X175102857Y-98923809D01*
X175245714Y-98923809D01*
X175340952Y-98971428D01*
X175388571Y-99019047D01*
X175436190Y-99114285D01*
X175436190Y-99495238D01*
X176007619Y-98733333D02*
X176007619Y-97971428D01*
X174912380Y-97542857D02*
X174912380Y-97447619D01*
X174960000Y-97352380D01*
X175007619Y-97304761D01*
X175102857Y-97257142D01*
X175293333Y-97209523D01*
X175531428Y-97209523D01*
X175721904Y-97257142D01*
X175817142Y-97304761D01*
X175864761Y-97352380D01*
X175912380Y-97447619D01*
X175912380Y-97542857D01*
X175864761Y-97638095D01*
X175817142Y-97685714D01*
X175721904Y-97733333D01*
X175531428Y-97780952D01*
X175293333Y-97780952D01*
X175102857Y-97733333D01*
X175007619Y-97685714D01*
X174960000Y-97638095D01*
X174912380Y-97542857D01*
X175340952Y-96638095D02*
X175293333Y-96733333D01*
X175245714Y-96780952D01*
X175150476Y-96828571D01*
X175102857Y-96828571D01*
X175007619Y-96780952D01*
X174960000Y-96733333D01*
X174912380Y-96638095D01*
X174912380Y-96447619D01*
X174960000Y-96352380D01*
X175007619Y-96304761D01*
X175102857Y-96257142D01*
X175150476Y-96257142D01*
X175245714Y-96304761D01*
X175293333Y-96352380D01*
X175340952Y-96447619D01*
X175340952Y-96638095D01*
X175388571Y-96733333D01*
X175436190Y-96780952D01*
X175531428Y-96828571D01*
X175721904Y-96828571D01*
X175817142Y-96780952D01*
X175864761Y-96733333D01*
X175912380Y-96638095D01*
X175912380Y-96447619D01*
X175864761Y-96352380D01*
X175817142Y-96304761D01*
X175721904Y-96257142D01*
X175531428Y-96257142D01*
X175436190Y-96304761D01*
X175388571Y-96352380D01*
X175340952Y-96447619D01*
X174912380Y-95638095D02*
X174912380Y-95542857D01*
X174960000Y-95447619D01*
X175007619Y-95400000D01*
X175102857Y-95352380D01*
X175293333Y-95304761D01*
X175531428Y-95304761D01*
X175721904Y-95352380D01*
X175817142Y-95400000D01*
X175864761Y-95447619D01*
X175912380Y-95542857D01*
X175912380Y-95638095D01*
X175864761Y-95733333D01*
X175817142Y-95780952D01*
X175721904Y-95828571D01*
X175531428Y-95876190D01*
X175293333Y-95876190D01*
X175102857Y-95828571D01*
X175007619Y-95780952D01*
X174960000Y-95733333D01*
X174912380Y-95638095D01*
X174912380Y-94400000D02*
X174912380Y-94876190D01*
X175388571Y-94923809D01*
X175340952Y-94876190D01*
X175293333Y-94780952D01*
X175293333Y-94542857D01*
X175340952Y-94447619D01*
X175388571Y-94400000D01*
X175483809Y-94352380D01*
X175721904Y-94352380D01*
X175817142Y-94400000D01*
X175864761Y-94447619D01*
X175912380Y-94542857D01*
X175912380Y-94780952D01*
X175864761Y-94876190D01*
X175817142Y-94923809D01*
X176007619Y-94161904D02*
X176007619Y-93400000D01*
X175007619Y-93209523D02*
X174960000Y-93161904D01*
X174912380Y-93066666D01*
X174912380Y-92828571D01*
X174960000Y-92733333D01*
X175007619Y-92685714D01*
X175102857Y-92638095D01*
X175198095Y-92638095D01*
X175340952Y-92685714D01*
X175912380Y-93257142D01*
X175912380Y-92638095D01*
X174912380Y-92019047D02*
X174912380Y-91923809D01*
X174960000Y-91828571D01*
X175007619Y-91780952D01*
X175102857Y-91733333D01*
X175293333Y-91685714D01*
X175531428Y-91685714D01*
X175721904Y-91733333D01*
X175817142Y-91780952D01*
X175864761Y-91828571D01*
X175912380Y-91923809D01*
X175912380Y-92019047D01*
X175864761Y-92114285D01*
X175817142Y-92161904D01*
X175721904Y-92209523D01*
X175531428Y-92257142D01*
X175293333Y-92257142D01*
X175102857Y-92209523D01*
X175007619Y-92161904D01*
X174960000Y-92114285D01*
X174912380Y-92019047D01*
X175912380Y-90733333D02*
X175912380Y-91304761D01*
X175912380Y-91019047D02*
X174912380Y-91019047D01*
X175055238Y-91114285D01*
X175150476Y-91209523D01*
X175198095Y-91304761D01*
X175007619Y-90352380D02*
X174960000Y-90304761D01*
X174912380Y-90209523D01*
X174912380Y-89971428D01*
X174960000Y-89876190D01*
X175007619Y-89828571D01*
X175102857Y-89780952D01*
X175198095Y-89780952D01*
X175340952Y-89828571D01*
X175912380Y-90400000D01*
X175912380Y-89780952D01*
X175912380Y-89352380D02*
X174912380Y-89352380D01*
X175626666Y-89019047D01*
X174912380Y-88685714D01*
X175912380Y-88685714D01*
X175864761Y-87828571D02*
X175912380Y-87923809D01*
X175912380Y-88114285D01*
X175864761Y-88209523D01*
X175769523Y-88257142D01*
X175388571Y-88257142D01*
X175293333Y-88209523D01*
X175245714Y-88114285D01*
X175245714Y-87923809D01*
X175293333Y-87828571D01*
X175388571Y-87780952D01*
X175483809Y-87780952D01*
X175579047Y-88257142D01*
X175245714Y-87495238D02*
X175245714Y-87114285D01*
X174912380Y-87352380D02*
X175769523Y-87352380D01*
X175864761Y-87304761D01*
X175912380Y-87209523D01*
X175912380Y-87114285D01*
X175912380Y-86780952D02*
X175245714Y-86780952D01*
X175436190Y-86780952D02*
X175340952Y-86733333D01*
X175293333Y-86685714D01*
X175245714Y-86590476D01*
X175245714Y-86495238D01*
X175912380Y-86161904D02*
X175245714Y-86161904D01*
X174912380Y-86161904D02*
X174960000Y-86209523D01*
X175007619Y-86161904D01*
X174960000Y-86114285D01*
X174912380Y-86161904D01*
X175007619Y-86161904D01*
X175864761Y-85257142D02*
X175912380Y-85352380D01*
X175912380Y-85542857D01*
X175864761Y-85638095D01*
X175817142Y-85685714D01*
X175721904Y-85733333D01*
X175436190Y-85733333D01*
X175340952Y-85685714D01*
X175293333Y-85638095D01*
X175245714Y-85542857D01*
X175245714Y-85352380D01*
X175293333Y-85257142D01*
X176007619Y-85066666D02*
X176007619Y-84304761D01*
X175912380Y-84066666D02*
X174912380Y-84066666D01*
X174912380Y-83685714D01*
X174960000Y-83590476D01*
X175007619Y-83542857D01*
X175102857Y-83495238D01*
X175245714Y-83495238D01*
X175340952Y-83542857D01*
X175388571Y-83590476D01*
X175436190Y-83685714D01*
X175436190Y-84066666D01*
X175912380Y-82638095D02*
X175388571Y-82638095D01*
X175293333Y-82685714D01*
X175245714Y-82780952D01*
X175245714Y-82971428D01*
X175293333Y-83066666D01*
X175864761Y-82638095D02*
X175912380Y-82733333D01*
X175912380Y-82971428D01*
X175864761Y-83066666D01*
X175769523Y-83114285D01*
X175674285Y-83114285D01*
X175579047Y-83066666D01*
X175531428Y-82971428D01*
X175531428Y-82733333D01*
X175483809Y-82638095D01*
X175912380Y-81733333D02*
X174912380Y-81733333D01*
X175864761Y-81733333D02*
X175912380Y-81828571D01*
X175912380Y-82019047D01*
X175864761Y-82114285D01*
X175817142Y-82161904D01*
X175721904Y-82209523D01*
X175436190Y-82209523D01*
X175340952Y-82161904D01*
X175293333Y-82114285D01*
X175245714Y-82019047D01*
X175245714Y-81828571D01*
X175293333Y-81733333D01*
X175912380Y-80733333D02*
X175912380Y-81304761D01*
X175912380Y-81019047D02*
X174912380Y-81019047D01*
X175055238Y-81114285D01*
X175150476Y-81209523D01*
X175198095Y-81304761D01*
X175817142Y-80304761D02*
X175864761Y-80257142D01*
X175912380Y-80304761D01*
X175864761Y-80352380D01*
X175817142Y-80304761D01*
X175912380Y-80304761D01*
X175007619Y-79876190D02*
X174960000Y-79828571D01*
X174912380Y-79733333D01*
X174912380Y-79495238D01*
X174960000Y-79400000D01*
X175007619Y-79352380D01*
X175102857Y-79304761D01*
X175198095Y-79304761D01*
X175340952Y-79352380D01*
X175912380Y-79923809D01*
X175912380Y-79304761D01*
X174912380Y-78685714D02*
X174912380Y-78590476D01*
X174960000Y-78495238D01*
X175007619Y-78447619D01*
X175102857Y-78400000D01*
X175293333Y-78352380D01*
X175531428Y-78352380D01*
X175721904Y-78400000D01*
X175817142Y-78447619D01*
X175864761Y-78495238D01*
X175912380Y-78590476D01*
X175912380Y-78685714D01*
X175864761Y-78780952D01*
X175817142Y-78828571D01*
X175721904Y-78876190D01*
X175531428Y-78923809D01*
X175293333Y-78923809D01*
X175102857Y-78876190D01*
X175007619Y-78828571D01*
X174960000Y-78780952D01*
X174912380Y-78685714D01*
X175912380Y-78019047D02*
X175245714Y-77495238D01*
X175245714Y-78019047D02*
X175912380Y-77495238D01*
X175912380Y-76590476D02*
X175912380Y-77161904D01*
X175912380Y-76876190D02*
X174912380Y-76876190D01*
X175055238Y-76971428D01*
X175150476Y-77066666D01*
X175198095Y-77161904D01*
X175817142Y-76161904D02*
X175864761Y-76114285D01*
X175912380Y-76161904D01*
X175864761Y-76209523D01*
X175817142Y-76161904D01*
X175912380Y-76161904D01*
X175245714Y-75257142D02*
X175912380Y-75257142D01*
X174864761Y-75495238D02*
X175579047Y-75733333D01*
X175579047Y-75114285D01*
X174912380Y-74542857D02*
X174912380Y-74447619D01*
X174960000Y-74352380D01*
X175007619Y-74304761D01*
X175102857Y-74257142D01*
X175293333Y-74209523D01*
X175531428Y-74209523D01*
X175721904Y-74257142D01*
X175817142Y-74304761D01*
X175864761Y-74352380D01*
X175912380Y-74447619D01*
X175912380Y-74542857D01*
X175864761Y-74638095D01*
X175817142Y-74685714D01*
X175721904Y-74733333D01*
X175531428Y-74780952D01*
X175293333Y-74780952D01*
X175102857Y-74733333D01*
X175007619Y-74685714D01*
X174960000Y-74638095D01*
X174912380Y-74542857D01*
X175912380Y-73780952D02*
X175245714Y-73780952D01*
X175340952Y-73780952D02*
X175293333Y-73733333D01*
X175245714Y-73638095D01*
X175245714Y-73495238D01*
X175293333Y-73400000D01*
X175388571Y-73352380D01*
X175912380Y-73352380D01*
X175388571Y-73352380D02*
X175293333Y-73304761D01*
X175245714Y-73209523D01*
X175245714Y-73066666D01*
X175293333Y-72971428D01*
X175388571Y-72923809D01*
X175912380Y-72923809D01*
X175912380Y-72447619D02*
X175245714Y-72447619D01*
X175340952Y-72447619D02*
X175293333Y-72400000D01*
X175245714Y-72304761D01*
X175245714Y-72161904D01*
X175293333Y-72066666D01*
X175388571Y-72019047D01*
X175912380Y-72019047D01*
X175388571Y-72019047D02*
X175293333Y-71971428D01*
X175245714Y-71876190D01*
X175245714Y-71733333D01*
X175293333Y-71638095D01*
X175388571Y-71590476D01*
X175912380Y-71590476D01*
X176007619Y-71352380D02*
X176007619Y-70590476D01*
X175912380Y-70352380D02*
X174912380Y-70352380D01*
X175388571Y-70352380D02*
X175388571Y-69780952D01*
X175912380Y-69780952D02*
X174912380Y-69780952D01*
X175912380Y-68876190D02*
X175388571Y-68876190D01*
X175293333Y-68923809D01*
X175245714Y-69019047D01*
X175245714Y-69209523D01*
X175293333Y-69304761D01*
X175864761Y-68876190D02*
X175912380Y-68971428D01*
X175912380Y-69209523D01*
X175864761Y-69304761D01*
X175769523Y-69352380D01*
X175674285Y-69352380D01*
X175579047Y-69304761D01*
X175531428Y-69209523D01*
X175531428Y-68971428D01*
X175483809Y-68876190D01*
X175245714Y-68400000D02*
X175912380Y-68400000D01*
X175340952Y-68400000D02*
X175293333Y-68352380D01*
X175245714Y-68257142D01*
X175245714Y-68114285D01*
X175293333Y-68019047D01*
X175388571Y-67971428D01*
X175912380Y-67971428D01*
X175912380Y-67066666D02*
X174912380Y-67066666D01*
X175864761Y-67066666D02*
X175912380Y-67161904D01*
X175912380Y-67352380D01*
X175864761Y-67447619D01*
X175817142Y-67495238D01*
X175721904Y-67542857D01*
X175436190Y-67542857D01*
X175340952Y-67495238D01*
X175293333Y-67447619D01*
X175245714Y-67352380D01*
X175245714Y-67161904D01*
X175293333Y-67066666D01*
X175864761Y-66638095D02*
X175912380Y-66495238D01*
X175912380Y-66257142D01*
X175864761Y-66161904D01*
X175817142Y-66114285D01*
X175721904Y-66066666D01*
X175626666Y-66066666D01*
X175531428Y-66114285D01*
X175483809Y-66161904D01*
X175436190Y-66257142D01*
X175388571Y-66447619D01*
X175340952Y-66542857D01*
X175293333Y-66590476D01*
X175198095Y-66638095D01*
X175102857Y-66638095D01*
X175007619Y-66590476D01*
X174960000Y-66542857D01*
X174912380Y-66447619D01*
X174912380Y-66209523D01*
X174960000Y-66066666D01*
X175912380Y-65495238D02*
X175864761Y-65590476D01*
X175817142Y-65638095D01*
X175721904Y-65685714D01*
X175436190Y-65685714D01*
X175340952Y-65638095D01*
X175293333Y-65590476D01*
X175245714Y-65495238D01*
X175245714Y-65352380D01*
X175293333Y-65257142D01*
X175340952Y-65209523D01*
X175436190Y-65161904D01*
X175721904Y-65161904D01*
X175817142Y-65209523D01*
X175864761Y-65257142D01*
X175912380Y-65352380D01*
X175912380Y-65495238D01*
X175912380Y-64590476D02*
X175864761Y-64685714D01*
X175769523Y-64733333D01*
X174912380Y-64733333D01*
X175912380Y-63780952D02*
X174912380Y-63780952D01*
X175864761Y-63780952D02*
X175912380Y-63876190D01*
X175912380Y-64066666D01*
X175864761Y-64161904D01*
X175817142Y-64209523D01*
X175721904Y-64257142D01*
X175436190Y-64257142D01*
X175340952Y-64209523D01*
X175293333Y-64161904D01*
X175245714Y-64066666D01*
X175245714Y-63876190D01*
X175293333Y-63780952D01*
X175864761Y-62923809D02*
X175912380Y-63019047D01*
X175912380Y-63209523D01*
X175864761Y-63304761D01*
X175769523Y-63352380D01*
X175388571Y-63352380D01*
X175293333Y-63304761D01*
X175245714Y-63209523D01*
X175245714Y-63019047D01*
X175293333Y-62923809D01*
X175388571Y-62876190D01*
X175483809Y-62876190D01*
X175579047Y-63352380D01*
X175912380Y-62447619D02*
X175245714Y-62447619D01*
X175436190Y-62447619D02*
X175340952Y-62400000D01*
X175293333Y-62352380D01*
X175245714Y-62257142D01*
X175245714Y-62161904D01*
D11*
X174036190Y-81435714D02*
X174036190Y-81721428D01*
X174036190Y-81578571D02*
X173536190Y-81578571D01*
X173607619Y-81626190D01*
X173655238Y-81673809D01*
X173679047Y-81721428D01*
X173536190Y-81126190D02*
X173536190Y-81078571D01*
X173560000Y-81030952D01*
X173583809Y-81007142D01*
X173631428Y-80983333D01*
X173726666Y-80959523D01*
X173845714Y-80959523D01*
X173940952Y-80983333D01*
X173988571Y-81007142D01*
X174012380Y-81030952D01*
X174036190Y-81078571D01*
X174036190Y-81126190D01*
X174012380Y-81173809D01*
X173988571Y-81197619D01*
X173940952Y-81221428D01*
X173845714Y-81245238D01*
X173726666Y-81245238D01*
X173631428Y-81221428D01*
X173583809Y-81197619D01*
X173560000Y-81173809D01*
X173536190Y-81126190D01*
X173536190Y-80650000D02*
X173536190Y-80602380D01*
X173560000Y-80554761D01*
X173583809Y-80530952D01*
X173631428Y-80507142D01*
X173726666Y-80483333D01*
X173845714Y-80483333D01*
X173940952Y-80507142D01*
X173988571Y-80530952D01*
X174012380Y-80554761D01*
X174036190Y-80602380D01*
X174036190Y-80650000D01*
X174012380Y-80697619D01*
X173988571Y-80721428D01*
X173940952Y-80745238D01*
X173845714Y-80769047D01*
X173726666Y-80769047D01*
X173631428Y-80745238D01*
X173583809Y-80721428D01*
X173560000Y-80697619D01*
X173536190Y-80650000D01*
X174036190Y-80269047D02*
X173536190Y-80269047D01*
X173845714Y-80221428D02*
X174036190Y-80078571D01*
X173702857Y-80078571D02*
X173893333Y-80269047D01*
D10*
X174552380Y-103423809D02*
X174076190Y-103757142D01*
X174552380Y-103995238D02*
X173552380Y-103995238D01*
X173552380Y-103614285D01*
X173600000Y-103519047D01*
X173647619Y-103471428D01*
X173742857Y-103423809D01*
X173885714Y-103423809D01*
X173980952Y-103471428D01*
X174028571Y-103519047D01*
X174076190Y-103614285D01*
X174076190Y-103995238D01*
X174647619Y-103233333D02*
X174647619Y-102471428D01*
X173552380Y-102042857D02*
X173552380Y-101947619D01*
X173600000Y-101852380D01*
X173647619Y-101804761D01*
X173742857Y-101757142D01*
X173933333Y-101709523D01*
X174171428Y-101709523D01*
X174361904Y-101757142D01*
X174457142Y-101804761D01*
X174504761Y-101852380D01*
X174552380Y-101947619D01*
X174552380Y-102042857D01*
X174504761Y-102138095D01*
X174457142Y-102185714D01*
X174361904Y-102233333D01*
X174171428Y-102280952D01*
X173933333Y-102280952D01*
X173742857Y-102233333D01*
X173647619Y-102185714D01*
X173600000Y-102138095D01*
X173552380Y-102042857D01*
X173980952Y-101138095D02*
X173933333Y-101233333D01*
X173885714Y-101280952D01*
X173790476Y-101328571D01*
X173742857Y-101328571D01*
X173647619Y-101280952D01*
X173600000Y-101233333D01*
X173552380Y-101138095D01*
X173552380Y-100947619D01*
X173600000Y-100852380D01*
X173647619Y-100804761D01*
X173742857Y-100757142D01*
X173790476Y-100757142D01*
X173885714Y-100804761D01*
X173933333Y-100852380D01*
X173980952Y-100947619D01*
X173980952Y-101138095D01*
X174028571Y-101233333D01*
X174076190Y-101280952D01*
X174171428Y-101328571D01*
X174361904Y-101328571D01*
X174457142Y-101280952D01*
X174504761Y-101233333D01*
X174552380Y-101138095D01*
X174552380Y-100947619D01*
X174504761Y-100852380D01*
X174457142Y-100804761D01*
X174361904Y-100757142D01*
X174171428Y-100757142D01*
X174076190Y-100804761D01*
X174028571Y-100852380D01*
X173980952Y-100947619D01*
X173552380Y-100138095D02*
X173552380Y-100042857D01*
X173600000Y-99947619D01*
X173647619Y-99900000D01*
X173742857Y-99852380D01*
X173933333Y-99804761D01*
X174171428Y-99804761D01*
X174361904Y-99852380D01*
X174457142Y-99900000D01*
X174504761Y-99947619D01*
X174552380Y-100042857D01*
X174552380Y-100138095D01*
X174504761Y-100233333D01*
X174457142Y-100280952D01*
X174361904Y-100328571D01*
X174171428Y-100376190D01*
X173933333Y-100376190D01*
X173742857Y-100328571D01*
X173647619Y-100280952D01*
X173600000Y-100233333D01*
X173552380Y-100138095D01*
X173552380Y-98900000D02*
X173552380Y-99376190D01*
X174028571Y-99423809D01*
X173980952Y-99376190D01*
X173933333Y-99280952D01*
X173933333Y-99042857D01*
X173980952Y-98947619D01*
X174028571Y-98900000D01*
X174123809Y-98852380D01*
X174361904Y-98852380D01*
X174457142Y-98900000D01*
X174504761Y-98947619D01*
X174552380Y-99042857D01*
X174552380Y-99280952D01*
X174504761Y-99376190D01*
X174457142Y-99423809D01*
X174647619Y-98661904D02*
X174647619Y-97900000D01*
X173647619Y-97709523D02*
X173600000Y-97661904D01*
X173552380Y-97566666D01*
X173552380Y-97328571D01*
X173600000Y-97233333D01*
X173647619Y-97185714D01*
X173742857Y-97138095D01*
X173838095Y-97138095D01*
X173980952Y-97185714D01*
X174552380Y-97757142D01*
X174552380Y-97138095D01*
X173552380Y-96519047D02*
X173552380Y-96423809D01*
X173600000Y-96328571D01*
X173647619Y-96280952D01*
X173742857Y-96233333D01*
X173933333Y-96185714D01*
X174171428Y-96185714D01*
X174361904Y-96233333D01*
X174457142Y-96280952D01*
X174504761Y-96328571D01*
X174552380Y-96423809D01*
X174552380Y-96519047D01*
X174504761Y-96614285D01*
X174457142Y-96661904D01*
X174361904Y-96709523D01*
X174171428Y-96757142D01*
X173933333Y-96757142D01*
X173742857Y-96709523D01*
X173647619Y-96661904D01*
X173600000Y-96614285D01*
X173552380Y-96519047D01*
X174552380Y-95233333D02*
X174552380Y-95804761D01*
X174552380Y-95519047D02*
X173552380Y-95519047D01*
X173695238Y-95614285D01*
X173790476Y-95709523D01*
X173838095Y-95804761D01*
X173647619Y-94852380D02*
X173600000Y-94804761D01*
X173552380Y-94709523D01*
X173552380Y-94471428D01*
X173600000Y-94376190D01*
X173647619Y-94328571D01*
X173742857Y-94280952D01*
X173838095Y-94280952D01*
X173980952Y-94328571D01*
X174552380Y-94900000D01*
X174552380Y-94280952D01*
X174552380Y-93852380D02*
X173552380Y-93852380D01*
X174266666Y-93519047D01*
X173552380Y-93185714D01*
X174552380Y-93185714D01*
X174504761Y-92328571D02*
X174552380Y-92423809D01*
X174552380Y-92614285D01*
X174504761Y-92709523D01*
X174409523Y-92757142D01*
X174028571Y-92757142D01*
X173933333Y-92709523D01*
X173885714Y-92614285D01*
X173885714Y-92423809D01*
X173933333Y-92328571D01*
X174028571Y-92280952D01*
X174123809Y-92280952D01*
X174219047Y-92757142D01*
X173885714Y-91995238D02*
X173885714Y-91614285D01*
X173552380Y-91852380D02*
X174409523Y-91852380D01*
X174504761Y-91804761D01*
X174552380Y-91709523D01*
X174552380Y-91614285D01*
X174552380Y-91280952D02*
X173885714Y-91280952D01*
X174076190Y-91280952D02*
X173980952Y-91233333D01*
X173933333Y-91185714D01*
X173885714Y-91090476D01*
X173885714Y-90995238D01*
X174552380Y-90661904D02*
X173885714Y-90661904D01*
X173552380Y-90661904D02*
X173600000Y-90709523D01*
X173647619Y-90661904D01*
X173600000Y-90614285D01*
X173552380Y-90661904D01*
X173647619Y-90661904D01*
X174504761Y-89757142D02*
X174552380Y-89852380D01*
X174552380Y-90042857D01*
X174504761Y-90138095D01*
X174457142Y-90185714D01*
X174361904Y-90233333D01*
X174076190Y-90233333D01*
X173980952Y-90185714D01*
X173933333Y-90138095D01*
X173885714Y-90042857D01*
X173885714Y-89852380D01*
X173933333Y-89757142D01*
X174647619Y-89566666D02*
X174647619Y-88804761D01*
X174552380Y-88566666D02*
X173552380Y-88566666D01*
X173552380Y-88185714D01*
X173600000Y-88090476D01*
X173647619Y-88042857D01*
X173742857Y-87995238D01*
X173885714Y-87995238D01*
X173980952Y-88042857D01*
X174028571Y-88090476D01*
X174076190Y-88185714D01*
X174076190Y-88566666D01*
X174552380Y-87138095D02*
X174028571Y-87138095D01*
X173933333Y-87185714D01*
X173885714Y-87280952D01*
X173885714Y-87471428D01*
X173933333Y-87566666D01*
X174504761Y-87138095D02*
X174552380Y-87233333D01*
X174552380Y-87471428D01*
X174504761Y-87566666D01*
X174409523Y-87614285D01*
X174314285Y-87614285D01*
X174219047Y-87566666D01*
X174171428Y-87471428D01*
X174171428Y-87233333D01*
X174123809Y-87138095D01*
X174552380Y-86233333D02*
X173552380Y-86233333D01*
X174504761Y-86233333D02*
X174552380Y-86328571D01*
X174552380Y-86519047D01*
X174504761Y-86614285D01*
X174457142Y-86661904D01*
X174361904Y-86709523D01*
X174076190Y-86709523D01*
X173980952Y-86661904D01*
X173933333Y-86614285D01*
X173885714Y-86519047D01*
X173885714Y-86328571D01*
X173933333Y-86233333D01*
X174552380Y-85233333D02*
X174552380Y-85804761D01*
X174552380Y-85519047D02*
X173552380Y-85519047D01*
X173695238Y-85614285D01*
X173790476Y-85709523D01*
X173838095Y-85804761D01*
X174457142Y-84804761D02*
X174504761Y-84757142D01*
X174552380Y-84804761D01*
X174504761Y-84852380D01*
X174457142Y-84804761D01*
X174552380Y-84804761D01*
X173647619Y-84376190D02*
X173600000Y-84328571D01*
X173552380Y-84233333D01*
X173552380Y-83995238D01*
X173600000Y-83900000D01*
X173647619Y-83852380D01*
X173742857Y-83804761D01*
X173838095Y-83804761D01*
X173980952Y-83852380D01*
X174552380Y-84423809D01*
X174552380Y-83804761D01*
X173552380Y-83185714D02*
X173552380Y-83090476D01*
X173600000Y-82995238D01*
X173647619Y-82947619D01*
X173742857Y-82900000D01*
X173933333Y-82852380D01*
X174171428Y-82852380D01*
X174361904Y-82900000D01*
X174457142Y-82947619D01*
X174504761Y-82995238D01*
X174552380Y-83090476D01*
X174552380Y-83185714D01*
X174504761Y-83280952D01*
X174457142Y-83328571D01*
X174361904Y-83376190D01*
X174171428Y-83423809D01*
X173933333Y-83423809D01*
X173742857Y-83376190D01*
X173647619Y-83328571D01*
X173600000Y-83280952D01*
X173552380Y-83185714D01*
X174552380Y-82519047D02*
X173885714Y-81995238D01*
X173885714Y-82519047D02*
X174552380Y-81995238D01*
X174552380Y-81090476D02*
X174552380Y-81661904D01*
X174552380Y-81376190D02*
X173552380Y-81376190D01*
X173695238Y-81471428D01*
X173790476Y-81566666D01*
X173838095Y-81661904D01*
X174457142Y-80661904D02*
X174504761Y-80614285D01*
X174552380Y-80661904D01*
X174504761Y-80709523D01*
X174457142Y-80661904D01*
X174552380Y-80661904D01*
X173885714Y-79757142D02*
X174552380Y-79757142D01*
X173504761Y-79995238D02*
X174219047Y-80233333D01*
X174219047Y-79614285D01*
X173552380Y-79042857D02*
X173552380Y-78947619D01*
X173600000Y-78852380D01*
X173647619Y-78804761D01*
X173742857Y-78757142D01*
X173933333Y-78709523D01*
X174171428Y-78709523D01*
X174361904Y-78757142D01*
X174457142Y-78804761D01*
X174504761Y-78852380D01*
X174552380Y-78947619D01*
X174552380Y-79042857D01*
X174504761Y-79138095D01*
X174457142Y-79185714D01*
X174361904Y-79233333D01*
X174171428Y-79280952D01*
X173933333Y-79280952D01*
X173742857Y-79233333D01*
X173647619Y-79185714D01*
X173600000Y-79138095D01*
X173552380Y-79042857D01*
X174552380Y-78280952D02*
X173885714Y-78280952D01*
X173980952Y-78280952D02*
X173933333Y-78233333D01*
X173885714Y-78138095D01*
X173885714Y-77995238D01*
X173933333Y-77900000D01*
X174028571Y-77852380D01*
X174552380Y-77852380D01*
X174028571Y-77852380D02*
X173933333Y-77804761D01*
X173885714Y-77709523D01*
X173885714Y-77566666D01*
X173933333Y-77471428D01*
X174028571Y-77423809D01*
X174552380Y-77423809D01*
X174552380Y-76947619D02*
X173885714Y-76947619D01*
X173980952Y-76947619D02*
X173933333Y-76900000D01*
X173885714Y-76804761D01*
X173885714Y-76661904D01*
X173933333Y-76566666D01*
X174028571Y-76519047D01*
X174552380Y-76519047D01*
X174028571Y-76519047D02*
X173933333Y-76471428D01*
X173885714Y-76376190D01*
X173885714Y-76233333D01*
X173933333Y-76138095D01*
X174028571Y-76090476D01*
X174552380Y-76090476D01*
X174647619Y-75852380D02*
X174647619Y-75090476D01*
X174552380Y-74852380D02*
X173552380Y-74852380D01*
X174028571Y-74852380D02*
X174028571Y-74280952D01*
X174552380Y-74280952D02*
X173552380Y-74280952D01*
X174552380Y-73376190D02*
X174028571Y-73376190D01*
X173933333Y-73423809D01*
X173885714Y-73519047D01*
X173885714Y-73709523D01*
X173933333Y-73804761D01*
X174504761Y-73376190D02*
X174552380Y-73471428D01*
X174552380Y-73709523D01*
X174504761Y-73804761D01*
X174409523Y-73852380D01*
X174314285Y-73852380D01*
X174219047Y-73804761D01*
X174171428Y-73709523D01*
X174171428Y-73471428D01*
X174123809Y-73376190D01*
X173885714Y-72900000D02*
X174552380Y-72900000D01*
X173980952Y-72900000D02*
X173933333Y-72852380D01*
X173885714Y-72757142D01*
X173885714Y-72614285D01*
X173933333Y-72519047D01*
X174028571Y-72471428D01*
X174552380Y-72471428D01*
X174552380Y-71566666D02*
X173552380Y-71566666D01*
X174504761Y-71566666D02*
X174552380Y-71661904D01*
X174552380Y-71852380D01*
X174504761Y-71947619D01*
X174457142Y-71995238D01*
X174361904Y-72042857D01*
X174076190Y-72042857D01*
X173980952Y-71995238D01*
X173933333Y-71947619D01*
X173885714Y-71852380D01*
X173885714Y-71661904D01*
X173933333Y-71566666D01*
X174504761Y-71138095D02*
X174552380Y-70995238D01*
X174552380Y-70757142D01*
X174504761Y-70661904D01*
X174457142Y-70614285D01*
X174361904Y-70566666D01*
X174266666Y-70566666D01*
X174171428Y-70614285D01*
X174123809Y-70661904D01*
X174076190Y-70757142D01*
X174028571Y-70947619D01*
X173980952Y-71042857D01*
X173933333Y-71090476D01*
X173838095Y-71138095D01*
X173742857Y-71138095D01*
X173647619Y-71090476D01*
X173600000Y-71042857D01*
X173552380Y-70947619D01*
X173552380Y-70709523D01*
X173600000Y-70566666D01*
X174552380Y-69995238D02*
X174504761Y-70090476D01*
X174457142Y-70138095D01*
X174361904Y-70185714D01*
X174076190Y-70185714D01*
X173980952Y-70138095D01*
X173933333Y-70090476D01*
X173885714Y-69995238D01*
X173885714Y-69852380D01*
X173933333Y-69757142D01*
X173980952Y-69709523D01*
X174076190Y-69661904D01*
X174361904Y-69661904D01*
X174457142Y-69709523D01*
X174504761Y-69757142D01*
X174552380Y-69852380D01*
X174552380Y-69995238D01*
X174552380Y-69090476D02*
X174504761Y-69185714D01*
X174409523Y-69233333D01*
X173552380Y-69233333D01*
X174552380Y-68280952D02*
X173552380Y-68280952D01*
X174504761Y-68280952D02*
X174552380Y-68376190D01*
X174552380Y-68566666D01*
X174504761Y-68661904D01*
X174457142Y-68709523D01*
X174361904Y-68757142D01*
X174076190Y-68757142D01*
X173980952Y-68709523D01*
X173933333Y-68661904D01*
X173885714Y-68566666D01*
X173885714Y-68376190D01*
X173933333Y-68280952D01*
X174504761Y-67423809D02*
X174552380Y-67519047D01*
X174552380Y-67709523D01*
X174504761Y-67804761D01*
X174409523Y-67852380D01*
X174028571Y-67852380D01*
X173933333Y-67804761D01*
X173885714Y-67709523D01*
X173885714Y-67519047D01*
X173933333Y-67423809D01*
X174028571Y-67376190D01*
X174123809Y-67376190D01*
X174219047Y-67852380D01*
X174552380Y-66947619D02*
X173885714Y-66947619D01*
X174076190Y-66947619D02*
X173980952Y-66900000D01*
X173933333Y-66852380D01*
X173885714Y-66757142D01*
X173885714Y-66661904D01*
D11*
X172676190Y-85935714D02*
X172676190Y-86221428D01*
X172676190Y-86078571D02*
X172176190Y-86078571D01*
X172247619Y-86126190D01*
X172295238Y-86173809D01*
X172319047Y-86221428D01*
X172176190Y-85626190D02*
X172176190Y-85578571D01*
X172200000Y-85530952D01*
X172223809Y-85507142D01*
X172271428Y-85483333D01*
X172366666Y-85459523D01*
X172485714Y-85459523D01*
X172580952Y-85483333D01*
X172628571Y-85507142D01*
X172652380Y-85530952D01*
X172676190Y-85578571D01*
X172676190Y-85626190D01*
X172652380Y-85673809D01*
X172628571Y-85697619D01*
X172580952Y-85721428D01*
X172485714Y-85745238D01*
X172366666Y-85745238D01*
X172271428Y-85721428D01*
X172223809Y-85697619D01*
X172200000Y-85673809D01*
X172176190Y-85626190D01*
X172176190Y-85150000D02*
X172176190Y-85102380D01*
X172200000Y-85054761D01*
X172223809Y-85030952D01*
X172271428Y-85007142D01*
X172366666Y-84983333D01*
X172485714Y-84983333D01*
X172580952Y-85007142D01*
X172628571Y-85030952D01*
X172652380Y-85054761D01*
X172676190Y-85102380D01*
X172676190Y-85150000D01*
X172652380Y-85197619D01*
X172628571Y-85221428D01*
X172580952Y-85245238D01*
X172485714Y-85269047D01*
X172366666Y-85269047D01*
X172271428Y-85245238D01*
X172223809Y-85221428D01*
X172200000Y-85197619D01*
X172176190Y-85150000D01*
X172676190Y-84769047D02*
X172176190Y-84769047D01*
X172485714Y-84721428D02*
X172676190Y-84578571D01*
X172342857Y-84578571D02*
X172533333Y-84769047D01*
D10*
X172762380Y-120583809D02*
X172286190Y-120917142D01*
X172762380Y-121155238D02*
X171762380Y-121155238D01*
X171762380Y-120774285D01*
X171810000Y-120679047D01*
X171857619Y-120631428D01*
X171952857Y-120583809D01*
X172095714Y-120583809D01*
X172190952Y-120631428D01*
X172238571Y-120679047D01*
X172286190Y-120774285D01*
X172286190Y-121155238D01*
X172857619Y-120393333D02*
X172857619Y-119631428D01*
X171762380Y-119202857D02*
X171762380Y-119107619D01*
X171810000Y-119012380D01*
X171857619Y-118964761D01*
X171952857Y-118917142D01*
X172143333Y-118869523D01*
X172381428Y-118869523D01*
X172571904Y-118917142D01*
X172667142Y-118964761D01*
X172714761Y-119012380D01*
X172762380Y-119107619D01*
X172762380Y-119202857D01*
X172714761Y-119298095D01*
X172667142Y-119345714D01*
X172571904Y-119393333D01*
X172381428Y-119440952D01*
X172143333Y-119440952D01*
X171952857Y-119393333D01*
X171857619Y-119345714D01*
X171810000Y-119298095D01*
X171762380Y-119202857D01*
X172190952Y-118298095D02*
X172143333Y-118393333D01*
X172095714Y-118440952D01*
X172000476Y-118488571D01*
X171952857Y-118488571D01*
X171857619Y-118440952D01*
X171810000Y-118393333D01*
X171762380Y-118298095D01*
X171762380Y-118107619D01*
X171810000Y-118012380D01*
X171857619Y-117964761D01*
X171952857Y-117917142D01*
X172000476Y-117917142D01*
X172095714Y-117964761D01*
X172143333Y-118012380D01*
X172190952Y-118107619D01*
X172190952Y-118298095D01*
X172238571Y-118393333D01*
X172286190Y-118440952D01*
X172381428Y-118488571D01*
X172571904Y-118488571D01*
X172667142Y-118440952D01*
X172714761Y-118393333D01*
X172762380Y-118298095D01*
X172762380Y-118107619D01*
X172714761Y-118012380D01*
X172667142Y-117964761D01*
X172571904Y-117917142D01*
X172381428Y-117917142D01*
X172286190Y-117964761D01*
X172238571Y-118012380D01*
X172190952Y-118107619D01*
X171762380Y-117298095D02*
X171762380Y-117202857D01*
X171810000Y-117107619D01*
X171857619Y-117060000D01*
X171952857Y-117012380D01*
X172143333Y-116964761D01*
X172381428Y-116964761D01*
X172571904Y-117012380D01*
X172667142Y-117060000D01*
X172714761Y-117107619D01*
X172762380Y-117202857D01*
X172762380Y-117298095D01*
X172714761Y-117393333D01*
X172667142Y-117440952D01*
X172571904Y-117488571D01*
X172381428Y-117536190D01*
X172143333Y-117536190D01*
X171952857Y-117488571D01*
X171857619Y-117440952D01*
X171810000Y-117393333D01*
X171762380Y-117298095D01*
X171762380Y-116060000D02*
X171762380Y-116536190D01*
X172238571Y-116583809D01*
X172190952Y-116536190D01*
X172143333Y-116440952D01*
X172143333Y-116202857D01*
X172190952Y-116107619D01*
X172238571Y-116060000D01*
X172333809Y-116012380D01*
X172571904Y-116012380D01*
X172667142Y-116060000D01*
X172714761Y-116107619D01*
X172762380Y-116202857D01*
X172762380Y-116440952D01*
X172714761Y-116536190D01*
X172667142Y-116583809D01*
X172857619Y-115821904D02*
X172857619Y-115060000D01*
X171857619Y-114869523D02*
X171810000Y-114821904D01*
X171762380Y-114726666D01*
X171762380Y-114488571D01*
X171810000Y-114393333D01*
X171857619Y-114345714D01*
X171952857Y-114298095D01*
X172048095Y-114298095D01*
X172190952Y-114345714D01*
X172762380Y-114917142D01*
X172762380Y-114298095D01*
X171762380Y-113679047D02*
X171762380Y-113583809D01*
X171810000Y-113488571D01*
X171857619Y-113440952D01*
X171952857Y-113393333D01*
X172143333Y-113345714D01*
X172381428Y-113345714D01*
X172571904Y-113393333D01*
X172667142Y-113440952D01*
X172714761Y-113488571D01*
X172762380Y-113583809D01*
X172762380Y-113679047D01*
X172714761Y-113774285D01*
X172667142Y-113821904D01*
X172571904Y-113869523D01*
X172381428Y-113917142D01*
X172143333Y-113917142D01*
X171952857Y-113869523D01*
X171857619Y-113821904D01*
X171810000Y-113774285D01*
X171762380Y-113679047D01*
X172762380Y-112393333D02*
X172762380Y-112964761D01*
X172762380Y-112679047D02*
X171762380Y-112679047D01*
X171905238Y-112774285D01*
X172000476Y-112869523D01*
X172048095Y-112964761D01*
X171857619Y-112012380D02*
X171810000Y-111964761D01*
X171762380Y-111869523D01*
X171762380Y-111631428D01*
X171810000Y-111536190D01*
X171857619Y-111488571D01*
X171952857Y-111440952D01*
X172048095Y-111440952D01*
X172190952Y-111488571D01*
X172762380Y-112060000D01*
X172762380Y-111440952D01*
X172762380Y-111012380D02*
X171762380Y-111012380D01*
X172476666Y-110679047D01*
X171762380Y-110345714D01*
X172762380Y-110345714D01*
X172714761Y-109488571D02*
X172762380Y-109583809D01*
X172762380Y-109774285D01*
X172714761Y-109869523D01*
X172619523Y-109917142D01*
X172238571Y-109917142D01*
X172143333Y-109869523D01*
X172095714Y-109774285D01*
X172095714Y-109583809D01*
X172143333Y-109488571D01*
X172238571Y-109440952D01*
X172333809Y-109440952D01*
X172429047Y-109917142D01*
X172095714Y-109155238D02*
X172095714Y-108774285D01*
X171762380Y-109012380D02*
X172619523Y-109012380D01*
X172714761Y-108964761D01*
X172762380Y-108869523D01*
X172762380Y-108774285D01*
X172762380Y-108440952D02*
X172095714Y-108440952D01*
X172286190Y-108440952D02*
X172190952Y-108393333D01*
X172143333Y-108345714D01*
X172095714Y-108250476D01*
X172095714Y-108155238D01*
X172762380Y-107821904D02*
X172095714Y-107821904D01*
X171762380Y-107821904D02*
X171810000Y-107869523D01*
X171857619Y-107821904D01*
X171810000Y-107774285D01*
X171762380Y-107821904D01*
X171857619Y-107821904D01*
X172714761Y-106917142D02*
X172762380Y-107012380D01*
X172762380Y-107202857D01*
X172714761Y-107298095D01*
X172667142Y-107345714D01*
X172571904Y-107393333D01*
X172286190Y-107393333D01*
X172190952Y-107345714D01*
X172143333Y-107298095D01*
X172095714Y-107202857D01*
X172095714Y-107012380D01*
X172143333Y-106917142D01*
X172857619Y-106726666D02*
X172857619Y-105964761D01*
X172762380Y-105726666D02*
X171762380Y-105726666D01*
X171762380Y-105345714D01*
X171810000Y-105250476D01*
X171857619Y-105202857D01*
X171952857Y-105155238D01*
X172095714Y-105155238D01*
X172190952Y-105202857D01*
X172238571Y-105250476D01*
X172286190Y-105345714D01*
X172286190Y-105726666D01*
X172762380Y-104298095D02*
X172238571Y-104298095D01*
X172143333Y-104345714D01*
X172095714Y-104440952D01*
X172095714Y-104631428D01*
X172143333Y-104726666D01*
X172714761Y-104298095D02*
X172762380Y-104393333D01*
X172762380Y-104631428D01*
X172714761Y-104726666D01*
X172619523Y-104774285D01*
X172524285Y-104774285D01*
X172429047Y-104726666D01*
X172381428Y-104631428D01*
X172381428Y-104393333D01*
X172333809Y-104298095D01*
X172762380Y-103393333D02*
X171762380Y-103393333D01*
X172714761Y-103393333D02*
X172762380Y-103488571D01*
X172762380Y-103679047D01*
X172714761Y-103774285D01*
X172667142Y-103821904D01*
X172571904Y-103869523D01*
X172286190Y-103869523D01*
X172190952Y-103821904D01*
X172143333Y-103774285D01*
X172095714Y-103679047D01*
X172095714Y-103488571D01*
X172143333Y-103393333D01*
X172762380Y-102393333D02*
X172762380Y-102964761D01*
X172762380Y-102679047D02*
X171762380Y-102679047D01*
X171905238Y-102774285D01*
X172000476Y-102869523D01*
X172048095Y-102964761D01*
X172667142Y-101964761D02*
X172714761Y-101917142D01*
X172762380Y-101964761D01*
X172714761Y-102012380D01*
X172667142Y-101964761D01*
X172762380Y-101964761D01*
X171857619Y-101536190D02*
X171810000Y-101488571D01*
X171762380Y-101393333D01*
X171762380Y-101155238D01*
X171810000Y-101060000D01*
X171857619Y-101012380D01*
X171952857Y-100964761D01*
X172048095Y-100964761D01*
X172190952Y-101012380D01*
X172762380Y-101583809D01*
X172762380Y-100964761D01*
X171762380Y-100345714D02*
X171762380Y-100250476D01*
X171810000Y-100155238D01*
X171857619Y-100107619D01*
X171952857Y-100060000D01*
X172143333Y-100012380D01*
X172381428Y-100012380D01*
X172571904Y-100060000D01*
X172667142Y-100107619D01*
X172714761Y-100155238D01*
X172762380Y-100250476D01*
X172762380Y-100345714D01*
X172714761Y-100440952D01*
X172667142Y-100488571D01*
X172571904Y-100536190D01*
X172381428Y-100583809D01*
X172143333Y-100583809D01*
X171952857Y-100536190D01*
X171857619Y-100488571D01*
X171810000Y-100440952D01*
X171762380Y-100345714D01*
X172762380Y-99679047D02*
X172095714Y-99155238D01*
X172095714Y-99679047D02*
X172762380Y-99155238D01*
X172762380Y-98250476D02*
X172762380Y-98821904D01*
X172762380Y-98536190D02*
X171762380Y-98536190D01*
X171905238Y-98631428D01*
X172000476Y-98726666D01*
X172048095Y-98821904D01*
X172667142Y-97821904D02*
X172714761Y-97774285D01*
X172762380Y-97821904D01*
X172714761Y-97869523D01*
X172667142Y-97821904D01*
X172762380Y-97821904D01*
X172095714Y-96917142D02*
X172762380Y-96917142D01*
X171714761Y-97155238D02*
X172429047Y-97393333D01*
X172429047Y-96774285D01*
X171762380Y-96202857D02*
X171762380Y-96107619D01*
X171810000Y-96012380D01*
X171857619Y-95964761D01*
X171952857Y-95917142D01*
X172143333Y-95869523D01*
X172381428Y-95869523D01*
X172571904Y-95917142D01*
X172667142Y-95964761D01*
X172714761Y-96012380D01*
X172762380Y-96107619D01*
X172762380Y-96202857D01*
X172714761Y-96298095D01*
X172667142Y-96345714D01*
X172571904Y-96393333D01*
X172381428Y-96440952D01*
X172143333Y-96440952D01*
X171952857Y-96393333D01*
X171857619Y-96345714D01*
X171810000Y-96298095D01*
X171762380Y-96202857D01*
X172762380Y-95440952D02*
X172095714Y-95440952D01*
X172190952Y-95440952D02*
X172143333Y-95393333D01*
X172095714Y-95298095D01*
X172095714Y-95155238D01*
X172143333Y-95060000D01*
X172238571Y-95012380D01*
X172762380Y-95012380D01*
X172238571Y-95012380D02*
X172143333Y-94964761D01*
X172095714Y-94869523D01*
X172095714Y-94726666D01*
X172143333Y-94631428D01*
X172238571Y-94583809D01*
X172762380Y-94583809D01*
X172762380Y-94107619D02*
X172095714Y-94107619D01*
X172190952Y-94107619D02*
X172143333Y-94060000D01*
X172095714Y-93964761D01*
X172095714Y-93821904D01*
X172143333Y-93726666D01*
X172238571Y-93679047D01*
X172762380Y-93679047D01*
X172238571Y-93679047D02*
X172143333Y-93631428D01*
X172095714Y-93536190D01*
X172095714Y-93393333D01*
X172143333Y-93298095D01*
X172238571Y-93250476D01*
X172762380Y-93250476D01*
X172857619Y-93012380D02*
X172857619Y-92250476D01*
X172762380Y-92012380D02*
X171762380Y-92012380D01*
X172238571Y-92012380D02*
X172238571Y-91440952D01*
X172762380Y-91440952D02*
X171762380Y-91440952D01*
X172762380Y-90536190D02*
X172238571Y-90536190D01*
X172143333Y-90583809D01*
X172095714Y-90679047D01*
X172095714Y-90869523D01*
X172143333Y-90964761D01*
X172714761Y-90536190D02*
X172762380Y-90631428D01*
X172762380Y-90869523D01*
X172714761Y-90964761D01*
X172619523Y-91012380D01*
X172524285Y-91012380D01*
X172429047Y-90964761D01*
X172381428Y-90869523D01*
X172381428Y-90631428D01*
X172333809Y-90536190D01*
X172095714Y-90060000D02*
X172762380Y-90060000D01*
X172190952Y-90060000D02*
X172143333Y-90012380D01*
X172095714Y-89917142D01*
X172095714Y-89774285D01*
X172143333Y-89679047D01*
X172238571Y-89631428D01*
X172762380Y-89631428D01*
X172762380Y-88726666D02*
X171762380Y-88726666D01*
X172714761Y-88726666D02*
X172762380Y-88821904D01*
X172762380Y-89012380D01*
X172714761Y-89107619D01*
X172667142Y-89155238D01*
X172571904Y-89202857D01*
X172286190Y-89202857D01*
X172190952Y-89155238D01*
X172143333Y-89107619D01*
X172095714Y-89012380D01*
X172095714Y-88821904D01*
X172143333Y-88726666D01*
X172714761Y-88298095D02*
X172762380Y-88155238D01*
X172762380Y-87917142D01*
X172714761Y-87821904D01*
X172667142Y-87774285D01*
X172571904Y-87726666D01*
X172476666Y-87726666D01*
X172381428Y-87774285D01*
X172333809Y-87821904D01*
X172286190Y-87917142D01*
X172238571Y-88107619D01*
X172190952Y-88202857D01*
X172143333Y-88250476D01*
X172048095Y-88298095D01*
X171952857Y-88298095D01*
X171857619Y-88250476D01*
X171810000Y-88202857D01*
X171762380Y-88107619D01*
X171762380Y-87869523D01*
X171810000Y-87726666D01*
X172762380Y-87155238D02*
X172714761Y-87250476D01*
X172667142Y-87298095D01*
X172571904Y-87345714D01*
X172286190Y-87345714D01*
X172190952Y-87298095D01*
X172143333Y-87250476D01*
X172095714Y-87155238D01*
X172095714Y-87012380D01*
X172143333Y-86917142D01*
X172190952Y-86869523D01*
X172286190Y-86821904D01*
X172571904Y-86821904D01*
X172667142Y-86869523D01*
X172714761Y-86917142D01*
X172762380Y-87012380D01*
X172762380Y-87155238D01*
X172762380Y-86250476D02*
X172714761Y-86345714D01*
X172619523Y-86393333D01*
X171762380Y-86393333D01*
X172762380Y-85440952D02*
X171762380Y-85440952D01*
X172714761Y-85440952D02*
X172762380Y-85536190D01*
X172762380Y-85726666D01*
X172714761Y-85821904D01*
X172667142Y-85869523D01*
X172571904Y-85917142D01*
X172286190Y-85917142D01*
X172190952Y-85869523D01*
X172143333Y-85821904D01*
X172095714Y-85726666D01*
X172095714Y-85536190D01*
X172143333Y-85440952D01*
X172714761Y-84583809D02*
X172762380Y-84679047D01*
X172762380Y-84869523D01*
X172714761Y-84964761D01*
X172619523Y-85012380D01*
X172238571Y-85012380D01*
X172143333Y-84964761D01*
X172095714Y-84869523D01*
X172095714Y-84679047D01*
X172143333Y-84583809D01*
X172238571Y-84536190D01*
X172333809Y-84536190D01*
X172429047Y-85012380D01*
X172762380Y-84107619D02*
X172095714Y-84107619D01*
X172286190Y-84107619D02*
X172190952Y-84060000D01*
X172143333Y-84012380D01*
X172095714Y-83917142D01*
X172095714Y-83821904D01*
D11*
X174186190Y-103095714D02*
X174186190Y-103381428D01*
X174186190Y-103238571D02*
X173686190Y-103238571D01*
X173757619Y-103286190D01*
X173805238Y-103333809D01*
X173829047Y-103381428D01*
X173686190Y-102786190D02*
X173686190Y-102738571D01*
X173710000Y-102690952D01*
X173733809Y-102667142D01*
X173781428Y-102643333D01*
X173876666Y-102619523D01*
X173995714Y-102619523D01*
X174090952Y-102643333D01*
X174138571Y-102667142D01*
X174162380Y-102690952D01*
X174186190Y-102738571D01*
X174186190Y-102786190D01*
X174162380Y-102833809D01*
X174138571Y-102857619D01*
X174090952Y-102881428D01*
X173995714Y-102905238D01*
X173876666Y-102905238D01*
X173781428Y-102881428D01*
X173733809Y-102857619D01*
X173710000Y-102833809D01*
X173686190Y-102786190D01*
X173686190Y-102310000D02*
X173686190Y-102262380D01*
X173710000Y-102214761D01*
X173733809Y-102190952D01*
X173781428Y-102167142D01*
X173876666Y-102143333D01*
X173995714Y-102143333D01*
X174090952Y-102167142D01*
X174138571Y-102190952D01*
X174162380Y-102214761D01*
X174186190Y-102262380D01*
X174186190Y-102310000D01*
X174162380Y-102357619D01*
X174138571Y-102381428D01*
X174090952Y-102405238D01*
X173995714Y-102429047D01*
X173876666Y-102429047D01*
X173781428Y-102405238D01*
X173733809Y-102381428D01*
X173710000Y-102357619D01*
X173686190Y-102310000D01*
X174186190Y-101929047D02*
X173686190Y-101929047D01*
X173995714Y-101881428D02*
X174186190Y-101738571D01*
X173852857Y-101738571D02*
X174043333Y-101929047D01*
D10*
X170452380Y-120563809D02*
X169976190Y-120897142D01*
X170452380Y-121135238D02*
X169452380Y-121135238D01*
X169452380Y-120754285D01*
X169500000Y-120659047D01*
X169547619Y-120611428D01*
X169642857Y-120563809D01*
X169785714Y-120563809D01*
X169880952Y-120611428D01*
X169928571Y-120659047D01*
X169976190Y-120754285D01*
X169976190Y-121135238D01*
X170547619Y-120373333D02*
X170547619Y-119611428D01*
X169452380Y-119182857D02*
X169452380Y-119087619D01*
X169500000Y-118992380D01*
X169547619Y-118944761D01*
X169642857Y-118897142D01*
X169833333Y-118849523D01*
X170071428Y-118849523D01*
X170261904Y-118897142D01*
X170357142Y-118944761D01*
X170404761Y-118992380D01*
X170452380Y-119087619D01*
X170452380Y-119182857D01*
X170404761Y-119278095D01*
X170357142Y-119325714D01*
X170261904Y-119373333D01*
X170071428Y-119420952D01*
X169833333Y-119420952D01*
X169642857Y-119373333D01*
X169547619Y-119325714D01*
X169500000Y-119278095D01*
X169452380Y-119182857D01*
X169880952Y-118278095D02*
X169833333Y-118373333D01*
X169785714Y-118420952D01*
X169690476Y-118468571D01*
X169642857Y-118468571D01*
X169547619Y-118420952D01*
X169500000Y-118373333D01*
X169452380Y-118278095D01*
X169452380Y-118087619D01*
X169500000Y-117992380D01*
X169547619Y-117944761D01*
X169642857Y-117897142D01*
X169690476Y-117897142D01*
X169785714Y-117944761D01*
X169833333Y-117992380D01*
X169880952Y-118087619D01*
X169880952Y-118278095D01*
X169928571Y-118373333D01*
X169976190Y-118420952D01*
X170071428Y-118468571D01*
X170261904Y-118468571D01*
X170357142Y-118420952D01*
X170404761Y-118373333D01*
X170452380Y-118278095D01*
X170452380Y-118087619D01*
X170404761Y-117992380D01*
X170357142Y-117944761D01*
X170261904Y-117897142D01*
X170071428Y-117897142D01*
X169976190Y-117944761D01*
X169928571Y-117992380D01*
X169880952Y-118087619D01*
X169452380Y-117278095D02*
X169452380Y-117182857D01*
X169500000Y-117087619D01*
X169547619Y-117040000D01*
X169642857Y-116992380D01*
X169833333Y-116944761D01*
X170071428Y-116944761D01*
X170261904Y-116992380D01*
X170357142Y-117040000D01*
X170404761Y-117087619D01*
X170452380Y-117182857D01*
X170452380Y-117278095D01*
X170404761Y-117373333D01*
X170357142Y-117420952D01*
X170261904Y-117468571D01*
X170071428Y-117516190D01*
X169833333Y-117516190D01*
X169642857Y-117468571D01*
X169547619Y-117420952D01*
X169500000Y-117373333D01*
X169452380Y-117278095D01*
X169452380Y-116040000D02*
X169452380Y-116516190D01*
X169928571Y-116563809D01*
X169880952Y-116516190D01*
X169833333Y-116420952D01*
X169833333Y-116182857D01*
X169880952Y-116087619D01*
X169928571Y-116040000D01*
X170023809Y-115992380D01*
X170261904Y-115992380D01*
X170357142Y-116040000D01*
X170404761Y-116087619D01*
X170452380Y-116182857D01*
X170452380Y-116420952D01*
X170404761Y-116516190D01*
X170357142Y-116563809D01*
X170547619Y-115801904D02*
X170547619Y-115040000D01*
X169547619Y-114849523D02*
X169500000Y-114801904D01*
X169452380Y-114706666D01*
X169452380Y-114468571D01*
X169500000Y-114373333D01*
X169547619Y-114325714D01*
X169642857Y-114278095D01*
X169738095Y-114278095D01*
X169880952Y-114325714D01*
X170452380Y-114897142D01*
X170452380Y-114278095D01*
X169452380Y-113659047D02*
X169452380Y-113563809D01*
X169500000Y-113468571D01*
X169547619Y-113420952D01*
X169642857Y-113373333D01*
X169833333Y-113325714D01*
X170071428Y-113325714D01*
X170261904Y-113373333D01*
X170357142Y-113420952D01*
X170404761Y-113468571D01*
X170452380Y-113563809D01*
X170452380Y-113659047D01*
X170404761Y-113754285D01*
X170357142Y-113801904D01*
X170261904Y-113849523D01*
X170071428Y-113897142D01*
X169833333Y-113897142D01*
X169642857Y-113849523D01*
X169547619Y-113801904D01*
X169500000Y-113754285D01*
X169452380Y-113659047D01*
X170452380Y-112373333D02*
X170452380Y-112944761D01*
X170452380Y-112659047D02*
X169452380Y-112659047D01*
X169595238Y-112754285D01*
X169690476Y-112849523D01*
X169738095Y-112944761D01*
X169547619Y-111992380D02*
X169500000Y-111944761D01*
X169452380Y-111849523D01*
X169452380Y-111611428D01*
X169500000Y-111516190D01*
X169547619Y-111468571D01*
X169642857Y-111420952D01*
X169738095Y-111420952D01*
X169880952Y-111468571D01*
X170452380Y-112040000D01*
X170452380Y-111420952D01*
X170452380Y-110992380D02*
X169452380Y-110992380D01*
X170166666Y-110659047D01*
X169452380Y-110325714D01*
X170452380Y-110325714D01*
X170404761Y-109468571D02*
X170452380Y-109563809D01*
X170452380Y-109754285D01*
X170404761Y-109849523D01*
X170309523Y-109897142D01*
X169928571Y-109897142D01*
X169833333Y-109849523D01*
X169785714Y-109754285D01*
X169785714Y-109563809D01*
X169833333Y-109468571D01*
X169928571Y-109420952D01*
X170023809Y-109420952D01*
X170119047Y-109897142D01*
X169785714Y-109135238D02*
X169785714Y-108754285D01*
X169452380Y-108992380D02*
X170309523Y-108992380D01*
X170404761Y-108944761D01*
X170452380Y-108849523D01*
X170452380Y-108754285D01*
X170452380Y-108420952D02*
X169785714Y-108420952D01*
X169976190Y-108420952D02*
X169880952Y-108373333D01*
X169833333Y-108325714D01*
X169785714Y-108230476D01*
X169785714Y-108135238D01*
X170452380Y-107801904D02*
X169785714Y-107801904D01*
X169452380Y-107801904D02*
X169500000Y-107849523D01*
X169547619Y-107801904D01*
X169500000Y-107754285D01*
X169452380Y-107801904D01*
X169547619Y-107801904D01*
X170404761Y-106897142D02*
X170452380Y-106992380D01*
X170452380Y-107182857D01*
X170404761Y-107278095D01*
X170357142Y-107325714D01*
X170261904Y-107373333D01*
X169976190Y-107373333D01*
X169880952Y-107325714D01*
X169833333Y-107278095D01*
X169785714Y-107182857D01*
X169785714Y-106992380D01*
X169833333Y-106897142D01*
X170547619Y-106706666D02*
X170547619Y-105944761D01*
X170452380Y-105706666D02*
X169452380Y-105706666D01*
X169452380Y-105325714D01*
X169500000Y-105230476D01*
X169547619Y-105182857D01*
X169642857Y-105135238D01*
X169785714Y-105135238D01*
X169880952Y-105182857D01*
X169928571Y-105230476D01*
X169976190Y-105325714D01*
X169976190Y-105706666D01*
X170452380Y-104278095D02*
X169928571Y-104278095D01*
X169833333Y-104325714D01*
X169785714Y-104420952D01*
X169785714Y-104611428D01*
X169833333Y-104706666D01*
X170404761Y-104278095D02*
X170452380Y-104373333D01*
X170452380Y-104611428D01*
X170404761Y-104706666D01*
X170309523Y-104754285D01*
X170214285Y-104754285D01*
X170119047Y-104706666D01*
X170071428Y-104611428D01*
X170071428Y-104373333D01*
X170023809Y-104278095D01*
X170452380Y-103373333D02*
X169452380Y-103373333D01*
X170404761Y-103373333D02*
X170452380Y-103468571D01*
X170452380Y-103659047D01*
X170404761Y-103754285D01*
X170357142Y-103801904D01*
X170261904Y-103849523D01*
X169976190Y-103849523D01*
X169880952Y-103801904D01*
X169833333Y-103754285D01*
X169785714Y-103659047D01*
X169785714Y-103468571D01*
X169833333Y-103373333D01*
X170452380Y-102373333D02*
X170452380Y-102944761D01*
X170452380Y-102659047D02*
X169452380Y-102659047D01*
X169595238Y-102754285D01*
X169690476Y-102849523D01*
X169738095Y-102944761D01*
X170357142Y-101944761D02*
X170404761Y-101897142D01*
X170452380Y-101944761D01*
X170404761Y-101992380D01*
X170357142Y-101944761D01*
X170452380Y-101944761D01*
X169547619Y-101516190D02*
X169500000Y-101468571D01*
X169452380Y-101373333D01*
X169452380Y-101135238D01*
X169500000Y-101040000D01*
X169547619Y-100992380D01*
X169642857Y-100944761D01*
X169738095Y-100944761D01*
X169880952Y-100992380D01*
X170452380Y-101563809D01*
X170452380Y-100944761D01*
X169452380Y-100325714D02*
X169452380Y-100230476D01*
X169500000Y-100135238D01*
X169547619Y-100087619D01*
X169642857Y-100040000D01*
X169833333Y-99992380D01*
X170071428Y-99992380D01*
X170261904Y-100040000D01*
X170357142Y-100087619D01*
X170404761Y-100135238D01*
X170452380Y-100230476D01*
X170452380Y-100325714D01*
X170404761Y-100420952D01*
X170357142Y-100468571D01*
X170261904Y-100516190D01*
X170071428Y-100563809D01*
X169833333Y-100563809D01*
X169642857Y-100516190D01*
X169547619Y-100468571D01*
X169500000Y-100420952D01*
X169452380Y-100325714D01*
X170452380Y-99659047D02*
X169785714Y-99135238D01*
X169785714Y-99659047D02*
X170452380Y-99135238D01*
X170452380Y-98230476D02*
X170452380Y-98801904D01*
X170452380Y-98516190D02*
X169452380Y-98516190D01*
X169595238Y-98611428D01*
X169690476Y-98706666D01*
X169738095Y-98801904D01*
X170357142Y-97801904D02*
X170404761Y-97754285D01*
X170452380Y-97801904D01*
X170404761Y-97849523D01*
X170357142Y-97801904D01*
X170452380Y-97801904D01*
X169785714Y-96897142D02*
X170452380Y-96897142D01*
X169404761Y-97135238D02*
X170119047Y-97373333D01*
X170119047Y-96754285D01*
X169452380Y-96182857D02*
X169452380Y-96087619D01*
X169500000Y-95992380D01*
X169547619Y-95944761D01*
X169642857Y-95897142D01*
X169833333Y-95849523D01*
X170071428Y-95849523D01*
X170261904Y-95897142D01*
X170357142Y-95944761D01*
X170404761Y-95992380D01*
X170452380Y-96087619D01*
X170452380Y-96182857D01*
X170404761Y-96278095D01*
X170357142Y-96325714D01*
X170261904Y-96373333D01*
X170071428Y-96420952D01*
X169833333Y-96420952D01*
X169642857Y-96373333D01*
X169547619Y-96325714D01*
X169500000Y-96278095D01*
X169452380Y-96182857D01*
X170452380Y-95420952D02*
X169785714Y-95420952D01*
X169880952Y-95420952D02*
X169833333Y-95373333D01*
X169785714Y-95278095D01*
X169785714Y-95135238D01*
X169833333Y-95040000D01*
X169928571Y-94992380D01*
X170452380Y-94992380D01*
X169928571Y-94992380D02*
X169833333Y-94944761D01*
X169785714Y-94849523D01*
X169785714Y-94706666D01*
X169833333Y-94611428D01*
X169928571Y-94563809D01*
X170452380Y-94563809D01*
X170452380Y-94087619D02*
X169785714Y-94087619D01*
X169880952Y-94087619D02*
X169833333Y-94040000D01*
X169785714Y-93944761D01*
X169785714Y-93801904D01*
X169833333Y-93706666D01*
X169928571Y-93659047D01*
X170452380Y-93659047D01*
X169928571Y-93659047D02*
X169833333Y-93611428D01*
X169785714Y-93516190D01*
X169785714Y-93373333D01*
X169833333Y-93278095D01*
X169928571Y-93230476D01*
X170452380Y-93230476D01*
X170547619Y-92992380D02*
X170547619Y-92230476D01*
X170452380Y-91992380D02*
X169452380Y-91992380D01*
X169928571Y-91992380D02*
X169928571Y-91420952D01*
X170452380Y-91420952D02*
X169452380Y-91420952D01*
X170452380Y-90516190D02*
X169928571Y-90516190D01*
X169833333Y-90563809D01*
X169785714Y-90659047D01*
X169785714Y-90849523D01*
X169833333Y-90944761D01*
X170404761Y-90516190D02*
X170452380Y-90611428D01*
X170452380Y-90849523D01*
X170404761Y-90944761D01*
X170309523Y-90992380D01*
X170214285Y-90992380D01*
X170119047Y-90944761D01*
X170071428Y-90849523D01*
X170071428Y-90611428D01*
X170023809Y-90516190D01*
X169785714Y-90040000D02*
X170452380Y-90040000D01*
X169880952Y-90040000D02*
X169833333Y-89992380D01*
X169785714Y-89897142D01*
X169785714Y-89754285D01*
X169833333Y-89659047D01*
X169928571Y-89611428D01*
X170452380Y-89611428D01*
X170452380Y-88706666D02*
X169452380Y-88706666D01*
X170404761Y-88706666D02*
X170452380Y-88801904D01*
X170452380Y-88992380D01*
X170404761Y-89087619D01*
X170357142Y-89135238D01*
X170261904Y-89182857D01*
X169976190Y-89182857D01*
X169880952Y-89135238D01*
X169833333Y-89087619D01*
X169785714Y-88992380D01*
X169785714Y-88801904D01*
X169833333Y-88706666D01*
X170404761Y-88278095D02*
X170452380Y-88135238D01*
X170452380Y-87897142D01*
X170404761Y-87801904D01*
X170357142Y-87754285D01*
X170261904Y-87706666D01*
X170166666Y-87706666D01*
X170071428Y-87754285D01*
X170023809Y-87801904D01*
X169976190Y-87897142D01*
X169928571Y-88087619D01*
X169880952Y-88182857D01*
X169833333Y-88230476D01*
X169738095Y-88278095D01*
X169642857Y-88278095D01*
X169547619Y-88230476D01*
X169500000Y-88182857D01*
X169452380Y-88087619D01*
X169452380Y-87849523D01*
X169500000Y-87706666D01*
X170452380Y-87135238D02*
X170404761Y-87230476D01*
X170357142Y-87278095D01*
X170261904Y-87325714D01*
X169976190Y-87325714D01*
X169880952Y-87278095D01*
X169833333Y-87230476D01*
X169785714Y-87135238D01*
X169785714Y-86992380D01*
X169833333Y-86897142D01*
X169880952Y-86849523D01*
X169976190Y-86801904D01*
X170261904Y-86801904D01*
X170357142Y-86849523D01*
X170404761Y-86897142D01*
X170452380Y-86992380D01*
X170452380Y-87135238D01*
X170452380Y-86230476D02*
X170404761Y-86325714D01*
X170309523Y-86373333D01*
X169452380Y-86373333D01*
X170452380Y-85420952D02*
X169452380Y-85420952D01*
X170404761Y-85420952D02*
X170452380Y-85516190D01*
X170452380Y-85706666D01*
X170404761Y-85801904D01*
X170357142Y-85849523D01*
X170261904Y-85897142D01*
X169976190Y-85897142D01*
X169880952Y-85849523D01*
X169833333Y-85801904D01*
X169785714Y-85706666D01*
X169785714Y-85516190D01*
X169833333Y-85420952D01*
X170404761Y-84563809D02*
X170452380Y-84659047D01*
X170452380Y-84849523D01*
X170404761Y-84944761D01*
X170309523Y-84992380D01*
X169928571Y-84992380D01*
X169833333Y-84944761D01*
X169785714Y-84849523D01*
X169785714Y-84659047D01*
X169833333Y-84563809D01*
X169928571Y-84516190D01*
X170023809Y-84516190D01*
X170119047Y-84992380D01*
X170452380Y-84087619D02*
X169785714Y-84087619D01*
X169976190Y-84087619D02*
X169880952Y-84040000D01*
X169833333Y-83992380D01*
X169785714Y-83897142D01*
X169785714Y-83801904D01*
D11*
X171876190Y-103075714D02*
X171876190Y-103361428D01*
X171876190Y-103218571D02*
X171376190Y-103218571D01*
X171447619Y-103266190D01*
X171495238Y-103313809D01*
X171519047Y-103361428D01*
X171376190Y-102766190D02*
X171376190Y-102718571D01*
X171400000Y-102670952D01*
X171423809Y-102647142D01*
X171471428Y-102623333D01*
X171566666Y-102599523D01*
X171685714Y-102599523D01*
X171780952Y-102623333D01*
X171828571Y-102647142D01*
X171852380Y-102670952D01*
X171876190Y-102718571D01*
X171876190Y-102766190D01*
X171852380Y-102813809D01*
X171828571Y-102837619D01*
X171780952Y-102861428D01*
X171685714Y-102885238D01*
X171566666Y-102885238D01*
X171471428Y-102861428D01*
X171423809Y-102837619D01*
X171400000Y-102813809D01*
X171376190Y-102766190D01*
X171376190Y-102290000D02*
X171376190Y-102242380D01*
X171400000Y-102194761D01*
X171423809Y-102170952D01*
X171471428Y-102147142D01*
X171566666Y-102123333D01*
X171685714Y-102123333D01*
X171780952Y-102147142D01*
X171828571Y-102170952D01*
X171852380Y-102194761D01*
X171876190Y-102242380D01*
X171876190Y-102290000D01*
X171852380Y-102337619D01*
X171828571Y-102361428D01*
X171780952Y-102385238D01*
X171685714Y-102409047D01*
X171566666Y-102409047D01*
X171471428Y-102385238D01*
X171423809Y-102361428D01*
X171400000Y-102337619D01*
X171376190Y-102290000D01*
X171876190Y-101909047D02*
X171376190Y-101909047D01*
X171685714Y-101861428D02*
X171876190Y-101718571D01*
X171542857Y-101718571D02*
X171733333Y-101909047D01*
D10*
%TO.C,P1*%
X142438380Y-93630476D02*
X141438380Y-93630476D01*
X141438380Y-93392380D01*
X141486000Y-93249523D01*
X141581238Y-93154285D01*
X141676476Y-93106666D01*
X141866952Y-93059047D01*
X142009809Y-93059047D01*
X142200285Y-93106666D01*
X142295523Y-93154285D01*
X142390761Y-93249523D01*
X142438380Y-93392380D01*
X142438380Y-93630476D01*
X142438380Y-92630476D02*
X141771714Y-92630476D01*
X141438380Y-92630476D02*
X141486000Y-92678095D01*
X141533619Y-92630476D01*
X141486000Y-92582857D01*
X141438380Y-92630476D01*
X141533619Y-92630476D01*
X141771714Y-91725714D02*
X142581238Y-91725714D01*
X142676476Y-91773333D01*
X142724095Y-91820952D01*
X142771714Y-91916190D01*
X142771714Y-92059047D01*
X142724095Y-92154285D01*
X142390761Y-91725714D02*
X142438380Y-91820952D01*
X142438380Y-92011428D01*
X142390761Y-92106666D01*
X142343142Y-92154285D01*
X142247904Y-92201904D01*
X141962190Y-92201904D01*
X141866952Y-92154285D01*
X141819333Y-92106666D01*
X141771714Y-92011428D01*
X141771714Y-91820952D01*
X141819333Y-91725714D01*
X142438380Y-91249523D02*
X141771714Y-91249523D01*
X141438380Y-91249523D02*
X141486000Y-91297142D01*
X141533619Y-91249523D01*
X141486000Y-91201904D01*
X141438380Y-91249523D01*
X141533619Y-91249523D01*
X141771714Y-90916190D02*
X141771714Y-90535238D01*
X141438380Y-90773333D02*
X142295523Y-90773333D01*
X142390761Y-90725714D01*
X142438380Y-90630476D01*
X142438380Y-90535238D01*
X142438380Y-89773333D02*
X141914571Y-89773333D01*
X141819333Y-89820952D01*
X141771714Y-89916190D01*
X141771714Y-90106666D01*
X141819333Y-90201904D01*
X142390761Y-89773333D02*
X142438380Y-89868571D01*
X142438380Y-90106666D01*
X142390761Y-90201904D01*
X142295523Y-90249523D01*
X142200285Y-90249523D01*
X142105047Y-90201904D01*
X142057428Y-90106666D01*
X142057428Y-89868571D01*
X142009809Y-89773333D01*
X142438380Y-89154285D02*
X142390761Y-89249523D01*
X142295523Y-89297142D01*
X141438380Y-89297142D01*
%TO.C,P2*%
X152312666Y-93749523D02*
X152312666Y-93273333D01*
X152598380Y-93844761D02*
X151598380Y-93511428D01*
X152598380Y-93178095D01*
X151931714Y-92844761D02*
X152598380Y-92844761D01*
X152026952Y-92844761D02*
X151979333Y-92797142D01*
X151931714Y-92701904D01*
X151931714Y-92559047D01*
X151979333Y-92463809D01*
X152074571Y-92416190D01*
X152598380Y-92416190D01*
X152598380Y-91511428D02*
X152074571Y-91511428D01*
X151979333Y-91559047D01*
X151931714Y-91654285D01*
X151931714Y-91844761D01*
X151979333Y-91940000D01*
X152550761Y-91511428D02*
X152598380Y-91606666D01*
X152598380Y-91844761D01*
X152550761Y-91940000D01*
X152455523Y-91987619D01*
X152360285Y-91987619D01*
X152265047Y-91940000D01*
X152217428Y-91844761D01*
X152217428Y-91606666D01*
X152169809Y-91511428D01*
X152598380Y-90892380D02*
X152550761Y-90987619D01*
X152455523Y-91035238D01*
X151598380Y-91035238D01*
X152598380Y-90368571D02*
X152550761Y-90463809D01*
X152503142Y-90511428D01*
X152407904Y-90559047D01*
X152122190Y-90559047D01*
X152026952Y-90511428D01*
X151979333Y-90463809D01*
X151931714Y-90368571D01*
X151931714Y-90225714D01*
X151979333Y-90130476D01*
X152026952Y-90082857D01*
X152122190Y-90035238D01*
X152407904Y-90035238D01*
X152503142Y-90082857D01*
X152550761Y-90130476D01*
X152598380Y-90225714D01*
X152598380Y-90368571D01*
X151931714Y-89178095D02*
X152741238Y-89178095D01*
X152836476Y-89225714D01*
X152884095Y-89273333D01*
X152931714Y-89368571D01*
X152931714Y-89511428D01*
X152884095Y-89606666D01*
X152550761Y-89178095D02*
X152598380Y-89273333D01*
X152598380Y-89463809D01*
X152550761Y-89559047D01*
X152503142Y-89606666D01*
X152407904Y-89654285D01*
X152122190Y-89654285D01*
X152026952Y-89606666D01*
X151979333Y-89559047D01*
X151931714Y-89463809D01*
X151931714Y-89273333D01*
X151979333Y-89178095D01*
%TO.C,REF\u002A\u002A*%
X149601257Y-67362780D02*
X149601257Y-66362780D01*
X149982209Y-66362780D01*
X150077447Y-66410400D01*
X150125066Y-66458019D01*
X150172685Y-66553257D01*
X150172685Y-66696114D01*
X150125066Y-66791352D01*
X150077447Y-66838971D01*
X149982209Y-66886590D01*
X149601257Y-66886590D01*
X150601257Y-67362780D02*
X150601257Y-66696114D01*
X150601257Y-66362780D02*
X150553638Y-66410400D01*
X150601257Y-66458019D01*
X150648876Y-66410400D01*
X150601257Y-66362780D01*
X150601257Y-66458019D01*
X151077447Y-66696114D02*
X151077447Y-67362780D01*
X151077447Y-66791352D02*
X151125066Y-66743733D01*
X151220304Y-66696114D01*
X151363161Y-66696114D01*
X151458400Y-66743733D01*
X151506019Y-66838971D01*
X151506019Y-67362780D01*
X151982209Y-67362780D02*
X151982209Y-66362780D01*
X151982209Y-66838971D02*
X152553638Y-66838971D01*
X152553638Y-67362780D02*
X152553638Y-66362780D01*
X153410780Y-67315161D02*
X153315542Y-67362780D01*
X153125066Y-67362780D01*
X153029828Y-67315161D01*
X152982209Y-67219923D01*
X152982209Y-66838971D01*
X153029828Y-66743733D01*
X153125066Y-66696114D01*
X153315542Y-66696114D01*
X153410780Y-66743733D01*
X153458400Y-66838971D01*
X153458400Y-66934209D01*
X152982209Y-67029447D01*
X154315542Y-67362780D02*
X154315542Y-66838971D01*
X154267923Y-66743733D01*
X154172685Y-66696114D01*
X153982209Y-66696114D01*
X153886971Y-66743733D01*
X154315542Y-67315161D02*
X154220304Y-67362780D01*
X153982209Y-67362780D01*
X153886971Y-67315161D01*
X153839352Y-67219923D01*
X153839352Y-67124685D01*
X153886971Y-67029447D01*
X153982209Y-66981828D01*
X154220304Y-66981828D01*
X154315542Y-66934209D01*
X155220304Y-67362780D02*
X155220304Y-66362780D01*
X155220304Y-67315161D02*
X155125066Y-67362780D01*
X154934590Y-67362780D01*
X154839352Y-67315161D01*
X154791733Y-67267542D01*
X154744114Y-67172304D01*
X154744114Y-66886590D01*
X154791733Y-66791352D01*
X154839352Y-66743733D01*
X154934590Y-66696114D01*
X155125066Y-66696114D01*
X155220304Y-66743733D01*
X156077447Y-67315161D02*
X155982209Y-67362780D01*
X155791733Y-67362780D01*
X155696495Y-67315161D01*
X155648876Y-67219923D01*
X155648876Y-66838971D01*
X155696495Y-66743733D01*
X155791733Y-66696114D01*
X155982209Y-66696114D01*
X156077447Y-66743733D01*
X156125066Y-66838971D01*
X156125066Y-66934209D01*
X155648876Y-67029447D01*
X156553638Y-67362780D02*
X156553638Y-66696114D01*
X156553638Y-66886590D02*
X156601257Y-66791352D01*
X156648876Y-66743733D01*
X156744114Y-66696114D01*
X156839352Y-66696114D01*
X156934590Y-67458019D02*
X157696495Y-67458019D01*
X158458400Y-67362780D02*
X157886971Y-67362780D01*
X158172685Y-67362780D02*
X158172685Y-66362780D01*
X158077447Y-66505638D01*
X157982209Y-66600876D01*
X157886971Y-66648495D01*
X158791733Y-67362780D02*
X159315542Y-66696114D01*
X158791733Y-66696114D02*
X159315542Y-67362780D01*
X159886971Y-66362780D02*
X159982209Y-66362780D01*
X160077447Y-66410400D01*
X160125066Y-66458019D01*
X160172685Y-66553257D01*
X160220304Y-66743733D01*
X160220304Y-66981828D01*
X160172685Y-67172304D01*
X160125066Y-67267542D01*
X160077447Y-67315161D01*
X159982209Y-67362780D01*
X159886971Y-67362780D01*
X159791733Y-67315161D01*
X159744114Y-67267542D01*
X159696495Y-67172304D01*
X159648876Y-66981828D01*
X159648876Y-66743733D01*
X159696495Y-66553257D01*
X159744114Y-66458019D01*
X159791733Y-66410400D01*
X159886971Y-66362780D01*
X160601257Y-66458019D02*
X160648876Y-66410400D01*
X160744114Y-66362780D01*
X160982209Y-66362780D01*
X161077447Y-66410400D01*
X161125066Y-66458019D01*
X161172685Y-66553257D01*
X161172685Y-66648495D01*
X161125066Y-66791352D01*
X160553638Y-67362780D01*
X161172685Y-67362780D01*
X161363161Y-67458019D02*
X162125066Y-67458019D01*
X162363161Y-67362780D02*
X162363161Y-66362780D01*
X162744114Y-66362780D01*
X162839352Y-66410400D01*
X162886971Y-66458019D01*
X162934590Y-66553257D01*
X162934590Y-66696114D01*
X162886971Y-66791352D01*
X162839352Y-66838971D01*
X162744114Y-66886590D01*
X162363161Y-66886590D01*
X163315542Y-66458019D02*
X163363161Y-66410400D01*
X163458400Y-66362780D01*
X163696495Y-66362780D01*
X163791733Y-66410400D01*
X163839352Y-66458019D01*
X163886971Y-66553257D01*
X163886971Y-66648495D01*
X163839352Y-66791352D01*
X163267923Y-67362780D01*
X163886971Y-67362780D01*
X164315542Y-67267542D02*
X164363161Y-67315161D01*
X164315542Y-67362780D01*
X164267923Y-67315161D01*
X164315542Y-67267542D01*
X164315542Y-67362780D01*
X165267923Y-66362780D02*
X164791733Y-66362780D01*
X164744114Y-66838971D01*
X164791733Y-66791352D01*
X164886971Y-66743733D01*
X165125066Y-66743733D01*
X165220304Y-66791352D01*
X165267923Y-66838971D01*
X165315542Y-66934209D01*
X165315542Y-67172304D01*
X165267923Y-67267542D01*
X165220304Y-67315161D01*
X165125066Y-67362780D01*
X164886971Y-67362780D01*
X164791733Y-67315161D01*
X164744114Y-67267542D01*
X166172685Y-66696114D02*
X166172685Y-67362780D01*
X165934590Y-66315161D02*
X165696495Y-67029447D01*
X166315542Y-67029447D01*
X166696495Y-67362780D02*
X166696495Y-66696114D01*
X166696495Y-66791352D02*
X166744114Y-66743733D01*
X166839352Y-66696114D01*
X166982209Y-66696114D01*
X167077447Y-66743733D01*
X167125066Y-66838971D01*
X167125066Y-67362780D01*
X167125066Y-66838971D02*
X167172685Y-66743733D01*
X167267923Y-66696114D01*
X167410780Y-66696114D01*
X167506019Y-66743733D01*
X167553638Y-66838971D01*
X167553638Y-67362780D01*
X168029828Y-67362780D02*
X168029828Y-66696114D01*
X168029828Y-66791352D02*
X168077447Y-66743733D01*
X168172685Y-66696114D01*
X168315542Y-66696114D01*
X168410780Y-66743733D01*
X168458400Y-66838971D01*
X168458400Y-67362780D01*
X168458400Y-66838971D02*
X168506019Y-66743733D01*
X168601257Y-66696114D01*
X168744114Y-66696114D01*
X168839352Y-66743733D01*
X168886971Y-66838971D01*
X168886971Y-67362780D01*
X169125066Y-67458019D02*
X169886971Y-67458019D01*
X169982209Y-66362780D02*
X170315542Y-67362780D01*
X170648876Y-66362780D01*
X171363161Y-67315161D02*
X171267923Y-67362780D01*
X171077447Y-67362780D01*
X170982209Y-67315161D01*
X170934590Y-67219923D01*
X170934590Y-66838971D01*
X170982209Y-66743733D01*
X171077447Y-66696114D01*
X171267923Y-66696114D01*
X171363161Y-66743733D01*
X171410780Y-66838971D01*
X171410780Y-66934209D01*
X170934590Y-67029447D01*
X171839352Y-67362780D02*
X171839352Y-66696114D01*
X171839352Y-66886590D02*
X171886971Y-66791352D01*
X171934590Y-66743733D01*
X172029828Y-66696114D01*
X172125066Y-66696114D01*
X172315542Y-66696114D02*
X172696495Y-66696114D01*
X172458400Y-66362780D02*
X172458400Y-67219923D01*
X172506019Y-67315161D01*
X172601257Y-67362780D01*
X172696495Y-67362780D01*
X173029828Y-67362780D02*
X173029828Y-66696114D01*
X173029828Y-66362780D02*
X172982209Y-66410400D01*
X173029828Y-66458019D01*
X173077447Y-66410400D01*
X173029828Y-66362780D01*
X173029828Y-66458019D01*
X173934590Y-67315161D02*
X173839352Y-67362780D01*
X173648876Y-67362780D01*
X173553638Y-67315161D01*
X173506019Y-67267542D01*
X173458400Y-67172304D01*
X173458400Y-66886590D01*
X173506019Y-66791352D01*
X173553638Y-66743733D01*
X173648876Y-66696114D01*
X173839352Y-66696114D01*
X173934590Y-66743733D01*
X174791733Y-67362780D02*
X174791733Y-66838971D01*
X174744114Y-66743733D01*
X174648876Y-66696114D01*
X174458400Y-66696114D01*
X174363161Y-66743733D01*
X174791733Y-67315161D02*
X174696495Y-67362780D01*
X174458400Y-67362780D01*
X174363161Y-67315161D01*
X174315542Y-67219923D01*
X174315542Y-67124685D01*
X174363161Y-67029447D01*
X174458400Y-66981828D01*
X174696495Y-66981828D01*
X174791733Y-66934209D01*
X175410780Y-67362780D02*
X175315542Y-67315161D01*
X175267923Y-67219923D01*
X175267923Y-66362780D01*
X162910780Y-71843733D02*
X162434590Y-72177066D01*
X162910780Y-72415161D02*
X161910780Y-72415161D01*
X161910780Y-72034209D01*
X161958400Y-71938971D01*
X162006019Y-71891352D01*
X162101257Y-71843733D01*
X162244114Y-71843733D01*
X162339352Y-71891352D01*
X162386971Y-71938971D01*
X162434590Y-72034209D01*
X162434590Y-72415161D01*
X162386971Y-71415161D02*
X162386971Y-71081828D01*
X162910780Y-70938971D02*
X162910780Y-71415161D01*
X161910780Y-71415161D01*
X161910780Y-70938971D01*
X162386971Y-70177066D02*
X162386971Y-70510400D01*
X162910780Y-70510400D02*
X161910780Y-70510400D01*
X161910780Y-70034209D01*
X161910780Y-69510400D02*
X162148876Y-69510400D01*
X162053638Y-69748495D02*
X162148876Y-69510400D01*
X162053638Y-69272304D01*
X162339352Y-69653257D02*
X162148876Y-69510400D01*
X162339352Y-69367542D01*
X161910780Y-68748495D02*
X162148876Y-68748495D01*
X162053638Y-68986590D02*
X162148876Y-68748495D01*
X162053638Y-68510400D01*
X162339352Y-68891352D02*
X162148876Y-68748495D01*
X162339352Y-68605638D01*
%TO.C,CONFIG*%
X164223380Y-82224142D02*
X163223380Y-82224142D01*
X163223380Y-81843190D01*
X163271000Y-81747952D01*
X163318619Y-81700333D01*
X163413857Y-81652714D01*
X163556714Y-81652714D01*
X163651952Y-81700333D01*
X163699571Y-81747952D01*
X163747190Y-81843190D01*
X163747190Y-82224142D01*
X164223380Y-81224142D02*
X163556714Y-81224142D01*
X163223380Y-81224142D02*
X163271000Y-81271761D01*
X163318619Y-81224142D01*
X163271000Y-81176523D01*
X163223380Y-81224142D01*
X163318619Y-81224142D01*
X163556714Y-80747952D02*
X164223380Y-80747952D01*
X163651952Y-80747952D02*
X163604333Y-80700333D01*
X163556714Y-80605095D01*
X163556714Y-80462238D01*
X163604333Y-80367000D01*
X163699571Y-80319380D01*
X164223380Y-80319380D01*
X164223380Y-79843190D02*
X163223380Y-79843190D01*
X163699571Y-79843190D02*
X163699571Y-79271761D01*
X164223380Y-79271761D02*
X163223380Y-79271761D01*
X164175761Y-78414619D02*
X164223380Y-78509857D01*
X164223380Y-78700333D01*
X164175761Y-78795571D01*
X164080523Y-78843190D01*
X163699571Y-78843190D01*
X163604333Y-78795571D01*
X163556714Y-78700333D01*
X163556714Y-78509857D01*
X163604333Y-78414619D01*
X163699571Y-78367000D01*
X163794809Y-78367000D01*
X163890047Y-78843190D01*
X164223380Y-77509857D02*
X163699571Y-77509857D01*
X163604333Y-77557476D01*
X163556714Y-77652714D01*
X163556714Y-77843190D01*
X163604333Y-77938428D01*
X164175761Y-77509857D02*
X164223380Y-77605095D01*
X164223380Y-77843190D01*
X164175761Y-77938428D01*
X164080523Y-77986047D01*
X163985285Y-77986047D01*
X163890047Y-77938428D01*
X163842428Y-77843190D01*
X163842428Y-77605095D01*
X163794809Y-77509857D01*
X164223380Y-76605095D02*
X163223380Y-76605095D01*
X164175761Y-76605095D02*
X164223380Y-76700333D01*
X164223380Y-76890809D01*
X164175761Y-76986047D01*
X164128142Y-77033666D01*
X164032904Y-77081285D01*
X163747190Y-77081285D01*
X163651952Y-77033666D01*
X163604333Y-76986047D01*
X163556714Y-76890809D01*
X163556714Y-76700333D01*
X163604333Y-76605095D01*
X164175761Y-75747952D02*
X164223380Y-75843190D01*
X164223380Y-76033666D01*
X164175761Y-76128904D01*
X164080523Y-76176523D01*
X163699571Y-76176523D01*
X163604333Y-76128904D01*
X163556714Y-76033666D01*
X163556714Y-75843190D01*
X163604333Y-75747952D01*
X163699571Y-75700333D01*
X163794809Y-75700333D01*
X163890047Y-76176523D01*
X164223380Y-75271761D02*
X163556714Y-75271761D01*
X163747190Y-75271761D02*
X163651952Y-75224142D01*
X163604333Y-75176523D01*
X163556714Y-75081285D01*
X163556714Y-74986047D01*
X164318619Y-74890809D02*
X164318619Y-74128904D01*
X164223380Y-73367000D02*
X164223380Y-73938428D01*
X164223380Y-73652714D02*
X163223380Y-73652714D01*
X163366238Y-73747952D01*
X163461476Y-73843190D01*
X163509095Y-73938428D01*
X164223380Y-73033666D02*
X163556714Y-72509857D01*
X163556714Y-73033666D02*
X164223380Y-72509857D01*
X163223380Y-71938428D02*
X163223380Y-71843190D01*
X163271000Y-71747952D01*
X163318619Y-71700333D01*
X163413857Y-71652714D01*
X163604333Y-71605095D01*
X163842428Y-71605095D01*
X164032904Y-71652714D01*
X164128142Y-71700333D01*
X164175761Y-71747952D01*
X164223380Y-71843190D01*
X164223380Y-71938428D01*
X164175761Y-72033666D01*
X164128142Y-72081285D01*
X164032904Y-72128904D01*
X163842428Y-72176523D01*
X163604333Y-72176523D01*
X163413857Y-72128904D01*
X163318619Y-72081285D01*
X163271000Y-72033666D01*
X163223380Y-71938428D01*
X163223380Y-71271761D02*
X163223380Y-70652714D01*
X163604333Y-70986047D01*
X163604333Y-70843190D01*
X163651952Y-70747952D01*
X163699571Y-70700333D01*
X163794809Y-70652714D01*
X164032904Y-70652714D01*
X164128142Y-70700333D01*
X164175761Y-70747952D01*
X164223380Y-70843190D01*
X164223380Y-71128904D01*
X164175761Y-71224142D01*
X164128142Y-71271761D01*
X164318619Y-70462238D02*
X164318619Y-69700333D01*
X164223380Y-69462238D02*
X163223380Y-69462238D01*
X163223380Y-69081285D01*
X163271000Y-68986047D01*
X163318619Y-68938428D01*
X163413857Y-68890809D01*
X163556714Y-68890809D01*
X163651952Y-68938428D01*
X163699571Y-68986047D01*
X163747190Y-69081285D01*
X163747190Y-69462238D01*
X163318619Y-68509857D02*
X163271000Y-68462238D01*
X163223380Y-68367000D01*
X163223380Y-68128904D01*
X163271000Y-68033666D01*
X163318619Y-67986047D01*
X163413857Y-67938428D01*
X163509095Y-67938428D01*
X163651952Y-67986047D01*
X164223380Y-68557476D01*
X164223380Y-67938428D01*
X164128142Y-67509857D02*
X164175761Y-67462238D01*
X164223380Y-67509857D01*
X164175761Y-67557476D01*
X164128142Y-67509857D01*
X164223380Y-67509857D01*
X163223380Y-66557476D02*
X163223380Y-67033666D01*
X163699571Y-67081285D01*
X163651952Y-67033666D01*
X163604333Y-66938428D01*
X163604333Y-66700333D01*
X163651952Y-66605095D01*
X163699571Y-66557476D01*
X163794809Y-66509857D01*
X164032904Y-66509857D01*
X164128142Y-66557476D01*
X164175761Y-66605095D01*
X164223380Y-66700333D01*
X164223380Y-66938428D01*
X164175761Y-67033666D01*
X164128142Y-67081285D01*
X163556714Y-65652714D02*
X164223380Y-65652714D01*
X163175761Y-65890809D02*
X163890047Y-66128904D01*
X163890047Y-65509857D01*
X164223380Y-65128904D02*
X163556714Y-65128904D01*
X163651952Y-65128904D02*
X163604333Y-65081285D01*
X163556714Y-64986047D01*
X163556714Y-64843190D01*
X163604333Y-64747952D01*
X163699571Y-64700333D01*
X164223380Y-64700333D01*
X163699571Y-64700333D02*
X163604333Y-64652714D01*
X163556714Y-64557476D01*
X163556714Y-64414619D01*
X163604333Y-64319380D01*
X163699571Y-64271761D01*
X164223380Y-64271761D01*
X164223380Y-63795571D02*
X163556714Y-63795571D01*
X163651952Y-63795571D02*
X163604333Y-63747952D01*
X163556714Y-63652714D01*
X163556714Y-63509857D01*
X163604333Y-63414619D01*
X163699571Y-63367000D01*
X164223380Y-63367000D01*
X163699571Y-63367000D02*
X163604333Y-63319380D01*
X163556714Y-63224142D01*
X163556714Y-63081285D01*
X163604333Y-62986047D01*
X163699571Y-62938428D01*
X164223380Y-62938428D01*
X164318619Y-62700333D02*
X164318619Y-61938428D01*
X163223380Y-61843190D02*
X164223380Y-61509857D01*
X163223380Y-61176523D01*
X164175761Y-60462238D02*
X164223380Y-60557476D01*
X164223380Y-60747952D01*
X164175761Y-60843190D01*
X164080523Y-60890809D01*
X163699571Y-60890809D01*
X163604333Y-60843190D01*
X163556714Y-60747952D01*
X163556714Y-60557476D01*
X163604333Y-60462238D01*
X163699571Y-60414619D01*
X163794809Y-60414619D01*
X163890047Y-60890809D01*
X164223380Y-59986047D02*
X163556714Y-59986047D01*
X163747190Y-59986047D02*
X163651952Y-59938428D01*
X163604333Y-59890809D01*
X163556714Y-59795571D01*
X163556714Y-59700333D01*
X163556714Y-59509857D02*
X163556714Y-59128904D01*
X163223380Y-59367000D02*
X164080523Y-59367000D01*
X164175761Y-59319380D01*
X164223380Y-59224142D01*
X164223380Y-59128904D01*
X164223380Y-58795571D02*
X163556714Y-58795571D01*
X163223380Y-58795571D02*
X163271000Y-58843190D01*
X163318619Y-58795571D01*
X163271000Y-58747952D01*
X163223380Y-58795571D01*
X163318619Y-58795571D01*
X164175761Y-57890809D02*
X164223380Y-57986047D01*
X164223380Y-58176523D01*
X164175761Y-58271761D01*
X164128142Y-58319380D01*
X164032904Y-58367000D01*
X163747190Y-58367000D01*
X163651952Y-58319380D01*
X163604333Y-58271761D01*
X163556714Y-58176523D01*
X163556714Y-57986047D01*
X163604333Y-57890809D01*
X164223380Y-57033666D02*
X163699571Y-57033666D01*
X163604333Y-57081285D01*
X163556714Y-57176523D01*
X163556714Y-57367000D01*
X163604333Y-57462238D01*
X164175761Y-57033666D02*
X164223380Y-57128904D01*
X164223380Y-57367000D01*
X164175761Y-57462238D01*
X164080523Y-57509857D01*
X163985285Y-57509857D01*
X163890047Y-57462238D01*
X163842428Y-57367000D01*
X163842428Y-57128904D01*
X163794809Y-57033666D01*
X164223380Y-56414619D02*
X164175761Y-56509857D01*
X164080523Y-56557476D01*
X163223380Y-56557476D01*
X166736238Y-69724142D02*
X166688619Y-69771761D01*
X166545761Y-69819380D01*
X166450523Y-69819380D01*
X166307666Y-69771761D01*
X166212428Y-69676523D01*
X166164809Y-69581285D01*
X166117190Y-69390809D01*
X166117190Y-69247952D01*
X166164809Y-69057476D01*
X166212428Y-68962238D01*
X166307666Y-68867000D01*
X166450523Y-68819380D01*
X166545761Y-68819380D01*
X166688619Y-68867000D01*
X166736238Y-68914619D01*
X167355285Y-68819380D02*
X167545761Y-68819380D01*
X167641000Y-68867000D01*
X167736238Y-68962238D01*
X167783857Y-69152714D01*
X167783857Y-69486047D01*
X167736238Y-69676523D01*
X167641000Y-69771761D01*
X167545761Y-69819380D01*
X167355285Y-69819380D01*
X167260047Y-69771761D01*
X167164809Y-69676523D01*
X167117190Y-69486047D01*
X167117190Y-69152714D01*
X167164809Y-68962238D01*
X167260047Y-68867000D01*
X167355285Y-68819380D01*
X168212428Y-69819380D02*
X168212428Y-68819380D01*
X168783857Y-69819380D01*
X168783857Y-68819380D01*
X169593380Y-69295571D02*
X169260047Y-69295571D01*
X169260047Y-69819380D02*
X169260047Y-68819380D01*
X169736238Y-68819380D01*
X170117190Y-69819380D02*
X170117190Y-68819380D01*
X171117190Y-68867000D02*
X171021952Y-68819380D01*
X170879095Y-68819380D01*
X170736238Y-68867000D01*
X170641000Y-68962238D01*
X170593380Y-69057476D01*
X170545761Y-69247952D01*
X170545761Y-69390809D01*
X170593380Y-69581285D01*
X170641000Y-69676523D01*
X170736238Y-69771761D01*
X170879095Y-69819380D01*
X170974333Y-69819380D01*
X171117190Y-69771761D01*
X171164809Y-69724142D01*
X171164809Y-69390809D01*
X170974333Y-69390809D01*
%TO.C,Female DSUB9 connector*%
X108479095Y-132634380D02*
X108479095Y-131634380D01*
X108717190Y-131634380D01*
X108860047Y-131682000D01*
X108955285Y-131777238D01*
X109002904Y-131872476D01*
X109050523Y-132062952D01*
X109050523Y-132205809D01*
X109002904Y-132396285D01*
X108955285Y-132491523D01*
X108860047Y-132586761D01*
X108717190Y-132634380D01*
X108479095Y-132634380D01*
X109431476Y-132586761D02*
X109574333Y-132634380D01*
X109812428Y-132634380D01*
X109907666Y-132586761D01*
X109955285Y-132539142D01*
X110002904Y-132443904D01*
X110002904Y-132348666D01*
X109955285Y-132253428D01*
X109907666Y-132205809D01*
X109812428Y-132158190D01*
X109621952Y-132110571D01*
X109526714Y-132062952D01*
X109479095Y-132015333D01*
X109431476Y-131920095D01*
X109431476Y-131824857D01*
X109479095Y-131729619D01*
X109526714Y-131682000D01*
X109621952Y-131634380D01*
X109860047Y-131634380D01*
X110002904Y-131682000D01*
X110431476Y-131634380D02*
X110431476Y-132443904D01*
X110479095Y-132539142D01*
X110526714Y-132586761D01*
X110621952Y-132634380D01*
X110812428Y-132634380D01*
X110907666Y-132586761D01*
X110955285Y-132539142D01*
X111002904Y-132443904D01*
X111002904Y-131634380D01*
X111812428Y-132110571D02*
X111955285Y-132158190D01*
X112002904Y-132205809D01*
X112050523Y-132301047D01*
X112050523Y-132443904D01*
X112002904Y-132539142D01*
X111955285Y-132586761D01*
X111860047Y-132634380D01*
X111479095Y-132634380D01*
X111479095Y-131634380D01*
X111812428Y-131634380D01*
X111907666Y-131682000D01*
X111955285Y-131729619D01*
X112002904Y-131824857D01*
X112002904Y-131920095D01*
X111955285Y-132015333D01*
X111907666Y-132062952D01*
X111812428Y-132110571D01*
X111479095Y-132110571D01*
X112479095Y-132253428D02*
X113241000Y-132253428D01*
X113764809Y-132634380D02*
X113955285Y-132634380D01*
X114050523Y-132586761D01*
X114098142Y-132539142D01*
X114193380Y-132396285D01*
X114241000Y-132205809D01*
X114241000Y-131824857D01*
X114193380Y-131729619D01*
X114145761Y-131682000D01*
X114050523Y-131634380D01*
X113860047Y-131634380D01*
X113764809Y-131682000D01*
X113717190Y-131729619D01*
X113669571Y-131824857D01*
X113669571Y-132062952D01*
X113717190Y-132158190D01*
X113764809Y-132205809D01*
X113860047Y-132253428D01*
X114050523Y-132253428D01*
X114145761Y-132205809D01*
X114193380Y-132158190D01*
X114241000Y-132062952D01*
X114431476Y-132729619D02*
X115193380Y-132729619D01*
X115764809Y-132110571D02*
X115431476Y-132110571D01*
X115431476Y-132634380D02*
X115431476Y-131634380D01*
X115907666Y-131634380D01*
X116669571Y-132586761D02*
X116574333Y-132634380D01*
X116383857Y-132634380D01*
X116288619Y-132586761D01*
X116241000Y-132491523D01*
X116241000Y-132110571D01*
X116288619Y-132015333D01*
X116383857Y-131967714D01*
X116574333Y-131967714D01*
X116669571Y-132015333D01*
X116717190Y-132110571D01*
X116717190Y-132205809D01*
X116241000Y-132301047D01*
X117145761Y-132634380D02*
X117145761Y-131967714D01*
X117145761Y-132062952D02*
X117193380Y-132015333D01*
X117288619Y-131967714D01*
X117431476Y-131967714D01*
X117526714Y-132015333D01*
X117574333Y-132110571D01*
X117574333Y-132634380D01*
X117574333Y-132110571D02*
X117621952Y-132015333D01*
X117717190Y-131967714D01*
X117860047Y-131967714D01*
X117955285Y-132015333D01*
X118002904Y-132110571D01*
X118002904Y-132634380D01*
X118907666Y-132634380D02*
X118907666Y-132110571D01*
X118860047Y-132015333D01*
X118764809Y-131967714D01*
X118574333Y-131967714D01*
X118479095Y-132015333D01*
X118907666Y-132586761D02*
X118812428Y-132634380D01*
X118574333Y-132634380D01*
X118479095Y-132586761D01*
X118431476Y-132491523D01*
X118431476Y-132396285D01*
X118479095Y-132301047D01*
X118574333Y-132253428D01*
X118812428Y-132253428D01*
X118907666Y-132205809D01*
X119526714Y-132634380D02*
X119431476Y-132586761D01*
X119383857Y-132491523D01*
X119383857Y-131634380D01*
X120288619Y-132586761D02*
X120193380Y-132634380D01*
X120002904Y-132634380D01*
X119907666Y-132586761D01*
X119860047Y-132491523D01*
X119860047Y-132110571D01*
X119907666Y-132015333D01*
X120002904Y-131967714D01*
X120193380Y-131967714D01*
X120288619Y-132015333D01*
X120336238Y-132110571D01*
X120336238Y-132205809D01*
X119860047Y-132301047D01*
X120526714Y-132729619D02*
X121288619Y-132729619D01*
X121526714Y-132634380D02*
X121526714Y-131634380D01*
X121526714Y-132110571D02*
X122098142Y-132110571D01*
X122098142Y-132634380D02*
X122098142Y-131634380D01*
X122717190Y-132634380D02*
X122621952Y-132586761D01*
X122574333Y-132539142D01*
X122526714Y-132443904D01*
X122526714Y-132158190D01*
X122574333Y-132062952D01*
X122621952Y-132015333D01*
X122717190Y-131967714D01*
X122860047Y-131967714D01*
X122955285Y-132015333D01*
X123002904Y-132062952D01*
X123050523Y-132158190D01*
X123050523Y-132443904D01*
X123002904Y-132539142D01*
X122955285Y-132586761D01*
X122860047Y-132634380D01*
X122717190Y-132634380D01*
X123479095Y-132634380D02*
X123479095Y-131967714D01*
X123479095Y-132158190D02*
X123526714Y-132062952D01*
X123574333Y-132015333D01*
X123669571Y-131967714D01*
X123764809Y-131967714D01*
X124098142Y-132634380D02*
X124098142Y-131967714D01*
X124098142Y-131634380D02*
X124050523Y-131682000D01*
X124098142Y-131729619D01*
X124145761Y-131682000D01*
X124098142Y-131634380D01*
X124098142Y-131729619D01*
X124479095Y-131967714D02*
X125002904Y-131967714D01*
X124479095Y-132634380D01*
X125002904Y-132634380D01*
X125526714Y-132634380D02*
X125431476Y-132586761D01*
X125383857Y-132539142D01*
X125336238Y-132443904D01*
X125336238Y-132158190D01*
X125383857Y-132062952D01*
X125431476Y-132015333D01*
X125526714Y-131967714D01*
X125669571Y-131967714D01*
X125764809Y-132015333D01*
X125812428Y-132062952D01*
X125860047Y-132158190D01*
X125860047Y-132443904D01*
X125812428Y-132539142D01*
X125764809Y-132586761D01*
X125669571Y-132634380D01*
X125526714Y-132634380D01*
X126288619Y-131967714D02*
X126288619Y-132634380D01*
X126288619Y-132062952D02*
X126336238Y-132015333D01*
X126431476Y-131967714D01*
X126574333Y-131967714D01*
X126669571Y-132015333D01*
X126717190Y-132110571D01*
X126717190Y-132634380D01*
X127050523Y-131967714D02*
X127431476Y-131967714D01*
X127193380Y-131634380D02*
X127193380Y-132491523D01*
X127241000Y-132586761D01*
X127336238Y-132634380D01*
X127431476Y-132634380D01*
X128193380Y-132634380D02*
X128193380Y-132110571D01*
X128145761Y-132015333D01*
X128050523Y-131967714D01*
X127860047Y-131967714D01*
X127764809Y-132015333D01*
X128193380Y-132586761D02*
X128098142Y-132634380D01*
X127860047Y-132634380D01*
X127764809Y-132586761D01*
X127717190Y-132491523D01*
X127717190Y-132396285D01*
X127764809Y-132301047D01*
X127860047Y-132253428D01*
X128098142Y-132253428D01*
X128193380Y-132205809D01*
X128812428Y-132634380D02*
X128717190Y-132586761D01*
X128669571Y-132491523D01*
X128669571Y-131634380D01*
X128955285Y-132729619D02*
X129717190Y-132729619D01*
X129955285Y-132634380D02*
X129955285Y-131634380D01*
X130336238Y-131634380D01*
X130431476Y-131682000D01*
X130479095Y-131729619D01*
X130526714Y-131824857D01*
X130526714Y-131967714D01*
X130479095Y-132062952D01*
X130431476Y-132110571D01*
X130336238Y-132158190D01*
X129955285Y-132158190D01*
X130907666Y-131729619D02*
X130955285Y-131682000D01*
X131050523Y-131634380D01*
X131288619Y-131634380D01*
X131383857Y-131682000D01*
X131431476Y-131729619D01*
X131479095Y-131824857D01*
X131479095Y-131920095D01*
X131431476Y-132062952D01*
X130860047Y-132634380D01*
X131479095Y-132634380D01*
X131907666Y-132539142D02*
X131955285Y-132586761D01*
X131907666Y-132634380D01*
X131860047Y-132586761D01*
X131907666Y-132539142D01*
X131907666Y-132634380D01*
X132288619Y-131634380D02*
X132955285Y-131634380D01*
X132526714Y-132634380D01*
X133241000Y-131634380D02*
X133907666Y-131634380D01*
X133479095Y-132634380D01*
X134193380Y-132634380D02*
X134717190Y-131967714D01*
X134193380Y-131967714D02*
X134717190Y-132634380D01*
X135050523Y-131729619D02*
X135098142Y-131682000D01*
X135193380Y-131634380D01*
X135431476Y-131634380D01*
X135526714Y-131682000D01*
X135574333Y-131729619D01*
X135621952Y-131824857D01*
X135621952Y-131920095D01*
X135574333Y-132062952D01*
X135002904Y-132634380D01*
X135621952Y-132634380D01*
X136050523Y-132539142D02*
X136098142Y-132586761D01*
X136050523Y-132634380D01*
X136002904Y-132586761D01*
X136050523Y-132539142D01*
X136050523Y-132634380D01*
X136669571Y-132062952D02*
X136574333Y-132015333D01*
X136526714Y-131967714D01*
X136479095Y-131872476D01*
X136479095Y-131824857D01*
X136526714Y-131729619D01*
X136574333Y-131682000D01*
X136669571Y-131634380D01*
X136860047Y-131634380D01*
X136955285Y-131682000D01*
X137002904Y-131729619D01*
X137050523Y-131824857D01*
X137050523Y-131872476D01*
X137002904Y-131967714D01*
X136955285Y-132015333D01*
X136860047Y-132062952D01*
X136669571Y-132062952D01*
X136574333Y-132110571D01*
X136526714Y-132158190D01*
X136479095Y-132253428D01*
X136479095Y-132443904D01*
X136526714Y-132539142D01*
X136574333Y-132586761D01*
X136669571Y-132634380D01*
X136860047Y-132634380D01*
X136955285Y-132586761D01*
X137002904Y-132539142D01*
X137050523Y-132443904D01*
X137050523Y-132253428D01*
X137002904Y-132158190D01*
X136955285Y-132110571D01*
X136860047Y-132062952D01*
X137907666Y-131967714D02*
X137907666Y-132634380D01*
X137669571Y-131586761D02*
X137431476Y-132301047D01*
X138050523Y-132301047D01*
X138431476Y-132634380D02*
X138431476Y-131967714D01*
X138431476Y-132062952D02*
X138479095Y-132015333D01*
X138574333Y-131967714D01*
X138717190Y-131967714D01*
X138812428Y-132015333D01*
X138860047Y-132110571D01*
X138860047Y-132634380D01*
X138860047Y-132110571D02*
X138907666Y-132015333D01*
X139002904Y-131967714D01*
X139145761Y-131967714D01*
X139241000Y-132015333D01*
X139288619Y-132110571D01*
X139288619Y-132634380D01*
X139764809Y-132634380D02*
X139764809Y-131967714D01*
X139764809Y-132062952D02*
X139812428Y-132015333D01*
X139907666Y-131967714D01*
X140050523Y-131967714D01*
X140145761Y-132015333D01*
X140193380Y-132110571D01*
X140193380Y-132634380D01*
X140193380Y-132110571D02*
X140241000Y-132015333D01*
X140336238Y-131967714D01*
X140479095Y-131967714D01*
X140574333Y-132015333D01*
X140621952Y-132110571D01*
X140621952Y-132634380D01*
X140860047Y-132729619D02*
X141621952Y-132729619D01*
X141860047Y-132110571D02*
X142193380Y-132110571D01*
X142336238Y-132634380D02*
X141860047Y-132634380D01*
X141860047Y-131634380D01*
X142336238Y-131634380D01*
X143193380Y-132634380D02*
X143193380Y-131634380D01*
X143193380Y-132586761D02*
X143098142Y-132634380D01*
X142907666Y-132634380D01*
X142812428Y-132586761D01*
X142764809Y-132539142D01*
X142717190Y-132443904D01*
X142717190Y-132158190D01*
X142764809Y-132062952D01*
X142812428Y-132015333D01*
X142907666Y-131967714D01*
X143098142Y-131967714D01*
X143193380Y-132015333D01*
X144098142Y-131967714D02*
X144098142Y-132777238D01*
X144050523Y-132872476D01*
X144002904Y-132920095D01*
X143907666Y-132967714D01*
X143764809Y-132967714D01*
X143669571Y-132920095D01*
X144098142Y-132586761D02*
X144002904Y-132634380D01*
X143812428Y-132634380D01*
X143717190Y-132586761D01*
X143669571Y-132539142D01*
X143621952Y-132443904D01*
X143621952Y-132158190D01*
X143669571Y-132062952D01*
X143717190Y-132015333D01*
X143812428Y-131967714D01*
X144002904Y-131967714D01*
X144098142Y-132015333D01*
X144955285Y-132586761D02*
X144860047Y-132634380D01*
X144669571Y-132634380D01*
X144574333Y-132586761D01*
X144526714Y-132491523D01*
X144526714Y-132110571D01*
X144574333Y-132015333D01*
X144669571Y-131967714D01*
X144860047Y-131967714D01*
X144955285Y-132015333D01*
X145002904Y-132110571D01*
X145002904Y-132205809D01*
X144526714Y-132301047D01*
X145431476Y-132634380D02*
X145431476Y-131634380D01*
X145812428Y-131634380D01*
X145907666Y-131682000D01*
X145955285Y-131729619D01*
X146002904Y-131824857D01*
X146002904Y-131967714D01*
X145955285Y-132062952D01*
X145907666Y-132110571D01*
X145812428Y-132158190D01*
X145431476Y-132158190D01*
X146431476Y-132634380D02*
X146431476Y-131967714D01*
X146431476Y-131634380D02*
X146383857Y-131682000D01*
X146431476Y-131729619D01*
X146479095Y-131682000D01*
X146431476Y-131634380D01*
X146431476Y-131729619D01*
X146907666Y-131967714D02*
X146907666Y-132634380D01*
X146907666Y-132062952D02*
X146955285Y-132015333D01*
X147050523Y-131967714D01*
X147193380Y-131967714D01*
X147288619Y-132015333D01*
X147336238Y-132110571D01*
X147336238Y-132634380D01*
X148002904Y-131634380D02*
X148193380Y-131634380D01*
X148288619Y-131682000D01*
X148383857Y-131777238D01*
X148431476Y-131967714D01*
X148431476Y-132301047D01*
X148383857Y-132491523D01*
X148288619Y-132586761D01*
X148193380Y-132634380D01*
X148002904Y-132634380D01*
X147907666Y-132586761D01*
X147812428Y-132491523D01*
X147764809Y-132301047D01*
X147764809Y-131967714D01*
X147812428Y-131777238D01*
X147907666Y-131682000D01*
X148002904Y-131634380D01*
X148717190Y-131967714D02*
X149098142Y-131967714D01*
X148860047Y-132634380D02*
X148860047Y-131777238D01*
X148907666Y-131682000D01*
X149002904Y-131634380D01*
X149098142Y-131634380D01*
X149288619Y-131967714D02*
X149669571Y-131967714D01*
X149431476Y-132634380D02*
X149431476Y-131777238D01*
X149479095Y-131682000D01*
X149574333Y-131634380D01*
X149669571Y-131634380D01*
X149955285Y-132586761D02*
X150050523Y-132634380D01*
X150241000Y-132634380D01*
X150336238Y-132586761D01*
X150383857Y-132491523D01*
X150383857Y-132443904D01*
X150336238Y-132348666D01*
X150241000Y-132301047D01*
X150098142Y-132301047D01*
X150002904Y-132253428D01*
X149955285Y-132158190D01*
X149955285Y-132110571D01*
X150002904Y-132015333D01*
X150098142Y-131967714D01*
X150241000Y-131967714D01*
X150336238Y-132015333D01*
X151193380Y-132586761D02*
X151098142Y-132634380D01*
X150907666Y-132634380D01*
X150812428Y-132586761D01*
X150764809Y-132491523D01*
X150764809Y-132110571D01*
X150812428Y-132015333D01*
X150907666Y-131967714D01*
X151098142Y-131967714D01*
X151193380Y-132015333D01*
X151241000Y-132110571D01*
X151241000Y-132205809D01*
X150764809Y-132301047D01*
X151526714Y-131967714D02*
X151907666Y-131967714D01*
X151669571Y-131634380D02*
X151669571Y-132491523D01*
X151717190Y-132586761D01*
X151812428Y-132634380D01*
X151907666Y-132634380D01*
X152669571Y-131967714D02*
X152669571Y-132634380D01*
X152431476Y-131586761D02*
X152193380Y-132301047D01*
X152812428Y-132301047D01*
X153193380Y-132539142D02*
X153241000Y-132586761D01*
X153193380Y-132634380D01*
X153145761Y-132586761D01*
X153193380Y-132539142D01*
X153193380Y-132634380D01*
X153717190Y-132634380D02*
X153907666Y-132634380D01*
X154002904Y-132586761D01*
X154050523Y-132539142D01*
X154145761Y-132396285D01*
X154193380Y-132205809D01*
X154193380Y-131824857D01*
X154145761Y-131729619D01*
X154098142Y-131682000D01*
X154002904Y-131634380D01*
X153812428Y-131634380D01*
X153717190Y-131682000D01*
X153669571Y-131729619D01*
X153621952Y-131824857D01*
X153621952Y-132062952D01*
X153669571Y-132158190D01*
X153717190Y-132205809D01*
X153812428Y-132253428D01*
X154002904Y-132253428D01*
X154098142Y-132205809D01*
X154145761Y-132158190D01*
X154193380Y-132062952D01*
X155050523Y-131967714D02*
X155050523Y-132634380D01*
X154812428Y-131586761D02*
X154574333Y-132301047D01*
X155193380Y-132301047D01*
X155574333Y-132634380D02*
X155574333Y-131967714D01*
X155574333Y-132062952D02*
X155621952Y-132015333D01*
X155717190Y-131967714D01*
X155860047Y-131967714D01*
X155955285Y-132015333D01*
X156002904Y-132110571D01*
X156002904Y-132634380D01*
X156002904Y-132110571D02*
X156050523Y-132015333D01*
X156145761Y-131967714D01*
X156288619Y-131967714D01*
X156383857Y-132015333D01*
X156431476Y-132110571D01*
X156431476Y-132634380D01*
X156907666Y-132634380D02*
X156907666Y-131967714D01*
X156907666Y-132062952D02*
X156955285Y-132015333D01*
X157050523Y-131967714D01*
X157193380Y-131967714D01*
X157288619Y-132015333D01*
X157336238Y-132110571D01*
X157336238Y-132634380D01*
X157336238Y-132110571D02*
X157383857Y-132015333D01*
X157479095Y-131967714D01*
X157621952Y-131967714D01*
X157717190Y-132015333D01*
X157764809Y-132110571D01*
X157764809Y-132634380D01*
X158002904Y-132729619D02*
X158764809Y-132729619D01*
X159002904Y-132634380D02*
X159002904Y-131634380D01*
X159002904Y-132110571D02*
X159574333Y-132110571D01*
X159574333Y-132634380D02*
X159574333Y-131634380D01*
X160193380Y-132634380D02*
X160098142Y-132586761D01*
X160050523Y-132539142D01*
X160002904Y-132443904D01*
X160002904Y-132158190D01*
X160050523Y-132062952D01*
X160098142Y-132015333D01*
X160193380Y-131967714D01*
X160336238Y-131967714D01*
X160431476Y-132015333D01*
X160479095Y-132062952D01*
X160526714Y-132158190D01*
X160526714Y-132443904D01*
X160479095Y-132539142D01*
X160431476Y-132586761D01*
X160336238Y-132634380D01*
X160193380Y-132634380D01*
X161383857Y-131967714D02*
X161383857Y-132634380D01*
X160955285Y-131967714D02*
X160955285Y-132491523D01*
X161002904Y-132586761D01*
X161098142Y-132634380D01*
X161241000Y-132634380D01*
X161336238Y-132586761D01*
X161383857Y-132539142D01*
X161812428Y-132586761D02*
X161907666Y-132634380D01*
X162098142Y-132634380D01*
X162193380Y-132586761D01*
X162241000Y-132491523D01*
X162241000Y-132443904D01*
X162193380Y-132348666D01*
X162098142Y-132301047D01*
X161955285Y-132301047D01*
X161860047Y-132253428D01*
X161812428Y-132158190D01*
X161812428Y-132110571D01*
X161860047Y-132015333D01*
X161955285Y-131967714D01*
X162098142Y-131967714D01*
X162193380Y-132015333D01*
X163050523Y-132586761D02*
X162955285Y-132634380D01*
X162764809Y-132634380D01*
X162669571Y-132586761D01*
X162621952Y-132491523D01*
X162621952Y-132110571D01*
X162669571Y-132015333D01*
X162764809Y-131967714D01*
X162955285Y-131967714D01*
X163050523Y-132015333D01*
X163098142Y-132110571D01*
X163098142Y-132205809D01*
X162621952Y-132301047D01*
X163955285Y-132634380D02*
X163955285Y-131634380D01*
X163955285Y-132586761D02*
X163860047Y-132634380D01*
X163669571Y-132634380D01*
X163574333Y-132586761D01*
X163526714Y-132539142D01*
X163479095Y-132443904D01*
X163479095Y-132158190D01*
X163526714Y-132062952D01*
X163574333Y-132015333D01*
X163669571Y-131967714D01*
X163860047Y-131967714D01*
X163955285Y-132015333D01*
X164193380Y-132729619D02*
X164955285Y-132729619D01*
X165193380Y-132634380D02*
X165193380Y-131634380D01*
X165526714Y-132348666D01*
X165860047Y-131634380D01*
X165860047Y-132634380D01*
X166479095Y-132634380D02*
X166383857Y-132586761D01*
X166336238Y-132539142D01*
X166288619Y-132443904D01*
X166288619Y-132158190D01*
X166336238Y-132062952D01*
X166383857Y-132015333D01*
X166479095Y-131967714D01*
X166621952Y-131967714D01*
X166717190Y-132015333D01*
X166764809Y-132062952D01*
X166812428Y-132158190D01*
X166812428Y-132443904D01*
X166764809Y-132539142D01*
X166717190Y-132586761D01*
X166621952Y-132634380D01*
X166479095Y-132634380D01*
X167669571Y-131967714D02*
X167669571Y-132634380D01*
X167241000Y-131967714D02*
X167241000Y-132491523D01*
X167288619Y-132586761D01*
X167383857Y-132634380D01*
X167526714Y-132634380D01*
X167621952Y-132586761D01*
X167669571Y-132539142D01*
X168145761Y-131967714D02*
X168145761Y-132634380D01*
X168145761Y-132062952D02*
X168193380Y-132015333D01*
X168288619Y-131967714D01*
X168431476Y-131967714D01*
X168526714Y-132015333D01*
X168574333Y-132110571D01*
X168574333Y-132634380D01*
X168907666Y-131967714D02*
X169288619Y-131967714D01*
X169050523Y-131634380D02*
X169050523Y-132491523D01*
X169098142Y-132586761D01*
X169193380Y-132634380D01*
X169288619Y-132634380D01*
X169621952Y-132634380D02*
X169621952Y-131967714D01*
X169621952Y-131634380D02*
X169574333Y-131682000D01*
X169621952Y-131729619D01*
X169669571Y-131682000D01*
X169621952Y-131634380D01*
X169621952Y-131729619D01*
X170098142Y-131967714D02*
X170098142Y-132634380D01*
X170098142Y-132062952D02*
X170145761Y-132015333D01*
X170241000Y-131967714D01*
X170383857Y-131967714D01*
X170479095Y-132015333D01*
X170526714Y-132110571D01*
X170526714Y-132634380D01*
X171431476Y-131967714D02*
X171431476Y-132777238D01*
X171383857Y-132872476D01*
X171336238Y-132920095D01*
X171241000Y-132967714D01*
X171098142Y-132967714D01*
X171002904Y-132920095D01*
X171431476Y-132586761D02*
X171336238Y-132634380D01*
X171145761Y-132634380D01*
X171050523Y-132586761D01*
X171002904Y-132539142D01*
X170955285Y-132443904D01*
X170955285Y-132158190D01*
X171002904Y-132062952D01*
X171050523Y-132015333D01*
X171145761Y-131967714D01*
X171336238Y-131967714D01*
X171431476Y-132015333D01*
X171907666Y-132634380D02*
X171907666Y-131634380D01*
X171907666Y-132110571D02*
X172479095Y-132110571D01*
X172479095Y-132634380D02*
X172479095Y-131634380D01*
X173098142Y-132634380D02*
X173002904Y-132586761D01*
X172955285Y-132539142D01*
X172907666Y-132443904D01*
X172907666Y-132158190D01*
X172955285Y-132062952D01*
X173002904Y-132015333D01*
X173098142Y-131967714D01*
X173241000Y-131967714D01*
X173336238Y-132015333D01*
X173383857Y-132062952D01*
X173431476Y-132158190D01*
X173431476Y-132443904D01*
X173383857Y-132539142D01*
X173336238Y-132586761D01*
X173241000Y-132634380D01*
X173098142Y-132634380D01*
X174002904Y-132634380D02*
X173907666Y-132586761D01*
X173860047Y-132491523D01*
X173860047Y-131634380D01*
X174764809Y-132586761D02*
X174669571Y-132634380D01*
X174479095Y-132634380D01*
X174383857Y-132586761D01*
X174336238Y-132491523D01*
X174336238Y-132110571D01*
X174383857Y-132015333D01*
X174479095Y-131967714D01*
X174669571Y-131967714D01*
X174764809Y-132015333D01*
X174812428Y-132110571D01*
X174812428Y-132205809D01*
X174336238Y-132301047D01*
X175193380Y-132586761D02*
X175288619Y-132634380D01*
X175479095Y-132634380D01*
X175574333Y-132586761D01*
X175621952Y-132491523D01*
X175621952Y-132443904D01*
X175574333Y-132348666D01*
X175479095Y-132301047D01*
X175336238Y-132301047D01*
X175241000Y-132253428D01*
X175193380Y-132158190D01*
X175193380Y-132110571D01*
X175241000Y-132015333D01*
X175336238Y-131967714D01*
X175479095Y-131967714D01*
X175574333Y-132015333D01*
X176241000Y-131634380D02*
X176431476Y-131634380D01*
X176526714Y-131682000D01*
X176621952Y-131777238D01*
X176669571Y-131967714D01*
X176669571Y-132301047D01*
X176621952Y-132491523D01*
X176526714Y-132586761D01*
X176431476Y-132634380D01*
X176241000Y-132634380D01*
X176145761Y-132586761D01*
X176050523Y-132491523D01*
X176002904Y-132301047D01*
X176002904Y-131967714D01*
X176050523Y-131777238D01*
X176145761Y-131682000D01*
X176241000Y-131634380D01*
X176955285Y-131967714D02*
X177336238Y-131967714D01*
X177098142Y-132634380D02*
X177098142Y-131777238D01*
X177145761Y-131682000D01*
X177241000Y-131634380D01*
X177336238Y-131634380D01*
X177526714Y-131967714D02*
X177907666Y-131967714D01*
X177669571Y-132634380D02*
X177669571Y-131777238D01*
X177717190Y-131682000D01*
X177812428Y-131634380D01*
X177907666Y-131634380D01*
X178193380Y-132586761D02*
X178288619Y-132634380D01*
X178479095Y-132634380D01*
X178574333Y-132586761D01*
X178621952Y-132491523D01*
X178621952Y-132443904D01*
X178574333Y-132348666D01*
X178479095Y-132301047D01*
X178336238Y-132301047D01*
X178241000Y-132253428D01*
X178193380Y-132158190D01*
X178193380Y-132110571D01*
X178241000Y-132015333D01*
X178336238Y-131967714D01*
X178479095Y-131967714D01*
X178574333Y-132015333D01*
X179431476Y-132586761D02*
X179336238Y-132634380D01*
X179145761Y-132634380D01*
X179050523Y-132586761D01*
X179002904Y-132491523D01*
X179002904Y-132110571D01*
X179050523Y-132015333D01*
X179145761Y-131967714D01*
X179336238Y-131967714D01*
X179431476Y-132015333D01*
X179479095Y-132110571D01*
X179479095Y-132205809D01*
X179002904Y-132301047D01*
X179764809Y-131967714D02*
X180145761Y-131967714D01*
X179907666Y-131634380D02*
X179907666Y-132491523D01*
X179955285Y-132586761D01*
X180050523Y-132634380D01*
X180145761Y-132634380D01*
X180383857Y-131634380D02*
X181050523Y-131634380D01*
X180621952Y-132634380D01*
X181431476Y-132539142D02*
X181479095Y-132586761D01*
X181431476Y-132634380D01*
X181383857Y-132586761D01*
X181431476Y-132539142D01*
X181431476Y-132634380D01*
X182336238Y-131967714D02*
X182336238Y-132634380D01*
X182098142Y-131586761D02*
X181860047Y-132301047D01*
X182479095Y-132301047D01*
X183002904Y-132062952D02*
X182907666Y-132015333D01*
X182860047Y-131967714D01*
X182812428Y-131872476D01*
X182812428Y-131824857D01*
X182860047Y-131729619D01*
X182907666Y-131682000D01*
X183002904Y-131634380D01*
X183193380Y-131634380D01*
X183288619Y-131682000D01*
X183336238Y-131729619D01*
X183383857Y-131824857D01*
X183383857Y-131872476D01*
X183336238Y-131967714D01*
X183288619Y-132015333D01*
X183193380Y-132062952D01*
X183002904Y-132062952D01*
X182907666Y-132110571D01*
X182860047Y-132158190D01*
X182812428Y-132253428D01*
X182812428Y-132443904D01*
X182860047Y-132539142D01*
X182907666Y-132586761D01*
X183002904Y-132634380D01*
X183193380Y-132634380D01*
X183288619Y-132586761D01*
X183336238Y-132539142D01*
X183383857Y-132443904D01*
X183383857Y-132253428D01*
X183336238Y-132158190D01*
X183288619Y-132110571D01*
X183193380Y-132062952D01*
X183812428Y-132634380D02*
X183812428Y-131967714D01*
X183812428Y-132062952D02*
X183860047Y-132015333D01*
X183955285Y-131967714D01*
X184098142Y-131967714D01*
X184193380Y-132015333D01*
X184241000Y-132110571D01*
X184241000Y-132634380D01*
X184241000Y-132110571D02*
X184288619Y-132015333D01*
X184383857Y-131967714D01*
X184526714Y-131967714D01*
X184621952Y-132015333D01*
X184669571Y-132110571D01*
X184669571Y-132634380D01*
X185145761Y-132634380D02*
X185145761Y-131967714D01*
X185145761Y-132062952D02*
X185193380Y-132015333D01*
X185288619Y-131967714D01*
X185431476Y-131967714D01*
X185526714Y-132015333D01*
X185574333Y-132110571D01*
X185574333Y-132634380D01*
X185574333Y-132110571D02*
X185621952Y-132015333D01*
X185717190Y-131967714D01*
X185860047Y-131967714D01*
X185955285Y-132015333D01*
X186002904Y-132110571D01*
X186002904Y-132634380D01*
X138217190Y-127525571D02*
X137883857Y-127525571D01*
X137883857Y-128049380D02*
X137883857Y-127049380D01*
X138360047Y-127049380D01*
X139121952Y-128001761D02*
X139026714Y-128049380D01*
X138836238Y-128049380D01*
X138741000Y-128001761D01*
X138693380Y-127906523D01*
X138693380Y-127525571D01*
X138741000Y-127430333D01*
X138836238Y-127382714D01*
X139026714Y-127382714D01*
X139121952Y-127430333D01*
X139169571Y-127525571D01*
X139169571Y-127620809D01*
X138693380Y-127716047D01*
X139598142Y-128049380D02*
X139598142Y-127382714D01*
X139598142Y-127477952D02*
X139645761Y-127430333D01*
X139741000Y-127382714D01*
X139883857Y-127382714D01*
X139979095Y-127430333D01*
X140026714Y-127525571D01*
X140026714Y-128049380D01*
X140026714Y-127525571D02*
X140074333Y-127430333D01*
X140169571Y-127382714D01*
X140312428Y-127382714D01*
X140407666Y-127430333D01*
X140455285Y-127525571D01*
X140455285Y-128049380D01*
X141360047Y-128049380D02*
X141360047Y-127525571D01*
X141312428Y-127430333D01*
X141217190Y-127382714D01*
X141026714Y-127382714D01*
X140931476Y-127430333D01*
X141360047Y-128001761D02*
X141264809Y-128049380D01*
X141026714Y-128049380D01*
X140931476Y-128001761D01*
X140883857Y-127906523D01*
X140883857Y-127811285D01*
X140931476Y-127716047D01*
X141026714Y-127668428D01*
X141264809Y-127668428D01*
X141360047Y-127620809D01*
X141979095Y-128049380D02*
X141883857Y-128001761D01*
X141836238Y-127906523D01*
X141836238Y-127049380D01*
X142741000Y-128001761D02*
X142645761Y-128049380D01*
X142455285Y-128049380D01*
X142360047Y-128001761D01*
X142312428Y-127906523D01*
X142312428Y-127525571D01*
X142360047Y-127430333D01*
X142455285Y-127382714D01*
X142645761Y-127382714D01*
X142741000Y-127430333D01*
X142788619Y-127525571D01*
X142788619Y-127620809D01*
X142312428Y-127716047D01*
X143979095Y-128049380D02*
X143979095Y-127049380D01*
X144217190Y-127049380D01*
X144360047Y-127097000D01*
X144455285Y-127192238D01*
X144502904Y-127287476D01*
X144550523Y-127477952D01*
X144550523Y-127620809D01*
X144502904Y-127811285D01*
X144455285Y-127906523D01*
X144360047Y-128001761D01*
X144217190Y-128049380D01*
X143979095Y-128049380D01*
X144931476Y-128001761D02*
X145074333Y-128049380D01*
X145312428Y-128049380D01*
X145407666Y-128001761D01*
X145455285Y-127954142D01*
X145502904Y-127858904D01*
X145502904Y-127763666D01*
X145455285Y-127668428D01*
X145407666Y-127620809D01*
X145312428Y-127573190D01*
X145121952Y-127525571D01*
X145026714Y-127477952D01*
X144979095Y-127430333D01*
X144931476Y-127335095D01*
X144931476Y-127239857D01*
X144979095Y-127144619D01*
X145026714Y-127097000D01*
X145121952Y-127049380D01*
X145360047Y-127049380D01*
X145502904Y-127097000D01*
X145931476Y-127049380D02*
X145931476Y-127858904D01*
X145979095Y-127954142D01*
X146026714Y-128001761D01*
X146121952Y-128049380D01*
X146312428Y-128049380D01*
X146407666Y-128001761D01*
X146455285Y-127954142D01*
X146502904Y-127858904D01*
X146502904Y-127049380D01*
X147312428Y-127525571D02*
X147455285Y-127573190D01*
X147502904Y-127620809D01*
X147550523Y-127716047D01*
X147550523Y-127858904D01*
X147502904Y-127954142D01*
X147455285Y-128001761D01*
X147360047Y-128049380D01*
X146979095Y-128049380D01*
X146979095Y-127049380D01*
X147312428Y-127049380D01*
X147407666Y-127097000D01*
X147455285Y-127144619D01*
X147502904Y-127239857D01*
X147502904Y-127335095D01*
X147455285Y-127430333D01*
X147407666Y-127477952D01*
X147312428Y-127525571D01*
X146979095Y-127525571D01*
X148026714Y-128049380D02*
X148217190Y-128049380D01*
X148312428Y-128001761D01*
X148360047Y-127954142D01*
X148455285Y-127811285D01*
X148502904Y-127620809D01*
X148502904Y-127239857D01*
X148455285Y-127144619D01*
X148407666Y-127097000D01*
X148312428Y-127049380D01*
X148121952Y-127049380D01*
X148026714Y-127097000D01*
X147979095Y-127144619D01*
X147931476Y-127239857D01*
X147931476Y-127477952D01*
X147979095Y-127573190D01*
X148026714Y-127620809D01*
X148121952Y-127668428D01*
X148312428Y-127668428D01*
X148407666Y-127620809D01*
X148455285Y-127573190D01*
X148502904Y-127477952D01*
X150121952Y-128001761D02*
X150026714Y-128049380D01*
X149836238Y-128049380D01*
X149741000Y-128001761D01*
X149693380Y-127954142D01*
X149645761Y-127858904D01*
X149645761Y-127573190D01*
X149693380Y-127477952D01*
X149741000Y-127430333D01*
X149836238Y-127382714D01*
X150026714Y-127382714D01*
X150121952Y-127430333D01*
X150693380Y-128049380D02*
X150598142Y-128001761D01*
X150550523Y-127954142D01*
X150502904Y-127858904D01*
X150502904Y-127573190D01*
X150550523Y-127477952D01*
X150598142Y-127430333D01*
X150693380Y-127382714D01*
X150836238Y-127382714D01*
X150931476Y-127430333D01*
X150979095Y-127477952D01*
X151026714Y-127573190D01*
X151026714Y-127858904D01*
X150979095Y-127954142D01*
X150931476Y-128001761D01*
X150836238Y-128049380D01*
X150693380Y-128049380D01*
X151455285Y-127382714D02*
X151455285Y-128049380D01*
X151455285Y-127477952D02*
X151502904Y-127430333D01*
X151598142Y-127382714D01*
X151741000Y-127382714D01*
X151836238Y-127430333D01*
X151883857Y-127525571D01*
X151883857Y-128049380D01*
X152360047Y-127382714D02*
X152360047Y-128049380D01*
X152360047Y-127477952D02*
X152407666Y-127430333D01*
X152502904Y-127382714D01*
X152645761Y-127382714D01*
X152741000Y-127430333D01*
X152788619Y-127525571D01*
X152788619Y-128049380D01*
X153645761Y-128001761D02*
X153550523Y-128049380D01*
X153360047Y-128049380D01*
X153264809Y-128001761D01*
X153217190Y-127906523D01*
X153217190Y-127525571D01*
X153264809Y-127430333D01*
X153360047Y-127382714D01*
X153550523Y-127382714D01*
X153645761Y-127430333D01*
X153693380Y-127525571D01*
X153693380Y-127620809D01*
X153217190Y-127716047D01*
X154550523Y-128001761D02*
X154455285Y-128049380D01*
X154264809Y-128049380D01*
X154169571Y-128001761D01*
X154121952Y-127954142D01*
X154074333Y-127858904D01*
X154074333Y-127573190D01*
X154121952Y-127477952D01*
X154169571Y-127430333D01*
X154264809Y-127382714D01*
X154455285Y-127382714D01*
X154550523Y-127430333D01*
X154836238Y-127382714D02*
X155217190Y-127382714D01*
X154979095Y-127049380D02*
X154979095Y-127906523D01*
X155026714Y-128001761D01*
X155121952Y-128049380D01*
X155217190Y-128049380D01*
X155693380Y-128049380D02*
X155598142Y-128001761D01*
X155550523Y-127954142D01*
X155502904Y-127858904D01*
X155502904Y-127573190D01*
X155550523Y-127477952D01*
X155598142Y-127430333D01*
X155693380Y-127382714D01*
X155836238Y-127382714D01*
X155931476Y-127430333D01*
X155979095Y-127477952D01*
X156026714Y-127573190D01*
X156026714Y-127858904D01*
X155979095Y-127954142D01*
X155931476Y-128001761D01*
X155836238Y-128049380D01*
X155693380Y-128049380D01*
X156455285Y-128049380D02*
X156455285Y-127382714D01*
X156455285Y-127573190D02*
X156502904Y-127477952D01*
X156550523Y-127430333D01*
X156645761Y-127382714D01*
X156741000Y-127382714D01*
%TO.C,DIODE*%
X139859523Y-115932380D02*
X139859523Y-114932380D01*
X140097619Y-114932380D01*
X140240476Y-114980000D01*
X140335714Y-115075238D01*
X140383333Y-115170476D01*
X140430952Y-115360952D01*
X140430952Y-115503809D01*
X140383333Y-115694285D01*
X140335714Y-115789523D01*
X140240476Y-115884761D01*
X140097619Y-115932380D01*
X139859523Y-115932380D01*
X140621428Y-116027619D02*
X141383333Y-116027619D01*
X141573809Y-115646666D02*
X142050000Y-115646666D01*
X141478571Y-115932380D02*
X141811904Y-114932380D01*
X142145238Y-115932380D01*
X142478571Y-115551428D02*
X143240476Y-115551428D01*
X144145238Y-115265714D02*
X144145238Y-115932380D01*
X143907142Y-114884761D02*
X143669047Y-115599047D01*
X144288095Y-115599047D01*
X144859523Y-114932380D02*
X144954761Y-114932380D01*
X145050000Y-114980000D01*
X145097619Y-115027619D01*
X145145238Y-115122857D01*
X145192857Y-115313333D01*
X145192857Y-115551428D01*
X145145238Y-115741904D01*
X145097619Y-115837142D01*
X145050000Y-115884761D01*
X144954761Y-115932380D01*
X144859523Y-115932380D01*
X144764285Y-115884761D01*
X144716666Y-115837142D01*
X144669047Y-115741904D01*
X144621428Y-115551428D01*
X144621428Y-115313333D01*
X144669047Y-115122857D01*
X144716666Y-115027619D01*
X144764285Y-114980000D01*
X144859523Y-114932380D01*
X146097619Y-114932380D02*
X145621428Y-114932380D01*
X145573809Y-115408571D01*
X145621428Y-115360952D01*
X145716666Y-115313333D01*
X145954761Y-115313333D01*
X146050000Y-115360952D01*
X146097619Y-115408571D01*
X146145238Y-115503809D01*
X146145238Y-115741904D01*
X146097619Y-115837142D01*
X146050000Y-115884761D01*
X145954761Y-115932380D01*
X145716666Y-115932380D01*
X145621428Y-115884761D01*
X145573809Y-115837142D01*
X146335714Y-116027619D02*
X147097619Y-116027619D01*
X147335714Y-115932380D02*
X147335714Y-114932380D01*
X147716666Y-114932380D01*
X147811904Y-114980000D01*
X147859523Y-115027619D01*
X147907142Y-115122857D01*
X147907142Y-115265714D01*
X147859523Y-115360952D01*
X147811904Y-115408571D01*
X147716666Y-115456190D01*
X147335714Y-115456190D01*
X148859523Y-115932380D02*
X148288095Y-115932380D01*
X148573809Y-115932380D02*
X148573809Y-114932380D01*
X148478571Y-115075238D01*
X148383333Y-115170476D01*
X148288095Y-115218095D01*
X149478571Y-114932380D02*
X149573809Y-114932380D01*
X149669047Y-114980000D01*
X149716666Y-115027619D01*
X149764285Y-115122857D01*
X149811904Y-115313333D01*
X149811904Y-115551428D01*
X149764285Y-115741904D01*
X149716666Y-115837142D01*
X149669047Y-115884761D01*
X149573809Y-115932380D01*
X149478571Y-115932380D01*
X149383333Y-115884761D01*
X149335714Y-115837142D01*
X149288095Y-115741904D01*
X149240476Y-115551428D01*
X149240476Y-115313333D01*
X149288095Y-115122857D01*
X149335714Y-115027619D01*
X149383333Y-114980000D01*
X149478571Y-114932380D01*
X150240476Y-115837142D02*
X150288095Y-115884761D01*
X150240476Y-115932380D01*
X150192857Y-115884761D01*
X150240476Y-115837142D01*
X150240476Y-115932380D01*
X151240476Y-115932380D02*
X150669047Y-115932380D01*
X150954761Y-115932380D02*
X150954761Y-114932380D01*
X150859523Y-115075238D01*
X150764285Y-115170476D01*
X150669047Y-115218095D01*
X152097619Y-114932380D02*
X151907142Y-114932380D01*
X151811904Y-114980000D01*
X151764285Y-115027619D01*
X151669047Y-115170476D01*
X151621428Y-115360952D01*
X151621428Y-115741904D01*
X151669047Y-115837142D01*
X151716666Y-115884761D01*
X151811904Y-115932380D01*
X152002380Y-115932380D01*
X152097619Y-115884761D01*
X152145238Y-115837142D01*
X152192857Y-115741904D01*
X152192857Y-115503809D01*
X152145238Y-115408571D01*
X152097619Y-115360952D01*
X152002380Y-115313333D01*
X151811904Y-115313333D01*
X151716666Y-115360952D01*
X151669047Y-115408571D01*
X151621428Y-115503809D01*
X152621428Y-115932380D02*
X152621428Y-115265714D01*
X152621428Y-115360952D02*
X152669047Y-115313333D01*
X152764285Y-115265714D01*
X152907142Y-115265714D01*
X153002380Y-115313333D01*
X153050000Y-115408571D01*
X153050000Y-115932380D01*
X153050000Y-115408571D02*
X153097619Y-115313333D01*
X153192857Y-115265714D01*
X153335714Y-115265714D01*
X153430952Y-115313333D01*
X153478571Y-115408571D01*
X153478571Y-115932380D01*
X153954761Y-115932380D02*
X153954761Y-115265714D01*
X153954761Y-115360952D02*
X154002380Y-115313333D01*
X154097619Y-115265714D01*
X154240476Y-115265714D01*
X154335714Y-115313333D01*
X154383333Y-115408571D01*
X154383333Y-115932380D01*
X154383333Y-115408571D02*
X154430952Y-115313333D01*
X154526190Y-115265714D01*
X154669047Y-115265714D01*
X154764285Y-115313333D01*
X154811904Y-115408571D01*
X154811904Y-115932380D01*
X155050000Y-116027619D02*
X155811904Y-116027619D01*
X156050000Y-115932380D02*
X156050000Y-114932380D01*
X156050000Y-115408571D02*
X156621428Y-115408571D01*
X156621428Y-115932380D02*
X156621428Y-114932380D01*
X157240476Y-115932380D02*
X157145238Y-115884761D01*
X157097619Y-115837142D01*
X157050000Y-115741904D01*
X157050000Y-115456190D01*
X157097619Y-115360952D01*
X157145238Y-115313333D01*
X157240476Y-115265714D01*
X157383333Y-115265714D01*
X157478571Y-115313333D01*
X157526190Y-115360952D01*
X157573809Y-115456190D01*
X157573809Y-115741904D01*
X157526190Y-115837142D01*
X157478571Y-115884761D01*
X157383333Y-115932380D01*
X157240476Y-115932380D01*
X158002380Y-115932380D02*
X158002380Y-115265714D01*
X158002380Y-115456190D02*
X158050000Y-115360952D01*
X158097619Y-115313333D01*
X158192857Y-115265714D01*
X158288095Y-115265714D01*
X158621428Y-115932380D02*
X158621428Y-115265714D01*
X158621428Y-114932380D02*
X158573809Y-114980000D01*
X158621428Y-115027619D01*
X158669047Y-114980000D01*
X158621428Y-114932380D01*
X158621428Y-115027619D01*
X159002380Y-115265714D02*
X159526190Y-115265714D01*
X159002380Y-115932380D01*
X159526190Y-115932380D01*
X160050000Y-115932380D02*
X159954761Y-115884761D01*
X159907142Y-115837142D01*
X159859523Y-115741904D01*
X159859523Y-115456190D01*
X159907142Y-115360952D01*
X159954761Y-115313333D01*
X160050000Y-115265714D01*
X160192857Y-115265714D01*
X160288095Y-115313333D01*
X160335714Y-115360952D01*
X160383333Y-115456190D01*
X160383333Y-115741904D01*
X160335714Y-115837142D01*
X160288095Y-115884761D01*
X160192857Y-115932380D01*
X160050000Y-115932380D01*
X160811904Y-115265714D02*
X160811904Y-115932380D01*
X160811904Y-115360952D02*
X160859523Y-115313333D01*
X160954761Y-115265714D01*
X161097619Y-115265714D01*
X161192857Y-115313333D01*
X161240476Y-115408571D01*
X161240476Y-115932380D01*
X161573809Y-115265714D02*
X161954761Y-115265714D01*
X161716666Y-114932380D02*
X161716666Y-115789523D01*
X161764285Y-115884761D01*
X161859523Y-115932380D01*
X161954761Y-115932380D01*
X162716666Y-115932380D02*
X162716666Y-115408571D01*
X162669047Y-115313333D01*
X162573809Y-115265714D01*
X162383333Y-115265714D01*
X162288095Y-115313333D01*
X162716666Y-115884761D02*
X162621428Y-115932380D01*
X162383333Y-115932380D01*
X162288095Y-115884761D01*
X162240476Y-115789523D01*
X162240476Y-115694285D01*
X162288095Y-115599047D01*
X162383333Y-115551428D01*
X162621428Y-115551428D01*
X162716666Y-115503809D01*
X163335714Y-115932380D02*
X163240476Y-115884761D01*
X163192857Y-115789523D01*
X163192857Y-114932380D01*
X149963809Y-113462380D02*
X149963809Y-112462380D01*
X150201904Y-112462380D01*
X150344761Y-112510000D01*
X150440000Y-112605238D01*
X150487619Y-112700476D01*
X150535238Y-112890952D01*
X150535238Y-113033809D01*
X150487619Y-113224285D01*
X150440000Y-113319523D01*
X150344761Y-113414761D01*
X150201904Y-113462380D01*
X149963809Y-113462380D01*
X150963809Y-113462380D02*
X150963809Y-112462380D01*
X151630476Y-112462380D02*
X151820952Y-112462380D01*
X151916190Y-112510000D01*
X152011428Y-112605238D01*
X152059047Y-112795714D01*
X152059047Y-113129047D01*
X152011428Y-113319523D01*
X151916190Y-113414761D01*
X151820952Y-113462380D01*
X151630476Y-113462380D01*
X151535238Y-113414761D01*
X151440000Y-113319523D01*
X151392380Y-113129047D01*
X151392380Y-112795714D01*
X151440000Y-112605238D01*
X151535238Y-112510000D01*
X151630476Y-112462380D01*
X152487619Y-113462380D02*
X152487619Y-112462380D01*
X152725714Y-112462380D01*
X152868571Y-112510000D01*
X152963809Y-112605238D01*
X153011428Y-112700476D01*
X153059047Y-112890952D01*
X153059047Y-113033809D01*
X153011428Y-113224285D01*
X152963809Y-113319523D01*
X152868571Y-113414761D01*
X152725714Y-113462380D01*
X152487619Y-113462380D01*
X153487619Y-112938571D02*
X153820952Y-112938571D01*
X153963809Y-113462380D02*
X153487619Y-113462380D01*
X153487619Y-112462380D01*
X153963809Y-112462380D01*
X146208095Y-111562380D02*
X146208095Y-110562380D01*
X146779523Y-111562380D02*
X146350952Y-110990952D01*
X146779523Y-110562380D02*
X146208095Y-111133809D01*
%TO.C,REF\u002A\u002A*%
X163082380Y-123913095D02*
X162082380Y-123913095D01*
X162082380Y-123532142D01*
X162130000Y-123436904D01*
X162177619Y-123389285D01*
X162272857Y-123341666D01*
X162415714Y-123341666D01*
X162510952Y-123389285D01*
X162558571Y-123436904D01*
X162606190Y-123532142D01*
X162606190Y-123913095D01*
X163082380Y-122913095D02*
X162415714Y-122913095D01*
X162082380Y-122913095D02*
X162130000Y-122960714D01*
X162177619Y-122913095D01*
X162130000Y-122865476D01*
X162082380Y-122913095D01*
X162177619Y-122913095D01*
X162415714Y-122436904D02*
X163082380Y-122436904D01*
X162510952Y-122436904D02*
X162463333Y-122389285D01*
X162415714Y-122294047D01*
X162415714Y-122151190D01*
X162463333Y-122055952D01*
X162558571Y-122008333D01*
X163082380Y-122008333D01*
X163034761Y-121579761D02*
X163082380Y-121436904D01*
X163082380Y-121198809D01*
X163034761Y-121103571D01*
X162987142Y-121055952D01*
X162891904Y-121008333D01*
X162796666Y-121008333D01*
X162701428Y-121055952D01*
X162653809Y-121103571D01*
X162606190Y-121198809D01*
X162558571Y-121389285D01*
X162510952Y-121484523D01*
X162463333Y-121532142D01*
X162368095Y-121579761D01*
X162272857Y-121579761D01*
X162177619Y-121532142D01*
X162130000Y-121484523D01*
X162082380Y-121389285D01*
X162082380Y-121151190D01*
X162130000Y-121008333D01*
X163082380Y-120436904D02*
X163034761Y-120532142D01*
X162987142Y-120579761D01*
X162891904Y-120627380D01*
X162606190Y-120627380D01*
X162510952Y-120579761D01*
X162463333Y-120532142D01*
X162415714Y-120436904D01*
X162415714Y-120294047D01*
X162463333Y-120198809D01*
X162510952Y-120151190D01*
X162606190Y-120103571D01*
X162891904Y-120103571D01*
X162987142Y-120151190D01*
X163034761Y-120198809D01*
X163082380Y-120294047D01*
X163082380Y-120436904D01*
X163034761Y-119246428D02*
X163082380Y-119341666D01*
X163082380Y-119532142D01*
X163034761Y-119627380D01*
X162987142Y-119675000D01*
X162891904Y-119722619D01*
X162606190Y-119722619D01*
X162510952Y-119675000D01*
X162463333Y-119627380D01*
X162415714Y-119532142D01*
X162415714Y-119341666D01*
X162463333Y-119246428D01*
X163082380Y-118817857D02*
X162082380Y-118817857D01*
X162701428Y-118722619D02*
X163082380Y-118436904D01*
X162415714Y-118436904D02*
X162796666Y-118817857D01*
X163034761Y-117627380D02*
X163082380Y-117722619D01*
X163082380Y-117913095D01*
X163034761Y-118008333D01*
X162939523Y-118055952D01*
X162558571Y-118055952D01*
X162463333Y-118008333D01*
X162415714Y-117913095D01*
X162415714Y-117722619D01*
X162463333Y-117627380D01*
X162558571Y-117579761D01*
X162653809Y-117579761D01*
X162749047Y-118055952D01*
X162415714Y-117294047D02*
X162415714Y-116913095D01*
X162082380Y-117151190D02*
X162939523Y-117151190D01*
X163034761Y-117103571D01*
X163082380Y-117008333D01*
X163082380Y-116913095D01*
X163177619Y-116817857D02*
X163177619Y-116055952D01*
X163082380Y-115294047D02*
X163082380Y-115865476D01*
X163082380Y-115579761D02*
X162082380Y-115579761D01*
X162225238Y-115675000D01*
X162320476Y-115770238D01*
X162368095Y-115865476D01*
X163082380Y-114960714D02*
X162415714Y-114436904D01*
X162415714Y-114960714D02*
X163082380Y-114436904D01*
X162082380Y-113865476D02*
X162082380Y-113770238D01*
X162130000Y-113675000D01*
X162177619Y-113627380D01*
X162272857Y-113579761D01*
X162463333Y-113532142D01*
X162701428Y-113532142D01*
X162891904Y-113579761D01*
X162987142Y-113627380D01*
X163034761Y-113675000D01*
X163082380Y-113770238D01*
X163082380Y-113865476D01*
X163034761Y-113960714D01*
X162987142Y-114008333D01*
X162891904Y-114055952D01*
X162701428Y-114103571D01*
X162463333Y-114103571D01*
X162272857Y-114055952D01*
X162177619Y-114008333D01*
X162130000Y-113960714D01*
X162082380Y-113865476D01*
X162415714Y-112675000D02*
X163082380Y-112675000D01*
X162034761Y-112913095D02*
X162749047Y-113151190D01*
X162749047Y-112532142D01*
X163177619Y-112389285D02*
X163177619Y-111627380D01*
X163082380Y-111389285D02*
X162082380Y-111389285D01*
X162082380Y-111008333D01*
X162130000Y-110913095D01*
X162177619Y-110865476D01*
X162272857Y-110817857D01*
X162415714Y-110817857D01*
X162510952Y-110865476D01*
X162558571Y-110913095D01*
X162606190Y-111008333D01*
X162606190Y-111389285D01*
X162177619Y-110436904D02*
X162130000Y-110389285D01*
X162082380Y-110294047D01*
X162082380Y-110055952D01*
X162130000Y-109960714D01*
X162177619Y-109913095D01*
X162272857Y-109865476D01*
X162368095Y-109865476D01*
X162510952Y-109913095D01*
X163082380Y-110484523D01*
X163082380Y-109865476D01*
X162987142Y-109436904D02*
X163034761Y-109389285D01*
X163082380Y-109436904D01*
X163034761Y-109484523D01*
X162987142Y-109436904D01*
X163082380Y-109436904D01*
X162082380Y-108484523D02*
X162082380Y-108960714D01*
X162558571Y-109008333D01*
X162510952Y-108960714D01*
X162463333Y-108865476D01*
X162463333Y-108627380D01*
X162510952Y-108532142D01*
X162558571Y-108484523D01*
X162653809Y-108436904D01*
X162891904Y-108436904D01*
X162987142Y-108484523D01*
X163034761Y-108532142D01*
X163082380Y-108627380D01*
X163082380Y-108865476D01*
X163034761Y-108960714D01*
X162987142Y-109008333D01*
X162415714Y-107579761D02*
X163082380Y-107579761D01*
X162034761Y-107817857D02*
X162749047Y-108055952D01*
X162749047Y-107436904D01*
X163082380Y-107055952D02*
X162415714Y-107055952D01*
X162510952Y-107055952D02*
X162463333Y-107008333D01*
X162415714Y-106913095D01*
X162415714Y-106770238D01*
X162463333Y-106675000D01*
X162558571Y-106627380D01*
X163082380Y-106627380D01*
X162558571Y-106627380D02*
X162463333Y-106579761D01*
X162415714Y-106484523D01*
X162415714Y-106341666D01*
X162463333Y-106246428D01*
X162558571Y-106198809D01*
X163082380Y-106198809D01*
X163082380Y-105722619D02*
X162415714Y-105722619D01*
X162510952Y-105722619D02*
X162463333Y-105675000D01*
X162415714Y-105579761D01*
X162415714Y-105436904D01*
X162463333Y-105341666D01*
X162558571Y-105294047D01*
X163082380Y-105294047D01*
X162558571Y-105294047D02*
X162463333Y-105246428D01*
X162415714Y-105151190D01*
X162415714Y-105008333D01*
X162463333Y-104913095D01*
X162558571Y-104865476D01*
X163082380Y-104865476D01*
X163177619Y-104627380D02*
X163177619Y-103865476D01*
X162082380Y-103770238D02*
X163082380Y-103436904D01*
X162082380Y-103103571D01*
X163034761Y-102389285D02*
X163082380Y-102484523D01*
X163082380Y-102675000D01*
X163034761Y-102770238D01*
X162939523Y-102817857D01*
X162558571Y-102817857D01*
X162463333Y-102770238D01*
X162415714Y-102675000D01*
X162415714Y-102484523D01*
X162463333Y-102389285D01*
X162558571Y-102341666D01*
X162653809Y-102341666D01*
X162749047Y-102817857D01*
X163082380Y-101913095D02*
X162415714Y-101913095D01*
X162606190Y-101913095D02*
X162510952Y-101865476D01*
X162463333Y-101817857D01*
X162415714Y-101722619D01*
X162415714Y-101627380D01*
X162415714Y-101436904D02*
X162415714Y-101055952D01*
X162082380Y-101294047D02*
X162939523Y-101294047D01*
X163034761Y-101246428D01*
X163082380Y-101151190D01*
X163082380Y-101055952D01*
X163082380Y-100722619D02*
X162415714Y-100722619D01*
X162082380Y-100722619D02*
X162130000Y-100770238D01*
X162177619Y-100722619D01*
X162130000Y-100675000D01*
X162082380Y-100722619D01*
X162177619Y-100722619D01*
X163034761Y-99817857D02*
X163082380Y-99913095D01*
X163082380Y-100103571D01*
X163034761Y-100198809D01*
X162987142Y-100246428D01*
X162891904Y-100294047D01*
X162606190Y-100294047D01*
X162510952Y-100246428D01*
X162463333Y-100198809D01*
X162415714Y-100103571D01*
X162415714Y-99913095D01*
X162463333Y-99817857D01*
X163082380Y-98960714D02*
X162558571Y-98960714D01*
X162463333Y-99008333D01*
X162415714Y-99103571D01*
X162415714Y-99294047D01*
X162463333Y-99389285D01*
X163034761Y-98960714D02*
X163082380Y-99055952D01*
X163082380Y-99294047D01*
X163034761Y-99389285D01*
X162939523Y-99436904D01*
X162844285Y-99436904D01*
X162749047Y-99389285D01*
X162701428Y-99294047D01*
X162701428Y-99055952D01*
X162653809Y-98960714D01*
X163082380Y-98341666D02*
X163034761Y-98436904D01*
X162939523Y-98484523D01*
X162082380Y-98484523D01*
X167876666Y-111627380D02*
X167543333Y-111151190D01*
X167305238Y-111627380D02*
X167305238Y-110627380D01*
X167686190Y-110627380D01*
X167781428Y-110675000D01*
X167829047Y-110722619D01*
X167876666Y-110817857D01*
X167876666Y-110960714D01*
X167829047Y-111055952D01*
X167781428Y-111103571D01*
X167686190Y-111151190D01*
X167305238Y-111151190D01*
X168305238Y-111103571D02*
X168638571Y-111103571D01*
X168781428Y-111627380D02*
X168305238Y-111627380D01*
X168305238Y-110627380D01*
X168781428Y-110627380D01*
X169543333Y-111103571D02*
X169210000Y-111103571D01*
X169210000Y-111627380D02*
X169210000Y-110627380D01*
X169686190Y-110627380D01*
X170210000Y-110627380D02*
X170210000Y-110865476D01*
X169971904Y-110770238D02*
X170210000Y-110865476D01*
X170448095Y-110770238D01*
X170067142Y-111055952D02*
X170210000Y-110865476D01*
X170352857Y-111055952D01*
X170971904Y-110627380D02*
X170971904Y-110865476D01*
X170733809Y-110770238D02*
X170971904Y-110865476D01*
X171210000Y-110770238D01*
X170829047Y-111055952D02*
X170971904Y-110865476D01*
X171114761Y-111055952D01*
%TO.C,MouseDPI*%
X158550761Y-67542666D02*
X158598380Y-67399809D01*
X158598380Y-67161714D01*
X158550761Y-67066476D01*
X158503142Y-67018857D01*
X158407904Y-66971238D01*
X158312666Y-66971238D01*
X158217428Y-67018857D01*
X158169809Y-67066476D01*
X158122190Y-67161714D01*
X158074571Y-67352190D01*
X158026952Y-67447428D01*
X157979333Y-67495047D01*
X157884095Y-67542666D01*
X157788857Y-67542666D01*
X157693619Y-67495047D01*
X157646000Y-67447428D01*
X157598380Y-67352190D01*
X157598380Y-67114095D01*
X157646000Y-66971238D01*
X157598380Y-66637904D02*
X158598380Y-66399809D01*
X157884095Y-66209333D01*
X158598380Y-66018857D01*
X157598380Y-65780761D01*
X158693619Y-65637904D02*
X158693619Y-64876000D01*
X158598380Y-64637904D02*
X157598380Y-64637904D01*
X157598380Y-64256952D01*
X157646000Y-64161714D01*
X157693619Y-64114095D01*
X157788857Y-64066476D01*
X157931714Y-64066476D01*
X158026952Y-64114095D01*
X158074571Y-64161714D01*
X158122190Y-64256952D01*
X158122190Y-64637904D01*
X157598380Y-63637904D02*
X158407904Y-63637904D01*
X158503142Y-63590285D01*
X158550761Y-63542666D01*
X158598380Y-63447428D01*
X158598380Y-63256952D01*
X158550761Y-63161714D01*
X158503142Y-63114095D01*
X158407904Y-63066476D01*
X157598380Y-63066476D01*
X158550761Y-62637904D02*
X158598380Y-62495047D01*
X158598380Y-62256952D01*
X158550761Y-62161714D01*
X158503142Y-62114095D01*
X158407904Y-62066476D01*
X158312666Y-62066476D01*
X158217428Y-62114095D01*
X158169809Y-62161714D01*
X158122190Y-62256952D01*
X158074571Y-62447428D01*
X158026952Y-62542666D01*
X157979333Y-62590285D01*
X157884095Y-62637904D01*
X157788857Y-62637904D01*
X157693619Y-62590285D01*
X157646000Y-62542666D01*
X157598380Y-62447428D01*
X157598380Y-62209333D01*
X157646000Y-62066476D01*
X158598380Y-61637904D02*
X157598380Y-61637904D01*
X158074571Y-61637904D02*
X158074571Y-61066476D01*
X158598380Y-61066476D02*
X157598380Y-61066476D01*
X158693619Y-60828380D02*
X158693619Y-60066476D01*
X157598380Y-59399809D02*
X157598380Y-59590285D01*
X157646000Y-59685523D01*
X157693619Y-59733142D01*
X157836476Y-59828380D01*
X158026952Y-59876000D01*
X158407904Y-59876000D01*
X158503142Y-59828380D01*
X158550761Y-59780761D01*
X158598380Y-59685523D01*
X158598380Y-59495047D01*
X158550761Y-59399809D01*
X158503142Y-59352190D01*
X158407904Y-59304571D01*
X158169809Y-59304571D01*
X158074571Y-59352190D01*
X158026952Y-59399809D01*
X157979333Y-59495047D01*
X157979333Y-59685523D01*
X158026952Y-59780761D01*
X158074571Y-59828380D01*
X158169809Y-59876000D01*
X158598380Y-58876000D02*
X157931714Y-58876000D01*
X158026952Y-58876000D02*
X157979333Y-58828380D01*
X157931714Y-58733142D01*
X157931714Y-58590285D01*
X157979333Y-58495047D01*
X158074571Y-58447428D01*
X158598380Y-58447428D01*
X158074571Y-58447428D02*
X157979333Y-58399809D01*
X157931714Y-58304571D01*
X157931714Y-58161714D01*
X157979333Y-58066476D01*
X158074571Y-58018857D01*
X158598380Y-58018857D01*
X158598380Y-57542666D02*
X157931714Y-57542666D01*
X158026952Y-57542666D02*
X157979333Y-57495047D01*
X157931714Y-57399809D01*
X157931714Y-57256952D01*
X157979333Y-57161714D01*
X158074571Y-57114095D01*
X158598380Y-57114095D01*
X158074571Y-57114095D02*
X157979333Y-57066476D01*
X157931714Y-56971238D01*
X157931714Y-56828380D01*
X157979333Y-56733142D01*
X158074571Y-56685523D01*
X158598380Y-56685523D01*
X158693619Y-56447428D02*
X158693619Y-55685523D01*
X158598380Y-55447428D02*
X157598380Y-55447428D01*
X158074571Y-55447428D02*
X158074571Y-54876000D01*
X158598380Y-54876000D02*
X157598380Y-54876000D01*
X157598380Y-53923619D02*
X157598380Y-54399809D01*
X158074571Y-54447428D01*
X158026952Y-54399809D01*
X157979333Y-54304571D01*
X157979333Y-54066476D01*
X158026952Y-53971238D01*
X158074571Y-53923619D01*
X158169809Y-53876000D01*
X158407904Y-53876000D01*
X158503142Y-53923619D01*
X158550761Y-53971238D01*
X158598380Y-54066476D01*
X158598380Y-54304571D01*
X158550761Y-54399809D01*
X158503142Y-54447428D01*
X158598380Y-53447428D02*
X157931714Y-53447428D01*
X158026952Y-53447428D02*
X157979333Y-53399809D01*
X157931714Y-53304571D01*
X157931714Y-53161714D01*
X157979333Y-53066476D01*
X158074571Y-53018857D01*
X158598380Y-53018857D01*
X158074571Y-53018857D02*
X157979333Y-52971238D01*
X157931714Y-52876000D01*
X157931714Y-52733142D01*
X157979333Y-52637904D01*
X158074571Y-52590285D01*
X158598380Y-52590285D01*
X158598380Y-52114095D02*
X157931714Y-52114095D01*
X158026952Y-52114095D02*
X157979333Y-52066476D01*
X157931714Y-51971238D01*
X157931714Y-51828380D01*
X157979333Y-51733142D01*
X158074571Y-51685523D01*
X158598380Y-51685523D01*
X158074571Y-51685523D02*
X157979333Y-51637904D01*
X157931714Y-51542666D01*
X157931714Y-51399809D01*
X157979333Y-51304571D01*
X158074571Y-51256952D01*
X158598380Y-51256952D01*
X167838380Y-62491523D02*
X166838380Y-62491523D01*
X167552666Y-62158190D01*
X166838380Y-61824857D01*
X167838380Y-61824857D01*
X167838380Y-61205809D02*
X167790761Y-61301047D01*
X167743142Y-61348666D01*
X167647904Y-61396285D01*
X167362190Y-61396285D01*
X167266952Y-61348666D01*
X167219333Y-61301047D01*
X167171714Y-61205809D01*
X167171714Y-61062952D01*
X167219333Y-60967714D01*
X167266952Y-60920095D01*
X167362190Y-60872476D01*
X167647904Y-60872476D01*
X167743142Y-60920095D01*
X167790761Y-60967714D01*
X167838380Y-61062952D01*
X167838380Y-61205809D01*
X167171714Y-60015333D02*
X167838380Y-60015333D01*
X167171714Y-60443904D02*
X167695523Y-60443904D01*
X167790761Y-60396285D01*
X167838380Y-60301047D01*
X167838380Y-60158190D01*
X167790761Y-60062952D01*
X167743142Y-60015333D01*
X167790761Y-59586761D02*
X167838380Y-59491523D01*
X167838380Y-59301047D01*
X167790761Y-59205809D01*
X167695523Y-59158190D01*
X167647904Y-59158190D01*
X167552666Y-59205809D01*
X167505047Y-59301047D01*
X167505047Y-59443904D01*
X167457428Y-59539142D01*
X167362190Y-59586761D01*
X167314571Y-59586761D01*
X167219333Y-59539142D01*
X167171714Y-59443904D01*
X167171714Y-59301047D01*
X167219333Y-59205809D01*
X167790761Y-58348666D02*
X167838380Y-58443904D01*
X167838380Y-58634380D01*
X167790761Y-58729619D01*
X167695523Y-58777238D01*
X167314571Y-58777238D01*
X167219333Y-58729619D01*
X167171714Y-58634380D01*
X167171714Y-58443904D01*
X167219333Y-58348666D01*
X167314571Y-58301047D01*
X167409809Y-58301047D01*
X167505047Y-58777238D01*
X167838380Y-57872476D02*
X166838380Y-57872476D01*
X166838380Y-57634380D01*
X166886000Y-57491523D01*
X166981238Y-57396285D01*
X167076476Y-57348666D01*
X167266952Y-57301047D01*
X167409809Y-57301047D01*
X167600285Y-57348666D01*
X167695523Y-57396285D01*
X167790761Y-57491523D01*
X167838380Y-57634380D01*
X167838380Y-57872476D01*
X167838380Y-56872476D02*
X166838380Y-56872476D01*
X166838380Y-56491523D01*
X166886000Y-56396285D01*
X166933619Y-56348666D01*
X167028857Y-56301047D01*
X167171714Y-56301047D01*
X167266952Y-56348666D01*
X167314571Y-56396285D01*
X167362190Y-56491523D01*
X167362190Y-56872476D01*
X167838380Y-55872476D02*
X166838380Y-55872476D01*
%TO.C,REF\u002A\u002A*%
X137231457Y-74511980D02*
X137231457Y-73511980D01*
X137612409Y-73511980D01*
X137707647Y-73559600D01*
X137755266Y-73607219D01*
X137802885Y-73702457D01*
X137802885Y-73845314D01*
X137755266Y-73940552D01*
X137707647Y-73988171D01*
X137612409Y-74035790D01*
X137231457Y-74035790D01*
X138231457Y-74511980D02*
X138231457Y-73845314D01*
X138231457Y-73511980D02*
X138183838Y-73559600D01*
X138231457Y-73607219D01*
X138279076Y-73559600D01*
X138231457Y-73511980D01*
X138231457Y-73607219D01*
X138707647Y-73845314D02*
X138707647Y-74511980D01*
X138707647Y-73940552D02*
X138755266Y-73892933D01*
X138850504Y-73845314D01*
X138993361Y-73845314D01*
X139088600Y-73892933D01*
X139136219Y-73988171D01*
X139136219Y-74511980D01*
X139612409Y-74511980D02*
X139612409Y-73511980D01*
X139612409Y-73988171D02*
X140183838Y-73988171D01*
X140183838Y-74511980D02*
X140183838Y-73511980D01*
X141040980Y-74464361D02*
X140945742Y-74511980D01*
X140755266Y-74511980D01*
X140660028Y-74464361D01*
X140612409Y-74369123D01*
X140612409Y-73988171D01*
X140660028Y-73892933D01*
X140755266Y-73845314D01*
X140945742Y-73845314D01*
X141040980Y-73892933D01*
X141088600Y-73988171D01*
X141088600Y-74083409D01*
X140612409Y-74178647D01*
X141945742Y-74511980D02*
X141945742Y-73988171D01*
X141898123Y-73892933D01*
X141802885Y-73845314D01*
X141612409Y-73845314D01*
X141517171Y-73892933D01*
X141945742Y-74464361D02*
X141850504Y-74511980D01*
X141612409Y-74511980D01*
X141517171Y-74464361D01*
X141469552Y-74369123D01*
X141469552Y-74273885D01*
X141517171Y-74178647D01*
X141612409Y-74131028D01*
X141850504Y-74131028D01*
X141945742Y-74083409D01*
X142850504Y-74511980D02*
X142850504Y-73511980D01*
X142850504Y-74464361D02*
X142755266Y-74511980D01*
X142564790Y-74511980D01*
X142469552Y-74464361D01*
X142421933Y-74416742D01*
X142374314Y-74321504D01*
X142374314Y-74035790D01*
X142421933Y-73940552D01*
X142469552Y-73892933D01*
X142564790Y-73845314D01*
X142755266Y-73845314D01*
X142850504Y-73892933D01*
X143707647Y-74464361D02*
X143612409Y-74511980D01*
X143421933Y-74511980D01*
X143326695Y-74464361D01*
X143279076Y-74369123D01*
X143279076Y-73988171D01*
X143326695Y-73892933D01*
X143421933Y-73845314D01*
X143612409Y-73845314D01*
X143707647Y-73892933D01*
X143755266Y-73988171D01*
X143755266Y-74083409D01*
X143279076Y-74178647D01*
X144183838Y-74511980D02*
X144183838Y-73845314D01*
X144183838Y-74035790D02*
X144231457Y-73940552D01*
X144279076Y-73892933D01*
X144374314Y-73845314D01*
X144469552Y-73845314D01*
X144564790Y-74607219D02*
X145326695Y-74607219D01*
X146088600Y-74511980D02*
X145517171Y-74511980D01*
X145802885Y-74511980D02*
X145802885Y-73511980D01*
X145707647Y-73654838D01*
X145612409Y-73750076D01*
X145517171Y-73797695D01*
X146421933Y-74511980D02*
X146945742Y-73845314D01*
X146421933Y-73845314D02*
X146945742Y-74511980D01*
X147517171Y-73511980D02*
X147612409Y-73511980D01*
X147707647Y-73559600D01*
X147755266Y-73607219D01*
X147802885Y-73702457D01*
X147850504Y-73892933D01*
X147850504Y-74131028D01*
X147802885Y-74321504D01*
X147755266Y-74416742D01*
X147707647Y-74464361D01*
X147612409Y-74511980D01*
X147517171Y-74511980D01*
X147421933Y-74464361D01*
X147374314Y-74416742D01*
X147326695Y-74321504D01*
X147279076Y-74131028D01*
X147279076Y-73892933D01*
X147326695Y-73702457D01*
X147374314Y-73607219D01*
X147421933Y-73559600D01*
X147517171Y-73511980D01*
X148802885Y-74511980D02*
X148231457Y-74511980D01*
X148517171Y-74511980D02*
X148517171Y-73511980D01*
X148421933Y-73654838D01*
X148326695Y-73750076D01*
X148231457Y-73797695D01*
X148993361Y-74607219D02*
X149755266Y-74607219D01*
X149993361Y-74511980D02*
X149993361Y-73511980D01*
X150374314Y-73511980D01*
X150469552Y-73559600D01*
X150517171Y-73607219D01*
X150564790Y-73702457D01*
X150564790Y-73845314D01*
X150517171Y-73940552D01*
X150469552Y-73988171D01*
X150374314Y-74035790D01*
X149993361Y-74035790D01*
X150945742Y-73607219D02*
X150993361Y-73559600D01*
X151088600Y-73511980D01*
X151326695Y-73511980D01*
X151421933Y-73559600D01*
X151469552Y-73607219D01*
X151517171Y-73702457D01*
X151517171Y-73797695D01*
X151469552Y-73940552D01*
X150898123Y-74511980D01*
X151517171Y-74511980D01*
X151945742Y-74416742D02*
X151993361Y-74464361D01*
X151945742Y-74511980D01*
X151898123Y-74464361D01*
X151945742Y-74416742D01*
X151945742Y-74511980D01*
X152898123Y-73511980D02*
X152421933Y-73511980D01*
X152374314Y-73988171D01*
X152421933Y-73940552D01*
X152517171Y-73892933D01*
X152755266Y-73892933D01*
X152850504Y-73940552D01*
X152898123Y-73988171D01*
X152945742Y-74083409D01*
X152945742Y-74321504D01*
X152898123Y-74416742D01*
X152850504Y-74464361D01*
X152755266Y-74511980D01*
X152517171Y-74511980D01*
X152421933Y-74464361D01*
X152374314Y-74416742D01*
X153802885Y-73845314D02*
X153802885Y-74511980D01*
X153564790Y-73464361D02*
X153326695Y-74178647D01*
X153945742Y-74178647D01*
X154326695Y-74511980D02*
X154326695Y-73845314D01*
X154326695Y-73940552D02*
X154374314Y-73892933D01*
X154469552Y-73845314D01*
X154612409Y-73845314D01*
X154707647Y-73892933D01*
X154755266Y-73988171D01*
X154755266Y-74511980D01*
X154755266Y-73988171D02*
X154802885Y-73892933D01*
X154898123Y-73845314D01*
X155040980Y-73845314D01*
X155136219Y-73892933D01*
X155183838Y-73988171D01*
X155183838Y-74511980D01*
X155660028Y-74511980D02*
X155660028Y-73845314D01*
X155660028Y-73940552D02*
X155707647Y-73892933D01*
X155802885Y-73845314D01*
X155945742Y-73845314D01*
X156040980Y-73892933D01*
X156088600Y-73988171D01*
X156088600Y-74511980D01*
X156088600Y-73988171D02*
X156136219Y-73892933D01*
X156231457Y-73845314D01*
X156374314Y-73845314D01*
X156469552Y-73892933D01*
X156517171Y-73988171D01*
X156517171Y-74511980D01*
X156755266Y-74607219D02*
X157517171Y-74607219D01*
X157612409Y-73511980D02*
X157945742Y-74511980D01*
X158279076Y-73511980D01*
X158993361Y-74464361D02*
X158898123Y-74511980D01*
X158707647Y-74511980D01*
X158612409Y-74464361D01*
X158564790Y-74369123D01*
X158564790Y-73988171D01*
X158612409Y-73892933D01*
X158707647Y-73845314D01*
X158898123Y-73845314D01*
X158993361Y-73892933D01*
X159040980Y-73988171D01*
X159040980Y-74083409D01*
X158564790Y-74178647D01*
X159469552Y-74511980D02*
X159469552Y-73845314D01*
X159469552Y-74035790D02*
X159517171Y-73940552D01*
X159564790Y-73892933D01*
X159660028Y-73845314D01*
X159755266Y-73845314D01*
X159945742Y-73845314D02*
X160326695Y-73845314D01*
X160088600Y-73511980D02*
X160088600Y-74369123D01*
X160136219Y-74464361D01*
X160231457Y-74511980D01*
X160326695Y-74511980D01*
X160660028Y-74511980D02*
X160660028Y-73845314D01*
X160660028Y-73511980D02*
X160612409Y-73559600D01*
X160660028Y-73607219D01*
X160707647Y-73559600D01*
X160660028Y-73511980D01*
X160660028Y-73607219D01*
X161564790Y-74464361D02*
X161469552Y-74511980D01*
X161279076Y-74511980D01*
X161183838Y-74464361D01*
X161136219Y-74416742D01*
X161088600Y-74321504D01*
X161088600Y-74035790D01*
X161136219Y-73940552D01*
X161183838Y-73892933D01*
X161279076Y-73845314D01*
X161469552Y-73845314D01*
X161564790Y-73892933D01*
X162421933Y-74511980D02*
X162421933Y-73988171D01*
X162374314Y-73892933D01*
X162279076Y-73845314D01*
X162088600Y-73845314D01*
X161993361Y-73892933D01*
X162421933Y-74464361D02*
X162326695Y-74511980D01*
X162088600Y-74511980D01*
X161993361Y-74464361D01*
X161945742Y-74369123D01*
X161945742Y-74273885D01*
X161993361Y-74178647D01*
X162088600Y-74131028D01*
X162326695Y-74131028D01*
X162421933Y-74083409D01*
X163040980Y-74511980D02*
X162945742Y-74464361D01*
X162898123Y-74369123D01*
X162898123Y-73511980D01*
X150921980Y-72554933D02*
X150445790Y-72888266D01*
X150921980Y-73126361D02*
X149921980Y-73126361D01*
X149921980Y-72745409D01*
X149969600Y-72650171D01*
X150017219Y-72602552D01*
X150112457Y-72554933D01*
X150255314Y-72554933D01*
X150350552Y-72602552D01*
X150398171Y-72650171D01*
X150445790Y-72745409D01*
X150445790Y-73126361D01*
X150398171Y-72126361D02*
X150398171Y-71793028D01*
X150921980Y-71650171D02*
X150921980Y-72126361D01*
X149921980Y-72126361D01*
X149921980Y-71650171D01*
X150398171Y-70888266D02*
X150398171Y-71221600D01*
X150921980Y-71221600D02*
X149921980Y-71221600D01*
X149921980Y-70745409D01*
X149921980Y-70221600D02*
X150160076Y-70221600D01*
X150064838Y-70459695D02*
X150160076Y-70221600D01*
X150064838Y-69983504D01*
X150350552Y-70364457D02*
X150160076Y-70221600D01*
X150350552Y-70078742D01*
X149921980Y-69459695D02*
X150160076Y-69459695D01*
X150064838Y-69697790D02*
X150160076Y-69459695D01*
X150064838Y-69221600D01*
X150350552Y-69602552D02*
X150160076Y-69459695D01*
X150350552Y-69316838D01*
D12*
%TO.C,10k*%
X162550000Y-107235000D02*
X164550000Y-107235000D01*
X164550000Y-108485000D02*
X162550000Y-108485000D01*
X164550000Y-107235000D02*
X164550000Y-108485000D01*
X162550000Y-108485000D02*
X162550000Y-107235000D01*
X167825000Y-76660000D02*
X167825000Y-74660000D01*
X169075000Y-74660000D02*
X169075000Y-76660000D01*
X167825000Y-74660000D02*
X169075000Y-74660000D01*
X169075000Y-76660000D02*
X167825000Y-76660000D01*
X162560000Y-105175000D02*
X164560000Y-105175000D01*
X164560000Y-106425000D02*
X162560000Y-106425000D01*
X164560000Y-105175000D02*
X164560000Y-106425000D01*
X162560000Y-106425000D02*
X162560000Y-105175000D01*
%TO.C,100k*%
X173185000Y-81900000D02*
X173185000Y-79900000D01*
X174435000Y-79900000D02*
X174435000Y-81900000D01*
X173185000Y-79900000D02*
X174435000Y-79900000D01*
X174435000Y-81900000D02*
X173185000Y-81900000D01*
X171825000Y-86400000D02*
X171825000Y-84400000D01*
X173075000Y-84400000D02*
X173075000Y-86400000D01*
X171825000Y-84400000D02*
X173075000Y-84400000D01*
X173075000Y-86400000D02*
X171825000Y-86400000D01*
X174585000Y-101560000D02*
X174585000Y-103560000D01*
X173335000Y-103560000D02*
X173335000Y-101560000D01*
X174585000Y-103560000D02*
X173335000Y-103560000D01*
X173335000Y-101560000D02*
X174585000Y-101560000D01*
X171025000Y-101540000D02*
X172275000Y-101540000D01*
X172275000Y-103540000D02*
X171025000Y-103540000D01*
X172275000Y-101540000D02*
X172275000Y-103540000D01*
X171025000Y-103540000D02*
X171025000Y-101540000D01*
%TO.C,REF\u002A\u002A*%
X163728400Y-67970400D02*
X163728400Y-72415400D01*
X161188400Y-67970400D02*
X163728400Y-67970400D01*
X163093400Y-73050400D02*
X161188400Y-73050400D01*
X161188400Y-73050400D02*
X161188400Y-67970400D01*
X163728400Y-72415400D02*
X163093400Y-73050400D01*
%TO.C,CONFIG*%
X171816000Y-68097000D02*
X172451000Y-68732000D01*
X172451000Y-70637000D02*
X164831000Y-70637000D01*
X172451000Y-68732000D02*
X172451000Y-70637000D01*
X164831000Y-70637000D02*
X164831000Y-68097000D01*
X164831000Y-68097000D02*
X171816000Y-68097000D01*
%TO.C,Female DSUB9 connector*%
X132241000Y-129512000D02*
X137241000Y-129512000D01*
X157241000Y-129512000D02*
X162241000Y-129512000D01*
X162666000Y-124512000D02*
X162666000Y-124112000D01*
X137241000Y-124512000D02*
X132241000Y-124512000D01*
X162666000Y-113632000D02*
X131816000Y-113632000D01*
X157241000Y-124512000D02*
X157241000Y-129512000D01*
X131816000Y-113632000D02*
X131816000Y-124112000D01*
X131816000Y-124112000D02*
X162666000Y-124112000D01*
X139091000Y-124512000D02*
X139091000Y-130682000D01*
X155391000Y-130682000D02*
X155391000Y-124512000D01*
X139091000Y-130682000D02*
X155391000Y-130682000D01*
X162241000Y-124512000D02*
X157241000Y-124512000D01*
X137241000Y-129512000D02*
X137241000Y-124512000D01*
X136341000Y-124112000D02*
X136341000Y-116632000D01*
X155391000Y-124512000D02*
X139091000Y-124512000D01*
X162241000Y-129512000D02*
X162241000Y-124512000D01*
X161341000Y-124112000D02*
X161341000Y-116632000D01*
X162666000Y-124112000D02*
X131816000Y-124112000D01*
X131816000Y-124512000D02*
X162666000Y-124512000D01*
X158141000Y-124112000D02*
X158141000Y-116632000D01*
X133141000Y-124112000D02*
X133141000Y-116632000D01*
X131816000Y-124112000D02*
X131816000Y-124512000D01*
X162666000Y-124112000D02*
X162666000Y-113632000D01*
X132241000Y-124512000D02*
X132241000Y-129512000D01*
X136341000Y-116632000D02*
G75*
G03*
X133141000Y-116632000I-1600000J0D01*
G01*
X161341000Y-116632000D02*
G75*
G03*
X158141000Y-116632000I-1600000J0D01*
G01*
%TO.C,DIODE*%
X149630000Y-111660000D02*
X149630000Y-114360000D01*
X154150000Y-111660000D02*
X148950000Y-111660000D01*
X154150000Y-114360000D02*
X154150000Y-111660000D01*
X148950000Y-114360000D02*
X154150000Y-114360000D01*
X146470000Y-113010000D02*
X148950000Y-113010000D01*
X149830000Y-111660000D02*
X149830000Y-114360000D01*
X149730000Y-111660000D02*
X149730000Y-114360000D01*
X148950000Y-111660000D02*
X148950000Y-114360000D01*
X156630000Y-113010000D02*
X154150000Y-113010000D01*
%TO.C,REF\u002A\u002A*%
X164130000Y-109905000D02*
X174290000Y-109905000D01*
X164130000Y-112445000D02*
X164130000Y-109905000D01*
X174290000Y-109905000D02*
X174290000Y-111810000D01*
X173655000Y-112445000D02*
X164130000Y-112445000D01*
X174290000Y-111810000D02*
X173655000Y-112445000D01*
%TO.C,MouseDPI*%
X159596000Y-61876000D02*
X159596000Y-55876000D01*
X165596000Y-58876000D02*
X165596000Y-61876000D01*
X165596000Y-61876000D02*
X159596000Y-61876000D01*
X165596000Y-55876000D02*
X165596000Y-58876000D01*
X159596000Y-55876000D02*
X165596000Y-55876000D01*
X164611564Y-58876000D02*
G75*
G03*
X164611564Y-58876000I-2015564J0D01*
G01*
%TO.C,REF\u002A\u002A*%
X151739600Y-72491600D02*
X149199600Y-72491600D01*
X151739600Y-69951600D02*
X151739600Y-72491600D01*
X149199600Y-70586600D02*
X149834600Y-69951600D01*
X149834600Y-69951600D02*
X151739600Y-69951600D01*
X149199600Y-72491600D02*
X149199600Y-70586600D01*
%TD*%
M02*
